<svg xmlns="http://www.w3.org/2000/svg" width="210" height="170" viewBox="0 0 210 170"><g fill="#D3CBBE"><path d="M134.924 114.455c.085.62.107 1.26.272 1.86.18.652.35 1.398.78 1.876.725.8 1.66 1.402 2.49 2.112 1.07.91 2.28 1.72 3.145 2.8 1.347 1.683.707 3.958-1.123 4.577-1.16.394-2.294.138-3.15-.665-.927-.867-1.69-1.912-2.507-2.892-.717-.856-1.353-1.79-2.133-2.584-.607-.614-1.41-.89-2.352-.794-.452.05-.938-.226-1.577-.397a39.306 39.306 0 0 1-8.723 5.253 38.767 38.767 0 0 1-9.982 2.82 21.298 21.298 0 0 0 1.382 5.48c.932 2.34 2.24 4.395 4.54 5.624 2.347 1.252 4.805 1.12 7.26.402 4.368-1.274 8.265-3.5 11.962-6.094 6.48-4.543 11.94-10.135 16.697-16.438.062-.082.108-.176.18-.29-1.422-.43-2.827-.804-4.193-1.283-1.393-.492-2.636-1.267-3.755-2.345 1.838-.756 3.62-1.444 5.365-2.217 3.852-1.703 7.565-3.647 10.844-6.338 1.585-1.3 2.98-2.764 4.048-4.768.183.482.342.806.424 1.146.645 2.64.854 5.3.656 8.026-.526 7.23-3.023 13.853-6.078 20.314-.063.133-.153.254-.228.373a9549.62 9549.62 0 0 1-3.515-7.2c-.087.022-.175.04-.263.063-.4.888-.788 1.78-1.21 2.658-3.218 6.715-7.374 12.733-13.202 17.465-3.04 2.47-6.415 4.433-9.854 6.304-3.68 2-7.29 4.13-10.87 6.307a68.844 68.844 0 0 0-11.174 8.447c-1.574 1.466-2.975 3.124-4.433 4.673-4.9-6.322-11.52-10.728-18.303-14.896-3.527-2.168-7.208-4.09-10.843-6.078-9.927-5.433-16.562-13.744-21.035-23.957-.127-.29-.247-.584-.426-1.01-1.675 2.25-2.58 4.782-3.755 7.426-.782-1.74-1.524-3.297-2.187-4.883-1.88-4.51-3.358-9.14-3.956-14.01-.42-3.42-.507-6.832.536-10.18.086-.276.195-.546.313-.87.65.882 1.194 1.757 1.87 2.515 2.037 2.282 4.53 3.988 7.165 5.502 3.442 1.978 7.053 3.59 10.785 4.93.146.054.287.115.54.218-2.29 2.147-5.07 2.99-8.123 3.576.518.67.945 1.235 1.387 1.795 5.28 6.69 11.34 12.535 18.645 17 3.206 1.96 6.534 3.68 10.262 4.422 4.167.828 7.513-.75 9.575-4.465 1.25-2.248 1.903-4.687 2.29-7.314-7.103-1.025-13.44-3.744-18.745-8.02-.89.117-1.522.166-2.14.293-.49.1-.995.226-1.43.46-1.145.62-1.797 1.707-2.53 2.738-.77 1.082-1.62 2.125-2.564 3.05-.795.777-1.876 1.05-2.987.76-1.912-.503-2.6-2.642-1.477-4.48.807-1.325 2.042-2.16 3.295-2.997.816-.544 1.623-1.138 2.313-1.83.685-.69 1.122-1.522.916-2.612-.075-.4.25-.877.44-1.475-2.814-3.648-5.158-7.775-6.582-12.434l4.388-1.987c1.29 4.037 3.074 7.78 5.888 11.08.822-1.148 1.99-1.555 3.245-1.832.434-.095.822-.378 1.24-.556.44-.19.646-.406.508-.97-.206-.846.32-1.31 1.21-1.187 1.455.196 2.59-.826 2.566-2.313-.02-1.51.72-2.242 2.11-2.688.977-.313 1.863-.99 2.703-1.62 1.442-1.084 1.343-1.087.563-2.683-.71-1.45-1.24-2.986-1.908-4.627 2.186-.637 4.106-1.274 6.07-1.754 8.286-2.02 16.67-2.813 25.163-1.686 5.984.795 11.672 2.62 17.11 5.227.308.148.585.45.77.748.77 1.223 1.533 2.45 2.223 3.718.202.373.297.918.19 1.322-1.33 5.176-3.71 9.84-7.015 14.037-.08.1-.153.21-.23.314.086.007.163.005.24.005zm-8.904-6.25c1.52 1.322 3.895.93 5.113 2.842 3.893-5.057 6.212-10.576 6.946-16.593-1.062-.308-2-.53-2.902-.856-.692-.248-1.332-.647-2.013-.938-.388-.166-.7-.133-.985.326-.47.748-1.076.736-1.626.078-1.08-1.29-2.438-1.35-3.61-.152-.862.88-2.034 1.09-2.99.458-1.623-1.074-3.452-.875-5.276-1.033-.4 2.174-1.132 4.108-2.323 5.86-.095.14-.077.505.032.607 1.23 1.13 2.38 2.383 4.117 2.78 1.232.28 1.89 1.212 1.813 2.472-.097 1.527 1.07 2.603 2.606 2.398.872-.113 1.333.35 1.206 1.22-.03.18-.076.36-.11.53zm-42.283 8.463c4.827 3.695 10.052 5.982 16.005 6.865v-2.924c0-5.433-.012-10.862.016-16.294.004-.64-.188-.96-.787-1.166-.523-.178-1.02-.46-1.505-.742-1.31-.762-1.342-.803-2.313.422-.674.85-1.455 1.72-1.777 2.717-.57 1.762-1.06 2.31-2.896 2.318-1.29.006-2.337 1.236-2.142 2.516.15.98-.285 1.446-1.27 1.255-.437-.086-.645.03-.81.4-.205.465-.514.9-.627 1.385-.285 1.23-.637 2.404-1.893 3.248zm41.552.168c-.454-.816-.882-1.5-1.223-2.225-.382-.81-.684-1.657-1.02-2.487-.17-.416-.386-.6-.913-.48-.854.193-1.34-.327-1.225-1.178.208-1.514-.856-2.655-2.41-2.586-1.177.053-2.187-.57-2.416-1.693-.36-1.767-1.59-2.922-2.722-4.15-.138-.148-.576-.172-.79-.072-.77.363-1.48.867-2.266 1.195-.52.22-.64.492-.64 1.014.017 6.184.01 12.367.013 18.55 0 .233.027.466.05.786 5.84-.916 11.014-3.16 15.56-6.674z"/><path d="M74.383 66.158c-.117-.866-.144-1.5-.3-2.1-.166-.634-.31-1.367-.722-1.818-.746-.816-1.64-1.525-2.56-2.15-1.245-.85-2.484-1.686-3.288-3-.797-1.307-.688-2.854.226-3.8.887-.915 2.477-1.022 3.793-.245 1.357.803 2.156 2.104 3.044 3.344a17.783 17.783 0 0 0 2.295 2.636c.532.502 1.26.7 2.09.554.425-.074.92.25 1.532.44 5.502-4.4 11.927-7.176 19.12-8.313-.15-.033-.298-.092-.446-.094-4.9-.006-9.8-.018-14.7.012-.35.002-.757.22-1.037.455-2.314 1.943-5.436 2.156-7.9.497-2.68-1.8-3.728-4.9-2.495-7.968a6.503 6.503 0 0 1 7.348-3.97c1.19.242 2.207.76 3.136 1.525.265.22.648.414.98.416 4.953.022 9.906.01 14.86.007.078 0 .156-.02.384-.055v-.902c.01-3.936.01-7.87.037-11.807.005-.54-.22-.774-.686-1.006-8.084-4.004-10.05-14.072-4.077-20.8 6.083-6.853 17.766-5.124 21.563 3.19 3.124 6.838.447 14.348-6.31 17.637-.456.223-.603.48-.603.975.02 3.99.02 7.98-.002 11.97-.004.627.178.82.814.816 4.817-.02 9.638.002 14.456-.02.332-.002.726-.187.985-.408 2.02-1.724 4.303-2.142 6.744-1.222 2.395.902 3.778 2.728 4.162 5.27.394 2.618-.996 5.376-3.313 6.626-2.467 1.33-5.382 1.02-7.51-.77-.263-.223-.63-.45-.952-.45-4.952-.028-9.907-.02-14.86-.02a.55.55 0 0 0-.393.16c3.48.558 6.846 1.505 10.048 2.923 3.23 1.428 6.3 3.16 9.087 5.473.524-.572 1.17-.518 1.86-.588.783-.08 1.677-.51 2.23-1.072.908-.922 1.53-2.115 2.367-3.115.693-.834 1.442-1.664 2.312-2.297 1.258-.914 2.886-.744 3.85.203.866.85.966 2.456.224 3.738-.81 1.394-2.114 2.23-3.407 3.104-.792.532-1.567 1.12-2.235 1.8-.686.694-1.09 1.538-.906 2.618.067.406-.265.88-.4 1.29l4.563 7.128-.203.18c-1.534-.51-3.06-1.06-4.607-1.518-1.36-.404-2.788-.652-3.373-2.53-.794 1.58-1.813 1.096-2.83.887-2.198-.453-4.408-.843-6.612-1.313.304.03.605.063 1.054.108.398-.985.783-2.022 1.24-3.028.328-.726.75-1.41 1.202-2.24-4.438-3.574-9.65-5.77-15.566-6.674v11.068l-9.95.627V56.81c-5.964.91-11.193 3.17-15.838 6.765.012.096-.002.172.026.195.98.824 1.45 1.908 1.68 3.14.072.384.296.743.468 1.106.233.496.46.868 1.193.688.755-.185 1.163.366 1.08 1.17-.044.41-.01.83-.01 1.334-1.654.56-3.388 1.142-5.137 1.73.003-.93-.457-1.433-1.82-1.77-1.23-.302-2.4-.653-3.263-1.91-.822 1.204-1.62 2.27-2.305 3.4-.676 1.12-1.217 2.32-1.862 3.46-.182.316-.477.652-.8.793-1.716.75-3.455 1.442-5.187 2.15-.068.026-.148.023-.343.054a38.083 38.083 0 0 1 6.753-12.956zm30.385-43.762c2.99-.014 5.445-2.502 5.43-5.5a5.476 5.476 0 0 0-5.485-5.442c-3.02.004-5.48 2.455-5.47 5.458a5.487 5.487 0 0 0 5.525 5.484zM54.76 104.952a6.05 6.05 0 0 1-.27-.007c-.784-.037-1.23-.346-1.542-1.064-1.668-3.85-3.396-7.753-5.065-11.526-.63-1.422-1.26-2.844-1.888-4.267a9.86 9.86 0 0 1-.097-.23c6.052-1.56 12.446-3.68 20.068-6.645 2.513-.98 5.055-2.002 7.51-2.99 3.518-1.417 7.15-2.883 10.758-4.235C92 71.075 99.398 69.56 106.85 69.352c.964-.027 1.93-.04 2.87-.04 7.49 0 14.29.825 20.782 2.52 9.4 2.458 18.5 6.425 27.045 11.79 1.542.97 3.007 2.146 4.424 3.28.65.52 1.323 1.062 1.996 1.576.065.05.132.115.202.187l.05.05c.422.41.785.768.804.922.016.152-.278.577-.59 1.027a8971.6 8971.6 0 0 1-6.384 9.212l-2.437 3.517-3.16-2.302c-6.104-4.453-11.895-7.697-17.698-9.915a58.68 58.68 0 0 0-21.014-3.864c-1.02 0-2.063.027-3.096.08-8.88.437-17.703 2.495-26.98 6.296-4.413 1.807-8.854 3.754-13.146 5.637-2.28 1-4.642 2.037-6.97 3.037-2.38 1.023-5.073 2.184-7.94 2.54a7.154 7.154 0 0 1-.846.052z"/><path d="M140.76 95.307c5.152 2.61 9.837 5.94 14.44 9.4-1.19 1.834-3.112 2.402-5.055 1.535-1.727-.77-3.134-1.99-4.277-3.432-1.87-2.355-3.587-4.834-5.368-7.263l.26-.24zM53.113 77.674c0 2.17.014 4.2-.02 6.232-.005.21-.243.55-.438.605-1.537.445-3.078.892-4.643 1.228-1.4.302-2.408-.896-1.857-2.227.298-.72.78-1.41 1.332-1.967 1.59-1.605 3.517-2.75 5.626-3.87z"/></g></svg>