<svg xmlns="http://www.w3.org/2000/svg" width="210" height="170" viewBox="0 0 210 170"><path fill="#D3CBBE" d="M153.663 93.23V76.15h-17.08v6.43l-34.038-10.702v-5.282H92.512v10.03h.903L57.858 116.76h-5.954v8.955h8.957v-2.324l32.727 7.59v9.786h15.406v-9.882l23.29-9.963v.14h9.556V111.5h-1.73l3.373-18.273h10.18zm-27.302 10.735l-7.01-8.738 17.23-6.95v4.844l-10.22 10.845zm-34.684 2.422l7.562-3.05.793 22.02h-1.834l-6.52-13.43v-5.54zm-1.002-3.723l6.322-26.037h1.282l.9 25.018-7.502 3.023v-2.004h-1.002zm11.87-26.467l14.604 18.198-16.398 6.612-.876-24.382h2.67v-.428zm-.92 49.158l-.813-22.652 17.38-7.012 7.345 9.15-19.33 20.515h-4.58zm34.96-41.105v2.31l-18.275 7.37-15.765-19.642v-.74l34.038 10.702zm-41.04-7.623h.22l-6.32 26.037H82.12v5.857l-21.26 8.57v-.334h-.874l35.56-40.13zm-34.682 45.13v-2.944l21.26-8.57v1.978h8.367l6.377 13.138h-3.28v3.986l-32.725-7.588zm48.13 7.393v-3.795h-1.146l18.444-19.57 5.994 7.466v5.936l-23.29 9.964zm29.9-17.648h-6.478l-5.293-6.598 11.003-11.676h4.147l-3.377 18.274z"/><path fill="none" stroke="#D3CBBE" stroke-width="5" stroke-linecap="round" stroke-miterlimit="10" d="M167.257 154.69s31.938.032 36.427-31.216c2.135-34.18-30.873-40.913-30.873-40.913s3.757-50.592-42.594-56.362C90.486 22.143 78.4 59.063 78.4 59.063s-11.966-11.506-28.198-2.106C35.676 65.93 38.242 82.35 38.242 82.35S5.977 88.61 5.977 121.51c.723 32.852 35.043 33.18 35.043 33.18h126.237z"/></svg>