<svg xmlns="http://www.w3.org/2000/svg" width="320" height="1500" viewBox="0 0 320 1500"><path fill="none" stroke="#000" stroke-miterlimit="10" d="M164.47 4.265S5.03 63.97 5.03 311.685v763.47s-8.857 420.478 159.44 420.478c0 0 150.58 17.787 150.58-419.208v-764.74S307.966 72.863 164.47 4.265z"/><path fill="none" stroke="#000" stroke-miterlimit="10" d="M306.195 1076.426c0 290.592-66.964 376.495-106.88 401.838-18.558 11.78-32.084 11.19-33.48 11.094l-.815-.122-.55.05c-73.905 0-110.463-95.14-128.115-174.946-20.922-94.593-22.548-198.787-22.548-228.47 0-6.758.08-10.58.08-10.62V311.687c0-55.596 8.177-106.084 24.305-150.065 12.862-35.074 30.778-66.103 53.25-92.225 30.59-35.555 61.48-52.258 72.718-57.557 29.43 15.19 55.095 39.418 76.35 72.087 18.15 27.896 33.086 61.898 44.387 101.062 19.05 65.99 21.224 124.568 21.3 126.774v764.666z"/><g fill="none" stroke="#000" stroke-miterlimit="10"><path d="M162.712 16.82c.477-.24.936-.467 1.374-.682.452.24.903.482 1.354.727"/><path stroke-dasharray="3.0748,3.0748" d="M168.128 18.357c26.44 14.996 49.683 37.73 69.158 67.664 17.946 27.583 32.722 61.238 43.917 100.033 18.743 64.932 21.033 122.546 21.147 125.777v764.595c0 127.26-12.867 227.89-38.248 299.095-21.723 60.95-48.34 87.748-66.845 99.496-17.057 10.828-29.553 10.585-31.028 10.514l-1.092-.163-.833.072c-71.242-.15-106.864-93.56-124.198-171.933C19.27 1219.294 17.65 1115.45 17.65 1085.87c0-6.163.065-9.85.077-10.526l.003-763.66c0-55.14 8.098-105.185 24.07-148.74C54.5 128.303 72.184 97.67 94.355 71.9c26.626-30.947 53.32-47.325 66.988-54.383"/></g><path fill="none" stroke="#000" stroke-miterlimit="10" d="M52.78 932.176s25.5 8.76 25.5 30.968v63.82c0 20.824-25.5 30.97-25.5 30.97s-25.498-10.146-25.498-30.97v-63.82c0-20.93 25.5-30.968 25.5-30.968zM263.964 932.176s25.498 8.76 25.498 30.968v63.82c0 20.824-25.498 30.97-25.498 30.97s-25.5-10.146-25.5-30.97v-63.82c0-20.93 25.5-30.968 25.5-30.968zM52.78 781.732s25.5 8.757 25.5 30.966v63.823c0 20.824-25.5 30.967-25.5 30.967s-25.498-10.143-25.498-30.966V812.7c0-20.927 25.5-30.966 25.5-30.966zM43.042 667.294s15.76 6.117 15.76 21.63v44.582c0 14.545-15.76 21.63-15.76 21.63s-15.76-7.085-15.76-21.63v-44.582c0-14.618 15.76-21.63 15.76-21.63zM268.43 667.294s15.76 6.117 15.76 21.63v44.582c0 14.545-15.76 21.63-15.76 21.63s-15.758-7.085-15.758-21.63v-44.582c0-14.618 15.758-21.63 15.758-21.63zM263.964 781.732s25.498 8.757 25.498 30.966v63.823c0 20.824-25.498 30.967-25.498 30.967s-25.5-10.143-25.5-30.966V812.7c0-20.927 25.5-30.966 25.5-30.966zM103.877 1174.163h112.93v105.75h-112.93zM103.877 928.365h112.93v133.378h-112.93zM103.877 433.914h112.93V567.29h-112.93zM103.877 180.494h112.93V284.34h-112.93zM105.647 679.708h104.96v93.448h-104.96zM112.067 610.162h92.12v52.48h-92.12zM52.78 311.76v249.277H32.223V304.073zM287.165 304.073v256.964h-20.56V311.76zM107.862 1119.224h45.172v32.393h-45.172zM107.862 1076.426h45.172v32.392h-45.172zM171.636 1119.224h45.172v32.393h-45.172zM171.636 1076.426h45.172v32.392h-45.172zM107.862 381.832h45.172v32.392h-45.172zM133.522 107.352h55.28v39.06h-55.28zM131.228 88.324h59.87v7.94h-59.87zM141.494 67.363h39.336v20.96h-39.336zM107.862 339.035h45.172v32.393h-45.172zM171.636 381.832h45.172v32.392h-45.172zM171.635 339.035h45.172v32.393h-45.172zM107.86 298.74h45.174v32.394H107.86zM171.635 298.74h45.172v32.394h-45.172zM107.862 1359.94v60.973l22.586 25.722h51.816l31-22.547v-64.15zM103.877 567.29l112.93-133.376M103.877 433.914l112.93 133.377M103.877 284.34l112.93-103.846M103.877 180.494l112.93 103.845M103.877 1061.743l112.93-133.378M103.877 928.365l112.93 133.378M103.877 1279.912l112.462-105.75M103.877 1174.163l111.693 105.75"/><circle fill="none" stroke="#000" stroke-miterlimit="10" cx="158.127" cy="726.434" r="24.23"/><circle fill="none" stroke="#000" stroke-miterlimit="10" cx="158.127" cy="726.434" r="20.385"/><circle fill="none" stroke="#000" stroke-miterlimit="10" cx="158.127" cy="907.487" r="15.004"/><path fill="#FFF" stroke="#000" stroke-miterlimit="10" d="M164.717 913.985l6.92-190.256s-2.376-10.764-13.397-10.764c-11.018 0-13.772 10.763-13.772 10.763l6.15 190.255h14.1z"/><path fill="none" stroke="#000" stroke-miterlimit="10" d="M158.053 726.435v181.052M32.222 543.15h20.56M32.222 320.984h20.56M266.605 543.15h20.56M266.605 320.984h20.56"/></svg>