<svg xmlns="http://www.w3.org/2000/svg" width="796.5" height="100" viewBox="0 0 796.5 100"><path fill-rule="evenodd" clip-rule="evenodd" fill="#15345A" d="M.544-.273h99.483V99.22H.544z"/><path fill-rule="evenodd" clip-rule="evenodd" fill="#EFEBD7" d="M12.98 12.163h74.613v74.62H12.98z"/><path fill-rule="evenodd" clip-rule="evenodd" fill="#AB3434" d="M25.104 24.29h50.363v50.37H25.104z"/><path fill-rule="evenodd" clip-rule="evenodd" fill="#F3D91F" d="M100.028-.273h99.484V99.22h-99.484z"/><circle fill-rule="evenodd" clip-rule="evenodd" fill="#575050" cx="149.77" cy="49.472" r="24.873"/><path fill-rule="evenodd" clip-rule="evenodd" fill="#15345A" d="M199.51-.273h99.487V99.22H199.51z"/><path fill-rule="evenodd" clip-rule="evenodd" fill="#EFEBD7" d="M299.223-.273h-24.87V24.6h24.87V-.273zM224.157 24.6h24.87V-.274h-24.87V24.6zm25.325 0v24.874h24.87V24.6h-24.87zm-50.197 24.874h24.872V24.6h-24.872v24.874zm99.938 24.872V49.474h-24.87v24.872h24.87zm-50.195 0V49.474h-24.87v24.872h24.87zm.454 24.875h24.87V74.347h-24.87V99.22zm-50.197 0h24.872V74.347h-24.872V99.22z"/><path fill-rule="evenodd" clip-rule="evenodd" fill="#15345A" d="M298.997-.273h99.48V99.22h-99.48z"/><path fill-rule="evenodd" clip-rule="evenodd" fill="#F3D91F" d="M298.997-.273v19.898h99.48V-.273h-99.48zm0 99.494h99.48v-19.9h-99.48v19.9z"/><path fill-rule="evenodd" clip-rule="evenodd" fill="#15345A" d="M398.564-.095h99.484v99.493h-99.484z"/><path fill-rule="evenodd" clip-rule="evenodd" fill="#EFEBD7" d="M411 12.34h74.612v74.62H411z"/><path fill-rule="evenodd" clip-rule="evenodd" fill="#AA3434" d="M423.124 24.468h50.363v50.37h-50.363z"/><path fill-rule="evenodd" clip-rule="evenodd" fill="#EFEBD7" d="M498.048-.095h99.484v99.493h-99.484z"/><path fill-rule="evenodd" clip-rule="evenodd" fill="#15345A" d="M570.4 49.652L597.12-.095h-49.332v99.492h49.33z"/><path fill-rule="evenodd" clip-rule="evenodd" fill="#AA3434" d="M597.532-.095h99.485v99.493h-99.485z"/><path fill-rule="evenodd" clip-rule="evenodd" fill="#F3D91F" d="M642.3-.095h9.95v99.493h-9.95z"/><path fill-rule="evenodd" clip-rule="evenodd" fill="#F3D91F" d="M597.532 44.677h99.485v9.95h-99.485z"/><path fill-rule="evenodd" clip-rule="evenodd" fill="#15345A" d="M697.018-.095H796.5v99.493h-99.482z"/><path fill-rule="evenodd" clip-rule="evenodd" fill="#F3D91F" d="M697.018-.095v19.898H796.5V-.095h-99.482zm0 99.492H796.5V79.5h-99.482v19.897z"/></svg>