<svg xmlns="http://www.w3.org/2000/svg" width="1920" height="1080" viewBox="0 0 1920 1080"><path fill="none" stroke="#1D2F49" stroke-miterlimit="10" d="M1749.164 931.406c-.474-7.522-7.953-11.105-9.91-17.666-.757-2.537.632-4.962-2.22-6.33-3.543-1.683-3.714-1.876-4.722-5.932-1.912-7.697-5.442-10.504-11.205-15.25-5.336-4.393-6.465-13.29-7.798-20.06-.88-4.458 1.374-13.576-5.896-13.576-4.247 0-4.86-12.948-5.992-15.89-3.722-9.68-5.434 2.945-6.54 7.355-2.07 8.238-2.28 16.284-5.333 24.377-3.522 9.33-8.484 5.29-14.19 1.235-6.195-4.408-13.804-6.69-17.97-13.67-2.94-4.914 3.905-10.068 5.897-12.915 4.536-6.483-9.553-5.105-14.34-6.53-7.865-2.342-23.82 4.498-26.465 14.162-2.377 8.688-.908 2.016-8.23 6.506-1.6.962-4.106-9.704-11.135-5.916-3.255 1.758-8.438 5.608-10.215 8.94-.898 1.687.317 5.336-2.908 5.458-4.987.16-.027 3.587-3.736 5.685-.892.505-9.175-8.597-8.35 1.1.805 9.19-10.533 14.17-17.548 15.428-7.11 1.304-33.914 7.667-34.805 16.81-.365 3.896-2.23 6.566-2.936 10.29-.833 4.384 1.688 7.397 2.358 11.465.56 3.32-3.62 4.192-2.926 6.98 1.352 5.422 2.597 11.647 3.308 17.186 1.043 8.125 2.562 18.198-.484 25.98-2.216 5.66-7.763 8.598.868 13.4 6.416 3.57 11.99-.397 17.694-3.15 7.975-3.854 17.195.233 24.335-3.13 2.81-1.324 3.82-4.78 6.63-6.315 2.578-1.41 4.7-1.43 7.116-3.208 4.136-3.044 15.403-3.486 20.71-4.66 7.166-1.585 12.502-1.124 18.61 2.226 2.574 1.41 5.85 1.748 8.542 3.11 3.373 1.692 2.33 5.435 4.466 8.023 2.54 3.093.17 8.418 2.838 10.98.953.918 11.11-9.897 12.268-11.035 9.197-9.05-2.86 16.08-3.862 15.684 3.838 1.556 3.243-6.308 6.326-5.727 2.444.458 1.51 7.332 1.51 8.653 1.83.552 2.557.277 2.96 2.36 1.346 6.856-2.105 16.773 5.046 21.346 2.36 1.51 9.408 6.38 11.807 6.638 4.526.49 5.91-6.264 9.455-6.225 4.014.044 2.258 6.152 4.438 7.647 3.74 2.565 8.59-3.757 11.302-5.258 4.017-2.226 9.576-.16 13.047-3.024 3.223-2.66 3.287-10.297 4.813-14.042 3.03-7.432 10.28-19.323 15.853-25.078 13.76-14.21 18.712-34.976 17.516-54.44-.06-.962.09 1.46 0 0zM1742.254 825.993c-.122-.015-.322.166 0 0-.045-.005 0 0 0 0zM1728.17 805.034c6.06-4.23-2.795-5.28-6.264-7.248-4.64-2.634-5.573-8.613-12.258-10.967-7.02-2.46-13.96-5.138-20.97-7.627-4.48-1.59-8.968-3.16-13.444-4.76-4.08-1.46-3.29 2.17-6.366 3.252-2.2.774-7.807 8.902-10.337 6.868-2.09-1.673-5.93-3.762-6.037-6.903-.068-1.95.954-7.11-1.66-8.155-2.145-.86-17.705-.848-13.477 2.795 1.702 1.466 3.403 4.796 5.978 4.89 1.35.04 7.025-.902 7.545 1.097 1.13 4.205-8.302.02-5.662 8.96.698 2.39 2.906-.957 3.08-1.184 2.093-2.756 6.056 1.45 7.66 2.5 5.447 3.562 12.215 3.772 17.842 7.228 5.195 3.217 3.818 13.194 7.817 16.103 6.553 4.764 11.997 4.956 19.438 7.715 5.14 1.926 1.75-4.3 1.51-4.684 2.65-1.357 3.75-4.404 6.496-5.407 5.56-2.03 13.283 3.378 15.772 8.167 3.84 7.397 9.874 7.392 17.285 8.303-.09-3.978-17.826-18.28-13.948-20.943.2-.14-.916.628 0 0zM1524.413 784.063c1.088 1.227 9.442-.012 11.82.96 3.098 1.266 4.967 5.423 8.607 1.093 3.706-4.41 2.228-10.387 6.034-14.45 2.7-2.875 3.322-7.077 4.853-10.55.65-1.464 7.016-2.022 4.91-3.935-3.634-3.35-2.255-5.61-4.66-9.107-6.007-8.796 5.06-9.733 6.98-15.362-3.02-3.002-5.764-3.714-8.48-7.23-3.805-4.887-7.863 4.85-10.107 6.698-2.573 2.117-7.043 3.303-8.814 6.103-3.584 5.715-8.415 7.02-12.785 11.354-3.145 3.122-2.807 7.26-8.438 5.84-5.46-1.38-6.697.35-7.4 6.14 1.596 3.783 6.73 10.182 6.412 14.127-.73 8.936 7.27 3.92 11.07 8.323.25.284-1.61-1.864 0 0zM1159.33 844.344c-.19-15.417-4.932-3.442-7.91-.9-4.533 3.875-7.852 13.543-15.294 13.29-6.362-.166-12.73 4.912-12.198 11.742.357 4.677 3.613 8.826.82 13.42-2.76 4.527-8.046 9.86-6.27 15.675 1.844 6.047-.553 15.175 8.504 16.485 13.44 1.945 16.03-14.8 19.477-23.725 3.7-9.583 6.256-19.298 9.6-28.908 2.635-7.546 3.378-8.123 3.27-17.078-.034-2.755.035 2.937 0 0zM1096.913 231.118c2.366 3.083 12.536-2.207 11.72 6.367-.352 3.676 14.71 4.807 16.188 1.522-.153.342-10.733-10.004-11.454-11.817-1.47-3.71-2.775-7.562-2.96-11.587 0-.032-1.397-10.512-2.145-9.413.97-1.41 2.85.452 3.902-1.056 2.19-3.146-.626-5.405.726-8.024 1.296-2.508 2.22-4.323 1.95-7.13-.474-4.815 5.66-4.98 6.63-9.575 1.466-6.922 11.785-16.65 17.896-19.803 9.116-4.72 3.104-18.31-3.314-13.02-4.97 4.082-6.41 13.783-15.05 13.448-5.09-.18-12.637 9.004-14.127 13.838-.65 2.11-6.438 8.744-4.968 10.265 5.826 6.033-4.794 11.954-3.106 16.755.38 1.124 3.27-1.486 4.704-.538-3.317 3.97-3.16 8.846-5.938 13.215-1.082 1.715 2.286 4.738 1.974 7.142-.602 4.628-7.352 3.214-2.627 9.41.99 1.29-.746-.977 0 0zM842.422 392.23c1.15.902 4.277 7.874 4.274 9.235-.015 7.03.548 1.513 5.33 5.097 2.28 1.708 3.624 8.328 3.24 10.83-.508 3.39-5.072 1.394-5.674 4.652-.467 2.605 1.48 4.58-1.443 6.63-6.53 4.55 16.88 6.976 3.447 8.24-1.59.152-7.102 5.173-3.896 5.604 3.13.41 9.67-1.646 12.988-2.503 2.657-.684 14.955-.565 15.78-3.826a11.917 11.917 0 0 1-.988-4.544c1.248-1.963 4.927-5.622 2.66-8.38-1.137-1.104-2.475-1.47-4.017-1.098-3.79.465-1.766-1.39-3.37-3.692-1.617-2.315-1.853-5.35-3.57-7.535-1.567-1.997-3.845-2.237-4.812-4.816-1.302-3.5-8.83-9.218-8.168-10.635 3.618-7.733 7.43-10.814-3.033-11.2-5.854-.218 7.332-7.555-4.18-6.835-3.128.195-7.132 12.752-4.568 14.774.62.486-.342-.27 0 0zM1614.136 532.717c-10.243 8.175 13 .59 15.966-1.853 3.693-3.047 10.093 17.872 11.326 2.42.37-4.636-1.19-4.29 4.43-3.548 3.756.5 8.378-3.9 10.618-6.422 3.183-3.62 1.19 2.01 3.665 2.38 4.753.715.55-11.848.794-13.468.61-4.083-2.85-7.66-2.127-11.362.83-4.27 4.736-9.02 1.99-13.847-1.56-2.708-7.255-15.344-11.842-8.176-2.042 3.193 2.663 12.94 2.207 16.99-.448 3.976-1.9 10.038-4.284 13.46-3.58 5.142-10.24 3.126-11.094 10.674-.61 5.337-3.156 3.187-7.204 4.178-7.79 1.914-8.78 4.077-14.444 8.575-1.127.9 2.32-1.842 0 0zM1643.14 398.452c2.606-.736-15.318-27.416-15.23-30.693.05-1.893-3.52-10.352-5.612-10.732-8.14-1.415-1.628 10.468-1.337 12.752.78 6.018 6.75 9.268 8.487 14.96 1.9 6.237 4.007 11.867 5.425 18.268.607 2.737 7.607 25.776 9.037 26.093-1.76-.39 4.42-4.274 5.85-4.472-3.43-3.672-17.177-23.162-6.62-26.176.376-.106-2.512.717 0 0zM821.62 411.048c-.568 4.295-.91 5.138 1.547 8.337-.374 2.742-5.51 8.65-2.965 11.14 3.95 3.877 17-3.304 18.366-7.81.788-2.595 2.563-17.263.014-17.835-10.468-2.405-7.952 5.594-16.962 6.168-.213 1.61 1.41-.09 0 0zM1666.916 448.22c-3.622.963-21.378-8.876-20.607-10.24-2.35 4.052 4.818 13.023 2.107 18.31-4.235 8.26-6.247 5.19-1.68 14.696 1.5-.52 2.606-1.49 3.317-2.907-6.868-4.383-4.848-3.398-.438-6.21 4.91-3.128 7.003 3.386 11.007 2.18 3.042-.916 1.54-6.356 5.464-7.47 6.27-1.82 4.284-4.432.83-8.36-4.01 1.066.704.8 0 0zM519.748 1125.982c-2.732-2.398-2.725-6.574-5.03-8.186-4.257-2.975-8.767 5.863-5.82 6.203.37.042 4.845-.522 3.497 1.432-4.377 6.387 1.355 1.41 2.37 6.967-.304-1.413-7.58 2.093-7.942 2.282-.254 1.41.37 2.593 1.87 3.55 2.063-2.09 4.508-2.743 7.332-1.965 2.68.318 3.45-2.978 5.21-2.267 3.192 1.292 9.91 3.89 12.312.02-4.806-2.455-9.707-4.438-13.8-8.038-1.268-1.115 2.19 1.926 0 0zM1674.797 812.234c-.76 2.664 3.543.057 3.982-1.866-2.148-.97-3.293-.573-3.983 1.866-.16.557.348-1.228 0 0zM491.486 1127.64c.323.672 4.06 4.754 5.12 2.397 1.017-2.326-4.384-2.518-5.12-2.396.915 1.9 1.976-.328 0 0zM491.39 1127.594c-.217.09-.01.004 0 0zM1238.174 1088.227c-1.782.8-1.02 2.324.705 1.848.76-.95.525-1.567-.706-1.848-.403.18.38.232 0 0zM524.49 1137.327c-1.362.608-1.312 1.027.15 1.255.918-.21.868-.627-.15-1.255-.56-.038.58.043 0 0zM1785.66 1125.745c-1.122-1.346 1.078 1.225 0 0-.303-.364.108.12 0 0zM502.424 1130.824c-1.403-.548.89.34 0 0-.14-.054.69.264 0 0zM1743.79 826.47c-2.425-.488-.554.23 0 0-.378-.075-.15.062 0 0z"/><path fill="none" stroke="#1D2F49" stroke-miterlimit="10" d="M1742.66 826.247c-.474-.3-.863-.168 0 0-.135-.085-.18-.035 0 0zM770.646 238.5c-1.52-6.397-9.31-4.76-11.416-8.976-.504-.997 3.148-1.05 2.384-2.647-1.3-2.704-5.184.544-6.38-1.94-1.29-2.697 6.292-.33 5.43-3.486-.948-3.42-6.94.832-8.045-.92.127.205 2.062-4.497 2.12-4.57 8.15 5.27 8.177-5.655 13.2-3.594 3.328 1.38 2.293 9.747 8.522 5.926 5.43-3.327 8.478-4.586.586-7.183-3.92-1.28.396-10.594 6.372-6.92 10.68 6.564-2.71-5.485-1.176-8.044 3.364-.42-.02-3.484 4.453-1.877 3.594 1.295 2.058-6.026 1.84-7.053-.99-4.688-9.767-1.88-.818-5.08-1.324-1-12.736-5.644-4.986-8.852 3.287-1.358 4.002-5.097 8.026-2.332.083.057 4.943 3.976 5.38.846 1.38-9.914-4.937-2.126-6.642-9.422-.636-2.724 2.56-3.91-.16-6.457-2.06-1.933-1.31-5.148 1.722-4 2.845 1.087 6.687-18.343 8.387-21.1 5.564-9.03 8.407-10.76-3.067-7.46-3.012.863-.238-5.42.76-6.024 3.11-1.885 7.585 1.207 11.01.59 8.524-1.538-6.026-5.594-6.393-6.46 4.17-1.402 7.726-.005 11.543-.864 4.015-.93 2.292-3.71 4.518-5.747 2.624-2.4 8.575-.868 9.424-6.336.574-3.697-5.01-7.385-7.975-8.032-8.602-1.876-11.333 6.67-18.588 4.32-1.847 2.067-23.907 16.076-25.11 15.2-2.175-1.642 16.584-15.287 17.363-16.537 1.213-1.946 3.65-5.705 1.714-8.025-3.435-4.092-5.3 3.383-6.705 4.448-3.486 2.642-20.516 2.33-7.087-4.09 3.957-1.917-6.458-3.96-4.148-3.51-5.3-1.033-9.307-.464-14.317 1.113-3.005.946-5.965 2.905-8.996 3.58-2.232.482-1.708-3.613-.18-4.347 9.985-4.756 16.025-5.118 26.664-4.19 1.78.157 26.19-1.7 20.76-7.614-2.484-2.702-17.753-6.424-17.755-6.378 0 .024 10.648-8.106.726-5.273-3.08.868-6.412.31-9.25-1.087-4.498-2.205-9.31.585-13.946.64-2.1.025-12.747 4.424-11.93.745.37-1.654 12.937-6.323 12.96-6.277 1.262 2.635 18.02 2.434 21.055 1.395 3.994-1.363-17.49-9.086-18.855-9.656-1.83-.764-14.85-1.754-16.097.953-.853 1.854-1.29 5.457-4.083 5.303-3.897-.158.086 4.105-1.495 4.802-.817.354-5.674-1.7-6.003-2.716-5.77-3.78-5.73-3.683-11.953-.7.806 6.33 3.807 2.91 6.162 7.813.81 1.684 1.32 10.483 1.724 10.41-3.715.658-3.495-7.288-4.993-9.542-3.143-4.768-6.095 2.418-9.115 1.178-10.12-4.114-.16 21.446.13 21.527-5.88-1.697-9.654.292-11.005-6.885-.523-2.778-.373-15.013-5.825-14.116-3.63.597-2.435 9.868-2.624 12.19-.776 9.843-10.872-2-11.254-2.17-.726.895-4.866 7.614-6.19 6.45-1.024-.884 4.696-13.374 5.156-15.48 1.134-5.233-7.412.062-8.936.45-7.298 1.866-13.352-4.324-13.208 5.748.092 6.463-1.453 7.79-2.77.356-1.925-10.734-6.826 5.54-6.822 5.537-2.29 1.736-3.13 5.34-6.414 5.258-2.546-.08-2.914-3.542-5.437-.27-.946 1.217-2.526-1.73-3.856-.068-2.727 3.427-6.623 4.63-10.084 7.06-12.736 8.935 6.108 6.517 6.456 7.868.442 1.774-8.12 11.484-9.446 12.815-8.066 8.105-28.91-.58-36.428 11.283-1.436 2.272 8.94 13.785 7.406 14.162 2.04-.498 12.906-1.444 11.182 3.35-1.377 3.854-6.015-.452-8.74.704a5.952 5.952 0 0 1 2.52 2.57c-1.627.342-16.376-4.564-14.026 1.87.304.825 8.255 6.626 6.26 7.443-4.944 1.96-4.44 10.048 1.525 9.142 2.41-.367 1.867-3.358 4.692-2.318 3.403 1.25 7.05 1.856 10.675 1.52 4.692-.434 10.35 2.954 13.397 6.31 1.62 1.78 7.364 3.86 6.348 7.365-1.044 3.57-2.493 5.052-.337 8.474 4.498 7.143 1.218 13.144 2.676 20.813.476 2.5 1.83 8.875 1.137 11.372-.8 2.885-2.965 5.12-3.024 8.27-.006-.003-.007-.005 0-.005.22.385 1.574 2.196.065 3.003-9.27 4.948-.137 7.025 1.198 4.204 5.973-12.84 15.105 18.478 8.66 17.072-.25-.055-13.553-11.136-13.382-5.31.164 5.604 10.714 8.63 14.832 9.247 1.125.167-1.106 10.955-1.426 11.362-.855 1.088-10.63 6.045-10.6 6.225.166 1.164 7.795.74 6.597 7.922-3.89 3.523-12.025-2.27-14.202 2.984-1.29 3.113 3.757 9.096.823 10.75 0 .526-.014 1.077-.02 1.612h.002c.015-.006.017-.005.006.003.935-.282 8.423-3.66 6.91-5.05.352.35-10.977 8.338-8.502 11.174 1.792 2.078 5.512-2.788 6.332-.347-.22-.676-12.345 14.385-1.782 11.333 10.422-3.012-2.15 7.704-1.643 8.373 2.46 3.213 6.61 16.604 6.043 20.732-1.412 10.43 13.284 5.845 17.448 7.41-1.705 3.536.765 11.8 6.32 8.39-.208.137 2.326-5.043 2.723-5.706 1.68-2.812 2.423-6.186 4.917-8.606 3.3-3.206-2.432-7.35 2.897-9.966.83-.407 3.208-5.273 3.51-6.1.602-1.647 2.727.56 3.278-.194 2.378-3.213-.003-14.04 4.385-15.52 3.55-1.19 11.66-4.405 13.295-7.138 4.558-7.62 2.502.282 7.744-.058 6.515-.437 12.067-5.792 15.732-10.697 1.34-1.79 9.055-12.56 9.557-12.687 2.352-.592 3.692 3.328 7.258 2.047 4.897-1.764 11.06-2.988 16.148-4.046 5.246-1.09 19.506-8.565 21.134-13.774-6.028-2.154-9.048-3.054-15.347-1.896-3.8.698-9.787.497-2.172-2.243a72.003 72.003 0 0 1-8.814-1.745c1.76-1.398 4.245-5.966 6.03-6.654 3.63-1.4 6.147 1.725 9.238-1.867 2.95-3.4-13.144-4.973-7.48-9.67.73-.6 11.068 6.954 12.147 8.134 3.16 3.455 3.074 14.63 9.294 7.568.39 1.274 1.187 1.97 2.388 2.087 3.3-.868-1.378-13.047-1.816-14.9-.417-1.755.835 3.53 0 0zM1758.114 146.277c-4.452-.678-1.023-7.174-4.71-8.98-7.172-3.517-2.404-5.156-.614-9.018 3.686-7.954-7.856-16.974-15.462-15.24-2.767.632-2.78 3.942-5.61 4.422-5.01.85 5.38 8.606 5.593 10.034.744 4.814-8.427-2.105-8.88-2.68a122.274 122.274 0 0 1-5.327-6.224c-1.902-2.772-5.06-.006-7.46-1.553-3.577-2.304-9.893-1.875-13.89-2.358-3.586-.434-13.32.648-16.035-1.585-9.17-7.54-25.102-3.516-34.926-.76-3.42.96-9.55.19-12.522 2.254-1.304 5.042 5.318 7.682 7.916 10.45 3.048 3.245 5.787 6.95.89 9.947-2.684 1.66-8.97-3.39-11.992-4.5-2.503-.915-4.707-7.277-6.992-5.888a8.09 8.09 0 0 0-1.696 3.69c-1.727 2.673-5.313 1.747-7.91 2.43-4.47 1.177-9.61.808-13.18 4.363.24-.238-2.33 11.974-4.89 7.085-2.368-4.487-10.87-1.133-11.73-3.253-2.283-5.66-3.49-9.396-8.706-12.96-11.058-7.576-30.713 12.755-35.7 8.058-6.04-5.69-8.042-4.27-15.16-4.685-10.688-.625-1.062-13.722-15.102-10.443-5.754 1.343-4.61 4.88-4.758 9.664-.153 5.014-5.733 5.844-4.307 2.068 1.938-5.083-1.81-5.418-5.026-3.08-4.842 3.49.75-7.24.438-5.688-4.43 0-19.74-1.13-23.13 1.557 7.43 3.177.27 4.195-1.042 8.113-.736 2.205 2.034 1.624 2.826 1.076 3.28-2.253 2.503 4.157 3.208 5.175 1.746 2.552 6.588 10.018-1.234 6.808-4.498-1.836 4.075 10.09-2.357 6.992-8.506-4.106-8.512-4.438-14.726.6-4.793 3.886-14.285-4.79-10.853 4.292 9.2 24.35-24.214-3.688-24.132-3.9-.546 1.416 11.473-6.42.186-5.53-2.234.174-4.162-7.454-6.842-9.135-4.416-2.77-8.292-4.21-12.696-.667-5.058-2.448-15.447-3.867-10.855 4.656 5.303 9.844-21.47 12.3-23.854 3.982-1.042-3.706-8.61-.697-11.387-.087-6.45 1.417-4.943 3.737-7.987 6.82-1.98 1.997-2.714-5.196-5.807-2.742-2.097 1.663-5.578 2.19-7.58-.028-1.583-1.747-6.806-2.747-6.963.804-.138 3.583 3.67-.51 4.363.483 2.068 2.936-5.63 10.98-7.994 12.303-1.584.886-4.98.865-3.634 3.578.922 1.852-.008 4.03-2.11 4.19-1.58.144 3.704-26.162 4.873-28.168 2.533-4.28 7.505-16.315 4.024-20.88-1.48-1.937-11.205-5.05-2.873-5.536 0-5.005-7.512-2.574-8.95-5.27-2.97-5.553-11.355-7.14-16.1-4.88-6.36 3.032-2.823 6.882-7.543 9.57-6.414 3.652-2.287-8.206-5.03-10.034-.758-.504-12.594 2.165-12.327 1.18 1.632-6.076 2.236-7.446-4.83-9.1-6.778-1.604-7.028 11.45-5.626 15.268-.714 5.774 8.055 6.944 8.928 9.617.412 1.24-9.017 2.266-10.446 2.8-.12 2.937 7.465 2.255 5.547 7.242-.708 1.828-4.748-5.403-7.463-1.754-.9 1.21-6.885 8.39-9.05 6.422-2.893-2.627-.625-3.646-5.745-2.487-6.644 1.503-2.86 1.667-2.26 4.79.302 1.56-12.264 8.747-13.992 10.54-4.503 4.67-3.028 10.812-7.886 14.1 4.317 2.477 7.464 6.447 11.654 9.747 1.48 1.17-2.914 9.04-1.983 8.94-4.476.534-1.278-5.456-2.147-5.88-2.964-1.475-15.802 5.764-19.566 6.78-5.387 1.407.296 7.548 1.338 9.562 4.85 9.366 17.592 7.906 21.18 18.8 1.794 5.45 6.727 8.723 5.875 14.995.7.67 11.422 7.823 6.926 7.043-2.063-.35-9.643-4.265-10.906-6.11-1.23-1.797.926-4.258-.548-5.89-1.872-2.085-1.905 2.917-3.613 1.816-3.068-1.955-.845-15.414-3.145-15.184-6.054.594-7.193-.187-12.284-3.016-2.764-1.536-9.152-5.012-11.684-1.57-1.273 1.77 4.035 3.322 1.704 6.308-2.745 3.487-5.883-2.768-8.147-.126-3.752 4.38 16.898 9.74 14.03 11.315-1.246.674-12.284-1.16-14.218-1.92-4.05-1.602-5.333-8.394-6.295-11.865-5.837 1.788-3.207 12.927-.572 15.435 6.942 6.606 4.856 14.23 9.838 22.168 1.984 3.166 6.135-1.625 8.084-1.992 2.925-.55 9.01 2.18 11.203 3.936 2.23 1.784 4.366 4.273 3.43 7.323-1.15 3.737 5.326 6.398 5.5 5.94-2.896 8.03-9.373-6.075-10.216-7.308-5.67-8.3-16.088-3.257-9.904 3.877 5.503 6.35-2.088 15.547-3.44 21.793-1.46 6.744-15.84.104-19.31-1.848 3.167-4.444 7.95.855 10.986-.122 7.175-2.375 3.272-15.714 3.667-20.313.063-2.182-.88-3.758-2.833-4.73-3.836-2.173-4.74-6.705-6.075-10.496-1.487-4.225-2.488-8.904-4.49-12.924-1.515-3.037-4.707-4.414-6.2-7.294-2.386-4.605-.202-10.92-2.415-15.868-3.54-7.952-14.9-2.782-14.697 4.623.104 3.747.993 8.01-.195 11.678-1.187 3.663-5.104 6.905-1.03 10.83 3.19 3.074 1.637 13.932 6.644 14.06 8.322.166 16.66 19.66 4.74 11.448-9.535-6.568-22.38-10.822-33.698-10.388-5.962.24 2.487 9.572 2.516 10.38.235 6.646-6.33 8.738-9.026 2.326.072.17-13.17 3.866-14.508 4.708-3.717 2.338-3.07 5.503-9.098 4.063-2.278-.528 1.367-3.642-.355-4.993.46.377-8.87 3.915-9.494 4.073-5.923 1.5-7.42 8.385-12.677 10.633-3.22 1.37-.4 6.81-5.096 8.03-3.492.914-10.454-1.757-9.954-6.45.682-6.395 7.115-2.76 1.027-9.448-6.225-6.86-5.938 3.95-5.656 6.806.57 5.647 3.693 8.943 3.573 14.65-.136 5.486-5.698 1.713-9.05 1.264-3.12-.41-7.728 6.607-9.255 8.736-3.107 4.324 5.483 6.578.41 11.383-2.02 1.894-10.956-3.646-12.69-4.77-1.37-.417-2.326.054-2.87 1.415-1.25 4.105 3.68 4.658 6.106 5.544 3.467 1.27.85 6.808-2.775 5.772-3.473-.987-11.293-4.105-12.01-8.062-.59-3.274-2.824-13.442-5.93-14.7-2.59-1.05-10.326-4.87-9.11-8.536.1-.295 25.097 7.51 27.917 7.347 13.602-.785 15.46-12.936 5.115-19.938-4.912-3.324-24.852-17.698-31.054-12.318-2.533 2.19-8.42-1.332-9.643-3.882-4.008.86-11.723 1.128-13.28-3.985 2.505-1.983 6.877.493 7.532-4.227-6.82-4.556-15.618 4.05-13.363-5.615.582-2.594-4.232 3.473-4.092 3.188-2.657 5.364-1.375 1.413-4.173.853-1.478-.295-1.846 5.763-4.356 6.054-.29.032.682-11.765-2.92-6.963-2.14 2.87-4.138 4.96-5.37 8.35-2.34.902-4.403-2.78-7.223-1.347 1.584 3.27-.672 7.04-4.336 7.788-4.867.992-2.43-2.467-5.027 2.726-.667 1.352-6.48 2.974-8.222 5.704-3.367 5.28 2.224 2.854-3.86 7.527-1.536 1.178-7.127 7.95-5.61 9.726-.256 2.348-6 5.186-6.96 8.717.94 2.087-2.45 12.817-3.85 14.354-2.818 3.116-6.817 5.737-9.145 9.18-4.987 7.376 4.148 2.092 4.138 2.083 4.92 4.216-12.194 4.692-11.71 10.12-2.746 1.805-4.547 2.38-7.524 4.422-6.66 4.568-1.986 2.166-4.197 5.702-1.64 2.62-3.24-.035-3.75 4.742 1.05.214 10.758-1.233 10.274.657-1.293 4.83-7.133-.3-9.355 2.16-3.448 3.817 3.262 4.45 4.084 5.575 1.353 1.852-3.795 8.095-4.2 7.578 1.426 1.883 7.535 3.59 2.37 6.454-4.184 2.324 7.606 6.56 10.395 5.477 3.886-1.51 5.563-7.9 8.955-8.357 4.097-.544 1.336-4.244 4.427-6.09-.748.453 12.682 33.07 14.044 35.958.33.7 13.75-5.74 14.42-7.077 4.497-8.956-.94-16.61 7.845-23.67a24.872 24.872 0 0 0-8.932-2.307c3.334-3.636 11.065 1.35 11.47-4.32.376-5.256-7.623-5.887-8.542-10.556-1.402-7.124.494-13.942 5.1-19.21 4.078-4.667 12.92-8.2 12.028-15.842-1.28-11.06 7.31-16.067 17.198-10.874 9.396 4.944-13.048 22.88-14.643 27.743-1.243 3.79 1.643 13.93 2.327 17.938.234 1.358 8.893 7.44 10.862 7.748 8.3 1.298 24.442-13.145 30.996-1.504.904 1.648-8.624 7.805-10.11 7.763-6.236-.176-11.635-2.527-17.495 1.514-5.54 3.776 3.574 8.43 3.522 11.474-.182 9.64-2.607 9.91-8.483 4.186-7.15-6.94-6.01 20.615-5.886 20.426-1.394 2.13-8.75 6.756-11.414 5.88-2.84-.932-3.123-4.245-6.603-3.37-2.938.74-5.265 2.357-7.84 3.85-2.05 1.186-8.296 6.845-10.53 5.14-6.272-4.808-7.518-2.887-14.336-1.713-2.917.506-7.795-4.253-8.73-6.396-1.913-4.384-.567-5.598 1.982-9.26 4.33-6.218 1.217-1.122-.104-6.767.44 1.885-.114-13.045-2.59-3.805-1.628 6.067-6.544 5.96-5.858 12.37.703 6.58 7.063 12.536.783 17.788-1.097.922-9.705 1.148-11.98 1.84-5.066 1.527-9.222 4.777-9.477 10.528-.205 4.65-4.29 5.944-8.303 7.717-3.92 1.735-1.99 7.403-7.277 8.153-2.726.386-2.593 3.23-4.938 3.942-2.34.71-5.834-2.512-7.234-1.335-1.478 1.242 1.588 5.017-.843 5.756-4.747 1.447-8.718-1.27-13.25 1.324-3.735 2.137 2.89 4.877 3.355 5.042 5.67 2.005 5.79 4.082 9.143 8.363 6.14 7.84 8.24 25.39-6.675 23.59-5.167-.625-23.97-4.19-27.246-.827-.986 1.012-3.963 1.65-4.626 2.88-.932 1.732 1.593 10.913 1.5 13.496-.16 4.414-1.096 8.768-3.402 12.59-1.787 3.04 1.348 4.418 2.1 7.147.98 3.545-1.13 7.79 4.54 8.12 5.663.35 6.45-.276 9.915 4.775 1.893 2.794 15.926-2.738 19.71-2.984 5.357-.353 15.166-10.03 12.513-15.05-3.88-7.387 9.18-13.62 13.394-16.502 7.082-4.85-.782-16.088 11.85-14.448 8.445 1.098 12.374.92 19.274-5.655 6.62-6.342 13.24 8.353 16.428 11.567 6.16 6.21 12.918 8.31 19.432 13.67 3.295 2.71 6.735 5.574 8.068 9.7.445 1.38-.58 8.85-.385 8.944 2.39 1.24 5.738-8.19 3.59-10.672-6.037-6.987 8.114-5.88 7.663-5.166 1.518-2.38-11.92-6.795-12.446-8.304-1.198-3.448-5.356-2.538-7.68-4.783-2.494-2.41-3.732-5.08-5.802-7.812-2.007-2.65-13.454-10.05-7.663-15.085 7.79-6.745 4.98 1.22 8.267 2.45 1.387.518 2.227-2.01 3.8-1.685 3.602.752 4.214 6.88 6.183 9.146 4.51 5.195 13.542 6.26 18.53 11.645 5.035 5.44 2.803 11.3 7.16 17.217 2.118 2.88 4.57 8.288 7.858 10.04.904.48 8.81 1.245 7.854 2.972-.81 1.488-4.59-.7-6.69.618-2.66 1.702 4.41 7.177 6.075 7.32 1.578.126 6.447-8.86 5.69-10.908-7.24.382-3.41-6.015-6.417-9.847-5.208-6.627 4.746-3.214 5.213-3.47 5.168-2.817 8.86-8.196 15.38-2.64 3.975 3.41.095 1.463.76 5.75.807 5.214 4.51 5.305 2.183 11.644 4.776 5.314 6.405 7.16 12.76 10.605 7.65 4.148 4.66.083 11.6-1.344 6.357-1.307 9.025 6.417 15.925 3.73 8.222-3.203 13.387-8.032 13.01 4.13 3.436 11.114-6.707 36.568-21.796 28.304-3.34-1.81-9.028-.288-11.926 1.624-3.347 2.226-9.723-.776-13.098-1.462-6.81-1.384-19.544-2.05-24.685-7.18-4.207-4.185-16.387-2.64-16.793 4.384-.337 5.82-.796 14.92-9.284 8.622-4.072-3.04-14.12-3.27-16.275-7.184-5.542-10.12-14.365-5.164-23.295-9.78-7.065-3.648-9.72-4.84-3.86-11.184 1.264-1.378-2.12-12.13-1.797-12.08-2-.31-2.53-2.533-4.524-2.832-2.534-.38-5.72 1.826-8.05 2.2-9.774 1.567-20.295.45-30.172 1.795-7.084.964-11.693 4.312-18.403 6.283-5.69 1.664-17.622 6.534-23.486 1.326-5.344-4.722-5.753 7.357-10.483 10.123-6.5 3.812-17.14 10.83-14.932 20.15 1.688 7.1-5.803 12.738-11.25 15.847-2.843 1.62-5.208.958-7.224 3.727-1.788 2.478-2.613 5.11-5.557 6.574-3.974 1.975-9.76 12.734-11.54 16.684-4.152 9.212-7.145 10.383-3.42 19.802 2.62 6.625.916 15.997-.738 22.482-.818 3.204-1.08 6.132-3.278 8.808-2.862 3.462-.106 4.133 1.442 7.554 1.396 3.074-.32 4.796.865 7.983 1.38 3.705 4.35 2.71 6.735 4.893 3.74 3.423 7.892 9.014 11.33 12.907 4.386 4.915 2.86 13.16 10.73 15.644 7.69 2.41 12.723 10.835 20.496 13.815 5.62 2.168 15.38-3.89 21.924-3.835 7.466 0 14.99 3.662 21.848-1.294 5.422-3.913 17.976-7.95 24.448-5.362 5.584 2.258 6.146 11.878 11.464 12.29 5.176.42 14.343-4.753 17.82.827 2.834 4.57 2.852-1.904 4.365 6.985.907 5.334-3.053 10.18-2.728 15.606.157 2.35-2.082 5.85-3.064 7.884 1.388 3.552 2.727 6.918 5.224 9.882 4.74 5.626 10.812 8.86 13.13 16.306 1.532 4.92 7.762 12.908 6.23 18.384-2.15 7.675 7.46 15.956.542 22.8-9.114 9.012-14.093 26.5-6.534 37.525 11.055 16.126 8.74 33.86 15.415 51.017 2.93 7.532 7.99 13.063 10.697 20.984 1.196 3.504 4.555 7.747 4.06 11.666-.194 1.557-2.383 2.985-1.358 4.653 1.83 2.974 4.35 12.83 10.445 10.183 5.978-2.592 13.965-4.133 20.51-4.032 16.79.258 30.943-9.127 40.12-23.363 3.728-5.777 10.656-10.07 12.56-16.765 2.137-7.444-.804-15.796 9.534-17.47 10.475-1.68 8.728-13.282 7.068-20.966-2.41-11.168 1.794-11.635 9.94-18.603 5.71-4.88 13.2-6.97 18.6-11.96 6.163-5.696 5.118-13.162 5.55-20.718.224-3.927-.547-7.77.317-11.677.558-2.538-4.305-5.956-5.054-8.38a31.702 31.702 0 0 1-1.077-13.716c.595-4.322-4.09-5.17-2.19-10.007 5.872-14.973 18.55-27.053 30.414-37.784 10.057-9.095 20.853-14.812 27.543-27.368 5.24-9.833 14.644-22.493 12.593-34.292.104.618-28.626 4.433-32.257 6.192-6.27 3.037-7.787.586-12.217-3.716-3.98-3.867-2.113-7.862-7.15-13.377-8.008-8.77-15.97-10.164-19.65-22.053-1.586-5.15-5.178-6.765-8.847-10.352-4.76-4.634-1.805-13.817-5.29-19.19-1.99-3.067-6.88-3.772-7.89-7.355-1.58-5.604-2.52-8.808-5.893-14.028-1.74-2.69-14.698-24.328-13.44-26.158 1.04-1.51 5.41 5.46 5.772 5.898 5.583 6.744 4.695 2.898 7.315-2.293.745.262 5.38 8.174 6.23 9.322 3.607 4.854 8.72 10.815 10.335 16.742.85 3.1 7.67 7.704 9.596 11.327 3.38 6.3.33 11.68 7.652 16.302 5.948 3.723 6.43 10.28 11.152 15.02 5.683 5.66 4.83 10.23 6.8 17.342 1.462 5.288 1.74 13.85 9.007 12.798 3.194-.463 4.043-2.974 6.75-3.986 2.432-.91 5.156.146 7.683-.482 4.69-1.17 9.048-4.31 13.134-6.592 4.977-2.782 14.84-2.053 16.98-8.72 1.326-4.12 9.056-4.784 12.508-5.843 2.662-.816 10.525-6.816 12-9.815 2.15-4.374 4.453-2.59 5.89-8.047.99-3.772 13.37-11.1 8.933-15.87-4.5-4.816-5.676-6.457-12.233-7.513-7.518-1.23-5.174-9.13-9.024-13.06-8.527 3.853-7.003 11.016-17.813 11.42-8.77.326-9.18-3.135-9.944-11.503-2.13 1.104-1.142 3.587-2.977 4.99 3.146-2.42-32.74-34.404-10.554-32.85 4.952.347 4.927 1.035 7.312 4.596 4.355 6.505 5.418 7.86 11.824 11.198 3.7 1.93 5.283 4.852 9.678 5.62 4.995.88 10.755-3.937 14.745-2.425 2.788 1.058 4.067 5.923 5.24 8.26 3.69.996 7.445 1.16 11.205 1.875 9.034 1.72 16.893.11 25.668.963 10.604 1.042 16.772-4.063 22.13 8.247 3.016 1.605 5.9 2.012 7.92 5.148 1.764 2.738 8.872 1.146 9.355 2.485.622 1.736-4.822 4.286-5.522 4.905 3.62 3.98 10.8 11.968 15.712 4.33 4.42-6.87 2.002-9.267 4.972 1.634 1.953 7.23 1.674 14.89 4.322 22.11 3.02 8.232 7.657 15.765 10.36 24.067 2.39 7.4 7.393 12.81 10.125 20.075 2.507 6.668 4.346 16.207 11.363 8.058 3.917-4.55 9.69-8.497 8.38-14.965-.843-4.1 3.33-7.227 1.88-11.278-1.438-4.013-1.075-8.063-.965-12.29.14-4.965 8.854-5.987 11.33-9.455 4.403-6.174 10.907-10.468 15.02-17.267 1.644-2.717 5.69-2.185 7.552-5.057 1.732-2.672.805-5.667 3.393-7.77 3.665-2.98 3.06-3.188 7.333-2.406 3.36.62 11.446-.313 10.92-5.447-.38-3.56 7.403 1.223 8.14 3.327 1.042 2.975 1.45 5.787 3.412 8.4 2.392 3.188 6.74 3.71 9.064 6.674 3.633 4.633 7.824 13.727 5.523 19.598-3.196 8.167 13.138-1.415 14.68-3.5 11.977 13.415 13.973 35.02 11.466 52.205-.422 3.078 11.986 13.363 13.03 18.238 1.133 5.278 3.513 13.38 7.302 17.426 2.035 2.163 17.356 13.236 13.155 3.406-2.918-6.828-2.68-15.328-7.82-20.834-2.787-2.986-15.59-7.705-13.76-12.897.745-2.13-4.55-7.77-6.117-8.693-3.756-2.21-1.233-9.305-.388-12.092.946-3.118 3.21-21.088 8.555-10.54 1.334 2.6 5.456 1.92 7.568 3.726 3.29 2.85 6.304 6.013 9.348 9.002 2.037 2 5.63 3.535 8.06 5.026-1.074 6.736-.27 8.172 5.197 3.335 6.302-5.576 15.447-8.68 17.52-17.622 1.64-7.072-2.442-17.684-7.125-22.98-2.03-2.298-4.48-3.805-7.012-5.46-3.78-2.522-4.728-6.42-8.008-9.252-4.813-4.15.16-14.2 4.38-16.98 5.873-3.88 8.752-4.624 15.224-2.863 1.68 1.575.377 5.586 3.693 5.556-1.12 0 1.544-5.045 3.604-5.61 5.473-1.524 13.846-9.187 17.4-7.848 9.277-2.234 26.68-11.273 27.018-23.262.12-4.5 3.537-13 6.895-16.087 2.828-2.618 1.192-7.516 1.475-10.78.402-4.728-3.916-2.465-6.403-4.355-1.706-1.284 6.93-4.33 4.804-6.82-.803-.934-4.487-2.978-4.157-4.222.373-1.408 6.398-2.375.823-4.672-5.016-2.024-5.297-9.29-8.735-12.755-5.138-5.18-7.55-2.862-6.492-11.377 2.817-2.558 3.282-6.105 6.586-8.438 1.953-1.38 7.555-1.905 7.883-4.42.467-3.625-4.682-2.34-6.303-2.547-6.677-.85-4.27-2.992-9.493 2.896-3.147 3.542-14.133-6.735-14.873-9.956-1.615-7.025 6.695-3.205 7.263-8.25.34-3.028 7.89-13.49 11.28-13.174 8.247.772 1.702 7.4 2.952 11.168 1.88 5.67 11.185-2.638 15.013-2.95 5.888 2.056 8.363 4.385 7.067 11.083-1.36 7.023 6.534 2.964 9.655 6.7 1.82 2.172 3.77 10.52 3.937 13.435.647 11.346.79 6.326 10.167 6.306 18.394-.036-13.946-34.58-14.06-35.474-.792-6.34 9.758-8.516 8.553-15.333-1.674-9.225 3.168-10.357 6.99-17.665 2.444-4.66 11.576 4.944 16.37-5.455 3.15-6.91 9.82-17.402 10.29-24.975.358-5.928 1.023-16.382 4.14-21.493 3.76-6.197-5.606-17.474-5.838-23.778-.307-8.81-4.132-35.017-18.74-32.515-5.398.923-1.737 4.957-7.307 7.177-2.33.937-1.416-2.077-2.513-2.84-1.597-1.11-3.353 2.66-4.842-.627-.52-1.152-1.742-6.158-3.67-5.917-11.077 1.406-6.672-5.005-3.35-11.568 3.423-6.765 5.18-15.268 7.535-22.56 1.866-5.776.69-13.148 2.837-18.588 3.317-8.3 13.183-4.964 18.897-9.213 5.534-4.158 10.575.438 13.813-6.216 2.505-5.13 14.683-2.557 17.978.733-1.495.94-1.995 2.138-1.5 3.592.65.83 12.055-5.07 13.352-6.36 2.44-2.485-3.443-2.078-4.094-3.694-2.95-7.318 1.896-15.728.69-23.65-1.093-7.208 17.673-12.23 18.238-8.865 1.076 6.317.703 7.682 6.898 9.405.82-2.282 4.55-12.626 3.967-14.465-.808-2.492-5.154-8.258-3.03-10.91 1.356-1.685 8.717-4.073 9.235-.188.66 4.954-2.56 3.783.31 10.422 2.855 6.607 5.278 10.91.95 16.39-4.373 5.542-2.75 18.082-3.53 24.974-.752 6.71-1.432 9.474-4.288 15.724-1.568 3.484-.583 9.342-2.17 13.758 2.234 11.377 7.17 21.982 13.732 31.493 2.242 3.25 5.81 12.207 9.648 13.598 4.794 1.732 1.92 13.505 8.85 12.946 2.554-4.502 4.13-8.585 2.08-13.71-2.79-6.935 1.6-5.04 3.188-9.78.707-2.112-2.68-7.803-2.223-10.938.71-4.874 5.93-4.303 6.78-7.738.722-2.91-6.66-8.804-6.702-13.25-.04-4.097-.614-6.766 1.41-10.458-.103.19-5.828-6.352-4.395-10.285 2.203-6.002-4.938-.934-5.023-.905-4.966 1.663-7.93-23.125-8.65-26.146-1.153-4.8 5.673-4.142 6.776-7.458 2.122-6.43 4.327.02 6.908.297 1.133-5.484 6.345-14.524 13.39-9.19 7.944 6.022 4.928 1.374 6.854-5.654 1.698-6.207 5.934-35.577 17.744-33.432 9.895 1.788 4.912-5.32 2.394-9.44-1.527-2.497-5.78-4.686-8.71-4.292-2.895.386-.383-3.95-1.674-5.24-2.81-2.803-6.14-3.965-9.695-5.224-5.643-2-2.145-4.783-8.782-1.475-2.986 1.475-2.38-4.328-.544-5.656-1.125.052-1.983-.327-2.574-1.136 1.175-3.77 8.16 2.278 10.687 2.07 6.043-.498 5.572-9.498 4.93-13.802-.838-5.632-6.62-6.006-9.32-10.048-2.688-4.05 2.86-10.83 4.165-5.806 1.142 4.455 6.925 6.916 7.966 1.463 1.41-7.225 8.473-1.73 10.808.47 1.026.96 9.74-.65 11.646-.65 3.137.008 3.503-4.793.842-5.2-1.442-.22 2.34.358 0 0zM476.675 220.35c5.896-.18 2.676 4.18 6.974 4.656 5.175.58 10.995 6.296 16.25 5.092-.104-.104-2.19-2.043-.805-2.362-2.386.57 9.195 3.15 9.728 3.488 8.124 5.154 2.526-5.994 5.936-8.505 1.984-1.468 2.002 3.025 2.13 3.3 2.284 4.846 2.68 2.21 3.205 7.872-.095-1.02 3.422 8.24 2.513 6.273 1.898 4.11-.226 4.44.31 6.826 8.997-.445 11.993 11.195 11.223 19.427-.463 4.997-9.395 9.843-13.056 12.574-7.093 5.324 4.967 6.058-6.05 9.476-5.417 1.685-7.92-1.252-12.843-1.704-3.04 2.61-10.084 7.747-2.37 10.344 1.17.394 11.39-.193 12.103-.658 5.43-3.52 8.612 6.543 11.124 9.04 3.288 3.258-1.592 4.405.9 7.035 4.34 4.583 10.517 8.7 15.933 11.77 14.51 8.22-4.258-13.853-1.973-16.333 4.306-4.792 15.772 21.383 20.24 2.798-2.83-8.817-11.854-18.576-10.935-28.094 1.595.087 2.482 2.75 3.926 2.372.73-.192 1.335-3.93 2.055-4.737 2.47-2.772 3.634 1.752 4.89 2.976 3.64 3.545 4.29.886 4.05 5.703-.187 3.723 1.165 7.14 5.056 8.134 1.624-7.173 11.41-9.095 12.722-15.127.036-.167 3.63-3.657-.51-3.207-6.93.745-3.98-1.162-7.792-4.393-3.883-3.29-.604-6.018-7.324-7.123-1.34-4.55-5.674-7.835-8.674-11.335-1.562-1.83 2.736-2.842 3.285-3.945 2.68-5.386 3.554.23 6.494-3.045 1.31-1.443-8.87-4.81-3.93-6.018 5.63-1.38 4.668-5.968.346-3.18-4.986 3.21-3.098-6.157-7.402.3-1.977-4.553 11.074-4.784 7.8-8.84-1.898-2.35-3.638-.603-6.12-.548-5.23.115-1.144-3.52-4.39-3.33-9.95.574 1.584-4.437 2.077-5.398 2.69-5.248-3.927-4.076-5.92-2.104-2.207 2.182-3.077-1.008-5.02-.34-.005-.044.204 2.5.925 1.537-.515-.507-4.76-4.185-4.762-4.095.11-4.037 6.266-5.696 1.597-8.017-1.07-.59-1.207-1.35-.413-2.284 2.897-3.3-1.334-5.198-4.167-6.933-7.758-4.764-4.3 3.98-5.054 4.69-1.216 1.15-6.643-.475-7.443-1.628-2.573-3.68-10.59 5.95-7.15-2.394 2.17-5.262 11.935-23.206-1.655-19.122-4.956 1.49-17.383 5.63-15.967 12.412a18.47 18.47 0 0 0 2.114 1.848c-1.172 3.434-4.445 1.945-6.04 4.557-2.06 3.37 3.87 12.29-3.252 14.14-2.06.564.014-6.176-.167-6.552-2.598-5.475-.88-8.175.94-13.37 2.848-8.133 6.442-11.84 14.016-16.814-6.14-14.753-30.81 16.756-33.276 22.835-.362.894-2.974 4.53-.65 5.584.685.31 11.488 4.934 7.533 6.727-2.05.93-8.48-3.588-8.714.22-.233 3.777.83 7.665 5.432 7.53 1.415-.043-3.026.09 0 0z"/><path fill="none" stroke="#1D2F49" stroke-miterlimit="10" d="M511.322 133.14c4.125-1.45 9.815 5.98 12.937 7.655-.558-.298 4.607-2.913 5.545-2.887 4.288.12 1.863 2.118 5.083-.566 3.565 4.99-.21 1.958 4.328 1.407 1.674-.204 4.006 5.483 4.542 6.402 1.48 2.546 6.98-2.11 8.985-2.217 8.607-.453 1.1-5.068.783-7.232-.496-3.374-7.927-7.857-8.508-6.783-.904 1.812 13.65.58 14.776.04 3.055-1.47 4.5-7.496 7-7.84 2.586.418 5.176.372 7.77-.14 1.47-.328-3.228-3.168-.928-3.917 1.534-.497 5.936 2.185 6.09-1.19.16-3.657 4.258-2.358 4.97-7.03-1.392-1.608-7.664-5.21-8.006-6.09-1.097-2.82 3.815-2.21 3.977-2.46-.74-.406-.77-.482-1.85-.09.25-3.392 1.186-3.152 3.407-3.83.04-.045-.104.015.284-.023-.73-.816 10.947.98 11.826.765 2.698-.658-.704-4.622-.057-4.876 3.227-1.344 5.15 4.638 9.213 3.955 4.672-.778 3.215-4.64 1.973-6.742 2.435-1.267 7.684-2.61 9.828-2.896 5.42-.72 11.314-7.3 17.483-8.447 1.25-.23 10.586-5.383 8.21-6.506-2.476-1.192-16.737 4.705-17.638.497-.163-.742 8.722-1.27 9.448-1.445 9.193-2.217-1.024-2.338 1.054-5.194.77-1.076 15.963 1.07 19.103-.583 3.065-1.612 8.523-3.463 10.25-6.786 2.97-5.72-.747-4.37-3.3-6.536-.738-.625.346-6.287.347-6.303.06-4.328-10.552-.774-10.967-.626-3.485 1.242 4.165-5.092-.845-7.204-3.663-1.543-11.514-9.1-16.173-6.517-6.638 3.73-12.01-10.763-15.646 1.83-1.607 5.59-8.975-10.012-11.346-4.563-.48 1.107 2.235 6.983-.453 6.143-3.33-1.038-2.294-4.66-4.864-5.455-1.422-.443-.488 6.576-1.872 7.468-1.106.705-1.04-5.702-2.906-5.107.135-.044-2.212 4.502-2.333 4.7-4.24 6.92-6.453.212-9.413-3.47-3.274-4.06-6.417 12.537-4.23 10.268-2.16 2.24-4.73-2.733-8.02-1.007-6.277-7.816-.802.423-6.765-.908-1.93-.43-10.702-5.242-10.88 1.684-.053 2.018 3.964-.776 4.848 1.083.68 1.408-1.84 2.235-1.812 3.655a9.46 9.46 0 0 1 5.595-.196c-.893.883-6.52 5.782-7.748 5.85-.517.025 12.327 3.23 14.64 3.688-2.25 4.57 1.504 1.734 4.25 4.372-1.77.017-17.305 1.85-11.885 6.745 3.27 2.938 13.977-2.183 14.58 1.514-6.732 3.644 6.57 3.668 9.474 1.772 1.06-.693 4.523-5.547 6.513-3.8.546 1.132.36 2.203-.555 3.216 2.894.206 4.485 1.44 4.77 3.702.005-.014-13.878 2.912-15.49 2.853-2.018-.074-8.702-1.86-10.36-.492-1.176.972-.625 9.452-2.6 8.884-2.086-.604-6.907-21.118-13.625-10-1.284 2.125-.785 8.678-.788 10.866-.005 3.792-3.185 9.025-2.71 12.352 1.23.32 10.83.717 8.67 2.88 2.336-1.715-7.65-2.605-8.677-2.87-2.67 3.074-9.434-2.002-12.12 2.11-1.027 1.565-7.54 5.978-5.633 8.42 2.46 3.15 7.446.623 9.822-.853-.668 2.653-1.207 4.965-3.952 6.198-.317 5.465 1.168 4.2 2.71 8.118.924 2.467-2.168 2.083-3.946 1.572-5.906-1.698-2.887-6.016-6.202-9.608-5.395-5.85-3.06 11.23-5.65 11.068-5.04-.302-7.317-.376-11.825 1.873-.996.49-4.264 6.29-2.505 5.68 1.638-.576-.118.04 0 0zM671.366 798.418c-1.466-5.972-13.436-7.076-17.84-12.066-5.483-6.222-21.454-9.358-29.422-8.067-.574.093-5.92 3.834-6.257 1.545-1.048-7.14-2.885-4.99-8.01-8.233-11.476-7.25-13.15 2.24-21.586 6.983.05-2.473-1.737-1.937-2.7-3.563-.03-.052 8.124-4.565 8.763-7.66 1.167-5.72-15.936 1.975-17.7 1.23.612-3.432 11.585-11.71 8.69-14.868-5.17-5.656-6.032-13.045-11.6-18.477-4.194-4.09-12.635-7.626-18.554-7.292-5.82.336-9.013.485-13.685-3.3-2.634-2.134-4.27-4.195-6.798-6.273-1.85-1.515-13.2-7.564-13.08-7.98 1.566-5.463-11.404-4.663-9.195-9.175 1.065-2.172-14.384 2.833-16.22 1.507-3.352-2.418-7.662-1.167-11.396-1.1-3.614.07-4.258-4.283-7.9-5.226-9.5-2.46-13.173 2.477-13.173 10.456 0 4.058-7.384 1.88-3.232-4.854 1.595-2.594-1.2-4.197-.34-6.67.693-1.997 4.013-2.022 2.985-4.543-.38-.91-15.038 6.062-15.455 6.787-1.393 2.378-3.715.178-5.62 1.252-3 1.69-2.8 4.97-3.886 7.746-.713.576-8.06 8.904-6.944 8.788-4.518.454-7.785-8.792-14.69-8.053-6.89.737-13.804 7.423-19.634-.904-5.667-8.094-5.973-10.506-4.154-20.268.61-3.273 1.78-6.12 2.056-9.435.41-4.924-3.658-3.527-6.716-6.07-5.51-4.593-16.67.142-23.11-1.267-1.87-.405 2.185-17.354 3.74-17.33 2.303.058 4.47-10.286 6.808-13.368 6.225-8.227-12.918-3.16-14.92-3.074-2.882.11-9.81 14.71-10.818 17.414-.05.132-16.965 2.206-18.43 1.76-12.464-3.78-18.147-20.678-16.618-32.272 1-7.576 4.496-15.2 4.31-22.72-.32-13.125 8.57-9.714 14.897-16.246 6.266-6.47 10.918-.562 18.322-3.88 3-1.33 11.4 9.13 12.896-.138 1.187-7.356 15.118-5.24 20.23-4.35 2.775.484 6.297 4.862 9.073 3.548 4.068-1.93 5.39-.573 7.957 2.792 1.015 1.33 8.57 32.686 12.72 27.237 9.77-12.856-7.02-30.265 2.956-44.447 2.613-3.726 10.26-7.49 13.973-10.565 3.683-3.05 9.917-8.8 13.828-10.964 4.825-2.73-2.035-3.954 1.8-6.057 3.89-2.098-2.89-21.583 2.685-21.89.747-.045 1.394 11.382 4.503 8.114 3.352-3.516-1.17-8.208 4.087-8.454 5.76-.297 4.405-7.596 6.48-10.778 3.604-5.525 12.636-1.51 15.453-5.846.72-.705 1.57-.94 2.547-.702 4.74-.508.775-3.577 1.806-6.1 2.377-5.804 3.873-9.046 9.8-11.895 4.135-1.99 13.66-2.17 14.78-7.265 3.59-.648 7.036-1.167 10.48-2.44-.63.233 9.826-1.884 6.2 1.897-1.665 1.704-6.9 2.18-9.267 3.337-2.504 1.22-4.93 9.59-.61 8.103 4.057-1.374 5.064-4.855 8.435-6.697 3.845-2.102 9.66-1.528 13.837-3.98 3.48-1.985-10.25-4.774-11.895-6.347-2.927-2.797-5.08-6.96-3.11-11.154.994-2.125-4.408-1.603-4.383-4.28.01-.575 7.318-1.014 8.163-3.63 1.234-3.822-4.9-5.293-7.355-4.685-5.816 1.443-12.165 2.753-16.93 6.623-1.565 1.27-11.155 7.522-11.145 7.507 4.497-6.194 10.88-13.635 18.232-16.434 7.898-3.007 7.148-8.73 16.414-7.91 8.973.796 17.96 1.99 26.944 1.364 3.183-.22 5.96-2.642 7.824-5.02 3.003-3.837 6.624-2.357 10.674-3.752 4.765-1.642 10.212-9.55 6.827-14.834-1.567-2.436-3.74-.21-5.064-1.59-.852-.885.403-2.727-.464-3.868-3.506-4.612-13.09 8.293-15.733 5.554-4.353-4.458 15.073-9.063 14.092-10.726-1.572-2.613-12.394-3.046-12.22-6.16.22-3.957-9.68-10.375-4.926-13.26 4.556-2.768-1.07-12.87-4.03-16.334-.543-.63 2.26-2.623 1.5-4.27-2.045-4.462-2.235-9.436-2.87-14.22-3.114.52-5.264 7.118-6.826 9.31-3.292 4.622-8.255 8.344-13.902 9.728-7.022-4.467-9.092-14.73-5.908-20.953 1.56-3.05 3.892-6.765-.942-8.22-5.842-1.76-6.003-4.885-8.52-9.832-2.275-4.472-22.224-11.287-25.486-6.022-2.15 3.472.966 6.606-1.442 10.447-2.84 4.532.866 9.318-1.064 13.63-1.815 4.057-7.395 6.02-9.474 10.027-.478 2.273.336 4.162 2.442 5.666 2.166 3.672 2.146 8.727 1.904 12.84-.397 6.97-.943 7.854-7.12 12.077-3.143 2.147-13.878 4.35-13.55 9.1.178 2.56-1.52 29.74-4.132 28.773-6.58-2.393-10.028-4.866-13.835-13.832-1.724-4.06 5.87-21.818 2.208-22.6-12.163-2.59-17.705-6.504-25.95-16.01-2.424-2.795-6.832-4.98-10.133-6.656-3.77-1.915-7.39 2.123-11.08.57 2.86-5.78 3.037-10.124 1.647-16.606-.514-2.46-4.327 2.445-4.927.295-1.187-4.25-.19-9.01 1.39-13.074 2.857-7.352 8.256-12.563 13.112-18.64 2.34-2.92 3.67-3.162 6.48-5.32 4.864-3.735.766-6.23 2.926-9.157.896-1.252 7.334 6.457 9.903 1.357 1.546-3.067-5.04-6.258-3.895-7.48 1.97-2.108 9.666 5.484 10.72-1.205.685-4.108 7.397 1.498 10.302-1.245 5.304-5.002 11.83-7.723 3.038-11.376-2.04-.85-6.88-9.058-2.527-8.458 3.756.518 4.11 8.885 9.067 7.498 2.322-.65 10.284-6.078 8.266-9.112-3.462-5.227 5.845-2.7 7.796-.538 5.71.375 3.087-2.518 1.925-6.34l.918-.817c2.76.958 3.927 3.073 3.5 6.344.786 3.093 5.817-.733 6.16-.96 10.28-6.852 5.75-6.87 7.04-16.9.696-5.392 5.19-3.11 7.483-8.404 1.868-4.31-3.752-8.37-7.045-10.585-9.154-6.156-5.957 5.898-9.7 9.208-4.307 3.807-8.018 7.38-11.517 12.2-4.69 6.463-8.52 5.635-8.49-3.534.014-4.067 4.512-6.67 3.805-10.446.63 3.36-1.17-8.216-3.392-4.81-.472.725-10.358 11.626-7.416 4.526 3.448-8.274.662-8.79-3.525-13.185-2.76-2.896 4.22-7.234 5.8-8.85 1.48-1.517.596-16.664-.154-19.13-1.74-5.73-9.02-6.93-7.724.006.475 2.56-11.982 1.59-8.454 9.57 1.64 3.714-8.564 6.755-2.347 12.954 3.458 3.448 10.572 4.023 10.586 9.102-8.014-.63-4.87-.772-6.57 4.21-1.343 3.93-4.937 7.14-8.8 8.797-5.6 2.404-5.05 2.65-6.037 9.283-.8 5.345-8.794 2.793-7.626 1.477.314-.358 3.934-.13 3.324-1.717-1.703-4.463-1.166-5.138 1.73-9.204-3.273-6.806-11.314-8.013-7.373.64-10.585.444-29.616-1.84-32.095-14.567-.402-2.068.686-7.566-3.3-7.287-2.987.206-8.276-.56-10.453 2.036-3.085 3.682 11.915-.546 12.42 1.606.927 4.065-13.69 5.162-14.816 8.91.055-.18-5.452 17.198-7.032 10.848-1.063-4.233.38-16.51-6.586-14.9-2.29.53-25.468-.613-20.83-7.407 2.564-3.77 15.716-3.794 6.406-11.06-2.257-1.76-5.93-.945-8.73-3.047-2.988-2.24-6.292-4.537-8.967-7.15-3.253-3.175-6.345-14.366-12.49-7.94-7.87 8.207-4.866-3.877-4.18-6.837-3.09-.194-5.26 7.625-8.048 6.25-5.333-2.608-1.012-13.356-1.475-17.965-.505.12-4.884 5.247-5.956 5.847-4.925 2.758-8.528.47-13.243 3.353 6.98-4.282-12.128-.278-15.28 1.796 5.038-3.313 9.376-4.418 15.297-4.686 4.78-.23 7.985-7.113 3.328-4.72-3.792 1.937-13.775 5.462-17.816 5.445-2.827-.016-6.225 1.963-8.767 2.844-.19.53-.82 9.477-3.414 7.817-1.34-.858-2.352-3.768-3.384-4.822-2.2-2.226-6.505-4.68-7.623-7.745-2.31-6.283-3.793-9.353-9.464-12.984-3.817-2.444-4.31-4.77-6.98-8.106-2.22-2.776-5.704-.463-8.144-2.306-3.624-2.72-15.71-7.303-15.727-12.29-.012-3.23-5.31-1.115-6.146-.937-3.444.745-3.86-4.053-4.757-6.133-.922-2.14 1.697-4.367-.958-5.79-2.247-1.204-5.716-.15-7.055-2.91 1.412 2.91-13.71-1.808-5.763-3.74.902-.222 5.42-.245 3.768-2.758-2.585-3.91-6.736 1.328-9.867 1.896-2.74.497-6.283-.98-8.994-1.36-3.528-.488-3.287 2.747-5.403 4.54-4.21 3.572-11.49.5-17.027 3.964-5.833 3.65-10.97 9.367-17.836 11.052-5.816 1.427-15.634-4.895-17.235 6.144-.992 6.84 3.5 12.105 1.412 19.842-1 3.71 6.72 2.91 4.996 7.655-2.08 5.717 9.9 3.318 6.51 8.074-1.102 1.546-11.533 3.475-13.948 3.672-14.718 1.205-.475-19.333-16.9-8.108-1.29.883-18.784.51-15.223 6.59 5.028 8.583 1.962 3.51-1.68 12.608-2.315 5.798 16.633 7.547 19.175 6.41 5.853-2.623 11.297-3.58 6.61 2.645C89.8 210.805 89 224.48 80.93 221.15c-5.48-2.24-14.063 4.418-18.033 7.18-2.16 1.504-5.844.16-7.977 1.762-3.54 2.65-5.917 6.48-9.513 9.07-5.676 4.098 6.97 11.517 6.96 11.902-.125 3.946-10.806-3.775-9.227 4.48 1.906 10.093 5.884 8.025 11.34 2.975l.68-.186c1.583.015-.98 10.292-1.506 11.5-3.17 7.3-.76 6.916 5.315 10.07 1.156.597 14.233 3.9 14.303 3.786-5.82 9.585-13.83 17.966-24.07 22.893-3.587 1.725-8.59 8.02-11.39 8.858-1.39.418-16.605-1.967-13.017 5.66-.813-1.668 22.335-5.917 23.656-7.142 5.003-4.636 12.38-5.22 17.25-9.563 4.608-4.11 8.276-6.67 14.35-8.913 3.54-1.305 7.29-5.36 10.65-7.448 2.788-1.72-5.477-9.007 4.41-9.677 6.71-.443 22.24-23.253 30.236-15.707 4.95 4.4-12.77 7.95-12.67 7.84-1.225 1.288-7.274 8.198-6.64 9.66 2.583 5.947-3.235.096-3.6 5.766.027-.463 20.193-5.008 22.403-7.38 2.57-2.755-.32-6.207 2.603-8.736 2.807-2.427 7.945.604 11.884.306-1.964 7.998 6.592 13.904 12.835 15.976 4.158 1.38 7.7 6.433 11.71 6.766 4.98.406 1.34 3.61 3.442 6.793.818 1.003 1.87 1.47 3.16 1.4.807 1.398-.064 5.1.374 6.49 1.962 6.212 4.527 5.3 4.48-.46-.04-3.918 4.777 5.756 4.764 5.733 2.592 4.57 3.716-10.818 5.615-9.82 2.146 1.12-.533 9.548.2 11.682.82 2.22 2.217 3.946 4.188 5.178-.395 2.625-2.44 5.466-2.5 7.946-.143 5.92 8.04 15.914 4.176 21.066-.005.057.12-.07.187-.132-.13 1.682.03 3.337.48 4.964 1.46-2.574 3.278-3.49 5.454-2.747-2.86-1.044-10.78 19.198-4.962 17.198 4.534-1.556 6.46.227 2.715 4.927.062-.078 1.088 8.703.842 8.393 1.46 1.857 4.337-1.782 6.02-1.865.532-2.022-3.254 2.2-2.18 1.07 4.074 4.324-2.012 4.322-4.447 7.12-.05.058 1.717 2.056 1.033 3.717-1.028 2.475 4.566 9.588 6.983 10.222 5.267 1.38 17.19 31.095 5.014 31.482 6.003-.086-7.56-15.058-7.787-8.96-.225 6.964.832 14.18-1.626 20.015-3.29 7.765-5.137 16.494-9.534 23.712-2.12 3.48-2.123 7.47-1.91 11.375.17 3.06-3.966 10.41-2.9 12.518 2.54 5.067-1.557 15.9 4.868 19.03 2.932 1.433 2.087 8.598 1.73 11.535-1.03 8.09 4.552 15.936 10.608 19.092 10.713 5.582 9.71 12.753 13.262 23.05 1.187 3.443 1.625 9.358 4.58 11.883 2.66 2.29 6.272 6.833 5.346 10.703-.34 1.42-4.655 3.668-2.504 5.636 2.125 1.95 5.415 2.42 7.165 4.8 1.9 2.592 4.5 3.565 4.417 7.197-.1 4.45-1.117 4.315 2.316 7.685 1.136 1.11 13.114 12.86 9.76 6.23-1.318-2.55-4.106-3.35-5.41-5.708-1.46-2.64-1.683-7.18-2.414-10.118-1.502-6.037-4.882-11.936-7.906-17.496-4.3-7.908-7.31-11.62-6.783-20.86.23-4.113 3.693-2.083 5.757-1.18 5.047 2.208 4.295 7.79 5.772 12.49 1.71 5.44 6.466 14.52 10.83 18.262 4.463 3.83 3.03 9.443 6.66 11.903 4.803 3.256 9.15 9.736 12.282 14.703 2.185 3.464 3.606 6.91 4.69 10.85 1.57 5.702-3.184 8.358.203 13.754 6.375 10.18 28.416 17.17 39.332 21.444 3.71 1.453 7.654 3.012 11.72 2.13 2.663-.575 5.293-3.233 8.132-2.652 7.003 1.41 10.857 9.845 16.636 13.4 4.3 2.646 17.998 6.297 23.053 4.91.922-.247 8.053 10.69 10.452 12.114.345 5.744-.06 7.214 5.258 7.93 2.528.342 5.903 4.77 6.953 6.756 1.694 3.203 7.647 2.227 10.64 3.21.707 1.396 7.622 7.037 8.305 2.974.5-2.944 2.977-10.103 7.587-8.15 5.202 2.186 4.896 8.035 7.506 12.564 1.962 3.403 4.91 18.42 2.158 21.91-8.54 10.836-21.63 18.17-20.285 33.848.257 2.868 8.354-1.12 5.1 5.272-2.813 5.525-12.478 8.93-6.4 17.54 3.714 5.264 11.37 7.077 13.53 14.48 2.583 8.793 8.625 16.766 13.424 24.418 1.84 2.937 1.693 6.496 3.492 9.248 2.57 3.93 7.395 6.265 11.12 8.89 7.332 5.17 14.582 8.983 21.49 14.997 4.794 4.17 3.94 15.392 4.372 21.18.55 7.404.562 17.187-.28 24.57-1.92 16.808-4.51 35.903-.106 52.653 1.204 4.6-3.46 23.8-6.38 27.5-2.317 2.937 2.005 9.636 3.048 12.264 1.578 3.97-1.36 10.716-.966 15.055.372 4.14 2.766 4.505 5.437 3.622 5.084-1.602 2.357 11.08 2.353 12.18-.023 5.33 1.533 6.276 2.58 10.536.665 2.696-2.908 9.824-3.474 12.922-1.28.044-9.823-4.855-6.79 2.15 1.117 2.575 5.685.647 6.138 4.167.33 2.523-1.074 6.41 2.164 7.493 2.32.785-.534 8.007-2.282 9.23-9.927 6.945 7.326 8.81 4.723 3.402 1.576 2.75-2.814 6.435.266 8.678 2.942 2.14 2.352 2.72 4.043 6.504 4.68 10.473 2.457-1.916 7.995 3.61 3.79 3.802-6.782 4.257-3.963 7.94.547.713 3.224 4.163 4.512 3.403-.965 0-.13-.484 2.5-1.454-9.684 5.266 8.31 1.93 4.847-1.474 1.62 1.81-1.992 10.94 2.452 9.343 1.99-.716 1.255-6.008 1.335-7.456.245-4.36 5.4-6.4 8.73-7.564 0-3.965-5.26-8.133-4.584-12.78.513-3.53 4.14-4.545 5.545-7.33 1.474-2.917-.318-5.267 2.208-8.187 1.65-1.908 9.254-13.022 2.083-14.487-6.293-1.288-12.078-7.938-6.874-13.588 3.256-3.535 9.575-4.31 7.35-10.81-.23-.673 1.33-10.274 1.76-10.843.51-.668 9.333 1.36 5.4-2.396-.248-.236-6.217-.79-5.804-.55-2.713-1.574-2.846-5.698-3.47-8.336-1.257-5.337 10.556.6 12.534-.31 3.16-1.454 3.22-10.652 2.156-13.632-1.89-5.248 4.344-3.214 6.744-3.1 8.194.396 16.576-2.043 19.8-9.87 3.217-7.82-3.292-5.565-1.99-12.78.06-.325-9.737-12.178-7.017-11.02 6.518 2.78 11.227 5.005 18.77 5.313 6 .233 5.853-5.308 8.98-8.435 2.035-1.244 2.163-5.996-.16-4.325 3.79-2.74 6.09-9.956 8.447-14.092 1.41-2.478 1.607-6.165 4.918-4.393 2.408 1.287 7.754-10.523 8.867-12.64 2.478-4.665-.47-8-.05-12.7.455-5.103 4.042-7.894 7.544-11.065 3.795-3.45 8.42-4.53 12.27-7.604 5.794-4.63 6.575-3.913 14.066-4.188 13.453-.492 18.56-32.913 18.795-42.917.15-6.394-1.182-11.71.556-17.96 5.827-2.777 5.42-4.596 9.174-9.983 8.353-11.97 14.38-13.83 10.51-29.57-.73-2.975.23.943 0 0zm-95.5 167.48c.068-.072.134-.146.213-.213-.08.067-.146.14-.213.213zm-.507 1.01zm.19-.562z"/></svg>