<svg xmlns="http://www.w3.org/2000/svg" width="100" height="100" viewBox="0 0 100 100"><g fill="#16335A"><path d="M47.208 39.237a2.825 2.825 0 0 1 5.65 0 2.824 2.824 0 0 1-2.825 2.82 2.82 2.82 0 0 1-2.825-2.82zM48.752 24.477v-7.244c0-.17.14-.31.312-.31h1.9c.17 0 .307.14.31.31l-.003 7.245c0 .17-.135.308-.307.308h-1.9a.312.312 0 0 1-.31-.31zM48.752 34.085V26.84c0-.173.14-.31.312-.31l1.9-.002a.31.31 0 0 1 .31.312v7.244a.31.31 0 0 1-.31.31h-1.9a.31.31 0 0 1-.312-.31z"/><circle cx="57.725" cy="42.596" r="2.824"/><circle cx="64.452" cy="35.868" r="2.824"/><path d="M70.8 47.32a2.823 2.823 0 1 0-.005 5.645 2.823 2.823 0 0 0 .004-5.646zM65.646 48.862h-7.244a.31.31 0 0 0-.31.31v1.9c0 .17.136.308.31.308h7.244a.31.31 0 0 0 .31-.308v-1.9c0-.17-.14-.31-.31-.31z"/><circle cx="64.63" cy="64.996" r="2.823"/><path d="M61.89 60.447l-5.123-5.122a.313.313 0 0 0-.438 0l-1.343 1.344a.308.308 0 0 0 0 .436l5.12 5.123c.122.12.32.12.44 0l1.34-1.343a.31.31 0 0 0 .002-.44z"/><circle cx="70.107" cy="70.474" r="2.823"/><circle cx="50.033" cy="60.968" r="2.825"/><path d="M51.31 75.728l.002 7.244c0 .17-.14.31-.312.31h-1.897a.31.31 0 0 1-.31-.31v-7.245c0-.17.138-.31.31-.31H51c.173 0 .312.14.31.31zM51.31 66.12l.002 7.244a.31.31 0 0 1-.312.308h-1.897a.307.307 0 0 1-.31-.308V66.12c0-.172.138-.31.31-.31H51a.31.31 0 0 1 .31.31z"/><circle cx="42.264" cy="57.973" r="2.824"/><path d="M39.525 62.52l-5.122 5.12a.31.31 0 0 1-.44 0l-1.34-1.34a.308.308 0 0 1 0-.44l5.122-5.12a.31.31 0 0 1 .438 0l1.342 1.342c.12.12.12.318 0 .437zM39.185 52.906a2.823 2.823 0 0 1 0-5.645 2.825 2.825 0 0 1 2.825 2.823 2.824 2.824 0 0 1-2.825 2.822zM34.03 51.36h-7.243c-.17 0-.31-.14-.31-.31v-1.898c0-.17.14-.31.31-.31h7.244c.174 0 .313.138.314.31v1.898c-.002.172-.14.31-.315.31z"/><circle cx="21.828" cy="50.083" r="2.824"/><circle cx="35.44" cy="35.606" r="2.824"/><path d="M38.18 40.154l5.124 5.12a.31.31 0 0 0 .438 0l1.34-1.34a.308.308 0 0 0 0-.438l-5.122-5.123a.308.308 0 0 0-.438 0l-1.343 1.343a.313.313 0 0 0 0 .438z"/><circle cx="29.962" cy="30.129" r="2.825"/></g></svg>