<svg xmlns="http://www.w3.org/2000/svg" width="200" height="50" viewBox="0 0 200 50"><path fill-rule="evenodd" clip-rule="evenodd" fill="#16335A" d="M34.078 16.108zm-.62-7.424h1.214c.11 0 .198-.09.198-.198V3.858a.198.198 0 0 0-.198-.198H33.46c-.11 0-.2.09-.2.198v4.627c0 .11.09.2.2.2zm0 6.136h1.214c.11 0 .198-.09.198-.198V9.995a.198.198 0 0 0-.198-.198H33.46c-.11 0-.2.09-.2.198v4.627a.2.2 0 0 0 .2.198zm6.808 6.513a1.803 1.803 0 1 0-2.55-2.55 1.805 1.805 0 1 0 2.55 2.55zm4.297-4.297zm2.778 6.037a1.805 1.805 0 1 0 0 3.61 1.805 1.805 0 0 0 0-3.61zm-7.917.987a.2.2 0 0 0-.198.198v1.213c0 .11.09.198.198.198h4.628a.198.198 0 0 0 .198-.197V24.26a.2.2 0 0 0-.197-.198h-4.627zm5.254 9.03a1.804 1.804 0 1 0-2.552 2.55 1.804 1.804 0 0 0 2.552-2.55zm-3.026-1.63l-3.272-3.27a.19.19 0 0 0-.278 0l-.858.855a.196.196 0 0 0 0 .278l3.272 3.272a.197.197 0 0 0 .28 0l.856-.856a.196.196 0 0 0 0-.28zm3.975 5.128a1.802 1.802 0 1 0 2.55 2.55 1.8 1.8 0 0 0 0-2.55 1.802 1.802 0 0 0-2.55 0zm-11.547-6.6zm.62 11.032h-1.214a.2.2 0 0 0-.198.2v4.624c0 .11.088.2.198.2h1.213c.11 0 .197-.09.197-.2V41.22c0-.11-.087-.2-.197-.2zm0-6.135h-1.214a.197.197 0 0 0-.198.197v4.627c0 .11.088.197.198.197h1.213c.11 0 .197-.088.197-.198V35.08a.195.195 0 0 0-.197-.197zm-6.857-6.28a1.803 1.803 0 1 0 2.55 0 1.805 1.805 0 0 0-2.55 0zm-1.33 3.04a.2.2 0 0 0-.28 0l-3.273 3.272a.202.202 0 0 0 0 .28l.86.857a.2.2 0 0 0 .278 0l3.272-3.27a.197.197 0 0 0 0-.28l-.857-.858zm.64-5a1.804 1.804 0 1 0 0-3.61 1.804 1.804 0 0 0 0 3.61zm-3.093-1.187v-1.213c0-.11-.09-.198-.197-.198h-4.627a.198.198 0 0 0-.198.198v1.213c0 .11.09.196.198.196h4.627a.195.195 0 0 0 .197-.196zm-7.992-2.422a1.804 1.804 0 1 0 0 3.608 1.804 1.804 0 0 0 0-3.608zm7.42-6.166a1.804 1.804 0 1 0 0 0zm4.16.49a.198.198 0 0 0-.28 0l-.856.858a.196.196 0 0 0 0 .28l3.27 3.27a.2.2 0 0 0 .28 0l.858-.855a.2.2 0 0 0 0-.28l-3.272-3.272zm-5.11-3.99a1.803 1.803 0 1 0-2.548-2.55 1.803 1.803 0 0 0 2.548 2.55zm56.112 6.374h-2.502v.74c.36.075.98.15 1.372.21l-3.06 7.554-.136-.09c.183-.59-.3-1.69-.754-2.684L71.11 20c-.076-.166-.15-.27-.363-.256H69.63l-3.678 8.458-.15-.09c.285-.724 0-1.493-.513-2.744l-2.203-5.382c-.06-.166-.12-.256-.332-.242h-2.698v.754c.392.075.813.136 1.28.21l3.62 8.985h1.598l3.422-7.628 3.53 7.628h1.522l3.904-9.573c.12-.285.045-.376-.287-.376zm6 .302c0-.256-.137-.302-.318-.302h-2.97v.754c.39.075 1.144.166 1.506.21v8.684c0 .213.105.302.317.302h2.954v-.753c-.36-.075-1.025-.15-1.49-.21v-8.684zm16.888-.302h-2.308v.74c.407.075 1.16.166 1.598.21v6.12c0 .575.03.938.18 1.238l-.134.075-8.005-8.08c-.18-.182-.27-.303-.542-.303h-3.15v.77c.45.075.842.12 1.416.21v8.518c0 .302.045.452.408.452h.708v-7.13c0-.422-.03-.708-.195-.996l.12-.075 7.842 7.87c.21.226.422.33.77.33h1.718v-9.436c-.003-.39-.003-.513-.425-.513zm9.73 0h-5.533v.68c.466.104 1.01.21 1.522.286v8.517c0 .317.09.468.527.468 1.253 0 2.353.03 3.483.03 5.248 0 7.69-1.96 7.69-5.23.002-3.138-2.592-4.75-7.69-4.75zm.014 9.016c-.83 0-1.51-.016-2.247-.09v-7.9c.83-.09 1.78-.075 2.2-.075 3.785 0 5.79 1.296 5.79 3.83 0 2.683-1.568 4.235-5.744 4.235zm28-9.016h-2.505v.74c.363.075.98.15 1.37.21l-3.058 7.554-.137-.09c.18-.59-.3-1.69-.753-2.684L131.737 20c-.074-.166-.15-.27-.36-.256h-1.116l-3.677 8.458-.15-.09c.286-.724 0-1.493-.514-2.744l-2.202-5.382c-.06-.166-.122-.256-.332-.242h-2.7v.754c.394.075.815.136 1.283.21l3.617 8.985h1.6l3.422-7.628 3.527 7.628h1.52l3.907-9.573c.122-.285.046-.376-.285-.376zm9.12.302c-.135-.226-.212-.302-.408-.302h-3l-.014.784c.377.09 1.008.167 1.4.212l-5.623 8.44c-.227.378-.15.514.348.514h2.623v-.753a22.19 22.19 0 0 0-1.568-.165l1.055-1.583c2.46 0 4.523-.017 7.254-.062l1.326 2.262c.12.196.182.302.39.302h2.685v-.753c-.39-.075-.826-.135-1.34-.196l-5.128-8.698zm-4.614 6.286l3.423-5.125.15.06c-.104.227 0 .56.302 1.056l2.336 4.01h-6.212zm22.375.076c-.542-.587-1.28-1.056-2.395-1.115v-.137c1.703-.044 3.995-.858 3.995-2.698 0-2.32-3.105-2.714-6.167-2.714h-5.487v.77c.438.09 1.145.166 1.508.21v8.668c0 .213.09.302.3.302h1.48v-4.04h2.14c1.96 0 2.338.588 3.03 1.538.528.724 1.01 1.492 1.39 2.095.134.257.254.407.736.407h2.476v-.77c-.484-.09-.922-.165-1.374-.21-.454-.707-.937-1.552-1.63-2.306zm-6.767-1.688v-3.935a20.38 20.38 0 0 1 2.23-.105c2.262 0 4.222.286 4.222 1.96 0 1.446-1.22 2.125-4.086 2.125-.784 0-1.48 0-2.367-.045zm17.43-4.976h-5.535v.68c.468.104 1.01.21 1.524.286v8.517c0 .317.09.468.527.468 1.25 0 2.35.03 3.48.03 5.247 0 7.69-1.96 7.69-5.23 0-3.138-2.592-4.75-7.688-4.75zm.013 9.016c-.83 0-1.507-.016-2.246-.09v-7.9c.83-.09 1.78-.075 2.2-.075 3.784 0 5.79 1.296 5.79 3.83 0 2.683-1.568 4.235-5.744 4.235z"/></svg>