<svg xmlns="http://www.w3.org/2000/svg" width="1100" height="800" viewBox="0 0 1100 800"><path fill="none" stroke="#1D2F49" stroke-miterlimit="10" d="M402.112 328.095c.99 1.263-.03.197 0 0 .003.006-.03.185 0 0zM836.618 338.234zM835.89 338.69zM25.134 105.947c-1.2 1.224-1.208 1.407-.02.55-.048-.77-.368-1.368-.96-1.795 4.302 5.47.69.596.98 1.245.006.747-.21-.466 0 0zM-.67 159.85zM-8.164 120.21c-.028-.22-.028-.223 0 0-.004-.042-.004-.043 0 0zM-8.23 120.005zM-8.337 119.935c-.086-.045-.188-.088-.26-.134.073.046.173.09.26.135zM-9.533 120.457c.787-.893-1.238 1.41 0 0 .075-.086-.177.202 0 0z"/><path fill="#1D2F49" d="M71.627 904.563c-1.188-1.125-6.56-2.854-7.305-.118.988-3.738 6.92.63 7.305.118-1.883-1.79.003-.006 0 0z"/><path fill="none" stroke="#1D2F49" stroke-miterlimit="10" d="M182.7 171.962c1.14-1.71 1.45.187 0 0 0-.002.443.057 0 0zM81.61 17.64c4.348-1.53 8.413 5.157 11.646 6.89-.49-.26 9.19-2.796 9.565-3.108.52.85 1.06 1.683 1.62 2.504 1.4-4.104 4.957 1.69 5.425 2.623 2.607 5.2 5.058.115 9.025-.094 10.84-.57-6.39-13.65-6.952-12.614-.47.942 11.275.424 12.403.24 2.094-.34 3.238-2.476 4.234-4.112 2.708-4.447 5.38-2.37 9.955-3.275.807-.18-2.614-2.945-.835-3.524 3.7-1.195 9.015-1.228 9.953-7.396-1.614-1.866-4.165-3.045-6.125-4.495-3.794-2.806 1.962-2.373 2.5-3.203-.523-.396-1.078-.422-1.665-.08.333-4.5 4.997-3.665 8.1-3.326 1.57.172 4.26.943 5.865.547 2.46-.6-.61-4.168-.053-4.388 1.283-.535 16.375 8.154 10.07-2.51 9.442-4.912 20.36-6.763 29.494-12.833 9.495-6.31-12.632.82-13.403-2.782-.215-.994 12.36-.72 12.01-2.83-.495-2.998-5.435-3.7 2.442-3.347 7.356.33 13.665.597 19.708-4.42 6.355-5.276-2.047-6.572-1.176-12.216.996-6.454-10.497-1.737-10.494-1.98.024-1.752 2.148-2.875 1.6-4.908-.554-2.054-6.818-4.88-8.45-5.837-4.235-2.48-5.6-.893-9.8-.97-3.005-.057-4.855-2.786-7.578-3.54-5.526-1.53-2.503 9.714-8.47 3.36-6.24-6.648-4.04-2.55-5.444 2.274-.71 2.44-4.87-4.34-5.4-4.504-.972-.302-.767 6.13-1.686 6.722-.802.51-.99-5.115-2.617-4.596-.75.246-1.59 3.402-2.1 4.23-3.638 5.937-6.078-.145-8.473-3.122-2.11-2.618-5.684 7.468-4.292 9.34.667.897-10.966-2.096-9.77-3.99-2.394 3.79-4.564 1.073-8.54.44-9.52-1.514.35 4.82.06 4.216 2.756 5.728-10.056-.448 3.405 3.115-1.507 1.49-4.74 5.142-6.973 5.267 3.97-.187 9.2 2.53 13.176 3.318-1.823 3.7 1.908 2.094 3.823 3.935-2.175.02-12.32.988-11.7 4.545 1.058 6.067 13.41-1.502 14.127 2.888-4.943 2.677 3.172 2.75 4.633 2.6 2.31-.24 8.482-5.54 9.755-4.422l-.5 2.895c2.368-.013 3.8 1.098 4.295 3.332-.338 1.523-13.876 2.644-15.956 2.297-1.99-.332-7.186-2.004-7.79 1.044-.144.728-.323 7.22-1.86 6.78-3.58-1.037-6.033-19.31-12.263-9-2.365 3.913-1.393 12.83-2.705 17.44-1.245 4.372 7.604 5.802 7.36 6.045 1.63-1.196-13.573-2.058-14.525-2.153-8.73-.874-13.35 16.313-.423 8.28-.966 3.835-4.602 4.738-3.36 8.875.434 1.442 4.61 6.002.51 5.757-3.637-.218-9.154-12.34-10.36-8.704-1.958 5.91 1.41 9.39-5.998 9.553-6.575.148-8.232 6.66-9.02 6.93 3.713-1.305-.107.038 0 0z"/><path fill="none" stroke="#1D2F49" stroke-miterlimit="10" d="M141.943-.405c-.6.362 1.742-.99 0 0-.03.018-.036.02 0 0zM135.293-51.6c.595-1.078-1.518.315-1.453.233.245-.213 1.93-1.068 1.453-.234.595-1.078.065-.114 0 0zM139.493-47.182c1.814.093-1.87-.148-1.633-.028 9.994.162.3-.05 1.633.028 1.815.093-.544-.032 0 0zM160.926-45.34c-.193.3-.855.767 0 0 0 0-.185.166 0 0z"/><path fill="none" stroke="#1D2F49" stroke-miterlimit="10" d="M159.793-44.61c0 .063-1.34.015-1.833.173 6.76-1.613.7-.113 1.833-.173 0 .063-.525.028 0 0zM157.842-44.393c-.007.003-.01.008-.017.01.006-.002.01-.007.017-.01zM157.873-43.727c-1.235-1.097.72.634 0 0-.264-.233.058.054 0 0zM110.665-6.457c1.047-.12-.987.13 0 0 .328-.038-.1.013 0 0zM127.475 160.197c.363 2.648 1.834 4.32 4.414 5.02 1.278-5.645 13.813-9.996 12.773-15.967.27 1.552-9.453-4.47-10.448-6.6-1.958-4.19-6.962-8.467-10.556-12.154-2.518-2.583-.356-9.36 3.6-7.98 7.217 2.52-1.708-5.44-1.727-5.385.574-1.63 4.924-.872 4.714-3.524-.005-.067-8.816-1.33-9.865.245-.95-2.187 12.22-8.08 5.33-9.033-1.547-.214-11.034-.993-11.393-2.998-.2-1.108 9.682-5.69 5.178-7.49-2.768-1.11-4.51 2.495-6.68 1.983-3.82-.9-1.38-.436-2.02.417-6.182-6.065-.408-3.22-1.286-9.402-.622-4.377-2.58-9.89-8.398-11.015-4.28-.828.895 6.286-3.898 5.752-2.37-.264-3.853-2.268-5.882-2.544-1.848-.25-4.09 2.32-5.67 1.747-4.348-1.58 18.262-31.044-8.938-17.305-2.92 1.474-7.27 4.16-6.44 8.133 4.132 4.204-1.65 2.676-3.535 5.765-1.566 2.563.683 6.556.27 9.36-.39 2.653-4.56 5.3-3.905.735 1.264-8.803-.567-16.142 6.118-23.93 2.108-2.457 9.522-5.48 6.666-8.484-2.123-2.23-5.38-1.195-7.712.01-5.654 2.92-11.022 8.107-15.112 12.97-2.792 3.32-6.297 8.092-6.813 12.565-.5 4.342 7.613 2.93 8.326 6.335.576 2.758-15.913-2.4-8.078 6.537 2.595 2.96 5.77 2.44 8.33 5.504 1.976 2.37 13.464 6.134 16.49 5.44-.88-.512-1.122-1.22-.725-2.125.004 0 7.808 2.538 8.755 3.14 6.94 4.4 2.243-5.373 5.345-7.656 1.415-1.047 6.186 13.802 7.063 15.7 1.3 2.818-.29 3.606.28 6.145 2.824-.14 5.268 1.17 6.936 3.402 2.905 3.89 5.062 12.39 2.098 16.75-2.127 3.128-13.307 7.947-12.822 11.895.537 4.368-1.148 6.593-7.488 5.647-3.885-.58-6.003-3.17-9.32-.256-1.304 1.146-4.544 3.835-2.9 6.023 2.003 2.667 11.124 2.662 13.6 1.05 5.003-3.245 7.56 5.697 10.013 8.134 2.68 2.66-1.417 3.985.808 6.334 3.095 3.27 6.8 5.958 10.594 8.352 13.612 8.592 6.42-1.666 2.777-9.036-4.656-9.423 9.77 3.976 11.27 4.707 5.537 2.694 6.193-5.995 4.748-9.06-3.194-6.778-9.22-13.87-8.45-21.836a19.62 19.62 0 0 0 3.532 2.136c1.298-.342.98-5.243 3.347-5.37 4.112-.225 6.346 8.58 6.68 11.22.353 2.762-.106-.84 0 0 .334 2.603-.196-1.552 0 0zm-32.187 4.028a15.508 15.508 0 0 1 3.092-4.772c-1.972.923-5.035 5.98-1.026 6.547-2.33-.323-1.646-2.464-2.066-1.775.624-1.025-.294.483 0 0zM97.355 166c.012 0 .02.002.01 0 .01.003 0 .002-.01 0zm-.074-.013c.69 0 2.814.28 3.623-.124-.81.406-2.932.124-3.622.124zm15.48-14.47c.047-.974-.076 2.105 0 0 .003-.056-.02.524 0 0zm4.42-44.36c-2.283.05-.408-2.293.484-2.47-3.115.684-1.45 2.49-.485 2.47-2.193.048.18-.005 0 0zm3.594 6.933c.73.163.875.505 0 0 .003 0 .045.026 0 0zM-18.44 90.15c1.9 1.05 3.435.6 4.606-1.35 1.218 1.184 6.08 3.955 6.715.35.488-2.768-4.074-9.207-5.402-11.706-5.048-9.496 5.226-18.333 4.718-28.69-.146-2.99-3.768-9.906-7.372-5.71-2.966 3.452-4.198 8.897-5.29 13.2-.403 1.59-2.5 8.776-5.593 6.982-3.11-1.804 4.99-14.08 1.418-18.388-.45 1.163-.967 5.633-3.01 5.37-1.212-.156-7.895-.096-8.183-1.564-.333-1.596 3.024-2.162 3.765-2.98 2.042-2.26-3.87-7.316-6.693-3.765-6.593 8.312-.874-8.455-.697-7.022-.552-4.464-24.938 10.034-27.132 11.99-5.146 4.582 9.98 6.543 10.34 8.4.39 2.063-10.933 1.997-12.427 2.564-9.25 3.515 7.35 7.77 9.443 7.947 2.766.234 12.505 5.025 10.532 9.1-2.23 4.605-19.386-8.477-24.05-2.66-6.544 8.167 5.772 9.064 8.188 12.7 1.302 1.96-.665 4.776-.497 6.875.34 4.257 8.308 3.347 10.75 3.278 7.43-.208 14.032-2.838 21.182-4.306 1.33-.273 6.446-1.7 7.384.193 1.52 3.07-6.03.827-6.798 1.235-.37.21 11.163 7.315 14.168 6.662 4.76-1.026-2.252-9.944-.062-8.708 1.593 1.125-.453-.257 0 0zm-35.257-2.25c.01.072.02.145.033.214-.015-.07-.024-.142-.033-.214zm.035.226c.078.386.212.744.44 1.042-.228-.298-.362-.656-.44-1.042zm1.682 1.75zm-.765-3.4c-.78-.543-1.116-.268-1.01.827 1.283.486.37-1.57.426-1.892a50.693 50.693 0 0 1 2.11 3.928c-8.087-15.18-.116-.38-1.525-2.86-.647-.617.533.938 0 0zm10.874-1.902c.423.332.423.332 0 0 .07.055.07.055 0 0zm.54-.896c.264.176.468.447.694.683-.23-.236-.433-.507-.695-.682zm1.778-2.328c.15.458.15.46 0 0zm3.038 4.208c-.65-.78 1.726 1.926 0 0-.025-.032.216.24 0 0zm1.304-4.287c.473-.416.957-.343 1.452.22-.483-.072-.968-.146-1.452-.22.473-.416-.08.175 0 0zm.927.675c-.13.022-.264.03-.396.047.134-.018.267-.025.397-.047zm1.592-8.606c.388.192.045.022 0 0zm-.024.393c.367-.16.792-.345 0 0zm5.694 13.64c-2.976.625 2.89-.654 0 0-.376.08.285-.064 0 0zm4.585-15.538c-.267 1.275 1.072-3.862-.547-2.242.264-.74.468 2.604.547 2.242-.267 1.275.17-.78 0 0zM608.46 100.05c-6.74 3.09 4.5 6.542 6.975 7.167 3.115.787 2.275 3.41 4.157 5.533 1.986 2.238 7.966 2.224 10.642 1.842 7.397-1.055-5.55-9.402-6.99-12.554-.616-1.348-5.37-17.213-4.39-18.652 1.596-2.32 4.522 1.48 4.284-3.558-.172-3.646.127-4.113 1.286-7.722 1.908-5.937 4.52-9.044 7.335-14.728 3.006-6.074 9.078-11.922 15.085-15.023 4.432-2.293 6.312-13.938-.857-12.757-4.984.822-6.69 8.714-10.366 11.517-5.33 4.067-10.394 2.442-15.143 8.88-2.43 3.293-6.287 9.205-7.446 13.133-.74 2.513 2.384 3.608 1.367 6.667-.94 2.837-5.212 6.445-4.06 9.717.263.778 3.4-1.034 4.23-.484-4.454 5.334-2.95 19.57-6.11 21.023-8.286 3.798 1.26-.58 0 0zM-87.808 47.35c-.272 3.212 7.418 2.256 9.91 2.257 2.85 0 9.505-7.713 12.822-9.265 5.298-2.48 33.762-10.178 22.102-21.204-2.6-2.458-3.255.85-5.292-.138-1.85-.895-2.882-3.344-4.717-4.48-3.285-2.03-13.707-6.314-15.413-.168-1.745 6.244-6.72 10.438-10.9 15.292-1.907 2.216-4.65 3.328-6.798 5.24-4.243 3.775-1.334 7.75-1.714 12.467.054-.663.214-2.654 0 0-.5 5.912.25-3.114 0 0zM115.3-36.568c.16-.474-.05-.21 0 0 .033-.1 0 0 0 0zM961.1 603.107c-3.12-5.258-14.178-8.59-12.793-15.937.585-3.11-10.936-10.783-14.005-13.612-3.57-3.292-22.79-23.18-28.156-17.285-.77.84 21.9 28.138 23.922 31.062 6.018 8.708 9.096 17.734 17.983 24.333 3.882 2.88 6.73 4.415 11.647 3.184.738-1.234 2.464-12.932.61-12.758-.326.03.646 2.45.794 1.013-2.68-4.516-.2 1.954 0 0zM379.6 250.82c2.058 1.62 3.94 11.85 5.09 11.714 4.87-.57 9.59 10.808 5.063 12.723-1.976.836-6.883 8.04-5.97 10.257 1.193 2.893 6.804 1.984 7.864 4.462-.332-.774-7.81 3.074-8.166 5.173-.404 2.38 12.694-1.404 14.06-1.552 7.534-.815 11.975.588 11.813-7.3 6.17-9.718-2.89-4.616-3.585-9.98-.82-6.32-7.278-12.884-11.48-17.353-5.382-5.728-2.672-5.27-.827-11.988 1.41-5.133-9.642-1.168-6.76-5.503 6.03-9.07-15.993 2.375-7.1 9.347 1.034.814-.31-.242 0 0zM74.088 16.528c-5.51-7.997-8.027-2.23-7.79 5.137.134 4.01-9.505 11.617-5.95 15.65.68.77 5.25 2.962 6.43 2.998 7.574.23.49 2.07 5.577 4.322 2.983 1.32 6.333.518 9.418 1.214 2.6 1.486 9.924-.918 9.44-1.315 2.242 1.828-.117 5.668 4.333 5.067 1.75 0 4.968-2.4 6.472-3.226 5.066-2.78 6.85-9.83-.305-12.362-9.684-3.43-19.443 1.678-27.973-6.375-9.21-8.695 3-8.756 3.273-7.684-8.49-14.974-1.315-1.096-2.925-3.428-1.938-2.813.86 1.248 0 0zM441.6 19.848c2.803.176 3.814 9.938 4.898 11.966 4.552 8.506 6.012-5.155 8.877-5.194.927-.013.58 2.655 1.693 3.055 1.606-.955 5.778-2.052 3.354 1.336-.892 1.248-9.447 7.502-8.868 8.684 1.536 3.133 8.48-3.66 9.695-.344 1.77 4.82-10.01 2.33-6.538 7.404 2 2.926 6.846 13.437 9.3 7.245 1.042-2.624 9.26-30.02 10.377-28.305-1.458-1.174-12.798-10.72-12.432-8.76-.776-3.327-.563-7.466-5.19-7.466-.987 2.316 2.188 13.036.607 14.006-2.308 1.353-3.474-6.12-3.828-7.188-1.857-5.608-4.804 2.477-6.017.45-1.824-3.045.527-8.054-5.593-2.846-3.064 2.608-3.447 5.77-.336 5.956 3.43.215-1.612-.096 0 0zM324.79 193.233c6.062-3.382 16.015-5.53 19.272-12.367 1.648-3.46-1.773-8.7-4.303-10.948-4.63-4.113-9.39 2.95-12.785 3.186-3.446-4.274-4.15 1.42-7.782-2.087-.252 4.428-5.23 9.517-5.798 1.695-.566-7.775-7.23.218-7.653-1.402.51 1.962 7.3 3.762 6.132 5.34-1.8 2.434-5.337 2.25-7.48 3.982 9.573 2.65 1.984 6.817 3.588 8.98 2.6 3.485 17.15 3.43 16.807 3.62 5.546-3.093-1.014.57 0 0z"/><path fill="none" stroke="#1D2F49" stroke-miterlimit="10" d="M305.625 173.43c-.635-.072.152.017 0 0zM23.33 52.735c17.512-9.26-4.495-12-5.807-9.79-.87 1.47 3.096 1.915-.375 3.297-3.436 1.368-.763 2.115-.822 4.594-.276 11.61-5.668.71-7.642.122-8.545-2.55-.76 13.687.028 15.473.817 1.85.698 7.69 2.213 8.51 1.558.843 4.34-4.228 3.93-4.502 4.742 3.18 14.085-5.37 12.59-10.267-.707-2.317-5.625-6.637-4.115-7.435 1.848-.977-.76.402 0 0zM39.042 60.862c6.473.12 4.498 3.68 10.863-2.203 1.644-1.52 9.14-6.244 6.833-9.178-2.513-3.192-11.563-7.72-15.354-4.586-5.064 4.187-9.987 14.922-10.368 21.304-.456 7.654 7.386-5.35 8.026-5.338 2.685.05-1.21-.022 0 0zM360.878 267.758c-.417 3.158-.626 4.874 1.393 7.503-.347 2.558-5.273 7.48-2.668 10.028 3.973 3.9 15.21-2.682 16.53-7.03 1.226-4.038 2.38-11.313.7-15.31-2.215-5.26-13.087 4.627-15.954 4.81-.194 1.46 1.216-.078 0 0-.51 3.865 1.27-.08 0 0zM466.856 11.608c1.917.062 6.786-2.516 8.306-.368-.39 1.936-1.536 3.213-3.437 3.83 7.555 6.984 19.458 3.452 20.29-7.47.468-6.123-11.776-1.95-14.306-6.16-1.2 13.122-6.374-4.243-10.834 1.276-1.626 2.013-4.825 8.73-.02 8.892 2.092.068-1.03-.035 0 0zM46.546 167.066c.492 2.99 4.66 4.08 6.602 1.808.008-.01-4.997-10.36-5.69-11.277-.1-.132-11.25-11.17-9.68-11.217-2.138.064-13.202 24.578-5.872 24.4 4.874-.117 13.237-12.253 14.64-3.714.514 3.125-.192-1.17 0 0zM1001.128 631.516c4.158 1.856-4.926-4.925-4.614-4.69-4.538-3.396-6.602-5.663-12.613-4.085-2.53.665-23.1-6.204-22.534-2.237 1.522 10.65 35.592 9.126 39.762 11.013 2.13.95-2.05-.928 0 0zM27.55 15.672c.89.18 9.67 1.81 9.506 2.237-.667 1.807-12.44 6.386-3.983 8.47 5.73 1.41 13.914-10.46 15.865-15.83.866-2.384-6.57-7.056-7.007-6.736-2.728 1.995-1.857 8.745-4.25 10.09-1.376.785-2.343-6.142-3.217-6.623-.856-.47-6.114 10.64-5.486 8.338-.436-.633-.912-.615-1.428.054.354.07.394-1.447 0 0zM94.842 73.543c11.835 5.495 17.057-5.425 5.77-10.26-8.18-3.504-9.692 8.455-5.77 10.26 2.912 1.352-1.226-.564 0 0zM3.626 109.077c5.854 2.875 6.02-5.482 5.113-8.958-2.02-7.728-9.582-3.832-12.98 1.497 2.045 2.232 7.053 7.062 7.866 7.46 6.667 3.274-1.595-.782 0 0zM59.8 12.866c5.385 4.71 11.043-2.002 6.225-5.994-6.92-5.715-11.84 1.118-6.225 5.994 5.385 4.71-.46-.4 0 0zM49.996 35.958c3.08 1.49 6.988-10.43 1.402-11.483-8.406-1.584-6.965 8.81-1.402 11.483-.444-.216-2.014-.967 0 0 3.08 1.49-2.17-1.042 0 0zM477.678 42.992c.037-.604 9.817 2.51 9.606-3.56-1.352-.67-4.634-6.298-6.094-5.762-4.917 1.818-3.263 5.157-3.512 9.322.06-.98.304-5.072 0 0zM-5.74 46.234c.43 1.914 13.338-5.327 5.024-8.593-8.692-3.414-5.35 7.137-5.025 8.594.554 2.47-.422-1.892 0 0zM86.07 135.72c3.54-1.206 7.724-11.08 2.193-9.218-2.57.857-6.383 5.757-5.42 8.633.72 2.142 6.475-.52 3.227.586 3.54-1.206-.595.204 0 0zM122.625-44.373c14.374-8.936-12.64-4.98 0 0 1.344-.836-1.99-.784 0 0zM42.6 176.607c-1.66-.198-7.85.552-6.125 3.745 2.014 3.726 8.014-3.553 6.125-3.745-1.66-.198.178.018 0 0zM50.746 187.08c1.536.522 3.174-3.263 3.007-4.306-.287-2.078-6.653 3.082-3.007 4.305 1.536.522-.177-.06 0 0zM479.222 30.745c1.205-3.86-5.216-2.122-3.657.502 1.136 1.905 3.017 1.51 3.657-.502 1.205-3.86-.18.562 0 0zM28.583 6.585c-.26-.23-3.153-1.64-3.225-.032-.133 2.7 4.075.78 3.225.032-.26-.23.365.32 0 0zM151.267-9.188c-.54-1.244-1.34-1.575-2.407-.992-1.91 1.78 2.806 3.164 2.407.992-.54-1.244.11.6 0 0zM117.523-39.707c.403-2.682-2.02 2.334-2.145 2.838 3.123-1.79 2.104-2.577 2.145-2.837.403-2.682-.21 1.344 0 0zM17.1 18.563c.233-2.79-3.605.43-1.724 1.192 1.615.33 1.727-1.213 1.725-1.192.233-2.79-.083.97 0 0z"/><path fill="#1D2F49" d="M735.777 877.22c-1.604.723-.918 2.09.635 1.663.686-.858.473-1.412-.635-1.664-.363.16.34.208 0 0zM1007.808 630.105c-1.24 1.57.564 2.01 1.273.932-.066-.717-.492-1.027-1.272-.932-.236.3.694-.134 0 0z"/><path fill="none" stroke="#1D2F49" stroke-miterlimit="10" d="M960.756 596.414c-1.497-.326-.773 1.805 1.465 2.23.024-2.312-1.418-2.22-1.464-2.23-1.497-.326 1.26.244 0 0zM962.22 598.645c.147.53.38.072 0 0 .018.058.064.013 0 0zM972.206 601.82c-.273-1.21-.732-1.302-1.38-.283 1.273 2.19 1.504-.158 1.38.283-.273-1.21-.046.164 0 0zM28.773 42.068c.24 0-1.245-1.645-1.66-.08 8.2.404.16.064 1.66.08.24 0-.555-.006 0 0zM924.038 592.996c-.378.283.718-.63 0 0-.038.03.45-.394 0 0zM963.757 600.654c-.022-.775-.455-1.334-1.3-1.668-.21 1.092.795 2.227 1.3 1.668-.022-.775-.34.375 0 0z"/><path fill="#1D2F49" d="M1013.854 631.97c-1.614.74 1.54-.716 0 0-.154.07.48-.224 0 0z"/><path fill="none" stroke="#1D2F49" stroke-miterlimit="10" d="M110.5-15.945c1.9.546-1.65-.52 0 0 .168.047-.157-.05 0 0zM78.206 13.02c-.376 1.105 1.08.557 0 0-.054.162.158.08 0 0zM104.627 45.83c-.398-1.92.068.334 0 0-.15-.73.006.03 0 0zM146.39-14.73c1 .83-2.334-2 0 0 .06.05-.26-.22 0 0zM304.563 174.07c1.566-1.197-.264-.594 0 0 .242-.185-.057-.126 0 0zM945.45 581.22c-.222-.702-.964.243 0 0-.043-.132-.17.042 0 0zM311.65 132.247c1.91-1.53-25.706-.776-15.536-4.438a64.86 64.86 0 0 1-7.932-1.57c1.97-1.566 2.985-5.05 5.428-5.99 1.262-.486 9.52.913 8.613-2.646-.642-2.522-11.524-4.014-7.03-7.74 1.18-.968 9.907 6.205 10.93 7.323 6.04 6.602 2.23 7.877 10.516 8.69 3.07-.808-.692-10.884-1.26-12.5-1.958-5.586-8.452-4.595-10.65-8.99-.467-.923 2.84-.93 2.146-2.382-1.233-2.564-4.57.688-5.743-1.747-1.142-2.387 5.677-.25 4.89-3.136-.985-3.556-5.906 1.286-7.242-.83-.145-.232 1.543-3.64 1.91-4.113 5.874 3.798 5.725-2.174 10.185-3.39 5.1-1.393 3.117 9.32 9.364 5.488 8.785-5.382 1.42-2.418-.646-7.555-3.543-8.807 9.17-3.18 10.492-3.403-2.728.458-3.48-8.983-3.153-9.9 1.015-2.852 4.536 1.42 4.633-3.152.092-4.314-1.187-5.21-4.672-6.89.762-1.098 1.92-1.644 3.477-1.64-2.13-1.612-11-5.27-4.485-7.967 2.787-1.15 3.8-4.45 7.224-2.098.86.588 4.468 3.427 4.84.76 1.018-7.306-4.666-2.866-5.978-8.478-.56-2.4 2.178-3.64-.144-5.812-3.67-3.44 1.24-2.86 2.342-3.828 3.09-2.712 3.866-9.66 4.935-13.382 1.11-3.864 6.277-9.362 6.19-12.9-.067-2.81-9.786 4.316-8.14-1.41 1.43-4.976 14.315-2.89 13.988-4.056-.836-2.986-7.137-2.074-8.137-4.43 3.205-1.08 10.43 1.136 12.604-2.085 2.41-3.568 2.162-4.265 6.69-5.68 9.572-2.992-2.4-13.84-9.86-10.388-6.04 2.793-10.528 3.59-16.028 7.227-1.868 1.235-14.903 11.122-16.974 9.612-.776-.585 17.292-15.66 17.786-19.694.958-7.83-7.844 2.388-10.116 2.75-13.167 2.107-1.99-3.164-2.1-5.7-.062-1.428-3.742-2.063-4.746-2.326-3.58-.94-8.644-.245-12.688 1.028a107.454 107.454 0 0 1-8.096 3.223c-2.288.494-1.23-3.4-.162-3.913 9.524-4.537 17.81-3.052 27.78-3.985 2.374-.223 16.51-1.146 15.573-5.475-.9-4.142-16.712-5.616-16.652-6.904.066-1.387 5.237-2.8 4.428-4.917-.758-1.983-21.93-.265-24.65-.233-1.49.018-16.434 3.1-8.283-1.107 4.66-2.405 7.22-3.642 11.744-2.648 1.584.348 16.8 1.8 16.86-.386.084-2.985-15.746-8.087-18.675-8.57-2.476-.406-11.813-1.906-13.225 1.155-.75 1.63-1.09 4.917-3.675 4.774-3.814-.155.38 3.562-1.347 4.322.093-.04-21.788-9.93-15.286-.193.225.34 10.214 12.782 6.222 13.52-3.563.632-3.275-6.75-4.494-8.587-1.057-1.603-9.495-.063-11.077.964-2.86 1.857.23 18.7 2.994 19.47-5.448-1.57-9.445-.71-10.086-7.73-.25-2.75-.336-11.947-5.06-11.17-4.402.723-1.38 10.614-2.985 13.436-2.38 4.188-7.643-3.585-9.506-4.418-.613.754-4.24 6.977-5.57 5.804-2.477-2.137 10.943-19.562.313-15.176-4.48 1.848-7.378 1.577-12.173 1.466-6.23-.144-.96 8.942-4.202 10.207-2.336.91-1.91-14.978-6.658-2.986-1.028 2.597-1.277 3.108-2.96 5.375-3.376 4.544-6.575-.48-8.91 2.55.8-1.027-7.015 3.025-6.222 2.47-3.135 2.194-8.072 3.705-10.028 7.277-2.346 4.283 9.125 2.11 9.514 3.627.687 2.742-5.985 8.776-7.63 10.6-4.42 4.9-11.387 4.468-17.445 4.743-3.113.14-17.87 1.394-16.238 7.467.326 1.21 6.757 11.61 6.694 11.625 2.387-.583 8.412-1.298 9.986 1.26 3.54 5.756-9.282-2.588-5.517 4.7-6.65 1.4-18.16-4.32-8.12 5.92 3.317 3.384-6.047 7.05-.13 10.317 2.813 1.552 3.354-.416 5.112-1.66 1.68-1.19 9.02 1.53 11.35 1.316 5.94-.55 9.33 4.04 13.693 6.947 6.818 4.546.324 7.513 3.774 12.985 1.582 2.514 6.09 36.405.71 36.405 1.575 2.735-7.004 7.293-1.533 7.624 3.132.19 3.82-5.622 6.97-3.433 4.31 2.995 5.694 19.362 3.015 17.313-2.745-2.1-6.512-5.698-10.134-5.945-5.276-.36 7.252 8.79 9.652 9.38 12.608 3.098-8.487 16.72-8.56 16.288.146 1.02 13.91 9.676.492 8.083-9.897-1.176-6.556 6.082-6.61 12.857 0-.28 7.88-3.022 6.224-4.543-.152-.152-6.615 6.377-7.055 7.002-4.01 5.7 4.604 1.26 5.102 2.743.076.232-4.832 6.533-5.203 7.62-1.994 5.85 6.17.342 7.26 2.528.916 1.837-3.858 5.745-4.823 6.98-.795 1.016 4.228 12.374 4.652 14.45.697 3.405-.8 8.69 3.14 10.404 4.173 1.816 8.935-.458 13.03 1.082-3.006 6.237 3.842 11.016 7.302 4.04 1.51-3.045 2.784-6.964 5.26-9.37 2.965-2.877-1.936-6.74 2.608-8.97.446-.217 6.89-7.697 6.87-7.61 2.26-10.735 1.51-10.2 11.223-15.43 3.064-1.648 3.39-3.342 5.775-5.624 1.068-1.02 3.316 2.675 5.123 2.558 8.396-.563 13.44-8.66 17.908-14.762 6.167-8.42 5.935-3.027 14.87-5.545 12.044-3.398 19.83-6.298 29.83-14.223-.38.306-1.767 1.4 0 0 2.075-1.66-1.88 1.49 0 0zM1203.723 29.464c-.607-.093-7.415-12.342-7.54-12.023 2.64-6.773 5.356-11.23-2.88-16.122-4.16-2.47-12.185-2.302-14.486 2.887-1.116 2.516 8.322 8.022 5.854 9.72-2.733 1.878-8.76-4.966-10.104-6.536-4.188-4.893-12.057-5.795-18.548-6.137-16.342-.86-29.185-7.515-45.75-3.187-3.19.833-15.937.545-14.338 5.363 1.42 4.274 16.176 10.785 7.86 15.874-5.156 3.186-12.39-6.845-15.553-9.164-2.384-1.747-2.67 3.864-5.076 4.637-3.51 1.13-7.708 1.058-11.335 1.848-6.198 1.35-5.08 3.793-7.262 8.413-1.018 2.154-8.837-1.096-12.132-1.55-4.732-.65-5.27-13.394-13.705-13.836-6.603-.346-12.932 3.968-18.546 6.855-5.656 2.91-6.764 2.917-11.8-.45-4.313-2.883-13.2.57-15.54-4.683-2.21-4.958-1.756-8.208-8.803-6.563-3.467.81-6.278 14.456-8.115 12.338-1.273-1.468 2.066-4.643-.567-5.668-2.172-.845-3.767 2.213-5.465 1.733-1.668-.47 1.764-5.26 1.86-5.733-5.564 0-16.11-2.33-20.816 1.4 7.906 3.382-4.05 6.337-.732 8.545 1.257.836 2.916-1.304 3.945-.53 1.48 1.11.366 3.592 1.28 4.914 1.04 1.517 2.216 3.195 2.674 5.006.92 3.633-3.724.285-4.8 1.03-1.188.824 1.443 5.032 1.1 6.343-.394 1.507-8.42-3.233-10.58-2.635-4.985 1.38-5.748 4.98-11.505 3.628-5.496-1.292-3.27 2.45-2.242 6.15 4.49 16.175-23.247-4.558-22.618-6.21.027-.07 7.716-3.877 3.33-4.89-6.896-1.59-8.357-12.013-16.907-10.728-5.42.815-3.388 1.238-8.49.342-2.177-.382-6.55-.58-6.118 2.9.7 5.65 2.658 8.435-4.772 10.25-12.482 3.052-17.217-9.682-29.132-2.874-1.988 1.136-2.46 3.47-4.002 5.032-1.712 1.727-2.536-4.604-5.225-2.47-3.53 2.795-5.258.218-8.383-1.023-4.077-1.62-4.802 3.132-3.884 3.07a7.355 7.355 0 0 1 3.103-.913c2.055 2.916-4 8.463-5.793 10.022-1.295 1.125-3.63 1.28-4.678 2.527-1.337 1.59 2.242 5.197-1.89 5.512-.708.065 3.37-22.34 4.08-24.565 1.613-5.05 4.642-9.186 4.978-14.728.134-2.208-5.022-10.18-6.376-9.313 1.453-.93 4.983-2.127.275-3.436-4.448-1.235-4.17-1.443-7.718-4.396-7.305-6.08-13.53-1.706-17.105 4.81-4.818 8.773-5.287-3.787-5.852-5.858-.648-2.382-11.823-.12-11.82-.13 2.294-8.525-7.883-11.6-9.637-3.148-.636 3.065-.773 8.018.546 10.98 1.42 3.187 6.73 3.345 7.72 6.376.357 1.076-8.504 2.184-9.402 2.52-.134 3.314 6.778 1.874 4.992 6.518-.267.69-4.26-2.403-4.726-2.485-1.68-.296-3.786 3.057-4.646 3.922-5.76 5.796-6.684-1.956-13.577 1.374-1.343.65.73 2.668.885 3.46.307 1.584-5.98 4.912-6.9 5.52-6.695 4.412-7.005 12.74-12.793 16.66 2.175 1.247 11.08 7.335 10.732 10.02-.075.582-1.926 6.784-2.03 6.795-4.575.545-.375-4.534-1.933-5.292-2.83-1.41-8.82 2.317-11.253 3.42-8.205 3.718-10.296 6.012-3.454 13.766 2.556 2.896 6.206 4.344 9.524 6.127 5.493 2.953 6.44 6.664 9.456 11.7 1.264 2.11 3.237 9.82 4.43 10.69.78.57 7.066 4.53 6.437 5.66-.687 1.234-6.84-2.528-7.365-2.837-4.564-2.683-1.246-4.922-3.903-7.864-1.703-1.897-1.702 2.63-3.25 1.634-6.183-3.942 3.407-13.193-6.214-13.508-.798-.026-22.04-7.663-17.835-2.706 6.98 8.23-9.627 1.596-6.077 6.193 1.032 1.336 12.75 7.862 12.55 7.972-9.04 4.895-16.64-5.837-18.462-12.406-4.9 1.5-3.224 9.287-1.51 12.495 3.577 6.696 5.84 14.96 9.85 21.347 1.45 2.314 4.307-.1 5.648-.973 2.98-1.938 6.875-.063 9.67 1.43 1.007.54 9.646 14.366 10.074 13.23-2.3 6.385-7.51-3.498-8.687-5.68-2.11-3.907-13.17-7.485-10.946-.016 1.05 3.526 3.785 4.817 3.195 8.982-.674 4.738-3.767 8.62-4.767 13.238-1.406 6.493-14.312.062-17.382-1.664 3.273-4.588 8.193 2.47 11.873-1.34 3.556-3.682 1.64-10.708 1.34-15.166-.397-5.842-4.934-6.734-6.855-12.058-2.558-7.084-3.567-14.036-9.063-19.48-4.64-4.597-1.494-11.117-3.915-16.527-2.644-5.937-10.618-3.628-12.72 1.455-1.246 3.015-.046 6.648-.142 9.772-.113 3.682-3.034 6.32-3.096 9.824-.033 1.907 4.42 13.83 5.8 15.235 2.345 2.388 6.135 1.958 8.626 5.166.658.847 5.09 7.92 1.376 7.738-1.49-.074-40.617-18.524-35.627-7.625 1.447 3.16 4.778 5.078 3.104 8.872-2.68 6.08-6.43-1.267-9.94-.2-4.036 1.226-9.637 1.853-12.637 5.104-6.02 6.523-4.882-1.146-6.578-2.48-3.808-3.12-17.566 12.216-19.953 13.236-3.81 1.62-.396 8.002-6.77 7.345-3.896-.4-8.998-4.064-5.918-8.438 4.185-5.943-5.466-11.98-5.116-1.334.168 5.132 3.415 9.515 3.307 14.658-.14 5.662-7.185.006-9.957 1.63-2.197 1.286-7.565 6.533-7.114 9.515.252 1.665 5.45 8.824-.404 8.444-3.504-.227-7.188-2.782-10.05-4.637-5.745-1.752.446 5.362 2.913 6.262 4.552 1.67-1.197 5.78-4.76 4.44-4.445-1.67-7.888-3.62-8.934-8.426-.644-2.954-1.632-9.96-4.953-11.305-2.427-.982-9.42-4-8.2-7.683.093-.268 19.078 5.337 20.702 5.746 9.47 2.387 20.667-5.53 11.726-14.828-5.924-6.16-18.334-14.104-26.946-14.405-4.56-.16-6.376 3.228-10.88-.635-3.354-2.874-11.605.69-13.454-5.377 2.332-1.845 6.213.28 6.78-3.804.255.17-18.593-2.186-12.398-5.554-.706.384-5.284 5.6-5.14 5.753-4.09-4.39-2.287 3.42-5.848 3.833-.208.023.537-7.35-1.325-7.3-2.25.058-5.55 6.942-6.134 8.55-2.414.93-3.915-2.53-6.5-1.214 1.873 3.864-2.302 7.91-6.13 7.112-2.118-.442-1.636 2.252-3.484 3.32-5.98 3.457-8.337 8.577-12.453 14.018-3.63 4.8-7.568 11.65-8.788 17.395-.783 3.69-11.68 21.145-12.482 20.74 1.083.547 4.478-1.82 4.752-1.562 3.567 3.057-10.89 5.15-10.54 9.11-4.557 2.994-13.28 7.36-13.922 13.377.857.175 9.647-.974 9.246.592-.402 1.496-13.712 2.09-8.022 5.36 6.74 3.878-1.884 6.645-.5 8.422 1.445 1.907 6.567 3.35 2.133 5.81-3.382 1.878 4.853 4.537 5.745 4.744 3.83.888 5.597-.866 7.808-3.932 1.307-1.813 6.303-7.962 7.848-8.885-1.523.92 10.662 27.762 11.862 30.58 1.707 4.005 8.73-1.396 11.516-3 7.618-4.38 1.903-16.946 9.302-22.892a22.374 22.374 0 0 0-8.04-2.077c3.224-3.515 17.747-1.38 5.796-9.59-9.49-6.522-.196-20.152 6.046-25.122 7.298-5.81 3.164-16.282 10.18-20.602 6.754-4.16 16.6.81 11.762 8.766-3.544 5.83-9.158 10.02-12.856 15.686-2.776 4.253-.08 16.476 3.75 19.542 7.725 6.184 11.822 4.286 20.63 1.03 5.55-2.05 21.116-.76 11.066 6.364-5.027 3.563-21.634-.283-22.682 6.4.027-.17 9.616 21.805-.494 14.09-11.52-8.788-4.218 14.76-11.155 19.19-2.665 1.702-6.085 3.766-8.786 1.04-3.543-3.573-7.45-.3-11.018 1.766-2.615 1.513-4.834 4.168-7.897 4.837-3.452.753-6.73-3.49-11.327-2.415-22.025 5.157-1.534-24.102-10.294-25.68-.248-.044-4.075 7.385-4.778 8.186-4.417 5.03.4 10.412 1.226 15.72 1.458 9.36-14.287 6.13-19.047 10.94-3.598 3.637-1.583 8.92-6.612 11.528-3.57 1.853-6.657 8.437-10.05 8.918-4.943.698-3.26 4.344-9.174 2.328-3.028-1.032.024 5.986-6.623 5.566-17.382-1.1-1.718 5.582 1.566 10.34 3.82 5.538 8.91 13.772 4.584 20.562-7.263 11.404-41.005-10.745-36.767 12.38.797 4.348.813 8.31-.697 12.58-2.363 6.682.302 6.21.5 12.462.15 4.784 2.695 4.71 6.9 5.027 4.233.32 4.646 5.135 8.828 4.805 6.68-.527 16.976-2.677 21.936-7.4 4.696-4.47 3.45-6.51 3.413-11.943-.03-4.576 5.393-7.837 8.72-9.93 2.59-1.63 5.56-2.902 6.583-6.054.864-2.66.05-7.22 2.862-8.888 3.23-1.917 8.172.073 11.692-.107 5.88-.3 8.058-5.62 13.08-6.835 5.603-1.358 14.82 14.176 19.42 17.077 5.63 3.55 12.1 6.784 16.13 12.306.872 1.195 1.91 11.66 1.41 11.42 5.04 2.615 2.273-10.677 1.985-11.636-1.472-4.88 7.73-1.96 8.142-2.617 1.247-1.954-9.157-6.005-10.36-6.744-5.38-3.302-9.047-6.884-12.977-12.065-2.39-3.153-9.49-6.636-8.25-11.523 1.675-6.607 5.74-4.103 7.704-.818 1.555 2.603 2.728-.917 4.51-.547 2.67.558 3.52 4.13 4.403 6.18 2.557 5.926 10.466 7.068 15.327 10.4 6.366 4.363 6.577 13.636 10.448 19.913.805 1.305 11.35 11.767 12.647 9.426-1.2 2.21-11.375-1.046-3.814 5.21 4.69 3.882 7.01-1.594 8.248-6.144-.454 1.67-5.002-9.788-5.64-10.602-3.97-5.05 4.59-2.904 7.353-4.825 2.306-1.602 15.857-2.304 12.64 1.616-2.918 3.557 2.86 8.815 1.19 13.364 3.014 3.353 10.98 12.612 16.335 11.1 2.116-.598 3.19-2.273 5.59-2.766 4.416-.91 6.954 3.31 11.007 3.823 3.963.502 9.852-5.62 13.43-3.495 2.78 1.652 2.377 11.043 2.056 13.95-.606 5.486-2.714 11.224-6.405 15.396-6.1 6.895-9.997 2.007-17.202 2.146-3.722.072-6.342 2.85-9.88 2.915-3.18.058-6.055-1.424-9.102-2.042-6.564-1.334-13.87-1.352-19.85-4.718-4.896-2.754-9.326-5.975-14.987-2.005-4.036 2.832-.79 12.724-5.903 13.822-2.94.632-12.604-4.522-15.746-5.688-6.168-2.29-7.214-8.238-14.754-9.097-3.814-.434-15.954-1.94-16.417-7.342-.237-2.758 3.177-3.695 3.142-6.303-.042-3.02-1.11-6.014-1.775-8.93-1.133-4.975-37.565-.36-42.998 1.343-7.076 2.216-13.653 5.592-20.943 7.23-4.626 1.038-14.777-3.74-16.723-.365-3.337 5.79-5.186 7.68-10.613 11.72-8.027 5.98-5.9 9.874-7.868 18.176-2.183 9.21-12.246 7.925-16.627 13.95-4.754 6.587-10.483 11.204-14.31 18.708-3.527 6.916-7.234 12.262-4.156 20.044 2.937 7.428.537 17.05-1.672 24.377-2.042 6.77-2.618 10.37.133 17.767 1.145 3.067 3.984 2.5 6.064 4.406 3.806 3.483 6.794 7.762 10.197 11.613 3.998 4.48 2.94 11.96 9.658 14.082 7.284 2.282 11.37 9.72 18.445 12.432 6.27 2.42 13.396-3.506 19.73-3.453 4.045 0 7.965 1.188 12.01 1.173 5.145-.02 8.618-3.4 13.13-5.24 4.997-2.038 14.184-5.016 18.702-.42 3.7 3.76 4.074 10.455 10.73 9.398 15.342-2.437 18.8 3.022 15.297 17.656-1.533 6.403-3.805 10.864-.37 16.788 3.79 6.535 11.413 9.936 13.757 17.457 3.867 12.437 12.7 28.193 3.75 39.713-12.71 16.364-2.883 27.113 2.326 43.28 2.653 8.237 3.404 16.908 5.414 25.297 2.426 10.122 8.928 17.71 12.222 27.347 1.157 3.385 4.14 6.663 3.656 10.498-.368 2.934-1.724 2.895-.336 5.962 3.035 6.71 4.825 8.407 11.933 6.11 17.403-5.623 32.587-1.466 46.212-16.844 4.837-5.46 10.947-12.023 14.73-18.235 3.016-4.957.86-12.148 4.657-16.503 4.203-4.82 11.385-1.91 12.71-10.014 1.047-6.403-3.76-14.436-.613-20.295 7.026-13.082 28.552-12.376 30.05-29.293.656-7.402 2.65-17.75-2.344-23.66-3.846-4.553-3.735-15.302-4.868-21.072-2.51-12.78 22.8-32.756 31.128-39.647 14.147-11.706 28.148-25.703 32.377-44.49.643-2.665.752-5.35.33-8.058.07.414-26.458 4.324-29.032 5.57-8.913 4.315-12.04-5.85-15.015-11.897-4.783-9.725-16.688-12.308-20.1-23.334-2.576-8.347-10.085-9.67-10.927-19.62-.676-7.992-7.968-12.524-10.946-20.028-1.98-4.99-18.26-25.5-15.353-29.725 1.28-1.856 6.138 14.42 11.778 3.244 2.27.808 4.19 6.483 5.607 8.393 4.698 6.323 7.696 14.592 13.255 19.987 4.93 4.785 5.164 8.448 7.174 14.616 1.65 5.065 9.11 11.24 12.27 16.125 3.48 5.384 6.19 8.234 7.455 14.738.782 4.032 1.455 13.284 6.15 14.917 3.917 1.36 5.715-2.223 8.855-3.394 3.783-1.415 7.085-.065 11.04-1.983 6.268-3.038 13.04-5.025 19.155-8.088 4.56-2.283 4.55-6.743 10.12-8.208 5.813-1.53 10.14-3.563 14.358-8.144 2.827-3.07 17.998-19.912 14.744-23.408-4.58-4.902-8.683-4.373-13.72-7.772-3.856-2.604-2.423-13.447-8.205-9.103-4.845 3.64-6.325 8.377-13.235 8.635-7.392.276-8.364-3.935-8.95-10.353a25.332 25.332 0 0 0-2.683 4.488c1.192-.917-14.213-20.436-15.28-23.004-2.044-4.91.986-6.896 5.78-6.56 7.166.503 10.628 10.776 17.224 14.214 4.234 2.207 6.782 6.12 12.177 4.86 3.712-.864 9-4.447 11.91-.102 4.238 6.33 4.533 5.683 12.697 7.24 6.114 1.163 12.278.557 18.446.63 6.697.076 18.358-2.272 22.723 4.195 2.596 3.845 6.558 4.343 8.98 8.094 1.513 2.353 7.756.406 8.417 2.236.686 1.908-3.997 3.553-4.97 4.416 2.382 2.616 5.423 6.34 9.235 6.736 5.772.598 4.507-7.17 7.634-8.104-5.244 1.567 22.74 68.42 27.665 74.986 7.075 9.432 15.053-18.98 15.842-21.56 1.523-4.98-3.782-12.1.054-16.795 3.563-4.36 10.478-8.085 14.705-12.318 4.297-4.303 7.23-9.57 12.73-12.198 4.368-2.087 3.092-11.067 9.147-11.292 3.794-.14 9.24 1.854 11.964-2.215 2.248-3.354 2.37-4.827 6.83-.69 4.46 4.14 3.564 9.188 9.71 12.81 4.95 2.916 8.118 10.755 8.13 16.28.005 2.865-2.72 7.545 2.415 6.07 3.145-.904 8.177-3.017 10.203-5.758 5.515 6.177 8.58 14.164 10.05 22.22 1.235 6.782-2.19 20.61.626 26.085 2.746 5.337 10.078 9.048 11.373 15.093 1.38 6.43 3.398 13.492 8.867 17.6 1.344 1.01 8.133 6.507 9.938 4.414 2.3-2.665-5.224-19.647-7.435-22.016-2.62-2.81-14.255-6.296-12.384-11.606 1.683-4.804-8.59-8.886-6.595-16.23 1.06-3.9 1.67-8.052 3.105-11.832 2.467-6.502 5.723 1.05 9.802 2.15 4.76 1.288 17.813 13.325 17.654 16.756-.286 6.165 11.02-4.42 13.034-5.87 7.397-5.33 9.608-12.262 6.698-20.985-3.176-9.514-11.06-12.545-16.436-20.195-4.188-5.96-6.222-12.97 1.518-18.068 3.024-2 6.098-3.68 9.846-3.334 5.16.478 3.774 5.79 7.18 5.76-1.7 0 10.96-9.088 11.723-9.547 4.775-2.874 10.114-3.083 15.183-5.506 5.69-2.72 11.728-6.66 14.76-12.395 3.43-6.48 1.73-14.535 7.76-20.08 3.77-3.488 2.347-12.057-2.538-12.89-6.18-1.053 4.66-4.253 2.428-6.87-.725-.843-4.127-2.353-3.742-3.798.258-.966 3.428-1.555 2.79-2.855-1.006-2.054-4.58-2.798-5.875-5.28-1.966-3.765-2.904-7.056-6.51-9.67-5.718-4.145-3.212-8.258.265-13.322.792-1.154 14.303-7.892 7.26-8.67-10.598-1.168-14.897 6.62-23.496-3.274-3.496-4.02-2.138-6.39 2.315-7.958 2.893-1.02 5.1-8.28 7.218-10.705 2.05-2.348 10.253-6.524 8.87.326-1.205 5.96-.85 9.757 6.246 6.15 15.7-7.984 7.708 10.268 17.507 11.582 10.222 1.37 3.247 21.81 11.558 19.978 9.373-2.067 12.63-3.113 6.743-13.17-2.88-4.924-13.814-13.974-14.488-19.313-.644-5.147 6.268-7 7.574-11.403 1.925-6.484.395-9.333 4.648-15.408 4.495-6.418 5.622-1.675 12.074-3.463 6.19-1.715 11.557-17.705 13.048-23.21 3.048-11.248 6.625-25.932 1.756-36.55-4.73-10.315-2.45-22.56-9.36-32.233-2.224-3.114-8.822-7.742-12.525-3.745-1.978 2.135-.853 4.044-4.204 5.38-2.65 1.066-.75-3.96-3.73-2.488-2.222 1.095-5.563-5.432-9.654-5.825-6.83-.656 1.068-11.62 2.132-14.362 3.048-7.858 5.74-16.537 6.278-24.962.65-10.167 3.99-12.623 13.28-14.534 4.19-.862 15.623-3.685 17.53-7.604 2.474-5.066 13.132-2.385 16.182.66-1.305.74-1.755 1.817-1.35 3.232.85 1.09 13.486-5.384 12.448-6.982-2.59-3.987-4.586 1.468-4.967-6.125-.293-5.813 2.356-11.393 1.47-17.228-.896-5.907 10.167-9.108 14.416-8.934 1.13.046 6.493 14.288 8.76 7.858 1.15-3.257 2.453-6.63 2.984-10.06.533-3.44-5.37-7.878-2.696-11.216 1.353-1.684 5.47-2.795 7.385-1.64 2.563 1.55-.107 5.394.154 7.493.623 4.997 5.185 9.22 3.776 14.56-1.584 6.004-4.556 9.43-4.743 16.147-.276 9.927-4.095 18.315-4.98 27.752-1.31 13.978 3.186 25.357 11.22 37.004 3.458 5.012 10.36 11.944 11.666 17.637.616 2.684 1.34 6.546 4.982 6.252 3.702-6.523.735-9.27 1.062-15.748.156-3.11 4.488-3.55 3.58-7.337-.76-3.167-3.453-7.368-.784-10.404 1.703-1.938 6.31-2.815 4.612-6.32-2.478-5.115-5.665-7.335-5.75-13.405-.06-4.27 1.922-4.815-.44-8.236-2.425-3.51-.625-6.148-1.855-9.254-.693-1.753-4.05 1.084-4.82 1.347-2.533.85-3.94-4.994-4.345-6.37-1.653-5.636-2.084-11.478-3.44-17.162-.81-3.38 3.025-3.832 4.985-5.28 6.072-4.493.82-1.863 7.33-1.162 1.082-5.238 6.006-12.848 12.052-8.27 6.657 5.046 5.226-.87 6.484-6.37 1.887-8.242 3.294-24.06 11.98-28.3 3.242-1.582 11.297 1.724 8.256-4.796-2.3-4.935-11.74-7.673-11.444-10.97.403-4.474-9.82-6.677-12.672-8.974-1.68-1.354-4.32 2.568-5.73 1.06-.568-1.156-.583-2.335-.044-3.538 1.683-1.45 1.243-2.287-1.317-2.508 1.383-4.434 15.527 8.15 14.306-8.325-.488-6.596-5.498-6.584-8.64-11.277-2.176-3.28 2.67-9.386 3.75-5.225 2.34 9.124 6.294.528 8.468-1.327 3.435-2.93 6.727 3.252 9.71 3.337 2.115.06 9.88.265 11.18-1.976 1.502-2.584-1.754-3.627-1.225-3.546-4.006-.61 2.103.322 0 0z"/><g fill="none" stroke="#1D2F49" stroke-miterlimit="10"><path d="M225.65 616.39c.21.848-.656-2.677 0 0z"/><path d="M-334.972 180.377c5.175-4.795 12.855-6.688 18.523-11.138 5.805-4.557 13.208-8.28 19.502-12.194 3.68-2.27-5.066-8.097 3.968-8.71 4.76-.313 9.815-6.937 13.174-9.764 9.842-8.283 21.102-2.257 6.542 1.78-4.36 1.208-5.535 2.345-8.342 6.304-2.2 3.102-.624 2.232-.953 5.4-.163 1.578-3.613-.25-3.827 3.084.06-1.035 15.666-4.548 17.304-5.17 3.66-1.392 3.565-3.153 3.938-6.835.424-2.38 1.88-3.495 4.37-3.34 5.462.326 6.66-.223 7.44 4.55 1.27 7.758 13.486 12.685 19.595 16.13 5.674 3.2 2.586 2.24 5.74 7.017 2.688.205 3.733 1.598 3.138 4.18-.062 1.268.074 7.272 2.737 6.753 1.88-.366.687-5.064 1.643-5.09 2.47-.062 2.614 6.623 4.8 6.767 1.89.125 2.813-10.35 4.237-9.6 2.03 1.058.21 7.164.092 8.778-.176 1.67.35 3.135 1.583 4.398 3.512 4.34.152 3.9.023 9.148-.093 3.866 2.448 7.705 3.698 11.23 1.683 4.74-.598 7.513.66 12.078 1.015-2.18 2.65-3.002 4.908-2.472-.808-.295-12.902 14.67-1.89 14.985 1.926.055.218 7.436.47 9.922.548 5.428 5.108-.696 4.84 4.13-.256 4.635-6.407 2.276-4.212 9.222 1.5 4.746 5.542 5.797 8.307 9.132 3.286 3.964 13.22 25.425 2.882 26.59 3.285-.726-4.643-11.442-7.12-9.098-2.613 2.47-.096 14.98-1.833 19.102-2.99 7.057-4.56 14.738-8.58 21.342-2.928 4.8-4.52 18.22-3.67 23.74.646 4.183-.953 9.63 1.778 13.294 3.304 4.434 4.237 5.903 3.5 11.978-1.805 14.192 13.644 15.395 17.932 25.965 1.858 4.58 3.14 9.816 4.273 14.622 1.43 6.06 5.82 8.6 7.867 14.08 2.238 6-6.427 6.71 1.444 10.674 4.895 2.466 7.146 6.502 6.886 11.683-.254 5.04 11.417 9.27 11.582 11.035-.276-2.96-4.102-4.213-5.395-6.55-1.522-2.75-1.435-6.133-2.174-9.105-2.082-8.367-7.418-15.36-11.073-23.032-2.087-4.382-5.28-16.188 3.034-12.548 5.563 2.432 7.022 16.688 10.258 21.845 7.552 12.033 19.866 22.615 24.862 36.128 2.356 6.372-1.908 12.654 2.988 18.023 5.52 6.055 13.98 9.42 21.417 12.392 5.925 2.368 12.82 5.997 19.197 6.74 8.645 1.008 11.386-5.166 18.836 2.773 4.79 5.103 8.577 8.068 15.43 9.886 6.498 1.724 11.616-.343 15.763 5.08 3.625 4.744 4.272 7.63 6.722 12.375 1.14 2.207 4.638 1.623 6.468 3.187 1.95 1.668 3.2 5.244 5.595 6.308 2.486 1.104 5.28.515 7.816 1.346.8 1.584 3.205 3.057 4.762 3.678 4.723 1.886 2.93-11.138 9.54-8.333 6.3 2.646 13.27 25.23 8.7 31.024-4.636 5.882-28.636 27.295-13.953 31.797 3.958 1.214-5.536 10.005-6.304 11.297-3.53 5.938 3.457 10.63 7.44 13.694 5.98 4.6 7.1 12.356 10.858 18.61 4.295 7.148 7.792 18.612 14.547 23.368 14.134 9.952 28.03 14.16 28.543 33.16.53 19.562-3.258 38.96-2.273 58.437.69 13.64 3.572 24.29-2.86 37.384-3.053 6.218 2.557 9.426 2.328 15.503-.132 3.5-1.603 6.953-1.283 10.476.52 5.8 3.68 1.593 6.453 3.36 2.903 1.848.567 8.228.56 10.86-.016 3.608 1.49 6.104 2.322 9.482.91 3.69-2.48 8.09-3.128 11.63-1.423.05-3.104-1.13-4.51-1.38-3.513-.63-2.22 3.98.187 4.613 3.916 1.033 7.16 10.55 5.615 14.347 10.486 0 33.168 5.32 38.06-5.526 4.755-10.546-19.675-11.533-3.636-22.723 3.937-2.747 2.475-8.532 3.243-12.892.893-5.067 6.163-2.108 6.542-4.174-.527 2.873-17.496-13.357-5.842-11.33 2.604.452 7.59 3.404 9.262.067 1.877-3.748-1.292-10.47.482-13.19 1.25-1.912 11.272-.437 13.394-.926 5.283-1.215 11.343-5.506 11.38-11.58.043-6.832-9.136-12.02-9.348-18.03.07 1.97 15.462 4.592 17.323 4.668 2.846.11 11.487-9.073 9.402-10.942-1.054-.77-1.817-.54-2.29.69.408-2.816 3.426-3.454 4.65-5.69 1.835-3.346 3.33-7.078 4.827-10.597.992-2.335 6.334-3.413 8.478-7.318 3.55-6.468 2.21-10.076 2.833-17.072.635-7.107 8.688-11.56 14.19-14.487 6.553-3.487 8.732-5.806 16.303-6.084 4.98-.183 8.188-5.065 10.15-9.058 4.918-10 7.25-22.604 6.68-33.73-.206-4.038-.514-8.043.587-12.002 3.006-1.432 4.61-3.097 6.278-5.887 3.357-5.617 8.85-10.28 11.4-16.33 6.393-15.168-8.635-19.194-17.99-26.002-2.94-2.14-30.756-8.266-30.14-4.103-.793-5.41-5.892-7.43-10.698-9.19-6.99-2.56-10.694 5.117-15.938 8.065-.337-1.43-1.146-2.498-2.43-3.207.217.358 11.868-7.39 6.785-8.69-4.57-1.17-10.9 4.564-14.83 2.902 1.52-8.504 11.15-7.28 5.43-16.595-6.008-9.784-10.922-20.757-24.747-19.98-15.364.892-23.59-15.955-35.615-20.647-1.354-.528-3.323-3.9-3.15-3.86-2.56-.58-6.236.906-8.717 1.39-4.258.83-4.787-.273-8.852-.816a46.932 46.932 0 0 0-7.002.247c-3.278.06-4.148-3.938-7.11-4.705-10.715-2.772-11.313 11.804-13.956 11.196-5.887-1.354 2.3-14.46 1.57-16.245.014.032-19.923 7.44-20.856 9.162-2.34 4.317-3.726 7.023-6.826 11.064-3.06 3.987-5.756-1.303-8.965-3.687-5.873-4.362-11.275 1.82-17.422 1.2-5.855-.587-10.2-9.648-10.166-14.913.028-4.075 5.64-16.983.89-19.043-6.664-2.89-10.66-3.984-18.124-3.127-23.81 2.733 18.75-34.81-4.554-31.408-9.47 1.382-12.68 7.86-15.983 16.745-.394 1.04-10.516 1.27-11.71 1.377-6.375.577-10.952-1.97-14.674-7.39-9.982-14.537-.902-26.594-1.28-41.896-.3-12.32 17-16.47 26.163-17.162 4.736-.358 8.86 2.907 12.92 2.388 3.75-.48 3.657-7.775 10.2-8.203 6.45-.42 10.302 1.255 15.92 3.814 5.2 2.367 8.623-1.66 10.908 5.845.858 2.817 5.49 22.946 9.64 21.932 8.696-2.126-.917-30.975 1.623-37.303 2.59-6.453 9.355-8.622 14.346-12.756 2.472-2.047 13.52-8.566 14.045-11.49.476-2.652-.68-23.357 2.437-23.53.767-.046 1.138 7.134 2.83 7.78 3.017 1.154 2.093-6.293 2.756-7.25a62.6 62.6 0 0 1 4.566-1.673c1.96-1.558 2.025-4.59 2.587-6.78 2.04-7.953 17.608-2.87 19.138-9.097.984-4.005-.337-6.612 2.727-10.72 3.344-4.48 8.357-5.067 13.276-6.574 1.49-.457 20.42-11.12 21.326-6.1.395 2.192-17.494 5.56-11.224 11.45.4.376 21.502-11.998 22.167-10.275-1.262-3.268-8.8-2.635-11.176-4.908-2.67-2.55-4.52-6.37-2.798-10.036.832-1.784-3.965-1.82-3.946-3.852.017-.807 6.68-1.202 7.348-3.266 1.903-5.908-8.653-3.736-10.605-3.23-5.827 1.514-17.31 6.564-21.282 11.73 4.238-5.84 9.457-12.147 16.407-14.793 5.73-2.183 7.952-7.723 14.774-7.12 7.55.67 21.512 4.403 28.217-.304 3.606-2.53 4.453-5.21 9.17-5.7 4.718-.488 8.387-3.115 10.044-7.687 2.834-7.825-5.652-5.788-5.15-9.413.885-6.37-8.276.57-9.678 1.58-3.173 2.282-7.81 1.108-3.517-1.98.94-.675 11.836-5.518 11.504-6.08-3.144-5.234-18.125-5.094-16.575-15.942.374-2.613 3.063-2.38 2.618-5.763-.398-3.02-1.97-5.973-3.623-8.477-2.325-3.52-2.03-13.53-2.712-18.64-3.963.664-8.03 11.304-11.603 13.85-7.977 5.686-13.344-.222-13.667-9.088-.34-9.322 6.024-9.195-2.646-15.31-5.375-3.79-4.662-9.216-11.627-12.025-3.927-1.584-10.585-4.047-14.73-1.85-5.12 2.715-1.404 18.23-3.405 22.703-1.89 4.226-13.61 8.92-6.33 14.123 3.123 5.294 3.3 16.322-1.927 20.438-4.08 3.214-11.325 3.984-14.357 8.22-1.663 2.323-.836 8.11-1.04 10.74-.68 8.793-1.563 25.522-12.3 11-6.52-8.82 4.544-24.855-5.29-27.614-6.696-1.878-12.08-5.46-16.828-10.492-2.77-2.935-5.017-5.34-8.604-7.306-5.076-2.784-8.686.735-13.17-1.15.598-1.212 4.136-17.088.246-15.432-6.528 2.78-3.29-7.56-1.948-11.018 2.525-6.5 7.53-11.43 11.8-16.775a23.815 23.815 0 0 1 5.833-4.79c4.052-3.11.268-5.037 2.634-8.24.36-.502 5.86 3.047 7.176 2.75 6.11-1.385-2.833-7.126-1.77-8.26 1.985-2.125 6.23 3.17 8.726.955 4.21-3.735 2.09-2.256 8.286-2.45 2.25-.07 10.513-6.33 7.855-9.053.125.127-11.852-10.386-5.486-9.508 3.834.53 3.428 8.073 8.162 6.75 2.164-.606 9.473-5.14 7.438-8.202-2.827-4.267 4.1-2.29 5.67-1.45 7.31 3.913 1.967-3.746 3.902-5.476 3.77 1.31 1.98 8.148 6.07 6.398 3.04-1.3 7.547-4.046 8.636-7.286 1.24-3.685-1.548-8.762 1.35-12.036 4.172-4.71 9.32-6.84 1.844-12.747-2.444-1.932-7.192-5.662-8.668-.834-1.868 6.11-3.38 7.71-7.995 12.487-1.587 1.643-7.992 12.212-11.09 9.01-4.933-5.098 2.563-12.172 2.073-15.243-1.82-11.42-4.945 1.043-9.97 1.38.425-.03 1.915-8.467.598-10.278-3.42-4.707-5.848-5.595-.18-10.214 4.375-3.567 4.304-20.334-1.834-22.732-4.693-1.833-2.057 4.248-4.95 5.335-3.446 1.298-8.31 2.43-6.152 7.307 1.41 3.195-4.885 5.345-3.795 9.09 1.567 5.388 11.193 4.85 11.21 10.76-2.547-.2-5.023-1.334-5.404 1.62-.806 6.245-5.985 8.56-10.846 11.213-2.745 1.5-2.607 4.472-3.018 7.228-.78 5.228-6.89 1.358-6.863 1.33.438-.5 3.595.022 2.99-1.546-1.41-3.7-.66-5.172 1.557-8.284-2.3-4.784-10.186-7.22-6.636.576-8.67.362-20.862-.662-26.63-8.135-2.443-3.165-.948-8.308-3.295-10.876-1.565-1.714-12.834-.308-11.67 2.11.7 1.457 21.58-.827 5.538 4.627-3.69 1.254-6.644 1.916-7.974 5.728-.34.97-3.44 10.247-5.122 9.103-2.7-1.835-.762-10.23-2.77-13.217-1.606-2.384-7.902-1.272-10.454-1.515-11.074-1.053-15.964-4.182-5.154-10.307 5.036-2.854-16.846-14.47-19.592-19.012-6.337-10.483-16.07 5.924-12.46-9.622-2.96-.186-4.36 7.048-7.245 5.625-5.28-2.583-.906-11.964-1.33-16.17-1.318.313-3.273 3.325-4.178 4.228-3.583 3.57-8.99 1.54-13.098 4.053.923-.227 1.34-.724 1.254-1.49-2.49-1.932-12.672 1.572-15.005 3.107 4.207-2.768 8.77-3.99 13.767-4.217.8-.04 7.062-3.745 4.707-4.654-2.703-1.043-12.327 4.494-15.533 5.07-7.787 1.397-8.89 1.438-11.134 8.137-1.635 4.878-17.023-19.1-20.464-21.303-2.936-1.88-4.186-4.673-6.282-7.295-2-2.498-5.045-.35-7.33-2.075-4.192-3.146-10.602-4.503-13.538-9.164-2.896-4.598-8-.765-9.65-5.85-.836-2.574-.383-3.652-.54-6.13-.2-3.13-6.14-1.408-7.452-4.112.528 1.09-6.377.277-7.215-1.737-.04-.095 10.287-4.974 3.446-5.4-2.62-.163-4.453 2.55-6.906 2.997-2.89.523-7.884-2.78-10.345-.718-2.574 2.155-1.787 4.244-5.907 5.056-5.858 1.154-10.032.428-15.125 4.242-5.243 3.926-10.393 8.677-17.388 7.805-5.225-.652-10.134-1.023-11.082 5.52-.384 2.646.294 17.81 1.542 19.447 1.11 1.455 3.46 1.486 4.267 3.265 1.242 2.74-1.553 4.338 2.44 5.708 10.756 3.688-9.19 8.784-13.634 6.187-3.008-1.758-2.023-5.52-2.89-8.293-1.15-3.68-8.01 1.892-10.43 2.148-2.51.267-11.04.246-11.545 3.874-.313 2.258 2.37 4.026 2.76 6.174.262 1.432-3.395 5.63-3.86 6.792-3.824 9.583 23.535 3.54 24.453 4.212.8.585-4.844 13.3-5.697 14.525-2.678 3.847-12.57 1.97-17.37 5.022-2.854 1.816-4.67 3.858-8.298 3.99-5.618.2-8.032 6.028-12.143 8.986-5.994 4.327 6.326 8.26 6.264 10.713-.116 3.625-9.716-3.34-8.306 4.033 1.958 10.37 5.135 4.067 10.82 2.51 1.52.016-3.382 15.44-1.44 16.89 1.637 1.223 16.782 7.512 17.74 5.932-7.413 12.21-18.916 18.6-29.703 27.23-2.932 2.346-17.177-.473-13.927 6.44-.575-1.176 19.79-5.04 21.288-6.428 4.502-4.172-1.19 1.102 0 0z"/></g></svg>