<svg xmlns="http://www.w3.org/2000/svg" width="800" height="500" viewBox="0 0 800 500"><path fill="#16335A" d="M131.846 168.655c-7.827-3.33-1.792-.404-5.44-7.26l-5.442 10.89h7.257c1.207-1.212 2.417-2.42 3.626-3.63m-70.754-16.328c-3.865 4.412-1.064-.187-1.813 7.255h1.812v-7.255m45.358 27.212c9.363-4.99 14.146-9.29 16.325-21.772l-10.886 7.26c-8.66-4.423-14.23-6.327-19.954 0 .604 1.812 1.21 3.627 1.813 5.44 4.228 3.024 8.465 6.048 12.7 9.07m478.946 272.128c-2.138 5.118-1.36 1.818 1.81 5.443-.604-1.813-1.212-3.628-1.81-5.444M-18.417 264.12c1.945 3.6 2.903 7.452 1.502 11.57-.188.554-.71 1.318-1.502 2.25V703.4h637.624V505.433c-6.054-6.216-6.806-20.466-13.86-24.74-9.675-3.02-19.353-6.047-29.025-9.07-8.455-5.573-20.49-16.673-29.024-21.77-9.07 1.21-18.143 2.418-27.216 3.63-12.15-3.43-36.32-20.307-48.98-23.587-15.117-1.21-30.24-2.418-45.355-3.63-26.07-8.632-28.71-40.366-50.8-50.8 2.234-17.894 3.93-26.943-3.624-38.094-11.902-3.475-11.46-10.182-19.957-16.328-5.438 12.698-10.886 25.4-16.328 38.1-3.78-5.892-5.096-11.504-3.63-18.143-7.016-1.468-5.205 1.088-7.254-9.068l10.884-3.63c-4.23-10.127-4.175-5.163 0-14.513-11.718 3.52-23.193 15.004-32.653 5.44 6.216-5.213 4.853.766 3.626-7.256-5.328-5.613-1.842-10.703 0-21.77l-10.883-5.445-5.444 7.26c-1.81-1.815-3.626-3.63-5.438-5.444 4.838-3.188 5.785-2.118 9.067-7.256-9.492-1.603-12-.575-18.142-5.442l7.258-3.63c-2.338-8.906-3.7-7.75-9.073-12.7a7345.784 7345.784 0 0 1-10.884 7.26c-5.802-6.722-7.767-15.224-7.257-23.584-8.087 5.74-17.006 12.734-21.77-3.628h-1.814c-15.808 7.314-21.987 18.93-32.655 30.838 3.02 7.258 6.045 14.518 9.07 21.77-4.836-1.813-9.676-3.627-14.515-5.443 1.208-3.624 2.42-7.254 3.63-10.88-10.764-.57-5.552.673-12.7-5.446-9.074 2.91-8.86 5.66-14.515 10.89 0 0-7.844-4.317-10.884-3.632-2.697 7.185-3.24 7.158-9.072 10.886l5.444-14.513c-7.28-1.05-5.425.082-9.07-3.63 8.55-1.49 9.62-5.66 16.327-12.698-8.063-11.667-14.845-32.424-32.656-29.026l5.438-12.7c-10.254-4.496-3.003-8.5-14.51-7.255h-1.815l1.815-9.072c-13.02-.558-12.743-4.23-19.957-12.698-8.63 5.626-31.82 6.21-34.47 1.814-2.42-.606-4.842-1.21-7.256-1.815.38-13.4 3.688-19.87 14.514-18.143 2.416-2.42 4.834-4.838 7.254-7.257-.606-1.208-1.21-2.42-1.815-3.625-14.15 5.035-26.713 6.9-36.284 10.883-.72 3.203-46.503 23.606-54.424 25.4-2.313-1.16-4.63-2.313-6.94-3.473v75.35zm286.33-10.2c3.164 1.773.395 1.657 3.625 0h-3.626m41.727 41.726c-.61 1.814-1.21 3.63-1.82 5.44h1.82v-5.44m-7.258-10.886c.6.605 1.207 1.21 1.81 1.816.61-1.816 1.21-3.633 1.816-5.44-1.207 1.205-2.42 2.414-3.626 3.624"/></svg>