<svg xmlns="http://www.w3.org/2000/svg" width="300" height="120" viewBox="0 0 300 120"><circle opacity=".35" fill="#FFF" cx="6.6" cy="109.487" r="1.584"/><circle opacity=".35" fill="#FFF" cx="45.579" cy="74.54" r="1.584"/><circle opacity=".35" fill="#FFF" cx="59.692" cy="89.998" r="1.584"/><circle opacity=".35" fill="#FFF" cx="76.493" cy="55.723" r="1.584"/><circle opacity=".35" fill="#FFF" cx="113.456" cy="76.557" r="1.584"/><circle opacity=".35" fill="#FFF" cx="121.521" cy="68.492" r="1.584"/><circle opacity=".35" fill="#FFF" cx="138.994" cy="81.261" r="1.584"/><circle opacity=".35" fill="#FFF" cx="182.005" cy="30.857" r="1.584"/><circle opacity=".35" fill="#FFF" cx="208.216" cy="49.002" r="1.584"/><circle opacity=".35" fill="#FFF" cx="294.238" cy="13.384" r="1.584"/><path opacity=".1" fill="none" stroke="#FFF" stroke-width=".672" stroke-miterlimit="10" d="M5.688 110.16l39.89-35.62 14.114 15.458 16.802-34.275 36.962 20.834 8.065-8.065 17.474 12.77 43.012-50.405 26.21 18.145 86.022-35.618"/><path opacity=".1" fill="none" stroke="#FFF" stroke-miterlimit="10" d="M295.582 30.857l-92.07-2.688-42.34 38.977-41.235-11.424-12.53 22.177-29.74-14.785L36.5 98.735V75.452L6.43 109.728"/><path opacity=".35" fill="#FFF" d="M34 73h4v4h-4zM34 98h4v3h-4zM75 63h4v3h-4zM104 77h4v4h-4zM117 55h3v3h-3zM159 66h3v3h-3zM201 27h4v3h-4zM293 30h3v3h-3z"/></svg>