<svg xmlns="http://www.w3.org/2000/svg" xmlns:xlink="http://www.w3.org/1999/xlink" width="1200" height="1200" viewBox="0 0 1200 1200"><path fill="#47C3D2" d="M1182.587 600c0-321.77-260.83-582.587-582.587-582.587S17.413 278.23 17.413 600c0 321.74 260.83 582.587 582.587 582.587S1182.587 921.74 1182.587 600z"/><defs><path id="a" d="M1182.587 600c0-321.77-260.83-582.587-582.587-582.587S17.413 278.23 17.413 600c0 321.74 260.83 582.587 582.587 582.587S1182.587 921.74 1182.587 600z"/></defs><clipPath id="b"><use xlink:href="#a" overflow="visible"/></clipPath><g fill="#EFEBD7" clip-path="url(#b)"><path d="M729.29 425.63c1.073 1.368-.03.215 0 0 .005.007-.028.202 0 0zM1199.22 436.597zM1198.433 437.09zM321.583 185.375c.007.808-.312 1.196-.96 1.166 2.067.372.09-2.897-.102-2.514l1.063 1.35c.11.247-.227-.508 0 0zM293.675 243.67zM285.57 200.8c-.03-.238-.03-.243 0 0-.005-.047-.005-.047 0 0zM285.5 200.577c-.025-.02-.06-.04-.094-.062.034.022.07.04.093.062zM285.38 200.5c-.09-.048-.2-.095-.28-.144.08.05.19.096.28.144zM284.088 201.066c.85-.966-1.337 1.522 0 0 .082-.09-.19.218 0 0zM371.865 1049.09c-1.283-1.216-7.093-3.088-7.898-.126 1.065-4.042 7.482.683 7.898.127-2.038-1.932.003-.002 0 0zM491.99 256.77c1.236-1.85 1.572.2 0 0 .004 0 .48.062 0 0zM1587.538 866.874c-.462-7.322-7.74-10.81-9.646-17.196-.736-2.468.614-4.83-2.16-6.162-3.45-1.638-3.616-1.825-4.598-5.77-1.86-7.494-5.297-10.227-10.906-14.847-5.194-4.276-6.293-12.935-7.592-19.524-.855-4.34 1.34-13.218-5.737-13.218-4.135 0-4.732-12.604-5.834-15.466-3.62-9.423-5.287 2.867-6.364 7.16-2.015 8.017-2.218 15.848-5.19 23.726-3.43 9.083-8.258 5.15-13.81 1.204-6.032-4.292-13.44-6.51-17.496-13.308-2.858-4.783 3.802-9.8 5.74-12.57 4.417-6.31-9.298-4.97-13.955-6.353-7.655-2.278-23.187 4.376-25.76 13.784-2.314 8.458-.884 1.962-8.012 6.332-1.56.938-3.997-9.446-10.838-5.758-3.17 1.712-8.215 5.46-9.943 8.703-.874 1.642.308 5.193-2.83 5.313-4.855.154-.026 3.49-3.637 5.533-.87.49-8.93-8.37-8.128 1.07.784 8.946-10.253 13.793-17.08 15.018-6.92 1.27-33.01 7.462-33.88 16.36-.353 3.794-2.17 6.393-2.857 10.015-.81 4.27 1.646 7.202 2.298 11.162.545 3.23-3.524 4.08-2.85 6.793 1.317 5.278 2.528 11.34 3.22 16.73 1.015 7.907 2.494 17.713-.47 25.287-2.157 5.51-7.555 8.37.845 13.043 6.245 3.475 11.67-.385 17.223-3.065 7.765-3.75 16.74.227 23.69-3.048 2.73-1.287 3.715-4.65 6.45-6.146 2.51-1.37 4.576-1.39 6.927-3.12 4.027-2.965 14.994-3.395 20.16-4.536 6.975-1.543 12.17-1.095 18.114 2.166 2.507 1.374 5.696 1.7 8.314 3.026 3.283 1.648 2.27 5.29 4.348 7.81 2.473 3.013.166 8.195 2.762 10.687.93.893 10.814-9.632 11.942-10.74 8.95-8.812-2.783 15.652-3.76 15.264 3.736 1.517 3.157-6.14 6.157-5.574 2.38.446 1.47 7.138 1.47 8.423 1.78.538 2.49.27 2.883 2.298 1.31 6.674-2.05 16.327 4.91 20.777 2.298 1.47 9.158 6.21 11.49 6.463 4.407.476 5.755-6.096 9.205-6.06 3.908.044 2.2 5.99 4.32 7.443 3.643 2.497 8.36-3.656 11-5.117 3.91-2.166 9.322-.155 12.7-2.943 3.137-2.587 3.2-10.022 4.686-13.67 2.948-7.233 10.007-18.806 15.43-24.406 13.396-13.835 18.218-34.046 17.052-52.993-.06-.936.088 1.423 0 0zM382.664 89.87c4.016-1.413 9.553 5.82 12.592 7.45-.542-.29 4.485-2.835 5.398-2.81 4.174.116 1.814 2.06 4.948-.55 3.47 4.858-.205 1.905 4.213 1.37 1.63-.2 3.9 5.336 4.42 6.23 1.44 2.48 6.794-2.055 8.746-2.158 8.38-.44 1.07-4.93.764-7.038-.483-3.284-7.717-7.65-8.282-6.603-.88 1.765 13.285.566 14.382.04 2.974-1.432 4.38-7.296 6.813-7.63a21.25 21.25 0 0 0 7.563-.138c1.43-.32-3.142-3.083-.903-3.812 1.493-.484 5.778 2.127 5.927-1.157.157-3.56 4.146-2.297 4.837-6.843-1.353-1.567-7.457-5.072-7.79-5.927-1.07-2.747 3.712-2.153 3.87-2.396-.72-.396-.75-.47-1.8-.088.244-3.302 1.152-3.07 3.314-3.73.04-.042-.1.015.277-.022-.71-.794 10.656.955 11.512.743 2.626-.637-.686-4.496-.056-4.744 3.14-1.307 5.012 4.516 8.968 3.85 4.547-.756 3.13-4.517 1.92-6.562 2.37-1.234 7.48-2.54 9.566-2.818 5.275-.7 11.012-7.104 17.017-8.222 1.216-.224 10.305-5.24 7.99-6.334-2.41-1.16-16.29 4.582-17.167.484-.158-.723 8.49-1.236 9.196-1.408 8.95-2.157-.997-2.274 1.026-5.055.75-1.046 15.537 1.04 18.594-.567 2.982-1.57 8.296-3.37 9.977-6.605 2.89-5.568-.726-4.253-3.212-6.364-.717-.607.338-6.118.34-6.134.06-4.214-10.27-.755-10.675-.61-3.393 1.208 4.054-4.957-.823-7.013-3.565-1.5-11.208-8.858-15.742-6.344-6.462 3.63-11.69-10.476-15.23 1.784-1.563 5.438-8.735-9.748-11.042-4.443-.47 1.078 2.174 6.797-.44 5.98-3.243-1.01-2.234-4.537-4.735-5.31-1.384-.432-.474 6.4-1.823 7.268-1.076.686-1.014-5.55-2.828-4.97.13-.042-2.155 4.382-2.272 4.575-4.126 6.736-6.28.207-9.163-3.375-3.187-3.955-6.245 12.2-4.116 9.992-2.102 2.18-4.603-2.66-7.807-.98-6.11-7.608-.78.41-6.584-.885-1.878-.42-10.418-5.103-10.593 1.638-.05 1.966 3.86-.754 4.72 1.055.662 1.37-1.792 2.176-1.763 3.56a9.216 9.216 0 0 1 5.446-.193c-.868.862-6.348 5.63-7.542 5.698-.503.022 12 3.142 14.25 3.588-2.19 4.448 1.464 1.688 4.136 4.256-1.722.017-16.843 1.8-11.568 6.565 3.185 2.86 13.605-2.125 14.192 1.476-6.553 3.546 6.395 3.57 9.222 1.725 1.033-.674 4.403-5.4 6.34-3.698.53 1.102.352 2.143-.54 3.13 2.816.2 4.365 1.402 4.643 3.603.004-.013-13.51 2.835-15.08 2.777-1.963-.07-8.468-1.81-10.082-.478-1.144.945-.608 9.198-2.532 8.646-2.03-.59-6.722-20.557-13.26-9.734-1.25 2.07-.765 8.446-.768 10.576-.004 3.692-3.1 8.784-2.637 12.023 1.2.313 10.542.698 8.44 2.802 2.272-1.668-7.447-2.534-8.446-2.792-2.6 2.993-9.183-1.95-11.798 2.056-1 1.52-7.34 5.816-5.483 8.193 2.396 3.067 7.248.606 9.56-.83-.65 2.582-1.174 4.833-3.846 6.033-.31 5.32 1.138 4.09 2.64 7.903.898 2.4-2.112 2.026-3.842 1.53-5.748-1.655-2.81-5.86-6.037-9.354-5.25-5.692-2.978 10.93-5.496 10.773-4.908-.294-7.124-.367-11.512 1.82-.97.478-4.15 6.123-2.438 5.53 1.593-.564-.116.04 0 0z"/><path d="M447.913 70.352c-.65.39 1.884-1.07 0 0-.032.02-.038.02 0 0zM440.72 14.982c.644-1.164-1.638.343-1.57.253-.345.3 2.332-1.587 1.57-.253.07-.123.07-.123 0 0zM445.263 19.76c1.964.103-2.022-.158-1.765-.028l1.765.03c.21.01-.587-.035 0 0zM468.445 21.755c-.21.324-.926.828 0 0 0 0-.2.178 0 0zM467.22 22.542c0 .07-1.45.015-1.982.188a7.11 7.11 0 0 1 1.982-.188s-.57.032 0 0zM465.107 22.778c-.008.004-.012.008-.02.013l.02-.012zM465.14 23.5c-1.334-1.19.782.684 0 0-.284-.253.066.055 0 0zM414.084 63.805c1.133-.13-1.065.142 0 0 .356-.04-.104.014 0 0zM432.266 244.047c.36 2.813 2.016 4.722 4.774 5.428 1.582-6.982 11.105-8.852 12.384-14.725.035-.163 3.533-3.56-.496-3.12-6.746.723-3.875-1.132-7.585-4.278-3.78-3.202-.587-5.857-7.13-6.933-1.3-4.43-5.52-7.627-8.44-11.034-1.522-1.78 2.66-2.765 3.195-3.84 2.61-5.242 3.46.226 6.322-2.963 1.275-1.404-8.636-4.683-3.826-5.86 5.478-1.34 4.542-5.806.336-3.094-4.853 3.125-3.015-5.993-7.204.292-1.925-4.433 10.78-4.658 7.59-8.604-1.847-2.29-3.54-.59-5.955-.536-5.09.114-1.113-3.425-4.273-3.24-9.683.558 1.543-4.32 2.023-5.255 2.616-5.107-3.824-3.968-5.763-2.048-2.15 2.124-2.996-.98-4.887-.33-.005-.044.2 2.43.9 1.495-.5-.492-4.632-4.072-4.634-3.984.105-3.93 6.098-5.544 1.553-7.804-1.04-.574-1.175-1.313-.402-2.222 2.82-3.212-1.3-5.06-4.056-6.75-7.55-4.637-4.185 3.876-4.92 4.564-1.183 1.122-6.467-.462-7.244-1.583-2.506-3.583-10.308 5.793-6.96-2.332 2.113-5.12 11.618-22.588-1.61-18.612-4.824 1.45-16.92 5.483-15.542 12.084.64.65 1.326 1.25 2.057 1.8-1.142 3.34-4.326 1.892-5.88 4.435-2.002 3.28 3.77 11.96-3.164 13.764-2.008.547.013-6.013-.165-6.38-2.528-5.33-.857-7.957.915-13.015 2.773-7.916 6.27-11.525 13.644-16.365-4.484-10.772-20.012 5.896-23.354 9.048-3.598 3.394-7.164 8.563-9.038 13.18-2.292 5.647-.726 5.33 4.585 7.723 10.498 4.755-6.527 3.718-5.412 3.107-4.227 2.315.878 8.792 4.334 8.69 5.74-.172 2.604 4.07 6.79 4.533 5.036.564 10.702 6.13 15.818 4.957-.103-.1-2.134-1.988-.785-2.3-2.323.556 8.95 3.067 9.47 3.397 7.907 5.016 2.457-5.835 5.777-8.28 1.933-1.426 1.948 2.947 2.075 3.212 2.222 4.718 2.607 2.153 3.118 7.664-.092-.99 3.33 8.02 2.448 6.106 1.847 4-.22 4.32.302 6.644 8.758-.434 11.674 10.895 10.923 18.91-.45 4.863-9.145 9.58-12.708 12.24-6.904 5.18 4.834 5.895-5.89 9.22-5.27 1.643-7.708-1.216-12.5-1.657-2.96 2.54-9.815 7.54-2.308 10.07 1.138.38 11.085-.19 11.78-.643 5.284-3.427 8.382 6.368 10.828 8.8 3.2 3.17-1.55 4.287.875 6.847 4.225 4.46 10.238 8.467 15.51 11.456 14.122 8.003-4.145-13.483-1.92-15.896 4.19-4.665 15.35 20.813 19.7 2.722-2.757-8.583-11.54-18.08-10.644-27.345 1.55.086 2.415 2.678 3.82 2.31-.04.01 3.035-8.938 4.8-4.645.98 2.27 2.602 3.896 4.87 4.875 2.778 1.28.848 3.506 1.176 6.097.37 2.9-.212-1.68 0 0zm-34.81 4.356c.673-1.108 2.11-4.588 3.343-5.16-2.452 1.146-5.24 6.497-1.11 7.08-.627-.087-3.152-.415-2.235-1.92.96-1.578-.317.522 0 0zm2.234 1.92h0zm-.08-.015c.747 0 3.042.303 3.917-.134-.877.438-3.17.134-3.916.134zm16.74-15.65c.052-1.053-.08 2.278 0 0 .004-.06-.02.566 0 0zm4.78-47.977c-2.37.052-.597-2.446.524-2.668-1.177.26-1.72.947-1.63 2.065.36.636 2.33.578 1.106.604-.383.01.198-.003 0 0zm3.888 7.5c.79.175.946.55 0 0 .004.002.05.028 0 0zM274.456 168.288c1.72 1.22 3.382.732 4.98-1.46 1.73 1.684 3.665 2.393 5.802 2.124 4.484-2.148-2.454-8.665-3.07-11.037-1.79-6.844-6.335-6.545-2.073-13.7 2.793-4.703 3.788-12.803 5.59-18.223 1.156-3.493-1.236-10.978-6.237-9.714-3.4.86-7.012 14.17-7.617 17.203-1.08 5.456-8.275 9.252-5.725 1.242 1.4-4.414 5.113-11.25 1.642-15.437-.433 1.117-1.337 6.054-3.253 5.807-.792-.103-8.646-.66-8.85-1.69-.455-2.186 5.538-2.06 4.267-4.86-1.422-3.115-4.665-5.918-7.43-2.436-1.637 2.063-6.55.59-4.745-.824.31-.247 6.414-7.755 2.927-7.36-10.043 1.21-16.758 5.046-24.23 10.735-1.3.99-8.082 4.39-4.263 6.436.59.316 11.578 6.423 11.393 5.47.645 3.397-15.326-.11-15.583 5.162-.39 8.627 12.428 4.452 16.994 7.387 3.532 2.267 12.23 11.42 2.167 8.98-6.61-1.6-12.026-5.46-19.195-4.464-2.917.41-3.6 3.865-3.478 6.224.297 5.705 3.99 6.104 8.497 7.657 6.347 2.202-5.493 11.462 7.432 12.05 7.128.324 13.785-.285 20.764-2.664.63-.214 17.662-5.512 15.275-.386-.84 1.857-5.51-.923-7.226-.01-2.212 1.265 12.47 7.827 15.323 7.206 2.255-.486 3.42-3.036 1.356-4.697-.702-.56-4.856-6.663-1.434-4.722.4.228-.49-.277 0 0zm-38.13-2.43c.01.077.02.155.035.23-.015-.075-.024-.153-.035-.23zm.036.243c.083.417.23.806.478 1.127-.25-.32-.393-.71-.478-1.126zm1.818 1.89zm-.825-3.672c-.7-.668-1.064-.368-1.093.892 2.27.86-1.818-6.41 2.743 2.2l-1.65-3.092c-.096-.177.574 1.015 0 0zm11.76-2.058c.458.356.458.356 0 0 .076.057.076.057 0 0zm.583-.97c.287.19.507.484.754.737-.25-.256-.47-.548-.754-.738zm1.925-2.52c.164.497.165.5 0 0zm3.287 4.552c-.705-.844 1.865 2.085 0 0-.03-.035.232.26 0 0zm1.408-4.636c.51-.45 1.035-.37 1.57.24-1.262-.24-1.642-.083-1.57-.24.068-.15-.086.19 0 0zm1.003.73c-.138.024-.284.032-.424.05.14-.02.286-.03.425-.05zm1.722-9.31c.42.208.052.026 0 0zm-.024.428c.4-.174.857-.374 0 0zm6.16 14.75c-3.22.678 3.124-.706 0 0-.407.086.306-.07 0 0zm4.957-16.805c-.29 1.38 1.16-4.177-.59-2.425.553-1.554.62 2.296.59 2.424-.02.1.185-.843 0 0zM1580.812 764.27c-.12-.014-.314.16 0 0-.043-.006 0 0 0 0zM1567.102 743.867c5.9-4.113-2.72-5.136-6.095-7.055-4.518-2.563-5.427-8.382-11.933-10.672-6.834-2.395-13.588-5.003-20.41-7.427-4.36-1.548-8.73-3.076-13.086-4.63-3.976-1.423-3.203 2.11-6.196 3.164-2.143.752-7.6 8.665-10.063 6.686-2.036-1.628-5.773-3.662-5.878-6.72-.065-1.898.93-6.922-1.615-7.94-2.09-.835-17.233-.822-13.12 2.72 1.66 1.43 3.314 4.67 5.82 4.763 1.316.04 6.84-.878 7.343 1.067 1.103 4.094-8.078.02-5.51 8.72.68 2.328 2.83-.932 2.996-1.15 2.04-2.683 5.896 1.413 7.457 2.433 5.304 3.468 11.89 3.672 17.367 7.037 5.06 3.128 3.718 12.84 7.61 15.672 6.378 4.635 11.68 4.822 18.92 7.51 5.003 1.875 1.703-4.187 1.47-4.56 2.58-1.32 3.65-4.287 6.323-5.263 5.41-1.976 12.928 3.287 15.352 7.95 3.736 7.198 9.61 7.194 16.823 8.08-.086-3.87-17.352-17.793-13.576-20.385.195-.134-.89.612 0 0zM1355.634 709.817c3.787 2.696.548 9.288 4.625 11.118 2.857 1.263 9.527 3.498 12.59 2.288 6.084-2.39 8.487 5.395 13.76 3.574 6.604-2.28 3.955-11.177 7.923-15.41 2.263-2.41 3.513-12.04 7.48-12.17 5.8-.185-.84-3.816-1.625-5.94-1.11-2.995-3.535-10.674-1.21-13.553 1.42-1.76 6.378-4.095 7.113-6.254-3.08-3.063-12.584-12.648-15.02-4.05-1.555 5.456-10.015 7.524-13.315 11.778-3.277 4.223-7.27 5.262-10.78 8.744-3.063 3.037-2.733 7.064-8.214 5.682-8.71-2.196-9.226 10.003-3.326 14.193 1.953 1.39-.53-.375 0 0zM1013.413 782.132c-.187-15.007-4.8-3.352-7.698-.88-4.413 3.775-7.645 13.188-14.887 12.938-6.193-.16-12.393 4.784-11.875 11.433.348 4.552 3.517 8.59.8 13.062-2.688 4.405-7.834 9.598-6.104 15.257 1.794 5.885-.54 14.77 8.276 16.046 13.082 1.892 15.602-14.406 18.96-23.094 3.602-9.327 6.09-18.785 9.342-28.137 2.568-7.348 3.29-7.91 3.185-16.625-.033-2.683.035 2.855 0 0zM952.462 178.997c-8.963 4.107 9.59 8.37 9.218 8.087 2.375 1.81 1.2 3.817 2.822 5.644 1.582 1.786 9.226 2.318 11.51 1.993 9.063-1.292-3.568-7.116-5.773-10.36-2.664-3.92-4.234-9.527-4.448-14.226-.002-.032-1.36-10.232-2.088-9.162.943-1.37 2.773.44 3.798-1.03 2.13-3.06-.61-5.26.707-7.81 1.26-2.44 2.158-4.207 1.895-6.938-.46-4.688 5.51-4.85 6.454-9.32 1.426-6.738 11.47-16.208 17.418-19.276 8.872-4.593 3.02-17.824-3.225-12.674-4.837 3.974-6.242 13.416-14.65 13.09-4.955-.176-12.302 8.766-13.75 13.47-.634 2.054-6.27 8.512-4.836 9.993 5.67 5.872-4.666 11.635-3.023 16.308.37 1.095 3.185-1.446 4.58-.524-3.022 3.62-2.618 7.915-4.968 11.77-2.31 3.787 4.534 8.124-1.644 10.967-1.23.563 1.364-.626 0 0z"/><path d="M199.434 122c-.542 6.393 6.567-.708 8.925 1.596 4.226 4.132 8.107-8.252 12.77-8.323 3.255-.062 9.332-5.172 12.937-6.422 10.16-3.556 17.736-1.45 15.33-14.752-.318-1.766-2.203-4.013-4.24-3.544-4.254.978-1.455 2.095-6.55-2.933-2.805-2.762-16.305-8.06-18.18-1.308-.945 3.383-.29 4.992-3.33 7.402-2.147 1.7-6.732 3.815-7.202 6.715-.55 3.423-6.327 6.056-8.61 8.087-5.084 4.524-1.36 7.377-1.85 13.483-.06.68.27-3.368 0 0zM389.473 61.618c4.033 1.895 4.848-4.782 6.834-4.532.077.01-.532 8.857 2.6 3.913.52-.82 7.27-8.257 6.623-8.684.608.404.018 2.47.09 3.172 2.007-.344 16.63-7.523 13.797-10.335-2.27-2.252-.812-3.35-4.14-4.566-1.407-.508 4.543-5.242 4.7-6.484.59-4.77-5.355-9.523-5.42-13.253-.023-1.3 1.727-22.794-5.313-15.942-1.47 1.47 7.557 3.51-1.592 5.962-7.005 1.88-.472 6.855-7.3 7.32-2.192.15-6.958 1.22-4.34 4.13 2.937 3.27 6.69 8.06-1.03 4.652-3.672-1.62-5.312 6.456-6.925 9.4-2.39 4.355 12.144 5.126 10.476 9.608-1.385 3.735-10.16-3.3-10.71 1.35-.523 4.416-3.82 11.694 1.65 14.288.41.193-1.577-.748 0 0z"/><path d="M419.098 31.24c.173-.51-.053-.228 0 0 .036-.105 0 0 0 0zM1333.85 723.063c-2.9-4.88-12.48-9.225-13.753-14.27-1-3.967 2.02-4.326-2.403-6.498-4.013-1.966-5.996-5.13-9.303-7.97-3.978-3.422-28.593-27.828-33.975-21.915-.297.324 24.792 30.962 27.24 35.75 4.995 9.782 8.75 17.23 18.082 24.16 4.794 3.562 6.616 4.94 12.593 3.442 1.862-3.117 1.15-9.137 1.52-12.7-1.96-3.3-.218 2.114 0 0zM704.944 342.057c1.12.88 4.163 7.665 4.16 8.992-.016 6.84.534 1.47 5.19 4.96 2.218 1.662 3.525 8.105 3.152 10.54-.495 3.3-4.938 1.358-5.524 4.53-.454 2.534 1.44 4.46-1.404 6.453-6.355 4.43 16.432 6.79 3.356 8.02-1.548.148-6.913 5.036-3.793 5.455 3.047.4 9.414-1.603 12.643-2.436 2.587-.667 14.556-.55 15.36-3.724-.61-1.408-.93-2.88-.962-4.42 1.217-1.913 4.8-5.474 2.59-8.157-1.106-1.077-2.41-1.43-3.908-1.07-3.69.454-1.72-1.353-3.282-3.593-1.574-2.255-1.803-5.207-3.475-7.333-1.524-1.948-3.742-2.18-4.684-4.69-1.268-3.404-8.596-8.97-7.95-10.35 3.52-7.526 7.23-10.526-2.953-10.903-5.696-.21 7.14-7.35-4.065-6.65-3.045.185-6.943 12.41-4.448 14.377.603.476-.333-.262 0 0zM1456.105 478.803c-9.97 7.957 12.655.574 15.54-1.804 3.595-2.967 9.827 17.395 11.025 2.354.36-4.512-1.157-4.176 4.314-3.453 3.654.487 8.153-3.796 10.334-6.25 3.097-3.523 1.155 1.956 3.565 2.317 4.625.696.537-11.533.77-13.11.595-3.974-2.77-7.456-2.068-11.06.81-4.157 4.61-8.78 1.937-13.48-1.52-2.634-7.06-14.934-11.525-7.955-1.988 3.105 2.59 12.59 2.147 16.535-.437 3.87-1.85 9.77-4.17 13.102-3.483 5.004-9.967 3.042-10.798 10.39-.595 5.193-3.073 3.1-7.013 4.065-7.58 1.865-8.543 3.97-14.058 8.348-1.095.875 2.257-1.792 0 0zM286.37 77.828c1.035-2.414-.312-7.625-.37-10.276-.072-2.967-4.44-1.07-4.053-4.75.355-3.45-15.346-1.357-8.66 5.146-1.35.207-7.287.15-7.287 2.382 0 1.475 2.832 1.866 3.778 2.705-2.32 2.388-17.16 1.177-6.777 7.66 5.858 3.658 12.574-.157 18.892 3.765.913.565-21.436 2.39-14.348 7.094 7.53 5.02 18.525-2.32 26.944-1.338 7.65.892 10.365.71 16.313-6.55 7.62-9.32-7.384-2.335-9.108-4.964-2.538-3.877 10.824-22.84-2.76-11.968-1.987 1.588.427 4.203-.243 5.99-1.268 3.368-2.79 1.728-2.566 5.777.292 5.09-10.737 1.613-9.754-.672.737-1.716-.268.624 0 0zM374.526 88.664c-2.096-3.042-1.734-6.562-7.445-3.82-2.03 1.42-1.05 7.175-.98 9.375.076 2.27-11.315 16.585-5.056 17.602 5.01.81 2.787 3.908 8.762 1.905 2.443-.824.87 3.218 1.314 4.06 1.446 2.762 9.202 2.022 11.717 2.588 2.013 1.15 4.137 1.708 6.376 1.672.948-.293 3.01-3.773 3.837-3.093 2.007 1.638-.233 6.146 4.685 5.48-.002 0 10.04-4.72 8.56-4.698-.077-.19-.155-.197-.232-.018.755-2.162 3.625-2.98 4.006-5.237.76-4.52-5.227-7.365-8.46-7.493-8.932-.36-15.86.984-23.67-3.24-1.748-.943-8.802-7.215-7.85-9.068.306-.596.713-3.333 1.33-3.57.224.085 6.76 3.194 6.268 1.263a12.715 12.715 0 0 0-3.162-3.71c-.568-.82.932 1.353 0 0zM1673.384 1008.012c-.02-1.982-6.448-11.09-7.956-7.582-2.507 5.91-7.31 13.49-11.9 18.067-6.107 6.087-36.3 16.29-33.512 28.688.457 2.027 9.805 7.632 11.896 6.268 6.27-4.066 13.404-10.197 16.186-17.428 2.1-5.443 11.942-5.527 12.326-10.243.573-6.882 12.765-9.76 12.96-17.77-.02-2.016-.005.234 0 0zM772 92.255c3.705.233 2.776 17.136 9.83 15.57 3.42-.76 1.194-5.32 3.248-7.125 3.657-3.214 1.554 1.432 3.65 2.182l2.78-1.655c6.53 1.577-9.503 10.94-8.742 12.49 1.392 2.85 9.376-3.385 10.482-.37.94 2.558-7.283 5.452-8.24 5.68-.936.22 7.83 11.025 9.028 12.897 1.535 2.383 5.82-14.28 6.186-16.795.136-.94 1.258-11.696 8.914-16.758.773-4.72-15.974-13.832-15.118-9.27-.855-3.658-.308-8.075-5.612-8.075-.936 2.198 1.176 14.833.657 15.15-3.59 2.105-3.376-13.626-7.007-9.592-5.784 6.416-3.146-1.08-3.685-2.454-1.45-3.743-14.73 7.626-6.37 8.125.423.028-1.745-.105 0 0zM645.666 279.775c6-3.346 27.768-10.444 19.643-20.143-2.677-3.193-1.866-5.355-6.847-6.69-2.567 1.647-5.344 3.114-8.522 2.624-1.01-.142-.672 2.354-1.91 2.44-4.837-6-3.32 2.662-8.417-2.258-.072 1.282-3.243 9.768-5.512 5.533-1.324-2.463-.02-4.99-2.012-7.23-1.38-1.55-2.017 1.32-3.63 1.098-6.885-.95-1.856 3.573 1.81 4.665 6.187 1.85-6.4 6.126-6.658 6.335 3.34.923 5.113 1.832 6.956 4.924 1.223 2.074-4.428 2.962-3.076 4.788.836 1.123 16.363 4.932 18.176 3.915 2.89-1.61-1.098.617 0 0z"/><path d="M624.938 258.355c-.687-.075.165.02 0 0zM319.632 127.824c1.998-1.056 14.87-9.544 4.616-9.346-2.357.053-4.074-1.898-5.906-1.898-10.608.02-.348 2.21-5.396 4.222-5.142 2.047 1.286 2.315-1.738 7.583-5.502 9.574-3.436-4.582-9.26-2.33-7.666 2.98 3.17 15.942 3.145 20.846-.044 11.143 5.815.365 5.375.07 6.222 4.176 11.06-4.948 13.504-9.336 1.792-3.286-7.07-8.37-4.34-9.81 1.462-.774-.824.435 0 0zM1706.46 973.69c-1.14-1.277-3.753 2.93-5.775 1.807-4.436-2.46-4.465-4.98-5.94-9.67-2.152 1.416-2.702.768-5.248.18-.217 4.277-1.97 13.035-5.056 16.252-3.082 3.217-8.69 2.08-3.69 7.226 4.025 4.14 3.634 7.013.057 11.456-1.396 1.73-2.696 9.687 1.757 6.476 4.41-3.196 9.573-9.99 11.845-14.995.258-1.74.692-3.435 1.3-5.092 1.383-1.562 4.65-1.554 5.692-3.213 1.518-2.453 8.323-6.845 5.06-10.428-.114-.127.29.32 0 0zM1462.75 320.205c.758 5.86 6.57 9.022 8.26 14.562 1.85 6.072 3.898 11.55 5.28 17.783.59 2.664 7.403 25.088 8.796 25.397-1.71-.382 4.304-4.163 5.693-4.354-4.253-4.558-13.79-16.728-9.064-23.8 1.792-2.682 4.99-.918 2.817-4.948-2.02-3.745-4.396-7.456-6.58-11.1-4.346-7.258-10.263-14.74-11.703-23.278-.02-.106-2.1-3.867-3.473-2.69-5.316 4.592-.798 6.38-.027 12.428.278 2.15-.368-2.88 0 0zM1276.42 45.44c2.68 1.952 1.404 4.313 5.774 5.607 1.855.55 8.353 5.73 9.67 1.437 1.227-3.963 5.82-5.848 10.464-8.027-.634-1.74-4.213-2.706-5.43-3.668-3.402-2.692-3.646-6.63-5.576-10.197-4.8-8.885-6.148 7.084-5.17 6.237-2.525 2.166-9.17-7.282-12.63-5.88-5.57 2.258.227 12.52 2.9 14.49.308.225-2.863-2.108 0 0zM1067.232 28.826c-4.043 4.826 3.596 12.482 7.48 14.262 3.09 1.417 18.616 3.975 19.757-1.4-.022.1-6.03-11.837-6.42-12.61-.948-1.88-4.353-6.48-7.01-4.88-1.677 1.01.73 3.61-.867 4.83-.91.69-2.865-4.193-3.34-4.696-3.097-3.286-7.803 2.313-9.6 4.494-.28.334 1.665-2.022 0 0zM1414.26 701.167c-2.16.622-7.943 19.706-7.375 21.775.927 3.38 5.12 3.31 3.596 8.146-.924 2.936 1.99 7.565 2.848 4.258 1.11-4.354 1.396-8.84 1.886-13.286.242-2.1 3.888-2.115 4.11.082.765 6.832 1.57 11.52 8.734 6.773-2.252-3.028-5.312-8.538-6.31-12.098 1.257-3.19 7.912-6.456 10.805-8.3-4.144.612-10.197.95-13.262 4.02-3.32 3.353-7.106-6.276-5.086-9.37 2.2-3.367 30.57.97 27.466-6.088-.175-.397-7.868 3.086-9.365 2.995a64.213 64.213 0 0 1-8.426-1.224c-5.99-1.182-4.53.854-9.62 2.317-1.194.343 2.123-.61 0 0zM336.625 136.614c2.904.053 4.794 3.895 7.714 1.277 4.055-3.63 8.088-7.308 11.737-11.36 2.95-3.245-15.814-12.38-17.86-5.75-1.94 6.042-9.4 10.09-10.037 18.806-.28 3.9-1.26 7.8 3.91 3.722 2.192-1.73 1.677-6.75 4.535-6.694 1.28.023-1.31-.025 0 0zM684.695 360.375c-.552 4.18-.887 5 1.508 8.115-.365 2.668-5.365 8.418-2.888 10.84 3.846 3.776 16.548-3.214 17.878-7.6.767-2.526 2.494-16.804.014-17.36-10.187-2.34-7.74 5.445-16.512 6.005-.207 1.565 1.375-.09 0 0zM253.74 56.642c1.973-1.475 1.2 3.394 1.972 3.918 2.586 1.765 3.716-4.547 6.98-2.663 1.962-2.187 5.4-8.8 8.734-8.818 5.14 0-3.76 7.787-1.572 9.665 2.458 2.07 19.918-14.756 16.99-17.746 1.363 1.385-8.183-.77-7.79-.747-5.877-.344-9.57 3.567-14.63 6.112-5.09 2.58-10.82 3.4-15.61 6.528-3.137 2.07 2.386 5.633 4.926 3.75.165-.124-2.338 1.733 0 0zM1507.48 396.557c-3.525.938-20.81-8.64-20.06-9.967-2.285 3.945 4.69 12.678 2.053 17.825-4.122 8.04-6.083 5.05-1.636 14.303 1.46-.508 2.538-1.45 3.23-2.83-6.687-4.267-4.72-3.307-.428-6.045 4.778-3.043 6.817 3.297 10.714 2.123 2.96-.892 1.5-6.188 5.318-7.27 6.104-1.773 4.172-4.316.808-8.14-3.902 1.036.688.782 0 0zM799.314 83.345c2.264.073 7.598-2.354 8.983-.4-.313 1.97-1.554 3.35-3.717 4.144 1.566 1.448 9.755 4.688 11.433 4.564 3.487-.256 6.89-4.417 8.4-7.1 8.21-14.57-9.77-6.233-13.363-12.21a37.88 37.88 0 0 1-.836 5.175c-2.862.353-7.75-5.512-9.763-4.786-1.777.64-7.123 10.406-1.136 10.61.938.03-1.113-.04 0 0zM344.74 251.476c.555 3.38 5.13 4.308 7.14 1.956-.677.792-4.88-10.512-6.154-12.196-2.014-2.66-7.49-5.03-8.766-7.41-.354-.66-.808-8.014-3.112-2.957-1.92 4.227-3.716 12.17-6.798 15.528-5.15 5.61.867 1.75.887 7.568.03 7.188 14.92-13.99 16.803-2.49.33 2.004-.207-1.267 0 0zM344.42 43.705c5.228.478 10.04 6.59 7.706 11.644-1.596 3.42 5.662 1.208 6.474-3.655.427-2.562 7.82-9.05 3.952-11.61-1.9-1.256.024-7.564-2.62-6.686-4.768 1.597-2.465-.336-2.915-4.037-.385-3.174-7.398-4.204-8.73-1.6-1.775 3.476 4.205 7.725.03 12.773 1.016-1.232-12.736 2.357-3.896 3.17 2.52.23-.67-.063 0 0zM1531.1 986.467c-2.897.463-6.93 1.938-9.745.36-1.22-.68-4.255-3.775-5.78-2.986-2.242 1.156-1.712 18.08-1.23 20.778 3.19 17.784 23.1-19.174 16.754-18.15-2.342.374 1.533-.247 0 0zM1377.14 753.785c2.303 1.03 2.132-3.51-1.635-3.713-3.825-.195-5.86-4.73-9.48-6.045-4.616-1.683-6.92.876-11.525.85-5.792-.028-8.53-4.603-14.386-4.904-13.785-.704-.305 8.46 5.838 9.065 4.396.43 8.376-.303 12.383 2.172 5.3 3.275 13.103-.007 18.805 2.575.806.36-2.216-1.004 0 0zM324.193 87.74c.385.075 10.523 1.797 10.284 2.42-.78 2.108-4.708 2.878-6.544 3.68-1.87 5.58.497 4.86 5.427 6.27 4.098-3.09 6.843-7.9 10.004-11.844 1.773-2.214 5.285-6.318 4.116-9.33-1.086-2.79-4.283 1.157-4.828-.734-3.183-11.033-6.86 7.264-7.5 7.624-1.563.893-2.417-6.578-3.478-7.16 1.397.767-7.334 8.538-7.48 9.074 3.26.654.428-1.565 0 0zM1102.297 42.69c-.157 1.345 2.213 16.215 5.077 12.735 2.83-3.5 11.942-7.4 12.514-11.904.667-5.24-9.574-10.88-13.914-8.894-2.052.938-2.105-3.17-3.82-3.054-5.404.365.382 9.085.143 11.118-.434 3.688.1-.862 0 0zM1052.507 24.213c.672 8.06 11.724 3.488 14.417.564 4.102-4.457 1.727-6.167-1.31-11.2-.734-1.21-10.022-6.925-10.84-6.718-5.7 1.442-2.53 14.2-2.267 17.353.08.98-.118-1.42 0 0zM1420.18 596.878c.083-5.535-8.23-4.125-9.034 1.364-.6 4.03-4.553 15.57 1.53 17.514-1.026-.326 7.913 9.944 6.467 3.01-.732-3.53-2.414-6.898-.234-10.272 3.414-5.255 1.16-6.31 1.27-11.616.03-2.01-.014.65 0 0zM1433.902 655.17c-3.637-3.59-5.162 3.465-7.736 3.355 2.125.105 7.408-.627 9.146.844 2.534 2.152.367 5.554 2.493 7.892 7.73 8.52 5.567-3.786 6.948-5.026 2.078-1.86 3.003.835 4.628-.596 1.594-1.4-1.763-9.096-2.014-10.806-1.108-7.547-10.016 7.723-13.464 4.336-1.625-1.606.87.854 0 0zM390.864 1056.268c-2.66-2.335-2.652-6.398-4.897-7.967-4.143-2.895-8.532 5.707-5.666 6.038.364.042 4.72-.508 3.406 1.395-4.26 6.22 1.32 1.372 2.308 6.78-.298-1.373-7.38 2.04-7.73 2.225-.248 1.37.358 2.522 1.818 3.454 2.01-2.033 4.39-2.67 7.14-1.912 2.608.307 3.357-2.902 5.07-2.208 3.106 1.26 9.647 3.79 11.983.022-4.677-2.393-9.448-4.322-13.43-7.826-1.237-1.084 2.13 1.875 0 0zM396.974 150.33c3.15 1.46 8.607.485 12.318 1.377 2.072-2.324.783-10.523-2.94-11.346-4.028-.892-9.042-5.4-10.75.55-.475 1.66-.432 8.586 1.372 9.42.614.284-1.326-.612 0 0zM298.32 188.756c7.213 3.543 6.733-8.2 4.816-11.577-.933-1.644-2.497-5.758-4.592-2.887-2.1 2.865-7.31 4.17-8.73 6.395 2.526 2.76 5.062 6.383 8.506 8.068.896.443-1.723-.842 0 0zM366.216 59.544c4.223 2.896 7.3 1.005 8.82-2.742 2.037-5.03-.344-6.955-3.045-11.86-1.858-3.303-9.317 12.162-5.774 14.602 1.22.835-.928-.64 0 0zM306.988 50.74c2.267-.202 8.527-7.397 8.968-9.18.452-1.956-12.04-2.45-13.903-.114-3.187 3.993-.898 9.827 4.935 9.293 1.817-.162-2.634.24 0 0zM1451.65 486.26c-3.836 2.646-3.127 3.05-.826 4.682 5.54 3.924-3.184 9.935 5.6 11.518 5.325.96 2.74-21.23-4.774-16.2-1.366.945.183-.12 0 0z"/><path d="M1296.934 34.843c-.667 7.993 13.928 7.07 10.853 1.65-3.16-5.463-1.097-5.38-7.502-6.387-6.402-1.863-2.986.383-3.35 4.737-.183 2.17.122-1.468 0 0zM359.073 84.705c5.826 5.095 11.945-2.165 6.733-6.482-8.077-6.675-13.44.624-6.733 6.482 1.054.922-.495-.432 0 0zM348.472 109.68c3.332 1.612 7.558-11.28 1.516-12.42-9.3-1.753-7.946 9.33-1.516 12.42.205.1-2.347-1.127 0 0zM1317.707 33.322c4.744 3.685 21.988 1.42 14.836-2.98-2.535-1.563-17.486.93-14.836 2.98 3.18 2.47-.61-.472 0 0zM811.02 117.286c.062-1.06 10.645 3.475 10.39-3.85-2.153-1.066-5.38-6.676-6.592-6.23-5.772 2.13-3.47 4.594-3.8 10.08-.012.207.028-.46 0 0zM288.19 120.793c.6 2.67 10.014-3.214 7.7-7.563-1.17-2.2-6.48-3.157-8.283-1.42-2.022 1.948.113 6.873.583 8.983.128.572-.456-2.048 0 0zM311.42 32.027c4.314 1.062 14.34 11.654 12.57-1.117-.44-3.3-14.63.595-12.57 1.117 2.877.708-.21-.052 0 0zM1595.52 729.674c-3.662-.333-4.86 8.225-10.996 6.813-.854-.197-8.165-.907-8.165.448-.045 4.566 11.022 3.423 13.65 1.842.928-.56 9.113-8.772 5.51-9.103-.416-.038.592.055 0 0zM387.487 217.575c3.827-1.304 8.352-11.983 2.37-9.97-4.104 1.368-9.78 12.49-2.37 9.97 3.493-1.192-.644.218 0 0zM1314.938 69.782c2.192.237 14.85-1.218 7.204-4.956-2.02-1-5.53-2.872-7.908-2.044-3.127 1.088-2.642 6.642.704 7 .7.075-1.568-.167 0 0zM1691.71 952.896c.554-1.295-3.568-7.187-5.048-6.335-3.41 2.01 1.415 12.593 2.85 14.748 1.955-2.562.965-5.462 2.197-8.412.152-.363-.922 2.206 0 0zM1689.513 961.31c-.224.29.208.326 0 0-.013.015.028.048 0 0zM1440.874 756.832c-17.02 9.69.237 6.368 6.903-.297-.647-2.29-5.735-.372-6.903.297-1.42.81 1.95-1.12 0 0zM1463.862 489.857c-.214-.07 11.597-4.582 7.918-7.453-3.682-2.89-13.282 5.716-7.918 7.453.305.107-.382-.123 0 0zM365.696 67.922c.932.643 12.176 3.75 9.06.422-3.093-3.314-12.973-3.13-9.06-.422 2.132 1.473-.75-.518 0 0zM427.02 22.798c15.547-9.663-13.67-5.384 0 0 1.454-.903-2.153-.848 0 0zM1461.47 696.207c-4.243 1.58-4.665-2.384-4.237 5.17.333 5.1 7.41-6.336 4.236-5.17-1.272.474.534-.197 0 0zM1063.006 34.076c.76-3.246-6.653-3.976-7.316-1.377-.72 2.823 6.398 5.306 7.316 1.376.16-.68-.298 1.272 0 0zM340.47 261.794c-1.796-.216-8.488.598-6.623 4.05 1.83 3.383 9.686-3.735 6.624-4.05-.46-.056.193.018 0 0zM1465.24 723.8c.866.193 6.605 1.754 7.422.81 1.268-1.47-11.404-5.26-11.676-2.046-.142 1.632 3.49 1.063 4.254 1.235 1.802.402-1.35-.305 0 0zM1422.52 754.918c-1.86-.483-8.74-3.47-9.973-.414-.972 2.39 9.58.514 9.973.414-2.872-.747-3.75.966 0 0zM349.283 273.118c1.66.566 3.432-3.527 3.252-4.654-.38-2.748-6.727 3.49-3.252 4.654.184.064-.19-.062 0 0zM812.688 104.04c1.303-4.175-5.644-2.293-3.958.545 1.088 1.82 3.186 1.903 3.958-.544.178-.572-.194.61 0 0zM1418.242 629.76c2.137-.342-.836-6.94-3.01-4.883-1.354 1.334 1.258 5.145 3.01 4.883.177-.03-.402.057 0 0zM1441.286 635.782c2.453-1.935.188-6.113-2.704-5.718-2.697.364 1.24 6.794 2.704 5.718.306-.24-.092.07 0 0zM1427.214 635.89c-2.747-.83-3.554.414-3.23 3.12.342 3.026 6.713-2.076 3.23-3.12-.447-.135.793.24 0 0zM256.12 68.09c.255 3.514 6.726-3.602 6.963-4.108-1.796.026-7.168 1.437-6.964 4.108.042.59-.03-.402 0 0zM263.083 63.98c.28-.002.095-.2 0 0 .056 0 .02-.042 0 0zM1448.703 723.653c-2.035 1.05 2.143 4.01 3.974 1.505 1.573-2.157-3.355-1.83-3.974-1.505-.323.167.587-.31 0 0zM1413.192 761.026c-1.704-1.026-3.526-1.248-5.47-.667.85.532 5.222 4.456 6.454 2.82.278-.973-.05-1.69-.984-2.154-1.39-1.06.368.28 0 0zM1515.15 750.874c-.738 2.594 3.45.055 3.877-1.816-2.09-.944-3.203-.555-3.876 1.816-.154.545.34-1.192 0 0zM1305.357 58.95c-2.4-1.24-.778 5.632 1.138 3.688 1.396-1.236 1.017-2.463-1.138-3.688-.502-.26 1.062.547 0 0zM325.313 77.91c-.28-.248-3.41-1.774-3.487-.034-.128 2.542 4.79 1.183 3.487.034-.486-.428.393.35 0 0zM363.356 1057.884c.314.653 3.95 4.626 4.98 2.333.993-2.265-4.265-2.452-4.98-2.333.89 1.85 1.923-.32 0 0zM363.26 1057.84c-.21.086-.01.002 0 0zM1427.78 621.162c.16.205.483-.022 0 0 .04.047.09-.004 0 0z"/><path d="M1423.363 620.225c-.66 2.146 6.014.863 4.417.938-.766-.997-3.404-4.21-4.417-.938-.085.286.387-1.247 0 0zM457.996 60.853c-.582-1.346-1.45-1.704-2.603-1.073-1.995 1.86 3.043 3.45 2.603 1.073-.136-.755.12.648 0 0zM1394.608 755.16c-1.274 1.473 2.457 1.948 3.31 1.07 1.2-1.25-2.25-2.28-3.31-1.07-.178.206.787-.898 0 0zM1428.325 647.805c2.98 2.302 1.03-5.423 1.108-4.822-3.13 1.667-3.5 3.274-1.108 4.822.33.254-.524-.407 0 0z"/><path d="M1429.533 642.86c.174-1.278-.13.427-.13-.108-.022.266.02.3.13.108zM421.502 27.847c.437-2.9-2.186 2.523-2.318 3.07 1.21-.695 1.98-1.717 2.318-3.07.086-.57-.225 1.453 0 0zM1402.178 753.875c-.336 1.69 2.17 1.662 3.01.975.345-1.226-2.75-2.318-3.01-.975-.068.344.05-.266 0 0zM312.893 90.866c.25-3.018-3.9.464-1.867 1.29 1.076.22 1.698-.21 1.867-1.29.032-.378-.09 1.05 0 0zM1090.156 1019.52c-1.734.78-.99 2.262.687 1.8.742-.93.514-1.528-.687-1.8-.39.174.37.225 0 0zM1384.363 752.26c-1.342 1.7.61 2.178 1.378 1.01-.074-.775-.533-1.11-1.377-1.01-.254.323.75-.143 0 0zM1430.346 623.695c.324-1.437-.39-2.19-2.146-2.255.142 1.573.858 2.327 2.146 2.255.143-.385-.156.435 0 0zM1428.047 621.15c.013.205.266.498 0 0 0 0 .052.094 0 0zM1333.477 715.822c-1.62-.353-.836 1.952 1.585 2.413.01-1.155-.518-1.962-1.585-2.413-.2-.042 1.36.267 0 0zM1335.062 718.235c.16.578.407.08 0 0 .015.064.07.015 0 0zM1345.86 721.67c-.296-1.306-.794-1.408-1.492-.306.51.878 1.005.98 1.49.306.15-.528-.046.178 0 0zM325.52 116.286c.256 0-1.347-1.778-1.798-.086.598.03 1.198.058 1.797.086.04 0-.602-.007 0 0zM395.48 1067.31c-1.326.593-1.277 1.003.146 1.225.895-.205.845-.61-.146-1.224-.545-.038.565.044 0 0zM1438.77 638c-.844-.748 2.45 2.27 0 0-.112-.095.14.13 0 0zM1439.433 639.778c.02-.22-.137-.417 0 0 0 0-.03-.09 0 0zM1436.662 645.39c-.606-1.534-1.05 1.18 0 0-.067-.17-.125.143 0 0zM1293.764 712.127c-.408.308.78-.683 0 0-.04.03.488-.43 0 0zM1336.723 720.408c-.025-.84-.49-1.44-1.404-1.805-.275 1.4.194 2.002 1.403 1.805.082-.095-.367.406 0 0zM1390.902 754.278c-1.744.8 1.663-.773 0 0-.165.076.518-.243 0 0zM1268.343 45.665c1.405-.782-1.165-1.24 0 0 .155-.088-.15-.16 0 0zM413.907 53.543c2.055.592-1.786-.562 0 0 .182.053-.17-.054 0 0zM378.98 84.87c-.406 1.196 1.17.603 0 0-.058.175.17.088 0 0zM1484.968 937.44c-1.153.02-1.423.308-.812.856.967.032 1.954-.243.812-.857-.375.146.18.098 0 0zM1688.715 964.768c1.22 2.036 1.47.975.75-3.185-1.336.854-1.586 1.914-.75 3.185.16.32-.768-1.512 0 0z"/><path d="M1689.513 965.832c-.12-.157-.35.176 0 0-.052-.064 0 0 0 0zM1622.084 1056.243c-.993 1.594 1.288-2.05 0 0-.088.142.297-.473 0 0zM374 1060.982c-1.364-.536.868.33 0 0-.135-.05.674.256 0 0zM407.556 120.355c-.43-2.075.072.363 0 0-.163-.79.007.034 0 0zM264.08 63.187c-1.328 1.252.328.593 0 0-.21.198.068.124 0 0z"/><path d="M263.45 63.783c-.454.116-.262.25 0 0-.1.024-.067.062 0 0zM452.72 54.86c1.086.898-2.52-2.16 0 0 .068.055-.28-.24 0 0zM1582.307 764.735c-2.36-.476-.538.222 0 0-.37-.074-.146.06 0 0z"/><path d="M1581.206 764.518c-.46-.293-.84-.164 0 0-.13-.085-.174-.036 0 0zM623.79 259.05c1.694-1.296-.284-.643 0 0 .262-.2-.06-.136 0 0zM1430.064 641.22c-2.328.985.87 2.153 0 0-.708.3.075.185 0 0zM1440.09 640.766c-1.03-1.884.68 1.215 0 0-.107-.198.055.095 0 0z"/><path d="M1439.575 639.64c.018.138.35 1.25 0 0 0 0 .05.186 0 0zM1316.923 699.392c-.24-.76-1.043.26 0 0-.045-.145-.183.046 0 0zM631.453 213.816c2.242-1.795-12.98-2.93-14.685-2.616-3.698.68-9.526.484-2.114-2.183a70.24 70.24 0 0 1-8.58-1.698c1.71-1.363 4.132-5.81 5.87-6.477 3.532-1.362 5.98 1.68 8.99-1.82 2.872-3.31-12.795-4.84-7.28-9.414.71-.584 10.773 6.77 11.823 7.918 3.074 3.364 2.99 14.24 9.045 7.365.38 1.242 1.156 1.917 2.325 2.033 3.178-.834-1.558-14.983-2.723-16.775-2.193-3.368-8.747-3.647-10.155-6.465-.493-.97 3.062-1.022 2.32-2.576-1.266-2.633-5.048.53-6.212-1.89-1.255-2.625 6.125-.322 5.286-3.393-.923-3.33-6.754.81-7.83-.895.123.2 2.008-4.377 2.064-4.45 7.935 5.13 7.96-5.503 12.85-3.5 3.237 1.346 2.23 9.488 8.293 5.77 5.287-3.237 8.254-4.463.57-6.992-3.814-1.244.387-10.31 6.202-6.735 10.396 6.392-2.637-5.337-1.145-7.83 3.274-.407-.02-3.39 4.335-1.826 3.5 1.26 2.003-5.865 1.79-6.864-.963-4.564-9.506-1.83-.796-4.946-1.286-.975-12.394-5.493-4.85-8.615 3.198-1.323 3.895-4.962 7.81-2.27.08.053 4.814 3.87 5.237.822 1.344-9.65-4.805-2.07-6.465-9.17-.618-2.65 2.494-3.806-.155-6.284-2.006-1.883-1.273-5.01 1.676-3.895 2.77 1.06 6.51-17.854 8.164-20.54 5.414-8.787 8.182-10.472-2.986-7.258-2.932.84-.232-5.275.74-5.865 3.024-1.834 7.384 1.175 10.716.576 8.297-1.498-5.866-5.445-6.222-6.287 4.058-1.365 7.52-.006 11.234-.842 3.91-.905 2.23-3.612 4.398-5.594 2.556-2.334 8.348-.845 9.173-6.167.558-3.6-4.878-7.187-7.764-7.82-8.373-1.825-11.03 6.496-18.092 4.206-1.797 2.014-23.27 15.648-24.438 14.795-2.118-1.596 16.14-14.88 16.898-16.096 1.182-1.894 3.554-5.554 1.67-7.81-3.345-3.985-5.16 3.292-6.526 4.33-3.394 2.57-19.97 2.265-6.9-3.982 3.855-1.868-6.284-3.856-4.035-3.418-5.16-1.003-9.06-.45-13.94 1.084-2.925.92-5.805 2.83-8.756 3.486-2.173.467-1.662-3.517-.176-4.232 9.72-4.63 15.6-4.98 25.955-4.077 1.73.15 25.492-1.656 20.205-7.41-2.416-2.633-17.28-6.255-17.28-6.21-.002.024 10.366-7.89.707-5.133-2.997.845-6.24.302-9.003-1.058-4.378-2.147-9.063.57-13.574.623-2.044.024-12.408 4.308-11.61.725.357-1.608 12.59-6.153 12.612-6.11 1.23 2.566 17.54 2.37 20.493 1.358 3.89-1.328-17.023-8.845-18.35-9.398-1.782-.745-14.455-1.708-15.67.928-.83 1.804-1.256 5.31-3.974 5.16-3.794-.154.082 3.996-1.456 4.673-.795.346-5.522-1.653-5.843-2.642-5.615-3.677-5.577-3.585-11.635-.68.785 6.16 3.706 2.83 6 7.603.786 1.64 1.285 10.206 1.677 10.133-3.616.642-3.402-7.092-4.86-9.286-3.06-4.64-5.933 2.353-8.872 1.147-9.853-4.003-.158 20.874.126 20.953-5.723-1.65-9.398.285-10.712-6.7-.51-2.704-.363-14.614-5.67-13.74-3.534.58-2.37 9.605-2.554 11.864-.754 9.58-10.583-1.946-10.954-2.113-.707.874-4.736 7.413-6.023 6.28-.998-.86 4.57-13.017 5.017-15.067 1.104-5.094-7.215.06-8.697.44-7.104 1.813-12.997-4.21-12.856 5.592.09 6.292-1.415 7.582-2.695.347-1.875-10.448-6.645 5.393-6.64 5.39-2.23 1.69-3.05 5.2-6.245 5.118-2.48-.08-2.836-3.45-5.292-.264-.92 1.184-2.458-1.685-3.753-.065-2.656 3.335-6.447 4.508-9.816 6.872-12.397 8.698 5.945 6.344 6.284 7.66.43 1.725-7.904 11.177-9.193 12.472-7.852 7.89-28.14-.563-35.458 10.984-1.398 2.21 8.7 13.417 7.208 13.784 1.987-.485 12.562-1.406 10.884 3.26-1.34 3.75-5.855-.44-8.508.685a5.792 5.792 0 0 1 2.455 2.502c-1.586.332-15.942-4.444-13.654 1.82.296.802 8.035 6.447 6.092 7.244-4.81 1.908-4.32 9.78 1.486 8.898 2.346-.355 1.818-3.267 4.566-2.255 3.313 1.217 6.863 1.806 10.392 1.48 4.565-.422 10.073 2.874 13.04 6.142 1.577 1.732 7.168 3.757 6.18 7.17-1.017 3.472-2.427 4.917-.33 8.246 4.378 6.953 1.187 12.792 2.606 20.257.462 2.434 1.782 8.64 1.107 11.07-.78 2.808-2.887 4.98-2.946 8.05-.006-.002-.007-.004 0-.004.216.372 1.532 2.136.063 2.92-9.023 4.815-.134 6.838 1.166 4.094 5.813-12.498 14.702 17.984 8.43 16.615-.246-.052-13.195-10.838-13.028-5.168.16 5.455 10.43 8.4 14.438 9 1.095.164-1.076 10.663-1.388 11.06-.832 1.06-10.347 5.885-10.318 6.06.162 1.134 7.588.722 6.422 7.71-3.787 3.43-11.704-2.207-13.824 2.906-1.256 3.028 3.657 8.853.8 10.464 0 .51-.013 1.048-.02 1.567.003-.002.003-.002.003 0 .014-.007.016-.005.006 0 .91-.272 8.2-3.56 6.727-4.915.342.343-10.686 8.116-8.276 10.877 1.745 2.024 5.367-2.71 6.164-.336-.214-.66-12.016 14-1.735 11.03 10.145-2.93-2.094 7.5-1.6 8.15 2.396 3.128 6.435 16.164 5.882 20.18-1.375 10.153 12.93 5.692 16.983 7.215-1.66 3.443.745 11.485 6.152 8.168-.203.133 2.264-4.91 2.65-5.555 1.636-2.737 2.358-6.023 4.786-8.378 3.213-3.12-2.366-7.154 2.82-9.7.806-.397 3.122-5.133 3.416-5.94.584-1.6 2.652.547 3.188-.186 2.314-3.127-.003-13.67 4.27-15.107 3.453-1.16 11.35-4.288 12.94-6.95 4.435-7.416 2.434.275 7.536-.056 6.342-.425 11.746-5.638 15.314-10.412 1.3-1.745 8.812-12.226 9.3-12.35 2.29-.575 3.595 3.24 7.065 1.994 4.767-1.72 10.765-2.91 15.718-3.94 7.595-1.573 14.406-7.945 20.323-12.634.143-.114-2.033 1.61 0 0z"/><path d="M1596.25 102.654c-4.334-.66-.996-6.982-4.583-8.74-6.982-3.425-2.34-5.02-.598-8.778 3.586-7.74-7.647-16.52-15.052-14.832-2.693.613-2.704 3.836-5.462 4.302-4.875.828 5.237 8.376 5.446 9.767.724 4.686-8.205-2.05-8.646-2.61a120.057 120.057 0 0 1-5.186-6.056c-1.85-2.7-4.924-.006-7.263-1.51-3.48-2.243-9.628-1.826-13.518-2.297-3.492-.42-12.965.632-15.61-1.542-8.925-7.34-24.432-3.422-33.995-.738-3.33.932-9.297.182-12.19 2.192-1.268 4.907 5.18 7.476 7.707 10.17 2.965 3.16 5.634 6.765.867 9.683-2.614 1.614-8.734-3.3-11.674-4.38-2.437-.89-4.584-7.083-6.808-5.73a7.847 7.847 0 0 0-1.65 3.593c-1.68 2.6-5.172 1.7-7.7 2.365-4.352 1.145-9.353.786-12.828 4.245.233-.23-2.27 11.656-4.76 6.898-2.303-4.368-10.578-1.103-11.416-3.167-2.223-5.51-3.398-9.147-8.477-12.615-10.762-7.375-29.894 12.415-34.748 7.843-5.88-5.538-7.83-4.155-14.76-4.56-10.4-.607-1.03-13.357-14.696-10.165-5.603 1.308-4.49 4.75-4.63 9.406-.15 4.882-5.583 5.69-4.194 2.014 1.886-4.948-1.764-5.274-4.892-2.998-4.714 3.395.727-7.047.427-5.54-4.314 0-19.217-1.098-22.515 1.517 7.23 3.092.263 4.084-1.016 7.896-.716 2.146 1.98 1.582 2.75 1.047 3.193-2.193 2.438 4.047 3.124 5.038 1.7 2.48 6.413 9.75-1.2 6.625-4.377-1.788 3.967 9.822-2.294 6.806-8.28-3.996-8.285-4.32-14.334.585-4.666 3.782-13.905-4.664-10.564 4.178 8.956 23.7-23.568-3.59-23.49-3.797-.53 1.377 11.166-6.25.183-5.382-2.18.17-4.055-7.255-6.664-8.892-4.298-2.696-8.072-4.097-12.357-.648-4.924-2.384-15.037-3.765-10.565 4.53 5.16 9.583-20.9 11.972-23.22 3.877-1.013-3.606-8.38-.678-11.084-.085-6.276 1.38-4.81 3.637-7.773 6.638-1.927 1.944-2.64-5.06-5.65-2.67-2.04 1.62-5.43 2.133-7.38-.024-1.54-1.702-6.622-2.675-6.775.78-.135 3.49 3.57-.495 4.246.47 2.013 2.86-5.48 10.69-7.782 11.978-1.54.86-4.844.843-3.535 3.482.9 1.803-.006 3.92-2.052 4.076-1.54.143 3.605-25.463 4.742-27.415 2.468-4.166 7.306-15.88 3.918-20.324-1.44-1.884-10.906-4.914-2.798-5.388 0-4.87-7.312-2.505-8.71-5.128-2.893-5.407-11.055-6.95-15.674-4.75-6.19 2.948-2.747 6.698-7.34 9.314-6.245 3.554-2.227-7.988-4.897-9.768-.737-.49-12.26 2.107-12 1.15 1.588-5.914 2.178-7.25-4.7-8.858-6.6-1.562-6.842 11.146-5.476 14.862-.697 5.62 7.84 6.757 8.688 9.36.4 1.205-8.776 2.205-10.167 2.724-.116 2.86 7.266 2.196 5.398 7.05-.688 1.78-4.622-5.26-7.262-1.707-.876 1.18-6.704 8.168-8.812 6.252-2.814-2.557-.607-3.55-5.592-2.42-6.467 1.46-2.783 1.622-2.2 4.66.296 1.52-11.936 8.515-13.618 10.26-4.382 4.545-2.948 10.524-7.675 13.726 4.2 2.41 7.264 6.275 11.345 9.487 1.437 1.138-2.84 8.8-1.934 8.7-4.357.522-1.243-5.31-2.09-5.72-2.886-1.438-15.38 5.608-19.045 6.597-5.245 1.37.288 7.35 1.302 9.308 4.723 9.117 17.123 7.696 20.615 18.297 1.747 5.305 6.55 8.492 5.72 14.598.682.654 11.116 7.616 6.74 6.857-2.007-.342-9.386-4.152-10.614-5.95-1.2-1.75.902-4.142-.534-5.732-1.82-2.03-1.855 2.84-3.517 1.768-2.986-1.903-.823-15.003-3.062-14.78-5.89.577-7-.182-11.955-2.936-2.69-1.495-8.908-4.88-11.374-1.53-1.237 1.723 3.93 3.235 1.66 6.14-2.672 3.396-5.726-2.692-7.93-.122-3.653 4.262 16.447 9.48 13.654 11.015-1.212.656-11.955-1.13-13.84-1.867-3.94-1.562-5.19-8.173-6.126-11.55-5.683 1.74-3.122 12.58-.558 15.024 6.76 6.43 4.728 13.85 9.576 21.577 1.932 3.082 5.973-1.583 7.868-1.94 2.85-.534 8.77 2.123 10.904 3.832 2.17 1.737 4.252 4.16 3.34 7.13-1.12 3.637 5.185 6.226 5.354 5.78-2.818 7.815-9.125-5.912-9.943-7.113-5.52-8.08-15.66-3.17-9.64 3.772 5.354 6.18-2.034 15.132-3.35 21.212-1.422 6.565-15.418.103-18.797-1.8 3.084-4.324 7.74.834 10.695-.116 6.983-2.312 3.184-15.296 3.567-19.773.063-2.124-.856-3.658-2.757-4.602-3.733-2.117-4.613-6.527-5.913-10.218-1.447-4.113-2.42-8.666-4.372-12.58-1.472-2.956-4.58-4.295-6.032-7.1-2.322-4.48-.197-10.627-2.35-15.444-3.45-7.74-14.506-2.707-14.308 4.5.102 3.65.968 7.798-.188 11.368-1.155 3.564-4.968 6.72-1.004 10.54 3.108 2.993 1.595 13.56 6.468 13.686 8.1.163 16.218 19.137 4.612 11.142-9.28-6.393-21.784-10.532-32.797-10.11-5.805.233 2.418 9.316 2.447 10.102.23 6.472-6.162 8.507-8.787 2.266.07.167-12.817 3.763-14.12 4.583-3.618 2.274-2.99 5.355-8.855 3.953-2.218-.513 1.333-3.544-.347-4.86.45.367-8.632 3.812-9.24 3.964-5.765 1.46-7.22 8.162-12.337 10.35-3.135 1.334-.39 6.63-4.96 7.818-3.4.887-10.176-1.71-9.69-6.28.664-6.224 6.927-2.687 1-9.196-6.06-6.678-5.78 3.844-5.506 6.625.556 5.498 3.594 8.707 3.48 14.26-.135 5.34-5.548 1.67-8.812 1.232-3.035-.4-7.52 6.43-9.007 8.502-3.024 4.208 5.337 6.403.397 11.08-1.966 1.844-10.663-3.55-12.35-4.642-1.333-.41-2.265.05-2.795 1.375-1.215 3.996 3.584 4.534 5.944 5.396 3.374 1.238.826 6.628-2.7 5.62-3.383-.96-10.993-3.997-11.692-7.85-.572-3.184-2.746-13.082-5.77-14.31-2.522-1.02-10.052-4.737-8.87-8.305.1-.287 24.43 7.31 27.174 7.15 13.24-.764 15.05-12.59 4.98-19.407-4.782-3.233-24.19-17.226-30.23-11.99-2.466 2.132-8.195-1.296-9.387-3.777-3.9.836-11.412 1.1-12.926-3.88 2.438-1.93 6.692.48 7.33-4.113-6.64-4.437-15.2 3.943-13.006-5.466.567-2.525-4.12 3.38-3.982 3.103-2.586 5.22-1.34 1.375-4.063.83-1.438-.287-1.796 5.61-4.24 5.895-.28.03.663-11.453-2.84-6.78-2.084 2.797-4.03 4.83-5.23 8.13-2.274.876-4.285-2.708-7.028-1.313 1.543 3.182-.653 6.853-4.22 7.58-4.737.966-2.368-2.4-4.895 2.653-.648 1.317-6.308 2.896-8.002 5.553-3.277 5.138 2.164 2.778-3.758 7.327-1.495 1.146-6.938 7.738-5.46 9.467-.25 2.284-5.843 5.047-6.774 8.483.916 2.03-2.386 12.476-3.75 13.972-2.74 3.032-6.635 5.583-8.9 8.933-4.855 7.18 4.04 2.036 4.03 2.027 4.786 4.104-11.872 4.568-11.4 9.853-2.673 1.756-4.426 2.315-7.324 4.303-6.483 4.448-1.932 2.11-4.084 5.552-1.595 2.55-3.153-.035-3.65 4.615 1.022.21 10.472-1.2 10 .64-1.257 4.7-6.942-.29-9.105 2.103-3.355 3.717 3.177 4.332 3.977 5.427 1.314 1.803-3.695 7.88-4.09 7.376 1.39 1.833 7.335 3.494 2.308 6.282-4.073 2.263 7.403 6.386 10.118 5.332 3.784-1.474 5.416-7.69 8.718-8.138 3.987-.528 1.3-4.13 4.31-5.926-.73.44 12.344 32.187 13.666 35 .322.68 13.387-5.59 14.038-6.89 4.378-8.718-.913-16.168 7.638-23.04a24.27 24.27 0 0 0-8.696-2.248c3.246-3.536 10.77 1.316 11.166-4.203.364-5.116-7.42-5.73-8.315-10.274-1.363-6.936.48-13.572 4.963-18.7 3.97-4.543 12.577-7.98 11.71-15.42-1.248-10.766 7.116-15.64 16.74-10.585 9.144 4.813-12.7 22.27-14.254 27.005-1.21 3.688 1.6 13.56 2.267 17.46.226 1.32 8.654 7.24 10.572 7.54 8.08 1.266 23.792-12.793 30.17-1.463.88 1.606-8.395 7.6-9.84 7.56-6.072-.172-11.325-2.46-17.03 1.473-5.393 3.676 3.478 8.205 3.428 11.168-.178 9.382-2.537 9.644-8.258 4.075-6.96-6.755-5.847 20.064-5.727 19.882-1.36 2.07-8.52 6.574-11.11 5.724-2.764-.91-3.04-4.135-6.428-3.283-2.86.722-5.124 2.293-7.632 3.747-1.994 1.155-8.076 6.664-10.25 5.004-6.103-4.68-7.317-2.81-13.954-1.667-2.84.493-7.59-4.14-8.5-6.225-1.86-4.266-.552-5.45 1.93-9.01 4.216-6.056 1.186-1.095-.1-6.59.427 1.834-.11-12.697-2.523-3.703-1.584 5.905-6.368 5.8-5.7 12.04.684 6.405 6.875 12.202.76 17.314-1.064.897-9.444 1.118-11.658 1.79-4.934 1.487-8.98 4.65-9.227 10.248-.2 4.528-4.175 5.787-8.08 7.513-3.816 1.688-1.94 7.206-7.085 7.936-2.653.376-2.523 3.146-4.807 3.837-2.275.692-5.677-2.444-7.04-1.298-1.438 1.208 1.546 4.882-.82 5.602-4.62 1.408-8.487-1.237-12.896 1.288-3.638 2.08 2.81 4.747 3.264 4.908 5.518 1.953 5.636 3.973 8.9 8.14 5.977 7.63 8.02 24.716-6.498 22.962-5.028-.608-23.332-4.078-26.52-.803-.96.982-3.857 1.603-4.502 2.803-.91 1.684 1.55 10.62 1.458 13.136-.156 4.295-1.066 8.534-3.31 12.255-1.74 2.96 1.31 4.3 2.044 6.955.952 3.45-1.1 7.583 4.42 7.903 5.51.34 6.277-.266 9.648 4.65 1.843 2.72 15.502-2.666 19.186-2.905 5.214-.344 14.762-9.764 12.18-14.65-3.775-7.19 8.935-13.26 13.038-16.063 6.893-4.72-.763-15.658 11.532-14.063 8.222 1.068 12.048.896 18.763-5.503 6.445-6.174 12.887 8.13 15.988 11.257 5.996 6.044 12.575 8.088 18.917 13.305 3.208 2.64 6.555 5.426 7.852 9.443.434 1.344-.563 8.614-.374 8.706 2.328 1.206 5.584-7.973 3.495-10.388-5.878-6.8 7.896-5.724 7.458-5.027 1.477-2.317-11.602-6.614-12.112-8.083-1.167-3.357-5.213-2.472-7.478-4.657-2.427-2.344-3.633-4.945-5.646-7.603-1.953-2.578-13.096-9.782-7.46-14.682 7.584-6.565 4.85 1.185 8.05 2.384 1.35.505 2.166-1.958 3.696-1.64 3.507.73 4.104 6.694 6.02 8.902 4.392 5.056 13.18 6.094 18.037 11.335 4.897 5.297 2.728 11 6.968 16.76 2.063 2.805 4.45 8.066 7.648 9.77.88.47 8.576 1.214 7.646 2.895-.787 1.45-4.47-.68-6.51.604-2.593 1.654 4.29 6.985 5.91 7.124 1.536.122 6.274-8.625 5.537-10.618-7.047.372-3.317-5.855-6.246-9.586-5.07-6.45 4.62-3.128 5.074-3.377 5.03-2.742 8.624-7.977 14.97-2.57 3.87 3.32.093 1.425.74 5.598.786 5.076 4.39 5.163 2.125 11.334 4.65 5.173 6.235 6.97 12.422 10.322 7.446 4.04 4.533.082 11.288-1.308 6.188-1.272 8.787 6.246 15.503 3.63 8.002-3.117 13.03-7.817 12.662 4.02 3.345 10.82-6.528 35.595-21.215 27.55-3.252-1.76-8.788-.28-11.608 1.58-3.26 2.168-9.464-.752-12.75-1.42-6.63-1.347-19.022-1.998-24.028-6.988-4.094-4.074-15.95-2.57-16.347 4.264-.326 5.666-.772 14.524-9.034 8.394-3.965-2.958-13.743-3.182-15.843-6.993-5.395-9.85-13.98-5.025-22.674-9.52-6.878-3.55-9.464-4.71-3.76-10.886 1.23-1.34-2.062-11.808-1.747-11.76-1.948-.302-2.466-2.464-4.405-2.755-2.468-.37-5.568 1.777-7.837 2.142-9.51 1.526-19.75.438-29.367 1.746-6.895.94-11.38 4.198-17.912 6.117-5.537 1.62-17.153 6.36-22.86 1.292-5.202-4.598-5.6 7.16-10.204 9.853-6.328 3.71-16.683 10.543-14.534 19.614 1.643 6.91-5.65 12.395-10.95 15.424-2.768 1.578-5.07.932-7.033 3.628-1.74 2.41-2.544 4.97-5.41 6.397-3.866 1.922-9.5 12.395-11.23 16.24-4.043 8.966-6.955 10.105-3.33 19.275 2.55 6.448.892 15.57-.72 21.88-.794 3.12-1.05 5.97-3.187 8.576-2.786 3.37-.104 4.022 1.402 7.353 1.36 2.992-.313 4.668.843 7.77 1.342 3.607 4.234 2.638 6.556 4.764 3.64 3.33 7.682 8.77 11.03 12.563 4.267 4.783 2.78 12.81 10.443 15.226 7.487 2.348 12.383 10.548 19.95 13.447 5.467 2.11 14.97-3.786 21.34-3.732 7.266 0 14.59 3.565 21.265-1.258 5.276-3.81 17.498-7.74 23.797-5.22 5.435 2.195 5.982 11.56 11.156 11.96 5.04.41 13.963-4.624 17.346.808 2.76 4.447 2.777-1.853 4.25 6.798.885 5.19-2.972 9.907-2.655 15.19.153 2.286-2.025 5.692-2.98 7.673 1.35 3.458 2.652 6.734 5.083 9.62 4.613 5.476 10.524 8.626 12.78 15.872 1.492 4.788 7.557 12.563 6.064 17.895-2.093 7.47 7.262 15.53.528 22.192-8.87 8.77-13.717 25.793-6.36 36.523 10.76 15.696 8.51 32.96 15.006 49.657 2.852 7.334 7.776 12.716 10.41 20.427 1.165 3.41 4.436 7.54 3.955 11.354-.19 1.516-2.322 2.906-1.324 4.53 1.782 2.896 4.233 12.488 10.167 9.913 5.82-2.52 13.595-4.02 19.965-3.924 16.345.25 30.12-8.887 39.05-22.743 3.63-5.624 10.373-9.803 12.227-16.318 2.08-7.247-.785-15.378 9.28-17.004 10.193-1.638 8.494-12.932 6.88-20.41-2.348-10.872 1.745-11.327 9.674-18.107 5.558-4.752 12.85-6.786 18.104-11.643 6-5.545 4.982-12.812 5.402-20.165.22-3.822-.533-7.563.31-11.368.544-2.47-4.19-5.797-4.92-8.156a30.865 30.865 0 0 1-1.047-13.35c.58-4.207-3.982-5.033-2.13-9.742 5.714-14.573 18.054-26.33 29.604-36.776 9.79-8.854 20.297-14.42 26.81-26.642 5.098-9.57 14.252-21.896 12.256-33.378.102.6-27.86 4.315-31.396 6.026-6.105 2.956-7.58.57-11.892-3.615-3.876-3.765-2.06-7.652-6.96-13.02-7.797-8.536-15.547-9.89-19.127-21.465-1.543-5.012-5.04-6.586-8.61-10.078-4.632-4.508-1.758-13.447-5.15-18.68-1.938-2.982-6.694-3.67-7.68-7.156-1.538-5.455-2.45-8.574-5.736-13.655-1.69-2.617-14.305-23.68-13.08-25.46 1.01-1.47 5.263 5.315 5.618 5.74 5.434 6.564 4.57 2.82 7.12-2.232.725.257 5.238 7.957 6.064 9.077 3.51 4.722 8.485 10.527 10.06 16.294.828 3.02 7.465 7.498 9.34 11.026 3.29 6.13.32 11.368 7.45 15.866 5.788 3.624 6.256 10.006 10.854 14.62 5.53 5.51 4.7 9.958 6.617 16.88 1.424 5.147 1.694 13.483 8.77 12.458 3.106-.45 3.934-2.895 6.567-3.878 2.37-.888 5.02.14 7.48-.472 4.564-1.138 8.806-4.196 12.783-6.416 4.844-2.706 14.444-1.998 16.526-8.486 1.292-4.012 8.817-4.657 12.178-5.69 2.59-.79 10.245-6.632 11.68-9.55 2.095-4.26 4.335-2.522 5.733-7.833.965-3.67 13.015-10.807 8.697-15.447-4.382-4.69-5.525-6.285-11.908-7.315-7.318-1.197-5.038-8.887-8.784-12.712-8.3 3.75-6.816 10.72-17.34 11.115-8.537.32-8.933-3.05-9.677-11.197-2.075 1.076-1.115 3.493-2.9 4.858 3.06-2.354-31.868-33.485-10.274-31.975 4.822.338 4.798 1.007 7.117 4.475 4.24 6.33 5.275 7.65 11.512 10.9 3.602 1.876 5.142 4.723 9.42 5.47 4.86.855 10.47-3.832 14.352-2.362 2.714 1.032 3.96 5.766 5.1 8.04 3.596.97 7.25 1.128 10.908 1.826 8.794 1.674 16.443.108 24.983.938 10.322 1.015 16.325-3.953 21.54 8.028 2.938 1.56 5.745 1.958 7.71 5.01 1.718 2.665 8.637 1.115 9.107 2.42.604 1.687-4.693 4.17-5.375 4.772 3.523 3.876 10.513 11.65 15.293 4.216 4.302-6.688 1.948-9.02 4.84 1.59 1.902 7.036 1.63 14.493 4.206 21.52 2.94 8.014 7.452 15.345 10.083 23.43 2.326 7.2 7.197 12.465 9.855 19.537 2.44 6.492 4.23 15.778 11.06 7.847 3.815-4.43 9.433-8.27 8.16-14.567-.823-3.99 3.24-7.034 1.827-10.98-1.397-3.905-1.045-7.846-.938-11.96.137-4.834 8.618-5.83 11.025-9.204 4.287-6.01 10.62-10.19 14.622-16.806 1.6-2.645 5.538-2.13 7.35-4.925 1.688-2.6.785-5.514 3.304-7.564 3.567-2.9 2.98-3.1 7.14-2.34 3.27.602 11.14-.304 10.627-5.303-.37-3.465 7.206 1.19 7.92 3.238 1.018 2.897 1.415 5.633 3.325 8.18 2.33 3.1 6.562 3.61 8.822 6.494 3.537 4.51 7.617 13.36 5.376 19.076-3.11 7.95 12.79-1.378 14.288-3.407 11.66 13.06 13.603 34.09 11.162 50.816-.408 2.995 11.668 13.006 12.686 17.75 1.102 5.14 3.418 13.024 7.106 16.964 1.98 2.103 16.894 12.88 12.805 3.313-2.84-6.646-2.61-14.92-7.61-20.277-2.715-2.908-15.177-7.5-13.396-12.556.725-2.072-4.43-7.564-5.956-8.46-3.654-2.152-1.198-9.06-.377-11.772.92-3.033 3.125-20.525 8.328-10.258 1.3 2.528 5.31 1.868 7.366 3.625 3.202 2.773 6.138 5.854 9.1 8.763 1.98 1.948 5.48 3.44 7.846 4.89-1.045 6.56-.265 7.957 5.06 3.25 6.134-5.43 15.035-8.45 17.053-17.152 1.597-6.886-2.378-17.213-6.937-22.367-1.977-2.24-4.36-3.703-6.823-5.315-3.682-2.455-4.604-6.25-7.797-9.005-4.685-4.04.156-13.82 4.263-16.526 5.717-3.78 8.52-4.503 14.82-2.79 1.635 1.535.366 5.438 3.595 5.41-1.09 0 1.504-4.91 3.51-5.46 5.327-1.484 13.477-8.94 16.936-7.64 9.03-2.173 25.97-10.972 26.3-22.643.115-4.38 3.442-12.652 6.71-15.657 2.754-2.55 1.16-7.316 1.435-10.492.395-4.603-3.81-2.4-6.23-4.24-1.66-1.25 6.748-4.213 4.676-6.638-.78-.91-4.367-2.9-4.045-4.11.364-1.37 6.23-2.31.804-4.546-4.884-1.97-5.156-9.04-8.503-12.414-5-5.042-7.348-2.786-6.318-11.074 2.74-2.49 3.194-5.942 6.41-8.213 1.9-1.344 7.354-1.856 7.672-4.302.457-3.53-4.558-2.28-6.133-2.48-6.5-.826-4.156-2.913-9.24 2.82-3.062 3.447-13.755-6.558-14.476-9.69-1.572-6.84 6.517-3.122 7.07-8.032.33-2.947 7.678-13.13 10.98-12.823 8.025.75 1.655 7.204 2.87 10.87 1.832 5.52 10.89-2.568 14.614-2.87 5.732 2 8.143 4.267 6.88 10.788-1.323 6.836 6.36 2.885 9.397 6.522 1.77 2.114 3.67 10.24 3.83 13.077.63 11.043.77 6.158 9.898 6.137 17.902-.034-13.575-33.66-13.686-34.53-.773-6.17 9.497-8.287 8.324-14.923-1.63-8.98 3.085-10.082 6.806-17.193 2.376-4.537 11.268 4.814 15.933-5.31 3.065-6.724 9.557-16.938 10.014-24.308.35-5.772.996-15.948 4.032-20.922 3.66-6.032-5.458-17.01-5.684-23.146-.298-8.573-4.022-34.084-18.242-31.65-5.252.9-1.69 4.827-7.11 6.988-2.268.913-1.38-2.022-2.447-2.764-1.553-1.082-3.264 2.59-4.713-.61-.507-1.123-1.695-5.995-3.57-5.76-10.783 1.37-6.496-4.87-3.264-11.26 3.333-6.584 5.043-14.86 7.336-21.96 1.815-5.62.67-12.797 2.76-18.09 3.23-8.08 12.834-4.832 18.397-8.968 5.384-4.047 10.29.425 13.442-6.052 2.438-4.992 14.293-2.49 17.5.713-1.455.918-1.94 2.08-1.46 3.497.632.808 11.733-4.933 12.996-6.19 2.374-2.418-3.352-2.023-3.983-3.595-2.873-7.123 1.844-15.31.67-23.02-1.066-7.017 17.2-11.906 17.75-8.628 1.05 6.15.686 7.476 6.715 9.153.8-2.22 4.432-12.29 3.863-14.08-.788-2.425-5.02-8.037-2.95-10.62 1.32-1.638 8.485-3.963 8.988-.182.644 4.822-2.49 3.682.303 10.146 2.78 6.43 5.137 10.618.926 15.954-4.258 5.394-2.678 17.6-3.44 24.308-.73 6.53-1.393 9.222-4.172 15.305-1.526 3.39-.567 9.093-2.113 13.39 2.175 11.075 6.98 21.397 13.366 30.655 2.185 3.164 5.66 11.882 9.394 13.235 4.665 1.685 1.866 13.146 8.613 12.602 2.487-4.383 4.022-8.356 2.027-13.345-2.718-6.75 1.557-4.905 3.1-9.52.69-2.055-2.608-7.595-2.162-10.647.69-4.744 5.77-4.19 6.6-7.532.702-2.83-6.483-8.57-6.525-12.898-.04-3.987-.597-6.584 1.375-10.177-.102.186-5.674-6.184-4.28-10.01 2.146-5.844-4.806-.91-4.89-.883-4.83 1.62-7.716-22.508-8.416-25.45-1.125-4.672 5.52-4.032 6.594-7.26 2.064-6.258 4.21.022 6.723.292 1.104-5.34 6.176-14.138 13.034-8.944 7.73 5.86 4.796 1.334 6.67-5.505 1.655-6.04 5.777-34.63 17.272-32.54 9.63 1.74 4.78-5.18 2.33-9.19-1.487-2.43-5.626-4.56-8.48-4.177-2.817.376-.372-3.845-1.63-5.1-2.732-2.728-5.975-3.86-9.437-5.085-5.494-1.946-2.088-4.656-8.548-1.435-2.907 1.435-2.316-4.213-.53-5.506-1.094.05-1.93-.318-2.505-1.105 1.144-3.67 7.943 2.216 10.403 2.015 5.88-.485 5.422-9.245 4.8-13.436-.818-5.478-6.444-5.845-9.077-9.78-2.613-3.94 2.787-10.54 4.058-5.65 1.11 4.335 6.74 6.73 7.753 1.425 1.37-7.034 8.247-1.687 10.52.456 1 .937 9.482-.63 11.338-.63 3.05-.007 3.405-4.68.815-5.076-1.404-.212 2.276.35 0 0zM538.444 737.428c-1.427-5.813-13.08-6.887-17.364-11.745-5.338-6.055-20.884-9.11-28.64-7.853-.558.093-5.76 3.734-6.09 1.506-1.02-6.952-2.81-4.857-7.797-8.015-11.17-7.057-12.8 2.184-21.01 6.798.045-2.406-1.693-1.886-2.63-3.468-.03-.05 7.908-4.444 8.53-7.456 1.137-5.565-15.51 1.924-17.23 1.198.598-3.34 11.278-11.397 8.46-14.473-5.032-5.507-5.87-12.697-11.29-17.984-4.084-3.982-12.3-7.423-18.06-7.1-5.664.328-8.773.472-13.32-3.21-2.564-2.08-4.156-4.086-6.618-6.106-1.8-1.477-12.848-7.362-12.73-7.77 1.523-5.317-11.1-4.538-8.952-8.93 1.037-2.115-14 2.76-15.788 1.466-3.262-2.352-7.458-1.134-11.092-1.068-3.518.068-4.146-4.168-7.69-5.088-9.248-2.392-12.822 2.412-12.822 10.18 0 3.948-7.187 1.828-3.145-4.726 1.552-2.525-1.17-4.086-.333-6.493.676-1.942 3.906-1.968 2.906-4.42-.37-.886-14.638 5.9-15.043 6.605-1.357 2.313-3.617.173-5.47 1.218-2.92 1.645-2.726 4.837-3.783 7.54-.694.56-7.846 8.666-6.76 8.554-4.396.44-7.577-8.556-14.298-7.838-6.708.716-13.437 7.225-19.11-.88-5.517-7.88-5.816-10.226-4.045-19.73.592-3.185 1.732-5.958 2-9.183.4-4.792-3.56-3.432-6.535-5.91-5.363-4.47-16.227.14-22.497-1.232-1.82-.394 2.128-16.89 3.643-16.867 2.24.057 4.35-10.014 6.627-13.012 6.06-8.01-12.573-3.074-14.523-2.993-2.804.107-9.548 14.32-10.53 16.95-.046.127-16.512 2.147-17.94 1.713-12.13-3.68-17.66-20.127-16.173-31.414.974-7.373 4.377-14.796 4.197-22.113-.313-12.776 8.34-9.457 14.5-15.817 6.098-6.295 10.625-.544 17.832-3.774 2.917-1.296 11.096 8.885 12.552-.136 1.155-7.16 14.715-5.1 19.69-4.235 2.703.47 6.13 4.732 8.833 3.455 3.958-1.88 5.245-.56 7.744 2.716.987 1.297 8.34 31.815 12.38 26.512 9.51-12.512-6.833-29.458 2.877-43.262 2.544-3.628 9.987-7.292 13.6-10.284 3.587-2.967 9.653-8.567 13.46-10.672 4.697-2.66-1.98-3.85 1.752-5.897 3.788-2.04-2.813-21.005 2.614-21.304.728-.046 1.357 11.078 4.384 7.898 3.262-3.422-1.138-7.99 3.978-8.23 5.607-.288 4.288-7.393 6.308-10.49 3.508-5.377 12.3-1.47 15.04-5.69.702-.686 1.528-.914 2.48-.684 4.615-.493.753-3.48 1.757-5.936 2.315-5.65 3.77-8.806 9.54-11.58 4.026-1.934 13.296-2.11 14.386-7.07 3.495-.63 6.85-1.136 10.2-2.375-.61.226 9.566-1.834 6.038 1.848-1.62 1.658-6.718 2.12-9.02 3.248-2.438 1.19-4.8 9.336-.595 7.887 3.95-1.336 4.93-4.726 8.21-6.517 3.742-2.046 9.402-1.488 13.468-3.876 3.387-1.93-9.976-4.646-11.578-6.177-2.85-2.72-4.943-6.773-3.026-10.856.966-2.067-4.292-1.56-4.268-4.167.01-.558 7.124-.986 7.946-3.532 1.2-3.718-4.768-5.15-7.16-4.56-5.66 1.406-11.84 2.678-16.478 6.446-1.523 1.236-10.858 7.32-10.848 7.307 4.377-6.028 10.59-13.272 17.746-15.995 7.69-2.928 6.958-8.498 15.98-7.698 8.732.773 17.48 1.937 26.224 1.327 3.1-.216 5.803-2.572 7.616-4.888 2.923-3.734 6.448-2.294 10.39-3.65 4.64-1.6 9.94-9.3 6.646-14.44-1.526-2.37-3.64-.205-4.93-1.548-.828-.86.393-2.655-.45-3.766-3.414-4.49-12.742 8.073-15.315 5.406-4.237-4.338 14.672-8.82 13.717-10.438-1.53-2.544-12.063-2.967-11.895-5.998.214-3.85-9.42-10.097-4.794-12.905 4.436-2.694-1.04-12.526-3.922-15.9-.527-.613 2.2-2.55 1.46-4.155-1.99-4.342-2.175-9.184-2.793-13.84-3.03.507-5.124 6.928-6.643 9.062-3.204 4.5-8.035 8.123-13.532 9.47-6.834-4.35-8.85-14.338-5.75-20.397 1.52-2.967 3.788-6.583-.918-8-5.687-1.715-5.843-4.754-8.294-9.57-2.213-4.353-21.632-10.986-24.806-5.86-2.094 3.377.94 6.43-1.404 10.167-2.765 4.412.843 9.07-1.035 13.268-1.768 3.948-7.198 5.858-9.223 9.76-.464 2.21.328 4.05 2.378 5.515 2.11 3.573 2.088 8.494 1.854 12.498-.387 6.78-.918 7.645-6.93 11.755-3.06 2.09-13.51 4.235-13.19 8.856.173 2.492-1.48 28.95-4.023 28.006-6.406-2.33-9.76-4.735-13.467-13.463-1.678-3.954 5.715-21.237 2.15-21.997-11.84-2.522-17.235-6.332-25.26-15.584-2.36-2.723-6.65-4.85-9.862-6.48-3.67-1.864-7.192 2.066-10.785.556 2.784-5.627 2.957-9.855 1.604-16.163-.5-2.396-4.212 2.38-4.797.287-1.156-4.138-.184-8.772 1.353-12.728 2.78-7.156 8.036-12.228 12.763-18.142 2.275-2.844 3.572-3.08 6.306-5.178 4.734-3.636.746-6.066 2.848-8.915.872-1.218 7.14 6.286 9.64 1.32 1.503-2.985-4.907-6.09-3.792-7.28 1.917-2.05 9.408 5.34 10.433-1.172.668-4 7.202 1.458 10.028-1.214 5.164-4.868 11.516-7.516 2.958-11.072-1.986-.826-6.694-8.817-2.458-8.235 3.656.505 4 8.65 8.825 7.3 2.26-.63 10.01-5.917 8.046-8.87-3.37-5.088 5.69-2.626 7.587-.523 5.56.365 3.005-2.45 1.874-6.17l.893-.797c2.687.932 3.823 2.993 3.407 6.176.765 3.01 5.66-.715 5.995-.935 10.007-6.67 5.596-6.688 6.853-16.45.677-5.25 5.052-3.027 7.283-8.182 1.817-4.194-3.653-8.146-6.858-10.302-8.91-5.992-5.8 5.74-9.443 8.963-4.19 3.705-7.802 7.182-11.208 11.874-4.567 6.293-8.294 5.488-8.265-3.437.014-3.96 4.393-6.493 3.704-10.17.613 3.273-1.14-7.995-3.3-4.68-.46.706-10.085 11.316-7.22 4.405 3.356-8.054.644-8.557-3.432-12.834-2.687-2.818 4.11-7.04 5.648-8.615 1.44-1.477.58-16.22-.15-18.622-1.694-5.574-8.78-6.743-7.52.007.464 2.49-11.662 1.548-8.227 9.315 1.595 3.615-8.337 6.573-2.286 12.61 3.365 3.355 10.29 3.915 10.302 8.858-7.8-.614-4.74-.75-6.393 4.1-1.31 3.826-4.808 6.95-8.567 8.56-5.454 2.34-4.917 2.58-5.877 9.037-.78 5.203-8.56 2.72-7.423 1.438.306-.348 3.83-.127 3.235-1.67-1.657-4.345-1.134-5.002 1.686-8.96-3.187-6.625-11.013-7.8-7.177.624-10.304.432-28.828-1.792-31.24-14.18-.392-2.012.667-7.364-3.21-7.09-2.91.2-8.06-.546-10.177 1.98-3.003 3.585 11.598-.53 12.088 1.564.903 3.96-13.324 5.025-14.42 8.674.053-.174-5.307 16.74-6.846 10.56-1.035-4.12.37-16.07-6.41-14.504-2.23.518-24.79-.596-20.275-7.21 2.495-3.668 15.297-3.692 6.236-10.764-2.198-1.712-5.77-.92-8.5-2.966-2.907-2.18-6.124-4.416-8.728-6.958-3.167-3.092-6.176-13.986-12.158-7.73-7.66 7.99-4.736-3.772-4.068-6.655-3.01-.188-5.12 7.423-7.835 6.083-5.19-2.537-.984-13-1.436-17.486-.492.116-4.755 5.107-5.798 5.69-4.794 2.687-8.3.46-12.89 3.265 6.792-4.168-11.805-.272-14.874 1.747 4.904-3.223 9.126-4.3 14.89-4.56 4.654-.226 7.772-6.925 3.24-4.597-3.692 1.887-13.41 5.318-17.343 5.3-2.75-.015-6.06 1.913-8.533 2.77-.183.517-.798 9.226-3.322 7.608-1.304-.836-2.29-3.667-3.294-4.693-2.14-2.167-6.332-4.555-7.42-7.54-2.248-6.115-3.69-9.103-9.21-12.637-3.716-2.38-4.195-4.643-6.794-7.89-2.163-2.703-5.554-.452-7.928-2.246-3.527-2.648-15.29-7.11-15.31-11.963-.01-3.147-5.166-1.087-5.98-.914-3.352.725-3.758-3.945-4.63-5.97-.897-2.083 1.65-4.25-.933-5.636-2.187-1.172-5.563-.147-6.866-2.834 1.375 2.834-13.344-1.758-5.61-3.64.88-.215 5.278-.238 3.668-2.686-2.516-3.805-6.556 1.293-9.604 1.848-2.667.483-6.116-.955-8.754-1.324-3.435-.477-3.2 2.673-5.26 4.418C30.287 87.22 23.2 84.23 17.81 87.6 12.128 91.155 7.128 96.72.445 98.36c-5.66 1.39-15.217-4.765-16.775 5.98-.966 6.66 3.407 11.783 1.374 19.314-.972 3.612 6.54 2.833 4.863 7.45-2.025 5.565 9.636 3.23 6.336 7.86-1.073 1.506-11.226 3.385-13.577 3.576-14.325 1.173-.46-18.818-16.448-7.892-1.258.86-18.285.496-14.818 6.414 4.894 8.355 1.91 3.417-1.637 12.273-2.252 5.644 16.19 7.346 18.665 6.24 5.698-2.554 10.997-3.484 6.435 2.575-2.5 3.316-3.275 16.627-11.13 13.386-5.334-2.18-13.69 4.3-17.554 6.99-2.103 1.462-5.69.154-7.765 1.713-3.447 2.578-5.76 6.307-9.26 8.828-5.525 3.99 6.784 11.21 6.774 11.584-.123 3.842-10.52-3.674-8.982 4.362 1.855 9.823 5.728 7.81 11.038 2.895.222-.06.442-.122.663-.18 1.54.013-.956 10.017-1.467 11.193-3.085 7.106-.74 6.733 5.173 9.8 1.127.582 13.854 3.798 13.923 3.685-5.667 9.33-13.46 17.488-23.43 22.284-3.49 1.68-8.36 7.805-11.085 8.623-1.354.406-16.163-1.917-12.67 5.51-.792-1.625 21.74-5.76 23.026-6.955 4.87-4.51 12.05-5.08 16.79-9.308 4.486-4 8.057-6.493 13.97-8.676 3.446-1.27 7.094-5.215 10.364-7.25 2.716-1.674-5.33-8.767 4.293-9.42 6.533-.43 21.65-22.632 29.432-15.288 4.817 4.284-12.432 7.737-12.333 7.632-1.193 1.25-7.08 7.978-6.463 9.4 2.514 5.79-3.15.095-3.504 5.612.025-.45 19.654-4.874 21.805-7.18 2.5-2.684-.312-6.043 2.533-8.506 2.732-2.363 7.733.588 11.568.3-1.912 7.783 6.415 13.532 12.493 15.55 4.046 1.34 7.495 6.258 11.395 6.584 4.848.396 1.305 3.515 3.352 6.61.796.978 1.82 1.43 3.074 1.363.788 1.362-.06 4.964.366 6.317 1.91 6.047 4.406 5.16 4.36-.448-.04-3.814 4.65 5.603 4.637 5.58 2.523 4.45 3.618-10.53 5.465-9.556 2.09 1.09-.518 9.292.195 11.368.798 2.162 2.158 3.842 4.077 5.042-.384 2.556-2.374 5.32-2.433 7.734-.14 5.764 7.826 15.49 4.064 20.506-.005.055.118-.07.183-.13-.126 1.637.03 3.248.468 4.833 1.42-2.507 3.19-3.397 5.31-2.675-2.785-1.018-10.493 18.686-4.832 16.738 4.413-1.514 6.286.222 2.642 4.796.06-.076 1.06 8.472.82 8.17 1.42 1.807 4.222-1.735 5.86-1.817.517-1.967-3.167 2.144-2.12 1.042 3.963 4.21-1.96 4.207-4.33 6.93-.05.058 1.67 2 1.005 3.62-1.003 2.407 4.443 9.332 6.795 9.95 5.127 1.343 16.733 30.266 4.88 30.642 5.844-.083-7.357-14.656-7.58-8.72-.218 6.78.81 13.803-1.582 19.482-3.202 7.557-5 16.053-9.28 23.08-2.065 3.387-2.067 7.272-1.858 11.072.164 2.98-3.862 10.133-2.823 12.184 2.472 4.932-1.516 15.478 4.737 18.524 2.854 1.396 2.03 8.368 1.684 11.228-1 7.875 4.43 15.512 10.325 18.583 10.427 5.435 9.45 12.415 12.91 22.44 1.154 3.348 1.58 9.105 4.456 11.564 2.59 2.23 6.104 6.65 5.203 10.417-.332 1.384-4.53 3.57-2.438 5.487 2.07 1.898 5.27 2.354 6.975 4.67 1.85 2.524 4.38 3.47 4.298 7.008-.098 4.33-1.086 4.198 2.255 7.478 1.106 1.08 12.765 12.52 9.5 6.062-1.283-2.48-3.997-3.258-5.266-5.554-1.42-2.567-1.638-6.987-2.35-9.846-1.462-5.877-4.75-11.62-7.695-17.03-4.186-7.7-7.116-11.31-6.602-20.305.224-4.004 3.595-2.03 5.604-1.15 4.913 2.148 4.18 7.584 5.618 12.156 1.667 5.297 6.294 14.135 10.542 17.777 4.344 3.73 2.95 9.192 6.48 11.586 4.678 3.17 8.91 9.477 11.958 14.312 2.126 3.37 3.51 6.725 4.564 10.56 1.528 5.55-3.1 8.136.197 13.39 6.206 9.907 27.66 16.71 38.285 20.872 3.61 1.414 7.45 2.93 11.407 2.072 2.592-.56 5.152-3.146 7.915-2.583 6.817 1.374 10.568 9.584 16.193 13.044 4.184 2.575 17.52 6.13 22.44 4.782.896-.244 7.837 10.402 10.172 11.788.336 5.59-.057 7.022 5.118 7.72 2.46.33 5.746 4.642 6.768 6.574 1.65 3.12 7.444 2.17 10.358 3.125.688 1.356 7.42 6.852 8.083 2.895.487-2.864 2.898-9.832 7.385-7.93 5.064 2.124 4.765 7.818 7.306 12.228 1.91 3.312 4.782 17.928 2.102 21.324-8.313 10.55-21.056 17.688-19.746 32.948.25 2.79 8.13-1.093 4.963 5.13-2.737 5.378-12.146 8.695-6.23 17.075 3.616 5.123 11.068 6.888 13.172 14.094 2.512 8.56 8.394 16.32 13.065 23.768 1.792 2.858 1.648 6.323 3.4 9.004 2.502 3.827 7.198 6.098 10.822 8.65 7.136 5.032 14.193 8.744 20.92 14.6 4.664 4.06 3.833 14.98 4.253 20.615.535 7.21.547 16.73-.274 23.917-1.868 16.36-4.39 34.946-.104 51.25 1.172 4.478-3.366 23.166-6.208 26.767-2.256 2.862 1.95 9.38 2.966 11.94 1.536 3.863-1.325 10.43-.94 14.654.362 4.028 2.692 4.386 5.292 3.525 4.948-1.562 2.294 10.786 2.29 11.853-.022 5.19 1.492 6.11 2.512 10.257.646 2.625-2.83 9.562-3.382 12.577-1.245.043-9.56-4.726-6.608 2.092 1.086 2.507 5.534.63 5.974 4.058.32 2.456-1.045 6.24 2.106 7.293 2.258.766-.52 7.796-2.222 8.985-9.662 6.76 7.13 8.576 4.598 3.31 1.536 2.68-2.74 6.267.26 8.448 2.864 2.084 2.29 2.65 3.935 6.33 4.555 10.194 2.392-1.863 7.782 3.518 3.688 3.7-6.6 4.142-3.857 7.727.53.696 3.138 4.052 4.39 3.313-.938 0-.126-.472 2.436-1.415-5.17 2.812.144 3.59.11 3.624.168-.187 4.84-5.058 4.177-5.013.143-.01.286-.02.43-.034-.11-.112-.11-.116 0-.01 1.577 1.76-1.94 10.645 2.387 9.092 1.937-.696 1.22-5.85 1.3-7.26.238-4.243 5.256-6.228 8.497-7.36 0-3.858-5.118-7.917-4.46-12.438.5-3.437 4.027-4.423 5.396-7.135 1.436-2.84-.31-5.128 2.15-7.97 1.605-1.858 9.006-12.677 2.027-14.103-6.125-1.253-11.756-7.726-6.69-13.226 3.17-3.442 9.32-4.197 7.155-10.52-.224-.657 1.294-10 1.714-10.557.495-.65 9.083 1.325 5.255-2.332-.242-.23-6.052-.77-5.65-.535-2.64-1.532-2.77-5.546-3.376-8.114-1.223-5.194 10.275.584 12.2-.303 3.078-1.415 3.136-10.367 2.1-13.268-1.84-5.11 4.228-3.13 6.563-3.016 7.976.382 16.135-1.992 19.27-9.61 3.134-7.61-3.202-5.417-1.935-12.438.057-.316-9.478-11.855-6.83-10.724 6.345 2.7 10.928 4.867 18.27 5.168 5.84.226 5.697-5.166 8.74-8.21 4.766-2.91-.607-5.792-1.047-2.878.435-3.005 3.81-3.93 5.03-6.152 1.534-2.8 2.36-5.868 4.085-8.897 1.374-2.414 1.565-6.002 4.787-4.276 2.344 1.253 7.55-10.242 8.63-12.304 2.413-4.54-.456-7.79-.048-12.364.443-4.964 3.935-7.682 7.343-10.77 3.694-3.358 8.196-4.406 11.944-7.4 5.64-4.507 6.4-3.808 13.692-4.077 13.095-.478 18.065-32.036 18.294-41.775.147-6.225-1.15-11.397.542-17.48 5.672-2.704 5.275-4.476 8.93-9.72 8.137-11.647 14.003-13.457 10.236-28.777-.71-2.9.226.916 0 0z"/></g><g fill="#56504F"><path d="M282.507 239.473l12.48 18.227 8.66-6.695L293.19 233h-4.757z"/><path d="M300.27 249.537l17.785 27.288 2.872-1.077 1.077 1.077-5.385 6.912-5.64 1.527-2.26-1.617 3.41-3.77-17.593-27.11zM331.878 256.358l-6.82-2.184-2.335-1.34L273.353 195h-2.156l49.192 58.925.716 3.073.898 6.383zM426 121.712l-45.234 106.28-8.366 10.878 8.594-1.54 2.55-7.242 44.958-108.376-2.502-1.437zM540 318.766l-104.958-4.24-8.558-5.813-7.838 13.115 14.576-3.062L540 321.828zM378.078 358.69l4.788 30.88 2.752-1.436-4.488-31.598zM329.246 327.34L213.03 449.893s5.744-2.273 8.498 3.71c2.453 5.332-.6 7.062-.6 7.062l116.337-123.876s5.137-4.54.598-9.447c-3.77-4.077-8.617 0-8.617 0z"/><ellipse transform="rotate(-31.152 216.74 455.64)" cx="216.741" cy="455.636" rx="4.189" ry="5.506"/><path d="M344.747 323.41c-3.785-4.868-10.017-6.355-13.922-3.32-1.997 1.552-2.992 3.988-2.986 6.648l.42-.444.06-.052c.105-.087 2.59-2.148 5.633-2.148 1.873 0 3.59.785 4.964 2.273 1.592 1.72 2.347 3.607 2.247 5.608-.16 3.163-2.476 5.452-2.89 5.837l-1.057 1.126c2.62.708 5.28.363 7.312-1.215 3.902-3.036 4-9.443.217-14.312zm-11.664-1.14c-.3.014-.556-.315-.574-.734s.21-.77.508-.78c.3-.014.556.315.573.734.02.418-.208.768-.507.78zm8.75 3.355c-.204-.217-.124-.626.18-.915.304-.288.718-.346.924-.128.206.216.125.627-.18.915-.304.288-.716.345-.923.128zm1.15 10.778c-.41-.094-.687-.407-.62-.7.07-.29.455-.45.862-.356.408.095.686.41.618.7-.068.29-.453.45-.86.356zM324.578 259.112l-44.044 42.847 66.785-29.623 41.65-40.395-64.392 27.17zm-31.39 34.81c-.744.518-1.498.722-1.683.456-.185-.267.27-.9 1.016-1.42.746-.516 1.5-.72 1.685-.454.186.267-.27.902-1.016 1.42zm35.19-33.032c-.746.517-1.5.72-1.685.453-.185-.266.27-.9 1.016-1.418.744-.517 1.498-.72 1.683-.454.185.267-.27.902-1.016 1.42zm17.234 8.617c-.745.517-1.5.72-1.684.454-.186-.266.27-.9 1.016-1.417.745-.517 1.5-.72 1.684-.455.185.267-.27.902-1.016 1.42zm30.88-28.725c-.746.517-1.5.72-1.685.454-.185-.266.27-.9 1.016-1.417.745-.518 1.5-.72 1.684-.456.185.267-.27.9-1.016 1.418z"/><path d="M390.764 233.38l-41.112 41.65-67.323 28.725 26.186 43.36 17.89-18.866-.002-1.51c-.006-3.24 1.25-6.004 3.54-7.784 1.58-1.228 3.534-1.876 5.65-1.876 3.79 0 7.636 2.037 10.288 5.45 2.03 2.612 3.123 5.718 3.076 8.746-.048 3.148-1.308 5.838-3.547 7.58-1.572 1.22-3.52 1.867-5.632 1.867-.964 0-1.95-.135-2.934-.4l-.74-.2-19.36 20.616 9.93 16.44 70.01-25.645 36.816-44.55-42.736-73.606zm-72.75 58.517c.542-.355 1.384-.028 1.882.73.498.76.462 1.662-.08 2.018-.542.355-1.384.028-1.882-.73s-.463-1.662.08-2.018zm-15.556 35.444l-14.445-23.767 11.072-4.964 14.88 24.747-11.507 3.984zm14.94-5.512l-15.023-24.717 11.072-4.964 15.8 25.374-11.85 4.308zm11.036 51.81c-.54.356-1.383.03-1.882-.73-.498-.757-.463-1.66.08-2.017.54-.355 1.383-.027 1.882.73.497.76.46 1.663-.08 2.02zm61.564-136.417c.58-.286 1.378.14 1.78.954.403.813.258 1.706-.322 1.993-.58.288-1.377-.14-1.78-.952-.403-.813-.26-1.705.322-1.994zm3.28 8.367l14.658 24.216-6.01 7.313-14.87-25.306 6.222-6.223zm-27.168 27.887l14.96 24.894-6.703 7.54-14.96-25.732 6.703-6.702zm-9.146.372c.582-.288 1.378.14 1.782.953.4.81.257 1.704-.324 1.992-.58.287-1.376-.14-1.78-.953-.402-.814-.258-1.707.322-1.994zm-8.423 9.31c-.54.354-1.383.027-1.88-.73-.5-.758-.463-1.662.078-2.018.543-.356 1.385-.028 1.883.73.5.758.463 1.66-.08 2.017zm.296 42.86l22.54-9.095 8.378 15.2-22.203 8.258-8.714-14.362zm15.504 34.696c-.542.355-1.384.028-1.882-.73-.498-.76-.462-1.66.08-2.018.542-.355 1.384-.028 1.88.73.5.76.464 1.662-.078 2.018zm2.855-3.802l-8.304-14.257 22.54-8.498 7.985 14.488-22.22 8.267zm15.79-60.337l-14.96-25.014 6.702-6.704 14.96 24.177-6.702 7.54zm-4.907-35.786l6.702-6.702 14.96 24.895-6.7 7.54-14.962-25.733zm19.123 85.66c-.58.29-1.376-.138-1.78-.952-.4-.812-.258-1.704.323-1.992.58-.29 1.378.138 1.78.952.403.813.26 1.706-.322 1.993zm0-46.676c-.58.288-1.376-.14-1.78-.952-.4-.813-.258-1.705.323-1.993.58-.288 1.378.14 1.78.952.403.813.26 1.705-.322 1.994zm12.927 20.826c-.58.288-1.378-.14-1.78-.952-.403-.812-.26-1.705.322-1.993s1.377.14 1.78.954c.402.812.258 1.705-.323 1.992zm2.57-1.83l-15.248-25.095 6.222-7.06 15.036 24.842-6.012 7.314zm7.9-10.053l-14.87-24.467 6.222-7.062 14.658 24.215-6.012 7.313zm8.92-1.044c-.58.288-1.377-.14-1.78-.953s-.26-1.705.32-1.993c.583-.288 1.38.14 1.78.953.404.813.26 1.706-.32 1.992z"/></g><path fill="none" stroke="#5C979B" stroke-width="1.5" stroke-miterlimit="10" d="M464.142 196.15l1.81 88.762 71.553 42.568-60.683 26.266-25.36 67.93M792.92 213.36l-98.725.905 37.135 65.212-129.518 23.55L699.63 427.11M621.737 524.928l-44.38-108.687-85.138 32.607 5.433 89.667-156.69 30.794M900.7 507.72l-74.27-5.642-32.606-32.4-37.135.348M694.195 173.508l-40.086 10.564 37.368 28.382-96.007 48.91-57.965 66.116M294.772 619.123l97.82-21.738 39.85 58.873"/><path fill="none" stroke="#5C979B" stroke-width="1.5" stroke-miterlimit="10" d="M664.307 426.204l-5.435 86.044-289.83-26.38-75.193 128.27"/><path fill="#AB3434" d="M895 502h11v11h-11zM487 443h11v11h-11zM461 279h10v11h-10zM596 297h11v11h-11zM757 464h11v11h-11zM427 651h11v11h-11zM289 614h11v10h-11zM572 411h11v11h-11zM367 483h11v11h-11zM689 209h11v11h-11zM336 564h10v11h-10z"/><path fill="none" stroke="#5C979B" stroke-width="1.5" stroke-miterlimit="10" d="M688.76 102.86l72.46 11.776 32.604 99.63 57.967-35.324M433.347 145.43l56.184-13.898-25.388 64.62"/><path fill="#AB3434" d="M826 317h11v10h-11zM532 322h11v11h-11z"/><path fill="none" stroke="#5C979B" stroke-width="1.5" stroke-miterlimit="10" d="M590.037 353.746l83.326-20.83-23.55-118.65 81.517-40.758 105.97-33.512"/><path fill="#AB3434" d="M694 422h11v10h-11zM689 168h11v11h-11zM586 350h8v7h-8z"/><path fill="none" stroke="#5C979B" stroke-width="1.5" stroke-miterlimit="10" d="M346.398 464.244l214.656 5.435-134.047-62.496 76.08-20.832-68.834-110.498"/><path fill="#AB3434" d="M343 461h7v7h-7zM434 276h7v7h-7zM646 211h7v7h-7zM670 329h7v7h-7zM823 499h7v7h-7zM557 466h8v7h-8zM499 383h8v7h-8zM728 170h7v7h-7zM834 136h7v8h-7zM683 97h11v11h-11zM756 109h11v11h-11zM846 173h11v11h-11zM428 140h11v11h-11zM590 256h11v11h-11zM459 191h11v10h-11zM726 274h11v11h-11zM492 533h11v11h-11zM616 519h11v11h-11zM653 507h11v11h-11zM659 421h11v11h-11zM446 416h11v11h-11zM788 209h11v11h-11zM471 348h11v11h-11zM423 403h8v8h-8z"/></svg>