<svg xmlns="http://www.w3.org/2000/svg" xmlns:xlink="http://www.w3.org/1999/xlink" width="1200" height="1200" viewBox="0 0 1200 1200"><path fill="#10384C" d="M1152.23 554.887c0-305.555-247.69-553.23-553.23-553.23S45.77 249.333 45.77 554.888c0 305.527 247.69 553.23 553.23 553.23s553.23-247.704 553.23-553.23z"/><defs><path id="a" d="M1152.23 554.887c0-305.555-247.69-553.23-553.23-553.23S45.77 249.333 45.77 554.888c0 305.527 247.69 553.23 553.23 553.23s553.23-247.704 553.23-553.23z"/></defs><clipPath id="b"><use xlink:href="#a" overflow="visible"/></clipPath><g fill="#EFEBD7" clip-path="url(#b)"><path d="M423.873 319.555c1.02 1.298-.03.203 0 0 .005.006-.027.19 0 0zM870.122 329.968zM869.375 330.436c-.033.05-.065.1-.1.14.035-.043.067-.09.1-.14zM36.71 91.405c.006.768-.297 1.137-.91 1.107 1.96.352.083-2.753-.098-2.388.335.428.672.854 1.008 1.28.103.237-.215-.48 0 0zM10.21 146.762zM2.513 106.053c-.03-.226-.03-.23 0 0-.006-.043-.006-.044 0 0zM2.445 105.84c-.023-.02-.056-.037-.088-.057.032.02.064.038.088.058zM2.333 105.77c-.086-.047-.19-.09-.267-.138.076.047.18.09.267.138zM1.105 106.306c.808-.917-1.27 1.446 0 0 .078-.086-.182.208 0 0zM84.458 911.598c-1.218-1.156-6.735-2.935-7.5-.12 1.013-3.84 7.106.647 7.5.12-1.935-1.836.003-.003 0 0zM198.532 159.202c1.172-1.757 1.49.192 0 0 .002 0 .455.06 0 0zM1238.872 738.563c-.438-6.952-7.353-10.264-9.16-16.33-.7-2.344.584-4.585-2.05-5.852-3.277-1.554-3.436-1.73-4.366-5.48-1.767-7.114-5.03-9.708-10.357-14.095-4.934-4.062-5.977-12.283-7.21-18.54-.812-4.122 1.272-12.55-5.447-12.55-3.926 0-4.493-11.97-5.538-14.69-3.44-8.946-5.02 2.726-6.045 6.8-1.913 7.613-2.105 15.053-4.93 22.53-3.256 8.627-7.842 4.894-13.113 1.146-5.73-4.073-12.763-6.183-16.613-12.637-2.715-4.542 3.61-9.305 5.452-11.936 4.19-5.993-8.83-4.72-13.254-6.035-7.27-2.165-22.02 4.155-24.462 13.09-2.197 8.03-.84 1.862-7.608 6.014-1.48.89-3.795-8.972-10.292-5.47-3.01 1.625-7.8 5.185-9.44 8.264-.83 1.56.29 4.933-2.69 5.046-4.608.146-.023 3.314-3.452 5.255-.824.467-8.48-7.946-7.718 1.02.743 8.492-9.736 13.097-16.22 14.258-6.57 1.207-31.35 7.087-32.173 15.538-.337 3.602-2.06 6.068-2.713 9.51-.77 4.055 1.563 6.84 2.18 10.6.52 3.068-3.347 3.876-2.703 6.45 1.25 5.014 2.4 10.77 3.058 15.888.964 7.51 2.37 16.82-.445 24.015-2.05 5.23-7.176 7.946.803 12.385 5.93 3.3 11.082-.366 16.354-2.91 7.372-3.564 15.895.214 22.494-2.896 2.596-1.224 3.53-4.418 6.127-5.838 2.384-1.302 4.347-1.32 6.58-2.965 3.822-2.813 14.237-3.223 19.143-4.307 6.623-1.465 11.557-1.04 17.202 2.057 2.38 1.305 5.407 1.615 7.896 2.875 3.118 1.565 2.153 5.024 4.13 7.416 2.347 2.86.156 7.78 2.622 10.147.882.85 10.27-9.146 11.34-10.198 8.5-8.366-2.644 14.863-3.57 14.495 3.548 1.438 2.997-5.83 5.85-5.293 2.258.422 1.394 6.775 1.394 7.997 1.692.51 2.364.257 2.737 2.18 1.244 6.34-1.945 15.505 4.663 19.73 2.182 1.397 8.697 5.897 10.914 6.138 4.183.452 5.463-5.79 8.738-5.754 3.71.043 2.088 5.69 4.103 7.068 3.46 2.372 7.94-3.472 10.447-4.858 3.712-2.058 8.852-.148 12.06-2.794 2.98-2.458 3.038-9.52 4.45-12.98 2.8-6.87 9.5-17.86 14.653-23.18 12.71-13.138 17.29-32.33 16.182-50.323-.056-.89.084 1.35 0 0zM94.713.712c3.813-1.34 9.072 5.527 11.958 7.075-.514-.275 4.26-2.692 5.127-2.668 3.964.108 1.723 1.956 4.7-.524 3.295 4.614-.196 1.81 4 1.302 1.547-.188 3.703 5.067 4.198 5.917 1.368 2.354 6.452-1.95 8.305-2.05 7.957-.418 1.016-4.683.725-6.684-.458-3.117-7.328-7.263-7.865-6.27-.835 1.675 12.616.537 13.657.036 2.824-1.358 4.16-6.928 6.47-7.245a20.15 20.15 0 0 0 7.183-.13c1.358-.304-2.983-2.928-.858-3.62 1.418-.46 5.487 2.02 5.63-1.1.15-3.38 3.936-2.18 4.593-6.497-1.286-1.488-7.083-4.816-7.4-5.63-1.014-2.607 3.527-2.043 3.676-2.274-.682-.376-.71-.446-1.707-.084.23-3.135 1.095-2.914 3.147-3.54.038-.04-.096.015.263-.02-.675-.755 10.118.904 10.93.705 2.495-.605-.65-4.27-.052-4.506 2.983-1.24 4.76 4.288 8.516 3.656 4.32-.718 2.972-4.29 1.824-6.23 2.25-1.172 7.103-2.413 9.084-2.678 5.01-.665 10.458-6.745 16.16-7.808 1.155-.212 9.785-4.976 7.587-6.015-2.287-1.103-15.47 4.35-16.302.46-.15-.69 8.063-1.175 8.733-1.338 8.5-2.05-.946-2.16.975-4.8.713-.995 14.755.986 17.658-.54 2.832-1.49 7.878-3.2 9.474-6.272 2.745-5.287-.69-4.04-3.05-6.043-.682-.577.32-5.81.32-5.825.057-4.002-9.752-.717-10.136-.58-3.22 1.148 3.85-4.706-.78-6.658-3.385-1.426-10.643-8.41-14.95-6.023-6.135 3.45-11.1-9.947-14.46 1.693-1.486 5.164-8.296-9.256-10.488-4.22-.445 1.023 2.065 6.455-.418 5.68-3.08-.96-2.12-4.31-4.497-5.043-1.314-.408-.45 6.078-1.73 6.902-1.022.65-.963-5.27-2.686-4.72.126-.04-2.045 4.16-2.157 4.345-3.918 6.396-5.964.196-8.702-3.205-3.025-3.756-5.93 11.585-3.908 9.488-1.996 2.07-4.37-2.526-7.414-.93-5.8-7.228-.74.39-6.252-.843-1.783-.396-9.893-4.845-10.058 1.558-.047 1.867 3.665-.717 4.482 1.002.628 1.302-1.702 2.065-1.674 3.38a8.74 8.74 0 0 1 5.17-.183c-.823.817-6.026 5.346-7.16 5.41-.48.02 11.393 2.982 13.532 3.406-2.082 4.224 1.39 1.604 3.926 4.04-1.635.02-15.994 1.71-10.985 6.235 3.023 2.717 12.92-2.02 13.476 1.4-6.222 3.367 6.073 3.392 8.757 1.64.98-.643 4.18-5.13 6.02-3.514.505 1.047.334 2.036-.513 2.974 2.674.19 4.145 1.332 4.41 3.422.002-.013-12.83 2.69-14.32 2.637-1.864-.066-8.042-1.718-9.574-.454-1.087.896-.58 8.733-2.406 8.21-1.927-.56-6.383-19.52-12.593-9.243-1.187 1.966-.725 8.02-.728 10.043-.005 3.507-2.944 8.343-2.505 11.417 1.138.3 10.01.663 8.014 2.66 2.158-1.583-7.072-2.404-8.02-2.65-2.47 2.843-8.72-1.852-11.204 1.953-.948 1.442-6.97 5.522-5.206 7.78 2.275 2.912 6.882.575 9.08-.79-.62 2.454-1.117 4.593-3.654 5.73-.293 5.052 1.08 3.883 2.506 7.505.853 2.28-2.005 1.925-3.65 1.453-5.457-1.57-2.667-5.563-5.73-8.882-4.988-5.405-2.83 10.38-5.222 10.23-4.66-.278-6.765-.35-10.93 1.73-.923.46-3.942 5.82-2.317 5.256 1.513-.534-.11.04 0 0z"/><path d="M156.674-17.82c-.616.37 1.79-1.018 0 0-.03.016-.035.018 0 0zM149.844-70.4c.61-1.104-1.556.325-1.49.24-.328.283 2.213-1.508 1.49-.24.065-.118.067-.118 0 0zM154.158-65.862c1.865.096-1.92-.15-1.676-.028l1.676.028c.2.01-.557-.034 0 0zM176.172-63.97c-.198.308-.88.786 0 0 0 0-.19.17 0 0zM175.01-63.222c0 .066-1.376.016-1.883.18a6.735 6.735 0 0 1 1.882-.18s-.543.03 0 0zM173.003-62.998c-.008.004-.012.008-.018.012.006-.004.01-.008.018-.012zM173.034-62.313c-1.267-1.13.742.65 0 0-.27-.24.062.053 0 0zM124.55-24.038c1.076-.124-1.01.135 0 0 .338-.04-.1.014 0 0zM141.816 147.12c.343 2.673 1.914 4.483 4.534 5.154 1.502-6.63 10.545-8.405 11.76-13.98.033-.156 3.355-3.38-.47-2.965-6.407.687-3.68-1.075-7.204-4.064-3.59-3.04-.558-5.562-6.77-6.583-1.237-4.206-5.244-7.242-8.017-10.478-1.445-1.69 2.528-2.626 3.035-3.646 2.48-4.98 3.286.212 6.003-2.814 1.21-1.333-8.2-4.447-3.633-5.563 5.202-1.272 4.314-5.515.32-2.938-4.61 2.97-2.865-5.69-6.842.278-1.828-4.21 10.236-4.423 7.21-8.17-1.756-2.175-3.363-.56-5.657-.51-4.835.108-1.06-3.253-4.06-3.077-9.195.53 1.466-4.1 1.92-4.99 2.485-4.85-3.63-3.767-5.472-1.943-2.04 2.018-2.845-.932-4.64-.313-.006-.04.187 2.31.853 1.42-.476-.467-4.398-3.865-4.4-3.783.1-3.73 5.79-5.266 1.474-7.41-.986-.545-1.114-1.247-.38-2.11 2.678-3.05-1.233-4.806-3.852-6.408-7.17-4.404-3.974 3.678-4.67 4.332-1.126 1.064-6.143-.438-6.88-1.504-2.38-3.402-9.79 5.5-6.61-2.214 2.006-4.86 11.032-21.45-1.53-17.675-4.58 1.376-16.067 5.205-14.758 11.473a17.147 17.147 0 0 0 1.953 1.708c-1.083 3.175-4.108 1.8-5.584 4.214-1.902 3.113 3.578 11.358-3.005 13.07-1.905.52.013-5.71-.155-6.058-2.4-5.063-.814-7.558.868-12.36 2.633-7.516 5.956-10.943 12.956-15.54-4.258-10.228-19.003 5.6-22.177 8.593-3.417 3.223-6.803 8.13-8.582 12.516-2.177 5.36-.69 5.063 4.354 7.334 9.968 4.516-6.2 3.53-5.14 2.95-4.014 2.197.834 8.35 4.117 8.253 5.45-.165 2.474 3.864 6.447 4.305 4.784.535 10.164 5.818 15.022 4.706-.097-.096-2.026-1.89-.746-2.184-2.206.526 8.5 2.91 8.992 3.225 7.51 4.764 2.334-5.54 5.487-7.86 1.834-1.356 1.85 2.797 1.97 3.05 2.11 4.48 2.475 2.043 2.96 7.276-.087-.94 3.163 7.618 2.324 5.8 1.753 3.8-.21 4.104.286 6.31 8.316-.41 11.086 10.347 10.373 17.956-.428 4.618-8.684 9.098-12.068 11.622-6.556 4.92 4.59 5.6-5.593 8.76-5.006 1.557-7.32-1.158-11.87-1.576-2.812 2.413-9.322 7.162-2.192 9.562 1.08.363 10.528-.18 11.187-.608 5.018-3.254 7.96 6.048 10.283 8.354 3.04 3.013-1.472 4.072.83 6.503 4.012 4.237 9.723 8.04 14.73 10.88 13.41 7.6-3.937-12.805-1.824-15.097 3.98-4.43 14.578 19.765 18.708 2.586-2.618-8.15-10.958-17.17-10.108-25.968 1.474.08 2.294 2.543 3.63 2.192-.04.01 2.88-8.487 4.56-4.41.927 2.155 2.47 3.698 4.623 4.63 2.637 1.21.804 3.324 1.116 5.785.352 2.755-.202-1.596 0 0zm-33.057 4.138c.64-1.053 2.005-4.357 3.174-4.9-2.327 1.088-4.974 6.17-1.054 6.724-.593-.084-2.99-.395-2.12-1.824.91-1.5-.302.495 0 0zm2.122 1.822h.01c.01.002 0 0-.01 0zm-.075-.013c.708 0 2.888.286 3.72-.128-.834.415-3.012.127-3.72.127zm15.896-14.86c.05-1-.078 2.16 0 0 .003-.06-.018.536 0 0zm4.538-45.56c-2.25.048-.565-2.325.5-2.536-1.118.247-1.635.9-1.548 1.962.34.604 2.212.55 1.05.574-.365.007.187-.004 0 0zm3.693 7.12c.75.167.9.52 0 0 .004.002.047.027 0 0zM-8.042 75.18c1.634 1.156 3.21.694 4.73-1.387 1.642 1.6 3.48 2.27 5.51 2.017 4.257-2.04-2.33-8.23-2.916-10.48-1.7-6.5-6.017-6.217-1.97-13.01C-.034 47.852.91 40.162 2.62 35.014c1.1-3.317-1.172-10.425-5.92-9.225-3.23.815-6.66 13.456-7.234 16.336-1.026 5.18-7.86 8.784-5.438 1.18 1.33-4.193 4.855-10.687 1.56-14.66-.412 1.062-1.27 5.75-3.09 5.515-.752-.098-8.21-.625-8.403-1.605-.433-2.074 5.258-1.954 4.05-4.614-1.35-2.957-4.43-5.62-7.056-2.312-1.556 1.96-6.22.56-4.507-.782.295-.234 6.09-7.364 2.78-6.99-9.538 1.15-15.915 4.793-23.01 10.195-1.234.94-7.674 4.17-4.048 6.11.562.302 10.996 6.102 10.82 5.195.612 3.227-14.554-.105-14.798 4.9-.37 8.192 11.8 4.23 16.137 7.016 3.354 2.154 11.612 10.847 2.058 8.53-6.278-1.52-11.42-5.188-18.23-4.24-2.77.39-3.418 3.67-3.302 5.91.282 5.417 3.788 5.797 8.068 7.27 6.027 2.093-5.216 10.886 7.057 11.443 6.77.31 13.09-.27 19.717-2.53.598-.202 16.77-5.233 14.505-.364-.798 1.762-5.23-.88-6.862-.01-2.1 1.2 11.842 7.432 14.55 6.842 2.143-.462 3.25-2.884 1.29-4.46-.662-.53-4.607-6.325-1.357-4.482.38.216-.465-.264 0 0zm-36.21-2.31c.012.073.02.148.035.22-.015-.07-.024-.146-.034-.22zm.036.233c.08.396.217.766.454 1.07-.237-.306-.373-.675-.454-1.07zm1.726 1.794zm-.783-3.488c-.665-.636-1.01-.352-1.038.847 2.155.817-1.727-6.088 2.604 2.09l-1.567-2.938c-.09-.168.545.963 0 0zm11.17-1.955c.432.338.432.338 0 0 .07.055.07.055 0 0zm.55-.922c.273.182.482.46.717.7-.236-.242-.447-.52-.716-.7zm1.83-2.39c.154.47.155.472 0 0zm3.12 4.32c-.67-.8 1.77 1.98 0 0-.028-.032.22.247 0 0zm1.337-4.4c.485-.43.982-.354 1.49.226-1.197-.227-1.558-.08-1.49-.228.065-.142-.082.178 0 0zm.953.692c-.132.02-.27.03-.403.048.132-.02.27-.028.403-.048zm1.635-8.84c.4.197.05.024 0 0zm-.024.405c.38-.165.814-.355 0 0zm5.85 14.008c-3.057.643 2.967-.672 0 0-.386.08.29-.066 0 0zm4.707-15.96c-.274 1.312 1.103-3.966-.562-2.303.526-1.473.59 2.182.562 2.304-.02.094.176-.8 0 0zM1232.484 641.128c-.112-.013-.296.153 0 0-.04-.006 0 0 0 0zM1219.466 621.755c5.604-3.907-2.582-4.878-5.788-6.7-4.29-2.435-5.15-7.96-11.33-10.135-6.49-2.273-12.904-4.75-19.384-7.05-4.14-1.472-8.29-2.923-12.426-4.398-3.774-1.35-3.042 2.005-5.884 3.005-2.034.716-7.218 8.23-9.557 6.348-1.934-1.545-5.482-3.477-5.58-6.38-.064-1.804.88-6.573-1.535-7.538-1.982-.794-16.365-.782-12.458 2.583 1.574 1.356 3.146 4.435 5.526 4.52 1.25.04 6.494-.833 6.973 1.015 1.046 3.888-7.672.02-5.23 8.28.645 2.21 2.686-.883 2.845-1.093 1.937-2.547 5.6 1.342 7.08 2.31 5.037 3.294 11.292 3.487 16.493 6.684 4.804 2.972 3.53 12.193 7.228 14.883 6.058 4.4 11.09 4.58 17.967 7.13 4.752 1.78 1.617-3.975 1.396-4.33 2.452-1.254 3.468-4.07 6.006-4.996 5.14-1.876 12.277 3.122 14.577 7.55 3.55 6.835 9.127 6.83 15.978 7.673-.085-3.68-16.48-16.902-12.894-19.362.184-.128-.846.58 0 0zM1018.653 589.42c3.597 2.56.52 8.82 4.393 10.56 2.715 1.198 9.05 3.32 11.955 2.17 5.78-2.266 8.063 5.125 13.07 3.397 6.27-2.166 3.755-10.614 7.52-14.634 2.148-2.29 3.336-11.435 7.105-11.56 5.505-.174-.8-3.622-1.546-5.638-1.055-2.848-3.356-10.14-1.148-12.87 1.35-1.674 6.056-3.89 6.755-5.94-2.925-2.91-11.95-12.01-14.264-3.847-1.478 5.183-9.512 7.146-12.646 11.186-3.11 4.01-6.904 4.996-10.235 8.304-2.908 2.886-2.596 6.71-7.8 5.396-8.27-2.09-8.76 9.498-3.16 13.476 1.857 1.32-.5-.356 0 0zM693.678 658.09c-.177-14.25-4.56-3.182-7.31-.833-4.19 3.583-7.26 12.52-14.138 12.284-5.882-.15-11.77 4.544-11.275 10.855.33 4.322 3.34 8.158.76 12.404-2.554 4.184-7.44 9.11-5.798 14.486 1.705 5.59-.512 14.025 7.86 15.236 12.423 1.798 14.815-13.68 18.004-21.93 3.422-8.857 5.784-17.837 8.873-26.72 2.44-6.97 3.123-7.505 3.025-15.78-.032-2.548.033 2.712 0 0zM635.8 85.35c-8.512 3.9 9.105 7.948 8.753 7.68 2.255 1.72 1.14 3.624 2.68 5.36 1.503 1.694 8.762 2.2 10.93 1.893 8.605-1.23-3.388-6.76-5.48-9.84-2.53-3.724-4.022-9.047-4.225-13.51-.002-.03-1.292-9.716-1.983-8.7.897-1.302 2.635.418 3.606-.977 2.024-2.907-.578-4.995.672-7.416 1.197-2.318 2.05-3.995 1.8-6.59-.436-4.45 5.235-4.604 6.13-8.853 1.355-6.396 10.895-15.39 16.542-18.304 8.427-4.362 2.87-16.925-3.063-12.035-4.592 3.773-5.926 12.74-13.91 12.43-4.706-.167-11.682 8.324-13.06 12.792-.6 1.95-5.95 8.082-4.59 9.488 5.385 5.576-4.433 11.05-2.872 15.486.352 1.04 3.024-1.374 4.35-.498-2.87 3.438-2.485 7.515-4.718 11.176-2.195 3.6 4.304 7.717-1.56 10.417-1.17.534 1.294-.596 0 0z"/><path d="M-79.283 31.225c-.515 6.07 6.236-.672 8.475 1.515 4.014 3.926 7.7-7.836 12.128-7.902 3.09-.06 8.862-4.912 12.285-6.1 9.647-3.378 16.843-1.38 14.557-14.01-.3-1.677-2.09-3.81-4.025-3.366-4.04.93-1.382 1.99-6.222-2.783-2.662-2.625-15.482-7.655-17.263-1.244-.897 3.213-.274 4.74-3.162 7.028-2.04 1.613-6.393 3.623-6.84 6.376-.52 3.253-6.007 5.753-8.174 7.682-4.83 4.295-1.294 7.003-1.76 12.803-.054.644.257-3.2 0 0zM101.18-26.115c3.83 1.8 4.602-4.54 6.49-4.304.072.01-.506 8.412 2.47 3.717.492-.777 6.902-7.84 6.287-8.246.577.385.018 2.348.085 3.014 1.907-.327 15.793-7.145 13.103-9.813-2.156-2.14-.77-3.18-3.932-4.335-1.335-.482 4.315-4.98 4.462-6.157.563-4.53-5.084-9.044-5.146-12.586-.023-1.235 1.64-21.646-5.046-15.14-1.396 1.396 7.176 3.333-1.512 5.662-6.652 1.785-.448 6.51-6.934 6.952-2.08.143-6.606 1.157-4.12 3.922 2.79 3.104 6.353 7.652-.98 4.417-3.486-1.54-5.043 6.13-6.575 8.928-2.27 4.135 11.532 4.866 9.948 9.123-1.314 3.547-9.646-3.134-10.17 1.282-.495 4.192-3.624 11.104 1.57 13.567.39.183-1.498-.71 0 0z"/><path d="M129.31-54.962c.166-.485-.05-.217 0 0 .035-.1 0 0 0 0zM997.968 601.997c-2.754-4.635-11.853-8.76-13.06-13.55-.952-3.767 1.92-4.106-2.283-6.17-3.81-1.868-5.693-4.872-8.833-7.568-3.78-3.248-27.153-26.427-32.265-20.813-.28.31 23.544 29.403 25.867 33.95 4.743 9.288 8.31 16.36 17.172 22.94 4.553 3.382 6.28 4.69 11.958 3.27 1.77-2.958 1.094-8.676 1.444-12.06-1.863-3.135-.207 2.008 0 0zM400.754 240.192c1.063.835 3.953 7.278 3.95 8.538-.014 6.496.507 1.397 4.93 4.71 2.106 1.58 3.348 7.698 2.993 10.01-.47 3.135-4.69 1.29-5.246 4.303-.43 2.407 1.37 4.233-1.333 6.127-6.035 4.207 15.605 6.448 3.188 7.616-1.47.14-6.564 4.78-3.6 5.18 2.89.38 8.937-1.52 12.003-2.313 2.456-.633 13.823-.52 14.587-3.535a11.01 11.01 0 0 1-.914-4.2c1.155-1.814 4.557-5.196 2.46-7.744-1.05-1.022-2.287-1.36-3.712-1.016-3.504.43-1.632-1.286-3.115-3.413-1.495-2.142-1.713-4.944-3.3-6.964-1.447-1.85-3.554-2.068-4.448-4.452-1.205-3.234-8.164-8.52-7.55-9.83 3.343-7.147 6.866-9.995-2.804-10.355-5.41-.2 6.78-6.98-3.86-6.315-2.895.178-6.596 11.785-4.226 13.654.573.452-.316-.25 0 0zM1114.063 370.048c-9.47 7.557 12.018.545 14.758-1.713 3.413-2.816 9.332 16.52 10.47 2.235.342-4.284-1.1-3.965 4.098-3.277 3.47.46 7.742-3.606 9.813-5.937 2.94-3.347 1.1 1.856 3.388 2.2 4.393.66.51-10.952.732-12.45.563-3.772-2.634-7.08-1.966-10.502.77-3.947 4.38-8.338 1.84-12.8-1.442-2.502-6.705-14.183-10.945-7.556-1.89 2.948 2.46 11.956 2.04 15.7-.416 3.678-1.76 9.28-3.96 12.443-3.31 4.754-9.466 2.89-10.255 9.867-.564 4.933-2.918 2.944-6.66 3.86-7.2 1.774-8.116 3.773-13.352 7.93-1.042.83 2.143-1.7 0 0zM3.272-10.722c.983-2.292-.295-7.24-.35-9.758-.07-2.817-4.218-1.016-3.85-4.51.337-3.276-14.573-1.29-8.223 4.886-1.286.196-6.92.143-6.92 2.262 0 1.4 2.688 1.77 3.586 2.568C-14.69-13.006-28.78-14.157-18.92-8c5.563 3.473 11.94-.15 17.94 3.574.866.536-20.356 2.27-13.626 6.735C-7.456 7.08 2.986.104 10.98 1.037c7.265.847 9.843.675 15.492-6.222 7.235-8.85-7.014-2.217-8.65-4.713-2.41-3.682 10.278-21.688-2.62-11.365-1.888 1.51.405 3.993-.232 5.69-1.203 3.2-2.648 1.643-2.435 5.487.277 4.834-10.197 1.533-9.263-.637.7-1.63-.255.592 0 0zM86.986-.432c-1.99-2.89-1.646-6.23-7.07-3.628-1.928 1.35-.997 6.813-.932 8.902.072 2.158-10.745 15.75-4.802 16.716 4.758.77 2.646 3.71 8.32 1.81 2.32-.78.827 3.057 1.248 3.854 1.374 2.623 8.74 1.92 11.127 2.458 1.91 1.093 3.93 1.622 6.054 1.588.902-.278 2.858-3.583 3.645-2.938 1.906 1.556-.22 5.836 4.45 5.204-.003 0 9.534-4.48 8.128-4.462-.074-.182-.147-.188-.22-.017.716-2.053 3.44-2.83 3.804-4.974.723-4.292-4.963-6.993-8.034-7.115-8.48-.34-15.06.935-22.476-3.075-1.66-.896-8.358-6.853-7.453-8.612.29-.564.676-3.164 1.26-3.39.214.08 6.42 3.033 5.954 1.2a12.103 12.103 0 0 0-3.002-3.52c-.54-.78.884 1.284 0 0zM1320.392 872.588c-.02-1.883-6.123-10.53-7.555-7.198-2.38 5.61-6.94 12.81-11.3 17.155-5.803 5.78-34.47 15.47-31.824 27.242.434 1.927 9.31 7.247 11.297 5.953 5.953-3.863 12.73-9.684 15.37-16.552 1.995-5.168 11.34-5.247 11.706-9.726.544-6.533 12.12-9.266 12.306-16.874-.02-1.914-.004.223 0 0zM464.43 2.98c3.52.222 2.637 16.27 9.336 14.783 3.247-.722 1.134-5.052 3.084-6.765 3.472-3.053 1.475 1.358 3.467 2.07.88-.522 1.76-1.047 2.64-1.57 6.202 1.498-9.025 10.39-8.302 11.86 1.32 2.706 8.903-3.215 9.955-.352.894 2.43-6.916 5.178-7.825 5.395-.89.21 7.436 10.472 8.573 12.25 1.458 2.263 5.527-13.563 5.875-15.95.127-.892 1.193-11.105 8.465-15.912.732-4.482-15.17-13.136-14.357-8.803-.81-3.475-.29-7.668-5.328-7.668-.89 2.087 1.116 14.085.623 14.387-3.408 2-3.204-12.938-6.65-9.107-5.494 6.093-2.99-1.024-3.5-2.33-1.382-3.56-13.994 7.237-6.056 7.712.402.025-1.657-.1 0 0zM344.462 181.05c5.697-3.18 26.368-9.92 18.652-19.13-2.54-3.03-1.77-5.083-6.5-6.353-2.438 1.563-5.075 2.957-8.093 2.49-.96-.134-.638 2.236-1.812 2.317-4.595-5.698-3.155 2.527-7.994-2.145-.068 1.218-3.08 9.274-5.234 5.253-1.26-2.34-.02-4.737-1.91-6.864-1.312-1.475-1.917 1.253-3.448 1.04-6.54-.9-1.763 3.394 1.72 4.43 5.873 1.757-6.08 5.818-6.324 6.017 3.17.877 4.855 1.74 6.605 4.677 1.16 1.97-4.206 2.813-2.923 4.547.796 1.066 15.54 4.684 17.262 3.72 2.744-1.53-1.04.584 0 0z"/><path d="M324.78 160.71c-.653-.073.156.018 0 0zM34.857 36.755c1.898-1.003 14.12-9.063 4.383-8.876-2.238.05-3.868-1.803-5.608-1.803-10.073.02-.33 2.1-5.124 4.01-4.883 1.942 1.22 2.198-1.65 7.2-5.226 9.092-3.263-4.353-8.794-2.213-7.278 2.828 3.01 15.14 2.987 19.795-.04 10.58 5.522.346 5.105.063 5.908 3.966 10.503-4.698 12.823-8.866 1.703-3.118-6.712-7.946-4.12-9.312 1.39-.735-.783.412 0 0zM1351.803 839.996c-1.084-1.213-3.563 2.78-5.485 1.715-4.212-2.335-4.24-4.726-5.643-9.183-2.042 1.348-2.563.73-4.98.173-.207 4.062-1.872 12.378-4.803 15.433-2.928 3.056-8.254 1.975-3.505 6.86 3.82 3.933 3.45 6.66.053 10.88-1.325 1.643-2.56 9.198 1.67 6.15 4.188-3.036 9.09-9.487 11.246-14.24.245-1.65.66-3.263 1.236-4.834 1.313-1.485 4.417-1.48 5.405-3.054 1.442-2.327 7.904-6.5 4.806-9.9-.108-.12.276.303 0 0zM1120.372 219.44c.72 5.564 6.24 8.567 7.844 13.828 1.757 5.767 3.703 10.97 5.015 16.887.562 2.53 7.03 23.823 8.355 24.117-1.625-.36 4.087-3.952 5.406-4.134-4.037-4.328-13.093-15.885-8.605-22.602 1.7-2.546 4.74-.87 2.675-4.698-1.918-3.556-4.174-7.08-6.248-10.54-4.125-6.894-9.745-14-11.113-22.105-.02-.102-1.994-3.672-3.298-2.556-5.052 4.363-.762 6.06-.03 11.804.265 2.044-.35-2.733 0 0zM943.434-41.48c2.545 1.855 1.33 4.1 5.48 5.326 1.764.52 7.933 5.44 9.183 1.364 1.166-3.765 5.528-5.553 9.938-7.623-.602-1.65-4-2.57-5.156-3.483-3.23-2.555-3.463-6.294-5.296-9.682-4.56-8.438-5.84 6.727-4.91 5.923-2.395 2.057-8.706-6.915-11.992-5.585-5.29 2.146.214 11.89 2.752 13.76.295.215-2.72-2 0 0zM744.786-57.255c-3.84 4.583 3.413 11.854 7.1 13.543 2.938 1.346 17.682 3.773 18.765-1.33-.02.095-5.725-11.24-6.095-11.975-.9-1.786-4.135-6.15-6.656-4.634-1.595.958.69 3.427-.824 4.585-.864.655-2.722-3.98-3.172-4.46-2.942-3.118-7.412 2.2-9.118 4.27-.265.317 1.582-1.92 0 0zM1074.326 581.205c-2.052.592-7.544 18.714-7.004 20.678.88 3.212 4.86 3.146 3.415 7.736-.88 2.785 1.89 7.184 2.703 4.04 1.053-4.134 1.323-8.394 1.79-12.615.23-1.994 3.69-2.01 3.9.078.73 6.487 1.492 10.938 8.297 6.433-2.14-2.876-5.045-8.107-5.992-11.487 1.193-3.032 7.515-6.132 10.26-7.884-3.935.582-9.684.902-12.592 3.818-3.153 3.184-6.75-5.96-4.832-8.898 2.09-3.197 29.03.92 26.083-5.78-.166-.376-7.472 2.933-8.894 2.845-2.69-.21-5.36-.596-8.002-1.16-5.685-1.127-4.298.806-9.132 2.195-1.134.326 2.015-.58 0 0zM50.995 45.102c2.757.05 4.552 3.698 7.325 1.212 3.852-3.447 7.682-6.94 11.146-10.787 2.8-3.082-15.017-11.758-16.96-5.46-1.84 5.736-8.925 9.58-9.53 17.857-.267 3.703-1.198 7.408 3.714 3.534 2.08-1.642 1.59-6.41 4.305-6.356 1.214.02-1.244-.024 0 0zM381.526 257.588c-.525 3.97-.842 4.748 1.43 7.706-.345 2.534-5.094 7.995-2.74 10.295 3.65 3.584 15.713-3.054 16.977-7.22.728-2.397 2.37-15.955.013-16.484-9.676-2.223-7.352 5.17-15.68 5.702-.197 1.486 1.305-.085 0 0zM-27.714-30.84c1.874-1.4 1.14 3.222 1.873 3.72 2.455 1.676 3.528-4.318 6.626-2.53 1.865-2.075 5.128-8.355 8.295-8.372 4.882 0-3.57 7.396-1.492 9.18 2.335 1.966 18.915-14.013 16.135-16.853 1.293 1.316-7.77-.73-7.397-.708-5.582-.327-9.088 3.388-13.894 5.804-4.834 2.452-10.274 3.23-14.824 6.2-2.978 1.964 2.267 5.35 4.678 3.56.157-.117-2.22 1.647 0 0zM1162.85 291.945c-3.35.893-19.76-8.203-19.05-9.465-2.17 3.746 4.455 12.04 1.95 16.927-3.915 7.636-5.776 4.795-1.554 13.582 1.388-.48 2.41-1.378 3.065-2.69-6.348-4.05-4.478-3.14-.402-5.74 4.536-2.89 6.474 3.133 10.174 2.018 2.812-.847 1.424-5.876 5.05-6.904 5.796-1.684 3.96-4.1.767-7.73-3.705.986.65.743 0 0zM490.368-5.483c2.15.07 7.216-2.233 8.53-.38-.297 1.87-1.475 3.182-3.53 3.936 1.49 1.377 9.265 4.453 10.858 4.336 3.312-.244 6.54-4.195 7.978-6.742 7.796-13.837-9.28-5.92-12.69-11.597a35.94 35.94 0 0 1-.794 4.914c-2.718.336-7.36-5.23-9.27-4.543-1.69.608-6.767 9.882-1.082 10.077.89.027-1.057-.038 0 0zM58.7 154.176c.528 3.21 4.872 4.09 6.78 1.856-.642.753-4.634-9.982-5.843-11.582-1.913-2.525-7.112-4.774-8.325-7.036-.336-.626-.767-7.61-2.955-2.81-1.824 4.017-3.53 11.56-6.456 14.748-4.89 5.328.824 1.663.844 7.188.028 6.826 14.17-13.286 15.957-2.364.313 1.903-.196-1.203 0 0zM58.398-43.125c4.963.453 9.532 6.258 7.316 11.057-1.516 3.25 5.376 1.148 6.147-3.47.406-2.434 7.426-8.595 3.753-11.026-1.805-1.19.023-7.183-2.488-6.348-4.527 1.518-2.34-.318-2.768-3.833-.365-3.014-7.025-3.992-8.29-1.52-1.686 3.302 3.993 7.335.027 12.13.97-1.17-12.09 2.24-3.696 3.01 2.393.218-.638-.06 0 0zM1185.276 852.13c-2.75.438-6.58 1.84-9.253.342-1.157-.646-4.04-3.585-5.49-2.836-2.128 1.098-1.624 17.17-1.165 19.73 3.028 16.888 21.936-18.208 15.908-17.236-2.222.354 1.457-.234 0 0zM1039.076 631.173c2.187.978 2.022-3.332-1.553-3.525-3.634-.187-5.565-4.49-9-5.74-4.387-1.6-6.573.83-10.947.81-5.5-.03-8.1-4.374-13.66-4.66-13.09-.67-.29 8.032 5.544 8.607 4.174.41 7.953-.287 11.758 2.063 5.035 3.11 12.443-.007 17.858 2.445.766.344-2.104-.953 0 0zM39.19-1.31c.364.07 9.992 1.706 9.765 2.298-.74 2.002-4.47 2.733-6.215 3.494-1.774 5.298.472 4.617 5.153 5.956 3.89-2.935 6.498-7.502 9.5-11.25 1.684-2.1 5.02-6 3.91-8.858-1.033-2.646-4.07 1.1-4.586-.696-3.022-10.478-6.514 6.897-7.122 7.24-1.485.847-2.295-6.248-3.303-6.802 1.327.73-6.963 8.11-7.103 8.618 3.096.622.406-1.485 0 0zM778.083-44.09c-.15 1.277 2.102 15.398 4.82 12.094 2.687-3.322 11.342-7.026 11.885-11.304.633-4.98-9.093-10.332-13.213-8.446-1.95.89-2-3.01-3.628-2.9-5.13.345.363 8.626.136 10.557-.412 3.503.096-.818 0 0zM730.802-61.635c.64 7.654 11.134 3.313 13.69.536 3.896-4.23 1.64-5.854-1.244-10.636-.696-1.147-9.518-6.575-10.293-6.38-5.413 1.372-2.402 13.487-2.153 16.48.077.93-.113-1.348 0 0zM1079.946 482.172c.08-5.256-7.814-3.917-8.578 1.296-.57 3.828-4.322 14.785 1.452 16.633-.975-.31 7.516 9.44 6.142 2.857-.694-3.352-2.292-6.55-.222-9.756 3.243-4.986 1.104-5.99 1.206-11.028.03-1.908-.012.616 0 0zM1092.98 537.525c-3.453-3.407-4.9 3.29-7.348 3.188 2.02.1 7.035-.597 8.686.802 2.405 2.044.35 5.273 2.366 7.496 7.342 8.09 5.287-3.597 6.6-4.772 1.974-1.77 2.852.793 4.396-.565 1.51-1.33-1.675-8.64-1.914-10.264-1.055-7.168-9.514 7.332-12.787 4.115-1.544-1.523.826.813 0 0zM102.5 918.41c-2.525-2.216-2.518-6.074-4.65-7.563-3.934-2.75-8.103 5.42-5.38 5.732.345.038 4.48-.48 3.233 1.323-4.046 5.904 1.253 1.303 2.19 6.44-.282-1.307-7.007 1.935-7.34 2.11-.235 1.302.34 2.395 1.727 3.278 1.91-1.93 4.17-2.533 6.78-1.813 2.477.293 3.188-2.755 4.814-2.097 2.95 1.194 9.162 3.597 11.38.02-4.44-2.267-8.972-4.1-12.754-7.43-1.173-1.027 2.024 1.783 0 0zM108.303 58.126c2.99 1.388 8.173.462 11.697 1.308 1.967-2.207.743-9.992-2.79-10.773-3.827-.848-8.588-5.13-10.21.522-.452 1.575-.41 8.153 1.303 8.944.583.27-1.26-.58 0 0zM14.62 94.617c6.85 3.363 6.394-7.788 4.573-10.994-.886-1.562-2.37-5.47-4.36-2.74-1.995 2.72-6.94 3.958-8.29 6.072 2.398 2.62 4.807 6.062 8.077 7.662.85.42-1.637-.8 0 0zM79.094-28.085c4.01 2.75 6.933.955 8.375-2.604 1.935-4.773-.327-6.603-2.892-11.262-1.765-3.135-8.848 11.55-5.484 13.867 1.158.794-.882-.606 0 0zM22.85-36.446c2.154-.19 8.098-7.02 8.517-8.717.43-1.856-11.434-2.326-13.202-.107-3.027 3.79-.853 9.332 4.686 8.824 1.726-.153-2.5.23 0 0zM1109.832 377.13c-3.643 2.51-2.97 2.896-.784 4.444 5.262 3.728-3.022 9.435 5.315 10.938 5.06.912 2.603-20.16-4.53-15.382-1.3.895.173-.116 0 0z"/><path d="M962.91-51.54c-.632 7.59 13.228 6.713 10.308 1.564-3-5.188-1.042-5.106-7.125-6.063-6.078-1.77-2.834.364-3.182 4.5-.17 2.06.12-1.396 0 0zM72.31-4.19c5.534 4.838 11.345-2.057 6.395-6.156-7.67-6.34-12.763.592-6.394 6.155 1.003.875-.47-.412 0 0zM62.245 19.525c3.164 1.53 7.176-10.713 1.44-11.795-8.83-1.664-7.547 8.86-1.44 11.795.194.094-2.23-1.07 0 0zM982.638-52.985c4.506 3.5 20.88 1.35 14.09-2.83-2.41-1.484-16.606.882-14.09 2.83 3.02 2.344-.58-.45 0 0zM501.482 26.748c.06-1.01 10.108 3.3 9.866-3.655-2.044-1.014-5.106-6.34-6.26-5.917-5.48 2.023-3.293 4.363-3.606 9.572-.01.196.026-.437 0 0zM5 30.08c.57 2.534 9.51-3.055 7.313-7.184-1.11-2.09-6.153-2.998-7.866-1.35-1.92 1.85.107 6.53.553 8.533.122.54-.433-1.946 0 0zM27.06-54.215c4.096 1.01 13.618 11.066 11.937-1.062-.42-3.13-13.894.566-11.938 1.062 2.732.673-.2-.05 0 0zM1246.452 608.276c-3.48-.316-4.616 7.812-10.442 6.47-.81-.188-7.754-.86-7.754.427-.04 4.337 10.468 3.25 12.963 1.75.88-.533 8.654-8.333 5.232-8.647-.396-.036.563.05 0 0zM99.293 121.983c3.634-1.238 7.932-11.38 2.25-9.47-3.896 1.3-9.287 11.864-2.25 9.47 3.318-1.132-.61.207 0 0zM980.01-18.362c2.08.226 14.1-1.156 6.84-4.706-1.92-.95-5.252-2.728-7.51-1.94-2.97 1.03-2.51 6.306.67 6.646.663.07-1.49-.16 0 0zM1337.794 820.25c.526-1.23-3.39-6.823-4.793-6.016-3.236 1.908 1.345 11.957 2.708 14.004 1.855-2.432.915-5.187 2.086-7.988.145-.346-.875 2.094 0 0zM1335.708 828.24c-.213.277.197.31 0 0-.012.014.027.044 0 0zM1099.6 634.067c-16.164 9.203.225 6.046 6.555-.283-.616-2.175-5.447-.354-6.556.283-1.348.768 1.85-1.064 0 0zM1121.43 380.546c-.204-.067 11.012-4.353 7.52-7.078-3.5-2.747-12.615 5.427-7.52 7.078.29.1-.364-.117 0 0zM78.6-20.13c.886.61 11.564 3.564 8.605.4-2.938-3.145-12.32-2.97-8.604-.4 2.025 1.4-.71-.49 0 0zM136.833-62.98c14.765-9.175-12.98-5.112 0 0 1.382-.857-2.043-.804 0 0zM1119.155 576.495c-4.028 1.5-4.43-2.263-4.022 4.91.317 4.842 7.036-6.015 4.022-4.91-1.206.45.51-.185 0 0zM740.77-52.27c.723-3.082-6.316-3.774-6.946-1.308-.683 2.683 6.076 5.04 6.947 1.308.154-.646-.28 1.208 0 0zM54.646 163.974c-1.706-.204-8.06.568-6.29 3.846 1.738 3.212 9.2-3.547 6.29-3.846-.438-.053.183.017 0 0zM1122.736 602.698c.822.184 6.272 1.665 7.048.77 1.204-1.396-10.828-4.996-11.086-1.942-.135 1.547 3.313 1.006 4.038 1.172 1.712.38-1.28-.29 0 0zM1082.168 632.247c-1.767-.458-8.3-3.295-9.47-.393-.922 2.27 9.098.49 9.47.393-2.725-.71-3.558.92 0 0zM63.015 174.727c1.577.538 3.26-3.35 3.088-4.42-.36-2.61-6.39 3.314-3.088 4.42.174.06-.182-.06 0 0zM503.068 14.17c1.236-3.965-5.36-2.18-3.76.517 1.036 1.728 3.026 1.807 3.76-.517.168-.544-.184.578 0 0zM1078.105 513.396c2.03-.323-.793-6.59-2.855-4.637-1.287 1.267 1.194 4.887 2.855 4.636.17-.03-.38.055 0 0zM1099.99 519.115c2.33-1.836.18-5.805-2.567-5.43-2.562.346 1.178 6.454 2.567 5.43.29-.227-.087.067 0 0zM1086.627 519.22c-2.61-.79-3.374.392-3.067 2.96.325 2.876 6.376-1.97 3.067-2.96-.425-.13.753.225 0 0zM-25.454-19.97c.243 3.34 6.388-3.42 6.613-3.9-1.707.024-6.81 1.365-6.614 3.9.04.56-.03-.38 0 0zM-18.84-23.87c.264-.004.088-.192 0 0 .05 0 .02-.042 0 0zM1107.034 602.56c-1.933.996 2.034 3.808 3.77 1.43 1.496-2.05-3.183-1.74-3.77-1.43-.307.158.557-.295 0 0zM1073.313 638.05c-1.617-.977-3.35-1.187-5.193-.634.806.506 4.958 4.23 6.128 2.68.263-.925-.05-1.608-.935-2.047-1.322-1.01.348.264 0 0zM1170.133 628.408c-.702 2.463 3.275.054 3.683-1.725-1.988-.896-3.045-.527-3.683 1.725-.148.518.322-1.132 0 0zM970.91-28.648c-2.28-1.177-.738 5.35 1.08 3.5 1.326-1.17.967-2.337-1.08-3.5-.476-.248 1.01.52 0 0zM40.252-10.644c-.266-.234-3.24-1.685-3.31-.03-.122 2.41 4.548 1.12 3.31.03-.46-.407.374.332 0 0zM76.378 919.947c.3.62 3.752 4.395 4.73 2.215.942-2.15-4.05-2.327-4.73-2.215.846 1.756 1.827-.304 0 0zM76.288 919.904c-.2.083-.01.003 0 0zM1087.165 505.232c.15.196.458-.02 0 0 .036.046.084-.003 0 0z"/><path d="M1082.97 504.343c-.625 2.037 5.712.818 4.195.89-.727-.946-3.233-3.997-4.194-.89-.08.27.368-1.186 0 0zM166.25-26.842c-.552-1.278-1.376-1.618-2.472-1.02-1.894 1.768 2.89 3.28 2.472 1.02-.13-.717.113.616 0 0zM1055.664 632.48c-1.21 1.395 2.333 1.85 3.143 1.014 1.14-1.186-2.137-2.164-3.143-1.015-.168.194.747-.855 0 0zM1087.683 530.532c2.83 2.188.978-5.15 1.054-4.58-2.975 1.585-3.326 3.11-1.054 4.58.312.242-.497-.385 0 0z"/><path d="M1088.83 525.837c.164-1.215-.125.404-.125-.104-.02.253.02.288.125.104zM131.595-58.185c.415-2.755-2.076 2.396-2.202 2.914 1.148-.66 1.88-1.63 2.202-2.915.08-.54-.214 1.38 0 0zM1062.854 631.258c-.32 1.604 2.06 1.58 2.858.927.327-1.165-2.612-2.203-2.858-.927-.066.326.046-.252 0 0zM28.46 1.66c.237-2.867-3.706.438-1.774 1.223 1.02.21 1.612-.2 1.773-1.224.028-.36-.087.994 0 0zM766.555 883.517c-1.646.74-.94 2.146.65 1.708.706-.88.49-1.45-.65-1.708-.372.165.35.214 0 0zM1045.936 629.726c-1.272 1.612.582 2.067 1.31.957-.073-.736-.51-1.054-1.31-.957-.242.305.713-.137 0 0zM1089.6 507.64c.31-1.365-.37-2.08-2.037-2.145.135 1.495.815 2.21 2.038 2.145.137-.37-.147.41 0 0zM1087.418 505.22c.013.196.253.474 0 0 0 0 .05.092 0 0zM997.613 595.123c-1.54-.337-.794 1.854 1.505 2.29.01-1.097-.49-1.86-1.505-2.29-.19-.04 1.293.252 0 0zM999.118 597.413c.152.548.388.076 0 0 .015.062.066.016 0 0zM1009.372 600.676c-.28-1.24-.753-1.337-1.417-.29.485.833.956.93 1.417.29.14-.502-.045.168 0 0zM40.448 25.798c.244 0-1.278-1.688-1.707-.082l1.708.082c.038 0-.57-.006 0 0zM106.884 928.9c-1.258.562-1.212.95.14 1.16.848-.194.8-.58-.14-1.16-.518-.036.536.04 0 0zM1097.6 521.223c-.8-.71 2.33 2.157 0 0-.106-.092.133.123 0 0zM1098.23 522.91c.02-.21-.13-.396 0 0 0 0-.028-.084 0 0zM1095.6 528.238c-.58-1.455-.996 1.124 0 0-.065-.16-.12.137 0 0zM959.902 591.613c-.387.29.74-.647 0 0-.04.03.463-.407 0 0zM1000.695 599.478c-.023-.797-.467-1.368-1.334-1.714-.256 1.33.188 1.9 1.335 1.714.078-.09-.347.386 0 0zM1052.146 631.64c-1.658.76 1.58-.734 0 0-.158.072.492-.23 0 0zM935.762-41.265c1.335-.742-1.106-1.175 0 0 .147-.083-.143-.152 0 0zM124.382-33.783c1.952.562-1.696-.533 0 0 .174.05-.16-.05 0 0zM91.216-4.034c-.386 1.136 1.11.572 0 0-.056.166.16.083 0 0zM1141.47 805.573c-1.094.02-1.35.292-.77.813.92.03 1.856-.23.77-.813-.356.14.175.093 0 0zM1334.95 831.524c1.16 1.933 1.396.925.714-3.025-1.27.81-1.508 1.817-.714 3.024.154.303-.727-1.436 0 0z"/><path d="M1335.708 832.532c-.114-.147-.33.168 0 0-.05-.06 0 0 0 0zM1271.677 918.39c-.943 1.512 1.223-1.95 0 0-.083.133.282-.45 0 0zM86.487 922.89c-1.296-.508.824.312 0 0-.13-.05.64.244 0 0zM118.35 29.662c-.407-1.97.07.344 0 0-.154-.75.008.032 0 0zM-17.896-24.625c-1.26 1.188.313.562 0 0-.2.187.066.118 0 0z"/><path d="M-18.493-24.06c-.43.11-.25.238 0 0-.094.024-.064.06 0 0zM161.24-32.533c1.03.853-2.394-2.052 0 0 .063.053-.266-.228 0 0zM1233.904 641.57c-2.24-.454-.51.21 0 0-.35-.07-.137.057 0 0z"/><path d="M1232.86 641.363c-.438-.277-.797-.157 0 0-.125-.08-.166-.033 0 0zM323.688 161.367c1.61-1.23-.27-.61 0 0 .25-.19-.056-.13 0 0zM1089.333 524.28c-2.21.935.827 2.043 0 0-.672.284.07.174 0 0zM1098.854 523.848c-.977-1.79.645 1.155 0 0-.1-.188.052.09 0 0z"/><path d="M1098.365 522.778c.017.132.333 1.188 0 0 0 0 .05.177 0 0zM981.894 579.52c-.23-.72-.99.248 0 0-.043-.137-.173.044 0 0zM330.966 118.414c2.13-1.705-12.326-2.782-13.945-2.485-3.51.645-9.045.46-2.007-2.073a66.764 66.764 0 0 1-8.148-1.612c1.626-1.293 3.924-5.516 5.575-6.15 3.354-1.293 5.68 1.595 8.538-1.726 2.727-3.146-12.15-4.6-6.914-8.942.674-.554 10.23 6.43 11.227 7.52 2.92 3.194 2.84 13.524 8.59 6.995.362 1.18 1.098 1.82 2.21 1.93 3.017-.79-1.48-14.228-2.587-15.93-2.082-3.198-8.306-3.464-9.643-6.14-.467-.922 2.91-.97 2.203-2.446-1.2-2.5-4.792.504-5.897-1.794-1.192-2.493 5.816-.306 5.02-3.222-.876-3.16-6.414.77-7.437-.85.117.188 1.907-4.156 1.96-4.227 7.535 4.873 7.558-5.226 12.202-3.32 3.075 1.275 2.118 9.01 7.875 5.478 5.02-3.074 7.837-4.238.542-6.64-3.624-1.183.366-9.792 5.89-6.397 9.872 6.07-2.506-5.068-1.088-7.435 3.11-.39-.02-3.22 4.116-1.734 3.322 1.197 1.902-5.568 1.7-6.52-.915-4.333-9.026-1.735-.755-4.695-1.223-.926-11.77-5.217-4.607-8.183 3.04-1.257 3.7-4.712 7.418-2.154.077.05 4.57 3.674 4.973.78 1.276-9.164-4.563-1.965-6.14-8.708-.586-2.52 2.37-3.614-.145-5.97-1.906-1.787-1.21-4.758 1.59-3.697 2.63 1.006 6.182-16.953 7.753-19.505 5.142-8.345 7.77-9.943-2.836-6.893-2.784.797-.22-5.01.702-5.57 2.875-1.74 7.012 1.117 10.177.548 7.878-1.423-5.57-5.172-5.91-5.97 3.854-1.298 7.142-.007 10.67-.8 3.71-.86 2.117-3.433 4.175-5.314 2.426-2.217 7.926-.803 8.71-5.855.53-3.418-4.63-6.825-7.372-7.425-7.95-1.734-10.475 6.168-17.18 3.992-1.707 1.912-22.097 14.86-23.21 14.05-2.01-1.517 15.33-14.13 16.048-15.284 1.123-1.8 3.375-5.274 1.586-7.418-3.175-3.783-4.898 3.127-6.198 4.11-3.222 2.442-18.963 2.15-6.55-3.78 3.658-1.772-5.97-3.66-3.834-3.245-4.9-.953-8.603-.428-13.234 1.028-2.778.875-5.514 2.688-8.315 3.312-2.063.444-1.58-3.34-.167-4.02 9.23-4.395 14.813-4.73 24.646-3.87 1.645.144 24.208-1.572 19.188-7.038-2.294-2.5-16.408-5.938-16.41-5.896 0 .022 9.843-7.493.67-4.874-2.845.803-5.925.287-8.547-1.004-4.158-2.04-8.606.54-12.89.59-1.942.024-11.784 4.092-11.027.69.34-1.528 11.956-5.845 11.977-5.803 1.167 2.436 16.656 2.25 19.462 1.288 3.693-1.26-16.167-8.398-17.427-8.925-1.69-.707-13.726-1.622-14.88.88-.787 1.716-1.192 5.044-3.773 4.9-3.602-.145.08 3.796-1.38 4.44-.756.326-5.246-1.57-5.55-2.51-5.332-3.494-5.297-3.405-11.048-.647.744 5.85 3.52 2.69 5.695 7.222.748 1.56 1.22 9.69 1.594 9.622-3.435.61-3.23-6.735-4.616-8.818-2.906-4.405-5.633 2.234-8.425 1.09-9.356-3.803-.15 19.82.12 19.896-5.435-1.567-8.924.27-10.173-6.363-.483-2.567-.345-13.878-5.384-13.05-3.356.553-2.25 9.123-2.426 11.27-.716 9.098-10.05-1.85-10.402-2.008-.67.828-4.498 7.038-5.72 5.963-.948-.816 4.34-12.36 4.764-14.31 1.048-4.836-6.852.06-8.26.418-6.746 1.724-12.34-3.997-12.21 5.313.086 5.975-1.342 7.198-2.558.33-1.78-9.924-6.31 5.12-6.307 5.115-2.116 1.606-2.895 4.94-5.93 4.862-2.353-.075-2.692-3.275-5.025-.25-.875 1.123-2.334-1.6-3.564-.064-2.52 3.168-6.122 4.28-9.32 6.524-11.773 8.26 5.645 6.024 5.967 7.274.41 1.64-7.505 10.612-8.73 11.844-7.456 7.49-26.72-.535-33.67 10.43-1.328 2.102 8.262 12.74 6.845 13.09 1.887-.46 11.93-1.334 10.335 3.098-1.272 3.562-5.56-.417-8.08.65a5.518 5.518 0 0 1 2.33 2.375c-1.504.316-15.136-4.22-12.964 1.73.28.76 7.63 6.12 5.784 6.878-4.568 1.813-4.102 9.288 1.41 8.45 2.23-.337 1.727-3.103 4.337-2.143 3.147 1.156 6.52 1.716 9.87 1.405 4.335-.4 9.564 2.73 12.382 5.833 1.498 1.646 6.807 3.568 5.867 6.81-.965 3.298-2.305 4.67-.312 7.83 4.157 6.604 1.126 12.147 2.474 19.237.44 2.312 1.692 8.204 1.05 10.51-.74 2.668-2.74 4.73-2.796 7.647-.005-.005-.006-.007 0-.007.206.354 1.456 2.028.062 2.774-8.57 4.572-.127 6.493 1.106 3.888 5.52-11.868 13.96 17.077 8.006 15.777-.233-.05-12.53-10.29-12.37-4.905.15 5.18 9.902 7.976 13.708 8.547 1.04.154-1.022 10.126-1.318 10.503-.79 1.006-9.825 5.588-9.798 5.754.154 1.077 7.206.687 6.1 7.323-3.597 3.257-11.114-2.098-13.127 2.76-1.193 2.874 3.472 8.405.76 9.936 0 .483-.013.994-.018 1.487h.002c.012-.005.014-.004.004.002.864-.26 7.785-3.383 6.387-4.668.326.325-10.146 7.707-7.858 10.328 1.656 1.922 5.096-2.574 5.853-.32-.204-.624-11.41 13.297-1.647 10.478 9.634-2.784-1.987 7.12-1.518 7.738 2.275 2.97 6.11 15.35 5.585 19.162-1.305 9.642 12.28 5.404 16.128 6.852-1.576 3.27.707 10.905 5.842 7.757-.193.125 2.15-4.663 2.517-5.275 1.553-2.6 2.24-5.72 4.544-7.956 3.05-2.963-2.247-6.793 2.678-9.21.766-.378 2.964-4.876 3.245-5.64.555-1.522 2.52.517 3.028-.18 2.198-2.97-.003-12.978 4.054-14.345 3.28-1.1 10.778-4.07 12.29-6.598 4.21-7.043 2.312.26 7.156-.054 6.022-.404 11.154-5.354 14.542-9.89 1.237-1.654 8.37-11.607 8.833-11.726 2.173-.547 3.413 3.076 6.708 1.893 4.527-1.63 10.224-2.763 14.927-3.74 7.202-1.488 13.67-7.54 19.29-11.99.135-.11-1.932 1.53 0 0z"/><path d="M1247.146 12.854c-4.115-.626-.946-6.63-4.354-8.3-6.63-3.252-2.223-4.766-.568-8.336 3.407-7.35-7.26-15.688-14.292-14.084-2.557.582-2.567 3.643-5.186 4.086-4.63.786 4.973 7.954 5.17 9.274.69 4.448-7.79-1.946-8.208-2.48a113.21 113.21 0 0 1-4.925-5.75c-1.76-2.564-4.677-.007-6.896-1.436-3.306-2.13-9.143-1.733-12.837-2.182-3.314-.4-12.31.6-14.822-1.465-8.476-6.97-23.2-3.25-32.28-.7-3.163.887-8.83.173-11.575 2.082-1.206 4.66 4.915 7.1 7.316 9.658 2.814 3 5.35 6.424.82 9.194-2.48 1.533-8.292-3.136-11.084-4.158-2.313-.847-4.352-6.73-6.464-5.443a7.456 7.456 0 0 0-1.566 3.413c-1.596 2.47-4.91 1.613-7.312 2.246-4.133 1.087-8.882.746-12.184 4.03.222-.22-2.154 11.068-4.52 6.55-2.19-4.145-10.047-1.046-10.842-3.007-2.11-5.23-3.228-8.686-8.05-11.98-10.22-7.002-28.387 11.79-32.996 7.448-5.584-5.26-7.436-3.945-14.014-4.33-9.88-.577-.98-12.685-13.958-9.65-5.32 1.24-4.263 4.51-4.397 8.93-.143 4.638-5.3 5.404-3.98 1.915 1.79-4.698-1.676-5.01-4.646-2.847-4.476 3.225.69-6.69.405-5.26-4.097 0-18.248-1.043-21.38 1.44 6.867 2.936.25 3.878-.964 7.498-.682 2.04 1.88 1.503 2.61.995 3.032-2.083 2.314 3.843 2.967 4.783 1.614 2.356 6.09 9.26-1.14 6.29-4.157-1.695 3.767 9.328-2.18 6.465-7.862-3.795-7.867-4.102-13.61.557-4.432 3.59-13.205-4.43-10.033 3.967 8.505 22.507-22.38-3.41-22.307-3.604-.503 1.308 10.604-5.936.174-5.11-2.067.16-3.85-6.89-6.328-8.445-4.08-2.56-7.664-3.89-11.733-.614-4.677-2.264-14.28-3.574-10.034 4.304 4.9 9.1-19.846 11.368-22.05 3.68-.96-3.424-7.957-.643-10.524-.08-5.96 1.31-4.568 3.453-7.382 6.304-1.83 1.847-2.508-4.804-5.367-2.534-1.938 1.537-5.155 2.023-7.006-.024-1.464-1.615-6.29-2.54-6.438.742-.128 3.312 3.39-.47 4.032.446 1.91 2.714-5.204 10.15-7.39 11.373-1.463.818-4.602.8-3.357 3.308.854 1.712-.007 3.724-1.95 3.87-1.46.136 3.425-24.18 4.505-26.033 2.343-3.956 6.938-15.08 3.72-19.3-1.367-1.79-10.356-4.667-2.655-5.117 0-4.626-6.943-2.38-8.27-4.87-2.747-5.135-10.498-6.6-14.886-4.51-5.878 2.8-2.607 6.358-6.972 8.844-5.93 3.375-2.113-7.586-4.648-9.274-.7-.466-11.64 2-11.396 1.092 1.51-5.616 2.067-6.884-4.464-8.412-6.266-1.482-6.496 10.585-5.2 14.113-.66 5.337 7.445 6.418 8.252 8.89.38 1.145-8.334 2.094-9.653 2.587-.11 2.716 6.897 2.086 5.124 6.696-.652 1.688-4.39-4.995-6.896-1.622-.832 1.12-6.366 7.756-8.368 5.937-2.672-2.428-.576-3.37-5.31-2.3-6.142 1.39-2.645 1.542-2.088 4.428.278 1.44-11.336 8.085-12.935 9.743-4.16 4.315-2.8 9.993-7.288 13.033 3.988 2.29 6.897 5.96 10.77 9.01 1.366 1.08-2.694 8.356-1.834 8.263-4.14.495-1.182-5.043-1.984-5.434-2.74-1.365-14.606 5.326-18.086 6.265-4.98 1.303.274 6.98 1.237 8.84 4.483 8.657 16.26 7.31 19.576 17.376 1.657 5.038 6.218 8.064 5.43 13.86.647.622 10.558 7.232 6.4 6.512-1.904-.323-8.912-3.94-10.078-5.647-1.14-1.66.855-3.936-.508-5.444-1.73-1.926-1.76 2.698-3.34 1.68-2.835-1.808-.78-14.247-2.905-14.034-5.597.548-6.648-.173-11.355-2.788-2.556-1.42-8.46-4.634-10.8-1.452-1.178 1.636 3.728 3.072 1.574 5.83-2.538 3.225-5.44-2.557-7.53-.115-3.47 4.048 15.617 9.003 12.966 10.46-1.15.623-11.354-1.073-13.142-1.772-3.743-1.483-4.93-7.762-5.818-10.97-5.396 1.653-2.964 11.948-.53 14.27 6.418 6.104 4.49 13.15 9.096 20.49 1.834 2.926 5.672-1.504 7.472-1.844 2.705-.507 8.33 2.017 10.354 3.64 2.062 1.648 4.036 3.95 3.17 6.77-1.062 3.455 4.925 5.914 5.085 5.49-2.677 7.42-8.664-5.614-9.442-6.755-5.24-7.674-14.87-3.012-9.152 3.582 5.086 5.87-1.93 14.37-3.18 20.144-1.353 6.234-14.642.098-17.85-1.708 2.928-4.106 7.35.79 10.154-.11 6.632-2.196 3.024-14.525 3.39-18.777.06-2.016-.814-3.473-2.618-4.37-3.546-2.01-4.383-6.197-5.615-9.702-1.376-3.905-2.3-8.23-4.152-11.945-1.396-2.808-4.35-4.078-5.73-6.74-2.205-4.258-.187-10.095-2.23-14.668-3.274-7.352-13.774-2.57-13.587 4.272.098 3.464.92 7.404-.18 10.794-1.096 3.387-4.717 6.382-.952 10.012 2.95 2.84 1.515 12.876 6.142 12.994 7.692.155 15.4 18.174 4.382 10.58-8.813-6.068-20.688-10-31.146-9.6-5.512.222 2.297 8.848 2.324 9.593.217 6.145-5.853 8.077-8.344 2.15.066.158-12.173 3.573-13.408 4.353-3.438 2.16-2.84 5.085-8.41 3.754-2.105-.486 1.266-3.364-.328-4.612.426.348-8.198 3.617-8.776 3.763-5.474 1.387-6.855 7.75-11.716 9.828-2.977 1.268-.37 6.296-4.71 7.425-3.23.844-9.663-1.625-9.2-5.962.63-5.91 6.576-2.553.948-8.733-5.754-6.34-5.488 3.65-5.228 6.29.526 5.222 3.41 8.27 3.302 13.542-.126 5.07-5.268 1.584-8.366 1.17-2.882-.382-7.142 6.105-8.553 8.072-2.87 3.996 5.068 6.08.38 10.52-1.868 1.75-10.127-3.37-11.73-4.407-1.266-.388-2.148.048-2.652 1.306-1.153 3.794 3.402 4.306 5.645 5.124 3.205 1.176.784 6.293-2.563 5.336-3.21-.912-10.438-3.795-11.104-7.453-.544-3.023-2.607-12.423-5.48-13.588-2.395-.97-9.544-4.5-8.42-7.89.093-.27 23.195 6.942 25.804 6.79 12.573-.726 14.29-11.956 4.728-18.43-4.54-3.07-22.97-16.357-28.704-11.386-2.342 2.023-7.782-1.23-8.914-3.588-3.704.794-10.836 1.044-12.273-3.684 2.314-1.833 6.355.455 6.962-3.906-6.306-4.213-14.435 3.744-12.353-5.19.538-2.397-3.912 3.21-3.78 2.946-2.457 4.958-1.272 1.307-3.858.788-1.365-.27-1.708 5.328-4.026 5.597-.27.03.63-10.875-2.7-6.438-1.978 2.654-3.823 4.585-4.964 7.72-2.16.832-4.07-2.57-6.675-1.247 1.465 3.023-.62 6.508-4.008 7.2-4.5.916-2.25-2.28-4.646 2.52-.615 1.25-5.99 2.75-7.6 5.27-3.11 4.88 2.057 2.64-3.566 6.96-1.42 1.087-6.588 7.347-5.187 8.988-.236 2.17-5.547 4.794-6.432 8.057.87 1.93-2.266 11.848-3.56 13.27-2.604 2.88-6.302 5.302-8.453 8.482-4.61 6.817 3.835 1.934 3.824 1.924 4.548 3.897-11.27 4.338-10.823 9.355-2.538 1.666-4.203 2.198-6.955 4.086-6.157 4.223-1.835 2.002-3.88 5.27-1.514 2.425-2.992-.03-3.463 4.385.97.2 9.942-1.14 9.493.608-1.193 4.464-6.593-.276-8.646 1.996-3.187 3.53 3.016 4.113 3.774 5.153 1.25 1.712-3.508 7.48-3.882 7.005 1.317 1.74 6.964 3.318 2.19 5.965-3.868 2.148 7.03 6.064 9.607 5.063 3.596-1.398 5.145-7.303 8.28-7.728 3.787-.502 1.234-3.923 4.093-5.627-.69.418 11.723 30.564 12.98 33.235.304.646 12.71-5.31 13.33-6.543 4.155-8.277-.868-15.354 7.25-21.877a23.008 23.008 0 0 0-8.257-2.136c3.082-3.358 10.23 1.25 10.604-3.99.346-4.858-7.047-5.443-7.896-9.758-1.296-6.586.455-12.888 4.713-17.758 3.77-4.313 11.94-7.578 11.12-14.643-1.188-10.224 6.756-14.852 15.894-10.05 8.688 4.567-12.058 21.146-13.532 25.643-1.147 3.502 1.52 12.877 2.152 16.58.216 1.255 8.22 6.876 10.04 7.16 7.673 1.202 22.593-12.148 28.65-1.39.835 1.524-7.973 7.216-9.345 7.178-5.767-.163-10.755-2.336-16.173 1.398-5.12 3.49 3.305 7.79 3.256 10.605-.17 8.91-2.41 9.157-7.842 3.868-6.607-6.415-5.553 19.054-5.438 18.88-1.29 1.968-8.09 6.243-10.552 5.436-2.624-.86-2.887-3.926-6.103-3.115-2.717.684-4.867 2.177-7.248 3.557-1.895 1.097-7.67 6.328-9.732 4.752-5.797-4.445-6.95-2.67-13.252-1.584-2.695.468-7.206-3.93-8.07-5.91-1.768-4.053-.522-5.176 1.834-8.56 4.002-5.748 1.125-1.038-.097-6.255.406 1.74-.104-12.058-2.395-3.518-1.504 5.607-6.048 5.51-5.415 11.435.65 6.08 6.53 11.587.724 16.44-1.012.853-8.97 1.063-11.07 1.7-4.685 1.41-8.526 4.416-8.762 9.73-.188 4.3-3.965 5.495-7.673 7.135-3.623 1.603-1.84 6.843-6.728 7.535-2.52.356-2.396 2.986-4.563 3.645-2.163.656-5.393-2.322-6.687-1.233-1.367 1.146 1.467 4.635-.78 5.318-4.387 1.337-8.06-1.176-12.247 1.223-3.453 1.978 2.67 4.51 3.1 4.662 5.24 1.854 5.352 3.772 8.452 7.73 5.674 7.246 7.616 23.47-6.17 21.804-4.775-.577-22.156-3.87-25.182-.762-.912.934-3.664 1.522-4.276 2.662-.864 1.6 1.47 10.086 1.383 12.474-.147 4.08-1.012 8.104-3.143 11.64-1.652 2.81 1.245 4.082 1.94 6.603.906 3.275-1.043 7.2 4.198 7.505 5.233.324 5.96-.253 9.164 4.415 1.75 2.582 14.72-2.53 18.218-2.758 4.952-.327 14.02-9.27 11.567-13.912-3.585-6.826 8.485-12.59 12.38-15.253 6.547-4.483-.723-14.87 10.953-13.354 7.806 1.016 11.438.852 17.815-5.227 6.12-5.863 12.237 7.72 15.185 10.688 5.693 5.74 11.94 7.683 17.962 12.637 3.046 2.506 6.225 5.152 7.456 8.967.413 1.275-.534 8.18-.353 8.268 2.21 1.146 5.303-7.57 3.317-9.865-5.58-6.456 7.5-5.436 7.082-4.774 1.402-2.198-11.017-6.28-11.502-7.674-1.108-3.188-4.95-2.348-7.1-4.422-2.308-2.227-3.45-4.696-5.364-7.22-1.855-2.448-12.437-9.29-7.083-13.942 7.202-6.234 4.604 1.126 7.642 2.264 1.282.48 2.06-1.858 3.513-1.558 3.33.694 3.896 6.357 5.716 8.454 4.17 4.802 12.515 5.786 17.126 10.765 4.65 5.03 2.59 10.444 6.617 15.914 1.96 2.664 4.226 7.66 7.264 9.28.837.442 8.144 1.15 7.26 2.747-.747 1.377-4.242-.646-6.182.573-2.46 1.57 4.074 6.634 5.612 6.767 1.46.115 5.96-8.19 5.26-10.083-6.69.354-3.15-5.562-5.932-9.104-4.813-6.124 4.388-2.97 4.818-3.207 4.777-2.604 8.19-7.575 14.216-2.438 3.674 3.15.087 1.353.7 5.314.747 4.817 4.17 4.9 2.02 10.76 4.415 4.914 5.922 6.62 11.797 9.804 7.07 3.835 4.305.078 10.72-1.242 5.877-1.208 8.343 5.932 14.72 3.447 7.6-2.96 12.375-7.425 12.025 3.816 3.176 10.273-6.2 33.8-20.146 26.162-3.087-1.672-8.345-.267-11.022 1.5-3.095 2.06-8.986-.716-12.105-1.35-6.298-1.28-18.065-1.896-22.818-6.636-3.89-3.87-15.146-2.44-15.523 4.05-.31 5.38-.734 13.792-8.58 7.97-3.765-2.81-13.05-3.02-15.044-6.64-5.123-9.354-13.278-4.772-21.532-9.04-6.53-3.372-8.984-4.473-3.567-10.338 1.168-1.273-1.96-11.213-1.66-11.166-1.85-.287-2.342-2.342-4.185-2.617-2.343-.352-5.288 1.69-7.44 2.034-9.033 1.448-18.758.417-27.89 1.658-6.547.893-10.808 3.986-17.01 5.81-5.26 1.537-16.29 6.038-21.71 1.226-4.94-4.364-5.316 6.8-9.69 9.356-6.008 3.52-15.84 10.01-13.8 18.626 1.56 6.562-5.365 11.77-10.4 14.646-2.627 1.497-4.813.885-6.677 3.444-1.653 2.29-2.415 4.72-5.136 6.074-3.673 1.826-9.022 11.77-10.668 15.422-3.838 8.516-6.604 9.598-3.162 18.305 2.422 6.125.847 14.786-.682 20.78-.754 2.96-.997 5.668-3.028 8.143-2.646 3.2-.1 3.82 1.332 6.98 1.29 2.843-.297 4.435.8 7.38 1.275 3.425 4.02 2.505 6.227 4.522 3.455 3.164 7.293 8.33 10.472 11.932 4.053 4.543 2.64 12.163 9.918 14.46 7.108 2.227 11.758 10.014 18.943 12.768 5.193 2.005 14.215-3.596 20.264-3.545 6.9 0 13.856 3.386 20.195-1.195 5.01-3.616 16.616-7.35 22.597-4.956 5.16 2.086 5.682 10.978 10.596 11.358 4.784.39 13.258-4.393 16.47.766 2.62 4.223 2.638-1.76 4.036 6.454.84 4.932-2.82 9.41-2.52 14.427.145 2.17-1.925 5.404-2.833 7.285 1.28 3.282 2.52 6.396 4.827 9.135 4.38 5.2 9.995 8.19 12.137 15.072 1.416 4.548 7.176 11.93 5.76 16.992-1.99 7.093 6.894 14.746.5 21.072-8.425 8.33-13.026 24.495-6.04 34.687 10.218 14.902 8.08 31.296 14.25 47.153 2.707 6.962 7.384 12.074 9.886 19.396 1.104 3.237 4.21 7.16 3.754 10.78-.18 1.44-2.204 2.76-1.257 4.3 1.693 2.753 4.02 11.86 9.655 9.416 5.526-2.396 12.91-3.82 18.96-3.73 15.52.24 28.6-8.436 37.08-21.594 3.447-5.34 9.852-9.31 11.61-15.497 1.977-6.88-.744-14.603 8.814-16.146 9.682-1.556 8.066-12.278 6.533-19.382-2.23-10.323 1.656-10.755 9.187-17.194 5.276-4.512 12.2-6.443 17.19-11.056 5.697-5.265 4.73-12.165 5.13-19.147.21-3.63-.505-7.184.294-10.794.52-2.347-3.978-5.506-4.67-7.746a29.274 29.274 0 0 1-.994-12.678c.55-3.994-3.78-4.78-2.022-9.25 5.427-13.84 17.145-25.005 28.11-34.925 9.297-8.406 19.275-13.69 25.46-25.298 4.84-9.09 13.534-20.792 11.64-31.696.096.57-26.46 4.098-29.815 5.723-5.798 2.808-7.198.542-11.293-3.435-3.68-3.574-1.954-7.267-6.608-12.363-7.403-8.106-14.765-9.396-18.164-20.386-1.466-4.76-4.786-6.253-8.178-9.568-4.397-4.282-1.668-12.77-4.89-17.74-1.84-2.83-6.358-3.482-7.292-6.794-1.462-5.182-2.33-8.143-5.448-12.968-1.606-2.485-13.585-22.486-12.422-24.18.96-1.396 5 5.05 5.336 5.452 5.16 6.234 4.34 2.68 6.762-2.12.688.244 4.975 7.56 5.76 8.62 3.333 4.484 8.058 9.995 9.552 15.474.786 2.865 7.09 7.12 8.87 10.47 3.124 5.82.305 10.796 7.072 15.067 5.498 3.44 5.94 9.5 10.31 13.885 5.252 5.23 4.465 9.455 6.283 16.027 1.354 4.888 1.61 12.803 8.327 11.828 2.95-.428 3.736-2.748 6.237-3.683 2.25-.844 4.77.134 7.104-.447 4.336-1.08 8.362-3.983 12.14-6.093 4.602-2.57 13.718-1.897 15.694-8.06 1.227-3.81 8.372-4.423 11.563-5.4 2.46-.754 9.73-6.3 11.09-9.072 1.99-4.042 4.118-2.394 5.446-7.438.916-3.486 12.36-10.263 8.26-14.667-4.162-4.455-5.248-5.97-11.31-6.946-6.948-1.137-4.782-8.44-8.34-12.072-7.883 3.563-6.475 10.183-16.467 10.556-8.106.303-8.482-2.896-9.19-10.633-1.968 1.02-1.057 3.315-2.752 4.612 2.908-2.235-30.26-31.8-9.755-30.364 4.58.322 4.556.958 6.76 4.25 4.025 6.014 5.008 7.266 10.93 10.352 3.42 1.782 4.883 4.485 8.945 5.193 4.617.813 9.94-3.64 13.63-2.24 2.576.978 3.76 5.475 4.842 7.633 3.414.92 6.885 1.07 10.358 1.732 8.35 1.592 15.614.104 23.725.892 9.802.964 15.503-3.754 20.456 7.623 2.79 1.482 5.454 1.858 7.32 4.76 1.632 2.53 8.2 1.058 8.647 2.297.574 1.604-4.457 3.96-5.104 4.532 3.347 3.68 9.984 11.063 14.52 4.003 4.086-6.352 1.853-8.566 4.6 1.51 1.805 6.684 1.546 13.762 3.993 20.437 2.793 7.61 7.076 14.572 9.575 22.248 2.21 6.838 6.835 11.838 9.36 18.554 2.316 6.166 4.016 14.982 10.503 7.45 3.62-4.204 8.956-7.854 7.746-13.832-.78-3.79 3.077-6.68 1.734-10.425-1.327-3.71-.992-7.453-.89-11.36.13-4.59 8.184-5.535 10.47-8.74 4.07-5.707 10.085-9.676 13.886-15.96 1.52-2.51 5.26-2.02 6.98-4.675 1.6-2.47.743-5.237 3.135-7.183 3.39-2.753 2.83-2.945 6.778-2.224 3.106.572 10.58-.29 10.093-5.035-.35-3.29 6.845 1.132 7.522 3.075.965 2.75 1.342 5.35 3.156 7.767 2.21 2.944 6.23 3.43 8.378 6.168 3.357 4.28 7.23 12.688 5.104 18.114-2.953 7.548 12.146-1.31 13.57-3.236 11.07 12.4 12.915 32.372 10.598 48.257-.39 2.846 11.08 12.352 12.046 16.857 1.046 4.88 3.246 12.366 6.75 16.106 1.882 1.998 16.04 12.232 12.158 3.146-2.696-6.312-2.48-14.168-7.23-19.257-2.575-2.762-14.41-7.123-12.72-11.923.69-1.97-4.204-7.184-5.652-8.034-3.472-2.044-1.14-8.602-.358-11.178.874-2.882 2.968-19.49 7.908-9.74 1.233 2.4 5.043 1.773 6.995 3.44 3.04 2.635 5.828 5.56 8.642 8.322 1.882 1.85 5.204 3.268 7.45 4.646-.993 6.23-.25 7.554 4.804 3.083 5.825-5.153 14.277-8.02 16.194-16.287 1.517-6.54-2.258-16.347-6.586-21.24-1.878-2.127-4.14-3.52-6.48-5.05-3.495-2.33-4.37-5.934-7.402-8.55-4.45-3.837.147-13.125 4.048-15.694 5.43-3.59 8.09-4.274 14.073-2.647 1.553 1.456.35 5.163 3.413 5.136-1.035 0 1.428-4.662 3.33-5.185 5.062-1.408 12.8-8.49 16.085-7.254 8.575-2.064 24.66-10.42 24.975-21.5.11-4.16 3.27-12.02 6.373-14.87 2.614-2.42 1.102-6.948 1.362-9.963.373-4.372-3.618-2.28-5.917-4.027-1.578-1.188 6.406-4 4.438-6.304-.74-.864-4.145-2.753-3.84-3.902.345-1.302 5.914-2.195.762-4.318-4.638-1.87-4.896-8.586-8.074-11.79-4.75-4.785-6.98-2.645-6.002-10.515 2.604-2.364 3.034-5.643 6.09-7.8 1.804-1.274 6.98-1.76 7.284-4.084.434-3.353-4.328-2.165-5.823-2.355-6.175-.784-3.948-2.766-8.776 2.678-2.905 3.273-13.062-6.227-13.744-9.202-1.494-6.493 6.188-2.963 6.713-7.626.312-2.8 7.29-12.47 10.426-12.178 7.622.715 1.572 6.842 2.73 10.322 1.737 5.24 10.34-2.438 13.876-2.726 5.443 1.898 7.73 4.052 6.532 10.244-1.256 6.49 6.04 2.738 8.924 6.19 1.683 2.01 3.485 9.726 3.64 12.42.6 10.486.73 5.85 9.398 5.827 17-.032-12.894-31.963-12.997-32.79-.734-5.858 9.018-7.87 7.904-14.17-1.55-8.526 2.93-9.574 6.462-16.328 2.257-4.31 10.698 4.57 15.13-5.044 2.912-6.386 9.075-16.085 9.51-23.083.332-5.48.946-15.144 3.828-19.866 3.477-5.73-5.182-16.152-5.396-21.98-.282-8.14-3.818-32.366-17.32-30.054-4.99.854-1.605 4.583-6.754 6.635-2.153.867-1.31-1.92-2.323-2.624-1.475-1.027-3.098 2.458-4.475-.58-.48-1.064-1.61-5.69-3.393-5.47-10.238 1.3-6.168-4.625-3.098-10.693 3.165-6.25 4.788-14.11 6.966-20.85 1.725-5.34.637-12.154 2.622-17.183 3.065-7.672 12.186-4.588 17.468-8.516 5.114-3.843 9.772.405 12.767-5.745 2.315-4.74 13.572-2.364 16.618.677-1.382.87-1.845 1.977-1.387 3.32.6.766 11.142-4.686 12.34-5.88 2.256-2.296-3.182-1.92-3.782-3.413-2.728-6.766 1.75-14.54.638-21.862-1.013-6.662 16.335-11.305 16.855-8.19.995 5.838.65 7.1 6.375 8.69.76-2.108 4.208-11.67 3.668-13.37-.747-2.304-4.765-7.633-2.8-10.086 1.252-1.555 8.056-3.764 8.534-.172.61 4.58-2.365 3.496.287 9.634 2.64 6.106 4.878 10.083.878 15.15-4.042 5.12-2.54 16.712-3.265 23.082-.693 6.2-1.322 8.757-3.963 14.533-1.45 3.218-.54 8.634-2.006 12.716 2.064 10.516 6.627 20.318 12.692 29.11 2.073 3.003 5.372 11.28 8.92 12.566 4.43 1.602 1.77 12.483 8.178 11.967 2.362-4.16 3.82-7.936 1.926-12.673-2.58-6.408 1.48-4.657 2.944-9.04.652-1.95-2.48-7.212-2.054-10.11.655-4.504 5.48-3.978 6.268-7.15.666-2.69-6.157-8.138-6.197-12.248-.037-3.788-.565-6.254 1.307-9.666-.098.176-5.39-5.872-4.063-9.508 2.035-5.55-4.564-.864-4.645-.837-4.59 1.536-7.328-21.375-7.993-24.168-1.068-4.438 5.242-3.828 6.262-6.895 1.96-5.943 4 .02 6.384.275 1.048-5.068 5.865-13.425 12.377-8.492 7.343 5.563 4.557 1.27 6.335-5.228 1.57-5.737 5.485-32.885 16.4-30.902 9.147 1.653 4.542-4.917 2.214-8.727-1.41-2.308-5.342-4.33-8.05-3.966-2.678.355-.355-3.65-1.55-4.844-2.596-2.592-5.675-3.666-8.962-4.83-5.217-1.848-1.98-4.42-8.116-1.36-2.76 1.36-2.2-4-.502-5.23-1.04.048-1.834-.303-2.38-1.05 1.087-3.486 7.543 2.104 9.88 1.913 5.584-.46 5.147-8.78 4.557-12.76-.775-5.203-6.12-5.55-8.617-9.286-2.48-3.743 2.646-10.01 3.853-5.367 1.056 4.118 6.4 6.394 7.362 1.354 1.304-6.68 7.832-1.6 9.99.435.948.89 9.004-.602 10.766-.602 2.893.007 3.23-4.43.772-4.806-1.333-.203 2.16.332 0 0zM242.644 615.64c-1.354-5.52-12.42-6.54-16.49-11.152-5.068-5.75-19.83-8.65-27.196-7.457-.53.088-5.47 3.546-5.783 1.43-.97-6.6-2.667-4.61-7.404-7.61-10.606-6.7-12.153 2.072-19.95 6.456.043-2.286-1.608-1.79-2.497-3.293-.028-.048 7.51-4.22 8.1-7.08 1.08-5.286-14.73 1.825-16.362 1.136.567-3.173 10.71-10.823 8.035-13.742-4.78-5.23-5.576-12.057-10.723-17.078-3.876-3.78-11.678-7.05-17.15-6.74-5.377.31-8.33.447-12.648-3.05-2.435-1.974-3.946-3.88-6.284-5.8-1.71-1.4-12.2-6.99-12.09-7.377 1.448-5.05-10.54-4.31-8.5-8.48.985-2.008-13.295 2.62-14.992 1.393-3.098-2.23-7.082-1.077-10.533-1.014-3.34.063-3.937-3.96-7.3-4.832-8.784-2.272-12.178 2.29-12.178 9.666 0 3.75-6.825 1.736-2.988-4.487 1.473-2.398-1.112-3.88-.317-6.167.642-1.845 3.71-1.867 2.76-4.196-.35-.842-13.9 5.602-14.285 6.27-1.288 2.2-3.434.166-5.195 1.158-2.773 1.562-2.587 4.593-3.59 7.16-.66.53-7.452 8.228-6.42 8.122-4.176.42-7.196-8.125-13.578-7.442-6.37.682-12.76 6.86-18.148-.836-5.238-7.48-5.52-9.71-3.84-18.734.562-3.024 1.645-5.656 1.9-8.72.38-4.552-3.38-3.26-6.207-5.61-5.093-4.247-15.41.13-21.363-1.173-1.73-.373 2.02-16.04 3.46-16.02 2.126.056 4.13-9.506 6.29-12.353 5.755-7.604-11.94-2.92-13.79-2.843-2.664.102-9.068 13.598-10 16.097-.045.12-15.68 2.04-17.036 1.627-11.52-3.493-16.77-19.11-15.358-29.828.924-7.004 4.156-14.052 3.984-21.002-.296-12.13 7.92-8.98 13.77-15.017 5.79-5.98 10.09-.52 16.934-3.585 2.77-1.23 10.538 8.438 11.92-.128 1.097-6.8 13.974-4.843 18.7-4.02 2.564.445 5.82 4.492 8.386 3.278 3.76-1.785 4.98-.53 7.354 2.58.938 1.23 7.92 30.212 11.757 25.175C14.83 428.44-.693 412.35 8.53 399.24c2.415-3.443 9.483-6.923 12.915-9.765 3.405-2.82 9.167-8.136 12.78-10.136 4.46-2.525-1.88-3.655 1.665-5.602 3.597-1.937-2.67-19.945 2.482-20.23.69-.042 1.29 10.52 4.164 7.5 3.098-3.25-1.08-7.586 3.777-7.813 5.325-.274 4.072-7.02 5.99-9.963 3.33-5.105 11.68-1.396 14.283-5.402.666-.65 1.45-.868 2.355-.65 4.383-.468.716-3.305 1.67-5.637 2.196-5.364 3.58-8.36 9.057-10.995 3.823-1.837 12.626-2.004 13.66-6.714 3.32-.6 6.506-1.08 9.688-2.256-.58.216 9.083-1.74 5.733 1.755-1.54 1.573-6.38 2.014-8.566 3.084-2.314 1.128-4.558 8.864-.563 7.488 3.75-1.27 4.68-4.486 7.796-6.188 3.553-1.943 8.928-1.413 12.79-3.68 3.216-1.834-9.474-4.413-10.995-5.866-2.704-2.583-4.693-6.433-2.872-10.31.917-1.964-4.076-1.48-4.053-3.957.01-.53 6.765-.937 7.545-3.354 1.14-3.532-4.528-4.895-6.798-4.33-5.376 1.333-11.245 2.542-15.648 6.12-1.447 1.174-10.312 6.952-10.302 6.938 4.156-5.725 10.057-12.604 16.852-15.188 7.3-2.78 6.607-8.07 15.173-7.31 8.293.732 16.602 1.84 24.904 1.26 2.944-.205 5.51-2.443 7.233-4.643 2.776-3.546 6.123-2.178 9.866-3.467 4.404-1.518 9.438-8.83 6.31-13.712-1.45-2.25-3.458-.194-4.68-1.47-.787-.818.373-2.52-.43-3.576-3.24-4.264-12.098 7.666-14.54 5.134-4.025-4.12 13.932-8.377 13.024-9.913-1.454-2.416-11.456-2.815-11.296-5.694.203-3.657-8.946-9.59-4.552-12.257 4.212-2.56-.987-11.896-3.725-15.1-.5-.582 2.09-2.423 1.388-3.946-1.89-4.123-2.066-8.72-2.653-13.144-2.878.482-4.866 6.58-6.31 8.605-3.042 4.27-7.63 7.714-12.85 8.99-6.49-4.128-8.403-13.613-5.46-19.367 1.443-2.816 3.597-6.25-.87-7.598-5.4-1.627-5.55-4.513-7.877-9.086-2.102-4.135-20.542-10.434-23.556-5.567-1.99 3.208.892 6.105-1.333 9.655-2.627 4.19.8 8.613-.984 12.6-1.678 3.75-6.835 5.564-8.758 9.268-.44 2.1.31 3.848 2.258 5.238 2.002 3.395 1.983 8.065 1.76 11.87-.368 6.437-.872 7.258-6.583 11.16-2.905 1.984-12.827 4.02-12.522 8.41.165 2.367-1.405 27.492-3.82 26.598-6.082-2.214-9.268-4.497-12.788-12.786-1.593-3.754 5.427-20.166 2.04-20.89-11.242-2.395-16.364-6.012-23.985-14.798-2.24-2.585-6.315-4.604-9.366-6.152-3.485-1.77-6.83 1.962-10.24.526 2.643-5.344 2.807-9.357 1.522-15.35-.475-2.273-4 2.26-4.554.272-1.098-3.93-.175-8.33 1.284-12.086 2.64-6.796 7.63-11.61 12.12-17.23 2.162-2.7 3.392-2.923 5.99-4.916 4.495-3.453.707-5.76 2.704-8.465.828-1.156 6.78 5.97 9.153 1.255 1.427-2.835-4.66-5.783-3.6-6.913 1.82-1.95 8.933 5.07 9.906-1.114.634-3.796 6.84 1.386 9.523-1.15 4.903-4.623 10.934-7.138 2.807-10.515-1.886-.785-6.358-8.373-2.335-7.82 3.472.48 3.798 8.216 8.38 6.934 2.146-.602 9.506-5.62 7.64-8.423-3.2-4.833 5.402-2.495 7.205-.498 5.28.346 2.854-2.328 1.78-5.86l.848-.757c2.55.886 3.63 2.842 3.235 5.865.727 2.856 5.376-.68 5.693-.89 9.504-6.332 5.315-6.35 6.508-15.62.644-4.983 4.798-2.873 6.918-7.77 1.726-3.98-3.47-7.735-6.513-9.782-8.462-5.69-5.506 5.45-8.967 8.513-3.98 3.517-7.41 6.817-10.644 11.273-4.336 5.976-7.876 5.21-7.848-3.266.013-3.76 4.17-6.166 3.517-9.656.583 3.107-1.082-7.593-3.135-4.443-.437.67-9.575 10.745-6.855 4.183 3.188-7.647.612-8.125-3.26-12.188-2.55-2.677 3.903-6.687 5.364-8.182 1.368-1.4.55-15.4-.143-17.682-1.61-5.294-8.338-6.404-7.14.007.44 2.364-11.076 1.47-7.814 8.846 1.515 3.434-7.916 6.243-2.17 11.975 3.196 3.188 9.77 3.72 9.784 8.413-7.407-.583-4.5-.713-6.07 3.894-1.244 3.634-4.565 6.6-8.135 8.13-5.18 2.223-4.67 2.45-5.582 8.58-.74 4.94-8.128 2.583-7.05 1.366.292-.33 3.638-.12 3.073-1.586-1.573-4.127-1.076-4.752 1.602-8.51-3.026-6.29-10.458-7.404-6.815.593-9.785.41-27.375-1.7-29.667-13.466-.372-1.912.634-6.993-3.05-6.734-2.76.19-7.65-.52-9.662 1.882-2.852 3.404 11.013-.503 11.48 1.485.857 3.758-12.654 4.77-13.694 8.234.05-.165-5.04 15.897-6.5 10.027-.984-3.912.35-15.26-6.088-13.772-2.115.49-23.54-.565-19.253-6.847 2.37-3.484 14.526-3.506 5.92-10.222-2.086-1.626-5.48-.874-8.07-2.817-2.76-2.07-5.814-4.193-8.287-6.607-3.007-2.937-5.865-13.28-11.545-7.34-7.273 7.585-4.497-3.584-3.862-6.32-2.858-.18-4.862 7.05-7.44 5.775-4.93-2.41-.935-12.344-1.363-16.604-.466.11-4.514 4.85-5.505 5.404-4.553 2.55-7.883.437-12.24 3.1 6.45-3.957-11.21-.257-14.125 1.66 4.657-3.063 8.667-4.083 14.14-4.33 4.42-.214 7.38-6.575 3.076-4.364-3.504 1.792-12.732 5.05-16.467 5.034-2.613-.017-5.753 1.813-8.103 2.63-.174.49-.758 8.76-3.155 7.224-1.238-.794-2.174-3.48-3.128-4.456-2.034-2.058-6.013-4.325-7.046-7.16-2.133-5.807-3.503-8.644-8.746-12-3.527-2.26-3.983-4.408-6.45-7.492-2.055-2.565-5.274-.43-7.53-2.13-3.35-2.517-14.52-6.753-14.536-11.36-.01-2.99-4.907-1.032-5.68-.868-3.183.688-3.568-3.746-4.397-5.67-.85-1.977 1.57-4.035-.884-5.35-2.078-1.114-5.284-.142-6.52-2.692 1.304 2.69-12.673-1.67-5.328-3.457.834-.203 5.01-.225 3.483-2.55-2.388-3.612-6.225 1.23-9.12 1.756-2.532.458-5.807-.908-8.312-1.26-3.26-.45-3.04 2.54-4.994 4.197-3.893 3.302-10.622.462-15.74 3.662-5.39 3.373-10.14 8.657-16.485 10.216-5.376 1.318-14.452-4.524-15.93 5.68-.918 6.323 3.234 11.188 1.304 18.34-.923 3.43 6.21 2.69 4.618 7.076-1.923 5.283 9.15 3.065 6.017 7.463-1.02 1.43-10.66 3.213-12.894 3.396-13.604 1.114-.438-17.868-15.62-7.493-1.195.814-17.363.472-14.07 6.09 4.646 7.935 1.812 3.245-1.555 11.655-2.138 5.358 15.376 6.976 17.726 5.925 5.41-2.425 10.442-3.31 6.11 2.444-2.372 3.15-3.11 15.79-10.57 12.713-5.064-2.07-12.998 4.083-16.668 6.64-1.996 1.388-5.402.145-7.373 1.626-3.272 2.448-5.47 5.99-8.793 8.383-5.247 3.788 6.443 10.646 6.434 11-.116 3.648-9.99-3.488-8.53 4.144 1.762 9.327 5.44 7.415 10.482 2.748l.63-.17c1.462.014-.907 9.514-1.393 10.63-2.93 6.747-.703 6.394 4.912 9.307 1.07.553 13.157 3.606 13.22 3.5-5.38 8.86-12.78 16.605-22.248 21.16-3.315 1.595-7.94 7.412-10.527 8.188-1.286.386-15.35-1.818-12.033 5.23-.75-1.54 20.645-5.47 21.866-6.603 4.624-4.284 11.443-4.824 15.943-8.84 4.26-3.8 7.65-6.165 13.265-8.237 3.272-1.205 6.736-4.952 9.842-6.885 2.58-1.59-5.062-8.325 4.076-8.944 6.204-.407 20.56-21.49 27.95-14.518 4.575 4.068-11.805 7.348-11.71 7.248-1.134 1.188-6.726 7.576-6.14 8.928 2.388 5.497-2.99.09-3.326 5.33.023-.428 18.664-4.63 20.706-6.82 2.375-2.548-.296-5.737 2.405-8.075 2.595-2.243 7.344.56 10.985.283-1.815 7.393 6.092 12.852 11.863 14.768 3.844 1.274 7.118 5.944 10.823 6.253 4.602.376 1.238 3.338 3.182 6.278.756.927 1.73 1.356 2.92 1.293.747 1.293-.06 4.713.347 5.998 1.812 5.743 4.183 4.9 4.14-.426-.038-3.62 4.416 5.32 4.403 5.302 2.396 4.224 3.436-10 5.19-9.076 1.984 1.034-.492 8.823.185 10.796.76 2.053 2.05 3.648 3.872 4.787-.364 2.426-2.255 5.05-2.31 7.344-.133 5.475 7.43 14.71 3.86 19.473-.007.053.11-.064.17-.12-.12 1.553.03 3.082.445 4.587 1.35-2.38 3.03-3.226 5.04-2.54-2.643-.965-9.963 17.745-4.586 15.897 4.19-1.437 5.97.21 2.508 4.556.058-.072 1.005 8.045.778 7.758 1.348 1.717 4.01-1.646 5.564-1.725.492-1.87-3.007 2.034-2.014.987 3.764 3.998-1.86 3.995-4.112 6.582-.047.053 1.587 1.9.956 3.436-.952 2.286 4.22 8.86 6.453 9.448 4.87 1.275 15.89 28.74 4.635 29.1 5.548-.08-6.987-13.918-7.198-8.282-.208 6.438.77 13.107-1.503 18.5-3.04 7.18-4.75 15.247-8.813 21.92-1.96 3.215-1.962 6.903-1.765 10.513.154 2.83-3.668 9.622-2.68 11.57 2.347 4.684-1.44 14.696 4.497 17.59 2.71 1.325 1.93 7.947 1.6 10.663-.95 7.478 4.208 14.73 9.805 17.646 9.902 5.16 8.975 11.788 12.26 21.31 1.096 3.18 1.5 8.645 4.23 10.98 2.462 2.118 5.8 6.315 4.943 9.894-.315 1.313-4.303 3.39-2.314 5.21 1.965 1.802 5.006 2.235 6.625 4.436 1.756 2.396 4.16 3.295 4.082 6.653-.093 4.112-1.032 3.986 2.14 7.103 1.05 1.025 12.123 11.89 9.022 5.756-1.22-2.354-3.795-3.095-5-5.272-1.35-2.44-1.556-6.638-2.232-9.354-1.388-5.578-4.512-11.03-7.308-16.172-3.976-7.31-6.757-10.738-6.27-19.28.213-3.802 3.414-1.927 5.32-1.09 4.666 2.04 3.97 7.2 5.336 11.543 1.582 5.03 5.977 13.424 10.01 16.883 4.125 3.54 2.802 8.73 6.155 11.002 4.44 3.01 8.46 9 11.355 13.592 2.02 3.2 3.333 6.387 4.335 10.03 1.45 5.27-2.943 7.723.187 12.71 5.893 9.41 26.266 15.87 36.356 19.82 3.43 1.345 7.075 2.783 10.833 1.97 2.462-.53 4.892-2.988 7.516-2.452 6.474 1.305 10.036 9.1 15.377 12.387 3.973 2.445 16.635 5.82 21.307 4.54.852-.23 7.444 9.88 9.66 11.195.32 5.31-.053 6.668 4.86 7.33 2.338.314 5.458 4.408 6.428 6.244 1.566 2.963 7.068 2.06 9.835 2.97.653 1.288 7.045 6.504 7.676 2.747.46-2.72 2.75-9.337 7.012-7.532 4.808 2.02 4.525 7.426 6.938 11.613 1.813 3.146 4.54 17.022 1.995 20.25-7.893 10.018-19.994 16.798-18.75 31.287.238 2.65 7.722-1.036 4.713 4.872-2.598 5.106-11.532 8.257-5.915 16.214 3.434 4.866 10.51 6.543 12.508 13.386 2.386 8.127 7.97 15.497 12.407 22.567 1.702 2.717 1.565 6.006 3.228 8.55 2.378 3.635 6.837 5.79 10.28 8.218 6.777 4.777 13.478 8.303 19.865 13.863 4.43 3.854 3.642 14.228 4.04 19.575.508 6.847.52 15.888-.26 22.712-1.773 15.536-4.167 33.187-.097 48.667 1.113 4.253-3.197 21.998-5.896 25.42-2.143 2.716 1.853 8.905 2.816 11.337 1.458 3.67-1.258 9.904-.893 13.916.343 3.824 2.557 4.164 5.025 3.348 4.7-1.48 2.18 10.242 2.175 11.257-.02 4.93 1.417 5.802 2.385 9.74.614 2.49-2.688 9.08-3.21 11.942-1.183.04-9.08-4.487-6.276 1.986 1.032 2.38 5.255.6 5.672 3.854.304 2.333-.992 5.927 2 6.927 2.145.726-.494 7.4-2.11 8.53-9.174 6.42 6.772 8.146 4.367 3.146 1.458 2.542-2.6 5.948.247 8.02 2.72 1.98 2.175 2.516 3.737 6.013 4.327 9.68 2.272-1.77 7.39 3.34 3.503 3.512-6.267 3.933-3.662 7.335.505.66 2.98 3.85 4.17 3.147-.892 0-.12-.448 2.312-1.346-4.912 2.67.135 3.408.104 3.44.16-.176 4.597-4.802 3.967-4.76l.408-.03c-.104-.107-.103-.112.002-.013 1.496 1.673-1.843 10.11 2.266 8.636 1.84-.66 1.16-5.554 1.233-6.893.227-4.03 4.992-5.914 8.07-6.99 0-3.664-4.862-7.52-4.238-11.812.474-3.264 3.825-4.202 5.125-6.775 1.363-2.697-.294-4.87 2.04-7.568 1.525-1.764 8.554-12.036 1.927-13.39-5.816-1.19-11.164-7.337-6.354-12.56 3.01-3.27 8.85-3.985 6.794-9.993-.213-.62 1.23-9.495 1.627-10.02.47-.618 8.626 1.257 4.99-2.216-.23-.22-5.747-.73-5.365-.508-2.508-1.456-2.63-5.268-3.207-7.705-1.162-4.935 9.757.554 11.585-.288 2.922-1.343 2.977-9.845 1.992-12.6-1.746-4.852 4.016-2.97 6.234-2.863 7.574.363 15.322-1.89 18.3-9.124 2.976-7.23-3.042-5.146-1.838-11.813.054-.302-9-11.258-6.486-10.185 6.026 2.564 10.378 4.624 17.35 4.908 5.546.215 5.41-4.906 8.3-7.798 4.525-2.764-.577-5.5-.995-2.73.412-2.855 3.618-3.73 4.776-5.843 1.457-2.658 2.24-5.572 3.88-8.45 1.304-2.29 1.485-5.697 4.545-4.06 2.226 1.188 7.168-9.728 8.196-11.685 2.29-4.313-.433-7.396-.046-11.74.42-4.714 3.737-7.295 6.973-10.226 3.51-3.19 7.783-4.188 11.343-7.03 5.354-4.278 6.077-3.615 13-3.87 12.436-.454 17.156-30.42 17.374-39.668.14-5.912-1.092-10.825.514-16.6 5.387-2.57 5.01-4.25 8.48-9.23 7.72-11.072 13.29-12.79 9.714-27.338-.675-2.752.214.87 0 0z"/></g><path fill="#AB3434" d="M743 860h12v12h-12zM757 776h8v8h-8zM447 806h8v8h-8zM513 1049h8v8h-8zM551 918h8v8h-8zM620 791h8v8h-8zM403 634h8v8h-8zM323 868h8v8h-8zM802 642h8v8h-8zM389 879h12v12h-12zM728 626h12v12h-12zM366 699h12v12h-12zM539 826h12v12h-12zM571 993h12v12h-12zM304 795h12v12h-12zM477 922h12v12h-12zM816 687h12v12h-12zM439 745h12v12h-12zM612 872h12v12h-12zM668 798h12v12h-12zM395 978h12v12h-12z"/><g fill="#56504F"><path d="M645.46 909.99l13.776 20.044 9.564-7.272L657.254 903H652z"/><path d="M665.07 920.943l19.637 30.13 3.17-1.19 1.19 1.19-5.946 7.63-6.224 1.686-2.497-1.786 3.766-4.163-19.426-29.93zM699.97 928.475l-7.532-2.412-2.578-1.345L635.35 861h-2.378l54.31 64.924.794 3.323.99 7.015zM804 779.813l-49.998 117.343-9.265 12.01 9.474-1.7 2.81-7.996 49.69-119.657-2.71-1.586zM930 997.38l-116.006-4.683-9.51-6.418-8.684 14.48 16.2-3.38 118 3.38zM750.98 1041.46l5.284 34.093 3.04-1.586-4.956-34.888zM697.063 1006.846L568.75 1142.153s6.342-2.51 9.382 4.098c2.708 5.888-.66 7.798-.66 7.798l128.444-136.77s5.672-5.012.66-10.432c-4.162-4.502-9.513 0-9.513 0z"/><ellipse transform="rotate(-121.15 572.8 1148.515)" cx="572.829" cy="1148.514" rx="6.079" ry="4.625"/><path d="M714.177 1002.507c-4.18-5.376-11.06-7.02-15.37-3.667-2.206 1.714-3.304 4.402-3.298 7.34l.463-.49.068-.058c.116-.098 2.86-2.372 6.22-2.372 2.067 0 3.963.867 5.48 2.51 1.758 1.9 2.592 3.982 2.48 6.19-.177 3.492-2.733 6.02-3.19 6.444l-1.167 1.243c2.893.78 5.83.4 8.07-1.342 4.313-3.348 4.42-10.422.244-15.798zm-12.878-1.26c-.33.015-.615-.35-.635-.812s.232-.85.563-.862c.33-.013.612.35.633.813.02.462-.23.848-.56.86zm9.66 3.703c-.226-.24-.138-.69.198-1.01s.793-.382 1.02-.142c.23.238.14.69-.195 1.01-.338.32-.794.383-1.022.142zm1.27 11.902c-.45-.104-.758-.45-.684-.77.075-.322.5-.5.95-.396.45.105.758.45.683.77-.076.324-.5.498-.95.396zM691.908 931.515l-48.63 47.308 73.736-32.705 45.986-44.6-71.092 29.997zm-34.655 38.433c-.822.57-1.655.796-1.86.502-.202-.295.3-.995 1.123-1.565.822-.57 1.655-.795 1.86-.502.203.295-.3.996-1.123 1.565zm38.85-36.47c-.82.57-1.654.796-1.857.5-.204-.293.3-.993 1.122-1.564.822-.57 1.655-.796 1.858-.5.204.29-.298.992-1.122 1.565zm19.03 9.513c-.822.57-1.656.796-1.858.502-.205-.294.298-.995 1.12-1.564.822-.57 1.656-.795 1.86-.502.204.295-.3.995-1.122 1.565zm34.093-31.713c-.82.57-1.654.795-1.858.5s.298-.994 1.122-1.563c.82-.57 1.655-.795 1.858-.502.204.294-.3.993-1.122 1.565z"/><path d="M764.984 903.104L719.59 949.09l-74.33 31.715 28.912 47.873 19.752-20.83-.003-1.664c-.006-3.578 1.383-6.63 3.91-8.596 1.744-1.355 3.9-2.07 6.236-2.07 4.186 0 8.432 2.248 11.36 6.016 2.24 2.886 3.446 6.314 3.395 9.657-.052 3.478-1.442 6.447-3.915 8.37-1.736 1.35-3.888 2.062-6.22 2.062a12.44 12.44 0 0 1-3.238-.44l-.816-.222-21.375 22.762 10.963 18.154 77.3-28.315 40.647-49.186-47.18-81.27zm-80.323 64.61c.6-.395 1.53-.032 2.08.806.55.837.51 1.834-.09 2.227-.598.394-1.527.03-2.077-.806s-.51-1.834.088-2.227zm-17.174 39.132l-15.95-26.24 12.226-5.482 16.43 27.324-12.706 4.398zm16.494-6.087l-16.587-27.29 12.226-5.483 17.44 28.017-13.08 4.755zm12.186 57.203c-.598.393-1.527.03-2.078-.808-.55-.837-.512-1.834.088-2.228.6-.394 1.527-.03 2.078.807.55.838.51 1.836-.088 2.23zm67.973-150.617c.642-.316 1.52.154 1.966 1.052.444.898.283 1.883-.356 2.2-.64.316-1.52-.154-1.966-1.05-.446-.9-.287-1.885.355-2.202zm3.62 9.235l16.185 26.737-6.638 8.074-16.418-27.938 6.87-6.87zm-29.996 30.79l16.52 27.486-7.4 8.326-16.52-28.412 7.4-7.4zm-10.098.41c.643-.315 1.52.154 1.967 1.054.443.896.284 1.883-.356 2.2-.642.316-1.52-.153-1.966-1.053-.444-.894-.285-1.88.356-2.2zm-9.3 10.28c-.6.394-1.528.032-2.078-.805-.55-.838-.51-1.835.087-2.23.6-.392 1.53-.03 2.08.808.55.837.51 1.835-.09 2.228zm.326 47.323l24.885-10.042 9.25 16.783-24.513 9.116-9.622-15.857zm17.118 38.307c-.598.393-1.527.03-2.077-.806-.55-.84-.512-1.834.087-2.23.6-.392 1.528-.03 2.077.81.55.837.51 1.834-.087 2.226zm3.152-4.198l-9.17-15.74 24.886-9.384 8.816 15.996-24.532 9.128zm17.434-66.617l-16.52-27.617 7.4-7.4 16.518 26.693-7.398 8.325zm-5.417-39.51l7.397-7.4 16.52 27.486-7.4 8.325-16.518-28.41zm21.11 94.577c-.64.317-1.52-.152-1.965-1.052-.443-.896-.285-1.882.356-2.2s1.522.153 1.967 1.052c.445.897.285 1.883-.356 2.2zm0-51.536c-.64.316-1.52-.153-1.965-1.052-.443-.896-.285-1.882.356-2.2.643-.316 1.522.154 1.967 1.05.445.9.285 1.884-.356 2.202zm14.273 22.992c-.643.318-1.52-.153-1.967-1.05-.443-.897-.285-1.884.355-2.2s1.522.152 1.967 1.05c.446.898.287 1.883-.354 2.2zm2.836-2.02l-16.835-27.706 6.87-7.797 16.602 27.43-6.638 8.074zm8.72-11.1l-16.417-27.013 6.87-7.797 16.186 26.734-6.64 8.077zm9.85-1.15c-.64.316-1.52-.154-1.965-1.053-.443-.896-.286-1.883.355-2.2.643-.316 1.52.153 1.966 1.053.444.895.285 1.883-.356 2.2z"/></g></svg>