<svg xmlns="http://www.w3.org/2000/svg" xmlns:xlink="http://www.w3.org/1999/xlink" width="800" height="800" viewBox="0 0 800 800"><path opacity=".12" fill="none" stroke="#FFF" stroke-miterlimit="10" d="M-274 405.5h1353"/><circle opacity=".12" fill="none" stroke="#FFF" stroke-width=".616" stroke-miterlimit="10" cx="401" cy="419.484" r="352.738"/><circle opacity=".12" fill="none" stroke="#FFF" stroke-width=".616" stroke-miterlimit="10" cx="400.999" cy="419.484" r="485.931"/><path opacity=".12" fill="none" stroke="#FFF" stroke-width=".616" stroke-miterlimit="10" d="M-75.703-71.817L880.6 884.485M880.165-71.817L-76.138 884.485"/><g opacity=".5"><defs><path id="a" d="M1047.096 416.262L65.116-130.455-243.385 423.66l982.122 546.458z"/></defs><clipPath id="b"><use xlink:href="#a" overflow="visible"/></clipPath><path opacity=".2" clip-path="url(#b)" fill="#1D3E56" d="M198.936 393.375c5.03-3.948 7.1-9.25 11.575-9.94 4.475-.69 8.875-2.86 12.206-4.077 3.334-1.218 2.4-2.197 6.344 1.27 3.944 3.468 13.58-2.183 17.876 2.022 4.297 4.21 2.06 4.928 5.575 8.23 3.866 3.63 1.974 11.484-3.83 18.068-5.803 6.583-22.624 10.56-22.76 26.182-.275 32.03-12.6 20.223-15.092 13.39-2.014-5.528-18.05-32.73-19.088-38.816-1.593-9.37 3.94-13.774 7.196-16.33z"/><defs><path id="c" d="M1047.096 416.262L65.116-130.455-243.385 423.66l982.122 546.458z"/></defs><clipPath id="d"><use xlink:href="#c" overflow="visible"/></clipPath><path opacity=".1" clip-path="url(#d)" fill="#0F2335" d="M241.807 404.818c-.442.958-1.54 1.877-2.4 2.857-.675.765-6.515 1.662-8.252 1.972-4.103.736-8.123-.17-13.553 6.33-3.75 4.49-2.034 14.997-4.283 15.052-2.942.073-8.872-9.005-9.42-10.515-.4-1.09-.805-1.962-1.165-2.73-1.002-2.143-.155-3.8.503-7.205.887-4.57-4.943-4.337 1.21-8.148 3.29-2.04 3.753-3.357 6.58-5.437 1.32-1.013 3.01-1.663 3.95-1.78 3.105-.38 4.19-.51 6.247-1.26 1.196-.438 3.57 1.648 5.3 3.17 2.523 2.218 5.576.572 7.593-.52 1.912-1.034 2.162-1.04 2.587-.62 1.263 1.234 1.465 1.78 1.7 2.412.43 1.166.914 2.245 2.442 3.683.54.503 1.832.844.96 2.738z"/><g fill="#1D2F49"><path d="M128.833 772.443c-6.54-4.043-12.96-8.285-19.427-12.446 6.902 3.95 13.74 8.022 20.765 11.743 1.323.7 4.42.653 4.948-.168 3.37-5.256 6.252-10.823 9.176-16.076-9.146-4.304-18.03-6.747-24.598-12.058-6.754-5.46-13.99-9.306-21.775-12.133C86.485 727.152 76.87 720.462 67 713.61c-3.524-2.448-8.064-3.787-10.882-7.642-.18-.247-.84-.322-1.205-.222-3.548.974-7.08 2.002-9.964 2.828 2.202 3.194 4.994 7.244 7.762 11.276-6.184-7.135-10.1-7.953-12.232-2.362-6.01-2.732-11.933-5.658-18.05-8.1-2.68-1.07-5.763-1.613-8.647-1.554-3.226.067-5.206 2.326-2.587 5.108 3.743 3.973 7.686 9.202 12.447 10.448 7.678 2.014 5.938 9.407 11.547 12.48-9.1.83-16.636 1.516-24.15 2.197 1.04 2.13 2.12 4.325 3.194 6.523-4.93-2.636-8.947-5.63-12.87-8.74-14.29-11.33-28.55-22.695-42.812-34.06-.65-.518-1.744-1.14-1.74-1.71.024-5.353-3.128-6.413-7.667-8.525-7.068-3.295-12.604-9.61-14.225-18.407 2.365 2.62 4.73 5.235 7.096 7.855l.896-.876-14.167-14.643 1.01-1.226 9.77 6.505c-7.918-10.58-19.147-18.525-22.052-32.678l14.866 15.75c1.675-3.01 4.518-5.76 4.094-7.848-.864-4.266-3.318-7.725-3.85-12.762-.897-8.486-5.692-16.654-9.43-24.682-.988-2.122-4.11-3.25-6.253-4.832 3.265-1.75 3.207-4.183 1.32-6.88-1.32-1.884-3.212-3.485-4.1-5.536-5.717-13.196-11.226-26.482-16.802-39.74-.256 5.26-.632 10.515 1.033 15.017 4.482 12.108 9.782 23.913 14.948 35.756.37.843 2.295 1.005 3.494 1.487l-15.24 9.532c1.315-4.248-1.066-9.138-5.118-8.85-6.767.487-9.42-3.885-12.58-8.348-1.858-2.622-4.346-4.8-6.682-7.322l-1.5 2.437c-5.114-1.77-10.186-3.524-15.258-5.277l-.955 1.102c3.213 2.766 6.426 5.53 8.06 6.935.164 3.807-.5 6.32.464 7.665a259.006 259.006 0 0 0 14.542 18.463c.99 1.146 3.605.885 5.447 1.29-1.058 2.516-2.14 5.048-3.327 7.823-.138-.103-.89-.665-1.99-1.484.093 2.087.332 3.92.207 5.726-.118 1.673-.625 3.316-.96 4.973-1.468-.452-2.96-.844-4.4-1.367-1.634-.592-3.224-1.302-5.313-2.157.502 3.354.342 6.232 1.383 8.58 6.557 14.783 13.33 29.475 20.136 44.145 3.392 7.317 5.968 15.31 10.725 21.635 10.796 14.35 21.18 28.964 34.004 41.897 12.125 12.23 23.033 25.6 37.56 35.226 4.015 2.66 8.185 5.096 12.12 7.868 6.084 4.286 12.142 8.63 18.003 13.21 8.345 6.526 16.467 13.336 24.75 19.943 8.73 6.96 17.54 13.827 26.313 20.735.55-.694 1.102-1.387 1.652-2.078-6.224-4.562-12.448-9.12-18.67-13.682l.476-.896c2.455 1.15 4.908 2.307 8.633 4.06-2.658-2.347-4.24-3.72-5.796-5.12-5.522-4.952-11.094-9.855-16.502-14.932-.863-.81-.976-2.415-1.437-3.653.91-.28 2.043-1.06 2.687-.763 6.795 3.12 13.85 5.867 20.15 9.813 5.772 3.617 10.707 8.576 16.85 13.637l.66-6.35c2.9.335 5.79.67 10.013 1.156-5.888-5.76-10.81-10.26-15.613-14.964.31-.38.742-.98.817-.94l38.988 21.71c10.246-18.404 20.677-37.225 31.21-55.985 1.966-3.497.184-5.13-2.47-6.767z"/><path d="M579.12 866.03c-11.734 1.337-24.286 2.43-36.05 4.315.957-1.72 1.717-3.087 2.63-4.725-11.97-1.352-21.986-1.63-32.315-2.325-.482-2.884-1.068-5.526-1.552-8.397-2.076.24-4.655.516-7.165.77-8.387.838-16.553 3.597-24.515-3.497-3.498-3.113-10.51-2.255-15.886-3.36-2-.412-3.91-1.302-6.46-2.18-.33.48-1.407 2.02-2.966 4.267-1.472-1.467-2.655-2.64-3.836-3.815.23-.39.46-.784.693-1.176-.495.334-.99.667-1.484 1.005-1.433.024-2.865.054-4.447.083 1.16-2.413 2.588-4.163 3.552-6.17-.425-.18-.79-.322-.816-.275l-4.07 7.31c-17.176-2.828-32.79-5.04-48.818-7.07-1.272-.16-3.117 2.228-4.57 3.467.386-4.75-2.76-5.762-6.604-5.88-14.185-.442-28.427-1.156-42.614-1.326-10.093-.12-20.243.107-30.313.77-8.04.532-14.45-2.576-20.437-7.296 13.342-1.16 26.68-2.324 40.025-3.484-5.723-3.396-11.45-5.028-16.877-7.348-7.13-3.046-14.176-6.383-20.94-10.163-1.802-1.01-1.94-4.856-3.738-6.035-2.754-1.802-6.213-3.053-9.497-3.414-6.922-.758-13.94-.613-20.888-1.18-4.617-.375-9.46-.942-10.013-7.13-.894.5-1.66.93-1.823 1.02-2.123-2.64-3.74-4.646-5.586-6.942-1.643 2.288-2.52 3.51-4.09 5.7.68-2.77 1.28-4.116 1.642-5.592-.323-.073-.693-.172-.738-.09a5044.16 5044.16 0 0 0-2.736 4.916c-5.667-.647-10.384-1.858-14.93-1.23-7.96 1.108-13.54-.992-17.105-8.52-.788-1.667-4.01-2.686-6.246-3.122-3.49-.682-7.644.377-10.634-1.075-14.774-7.172-31.786-9.993-44.447-23.293-3.29 5.908-6.42 11.006-8.906 16.402-.51 1.104.89 4.086 2.204 4.87 6.832 4.07 13.918 7.704 20.888 11.478-6.7-3.173-13.59-6.072-20.103-9.653-4.18-2.3-6.347-1.655-8.574 2.51-6.47 12.104-13.446 23.946-19.82 36.1-1.354 2.58-1.004 6.053-1.44 9.113-1.315.125-3.356-.24-3.824.457-2.218 3.3-4.004 6.89-6.138 10.722 6.89 4.434 12.76 8.686 19.086 12.085 3.295 1.772 7.398 2.043 11.157 3.014 4.336 3.012 8.365 6.748 13.106 8.956 16.782 7.812 33.744 15.248 50.765 22.53 10.7 4.58 21.568 8.772 32.462 12.87 11.693 4.398 23.502 8.486 35.26 12.71l-.218 1.417c-1.512.545-3.024 1.09-5.757 2.078 10.177 3.812 20.336 4.15 28.346 10.89l3.27-3.318c-1.922 5.008.183 6.812 4.53 7.286l3.43-4.914c13.744 2.677 26.566 5.06 39.338 7.698 8.468 1.75 16.876 3.8 25.273 5.88 1.38.34 3.042 1.24 3.733 2.39 3.064 5.098 7.958 4.806 12.817 4.83 6.154-.246 12.31-.495 18.46-.74-6.15.245-12.306.494-18.486.743-.125.375-.223.747-.322 1.117 5.974.638 11.94 1.33 17.925 1.793.443.036 1.013-1.572 1.518-2.404 2.024.87 4.085 2.605 6.05 2.504 13.358-.688 26.716-1.554 40.03-2.826 5.046-.483 9.984-2.164 14.937-3.427.334-.085.382-1.267.588-1.945 10.525-2.673 21.112-5.214 31.613-8.07 12.568-3.42 25.243-6.6 37.508-10.916 5.347-1.886 11.964-5.34 14.074-9.9 2.514-5.434 6.458-4.41 9.9-5.98 1.455-.657 3.184-.81 4.513-1.638a1575.26 1575.26 0 0 0 24.43-15.53c1.664-1.076 4.52-2.435 4.533-3.73.044-4.502-.73-8.924-1.482-14.96zM900.43 493.24c2.296-6.604 6.18-12.954 7.006-19.706 1.73-14.067 1.898-28.327 2.722-42.51.704-12.094 2.597-24.265 1.828-36.266-.892-13.92-1.022-28.686-12.702-39.974-.216 1.09-.364 1.838-.51 2.555-1.064 5.103 0 0 0 0-.948-2.35-1.895-4.73-2.84-7.112-3.472 1.682-6.94 3.365-10.65 5.163-.438-.353-1.46-1.182-2.738-2.214l-1.23 7.135c-12.85-8.558-12.94 6.603-19.22 9.135-4.975-3.335-9.938-6.666-15.622-10.476a7721.42 7721.42 0 0 1-2.996 6.74c-4.485-1.533-8.83-3.018-11.833-4.046 1.09 5.662 1.74 11.114 3.233 16.322 2.39 8.324 6.243 16.334 7.688 24.784.764 4.46.156 10.463-6.33 13.09-3.37 1.364-5.953 4.688-8.862 7.163-2.572 2.187-5.102 4.42-7.648 6.635l-1.657-1.343c-.56-6.16-1.118-12.32-1.747-19.257-3.165 10.314-12.894 16.252-13.924 27.192-.437 4.637-3.465 8.974-4.72 13.607-.95 3.522-2.647 9.05-1.036 10.607 3.575 3.46 1.304 5.123-.17 7.622-1.626 2.754-3.13 5.578-4.686 8.375l-.77-1.668c-2.017.128-5.51-.322-5.82.475a203.753 203.753 0 0 0-6.747 20.314c-1.384 5.036-2.06 10.265-3.093 15.398-.156.77-.547 1.497-.83 2.242-6.17-2.392-3.56 3.333-4.537 5.29-1.738 3.465-2.453 7.427-3.918 11.05-1 2.47-2.556 4.71-4.48 8.17 1.602-1.006 1.925-1.36 2.278-1.39.23-.02.468.07.71.176-5.345 6.39-10.45 12.07-14.933 18.193-4.828 6.592-8.135 14.467-13.636 20.352-5.924 6.337-6.45 11.948-2.52 19.03.688 1.235.61 4.278-.14 4.713-4.902 2.83-1.293 6.72-.47 8.93 4.312 11.578 6.395 22.63-3.632 33.633 2.344.2 3.95.86 4.835.328 4.122-2.49 8.312-4.992 11.98-8.08 6.628-5.572 12.866-11.605 19.34-17.367 4.23-3.772 9.158-6.92 12.767-11.2 6.958-8.257 13.27-17.048 19.712-25.728 3.545-4.775 8.26-8.25 10.97-14.105.062.033.124.068.186.103 7.483-6.544 13.736-11.98 20.44-17.284 1.088-.858 3.905-.61 5.277.206 2.113 1.26 3.67 3.45 5.37 5.157 3.316-7.772 7.013-15.35 10.654-23.886 1.64 2.42 2.338 4.043 5.203 7.314l4.916-8.826c-2.043 3.665-3.31 7.766-4.836 11.918.95-.976 1.7-2.043 3.13-3.51.815 5.33 1.43 9.93 2.155 14.69 15.127-4.636 18.12-18.695 23.474-31.46 1.646 2.11 2.346 3.028 3.07 3.96 1.153-1.062 2.883-1.923 3.35-3.232 3.205-8.99 6.05-18.112 9.186-27.128zM-2.564 348.7c1.39-4.7 3.936-6.045 7.517-2.128 5.58 6.106 13.727 9.92 15.967 19.14.567 2.334 4.454 5.294 6.984 5.465 10.414.7 19.4-3.002 26.777-10.68 2.146-2.233 5.06-4.293 7.97-5.014 1.89-.47 5.633 3.034 6.438 2.335 2.917-2.537 7.147 8.077 8.585-1.05l-1.11-27.647c.37 9.217.74 18.433 1.118 27.677-.038 4.84 2.206 5.886 6.447 4.136 2.517-1.038 5.19-1.693 7.76-2.608 1.536-.545 3.014-1.26 5.078-2.138-6.402-5.476-7.665-10.89-6.432-18.013.583-3.36-.682-7.04-1.11-10.572 1.895-1.03 3.79-2.063 5.44-2.958-7.784-4.753-10.526-12.907-7.014-19.61 2.98-.876 5.127-1.465 7.302-2.105-.113-.583-.602-.49-.366-1.7-1.58-.878-3.157-1.757-4.7-2.616-5.223 7.137-4.993 6.725-7.55 4.686 4.03-3.143 6.866-13.208 4.466-18.3-1.04-2.213-3.8-3.628-5.782-5.396-.794 1.056-1.585 2.233-2.376 3.26-1.1 15.127-2.2 30.357-3.3 45.566-4.69-.006-4.692-.006-.002 0 1.102-15.21 2.206-30.443 3.304-45.57 1.243-8.984-1.072-18.658 4.504-26.948 1.395-5.826 2.79-11.685 4.184-17.514.316-3.38 2.067-6.973.928-10.19 1.14 3.217-.612 6.787-.925 10.167-1.397 5.828-2.792 11.65-4.186 17.476.173 3.566.348 7.128.518 10.693-3.792 5.258-1.143 8.65 4.308 12.936-.584-5.33-.86-9.09-1.283-12.927 2.18-.237 4.43-.432 7.965-.77l13.634-24.487c.083-.147-.66-1.08-1.14-2.013 2.027.28 3.23.412 3.163.404-1.75-2.808-3.803-6.058-5.82-9.29.876.115 1.735.22 2.61.334 1.295-1.678 3.92-3.68 3.61-4.977-.74-3.095-2.872-5.86-4.6-9.055 10.523-2.272 8.956-10.32 9.706-16.95 1.668.072 2.98.13 4.512.195 1.047-6.532 1.893-12.63 3.035-18.67.916-4.833-3.038-5.86-5.844-6.767-1.342-.433-3.954 1.984-5.5 3.585-1.285 1.334-1.85 3.36-2.736 5.077-.054-.624-.3-1.31-.128-1.86.726-2.32 1.51-4.625 2.29-6.926 2.023-1.486 3.81-4.626 5.758-6.688.096-.102.3-.115.464-.15.247-.356.58-.666.79-1.043l-3.147 5.65 8.456 4.708c3.075-9.67 5.37-17.61 7.855-25.896-.63-.183-1.167-.53-1.796-.713-2.928 3.776-5.81 7.47-8.738 11.25.41-1.687.21-3.555-1.235-5.668-.312-.455 1.63-2.918 2.923-3.92 2.54-1.975 5.492-3.446 7.99-5.467.624-.506.256-2.338.214-3.554-.074-2.072-.25-4.142-.353-5.762-1.89-.916-4.755-1.344-5.488-2.826-2.872-5.8-6.333-8.875-13.06-5.756-1.855.86-4.442.24-6.194 1.206-4.61 2.542-5.96-1.172-7.834-3.71-.807-1.095-.963-2.672-1.4-3.986-2.94 3.63-5.437 6.715-7.933 9.8-1.918 3.715-3.84 7.43-5.758 11.147 1.92-3.716 3.84-7.432 5.772-11.175 2.177-3.913 4.34-7.8 5.97-10.725-3.82-6.083-8.462-8.237-14.567-4.393l2.333 3.888c-4.13-.71-7.348-1.265-10.538-1.833 3.32-2.737.783-3.898-1.505-3.896-1.642 0-3.57 1.376-4.875 2.648-6.123 5.976-12.144 12.083-18.373 18.36-1.6-.242-3.35-.12-4.013.58-8.16 8.583-19.07 14.712-24.15 26.042-2.07 4.614-3.358 9.573-5.113 14.333-2.984 8.088-6.057 16.142-9.092 24.21-4.594 2.854-9.427 5.402-13.675 8.7-2.07 1.607-3.046 4.616-4.513 6.96.352-3.222-.69-4.478-3.883-2.7-7.61 4.24-15.4 8.19-22.764 12.824-3.982 2.506-7.083 6.37-10.854 9.266-6.12 4.7-12.408 9.185-18.733 13.61-4.37 3.055-10.318 4.102-11.02 11.27-.222 2.294-3.86 4.19-5.777 6.4-1.915 2.21-4.352 4.34-5.255 6.954-1.094 3.163.153 6.046 5.954 5.705l-9.31 14.22c-.596-1.214-1.194-2.428-2.354-4.784-1.762 4.77-2.158 8.69-4.283 11.057-5.756 6.408-11.474 12.537-10.13 22.228l-4.646-.48c-.07 2.985-.126 5.46-.206 9.016 2.395-2.412 4.134-4.16 5.854-5.885a604.5 604.5 0 0 1 4.114 6.122c-5.685.024-11.34-.098-11.854 7.903-.493 7.69-1.308 15.363-1.98 23.044-3.25-1.712-4.053-1.42-2.967 1.617 1.496 4.173 4.305 7.876 6.55 11.782l1.467-.805c-1.208-3.34-2.82-6.907-4.02-10.22 1.43 1.352 3.307 2.976 3.622 3.613l5.886-10.574c2.356 2.984 1.814 3.533 2.312 4.7 5.02-4.407 8.115-10.49 8.238-16.96.16-8.426 2.66-9.872 9.384-6.165 1.476-1.21 3.174-2.085 4.16-3.465 1.03-1.437 1.448-3.32 2.12-5.015-.785.09-1.553.19-2.308.274 2.833-3.396 5.702-6.794 9.664-11.5.32 2.786.396 4.893.854 6.908.332 1.46 1.174 2.806 1.788 4.2 1.784-.905 3.69-1.642 5.3-2.793.673-.485.72-1.84.762-1.958 2.048 1.613 3.868 3.048 5.69 4.48-.75.85-2.316 2.126-2.128 2.484 2.54 4.847 5.288 9.587 8.095 14.29.324.54 1.353 1.043 1.976.96 7.575-.99 3.125-8.626 6.44-12.2.563-.607-1.56-3.782-2.588-5.69-.115-.213-1.188.086-1.784.15 1.733-1.203 3.525-2.367 5.255-3.618 2.084-1.506 4.116-3.086 6.17-4.634 4.01-2.44 4.01-2.44-.02.02-4.17 3.327-4.967 6.158 1.076 8.016-1.226.625-3.64 1.488-3.57 1.832 1.163 5.563 2.487 11.11 4.248 16.505.204.63 3.8 1.098 4.82.322 2.38-1.815 4.147-4.43 6.175-6.695.687 2.046.822 5.207 2.216 5.927 1.94 1 4.823.17 7.303.123.96 2.26 2.648 4.31 4.666 4.716 4.32.874 9.117 1.587 10.886-4.4zm106.668-175.597c.022.015.048.03.072.045l-.235.033c.058-.024.107-.05.164-.077zm-5.67 40.226c.237-.602.477-1.203.715-1.804-.24.6-.48 1.203-.717 1.803zM218.23 628.734c-.002.386-.384.763-.563 1.152-2.633 5.792-1.455 8.804 4.425 11.018 5.74 2.163 11.952 3.483 17.184 6.51 9.245 5.346 18.868 6.825 29 4.715 5.742-1.2 11.123-4.54 16.864-5.204 4.66-.54 7.248-2.382 8.63-6.196 1.3-3.587 2.108-3.233 4.49-.73 1.36 1.43 5.04 2.792 6.042 2.032 3.44-2.614 6.77-5.807 9.005-9.472 2.966-4.86 1.29-7.264-4.735-8.458 1.582-.406 3.362-.49 4.77-1.258 6.233-3.396 12.634-4.648 18.22-2.85 3.462-1.366 5.922-3 8.51-3.234 7.79-.7 11.415-3.137 13.585-10.89.74-2.653.24-5.627.574-8.425.634-5.303 2.96-10.942 1.807-15.78-1.324-5.553 2.12-7.282 4.8-9.117 5.573-3.814 11.903-6.5 17.667-10.062 3.92-2.42 7.328-5.76 11.008-8.568-.147-3.234-.095-6.918-.516-9.918h.002c.102-4 .425-9.035.597-13.662 12.222-1.494 24.48-2.88 36.7-4.373-.408-.707-.792-1.973-1.207-1.977-4.026-.035-8.137-.32-12.055.396-11.024 2.012-15.28-.43-18.668-11.042-.486-1.532-2.42-2.598-3.686-3.882-.604 1.188-1.207 2.378-1.81 3.535-.154-3.608.754-7.885-4.952-8.178l2.06-12.522c-3.128.268-4.93.422-6.71.56 1.16-1.444 3.214-2.824 3.363-4.384.38-4.03-.082-8.14-.2-12.22-.098-3.44-.178-6.882-5.053-6.732.68-2.01 1.995-4.044 1.92-6.024-.223-5.73-1.014-11.44-1.533-17.16-.024-.25.436-.543.837-1.006l3.75 2.922c.814-3.636 1.508-6.72 2.05-9.14-8.218-3.652-15.383-6.98-22.68-9.993-2.113-.872-4.6-.84-6.916-1.22.35-8.41-7.764-7.178-11.758-11.376-2.93 4.025-5.615 7.433-10.106 3.273-.154.276-.304.538-.457.813a73.568 73.568 0 0 0-1.832-1.456c-.09-2.463-1.045-5.183-3.357-8.31-4.013-5.423-9.993-10.622-17.47-9.655.382-1.804.786-3.632 1.19-5.46.004.01.01.02.012.03a900.69 900.69 0 0 0 6.56 4.242c-.822-4.874-3.726-8.532 2.94-8.528 3.577 0 4.366-6.06 1.205-9.644-1.837 1.233-3.726 2.503-5.602 3.747.378-.7 1.065-1.406 1.116-2.157.353-5.04-9.42-11.783-14.616-10.154-.47-1.512-.98-4.337-1.41-4.325-2.705.074-5.7-4.768-8.15.208-3.23-4.95-4.71.386-6.944 1.19 2.95-4.654 2.88-7.666-2.174-11.985-7.398-6.322-16.64-7.515-22.895-.443-3.537 4-7.513 3.042-10.088-1.993-.52-1.02-3-1.494-4.537-1.417-1.695.087-3.296 1.376-5.017 1.66-6.693 1.115-13.447 1.9-20.106 3.175-1.027.198-1.684 2.32-2.533 3.53-.724.002-1.825-.35-2.16.01-5.695 6.128-10.11 14.09-20.555 13.205.793 5.128 1.115 10.113 2.173 14.685.62 2.68 2.614 4.338 3.142 7.98a34990.9 34990.9 0 0 0-8.367-4.66c-.148-.082-.6.38-.977.71 1.233 3.504 2.543 6.873 3.774 10.378.704 3.086 1.448 6.1 2.153 9.186-.705-3.085-1.39-6.204-2.11-9.314a719.775 719.775 0 0 0-6.883 3.652c1.803 2.396 3.61 4.78 5.38 7.18-.915.31-2.7.687-2.68.93.36 4.72.762 9.455 1.667 14.09.115.586 3.102.61 4.757.894-.225.922-.45 1.84-.677 2.76 1.12-.035 2.238-.072 3.333-.09 2.55-1.325 2.55-1.325 0 0-3.64 8.23 7.663 3.94 7.668 9.11 1.562-.01 3.12-.02 4.68-.028-1.368 8.936 2.554 12.76 11.034 9.89a3061.592 3061.592 0 0 1-3.48-4.884c2.828 3.605 6.073 2.234 9.33.723-.825 1.77-1.65 3.536-3.105 6.66 3.886-1.92 6.003-2.967 8.11-3.987a1412.82 1412.82 0 0 0-3.6 4.472c2.985 3.787 5.36 6.883 7.83 9.906 3.29 4.036 6.553 8.105 10.02 11.986 2.366 2.648 5.062 5.006 7.608 7.493-1.817-1.125-3.635-2.244-5.453-3.367.176 1.897.35 3.795.57 6.16-1.667.35-3.572.748-5.7 1.192 1.29 3.754-1.76 9.664 5.2 9.964.258-.957.49-1.87.58-2.49l13.814 7.69c-.055-.028-.367.45-.616.843-1.116-.357-2.15-.863-3.267-1.222l-.485.88c.594.624 1.207 1.214 1.798 1.843-1.83-1.048-5.743.185-4.538-4.347.135-.506-2.098-2.36-3.26-2.38-4.91-.098-9.827.258-14.762.45-.178 3.647-.81 7.36-.31 10.918.2 1.41 2.92 2.464 4.463 3.69-4.682 1.58-3.366 3.482-.456 5.853 1.7 1.387 2.98 3.292 4.45 4.963-1.236-.426-2.366-1.042-3.602-1.47-.244.615-.7 1.613-.624 1.655l8.784 4.89c-.243.534-.65 1.364-.924 1.956-2.894-1.497-6.283-2.38-8.63-4.49-1.71 4.96-4.058 9.21-4.478 13.595-.5 5.19-2.703 7.264-7.454 8.752-5.307 1.658-10.542 4.27-12.62 9.667 1.992 2.2 3.452 3.816 4.914 5.433l-.09-.268c3.314 1.854 6.653 3.68 9.966 5.55-.28.564-.56 1.13-.84 1.69-3.234-2.095-6.084-4.84-9.128-7.24.005.014.09.272.097.287-2.252-.77-4.512-1.557-7.765-2.692.955 9.213-1.027 18.133 7.888 23.646l-.106-.22c.57.347 1.145.687 1.718 1.027-.102.264-.207.528-.296.79-.477-.598-.924-1.277-1.422-1.818 0 0 .106.22.112.23-1.66-.74-3.328-1.484-5.12-2.285-1.806 5.908-3.75 11.146-4.97 16.544-1.565 6.905.827 10.48 8.564 13.13 1.962-3.523 3.83-7.26 6-10.822.238.29.51.58.772.87-2.194 3.91-4.278 7.988-6.603 12.162 2.206 1.468 3.903 2.6 5.584 3.72l7.357-10.245c.112.084.207.164.32.245.997.23 2.008.473 3.008.705.27.865.652 1.737 1.12 2.616-2.173-1.937-2.25-1.926-3.95.805-1.902 3.05-2.908 7.22-7.987 6.06l.304-.072-.17-.112-.047.067c-6.595-1.58-10.33.654-10.318 7.937zm-15.066-209.15h-.004l-.644-.465c.217.154.433.31.648.465z"/><path d="M118.01 167.478c-.054.02-.116.03-.175.043l-.045.064.22-.106zM108.202 241.133c.074.146.085.166 0 0zM147.544 93.157a.08.08 0 0 1-.02-.004l-.083.05c-.03.073-.058.146-.087.22.064-.088.127-.176.19-.266zM174.657 82.295c.358-1.602 2.14-2.886 3.265-4.32.92 1.284 1.846 2.566 2.755 3.857.172.242.284.524.503.937.92-.962 1.74-1.822 2.644-2.766l-1.135 4.07 15.158-3.372 3.915-4.183c3.592-3.008 1.58-4.807-1.372-6.433-3.18-1.75-3.02-3.828-.933-6.518 4.26-5.498 8.346-11.132 12.393-16.79.44-.614.15-1.75.22-2.623 3.684.668 7.502 2.29 11.064 1.85 6.528-.81 12.48-1.09 18.17 3.093 1.61 1.185 4.516.607 6.83.84l-2.038 2.42c1.273.144 2.546.287 3.794.447 1.334 1.39 3.594 2.696 3.753 4.22.33 3.154-.762 6.426-.736 9.644.072 8.605-6.172 12.58-11.504 17.115.67 1.014 2.392 3.353 2.26 3.462-4.078 3.393-.6 6.594.09 9.818-1.76-.325-4.21-1.542-5.16-.813-3.005 2.31-6.487 4.903-7.894 8.196-2.864 6.696-8.574 6.657-14.075 7.75-4.505.898-8.982 1.94-13.472 2.917l.496 2.55c5.8-.473 11.625-.756 17.4-1.463 7.712-.945 10.69 1.06 12.493 8.52 3.25 13.448 8.362 16.602 18.572 12.674l7.242 20.597-1.42 1.62 7.083-.07 8.295-5.087c-2.766 1.695-5.53 3.39-8.32 5.104-.293 1.376-1.022 2.842-.734 4.073.667 2.852 1.823 5.59 2.834 8.53 1.93.304 4.773.66 7.535 1.107 1.24-1.39 2.346-3.272 3.83-4.272h.002c-1.486 1-2.59 2.88-3.833 4.272-2.11 1.154-4.375 2.22-6.324 3.64-.362.265.433 2.15.702 3.278 3.122-.913 6.094-1.894 9.42-2.866.244 1.15.674 2.884 1.087 5.75l3.312-5.95c8.564 6.268-.765 14.928 3.422 21.384.892 1.376.3 3.913.338 5.944l7.092 3.95c1.146-4.72 2.41-9.272 3.706-14.252.758.718 2.27 2.133 4.455 4.2-.37-2.275-.767-4.004-1.015-5.632-5.48-8.722-10.35-17.094-16.622-26.27l.006-.01c6.27 9.175 11.134 17.56 16.615 26.28 4.45 2.457 14.27.56 16.935-2.818 1.943.42 3.584.784 4.252.927-.92-3.822-3.073-7.546-2.085-10.012 1.345-3.353 9.26-3.212 12.076-.633 3.765-3.204 7.534-6.408 10.913-9.286-4.4-2.187-8.763-4.352-14.77-7.338-5.265.864-10.164-.235-11.18-5.062-.865-4.106-3.523-3.73-5.802-4.598-1.73-.66-3.988-.134-5.556-.98-1.37-.736-3.03-2.766-2.875-4.017.183-1.49 2.22-3.965 3.356-3.913 4.337.2 8.614 1.476 12.96 1.867 1.963.178 5.378-.23 5.817-1.314 1.954-4.82 5.95-5.085 10.038-6.232 3.19-.895 5.964-3.274 9.162-5.134 2.024.458 4.97 1.127 7.917 1.788 1.604.36 3.52.27 4.76 1.143 4.66 3.282 8.22 16.72 6.114 22.273 2.175-.234 4.325-.467 5.55-.6-.89 5.02-1.622 9.126-2.402 13.516l8.11 3.498-5.325-9.875c3.782-.515 7.06-.96 11.474-1.562-1.015-2.527-2.42-4.507-2.436-6.498-.016-1.98 1.363-3.972 2.13-5.958.75 1.95 1.498 3.9 1.636 4.26 4.265-1.87 8.146-5.182 10.697-4.36 5.36 1.725 6.218-1.547 8.09-4.538 2.206-3.525 4.438-4.746 8.973-2.405 3.33 1.72 8.005.947 12.087 1.058 2.574.072 5.158-.274 9.206-.523 1.66-.82 4.862-2.396 8.06-3.972 3.548-.443 6.928 6.53 10.592.12 1.02 2.203 1.447 5.386 3.17 6.424 5.603 3.38 11.478 6.574 17.653 8.623 3.27 1.086 7.54 1.296 10.056-3.622 2.535-4.95.032-6.623-3.562-8.19-2.504-1.09-5.165-1.82-7.73-2.7 5.325.714 10.68 1.436 14.24 1.917 2.2-3.952 3.483-6.26 4.77-8.567 2.376-4.26 4.935-8.436 6.974-12.85.396-.86-.888-3.19-2-3.9-2.128-1.362-4.688-2.046-7.448-3.164l6.642-6.09c-5.89.963-6.528 1.992-10.936 5.47-2.953 2.327-7.415 4.51-10.83 4.042-4.427-.604-8.647-3.65-12.65-6.136-2.996-1.86-5.35-3.025-9.152-1.493-1.71.69-4.75-1.923-8.753-3.755-.978-.39-3.932-.88-5.966-2.513a97.45 97.45 0 0 1-11.843-11.3c-1.175-1.322-.863-3.966-1.235-6.03 1.004.107 2.025.22 3.112.337l-1.997-4.095 5.11 1.452c.13-.404.263-.807.395-1.21-1.757-.692-3.513-1.385-5.248-2.067-.92 1.063-1.574 1.902-2.317 2.652-.89.9-1.853 1.725-3.66 3.39.81-2.392 1.26-3.727 2.007-5.93l-2.883 2.168.17-2.574c-5.01 2.373-6.85 1.092-6.897-4.747-2.505-.31-6.26.29-7.282-1.11-3.167-4.326-7.425-3.057-11.39-3.574-.127-2.806-.258-5.612-.378-8.235l6.538 1.625c-1.405-2.536-3.88-3.733-4.567-5.593-1.478-3.99-1.397-8.614-3.14-12.437-1.865-4.09-5.078-7.567-7.823-11.222-.068-.092-1.54.872-2.36 1.312-.903-2.446-1.81-4.92-2.87-7.828-3.79 4.938-5.9 2.19-5.906-1.17-.012-3.986-1.547-4.12-4.558-3.81-1.4.142-2.87-.644-4.326-.73-8.57-.5-17.13-.935-25.703-1.38l.047-.12-.02-.01s-.013.028-.014.034c-6.197 1.363-12.403 2.738-18.605 4.104l2.646-2.708c-.144-.793-.29-1.583-.436-2.376-12.07-.73-24.135-1.68-36.217-2.11-9.328-.332-18.76 3.074-27.988-1.684-2.495-1.287-6.614-1.658-9.03-.482-11.068 5.387-21.903 11.294-32.532 17.51-1.5.877-1.41 4.476-2.057 6.813l-3.39-3.145c-1.816 2.038-5.11 4.033-5.17 6.124-.188 6.4-4.667 7.53-9 9.943-5.83 3.246-12.575 6.57-16.106 11.776-4.31 6.355-7.448 12.736-15.676 14.717-1.854.446-3.25 2.804-5.043 4.455l-2.57-.943-6.014 8.327c1.79.48 3.61.878 5.368 1.457 11.53 3.8 19.118-.585 21.743-12.32zm97.618 75.603c-.78 2.944-1.05 5.716.433 7.883-1.484-2.166-1.212-4.938-.433-7.882zM705.167 433.817c1.04 6.157 2.032 12.02 3.02 17.878-5.677.038-6.525 4.254-7.598 8.506-.748 2.963-2.07 5.773-3.018 8.69-.73 2.247-1.282 4.554-1.964 7.02 3.884-2.263 6.42-3.74 8.933-5.198-.812.61-1.884 1.078-2.454 1.896-3.33 4.805-5.032 11.19-12.507 11.873-.65.062-2.023 4.436-1.274 5.37 2.604 3.237 5.89 5.977 9.185 8.567.637.5 2.774-.165 3.714-.92 3.56-2.866 6.903-6.005 10.35-9.012 1.276-1.11 2.46-2.563 3.965-3.13 5.128-1.938 8.812-6.922 6.076-10.607-2.83-3.806.05-6.26-.134-9.277-.142-2.32-.222-4.456-.18-6.782.058-2.877.63-6.513.217-8.752l-8.512-4.738c1.752-3.712 3.254-7.14 5.114-11.25-4.265-6.272-8.432-1.528-12.935-.13zM389.15 544.43l.44 9.703c1.075.604 2.38 1.934 3.188 1.682 3.833-1.208 7.524-2.863 11.278-4.33 3.94-1.54 7.89-3.05 13.335-5.15.83-4.69 3.4-10.755 9.4-14.74.445-.295.852-1.165.755-1.67-.248-1.313-.787-2.57-1.21-3.853-12.22 1.493-24.44 2.99-36.66 4.48l-.525 13.88zM331.994 229.36c.562-.037 1.134 1.093 1.782 1.2 4.61.758 9.24 1.39 13.863 2.063 11.173-2.204 22.348-4.41 33.522-6.613l-.554-10.868c-3.594-4.164-7.084-.41-10.552.228-4.75.876-9.882 3.853-14.05 2.79-8.197-2.093-15.79.05-23.522.953-4.128.483-6.79 4.103-6.185 8.728.61 4.682 3.564 1.663 5.694 1.52zM665.613 506.872c-.195.154-1.3 1.043-1.85 1.487-1.97-1.097-3.593-2.683-5.357-2.857a136.287 136.287 0 0 0-16.303-.607c-1.83.038-3.632 1.407-5.447 2.17 1.56 1.51 3.01 4.16 4.697 4.322 5.93.567 9.374 5.08 13.98 7.685 3.966 2.24 7.748 5.424 12.01 6.344 4.03.87 9.352.614 12.72-1.432 5.51-3.348 1.288-8.788 1.553-14.243-2.92 1.544-4.704 2.484-6.186 3.267-3.396-2.126-6.313-3.948-9.817-6.138zM802.433 341.74c-2.138-2.087-4.057-.69-5.438 2.406-1.004 2.25-1.064 4.922-1.55 7.405-3.66-1.182-6.273 1.496-6.2 6.405.082 5.247.155 10.494.326 15.738.11 3.375-.266 6.16-4.124 7.58-4.526 1.662-2.56 3.383.696 5.014a6021.21 6021.21 0 0 1 8.193-12.683c.09.167.133.406.272.55.12.124.432.253.52.187 4.608-3.28 9.202-6.586 14.27-10.23 1.08 2.95 1.58 4.318 2.298 6.284 1.002-2.662 1.36-5.89 2.474-6.173 5.255-1.343 3.228-3.72 1.446-6.284 1.575.252 4.378 1.112 4.57.71 1.435-2.96 2.35-6.174 3.966-10.88a8522.19 8522.19 0 0 1-3.82 4.02c-.045-5.045-.347-9.93.074-14.753.095-1.086 2.667-2.03 4.18-2.894 1.484-.846 3.077-1.502 4.624-2.242l-.72-2.294-6.082-.67c-.293-1.888-.656-4.21-1.018-6.53 13.275-3.903 15.375-6.586 16.682-21.507-.574.384-1.065.628-1.452.987-3.07 2.89-5.926 6.07-9.313 8.516-.842.608-3.84-.704-4.998-1.934-.892-.95-.454-3.15-.747-6.293-1.48 5.208-2.55 8.98-3.62 12.753-.614-.517-1.228-1.032-1.844-1.548-2.008 1.642-4.163 3.152-5.85 5.075-.23.262 1.877 2.576 2.873 3.942-2.387 1.107-5.77 1.562-7.042 3.445-3.264 4.828-7.542 9.94-3.647 15.9zM985.676 397.683c5.764-20.408 5.026-41.25 3.757-62.092-.323-5.3-1.24-10.563-1.9-15.843-1.052 1.165-2.518 2.257-2.75 3.566-.734 4.17-1.024 8.437-1.233 12.68a9919.22 9919.22 0 0 0-2.618 56.42c-.17 3.867-.063 7.747-.083 11.62l1.615.468c1.088-2.268 2.536-4.433 3.21-6.817zM948.037 150.363c-2.3-.182-3.64-.29-3.682-.292 1.054 2.895 2.715 5.557 2.883 8.31.37 6.018 4.574 9.85 7.036 14.69 3.508 6.9 5.97 14.335 8.878 21.54.408-1.864.813-3.73 1.632-7.49l6.523 12.872 1.6-.7c-11.016-28.445-22.027-56.888-33.04-85.333-.63.237-1.255.475-1.88.713 2.188 5.64 4.81 11.162 6.448 16.96 1.67 5.9 2.368 12.075 3.602 18.73z"/><path d="M347.638 232.624c-1.008 5.2 1.302 7.224 8.786 8.937l8.565 9.966 1.386-1.235c-2.954-6.2-4.183-5.257 6.767-7.087l-1.372 6.31c1.96-3.672 2.12-9.145 8.72-6.905.265-.89.527-1.778.79-2.667l.72-13.07c-.24 4.358-.478 8.715-.722 13.103.015 4.07 1.154 5.914 5.753 4.12 4.525-1.764 9.654-2.1 13.996-4.163 2.58-1.226 4.79-4.295 5.998-7.047 1.027-2.343.07-4.245-2.373-4.49 1.657-.044 3.21-.082 4.257-.107-1.056-3.798-2.04-7.81-3.325-11.724-.52-1.577-1.508-3.097-2.61-4.36-2.085-2.4-4.405-4.596-6.74-6.99-.3.272-1.505 2.154-2.353 2.004-6.856-1.215-8.69 5.617-13.27 7.93.184 3.623.37 7.245.555 10.868-11.178 2.2-22.352 4.406-33.527 6.61zM987.668 319.22c-.054.1-.115.2-.164.3l.03.228a7.42 7.42 0 0 0 .28-.317c-.045-.07-.098-.14-.146-.21zM988.78 316.7c-.245-29.782-6.635-58.63-13.278-88.21-.38 5.53-1.39 10.33-.894 14.966 1.034 9.68 2.206 19.438 4.522 28.868 3.377 13.737 5.062 27.556 5.367 41.65.038 1.77 1.992 3.5 3.17 5.247.464-.84 1.125-1.684 1.114-2.52zM898.502 528.854c-1.12 2.01-2.103 4.108-3.382 6.01-3.062 4.556-5.553 9.867-9.622 13.258-3.454 2.88-4.67 5.553-4.537 9.578.123 3.704-.13 7.433.226 11.108.092.948 1.845 1.736 2.188 2.037 3.99-7.17 9.55-13.574 11.013-20.806 1.41-6.98 2.81-14.026 4.115-21.186zM363.976 628.264c.05-.032.102-.063.15-.095-.016-.032-.033-.057-.05-.088-.034.064-.064.117-.1.182zM367.39 355.715c3.477-5.598 6.485-11.486 9.694-17.25l-1.68-2.238c-2.73 1.283-5.463 2.564-8.195 3.847-1.392 1.678-2.48 4.24-4.24 4.845 1.76-.605 2.848-3.168 4.25-4.876-.556-1.462-1.125-2.894-1.667-4.34 1.003-5.036-4.625-7.56-6.07-7.075-4.627 1.542-5.95-2.688-9.192-3.58-2.065 2.75-4.182 5.565-6.3 8.382l-3.097-6.752c-6.5 5.354-12.553 1.8-19.387-1.82 3.586 6.346 1.976 10.23-2.773 13.858-2.342 1.79-3.548 5.066-5.288 7.646-1.732-2.564-3.673-5.05-5.13-7.794-.575-1.08-.063-2.738-.042-4.547-1.533-1.087-3.718-2.723-5.988-4.232-3.083-2.05-5.56-2.068-7.776 1.6-1.185 1.962-3.617 3.14-5.33 4.827-1.43 1.413-3.287 2.857-3.82 4.63-2.145 7.158 5.077 17.89 12.54 17.283 6.52-.53 12.847-3.497 19.22-5.545.032 1.557.07 3.113.194 4.662.134 1.64.543 3.26.723 4.276l3.005-4.324-1.424-2.942 5.742 1.584-4.227-3.768c2.5-.182 5.517-.06 6.232 1.283 2.236 4.208 4.326 1.81 6.62.553 2.036 2.713 4.89 5.145 5.94 8.197 2.18 6.348 3.3 13.054 5.137 19.534.246.87 2.116 1.28 4.635 2.682-1.656-3.956-3.344-6.305-3.532-8.77-.44-5.72-5.318-12.587 3.385-16.633.278-.13-.722-3.01-1.103-4.588 1.503 1.09 3.077 2.14 4.547 3.32 3.603 2.894 11.922 2.043 14.395-1.937zm-22.162-18.125c.168 3.1-.678 7.41-3.79 8.41h-.004c3.116-1 3.962-5.31 3.794-8.41zM652.145 266.792c.994 4.306 2.758 7.68 1.166 12.384-.937 2.778.66 6.413 1.114 9.664 2.253-5.035-.303-11.032 4.184-16.506-.286-.476-1.54-2.562-2.858-4.75 1.757-1.09 3.167-1.967 5.038-3.13-1.37-.856-2.824-1.298-2.88-1.872-.79-8.294-7.188-11.873-13.076-15.905-.17-.115-.27-.327-.407-.493-3.508-4.262-3.805-4.242-8.13 1.477 10.87 1.95 13.68 9.74 15.85 19.132zM734.18 460.86c.58 1.74 1.68 3.31 2.573 4.94 1.03 1.872 2.698 4.035 3.72 5.912 1.123 2.06 1.13 3.552 4.335 7.42l4.926-8.85c-11.543-6.93-13.072-10.18-8.564-16.466 3.27 3.905 5.843 4.086 8.292-1.085-3.377-1.4-6.388-2.67-9.208-3.838.504-2.285.968-4.752 1.507-7.18-1.5 2.603-1.942 7.202-3.644 7.742-7.157 2.274-5.49 6.74-3.935 11.406zM417.944 160.385l-13.682-11.244c-2.643 2.068-5.837 4.344-8.66 7.013-.435.413.432 3.307 1.402 3.895 2.895 1.757 6.14 2.938 8.82 4.15l-2.535-4.882c5.36.932 9.375 1.628 13.392 2.324.422-.42.84-.837 1.262-1.255zM665.712 498.02l-6.128-12.783c-1.628.8-3.553 1.832-5.553 2.692-1.604.69-3.302 1.18-5.442 1.924.477 6.756 9.067 13.574 17.124 8.166zM362.54 187c-7.315.6-7.34.316-10.038 7.873 7.11-2.347 14.72-4.643 22.166-7.39 5.088-1.876 7.874-5.164 3.008-11.796-1.055 2.433-1.78 4.19-2.58 5.912-.41.887-.78 2.258-1.47 2.48-3.64 1.175-7.33 2.61-11.086 2.92zM707.656 511.77c-3.15 2.244-6.04 4.918-9.373 6.828-4.103 2.353-8.546 4.107-12.842 6.12 2.307 1.67 4.745 2.685 6.11 1.88 8.73-5.15 17.223-10.7 27.54-17.223-5.972-3.217-8.553.34-11.434 2.394zM-15.132 696.566c3.403 6.603 6.452 13.43 10.392 19.695 1.463 2.33 5.014 3.347 7.613 4.962.503-.654 1.008-1.31 1.51-1.965l-17.817-24.066c-.566.46-1.132.92-1.698 1.376zM-95.79 598.02c.556.288 1.11.58 1.666.867.45-1.246 1.6-2.758 1.242-3.697-2.85-7.54-5.848-15.032-9.07-22.42-3.386-7.764-7.072-15.396-10.626-23.086-.212.1-.425.198-.638.297 3.943 9.914 7.884 19.826 11.772 29.607-1.327.702-2.698 1.43-4.773 2.53 7.143 2.172 10.995 8.58 10.428 15.902zM725.62 387.095l3.39 13.875c1.067-.017 2.137-.035 3.206-.05.557-4.945 1.113-9.89 1.687-14.936-3.905-1.303-7.788-2.6-11.903-3.97.026 3.122.046 5.138.08 8.732l3.54-3.65zM-105.97 530.35c-3.087 5.815-1.663 10.7.363 14.964 1.428-3.796 4.917-8.463 4.405-12.64-1.145-9.307 7.333-4.166 10.485-8.208-6.835-.48-11.9-.424-15.252 5.885zM340.944 192.046c4.735-2.76 9.47-5.523 14.667-8.557-6.79-3.6-12.766-2.184-20.87 5.026l7.482-3.757c.218.59.436 1.18.652 1.77-1.027 1.184-2.053 2.37-3.082 3.554l1.152 1.962z"/><path d="M401.353 296.2l-8.844 15.883c1.933 1.337 1.097 1.134 1.557 1.65 3.9-3.4 7.89-6.752 11.783-10.124.706 3.495-2.328 8.1 2.915 10.366-1.732.666-3.252 1.422-4.97 2.187-4.677 2.08-9.135 1.68-12.79-2.582 2.224-3.994 4.412-7.922 6.98-12.538-8.87 2.702-15.042 7.163-18.67 14.495-4.548 3.954-4.953-1.104-6.61-3.146-2.91-3.56-2.973-3.595-7.403 5.33 3.766 2.45 7.5 4.886 9.98 6.5-1.408.705-3.486 1.728-6.642 3.305 5.468 2.398 9.053 4.625 12.95 5.485 3.463.765 6.716-.86 5.523-5.408-1.297-4.94-.48-7.447 5.807-5.275.406 1.71.822 3.474 1.28 5.396l16.215.692.02 8.003c-1.73-.324-3.48-.652-5.23-.978-2.33-2.047-4.583-4.242-6.954-6.216-.535.34-1.07.68-1.605 1.018-.025 1.182-.108 2.374-.178 3.563-.478-.09-.952-.18-1.43-.268.46.337.925.657 1.387.985-.087 1.693-.114 3.376.15 5.012.385 2.373 1.98 4.547 3.037 6.81l4.658 11.117c-1.552-3.704-3.105-7.41-4.677-11.137l-10.603-11.485c-.953 3.59-1.75 6.593-2.545 9.595l-5.247-5.76c-1.306.766-3.67 1.323-4.456 2.75-4.923 8.953-12.326 16.74-13.063 27.74-.136 2.04-1.956 3.925-2.753 5.977-1.67 4.3-3.2 8.657-4.618 13.044-.037.12 1.863.866 2.86 1.32-.714 2-1.57 3.972-2.007 6.03-.08.376 2.236 1.664 2.283 1.604 1.58-1.986 3.02-4.084 4.118-5.65 1.984-.665 3.662-1.227 5.37-1.783 4.054-.555 8.153-1.04 12.185-1.85.204-.04-.163-2.916-.273-4.606.954.17 2.445.442 3.97.716l1.37-14.58c3.297 3.124 4.966 8.968 11.45 6.863.186-.062.897.88 1.055 1.44 1.29 4.6 4.72 4.04 8.14 3.398 3.637-.68 7.258-1.46 10.887-2.195-1.163 1.92-1.92 4.35-3.563 5.67-5.238 4.207-2.39 7.287 1.147 10.14 1.91 1.54 4.32 2.465 6.504 3.667l-2.786.738c1.017 2.27 2.03 4.54 3.02 6.79-5.434-1.776-12.116 3.172-16.996-4.414-1.753-2.722-8.728-2.435-13.37-2.74-1.465-.098-3.1 2.34-4.654 3.617-2.41-6.246-8.147-1.47-11.015-3.8-1.81 2.745-3.245 4.926-4.607 6.996.607 1.502 1.53 4.228 2.825 6.764.505.986 1.75 1.757 2.833 2.25 2.23 1.02 4.577 1.786 7.453 2.875.393-.71 1.67-3 2.945-5.26 1.736 2.79 3.398 5.673 5.365 8.325.145.194 2.5-1.252 3.85-1.948-.196 2.495-4.803 6.3 1.984 6.57-5.964 4.568-6.077 12.617-10.62 18.07-.563.677-.605 2.1-.39 3.067 1.622 7.297-2.056 15.776 4.886 21.947.565.5.48 2.087.255 3.067-1.144 4.998-1.155 9.573 3.316 13.227.804.658.8 2.305 1.172 3.493 1.192 3.818 2.386 7.635 3.582 11.452-.53 4.83-1.06 9.66-1.633 14.908 1.234.56 2.72 1.89 3.83 1.628 5.224-1.24 10.314-3.033 15.517-4.393 3.85-1.007 7.82-2.4 11.694-2.284 7.102.214 8.688-.72 10.155-8.724 3.21.15 7.167 1.558 9.478.192 4.642-2.75 10.65-3.942 12.76-10.623.862-2.725 5.354-4.3 9.033-7.018-5.188-3.682-8.9-6.49-12.853-8.9-.517-.314-2.28 1.42-3.47 2.206.233-1.73.467-3.455.48-3.535-3.192.988-7.097 1.903-10.722 3.465-1.418.614-2.213 2.678-3.314 4.073-2.142-3.834-5.09-7.45-6.302-11.57-2.103-7.147-4.877-13.195-13.154-15.052 1.574-1.17 2.637-2.06 3.794-2.803 6.998-4.494 10.79-3.453 14.292 3.912.364.77.304 1.892.854 2.397 2.976 2.742 2.207 10.087 9.608 7.527 3.222-1.114 6.805-1.192 10.54-1.793.52 1.294.697 3.155 1.698 3.882 1.48 1.07 3.516 1.645 5.368 1.802.81.07 1.75-1.42 2.63-2.2 3.052 3.264 6.127 3.86 9.215.096 1.467.74 3.016 2.28 4.336 2.104 4.285-.57 8.488-1.77 12.878-2.766 2.702 2.397 4.547 7.993 10.006 3.455-2.52 6.693 2.38 4.175 4.35 3.913l-.166 7.048c1.512-.02 4.25.273 4.35-.11 1.632-6.34 6.207-5.71 10.895-4.91-1.05 1.85-3.008 3.717-3.02 5.6-.054 6.49 1.15 12.457 4.704 18.51 4.155 7.073 12.426 13.893 5.452 24.692 3.52.518 6.112.896 8.64 1.27-.122.892-.243 1.777-.534 3.923 3.593-3.464 7.385-5.583 8.736-8.747 2.806-6.555 5.365-13.377 3.262-21.042-.73-2.657-.267-6.99 1.478-8.75 9.466-9.55 14.962-21.38 20.647-33.188.993-2.063 2.81-3.73 4.245-5.584 2.077-2.684 4.156-5.366 6.914-8.93 7.65 5.314 20.114 5.547 24.876 20.104 1.287-2.61 2.494-4.477 3.24-6.16 2.254 1.272 4.47 2.606 6.61 4.052 5.147 3.468 10.25 3.605 15.66 3.377 1.665-.07 3.248-2.057 4.87-3.167 4.448 3.743 8.53 5.83 13.438.054 2.55-3.002 7.636-3.998 9.83-7.127 4.246-6.055 1.49-16.526-4.447-20.848-3.318-2.413-9.29-1.26-9.9 1.91-7.768-4.435-13.456-9.963-10.667-20.08.055-.193-1.528-.836-2.327-1.256 11.55-6.686 18.624-17.823 17.405-25.122 2.744-4.016 6.042-6.72 6.464-9.822 1.895-13.845.045-27.21-7.23-39.843-1.412 1.632-2.34 2.708-3.992 4.617-.316-3.48-.537-5.902-.807-8.855l-5.03 2.748c-.046-5.612-2.273-6.49-10.986-4.447l-2.924-8.213c-4.626 1.517-8.102 5.124-12.876 1.44-1.16-.896-.024-.684 2.32-.476-1.712-6.645-2.23-9.975-2.048-13.266.096-1.742 1.408-3.415 2.173-5.12 1.11 1.27 2.222 2.538 3.727 4.255.238-4.358.453-8.303.67-12.248l9.24 2.313c2.69-3.408 2.69-3.408 12.94 4.283l-.018-12.79 1.575.353c.054-.47.11-.94.167-1.41-1.877-.11-3.752-.22-4.753-.28l-6.398-5.864c-2.32 3.696-3.963 6.314-6.728 10.716-.987-4.507-1.4-7.293-2.265-9.93-.404-1.222-1.694-2.153-2.582-3.216-.676.82-1.35 1.64-2.03 2.43-3.36-4.21-2-12.02-9.785-12.912 4.01.62 6.72-1.75 9.447-4.074-6.784-23.382-29.292-38.167-41.164-32.378 8.243 6.84-2.29 7.098-3.302 11.663-3.967-5.085-7.313-9.397-10.757-13.625-.084-.104-1.303.714-2.007 1.075-2.683-3.914-5.383-7.853-8.08-11.793-.02-.884-.043-1.767-.064-2.65.563-1.026 1.688-2.105 1.6-3.073-.448-4.903-1.21-9.777-2.07-16.227-2.984-1.662-8.047-3.402-11.57-6.756-3.284-3.124-1.946-10.023-8.27-11.46-.31-.07-.236-1.812-.55-4.668 8.652 4.027 16.463 6.896 23.455 11.117 8.997 5.43 17.167 3.785 25.7-.866-2.23-1.288-4.69-1.626-6.857-2.604-3.827-1.728-7.292-4.603-11.256-5.56-3.18-.77-7.653-2.893-10.166 2.113-.187.374-1.866.016-2.852-.022-8.23-.317-12.017-6.092-15.33-12.465-.514-.99-.892-2.455-1.718-2.812-5.235-2.256-10.576-4.263-15.905-6.363l.166-3.818-1.462-.262c-.797 3.515-1.596 7.028-2.465 10.856-.805-.588-1.905-1.14-2.64-2-.68-.8-.964-1.937-1.422-2.923-.727.146-1.454.292-2.184.437.323 1.994.646 3.987.944 5.964-2.872-5.263-5.59-1.3-8.358.054-.09-.116-.183-.232-.274-.348.002.16.006.32.006.478l.302-.088c-2.636 3.81-2.636 3.81 2.293 12.83 1.366-.288 2.62-.55 3.217-.675 1.613 4.944 3.196 9.244 4.34 13.66.316 1.223-.715 2.778-1.062 4.198-.388 1.58-1.55 3.853-.907 4.662 4.092 5.163 2.162 8.405-3.676 10.99 5.455 2.93 2.3 5.21-.82 7.603 6.402 1.69 7.735 5.558 6.777 10.667-.11.568-.36 1.4-.093 1.702 3.612 4.04.802 4.974-2.64 5.296-2.43.227-4.902-.017-8.11-.06 4.07 6.988-3.335 10.075-5.06 15.316-.175.526.86 1.453 1.31 2.212-1.447 2.032-2.92 4.082-4.254 5.94l-4.064-1.187c4.314-3.402 1.373-7.14.028-10.424-.382-.935-3.753-1.396-5.37-.882-1.938.617-3.47 2.513-4.994 3.71 2.48 2.02 3.677 4.85-.69 8.39-.66.536-4.95 3.744-.247 5.8-1.322 3.59-2.67 7.198-4.175 11.23 2.296 1.606 6.568 3.046 1.66 7.198-.823.696.398 2.095-.072 4.51-1.75-.974-3.502-1.948-5.9-3.284 1.113 3.3 1.625 5.672 2.93 9.678a287.872 287.872 0 0 1 3.573-4.765c1.21 3.883 7.75 6.328 3.32 11.85-.003-.01-.02.013-.02.005-1.195-2.043-2.4-4.04-3.23-5.437-.996 3.817-1.65 7.53-3.112 10.88-.286.662-3.72-.046-7.136-.184 6.075-4.524 2.932-18.575-5.164-22.896l5.48 15.948c-2.22 1.858-3.995 3.49-5.923 4.913-2.063 1.523-4.27 2.853-6.382 4.267 6.056-4.613 6.813-7.564 2.65-10.445-.99 1.782-2.11 5.162-2.953 5.096-6.9-.548-12.553 1.48-17.453 6.326-1.45 1.434-4.54 3.523-5.274 3.01-7.532-5.24-5.23 2.85-8.354 6.44-.113-2.725-.778-4.575-.13-5.42 4.092-5.33 3.746-10.014-2.03-14.79l-7.113 4.31c-5.433-3.632-1.1-10.867-5.735-15.546-1.733 1.83-3.44 3.338-4.97 4.948-1.597-.515-2.744-.784-4.942-1.645zm-11.075 23.348l1.833-.63.8 3.373c-1.3-1.352-1.967-2.048-2.632-2.742zm-4.867 33.815c-1.554 1.708-3.026 3.508-4.62 5.178 1.593-1.67 3.065-3.47 4.62-5.177zm1.59 1.15c-.346 4.913-.692 9.824-1.042 14.733.35-4.91.696-9.82 1.043-14.735 4.104 1.99 7.94 5.548 12.47 5.034-4.53.515-8.366-3.043-12.47-5.03zM345.433 306.5c-4.304 3.763-7.956 6.71-11.276 9.99-1.185 1.17-1.57 3.153-2.318 4.767 1.708.645 3.39 1.694 5.135 1.812 1.52.102 3.11-.848 4.39-1.246l-.06-7.633c1.69.52 2.94.906 3.143.97l.985-8.66zM690.835 380.236c3.49 2.113 1.36 10.792 9.015 7.81.12-.048.534.65.81 1.002.318-.18.635-.363.952-.543-.54-1.166-1.062-2.344-1.63-3.5-1.147-2.33-2.218-4.706-3.515-6.95a23.156 23.156 0 0 0-3.404-4.52c-.242-.25-2.365.57-2.423 1.037-.227 1.93-.72 5.11.195 5.664zM392.4 629.802l3.284-5.897c.653.028 2.178.337 4.38.667-.353-3.835-.636-7.09-.937-10.355-.85-.248-1.696-.493-2.547-.745-1.892 3.4-3.78 6.8-5.67 10.165-1.21-.904-2.545-2.766-3.604-2.62-5.233.72-10.535 1.53-15.526 3.178-2.697.892-5.178 2.428-7.653 3.976 1.063 1.827 1.85 3.182 2.638 4.53-2.457 2.54-4.684 5.362-7.423 7.546-4.016 3.204-7.308 11.504-4.42 12.778 4.225 1.863 10.93 3.548 14.006 1.48 7.273-4.888 13.204-11.87 19.317-18.34 2.65-2.81.425-3.107-2.056-2.473 1.502-2.207 2.973-4.433 4.475-6.64.588.922.966 1.73 1.735 2.752zM316.577 15.786c-2.26-8.47-7.99-3.257-11.762-4.593-3.91-1.382-8.343-1.28-12.548-1.827l-.198 1.762c7.952 1.51 15.907 3.023 24.507 4.658zM131.237 116.337c1.727-2.633 3.345-5.19 3.777-7.936.392-2.485-.512-5.177-.755-7.094-1.97 1.62-5.11 3.28-6.89 5.87-2.994 4.356 3.027 5.678 3.867 9.16zM335.318 297.006c-3.256 2.69-6.516 5.38-10.132 8.368 2.213 1.294 12.007.278 12.048-1.45l-2.715-3.41 3.255.19a6818.58 6818.58 0 0 0-2.457-3.698zM770.918 391.56c8.788-1.32 7.01-7.935 9.4-12.033l-2.83-1.592-6.57 13.626zM626.477 229.082c-2.564 3.02-4.48 5.28-6.38 7.52l7.196 3.224c5.964-4.255-1.123-6.702-.816-10.744z"/><path d="M382.214 309.75l1.05-7.33c-1.928 2.5-9.29-4.552-7.538 4.253 1.658 2.042 1.94 7.03 6.488 3.076zM147.442 93.203c.893-2.23 1.792-4.482 2.998-7.496l-13.47 11.336 1.084 1.726c3.13-1.855 6.26-3.71 9.388-5.567zM425.346 154.54c-.66.15-1.317.3-1.975.447-1.457 2.985-2.917 5.97-4.482 9.175 2.567.073 4.868.138 7.605.214l-1.147-9.835zM604.307 233.102c-4.275-7.76-11.437-1.318-16.434-5.116-.153.753-.308 1.505-.462 2.258 5.592.946 11.184 1.89 16.897 2.858zM335.106 19.368c-3.76-1.584-7.647-2.86-11.503-4.217-.258.59-.516 1.182-.776 1.772 3.968 1.972 7.935 3.943 11.9 5.917.17-1.26.685-3.34.38-3.472zM197.842 109.507c-1.372-.764-2.997-1.67-4.53-2.522-2.846 5.112-5.31 9.54-7.764 13.945 2.376-4.268 10.492-4.39 8.683-11.477 1.19.297 2.296.457 3.41.736.068-.188.23-.67.202-.683zM491.474 134.937l7.27-.877 1.576-6.87c-6.24-1.385-6.124 3.7-8.846 7.747zM197.35 86.07c.826.106 1.652.212 2.478.32 1.09-1.96 2.516-3.82 3.136-5.92.327-1.102-.756-2.62-1.2-3.95a4995.41 4995.41 0 0 1-3.916 4.182c-.167 1.79-.332 3.578-.5 5.368zM176.26 137.612l7.07-12.696c-2.02-1.182-1.44-.916-1.77-1.158-2.874 3.928-5.358 8.074-8.232 12.002.846.545.92.658 2.933 1.852zM505.46 162.258l-.046-.097c.863-.467 2.533-1.11 2.477-1.363-.49-2.167-1.296-4.262-2.015-6.404l-6.354.913 5.895 6.956c.002.068.002.135.002.202l.11-.066c0-.003-.035-.074-.067-.14zM501.517 164.802c1.334 1.688 2.67 3.378 4 5.066-.034-2.47-.068-4.94-.1-7.404-1.296.784-2.6 1.56-3.9 2.338zM229.33 784.747c.145.316.216.745.463.91.195.125.606-.078.978-.145-.302-.333-.536-.66-.84-.885-.11-.082-.396.072-.6.12z"/></g><path opacity=".15" fill="none" stroke="#FFF" stroke-width=".977" stroke-miterlimit="10" d="M1074.504 794.457c207.092-371.965 73.435-841.385-298.53-1048.477C404.005-461.112-65.414-327.456-272.507 44.51-479.6 416.48-345.942 885.897 26.024 1092.99c371.967 207.09 841.387 73.438 1048.48-298.533z"/></g><circle opacity=".12" fill="none" stroke="#FFF" stroke-width="1.087" stroke-miterlimit="10" cx="401" cy="419.484" r="350.591"/><path opacity=".12" fill="none" stroke="#FFF" stroke-miterlimit="10" d="M402.5-565v1932"/></svg>