<svg xmlns="http://www.w3.org/2000/svg" width="300" height="300" viewBox="0 0 300 300"><g opacity=".3"><circle fill="#FFF" cx="89.631" cy="35.623" r="2.358"/><circle fill="#FFF" cx="42.953" cy="77.948" r="2.358"/><circle fill="#FFF" cx="34.972" cy="97.054" r="2.358"/><circle fill="#FFF" cx="20.703" cy="136.234" r="2.358"/><circle fill="#FFF" cx="27.717" cy="197.664" r="2.358"/><circle fill="#FFF" cx="45.372" cy="202.26" r="2.358"/><circle fill="#FFF" cx="52.628" cy="219.674" r="2.358"/><circle fill="#FFF" cx="87.454" cy="210.966" r="2.358"/><circle fill="#FFF" cx="62.785" cy="251.114" r="2.358"/><circle fill="#FFF" cx="118.411" cy="278.443" r="2.358"/><circle fill="#FFF" cx="151.061" cy="278.443" r="2.358"/><circle fill="#FFF" cx="180.567" cy="278.443" r="2.358"/><circle fill="#FFF" cx="222.65" cy="220.641" r="2.358"/><circle fill="#FFF" cx="233.291" cy="207.097" r="2.357"/><circle fill="#FFF" cx="253.123" cy="224.752" r="2.358"/><circle fill="#FFF" cx="230.873" cy="253.532" r="2.358"/><circle fill="#FFF" cx="273.197" cy="197.664" r="2.358"/><circle fill="#FFF" cx="280.936" cy="136.233" r="2.358"/><circle fill="#FFF" cx="254.816" cy="169.852" r="2.358"/><circle fill="#FFF" cx="248.286" cy="163.805" r="2.358"/><circle fill="#FFF" cx="248.286" cy="176.381" r="2.358"/><circle fill="#FFF" cx="252.639" cy="149.535" r="2.358"/><circle fill="#FFF" cx="237.886" cy="153.647" r="2.358"/><circle fill="#FFF" cx="226.278" cy="159.936" r="2.357"/><circle fill="#FFF" cx="250.705" cy="130.188" r="2.358"/><circle fill="#FFF" cx="250.705" cy="120.756" r="2.358"/><circle fill="#FFF" cx="254.332" cy="105.277" r="2.357"/><circle fill="#FFF" cx="257.96" cy="77.463" r="2.358"/><circle fill="#FFF" cx="233.291" cy="56.423" r="2.357"/><circle fill="#FFF" cx="185.163" cy="39.009" r="2.358"/><circle fill="#FFF" cx="148.643" cy="21.837" r="2.357"/><circle fill="#FFF" cx="139.694" cy="66.822" r="2.358"/><circle fill="#FFF" cx="185.163" cy="29.577" r="2.358"/><circle fill="#FFF" cx="210.799" cy="36.591" r="2.357"/><circle fill="#FFF" cx="206.204" cy="51.827" r="2.358"/><circle fill="#FFF" cx="223.859" cy="66.822" r="2.358"/><circle fill="#FFF" cx="235.71" cy="82.784" r="2.358"/><circle fill="#FFF" cx="189.758" cy="90.523" r="2.358"/><circle fill="#FFF" cx="199.19" cy="92.942" r="2.358"/><circle fill="#FFF" cx="219.264" cy="125.351" r="2.357"/><circle fill="#FFF" cx="173.796" cy="74.804" r="2.358"/><circle fill="#FFF" cx="157.592" cy="75.771" r="2.358"/><circle fill="#FFF" cx="135.099" cy="78.189" r="2.358"/><circle fill="#FFF" cx="94.469" cy="86.896" r="2.358"/><circle fill="#FFF" cx="103.9" cy="43.604" r="2.358"/><circle fill="#FFF" cx="98.096" cy="102.374" r="2.357"/><circle fill="#FFF" cx="79.473" cy="120.756" r="2.357"/><circle fill="#FFF" cx="62.785" cy="136.233" r="2.358"/><circle fill="#FFF" cx="73.911" cy="147.117" r="2.358"/><circle fill="#FFF" cx="65.204" cy="159.936" r="2.358"/><circle fill="#FFF" cx="87.454" cy="173.963" r="2.358"/><circle fill="#FFF" cx="107.044" cy="213.385" r="2.358"/><circle fill="#FFF" cx="107.528" cy="241.197" r="2.358"/><circle fill="#FFF" cx="123.007" cy="214.836" r="2.358"/><circle fill="#FFF" cx="139.694" cy="217.254" r="2.358"/><circle fill="#FFF" cx="142.113" cy="232.007" r="2.358"/><circle fill="#FFF" cx="166.298" cy="223.059" r="2.358"/><circle fill="#FFF" cx="210.799" cy="195.246" r="2.357"/><circle fill="#FFF" cx="182.744" cy="246.277" r="2.357"/><g opacity=".25" fill="none" stroke="#FFF" stroke-miterlimit="10"><path d="M210.746 36.545l-25.61-6.99-36.507-7.728-58.765 12.4L42.95 77.946l-7.98 19.107-14.268 39.18 7.014 61.432 35.07 54.23L118.41 280h62.053l50.41-25.644 42.325-56.28 7.738-61.636-22.976-58.873-24.67-21.093z"/><path d="M230.873 253.532l2.418-46.435-159.38-59.98 24.187-44.74 5.81-58.758L42.954 77.95 94.47 86.9l3.627 15.476-18.624 16.022L34.97 97.053l27.815 39.18 10.22 10.46-7.802 13.243L45.37 202.26l-18.38-4.596 59.01-23.7v37.032l-34.107 8.678 54.12 21.282.848-28.236 44.048 65.723-8.84-46.436-19.084-17.11 16.7 2.357 26.61 5.562 14.165 55.537 2.282-32.5 41.117-25.152-13.06-25.454 15.478-35.31-146.805-39.18-5.563 25.696 83.682-70.68-17.898-8.95 8.935-44.995L185.16 39.01l25.584-2.465-4.543 12.924-7.012 43.472-9.432-2.42-66.752 124.314 110.285-7.74 14.996-30.715-10.4-23.155 12.82-23.037-31.442-4.837 16.445-42.566 17.474 22.01-2.238 15.78 2.117 28.96 2.418 20.56-7.194-6.29 4.837 60.948"/><path d="M89.88 35.85L20.706 136.226l27.027 66.03 4.896 19.773 37.185-48.068 136.465-14.026-52.482-85.132-16.166 1.414-22.53 1.97-38.274 25.282 7.135-57.51 35.734 20.862 8.935-44.995L89.864 35.92l14.036 5.326 83.5-2.298 21.163 12.88L223.86 66.82l9.43-10.4 2.42 26.362-172.925 53.45 2.418 21.344 74.49 62.034 45.47-187.677 4.595 58.588 58.59 30.233 9.612-43.292-149.223 135.92-21.283-.06 20.075 27.873 10.88 37.156 23.704-46.346 24.184-9.612 61.444 30.396L61 251.07V133.846l34.926-46.95 116.78 108.35"/></g></g></svg>