<svg xmlns="http://www.w3.org/2000/svg" xmlns:xlink="http://www.w3.org/1999/xlink" width="1100" height="800" viewBox="0 0 1100 800"><defs><path id="a" d="M241-79h861v960H241z"/></defs><clipPath id="b"><use xlink:href="#a" overflow="visible"/></clipPath><path clip-path="url(#b)" fill="#16335B" d="M242 881h861l-1-960H242z"/><g><defs><path id="c" d="M241-79h861v960H241z"/></defs><clipPath id="d"><use xlink:href="#c" overflow="visible"/></clipPath><g clip-path="url(#d)"><path fill="#17355D" d="M267.343 845.29c16.523 7.095 26.845 16.644 34.108 27.27h68.07c-2.47-7.29-3.507-15.76-1.657-25.63 3.17-16.92 7.518-40.086 3.192-47.008-7.444-11.908-10.183-19.027-18.117-39.412-2.396-6.162-8.656-15.834-15.76-21.748-14.795-13.025-21.132 6.896-36.692-9.47-11.247-11.827-25.007-6.43-38.47-1.187-16.237 6.316-25.2 5.74-32.56 19.584-2.64 4.96-5.632 10.59-9.605 16.856-5.475 8.633-7.92 28.722-1.67 48.932 4.784 15.458 21.958 20.124 49.163 31.813z"/><path fill="#153156" d="M745.303 851.615a66.558 66.558 0 0 1 15.875 9.646c1.59 1.306 8.56 9.952 10.037 9.952h120.83c-2.82-9.98-10.54-17.322-16.327-25.588-7.47-10.67-6.6-19.514-4.41-31.846 2.134-12.055 4.618-25.03 2.327-37.246-1.88-10.02-8.803-19.277-12.79-28.615-4.743-11.092-9-22.383-13.405-33.61-4-10.198-6.638-21.308-19.463-21.667-10.982-.31-21.236 1.227-30.457-6.28-7.53-6.136-17.063-7.68-26.52-6.715-21.147 2.147-46.474 11.19-58.546 29.712-8.81 13.514-18.666 29.146-21.18 45.324-6.282 40.402 16.667 80.89 54.03 96.935 10.83 4.653-58.136-24.967 0 0z"/><path fill="#1A2840" d="M401.025 328.588c.992 1.265-.03.198 0 0 .005.007-.03.186 0 0zM835.53 338.73zM834.805 339.184zM1194.578 736.572c-.426-6.77-7.153-9.994-8.916-15.898-.684-2.283.568-4.467-2-5.697-3.188-1.516-3.343-1.688-4.25-5.34-1.72-6.926-4.896-9.453-10.084-13.725-4.803-3.955-5.816-11.96-7.02-18.053-.79-4.017 1.238-12.224-5.307-12.224-3.82 0-4.374-11.65-5.392-14.3-3.352-8.714-4.892 2.65-5.887 6.618-1.86 7.414-2.05 14.656-4.798 21.938-3.17 8.396-7.635 4.764-12.77 1.11-5.577-3.966-12.425-6.02-16.175-12.302-2.645-4.422 3.516-9.062 5.31-11.623 4.08-5.836-8.6-4.596-12.906-5.877-7.078-2.107-21.438 4.05-23.818 12.746-2.14 7.816-.816 1.813-7.406 5.854-1.44.865-3.693-8.732-10.02-5.322-2.93 1.58-7.595 5.047-9.194 8.047-.807 1.516.286 4.8-2.616 4.91-4.486.145-.02 3.228-3.36 5.115-.804.453-8.26-7.736-7.517.992.726 8.27-9.48 12.752-15.794 13.885-6.398 1.173-30.522 6.898-31.324 15.127-.328 3.51-2.006 5.91-2.646 9.264-.75 3.946 1.52 6.658 2.124 10.316.503 2.988-3.26 3.773-2.634 6.283 1.216 4.88 2.337 10.482 2.98 15.47.937 7.312 2.306 16.377-.44 23.382-1.993 5.095-6.985 7.735.782 12.058 5.772 3.213 10.792-.355 15.925-2.834 7.178-3.47 15.476.21 21.902-2.816 2.525-1.19 3.438-4.3 5.965-5.684 2.322-1.27 4.23-1.285 6.406-2.887 3.723-2.74 13.86-3.14 18.64-4.193 6.45-1.428 11.253-1.012 16.75 2.004 2.313 1.27 5.265 1.574 7.688 2.797 3.035 1.525 2.097 4.896 4.02 7.225 2.287 2.78.153 7.574 2.556 9.88.857.827 9.997-8.905 11.04-9.933 8.278-8.146-2.57 14.475-3.474 14.115 3.453 1.4 2.917-5.678 5.69-5.154 2.2.412 1.358 6.602 1.358 7.787 1.646.498 2.304.248 2.664 2.123 1.213 6.17-1.895 15.098 4.543 19.21 2.122 1.36 8.467 5.743 10.626 5.98 4.073.438 5.318-5.64 8.51-5.604 3.61.04 2.03 5.537 3.993 6.884 3.365 2.308 7.73-3.382 10.172-4.73 3.615-2.005 8.62-.145 11.742-2.722 2.9-2.395 2.958-9.27 4.33-12.64 2.73-6.687 9.253-17.392 14.272-22.567 12.383-12.79 16.84-31.478 15.762-48.998-.05-.865.084 1.317 0 0zM1188.363 641.7c-.11-.01-.29.152 0 0-.04-.003 0 0 0 0zM980.156 591.354c3.503 2.494.508 8.592 4.277 10.28 2.644 1.17 8.81 3.235 11.64 2.116 5.627-2.205 7.853 4.99 12.728 3.307 6.105-2.107 3.657-10.336 7.323-14.248 2.094-2.23 3.248-11.136 6.92-11.257 5.358-.17-.777-3.523-1.505-5.486-1.024-2.77-3.268-9.873-1.116-12.535 1.313-1.627 5.896-3.785 6.575-5.78-2.85-2.833-11.637-11.696-13.888-3.747-1.44 5.047-9.26 6.96-12.314 10.895-3.03 3.9-6.727 4.86-9.97 8.082-2.83 2.81-2.526 6.533-7.595 5.256-8.05-2.04-8.53 9.244-3.074 13.116 1.808 1.285-.488-.346 0 0zM663.73 658.217c-.17-13.875-4.44-3.096-7.117-.81-4.08 3.487-7.066 12.19-13.767 11.962-5.727-.15-11.456 4.42-10.98 10.563.32 4.21 3.252 7.943.74 12.078-2.487 4.075-7.243 8.874-5.647 14.11 1.658 5.44-.496 13.656 7.652 14.834 12.097 1.752 14.426-13.32 17.53-21.354 3.33-8.625 5.63-17.367 8.64-26.018 2.376-6.785 3.044-7.305 2.948-15.365-.03-2.48.033 2.644 0 0zM607.375 100.545c-8.287 3.797 8.865 7.74 8.523 7.478 2.193 1.674 1.11 3.53 2.606 5.22 1.464 1.65 8.53 2.142 10.642 1.84 8.38-1.194-3.3-6.58-5.338-9.58-2.463-3.625-3.915-8.808-4.113-13.153 0-.03-1.256-9.46-1.93-8.472.873-1.268 2.564.407 3.51-.95 1.973-2.832-.563-4.864.654-7.222 1.165-2.257 1.998-3.89 1.754-6.417-.427-4.334 5.095-4.484 5.968-8.62 1.318-6.228 10.606-14.984 16.105-17.82 8.205-4.25 2.795-16.48-2.98-11.72-4.475 3.675-5.77 12.406-13.548 12.104-4.58-.163-11.373 8.104-12.713 12.454-.585 1.9-5.795 7.87-4.473 9.238 5.244 5.43-4.314 10.76-2.794 15.08.343 1.01 2.94-1.337 4.23-.484-2.793 3.345-2.42 7.316-4.593 10.88-2.13 3.504 4.2 7.515-1.512 10.143-1.138.52 1.26-.58 0 0zM960.015 603.602c-2.68-4.516-11.54-8.53-12.718-13.193-.926-3.67 1.87-4-2.224-6.007-3.71-1.818-5.544-4.746-8.6-7.37-3.68-3.163-26.438-25.73-31.415-20.265-.276.303 22.924 28.63 25.184 33.057 4.62 9.047 8.092 15.932 16.723 22.34 4.436 3.293 6.116 4.568 11.645 3.184 1.724-2.89 1.065-8.455 1.405-11.748-1.814-3.055-.202 1.953 0 0zM378.515 251.314c1.033.813 3.848 7.088 3.845 8.313-.013 6.327.493 1.362 4.798 4.587 2.054 1.537 3.263 7.495 2.916 9.746-.458 3.052-4.564 1.255-5.105 4.188-.422 2.345 1.33 4.123-1.3 5.966-5.878 4.096 15.19 6.28 3.104 7.417-1.43.138-6.393 4.656-3.507 5.044 2.813.368 8.703-1.48 11.688-2.252 2.394-.615 13.46-.507 14.203-3.442a10.794 10.794 0 0 1-.89-4.09c1.123-1.767 4.434-5.06 2.393-7.54-1.02-.994-2.227-1.325-3.613-.99-3.412.418-1.59-1.25-3.03-3.323-1.457-2.083-1.67-4.814-3.213-6.782-1.412-1.798-3.46-2.014-4.332-4.335-1.173-3.15-7.948-8.296-7.354-9.57 3.256-6.96 6.688-9.733-2.73-10.082-5.27-.195 6.6-6.798-3.76-6.15-2.818.174-6.423 11.477-4.113 13.296.557.44-.312-.242 0 0zM1073.057 377.753c-9.22 7.357 11.7.53 14.37-1.667 3.323-2.742 9.083 16.085 10.19 2.178.334-4.172-1.068-3.86 3.988-3.193 3.38.45 7.54-3.51 9.557-5.78 2.863-3.257 1.067 1.81 3.3 2.144 4.274.643.493-10.666.714-12.124.548-3.675-2.565-6.892-1.915-10.224.75-3.844 4.264-8.12 1.793-12.464-1.406-2.437-6.53-13.81-10.66-7.358-1.838 2.874 2.396 11.645 1.986 15.29-.402 3.58-1.71 9.035-3.856 12.116-3.22 4.626-9.214 2.813-9.984 9.605-.548 4.803-2.84 2.87-6.482 3.76-7.015 1.724-7.902 3.67-13 7.718-1.015.81 2.085-1.657 0 0zM1079.198 231.11c.7 5.416 6.076 8.34 7.64 13.462 1.71 5.614 3.603 10.68 4.882 16.442.546 2.463 6.846 23.2 8.133 23.483-1.583-.353 3.98-3.846 5.266-4.025-3.934-4.214-12.75-15.466-8.382-22.007 1.656-2.48 4.613-.85 2.605-4.576-1.867-3.46-4.064-6.893-6.083-10.263-4.02-6.71-9.49-13.63-10.822-21.523-.02-.1-1.94-3.576-3.21-2.49-4.918 4.25-.742 5.903-.03 11.495.255 1.99-.338-2.662 0 0zM1034.364 583.355c-1.996.574-7.343 18.223-6.817 20.133.855 3.127 4.73 3.063 3.325 7.535-.854 2.713 1.84 6.99 2.634 3.934 1.02-4.025 1.288-8.172 1.74-12.285.225-1.94 3.598-1.953 3.8.078.71 6.318 1.45 10.65 8.078 6.262-2.082-2.8-4.91-7.893-5.834-11.186 1.16-2.95 7.317-5.967 9.99-7.674-3.83.563-9.43.88-12.26 3.717-3.07 3.1-6.573-5.802-4.706-8.665 2.035-3.113 28.267.896 25.396-5.63-.162-.364-7.275 2.855-8.66 2.772a59.122 59.122 0 0 1-7.79-1.13c-5.537-1.096-4.188.787-8.896 2.138-1.102.32 1.96-.564 0 0zM359.79 268.25c-.51 3.867-.817 4.626 1.394 7.504-.335 2.468-4.96 7.785-2.67 10.026 3.556 3.49 15.3-2.974 16.53-7.03.71-2.334 2.307-15.536.013-16.05-9.42-2.164-7.155 5.035-15.268 5.55-.19 1.45 1.272-.08 0 0zM1120.56 301.706c-3.26.867-19.242-7.988-18.547-9.216-2.114 3.65 4.337 11.722 1.896 16.482-3.813 7.434-5.624 4.67-1.514 13.226 1.353-.47 2.346-1.34 2.986-2.617-6.184-3.943-4.365-3.057-.396-5.588 4.418-2.814 6.303 3.048 9.906 1.962 2.737-.824 1.385-5.72 4.918-6.723 5.643-1.638 3.856-3.988.75-7.524-3.612.96.63.722 0 0zM1000.04 632.008c2.132.953 1.972-3.244-1.513-3.43-3.537-.186-5.418-4.373-8.763-5.592-4.27-1.56-6.4.81-10.66.79-5.353-.03-7.886-4.263-13.3-4.538-12.745-.652-.282 7.816 5.398 8.38 4.063.397 7.742-.278 11.448 2.01 4.91 3.028 12.12-.007 17.39 2.38.746.334-2.05-.928 0 0zM1039.84 486.928c.076-5.117-7.61-3.813-8.355 1.262-.555 3.73-4.207 14.396 1.414 16.195-.947-.303 7.316 9.19 5.98 2.78-.68-3.263-2.23-6.378-.216-9.5 3.158-4.854 1.074-5.83 1.175-10.737.025-1.858-.016.6 0 0zM1052.525 540.826c-3.358-3.32-4.77 3.203-7.15 3.104 1.965.096 6.85-.582 8.454.777 2.344 1.99.342 5.137 2.306 7.3 7.146 7.876 5.148-3.5 6.427-4.645 1.92-1.725 2.776.77 4.28-.555 1.47-1.293-1.632-8.408-1.864-9.99-1.03-6.977-9.267 7.14-12.455 4.01-1.502-1.485.807.79 0 0zM1068.937 384.65c-3.546 2.443-2.892 2.82-.762 4.33 5.12 3.625-2.945 9.184 5.175 10.646 4.925.888 2.532-19.63-4.413-14.977-1.264.87.168-.115 0 0zM1058.972 634.826c-15.737 8.96.22 5.887 6.384-.275-.6-2.114-5.302-.345-6.384.276-1.313.748 1.803-1.035 0 0z"/><path fill="#1A2840" d="M1080.23 387.976c-.198-.067 10.72-4.237 7.32-6.893-3.406-2.674-12.28 5.286-7.32 6.893.282.095-.353-.114 0 0zM1078.014 578.77c-3.922 1.46-4.313-2.202-3.915 4.778.306 4.718 6.848-5.855 3.914-4.777-1.173.437.496-.182 0 0zM1081.502 604.283c.8.178 6.107 1.62 6.86.75 1.17-1.36-10.542-4.867-10.794-1.895-.13 1.51 3.228.985 3.934 1.145 1.664.373-1.248-.28 0 0zM1042.002 633.055c-1.723-.445-8.082-3.207-9.222-.38-.897 2.208 8.858.473 9.222.38-2.654-.69-3.468.894 0 0zM1038.045 517.328c1.978-.313-.77-6.414-2.78-4.512-1.252 1.235 1.164 4.758 2.78 4.512.166-.025-.37.057 0 0zM1059.354 522.9c2.27-1.79.174-5.652-2.5-5.29-2.495.337 1.146 6.285 2.5 5.29.283-.222-.085.065 0 0zM1046.34 523c-2.538-.768-3.283.383-2.984 2.883.316 2.8 6.207-1.918 2.985-2.883-.412-.125.734.22 0 0zM1066.212 604.146c-1.882.97 1.98 3.71 3.674 1.393 1.454-1.997-3.104-1.694-3.674-1.394-.302.157.544-.285 0 0zM1033.378 638.705c-1.575-.95-3.262-1.156-5.058-.617.784.492 4.826 4.12 5.965 2.607.26-.9-.045-1.564-.907-1.99-1.288-.982.34.258 0 0zM933.672-10.453c-2.222-1.146-.723 5.207 1.05 3.408 1.29-1.14.94-2.276-1.05-3.408-.47-.24.98.506 0 0zM1046.865 509.38c.147.19.446-.02 0 0 .035.048.082-.003 0 0z"/><path fill="#1A2840" d="M1042.78 508.516c-.608 1.982 5.564.797 4.083.865-.708-.92-3.146-3.89-4.082-.864-.08.26.36-1.155 0 0zM1016.193 633.28c-1.178 1.358 2.27 1.8 3.062.987 1.11-1.152-2.08-2.105-3.062-.986-.162.19.73-.83 0 0zM1047.368 534.018c2.757 2.127.952-5.018 1.024-4.46-2.892 1.542-3.236 3.028-1.024 4.46.308.234-.482-.377 0 0z"/><path fill="#1A2840" d="M1048.488 529.443c.158-1.184-.124.395-.124-.1-.017.245.023.28.124.1zM1023.193 632.09c-.31 1.563 2.008 1.54 2.784.904.32-1.135-2.54-2.146-2.784-.904-.064.318.047-.244 0 0zM734.69 877.713c-1.603.723-.917 2.092.636 1.664.686-.857.474-1.412-.635-1.664-.363.162.34.21 0 0zM1006.722 630.6c-1.24 1.57.563 2.012 1.272.934-.067-.72-.492-1.03-1.272-.934-.236.296.694-.135 0 0zM1049.238 511.725c.302-1.33-.36-2.02-1.982-2.088.13 1.457.792 2.154 1.982 2.088.13-.358-.143.4 0 0zM1047.113 509.37c.012.19.246.46 0 0 0 0 .045.09 0 0zM959.67 596.908c-1.498-.326-.773 1.805 1.465 2.23.01-1.07-.48-1.814-1.465-2.23-.184-.04 1.26.244 0 0zM961.135 599.14c.146.53.377.07 0 0 .016.057.063.012 0 0zM971.12 602.314c-.274-1.21-.733-1.303-1.382-.283.474.814.932.908 1.38.284.138-.49-.045.163 0 0zM1057.025 524.95c-.777-.69 2.27 2.1 0 0-.1-.09.13.12 0 0zM1057.64 526.594c.018-.2-.127-.387 0 0 0 0-.027-.082 0 0zM1055.075 531.783c-.56-1.418-.966 1.094 0 0-.058-.158-.113.13 0 0zM922.95 593.49c-.377.283.72-.63 0 0-.038.03.452-.394 0 0zM962.67 601.148c-.02-.775-.453-1.332-1.297-1.67-.254 1.293.18 1.85 1.298 1.67.076-.087-.34.375 0 0zM1012.77 632.463c-1.616.74 1.537-.715 0 0-.155.07.476-.225 0 0zM1099.74 801.82c-1.064.02-1.314.283-.752.793.9.03 1.813-.224.752-.793-.344.135.17.092 0 0zM1226.523 911.67c-.918 1.47 1.192-1.9 0 0-.08.13.275-.44 0 0zM1189.74 642.133c-2.177-.442-.492.205 0 0-.336-.07-.13.055 0 0z"/><path fill="#1A2840" d="M1188.727 641.93c-.425-.27-.777-.15 0 0-.12-.076-.16-.032 0 0zM1048.98 527.928c-2.157.91.8 1.99 0 0-.658.277.067.17 0 0zM1058.248 527.506c-.95-1.74.63 1.125 0 0-.1-.182.05.09 0 0z"/><path fill="#1A2840" d="M1057.77 526.467c.017.13.326 1.154 0 0 0 0 .048.172 0 0zM944.365 581.715c-.223-.703-.965.24 0 0-.043-.133-.17.04 0 0z"/><path fill="#1A2840" d="M1202.638 29.957c-4.007-.61-.92-6.457-4.238-8.082-6.456-3.166-2.165-4.64-.553-8.117 3.315-7.158-7.07-15.275-13.917-13.714-2.49.568-2.5 3.547-5.047 3.98-4.512.765 4.843 7.744 5.03 9.03.67 4.333-7.584-1.895-7.99-2.413-1.66-1.812-3.26-3.68-4.794-5.6-1.715-2.495-4.556-.005-6.718-1.397-3.22-2.073-8.902-1.687-12.5-2.12-3.23-.392-11.985.582-14.432-1.427-8.254-6.787-22.593-3.165-31.436-.685-3.077.864-8.597.17-11.27 2.03-1.174 4.537 4.785 6.913 7.125 9.403 2.74 2.92 5.206 6.256.8 8.953-2.416 1.493-8.074-3.052-10.794-4.05-2.253-.823-4.234-6.55-6.29-5.3a7.254 7.254 0 0 0-1.525 3.324c-1.558 2.405-4.78 1.57-7.12 2.187-4.02 1.06-8.647.727-11.86 3.926.215-.214-2.098 10.777-4.403 6.376-2.13-4.04-9.778-1.02-10.555-2.93-2.056-5.093-3.143-8.455-7.836-11.663-9.953-6.818-27.644 11.48-32.13 7.252-5.437-5.12-7.238-3.843-13.645-4.217-9.616-.563-.954-12.35-13.59-9.4-5.18 1.21-4.15 4.394-4.282 8.7-.138 4.513-5.16 5.26-3.877 1.86 1.745-4.574-1.63-4.875-4.52-2.77-4.36 3.14.675-6.516.394-5.12-3.987 0-17.767-1.017-20.814 1.4 6.687 2.86.242 3.776-.938 7.303-.663 1.984 1.83 1.46 2.543.968 2.953-2.027 2.254 3.742 2.89 4.658 1.57 2.295 5.93 9.015-1.11 6.126-4.05-1.652 3.668 9.082-2.12 6.293-7.655-3.695-7.66-3.994-13.255.54-4.314 3.5-12.857-4.31-9.77 3.864 8.28 21.915-21.793-3.32-21.72-3.51-.492 1.274 10.326-5.78.168-4.977-2.01.156-3.747-6.71-6.16-8.222-3.974-2.493-7.462-3.79-11.425-.6-4.553-2.204-13.902-3.48-9.77 4.19 4.772 8.86-19.324 11.068-21.47 3.583-.94-3.335-7.75-.627-10.25-.08-5.804 1.275-4.445 3.364-7.187 6.14-1.78 1.796-2.44-4.678-5.228-2.47-1.89 1.497-5.02 1.97-6.82-.025-1.426-1.572-6.126-2.473-6.27.723-.124 3.225 3.306-.458 3.93.435 1.858 2.643-5.07 9.884-7.194 11.074-1.425.797-4.48.778-3.27 3.22.83 1.667-.008 3.626-1.897 3.77-1.423.13 3.333-23.545 4.385-25.35 2.28-3.85 6.756-14.684 3.62-18.79-1.33-1.746-10.083-4.546-2.585-4.984 0-4.504-6.762-2.317-8.056-4.742-2.675-5-10.22-6.427-14.488-4.392-5.725 2.727-2.54 6.193-6.79 8.612-5.77 3.287-2.058-7.385-4.527-9.03-.68-.454-11.333 1.948-11.093 1.062 1.47-5.47 2.012-6.7-4.347-8.19-6.102-1.443-6.325 10.306-5.063 13.74-.645 5.198 7.25 6.25 8.034 8.657.37 1.115-8.116 2.04-9.4 2.52-.105 2.643 6.72 2.03 4.992 6.518-.638 1.646-4.27-4.863-6.717-1.58-.81 1.09-6.196 7.552-8.145 5.78-2.604-2.363-.563-3.28-5.172-2.237-5.98 1.353-2.572 1.5-2.03 4.31.27 1.404-11.04 7.873-12.596 9.487-4.053 4.202-2.726 9.73-7.097 12.69 3.883 2.23 6.717 5.802 10.486 8.772 1.332 1.052-2.623 8.137-1.784 8.045-4.03.482-1.15-4.91-1.933-5.29-2.67-1.328-14.225 5.187-17.61 6.1-4.85 1.268.268 6.794 1.205 8.607 4.365 8.428 15.833 7.114 19.06 16.918 1.617 4.904 6.06 7.85 5.29 13.496.63.604 10.28 7.04 6.233 6.34-1.856-.315-8.68-3.84-9.815-5.5-1.105-1.617.834-3.832-.494-5.3-1.685-1.877-1.712 2.624-3.25 1.634-2.76-1.76-.762-13.874-2.83-13.667-5.448.535-6.476-.167-11.058-2.714-2.486-1.382-8.232-4.51-10.515-1.414-1.146 1.593 3.632 2.99 1.534 5.678-2.472 3.14-5.298-2.49-7.333-.113-3.38 3.94 15.21 8.766 12.627 10.183-1.12.607-11.058-1.044-12.797-1.727-3.646-1.442-4.8-7.555-5.668-10.68-5.255 1.61-2.887 11.635-.515 13.892 6.246 5.946 4.37 12.806 8.854 19.95 1.782 2.85 5.52-1.46 7.272-1.792 2.633-.494 8.108 1.962 10.083 3.542 2.006 1.607 3.93 3.847 3.086 6.592-1.033 3.364 4.795 5.758 4.952 5.346-2.604 7.226-8.437-5.468-9.194-6.577-5.104-7.47-14.48-2.932-8.914 3.49 4.952 5.713-1.88 13.99-3.095 19.612-1.315 6.07-14.257.094-17.382-1.663 2.852-4 7.156.77 9.89-.11 6.456-2.138 2.942-14.143 3.3-18.28.057-1.965-.792-3.383-2.55-4.258-3.452-1.956-4.27-6.035-5.47-9.447-1.338-3.803-2.236-8.014-4.04-11.632-1.362-2.733-4.234-3.973-5.577-6.564-2.147-4.145-.183-9.828-2.174-14.28-3.187-7.158-13.41-2.505-13.228 4.16.093 3.372.894 7.21-.178 10.51-1.066 3.296-4.594 6.213-.928 9.746 2.873 2.767 1.477 12.54 5.98 12.653 7.49.15 14.996 17.695 4.268 10.304-8.582-5.91-20.144-9.74-30.33-9.35-5.363.217 2.24 8.616 2.268 9.342.21 5.98-5.698 7.864-8.123 2.093.063.154-11.854 3.48-13.06 4.237-3.346 2.105-2.763 4.953-8.187 3.657-2.05-.475 1.23-3.278-.318-4.493.415.34-7.98 3.523-8.545 3.666-5.33 1.35-6.676 7.546-11.408 9.57-2.898 1.233-.357 6.128-4.588 7.228-3.143.822-9.41-1.582-8.96-5.805.615-5.757 6.404-2.486.928-8.504-5.604-6.175-5.346 3.554-5.094 6.124.517 5.083 3.324 8.05 3.22 13.185-.124 4.937-5.132 1.54-8.147 1.136-2.806-.37-6.955 5.947-8.328 7.863-2.798 3.89 4.935 5.92.366 10.244-1.818 1.704-9.858-3.282-11.42-4.293-1.232-.375-2.094.05-2.584 1.273-1.123 3.695 3.313 4.192 5.496 4.99 3.12 1.145.764 6.128-2.498 5.196-3.125-.89-10.163-3.696-10.81-7.257-.528-2.947-2.542-12.098-5.337-13.23-2.33-.944-9.294-4.384-8.197-7.683.09-.265 22.586 6.76 25.125 6.613 12.24-.708 13.915-11.644 4.605-17.945-4.42-2.992-22.368-15.928-27.95-11.086-2.28 1.97-7.58-1.2-8.68-3.494-3.606.774-10.55 1.015-11.952-3.586 2.256-1.785 6.19.443 6.78-3.804-6.142-4.1-14.058 3.646-12.026-5.054.523-2.334-3.81 3.126-3.684 2.87-2.393 4.827-1.236 1.27-3.755.767-1.33-.264-1.66 5.19-3.92 5.45-.263.03.612-10.588-2.63-6.267-1.927 2.583-3.725 4.465-4.834 7.516-2.104.81-3.96-2.505-6.5-1.214 1.427 2.943-.604 6.337-3.9 7.01-4.38.892-2.188-2.222-4.524 2.453-.6 1.215-5.83 2.675-7.398 5.132-3.03 4.75 2.003 2.568-3.475 6.774-1.382 1.06-6.415 7.155-5.05 8.753-.23 2.11-5.397 4.665-6.262 7.843.844 1.878-2.207 11.535-3.467 12.92-2.535 2.802-6.136 5.16-8.23 8.26-4.488 6.638 3.733 1.882 3.724 1.875 4.43 3.794-10.974 4.223-10.54 9.108-2.47 1.624-4.092 2.142-6.77 3.98-5.995 4.11-1.788 1.948-3.777 5.13-1.475 2.36-2.915-.03-3.374 4.268.946.193 9.684-1.11 9.246.592-1.165 4.346-6.42-.27-8.42 1.944-3.102 3.435 2.94 4.005 3.678 5.018 1.22 1.667-3.416 7.285-3.777 6.82 1.282 1.695 6.78 3.232 2.132 5.81-3.767 2.09 6.845 5.904 9.354 4.93 3.498-1.362 5.008-7.11 8.062-7.523 3.688-.49 1.203-3.82 3.985-5.48-.674.407 11.413 29.762 12.64 32.36.297.63 12.375-5.167 12.978-6.37 4.05-8.06-.845-14.948 7.063-21.3a22.394 22.394 0 0 0-8.038-2.078c3-3.27 9.957 1.214 10.322-3.89.338-4.728-6.86-5.296-7.688-9.498-1.262-6.413.443-12.55 4.59-17.29 3.67-4.2 11.63-7.38 10.824-14.258-1.15-9.955 6.582-14.46 15.48-9.787 8.455 4.45-11.743 20.593-13.182 24.97-1.117 3.41 1.48 12.537 2.097 16.143.21 1.222 8.005 6.695 9.773 6.973 7.474 1.17 22-11.83 27.898-1.353.813 1.484-7.764 7.025-9.1 6.987-5.61-.158-10.474-2.274-15.747 1.363-4.984 3.398 3.217 7.587 3.168 10.327-.163 8.675-2.346 8.917-7.634 3.767-6.435-6.244-5.41 18.554-5.297 18.384-1.255 1.917-7.875 6.08-10.27 5.293-2.558-.84-2.814-3.82-5.944-3.034-2.646.667-4.738 2.12-7.055 3.463-1.848 1.068-7.47 6.162-9.48 4.627-5.645-4.328-6.767-2.598-12.902-1.542-2.626.458-7.017-3.826-7.856-5.754-1.722-3.945-.51-5.038 1.784-8.333 3.896-5.597 1.095-1.01-.096-6.09.397 1.695-.1-11.742-2.332-3.425-1.464 5.46-5.89 5.363-5.27 11.133.632 5.922 6.356 11.284.704 16.01-.988.83-8.735 1.033-10.78 1.656-4.562 1.375-8.302 4.3-8.532 9.476-.185 4.185-3.86 5.348-7.473 6.945-3.527 1.56-1.79 6.663-6.55 7.338-2.453.347-2.333 2.907-4.443 3.546-2.104.64-5.25-2.26-6.51-1.2-1.33 1.117 1.428 4.514-.76 5.18-4.273 1.3-7.85-1.144-11.925 1.19-3.36 1.924 2.6 4.39 3.02 4.54 5.1 1.803 5.21 3.673 8.228 7.526 5.524 7.057 7.415 22.853-6.01 21.23-4.646-.56-21.57-3.77-24.52-.743-.888.91-3.566 1.485-4.163 2.593-.84 1.56 1.433 9.82 1.348 12.146-.144 3.974-.983 7.894-3.06 11.333-1.61 2.735 1.213 3.975 1.89 6.432.88 3.19-1.016 7.01 4.087 7.307 5.098.315 5.807-.248 8.923 4.297 1.703 2.516 14.333-2.46 17.74-2.683 4.82-.32 13.648-9.026 11.26-13.546-3.49-6.647 8.264-12.256 12.06-14.85 6.372-4.366-.705-14.48 10.663-13.002 7.602.988 11.137.83 17.347-5.09 5.958-5.708 11.915 7.518 14.786 10.41 5.543 5.59 11.626 7.48 17.488 12.304 2.965 2.44 6.063 5.015 7.262 8.73.398 1.243-.52 7.965-.348 8.048 2.15 1.116 5.164-7.373 3.23-9.605-5.434-6.29 7.3-5.292 6.896-4.65 1.363-2.14-10.73-6.114-11.2-7.472-1.08-3.104-4.822-2.284-6.913-4.305-2.244-2.17-3.358-4.572-5.223-7.03-1.808-2.383-12.108-9.045-6.896-13.577 7.013-6.07 4.484 1.1 7.443 2.205 1.248.47 2.004-1.81 3.42-1.515 3.24.677 3.793 6.19 5.563 8.23 4.063 4.677 12.188 5.637 16.68 10.483 4.53 4.896 2.52 10.17 6.44 15.496 1.907 2.592 4.115 7.458 7.073 9.034.812.43 7.927 1.12 7.067 2.675-.73 1.34-4.13-.63-6.02.556-2.397 1.532 3.967 6.46 5.464 6.59 1.422.11 5.806-7.977 5.12-9.82-6.514.345-3.063-5.412-5.77-8.86-4.688-5.965 4.27-2.893 4.69-3.126 4.65-2.533 7.976-7.374 13.84-2.375 3.58 3.07.087 1.316.686 5.176.73 4.693 4.06 4.774 1.968 10.48 4.297 4.782 5.762 6.443 11.484 9.544 6.885 3.733 4.19.075 10.438-1.21 5.723-1.177 8.122 5.776 14.333 3.356 7.398-2.882 12.047-7.226 11.707 3.718 3.094 10.003-6.036 32.91-19.616 25.475-3.005-1.63-8.125-.26-10.73 1.46-3.014 2.005-8.752-.694-11.79-1.312-6.13-1.247-17.59-1.85-22.216-6.464-3.786-3.768-14.748-2.375-15.113 3.945-.302 5.24-.716 13.433-8.354 7.76-3.664-2.733-12.705-2.94-14.646-6.466-4.988-9.105-12.927-4.646-20.965-8.803-6.357-3.28-8.748-4.352-3.475-10.062 1.14-1.24-1.906-10.917-1.616-10.872-1.802-.28-2.278-2.28-4.072-2.55-2.28-.34-5.148 1.645-7.246 1.98-8.796 1.41-18.265.406-27.154 1.617-6.375.867-10.522 3.88-16.563 5.655-5.123 1.498-15.862 5.88-21.142 1.193-4.81-4.25-5.178 6.622-9.433 9.11-5.85 3.435-15.428 9.747-13.44 18.136 1.52 6.39-5.223 11.465-10.126 14.264-2.56 1.46-4.688.86-6.502 3.354-1.607 2.23-2.352 4.596-5.003 5.916-3.574 1.777-8.782 11.46-10.384 15.016-3.736 8.29-6.43 9.346-3.08 17.822 2.36 5.963.825 14.396-.662 20.234-.734 2.883-.97 5.518-2.948 7.926-2.576 3.115-.096 3.72 1.298 6.8 1.256 2.77-.29 4.317.775 7.187 1.244 3.334 3.917 2.438 6.063 4.402 3.366 3.08 7.104 8.113 10.198 11.615 3.944 4.424 2.57 11.844 9.656 14.08 6.92 2.168 11.45 9.752 18.445 12.432 5.055 1.95 13.842-3.502 19.73-3.45 6.72 0 13.488 3.296 19.662-1.163 4.882-3.52 16.18-7.155 22.005-4.825 5.024 2.033 5.53 10.69 10.315 11.06 4.658.38 12.91-4.274 16.037.745 2.552 4.113 2.568-1.713 3.93 6.287.816 4.8-2.748 9.16-2.455 14.043.142 2.115-1.875 5.266-2.76 7.096 1.252 3.197 2.457 6.23 4.704 8.896 4.264 5.063 9.73 7.973 11.818 14.676 1.377 4.428 6.982 11.617 5.604 16.545-1.934 6.908 6.715 14.36.49 20.52-8.202 8.11-12.685 23.855-5.88 33.772 9.95 14.514 7.865 30.477 13.872 45.914 2.64 6.778 7.19 11.755 9.627 18.884 1.077 3.152 4.102 6.975 3.656 10.5-.177 1.4-2.145 2.688-1.224 4.188 1.647 2.676 3.914 11.547 9.4 9.164 5.38-2.332 12.568-3.72 18.46-3.63 15.11.233 27.85-8.214 36.105-21.024 3.356-5.2 9.595-9.063 11.31-15.09 1.923-6.7-.727-14.217 8.58-15.723 9.426-1.515 7.853-11.956 6.358-18.87-2.17-10.053 1.614-10.473 8.946-16.744 5.137-4.395 11.88-6.273 16.74-10.766 5.547-5.125 4.604-11.846 4.994-18.646.2-3.533-.492-6.992.284-10.51.505-2.283-3.875-5.36-4.55-7.54a28.558 28.558 0 0 1-.97-12.347c.538-3.89-3.68-4.654-1.968-9.008 5.285-13.478 16.69-24.35 27.373-34.005 9.05-8.188 18.767-13.334 24.788-24.633 4.714-8.85 13.18-20.244 11.333-30.863.094.556-25.766 3.99-29.03 5.57-5.647 2.733-7.01.528-10.995-3.345-3.583-3.48-1.902-7.076-6.436-12.04-7.207-7.892-14.374-9.145-17.686-19.847-1.43-4.635-4.66-6.09-7.963-9.316-4.282-4.17-1.624-12.436-4.76-17.27-1.792-2.76-6.19-3.394-7.103-6.62-1.424-5.043-2.27-7.926-5.306-12.62-1.564-2.425-13.23-21.897-12.094-23.544.935-1.357 4.866 4.914 5.19 5.31 5.026 6.067 4.23 2.604 6.586-2.065.672.236 4.844 7.357 5.607 8.393 3.244 4.37 7.846 9.732 9.3 15.066.77 2.79 6.9 6.936 8.64 10.193 3.04 5.668.297 10.512 6.885 14.672 5.354 3.352 5.787 9.252 10.037 13.52 5.112 5.094 4.348 9.207 6.118 15.607 1.314 4.76 1.565 12.465 8.105 11.52 2.875-.416 3.64-2.68 6.074-3.59 2.19-.818 4.64.135 6.917-.434 4.22-1.053 8.144-3.88 11.82-5.934 4.478-2.502 13.354-1.85 15.278-7.848 1.195-3.71 8.152-4.307 11.26-5.26 2.397-.734 9.473-6.135 10.8-8.834 1.937-3.936 4.01-2.33 5.302-7.242.895-3.393 12.034-9.988 8.04-14.28-4.05-4.334-5.106-5.812-11.008-6.763-6.77-1.106-4.656-8.218-8.122-11.757-7.674 3.47-6.303 9.916-16.03 10.277-7.896.295-8.263-2.82-8.95-10.354-1.918.994-1.027 3.23-2.682 4.49 2.832-2.176-29.464-30.96-9.498-29.564 4.457.313 4.437.934 6.582 4.14 3.918 5.853 4.875 7.07 10.64 10.077 3.33 1.733 4.756 4.364 8.712 5.058 4.495.793 9.682-3.545 13.27-2.184 2.51.95 3.66 5.33 4.716 7.434 3.323.896 6.702 1.043 10.086 1.688 8.13 1.547 15.205.098 23.104.865 9.545.94 15.095-3.655 19.917 7.425 2.717 1.44 5.31 1.81 7.13 4.63 1.587 2.466 7.98 1.033 8.42 2.237.558 1.563-4.342 3.857-4.973 4.414 3.26 3.58 9.724 10.77 14.144 3.896 3.978-6.186 1.802-8.342 4.476 1.47 1.76 6.507 1.506 13.4 3.892 19.9 2.718 7.406 6.892 14.187 9.32 21.658 2.15 6.66 6.655 11.528 9.114 18.067 2.256 6.002 3.912 14.586 10.227 7.252 3.523-4.095 8.72-7.647 7.542-13.47-.76-3.69 2.997-6.504 1.69-10.148-1.294-3.61-.967-7.258-.87-11.06.13-4.472 7.973-5.39 10.197-8.51 3.963-5.56 9.816-9.426 13.52-15.542 1.48-2.445 5.118-1.968 6.798-4.555 1.56-2.402.724-5.1 3.053-6.992 3.3-2.682 2.757-2.867 6.602-2.162 3.024.558 10.302-.282 9.826-4.9-.34-3.208 6.664 1.1 7.327 2.993.94 2.678 1.306 5.21 3.072 7.56 2.15 2.87 6.064 3.34 8.155 6.008 3.27 4.172 7.044 12.355 4.973 17.64-2.876 7.35 11.823-1.272 13.21-3.15 10.78 12.075 12.578 31.52 10.32 46.985-.38 2.77 10.788 12.023 11.73 16.414 1.018 4.75 3.16 12.042 6.57 15.683 1.83 1.945 15.62 11.91 11.84 3.064-2.628-6.146-2.415-13.795-7.04-18.75-2.507-2.688-14.03-6.938-12.385-11.607.672-1.918-4.095-6.994-5.504-7.823-3.382-1.987-1.108-8.375-.352-10.884.854-2.807 2.892-18.98 7.7-9.484 1.2 2.34 4.91 1.728 6.813 3.353 2.96 2.563 5.674 5.41 8.414 8.104 1.832 1.8 5.066 3.182 7.255 4.52-.968 6.064-.243 7.355 4.68 3.003 5.67-5.016 13.898-7.81 15.767-15.855 1.48-6.365-2.196-15.92-6.412-20.684-1.827-2.065-4.03-3.425-6.31-4.915-3.405-2.268-4.257-5.775-7.208-8.326-4.333-3.735.145-12.778 3.94-15.278 5.284-3.496 7.878-4.164 13.7-2.578 1.516 1.418.34 5.026 3.324 5-1.008 0 1.392-4.54 3.244-5.047 4.927-1.37 12.463-8.27 15.66-7.064 8.35-2.008 24.012-10.145 24.314-20.936.108-4.05 3.185-11.7 6.207-14.48 2.547-2.353 1.073-6.765 1.328-9.7.36-4.255-3.522-2.22-5.763-3.917-1.535-1.156 6.237-3.897 4.324-6.14-.725-.842-4.04-2.683-3.743-3.8.337-1.267 5.76-2.137.742-4.206-4.516-1.82-4.77-8.36-7.862-11.48-4.625-4.66-6.795-2.572-5.843-10.237 2.533-2.302 2.954-5.493 5.93-7.594 1.755-1.24 6.798-1.715 7.093-3.977.42-3.263-4.214-2.108-5.672-2.293-6.01-.766-3.845-2.693-8.544 2.606-2.832 3.187-12.72-6.062-13.385-8.96-1.454-6.322 6.023-2.886 6.536-7.427.307-2.724 7.102-12.14 10.15-11.855 7.423.694 1.53 6.66 2.656 10.05 1.69 5.103 10.067-2.373 13.512-2.653 5.3 1.85 7.527 3.946 6.36 9.974-1.224 6.32 5.88 2.666 8.688 6.028 1.638 1.956 3.394 9.47 3.543 12.092.582 10.213.71 5.694 9.15 5.677 16.555-.032-12.554-31.123-12.654-31.928-.715-5.707 8.78-7.665 7.695-13.8-1.508-8.302 2.854-9.32 6.29-15.898 2.2-4.193 10.418 4.45 14.733-4.91 2.835-6.218 8.836-15.66 9.26-22.478.322-5.335.922-14.744 3.73-19.344 3.385-5.577-5.047-15.727-5.256-21.4-.276-7.928-3.72-31.515-16.865-29.263-4.858.832-1.563 4.462-6.576 6.46-2.097.843-1.273-1.87-2.262-2.555-1.438-1-3.02 2.393-4.357-.565-.468-1.037-1.566-5.542-3.3-5.325-9.972 1.265-6.008-4.505-3.02-10.41 3.082-6.09 4.662-13.742 6.78-20.305 1.682-5.198.622-11.833 2.557-16.73 2.983-7.47 11.862-4.466 17.007-8.29 4.98-3.743 9.518.393 12.432-5.595 2.254-4.616 13.215-2.3 16.18.66-1.345.846-1.795 1.923-1.35 3.232.585.746 10.85-4.562 12.018-5.724 2.195-2.236-3.1-1.87-3.686-3.324-2.654-6.586 1.705-14.155.62-21.286-.983-6.486 15.906-11.007 16.413-7.978.97 5.685.634 6.914 6.21 8.464.736-2.054 4.096-11.363 3.568-13.02-.73-2.242-4.64-7.43-2.727-9.82 1.22-1.514 7.847-3.664 8.312-.167.595 4.457-2.303 3.404.28 9.38 2.57 5.945 4.75 9.817.853 14.75-3.938 4.988-2.476 16.274-3.178 22.477-.677 6.037-1.29 8.526-3.857 14.15-1.41 3.136-.524 8.41-1.953 12.383 2.01 10.24 6.453 19.784 12.357 28.344 2.02 2.925 5.23 10.986 8.684 12.238 4.313 1.56 1.728 12.154 7.965 11.65 2.3-4.05 3.72-7.725 1.874-12.337-2.512-6.242 1.438-4.536 2.87-8.803.635-1.9-2.414-7.022-2.003-9.844.64-4.387 5.337-3.873 6.102-6.964.65-2.618-5.994-7.923-6.03-11.925-.036-3.69-.554-6.09 1.27-9.414-.093.172-5.245-5.717-3.956-9.256 1.982-5.403-4.442-.842-4.52-.816-4.473 1.497-7.14-20.813-7.785-23.53-1.037-4.32 5.104-3.728 6.098-6.712 1.91-5.788 3.896.018 6.217.267 1.02-4.936 5.71-13.07 12.052-8.27 7.148 5.418 4.437 1.236 6.17-5.09 1.526-5.585 5.34-32.02 15.97-30.088 8.906 1.61 4.42-4.788 2.154-8.497-1.373-2.247-5.2-4.217-7.84-3.862-2.605.348-.346-3.554-1.507-4.715-2.527-2.523-5.525-3.57-8.727-4.703-5.08-1.8-1.932-4.305-7.904-1.328-2.69 1.328-2.142-3.895-.49-5.09-1.013.047-1.782-.294-2.314-1.022 1.058-3.395 7.345 2.05 9.618 1.862 5.438-.448 5.015-8.548 4.438-12.422-.755-5.07-5.957-5.406-8.39-9.043-2.418-3.645 2.574-9.747 3.75-5.225 1.027 4.01 6.232 6.225 7.17 1.317 1.27-6.503 7.625-1.558 9.728.422.923.866 8.767-.584 10.48-.584 2.84.002 3.17-4.318.778-4.685-1.298-.197 2.102.323 0 0z"/></g></g><g><defs><path id="e" d="M824.578-80.27L307.105 881H-2L0-80.486z"/></defs><clipPath id="f"><use xlink:href="#e" overflow="visible"/></clipPath><path clip-path="url(#f)" fill="#22486B" d="M813-79.77L287.105 882H0V-80.486z"/><g><defs><path id="g" d="M814.578-80.27L287.105 881H-2L0-80.486z"/></defs><clipPath id="h"><use xlink:href="#g" overflow="visible"/></clipPath><g clip-path="url(#h)"><path fill="#203951" d="M237.665 361.33c0-.002-.003-.003-.005-.003 1.378.995 4.123 2.977.005.002z"/><path fill="#214667" d="M330.185 217.145c-5.854-9.777-23.608 2.57-32.63 1.766-10.615-.945-19.487-4.634-23.196-15.01-4.553-12.733-7.766-9.75-19.246-4.754-13.364 5.816-21.94 17.233-26.59 31.003-4.023 11.918 5.526 24.223 11.4 33.733 6.803 11.016 14.837 23.173 6.662 35.61-5.42 8.243-13.154 14.526-15.326 24.62-1.782 8.28-14.907 15.657-21.14 20.153-6.364 4.59-13.834 8.507-19.213 14.282-28.562 30.654 42.113-.514 46.753 2.777-.694-.5-1.042-.753.005.002 9.886 7.14 21.555-17.162 34.253-10.66 8.145 4.17 7.125 13.41 12.6 18.95 3.522 3.563 10.117 5.11 14.867 5.748 19.055 2.56 9.135-11.353 4.353-21.126-2.92-5.966-11.07-21.43-6.294-28.055 8.575-11.898 22.797-19.264 30.003-32.387 2.442-4.45 1.84-10.372 2.73-15.292 1.272-7.086 3.22-14.05 5.03-21.01 2.85-10.992.946-30.38-5.022-40.35z"/><path fill="#214769" d="M-21.07 761.31c-4.692-8.294-13.227-14.354-16.13-23.67-4.273-13.708 4.49-30.556 3.473-44.995-.806-11.426-8.446-21.61-12.77-32.012-4.743-11.4-8.355-32.387-17.616-40.842-8.923-8.147-24.47.155-34.867-8.312-3.906-3.18-2.377-1.936-.01-.006-17.314-14.086-51.578-1.666-65.814 11.71-13.566 12.75-24.66 36.192-25.245 54.872-.726 23.215 9.018 46.572 26.807 61.658 10.875 9.223 25.002 12.773 35.62 22.23 8.68 7.732 14.81 17.77 19.844 28.145 9.286 19.127 14.173 41.418 37.407 47.078 13.01 3.168 27.72.186 34.71-12.23 4.926-8.743 6.142-18.966 11.18-27.912 5.867-10.425 9.628-24.73 3.413-35.712z"/><path fill="#204567" d="M-33.944 777.463c-.75 9.652-6.663 16.42-10.226 24.902-2.612 6.217-2.45 25.13-11.622 25.13-18.55 0-25.373-28.272-30.99-41.292-8.537-19.785-13.69-41.46-32.855-54.002-21.32-13.952-47.975-12.858-50.434-43.32-1.2-14.847 4.514-23.923 11.184-36.464 5.63-10.586 17.86-12.34 28.186-16.213 5.252-1.97 11.043-3.924 16.73-2.898 6.362 1.146 9.062 6.688 14.51 9.285 9.62 4.592 15.846-4.117 25.147 5.496 9.227 9.535 11.988 22.424 17.573 34.06 5.58 11.626 7.722 17.296 5.754 30.653-2.05 13.91-5.82 26.716.924 40.028 3.43 6.768 16.702 17.108 16.118 24.635z"/><path fill="#214567" d="M-185.86 484.502c-26.67-13.26-55.587-1.336-82.783-10.486-18.77-6.313-32.974-23.88-52.342-27.904-19.343-4.02-60.585 7.96-59.63 33.15.43 11.414-6.208 20.78-6.008 32.41.172 9.914 9.792 13.143 17.793 15.482 10.604 3.104 17.812 5.5 18.746 17.49.84 10.8 1.515 25.996 12.956 31.227 7.98 3.646 16.23 6.655 24.125 10.505 6.667 3.252 12.73 8.762 19.715 11.143 14 4.768 30.42-.986 44.936.658-2.888-.328-6.667-.758-6.938-.79.194.022 2.082.24 6.953.792 11.14 1.268 22.39 1.52 32.915-2.98 16.032-6.847 24.708-22.78 35.15-35.812 7.682-9.58 17.396-20.852 19.623-33.322 3.21-17.964-9.99-33.994-25.21-41.562z"/><path fill="#1E4263" d="M-179.536 541.17c-5.977 11.672-21.275 13.44-28.44 23.78-3.382 4.884-1.976 12.44-5.81 16.687-6 6.643-23.268-.777-30.373-1.422-13.188-1.193-26.485.523-38.993-4.998-6.468-2.854-11.638-7.98-17.396-11.98-4.01-2.787-10.762-4.648-13.94-8.186-8.163-9.077-1.978-24.51-8.095-34.54-5.74-9.414-17.595-11.586-27.257-14.717-10.088-3.268-6.12-12.816-2.945-20.633 3.565-8.79-1.98-24.88 8.297-28.766-1.96.738-5.813 2.19.01-.004 1.48-.557.99-.375.017-.006 19.748-7.424 38.396 9.734 52.99 20.834 17.576 13.367 32.296 21.682 55.39 20.287 20.58-1.24 52.003-12.693 62.06 12.656 4.134 10.434-.68 21.567-5.513 31.01z"/><path opacity=".07" fill="#102538" d="M-248.34 598.178c-.006-.002-.01-.002-.015-.002 3.263.37 5.382.61.015.002z"/><g fill="#214768"><path d="M259.702 514.568c2.35-7.908 6.936-14.79 10.5-22.15 3.637-7.514 4.894-16.67 2.472-24.762-2.543-8.498-8.662-7.686-14.406-12.582-6.572-5.604-13.05-4.148-19.458.512-7.52 5.47-9.918 5.65-18.73 5.574-4.38-.035-11.557 12.918-14.5 15.777-7.908 7.682-7.17 14.98-11.26 24.742.908-2.165 2.28-5.43-.018.04-12.974 30.89 30.67 47.08 50.945 60.68 6.07 4.07 12.374 10.613 20.37 9.85 12.197-1.164 2.77-21.328.284-26.598-5.023-10.664-9.775-19.047-6.198-31.084zm-23.183 9.23c.796 3.806 10.52 19.356 1.838 18.075-7.802-1.154-14.475-5.705-20.682-10.182-3.164-2.286-3.595-6.644-4.715-10.062-1.154-3.52-4.27-3.104-6.026-5.625-3.562-5.11 9.71-23.264 13.48-26.156 5.473-4.2 6.442-5.313 13.775-3.73 4.69 1.02 7.625-2.938 9.816-6.378 2.583-4.058 16.126.91 16.48 5.274-.055-.715-.16-2.11 0 .012.04.53.027.36 0 .014 1.244 16.677-28.4 17.6-23.967 38.76z"/><path opacity=".2" d="M194.303 501.725c.005-.016.01-.025.018-.04-.597 1.42-.995 2.368-.017.04z"/></g><path fill="#204668" d="M1238.345-74.997c.965-4.807.21-10.13 1.542-14.8 1.745-6.126 11.053-9.71 15.957-12.39h-176.74c-10.2 0-74.003 29.533-41.345 37.108 26.94 6.25 55.25-.304 82.497 1.33 4.698.28 7.137 3.848 12.06 3.832 11.07-.037 22.256-5.836 32.174-10.153 8.22-3.58 18.235-8.056 26.273-1.22 9.563 8.136 8.48 25.56 9.038 36.805.554 11.198 7.504 16.22 17.045 21.706 4.085 2.35 27.88 12.974 29.333 2.984 3.12-21.44-12.227-43.343-7.833-65.2 3.378-16.815-3.466 17.258 0 0zM565.697-102.186c-.245 5.75 2.777 14.163-1.37 19.057-7.54 8.895-27.013 5.843-37.058 7.152-14.24 1.855-27.796 6.87-42.09 8.54-16.91 2.37-29.923-3.86-45.258-9.63-12.912-4.857-25.404-3.64-32.338-17.187-1.664-3.25-1.56-7.93-5.587-7.93h-59.535c27.96 3.654 18.98 43.9 43.934 54.075 13.41 5.47 30.45 4.572 44.617 7.467 14.32 2.926 26.855 9.893 41.714 6.683 14.453-3.124 27.88-9.83 42.307-13.156 9.668-2.23 19.55-2.995 29.085-5.873 24.732-7.46 39.814-25.523 48.687-49.195h-27.11z"/><path fill="#204567" d="M-270.592-102.186c9.938 8.015 22.354 11.44 32.323 19.26 8.31 6.512 14.623 15.112 19.694 24.293 8.34 15.1 12.584 35.218 25.263 47.48 15.063 14.562 45.706 13.145 54.34-7.543 3.534-8.466 4.676-16.66 9.438-24.672 5.303-8.922 9.61-22.174 6.43-32.372-3.255-10.448-12.957-16.835-17.653-26.446-1.528-.756-5.37 0-7.02 0h-122.814z"/><g><path fill="#1D2F49" d="M402.112 328.095c.99 1.263-.032.197 0 0 .003.006-.03.185 0 0zM836.617 338.234zM835.89 338.69zM25.134 105.947c.006.747-.29 1.107-.885 1.08 1.908.34.08-2.68-.1-2.326.33.417.656.833.984 1.247.102.23-.21-.466 0 0zM-.67 159.85zM-8.164 120.21c-.028-.22-.028-.223 0 0-.004-.042-.004-.043 0 0zM-8.23 120.005c-.02-.02-.055-.038-.086-.055a.466.466 0 0 1 .087.055zM-8.337 119.935c-.086-.045-.188-.088-.26-.134.073.046.173.09.26.135zM-9.533 120.457c.787-.893-1.238 1.41 0 0 .075-.086-.177.202 0 0zM71.627 904.563c-1.188-1.125-6.56-2.854-7.306-.117.99-3.74 6.923.628 7.307.117-1.883-1.79.003-.006 0 0zM182.7 171.962c1.14-1.71 1.45.187 0 0 0-.002.443.057 0 0zM81.61 17.64c3.713-1.305 8.834 5.383 11.646 6.89-.503-.268 4.146-2.622 4.99-2.598 3.858.107 1.678 1.906 4.574-.51 3.207 4.492-.188 1.762 3.896 1.266 1.507-.183 3.604 4.936 4.088 5.763 1.33 2.293 6.28-1.9 8.085-1.994 7.746-.408.99-4.56.704-6.51-.446-3.036-7.134-7.07-7.657-6.104-.813 1.63 12.284.523 13.3.035 2.75-1.322 4.05-6.746 6.3-7.054 2.326.375 4.657.334 6.99-.128 1.324-.294-2.9-2.85-.833-3.524 1.383-.446 5.344 1.967 5.48-1.07.146-3.292 3.833-2.122 4.473-6.326-1.252-1.448-6.896-4.69-7.205-5.48-.985-2.54 3.436-1.99 3.58-2.217-.664-.364-.69-.433-1.665-.08.227-3.053 1.068-2.837 3.066-3.448.037-.04-.093.014.255-.02-.657-.735 9.854.882 10.644.687 2.43-.592-.633-4.16-.053-4.388 2.905-1.21 4.634 4.174 8.29 3.56 4.207-.7 2.897-4.178 1.778-6.07 2.19-1.14 6.916-2.35 8.845-2.605 4.877-.648 10.183-6.57 15.732-7.603 1.125-.207 9.525-4.844 7.388-5.855-2.227-1.073-15.063 4.234-15.873.447-.146-.67 7.85-1.144 8.503-1.3 8.272-1.997-.922-2.105.948-4.676.695-.97 14.368.962 17.193-.526 2.76-1.45 7.67-3.116 9.224-6.107 2.675-5.148-.67-3.933-2.97-5.883-.662-.563.313-5.658.313-5.673.054-3.897-9.498-.698-9.872-.565-3.135 1.118 3.75-4.583-.76-6.483-3.297-1.39-10.362-8.19-14.556-5.866-5.976 3.357-10.81-9.686-14.08 1.648-1.447 5.03-8.08-9.01-10.213-4.107-.435.996 2.01 6.285-.41 5.53-2.996-.935-2.063-4.195-4.375-4.91-1.28-.4-.44 5.917-1.687 6.72-.997.635-.938-5.13-2.617-4.595.123-.04-1.988 4.052-2.1 4.23-3.814 6.228-5.808.19-8.472-3.122-2.947-3.656-5.775 11.283-3.81 9.24-1.94 2.016-4.255-2.46-7.217-.906-5.646-7.035-.72.38-6.087-.818-1.737-.388-9.632-4.717-9.794 1.516-.047 1.816 3.57-.698 4.365.975.61 1.27-1.657 2.013-1.632 3.29a8.513 8.513 0 0 1 5.035-.175c-.805.795-5.867 5.204-6.973 5.266-.467.022 11.094 2.906 13.176 3.318-2.023 4.113 1.355 1.56 3.824 3.935-1.593.016-15.573 1.665-10.695 6.07 2.942 2.646 12.578-1.964 13.12 1.364-6.058 3.28 5.913 3.302 8.527 1.596.956-.624 4.07-4.993 5.86-3.42.492 1.02.324 1.983-.498 2.895 2.603.186 4.036 1.296 4.293 3.332.003-.013-12.492 2.62-13.943 2.567-1.815-.066-7.83-1.673-9.322-.442-1.06.874-.563 8.506-2.34 7.995-1.877-.543-6.217-19.006-12.263-9-1.156 1.913-.707 7.81-.71 9.78-.002 3.412-2.865 8.122-2.437 11.116 1.106.29 9.748.646 7.804 2.59 2.103-1.542-6.888-2.343-7.81-2.58-2.402 2.766-8.493-1.803-10.91 1.898C105.146-10.17 99.285-6.2 101-4c2.215 2.836 6.7.56 8.838-.767-.603 2.39-1.086 4.47-3.56 5.58-.28 4.918 1.056 3.78 2.443 7.307.832 2.22-1.952 1.875-3.552 1.415-5.315-1.528-2.602-5.414-5.582-8.647-4.856-5.265-2.756 10.106-5.084 9.96-4.537-.27-6.584-.337-10.645 1.687-.89.44-3.83 5.657-2.247 5.11 1.475-.52-.107.036 0 0z"/><path fill="#1D2F49" d="M141.943-.405c-.6.362 1.742-.99 0 0-.03.018-.036.02 0 0zM135.293-51.6c.595-1.078-1.52.315-1.453.233-.32.276 2.157-1.468 1.453-.234.062-.114.065-.114 0 0zM139.493-47.182c1.813.093-1.87-.148-1.634-.028.545.01 1.09.02 1.633.028.195.01-.544-.032 0 0zM160.926-45.34c-.193.3-.855.767 0 0 0 0-.185.166 0 0zM159.793-44.61c0 .063-1.34.015-1.833.173.6-.143 1.21-.2 1.833-.173 0 0-.525.028 0 0zM157.842-44.393c-.007.003-.01.008-.017.01.006-.002.01-.007.017-.01zM157.873-43.727c-1.235-1.097.72.634 0 0-.264-.233.058.054 0 0zM110.665-6.457c1.047-.12-.987.13 0 0 .328-.038-.1.013 0 0zM127.475 160.197c.333 2.602 1.863 4.367 4.414 5.02 1.462-6.457 10.27-8.187 11.45-13.615.032-.15 3.267-3.292-.46-2.887-6.236.67-3.58-1.045-7.012-3.954-3.495-2.96-.543-5.415-6.594-6.41-1.205-4.095-5.104-7.05-7.807-10.2-1.405-1.647 2.463-2.558 2.957-3.55 2.413-4.847 3.198.207 5.845-2.74 1.18-1.3-7.984-4.33-3.54-5.417 5.067-1.24 4.202-5.37.314-2.863-4.488 2.89-2.79-5.54-6.662.27-1.78-4.097 9.967-4.305 7.02-7.954-1.707-2.116-3.272-.543-5.507-.494-4.707.104-1.03-3.168-3.953-2.997-8.954.517 1.428-3.994 1.87-4.858 2.42-4.723-3.535-3.668-5.328-1.894-1.985 1.964-2.77-.907-4.52-.306-.004-.04.184 2.25.834 1.383-.465-.456-4.285-3.766-4.287-3.685.1-3.633 5.642-5.126 1.44-7.215-.964-.53-1.088-1.215-.372-2.056 2.604-2.97-1.2-4.68-3.75-6.24-6.984-4.29-3.87 3.582-4.552 4.22-1.094 1.036-5.98-.428-6.695-1.465-2.315-3.313-9.53 5.355-6.436-2.156 1.952-4.735 10.742-20.885-1.49-17.21-4.46 1.34-15.646 5.068-14.37 11.17a16.866 16.866 0 0 0 1.9 1.665c-1.054 3.09-4 1.75-5.436 4.1-1.854 3.032 3.483 11.06-2.927 12.727-1.854.506.014-5.56-.148-5.897-2.338-4.93-.793-7.36.844-12.035 2.567-7.318 5.8-10.655 12.618-15.13-4.147-9.96-18.505 5.452-21.594 8.366-3.328 3.14-6.625 7.917-8.357 12.187-2.118 5.22-.672 4.93 4.24 7.142 9.706 4.395-6.036 3.437-5.004 2.87-3.91 2.142.81 8.132 4.008 8.038 5.306-.16 2.408 3.763 6.276 4.19 4.656.52 9.896 5.666 14.626 4.583-.095-.093-1.972-1.838-.727-2.125-2.146.514 8.274 2.834 8.755 3.14 7.313 4.638 2.274-5.396 5.346-7.656 1.785-1.32 1.803 2.723 1.918 2.97 2.055 4.36 2.41 1.99 2.884 7.085-.087-.917 3.08 7.417 2.262 5.646 1.708 3.7-.203 3.997.28 6.145 8.096-.402 10.792 10.075 10.1 17.483-.417 4.497-8.457 8.858-11.75 11.316-6.386 4.79 4.472 5.45-5.446 8.527-4.875 1.518-7.127-1.126-11.56-1.533-2.737 2.35-9.077 6.972-2.134 9.31 1.052.354 10.252-.174 10.894-.592 4.888-3.17 7.75 5.89 10.013 8.135 2.96 2.934-1.436 3.966.808 6.333 3.906 4.125 9.467 7.83 14.342 10.592 13.06 7.4-3.834-12.467-1.775-14.7 3.877-4.312 14.193 19.245 18.216 2.52-2.548-7.937-10.668-16.72-9.84-25.286 1.434.077 2.23 2.475 3.53 2.134-.034.01 2.808-8.265 4.44-4.293.903 2.1 2.404 3.603 4.5 4.508 2.57 1.185.785 3.245 1.09 5.64.34 2.68-.198-1.554 0 0zm-32.187 4.028c.624-1.025 1.954-4.243 3.092-4.772-2.268 1.06-4.843 6.008-1.026 6.547-.578-.08-2.915-.382-2.066-1.775.89-1.458-.294.483 0 0zM97.355 166c.013 0 .02.002.012 0 .008.003-.003.002-.012 0zm-.074-.013c.69 0 2.814.28 3.623-.124-.81.406-2.932.124-3.622.124zm15.48-14.47c.047-.974-.076 2.105 0 0 .003-.056-.02.524 0 0zm4.42-44.36c-2.193.048-.553-2.265.484-2.47-1.09.24-1.595.876-1.51 1.91.333.588 2.157.534 1.025.56-.357.008.18-.005 0 0zm3.594 6.933c.73.163.875.505 0 0 .003 0 .045.026 0 0zM-18.44 90.15c1.593 1.125 3.128.675 4.606-1.35 1.6 1.555 3.387 2.21 5.362 1.963 4.146-1.987-2.27-8.012-2.84-10.208-1.652-6.327-5.855-6.05-1.916-12.666 2.583-4.35 3.503-11.838 5.167-16.85 1.07-3.23-1.142-10.15-5.767-8.982-3.146.794-6.483 13.102-7.04 15.906-1 5.042-7.654 8.553-5.297 1.146 1.296-4.08 4.728-10.403 1.52-14.273-.4 1.033-1.236 5.598-3.01 5.37-.73-.094-7.995-.61-8.183-1.564-.42-2.02 5.12-1.902 3.944-4.492-1.315-2.88-4.313-5.472-6.873-2.252-1.513 1.907-6.055.546-4.388-.762.288-.23 5.93-7.17 2.706-6.804-9.285 1.12-15.494 4.666-22.404 9.925-1.198.915-7.47 4.06-3.94 5.95.547.293 10.707 5.94 10.537 5.06.596 3.14-14.17-.105-14.408 4.77-.362 7.98 11.49 4.12 15.712 6.83 3.265 2.098 11.305 10.56 2.002 8.306-6.113-1.48-11.12-5.05-17.75-4.128-2.696.38-3.328 3.573-3.215 5.753.272 5.276 3.688 5.646 7.854 7.08 5.87 2.038-5.078 10.6 6.873 11.144 6.59.3 12.746-.264 19.2-2.464.58-.198 16.328-5.097 14.12-.355-.775 1.718-5.092-.854-6.68-.008-2.044 1.17 11.53 7.235 14.167 6.662 2.086-.45 3.164-2.807 1.254-4.344-.638-.514-4.478-6.158-1.314-4.364.37.21-.453-.257 0 0zm-35.257-2.25c.01.072.02.145.033.214-.015-.07-.024-.142-.033-.214zm.035.226c.078.386.212.744.44 1.042-.228-.298-.362-.656-.44-1.042zm1.682 1.75zm-.765-3.4c-.647-.615-.983-.34-1.01.827 2.098.795-1.682-5.927 2.534 2.035-.507-.953-1.015-1.907-1.525-2.86-.088-.16.533.938 0 0zm10.874-1.902c.423.332.423.332 0 0 .07.055.07.055 0 0zm.54-.896c.264.176.468.447.693.683-.228-.236-.432-.507-.694-.682zm1.778-2.328c.15.458.15.46 0 0zm3.038 4.208c-.65-.78 1.726 1.926 0 0-.025-.032.216.24 0 0zm1.304-4.287c.473-.416.957-.343 1.452.22-1.167-.22-1.52-.073-1.452-.22.063-.137-.08.175 0 0zm.927.675c-.13.022-.264.03-.396.047.134-.018.267-.025.397-.047zm1.592-8.606c.388.192.045.022 0 0zm-.024.393c.367-.16.792-.345 0 0zm5.694 13.64c-2.976.625 2.89-.654 0 0-.376.08.285-.064 0 0zm4.585-15.538c-.267 1.275 1.072-3.862-.547-2.242.512-1.437.572 2.12.547 2.242-.02.09.17-.78 0 0zM608.46 100.05c-8.286 3.798 8.867 7.74 8.524 7.48 2.193 1.674 1.11 3.53 2.606 5.22 1.464 1.65 8.53 2.142 10.642 1.84 8.382-1.194-3.3-6.58-5.336-9.58-2.465-3.625-3.915-8.808-4.113-13.153-.002-.03-1.258-9.46-1.93-8.472.87-1.268 2.562.407 3.508-.95 1.974-2.833-.562-4.865.657-7.223 1.165-2.257 1.998-3.89 1.754-6.417-.427-4.333 5.095-4.483 5.97-8.618 1.317-6.23 10.605-14.985 16.103-17.823 8.206-4.247 2.795-16.48-2.98-11.72-4.475 3.676-5.77 12.407-13.548 12.105-4.58-.164-11.37 8.103-12.712 12.453-.584 1.9-5.795 7.87-4.473 9.238 5.244 5.43-4.313 10.76-2.793 15.08.343 1.012 2.94-1.337 4.23-.483-2.793 3.345-2.418 7.316-4.593 10.88-2.13 3.506 4.198 7.516-1.513 10.144-1.137.522 1.26-.58 0 0z"/><path fill="#1D2F49" d="M-87.808 47.35c-.5 5.912 6.072-.653 8.252 1.477 3.91 3.82 7.497-7.63 11.81-7.696 3.012-.056 8.63-4.78 11.963-5.937 9.395-3.29 16.4-1.342 14.174-13.642-.29-1.63-2.035-3.708-3.917-3.276-3.935.905-1.346 1.936-6.06-2.71-2.593-2.556-15.074-7.454-16.81-1.21-.873 3.127-.266 4.615-3.078 6.842-1.983 1.572-6.225 3.53-6.66 6.21-.506 3.165-5.85 5.6-7.96 7.478-4.7 4.184-1.258 6.818-1.713 12.467-.052.63.25-3.114 0 0zM115.3-36.568c.16-.474-.05-.21 0 0 .033-.1 0 0 0 0zM961.1 603.107c-2.68-4.518-11.537-8.53-12.717-13.195-.923-3.668 1.87-3.998-2.224-6.006-3.71-1.818-5.545-4.746-8.6-7.37-3.682-3.16-26.44-25.73-31.416-20.263-.276.3 22.924 28.63 25.184 33.055 4.62 9.047 8.094 15.934 16.723 22.34 4.437 3.293 6.118 4.568 11.647 3.184 1.724-2.883 1.063-8.45 1.404-11.745-1.813-3.054-.2 1.954 0 0zM379.6 250.82c1.034.814 3.85 7.088 3.846 8.313-.013 6.327.493 1.362 4.798 4.587 2.054 1.538 3.263 7.496 2.917 9.747-.457 3.052-4.563 1.255-5.104 4.188-.42 2.345 1.33 4.123-1.3 5.966-5.876 4.098 15.192 6.282 3.105 7.418-1.43.137-6.392 4.656-3.506 5.043 2.815.37 8.703-1.48 11.688-2.252 2.393-.615 13.46-.507 14.202-3.442a10.79 10.79 0 0 1-.89-4.088c1.123-1.77 4.434-5.06 2.393-7.543-1.02-.993-2.228-1.324-3.614-.99-3.412.42-1.59-1.25-3.03-3.322-1.457-2.083-1.67-4.814-3.213-6.78-1.412-1.8-3.46-2.015-4.332-4.336-1.172-3.15-7.948-8.296-7.354-9.57 3.258-6.96 6.688-9.733-2.728-10.08-5.27-.196 6.6-6.8-3.762-6.152-2.818.175-6.42 11.476-4.113 13.296.556.44-.31-.242 0 0zM74.088 16.528c-1.938-2.813-1.604-6.066-6.884-3.533-1.876 1.314-.973 6.635-.906 8.67.07 2.102-10.462 15.336-4.677 16.277 4.635.747 2.58 3.61 8.103 1.76 2.26-.76.807 2.975 1.216 3.754 1.336 2.553 8.508 1.868 10.834 2.393 1.86 1.063 3.825 1.58 5.896 1.545.877-.27 2.782-3.488 3.546-2.86 1.855 1.515-.214 5.682 4.332 5.067 0 0 9.285-4.363 7.916-4.344-.072-.177-.146-.182-.215-.016.697-2 3.353-2.757 3.704-4.844.705-4.18-4.833-6.81-7.82-6.93-8.26-.33-14.665.912-21.885-2.992-1.617-.874-8.142-6.673-7.26-8.387.282-.55.658-3.082 1.23-3.3.208.08 6.25 2.954 5.796 1.167a11.796 11.796 0 0 0-2.928-3.43c-.525-.76.86 1.25 0 0zM441.6 19.848c3.43.215 2.567 15.845 9.09 14.395 3.165-.703 1.107-4.92 3.004-6.587 3.382-2.972 1.438 1.324 3.375 2.02l2.568-1.532c6.04 1.458-8.786 10.116-8.083 11.55 1.29 2.634 8.672-3.132 9.695-.344.867 2.365-6.735 5.044-7.62 5.253-.865.204 7.24 10.194 8.346 11.927 1.418 2.202 5.383-13.206 5.72-15.53.124-.87 4.405-18.814 6.694-15.305-1.253-1.01-13.22-12.98-12.43-8.76-.79-3.384-.287-7.466-5.192-7.466-.865 2.03 1.086 13.713.608 14.006-3.32 1.947-3.12-12.6-6.48-8.867-5.35 5.932-2.91-1-3.407-2.27-1.34-3.466-13.62 7.045-5.89 7.508.39.025-1.612-.096 0 0zM324.788 193.233c5.548-3.094 25.676-9.658 18.16-18.625-2.472-2.952-1.723-4.952-6.326-6.186-2.376 1.522-4.94 2.88-7.882 2.426-.936-.13-.62 2.177-1.766 2.256-4.474-5.55-3.073 2.462-7.782-2.087-.066 1.185-3 9.03-5.097 5.116-1.23-2.28-.02-4.614-1.862-6.685-1.274-1.435-1.864 1.22-3.354 1.015-6.367-.88-1.72 3.302 1.67 4.313 5.72 1.708-5.92 5.665-6.156 5.857 3.086.854 4.728 1.693 6.433 4.553 1.128 1.917-4.098 2.74-2.846 4.427.776 1.038 15.132 4.56 16.808 3.62 2.674-1.49-1.012.57 0 0z"/><path fill="#1D2F49" d="M305.625 173.43c-.635-.072.152.017 0 0zM23.33 52.735c1.848-.977 13.75-8.825 4.27-8.64-2.18.046-3.77-1.756-5.462-1.756-9.806.02-.32 2.043-4.99 3.902-4.754 1.894 1.19 2.142-1.604 7.01-5.086 8.855-3.175-4.235-8.563-2.152-7.085 2.755 2.935 14.74 2.91 19.273-.04 10.303 5.375.337 4.97.064 5.754 3.86 10.228-4.576 12.485-8.633 1.654-3.037-6.537-7.738-4.015-9.07 1.352-.714-.76.403 0 0zM39.042 60.862c2.685.05 4.432 3.6 7.132 1.18 3.75-3.358 7.48-6.757 10.854-10.503 2.728-3-14.622-11.45-16.517-5.318-1.79 5.587-8.687 9.33-9.276 17.39-.26 3.604-1.167 7.212 3.615 3.44 2.025-1.6 1.55-6.24 4.192-6.19 1.185.023-1.21-.022 0 0zM360.878 267.758c-.512 3.865-.818 4.624 1.393 7.503-.335 2.47-4.96 7.787-2.668 10.028 3.555 3.49 15.3-2.975 16.53-7.03.71-2.335 2.307-15.536.012-16.05-9.42-2.166-7.156 5.033-15.266 5.55-.192 1.448 1.27-.08 0 0zM466.856 11.608c2.093.068 7.027-2.175 8.306-.368-.29 1.82-1.435 3.097-3.437 3.83 1.45 1.34 9.02 4.337 10.572 4.223 3.225-.238 6.368-4.085 7.767-6.564 7.594-13.473-9.034-5.766-12.354-11.29a35.152 35.152 0 0 1-.77 4.783c-2.647.327-7.168-5.094-9.027-4.425-1.648.59-6.59 9.62-1.057 9.81.87.028-1.03-.035 0 0zM46.546 167.066c.514 3.125 4.744 3.98 6.602 1.808-.626.733-4.512-9.72-5.69-11.277-1.86-2.46-6.922-4.65-8.104-6.852-.325-.61-.747-7.41-2.876-2.734-1.777 3.91-3.438 11.255-6.287 14.36-4.76 5.19.804 1.62.823 7 .025 6.647 13.794-12.937 15.533-2.304.304 1.854-.192-1.17 0 0zM1001.128 631.516c2.13.95 1.97-3.244-1.514-3.432-3.538-.182-5.42-4.373-8.763-5.592-4.27-1.56-6.4.81-10.658.79-5.354-.028-7.888-4.26-13.3-4.538-12.746-.652-.283 7.818 5.396 8.38 4.063.4 7.743-.278 11.448 2.01 4.91 3.03 12.12-.007 17.392 2.382.747.332-2.052-.928 0 0zM27.55 15.672c.353.07 9.728 1.662 9.506 2.237-.72 1.95-4.353 2.66-6.05 3.4-1.73 5.16.458 4.497 5.018 5.8 3.79-2.857 6.326-7.304 9.25-10.952 1.64-2.047 4.89-5.843 3.808-8.627-1.004-2.577-3.962 1.07-4.465-.677-2.944-10.2-6.344 6.717-6.937 7.05-1.447.826-2.236-6.082-3.217-6.622 1.292.71-6.778 7.896-6.914 8.392 3.014.604.394-1.447 0 0zM94.842 73.543c2.912 1.352 7.958.452 11.39 1.274 1.916-2.15.726-9.73-2.718-10.49-3.726-.827-8.36-4.997-9.938.505-.44 1.537-.402 7.942 1.266 8.71.568.265-1.226-.563 0 0zM3.626 109.077c6.667 3.274 6.226-7.584 4.45-10.706-.86-1.518-2.307-5.323-4.245-2.668-1.94 2.65-6.756 3.856-8.068 5.915 2.334 2.55 4.68 5.9 7.864 7.46.83.407-1.595-.782 0 0zM1070.023 384.156c-3.547 2.444-2.892 2.82-.763 4.33 5.12 3.625-2.944 9.184 5.175 10.646 4.926.888 2.532-19.63-4.412-14.976-1.265.87.17-.114 0 0zM59.8 12.866c5.385 4.71 11.043-2.002 6.225-5.994-7.47-6.17-12.428.578-6.225 5.994.975.853-.46-.4 0 0zM49.996 35.958c3.08 1.49 6.987-10.43 1.4-11.483-8.596-1.62-7.345 8.627-1.4 11.483.19.092-2.17-1.042 0 0zM477.678 42.992c.06-.98 9.842 3.212 9.605-3.56-1.987-.986-4.97-6.174-6.094-5.762-5.336 1.973-3.208 4.25-3.512 9.322zM-5.74 46.234c.554 2.47 9.26-2.97 7.12-6.992-1.082-2.035-5.99-2.92-7.66-1.313-1.87 1.8.104 6.354.54 8.304.117.53-.422-1.892 0 0zM86.07 135.72c3.54-1.206 7.725-11.08 2.193-9.218-3.796 1.266-9.045 11.55-2.193 9.22 3.23-1.103-.595.202 0 0zM122.625-44.373c14.374-8.936-12.64-4.98 0 0 1.344-.836-1.99-.784 0 0zM42.6 176.607c-1.66-.198-7.85.552-6.125 3.745 1.69 3.13 8.955-3.453 6.125-3.745-.428-.052.178.018 0 0zM50.746 187.08c1.536.522 3.174-3.263 3.007-4.306-.35-2.54-6.218 3.228-3.007 4.305.17.056-.177-.06 0 0zM479.222 30.745c1.205-3.86-5.216-2.122-3.657.502 1.005 1.685 2.942 1.76 3.657-.502.166-.53-.18.562 0 0zM28.583 6.585c-.26-.23-3.153-1.64-3.226-.032-.115 2.35 4.43 1.093 3.226.032-.45-.398.365.32 0 0zM151.267-9.188c-.54-1.244-1.34-1.575-2.407-.992-1.846 1.72 2.81 3.19 2.407.992-.128-.698.11.6 0 0zM117.523-39.707c.403-2.682-2.02 2.334-2.145 2.838 1.116-.64 1.833-1.586 2.145-2.837.08-.526-.21 1.344 0 0zM17.1 18.563c.233-2.79-3.604.43-1.724 1.192.992.203 1.568-.195 1.725-1.192.03-.348-.083.97 0 0zM735.777 877.22c-1.604.724-.918 2.09.635 1.663.686-.858.473-1.412-.635-1.664-.364.16.34.208 0 0zM1007.808 630.105c-1.24 1.568.563 2.01 1.272.932-.066-.717-.492-1.027-1.272-.932-.236.3.694-.134 0 0zM960.756 596.414c-1.497-.326-.773 1.805 1.465 2.23.012-1.07-.478-1.814-1.464-2.23-.184-.04 1.26.244 0 0zM962.22 598.645c.146.53.38.072 0 0 .018.058.063.013 0 0zM972.205 601.82c-.272-1.21-.73-1.303-1.38-.283.473.813.932.906 1.38.283.137-.49-.046.164 0 0zM28.773 42.068c.24 0-1.245-1.645-1.66-.08l1.66.08c.038 0-.555-.006 0 0zM924.037 592.996c-.378.283.72-.63 0 0-.037.03.452-.394 0 0zM963.757 600.654c-.022-.775-.455-1.334-1.3-1.668-.25 1.29.182 1.848 1.3 1.668.077-.088-.34.375 0 0zM1013.854 631.97c-1.614.74 1.54-.716 0 0-.155.07.48-.224 0 0zM110.5-15.945c1.9.546-1.65-.52 0 0 .168.047-.157-.05 0 0zM78.206 13.02c-.376 1.105 1.08.557 0 0-.054.162.158.08 0 0zM104.627 45.83c-.398-1.92.068.334 0 0-.15-.73.006.03 0 0zM146.39-14.73c1 .83-2.334-2 0 0 .06.05-.26-.22 0 0z"/><path fill="#1D2F49" d="M304.563 174.07c1.566-1.197-.264-.594 0 0 .242-.185-.057-.126 0 0zM945.45 581.22c-.222-.702-.964.243 0 0-.044-.132-.17.042 0 0zM311.65 132.247c2.073-1.66-12.003-2.71-13.58-2.42-3.42.63-8.808.45-1.956-2.018a64.86 64.86 0 0 1-7.932-1.57c1.583-1.26 3.82-5.37 5.428-5.99 3.268-1.26 5.53 1.553 8.313-1.68 2.654-3.06-11.83-4.477-6.73-8.705.656-.54 9.96 6.26 10.93 7.322 2.846 3.11 2.77 13.168 8.365 6.81.354 1.147 1.07 1.773 2.15 1.88 2.938-.773-1.44-13.856-2.52-15.513-2.026-3.115-8.087-3.372-9.39-5.977-.454-.897 2.833-.946 2.146-2.382-1.172-2.434-4.666.49-5.743-1.747-1.16-2.426 5.665-.297 4.89-3.136-.853-3.08-6.245.748-7.24-.83.115.186 1.856-4.046 1.908-4.113 7.336 4.744 7.36-5.09 11.88-3.235 2.995 1.24 2.064 8.772 7.67 5.333 4.89-2.995 7.63-4.127.527-6.465-3.527-1.15.354-9.534 5.735-6.228 9.61 5.91-2.44-4.936-1.062-7.24 3.028-.377-.02-3.134 4.008-1.688 3.235 1.166 1.854-5.422 1.656-6.347-.89-4.22-8.79-1.69-.735-4.572-1.19-.9-11.462-5.08-4.485-7.967 2.958-1.222 3.602-4.586 7.224-2.098.075.05 4.447 3.58 4.842.76 1.24-8.92-4.443-1.912-5.98-8.478-.572-2.452 2.306-3.52-.144-5.812-1.855-1.74-1.18-4.634 1.55-3.6 2.56.977 6.02-16.51 7.55-18.992 5.007-8.126 7.564-9.684-2.762-6.712-2.712.776-.214-4.878.686-5.422 2.798-1.696 6.826 1.086 9.908.532 7.673-1.385-5.422-5.036-5.752-5.814 3.753-1.263 6.95-.005 10.39-.778 3.612-.838 2.062-3.34 4.065-5.172 2.358-2.16 7.717-.78 8.478-5.703.517-3.325-4.51-6.645-7.177-7.227-7.74-1.69-10.2 6.004-16.728 3.887-1.66 1.86-21.516 14.47-22.598 13.68-1.958-1.477 14.925-13.757 15.626-14.882 1.092-1.752 3.286-5.135 1.542-7.224-3.09-3.683-4.77 3.045-6.035 4.003-3.137 2.378-18.464 2.096-6.378-3.68 3.562-1.727-5.814-3.565-3.73-3.16-4.772-.93-8.38-.418-12.89 1-2.703.853-5.367 2.616-8.095 3.224-2.008.434-1.538-3.25-.162-3.912 8.985-4.28 14.42-4.605 23.998-3.77 1.6.14 23.57-1.53 18.684-6.854-2.233-2.432-15.977-5.782-15.98-5.74 0 .02 9.583-7.295.654-4.746-2.77.78-5.77.28-8.323-.978-4.05-1.985-8.38.526-12.55.576-1.896.022-11.474 3.98-10.74.67.333-1.488 11.645-5.69 11.663-5.65 1.138 2.373 16.22 2.192 18.952 1.257 3.595-1.228-15.74-8.178-16.97-8.69-1.647-.69-13.363-1.58-14.486.856-.77 1.668-1.162 4.91-3.675 4.772-3.51-.142.076 3.695-1.35 4.322-.733.318-5.103-1.53-5.4-2.444-5.193-3.4-5.158-3.315-10.758-.63.725 5.696 3.426 2.618 5.546 7.03.728 1.518 1.188 9.437 1.55 9.37-3.342.593-3.145-6.558-4.493-8.587-2.828-4.29-5.485 2.176-8.202 1.06-9.107-3.702-.145 19.302.118 19.375-5.29-1.527-8.687.263-9.904-6.197-.47-2.5-.336-13.51-5.24-12.703-3.27.537-2.194 8.88-2.363 10.97-.7 8.86-9.785-1.8-10.128-1.952-.655.806-4.38 6.853-5.57 5.804-.922-.796 4.226-12.037 4.64-13.932 1.02-4.71-6.672.055-8.045.405-6.566 1.678-12.017-3.893-11.886 5.172.083 5.817-1.307 7.01-2.493.32-1.73-9.66-6.144 4.986-6.14 4.983-2.062 1.563-2.817 4.808-5.772 4.733-2.292-.072-2.623-3.188-4.893-.243-.854 1.095-2.273-1.558-3.47-.06-2.455 3.083-5.96 4.167-9.077 6.352-11.46 8.04 5.498 5.865 5.81 7.08.4 1.597-7.307 10.336-8.498 11.534-7.26 7.294-26.018-.52-32.787 10.155-1.292 2.044 8.048 12.406 6.666 12.745 1.836-.448 11.615-1.3 10.062 3.015-1.24 3.47-5.413-.406-7.865.634a5.394 5.394 0 0 1 2.27 2.313c-1.465.308-14.737-4.107-12.623 1.684.273.743 7.43 5.963 5.635 6.7-4.45 1.763-3.996 9.042 1.37 8.227 2.17-.33 1.682-3.022 4.224-2.086 3.063 1.126 6.345 1.67 9.607 1.37 4.224-.392 9.314 2.658 12.06 5.678 1.456 1.603 6.625 3.475 5.712 6.628-.938 3.213-2.244 4.547-.303 7.626 4.047 6.428 1.095 11.83 2.407 18.73.43 2.25 1.646 7.988 1.022 10.236-.724 2.597-2.67 4.607-2.723 7.444-.005-.003-.006-.005 0-.005.2.346 1.417 1.976.058 2.703-8.342 4.454-.124 6.322 1.078 3.784 5.377-11.555 13.597 16.63 7.795 15.365-.226-.05-12.196-10.022-12.044-4.778.148 5.043 9.645 7.766 13.35 8.32 1.013.15-.995 9.86-1.282 10.227-.77.98-9.57 5.44-9.542 5.603.148 1.047 7.016.667 5.938 7.13-3.502 3.17-10.82-2.042-12.778 2.686-1.16 2.8 3.38 8.185.738 9.674 0 .473-.014.97-.018 1.45.013-.006.015-.005.005.002.843-.254 7.58-3.294 6.22-4.545.315.317-9.882 7.505-7.65 10.058 1.61 1.87 4.96-2.508 5.696-.312-.195-.608-11.107 12.947-1.603 10.2 9.38-2.71-1.936 6.934-1.478 7.536 2.214 2.893 5.944 14.945 5.437 18.66-1.27 9.386 11.956 5.26 15.702 6.67-1.534 3.18.687 10.62 5.687 7.55-.188.123 2.095-4.54 2.452-5.136 1.514-2.53 2.182-5.567 4.423-7.745 2.974-2.884-2.188-6.614 2.607-8.968.746-.366 2.886-4.746 3.16-5.49.54-1.482 2.454.503 2.95-.174 2.14-2.892-.004-12.637 3.943-13.967 3.194-1.07 10.495-3.965 11.965-6.424 4.104-6.858 2.252.254 6.972-.052 5.862-.393 10.86-5.213 14.16-9.627 1.202-1.612 8.146-11.305 8.6-11.418 2.116-.534 3.322 2.994 6.53 1.84 4.41-1.586 9.956-2.688 14.534-3.64 7.017-1.458 13.315-7.35 18.785-11.683.13-.105-1.882 1.49 0 0z"/><path fill="#1D2F49" d="M1203.723 29.464c-4.006-.61-.92-6.457-4.238-8.08-6.454-3.168-2.164-4.642-.553-8.118 3.318-7.158-7.068-15.275-13.916-13.714-2.49.568-2.5 3.547-5.048 3.98-4.51.765 4.843 7.745 5.034 9.03.668 4.333-7.585-1.895-7.992-2.413a109.245 109.245 0 0 1-4.796-5.602c-1.712-2.495-4.554-.005-6.715-1.397-3.22-2.072-8.904-1.686-12.502-2.12-3.23-.392-11.985.582-14.432-1.427-8.256-6.787-22.594-3.165-31.436-.684-3.078.862-8.598.17-11.27 2.027-1.174 4.537 4.785 6.913 7.125 9.403 2.742 2.92 5.208 6.256.803 8.953-2.418 1.493-8.075-3.052-10.797-4.05-2.25-.823-4.233-6.55-6.29-5.3a7.283 7.283 0 0 0-1.523 3.324c-1.557 2.405-4.783 1.572-7.12 2.187-4.022 1.06-8.648.726-11.86 3.926.214-.214-2.1 10.777-4.402 6.376-2.13-4.038-9.78-1.02-10.557-2.928-2.056-5.094-3.142-8.456-7.837-11.664-9.95-6.82-27.64 11.48-32.13 7.252-5.437-5.12-7.237-3.842-13.645-4.216-9.615-.563-.953-12.35-13.59-9.4-5.18 1.21-4.148 4.394-4.28 8.698-.142 4.514-5.16 5.26-3.88 1.863 1.744-4.574-1.63-4.875-4.52-2.77-4.36 3.14.675-6.516.394-5.12-3.986 0-17.768-1.016-20.815 1.4 6.687 2.86.242 3.776-.938 7.303-.663 1.984 1.83 1.46 2.544.968 2.954-2.027 2.256 3.742 2.89 4.66 1.57 2.294 5.93 9.014-1.11 6.125-4.048-1.652 3.67 9.082-2.12 6.292-7.652-3.695-7.662-3.994-13.254.54-4.313 3.498-12.855-4.312-9.768 3.863 8.28 21.915-21.793-3.32-21.722-3.51-.49 1.275 10.325-5.778.167-4.977-2.01.156-3.746-6.708-6.156-8.222-3.976-2.492-7.465-3.788-11.43-.6-4.55-2.202-13.9-3.48-9.768 4.19 4.77 8.86-19.326 11.07-21.47 3.585-.937-3.335-7.748-.627-10.247-.078-5.808 1.274-4.45 3.362-7.19 6.138-1.78 1.796-2.44-4.678-5.224-2.47-1.893 1.498-5.022 1.972-6.822-.024-1.426-1.57-6.127-2.47-6.268.724-.125 3.225 3.302-.458 3.926.435 1.86 2.64-5.068 9.882-7.193 11.072-1.426.797-4.48.78-3.27 3.22.83 1.667-.008 3.626-1.897 3.77-1.424.13 3.333-23.545 4.387-25.35 2.277-3.85 6.755-14.684 3.62-18.79-1.332-1.745-10.086-4.546-2.587-4.984 0-4.504-6.76-2.317-8.057-4.742-2.675-5-10.22-6.427-14.49-4.392-5.724 2.728-2.54 6.193-6.79 8.612-5.77 3.287-2.057-7.386-4.525-9.03-.682-.455-11.332 1.947-11.096 1.06 1.472-5.468 2.015-6.7-4.346-8.19-6.1-1.443-6.325 10.307-5.063 13.742-.644 5.196 7.253 6.25 8.037 8.655.37 1.115-8.116 2.04-9.4 2.52-.107 2.643 6.718 2.03 4.99 6.518-.637 1.647-4.27-4.862-6.717-1.577-.81 1.09-6.194 7.55-8.146 5.78-2.604-2.365-.562-3.282-5.17-2.24-5.98 1.354-2.575 1.5-2.032 4.31.27 1.405-11.04 7.874-12.595 9.488-4.052 4.203-2.726 9.732-7.1 12.692 3.887 2.23 6.72 5.802 10.488 8.77 1.33 1.053-2.624 8.138-1.784 8.046-4.028.48-1.148-4.91-1.933-5.29-2.667-1.33-14.222 5.186-17.61 6.1-4.848 1.268.272 6.794 1.207 8.607 4.366 8.43 15.832 7.116 19.063 16.92 1.614 4.904 6.054 7.85 5.287 13.495.632.604 10.278 7.04 6.23 6.338-1.853-.314-8.677-3.838-9.812-5.5-1.106-1.616.835-3.83-.492-5.3-1.687-1.876-1.714 2.625-3.25 1.635-2.763-1.76-.763-13.874-2.832-13.667-5.448.534-6.475-.168-11.057-2.715-2.484-1.38-8.234-4.51-10.515-1.413-1.146 1.593 3.632 2.99 1.532 5.678-2.47 3.138-5.296-2.49-7.33-.114-3.38 3.942 15.205 8.767 12.625 10.185-1.12.607-11.058-1.045-12.797-1.727-3.647-1.442-4.8-7.555-5.665-10.68-5.255 1.61-2.888 11.635-.516 13.893 6.245 5.946 4.368 12.807 8.854 19.952 1.786 2.85 5.52-1.463 7.275-1.793 2.633-.495 8.107 1.96 10.082 3.54 2.007 1.607 3.932 3.847 3.088 6.593-1.035 3.363 4.793 5.758 4.947 5.346-2.604 7.225-8.436-5.47-9.19-6.578-5.105-7.47-14.48-2.93-8.914 3.49 4.952 5.713-1.88 13.99-3.097 19.613-1.315 6.07-14.257.093-17.384-1.664 2.854-4 7.158.77 9.893-.11 6.455-2.137 2.938-14.142 3.298-18.28.057-1.964-.793-3.382-2.55-4.256-3.45-1.957-4.27-6.035-5.47-9.447-1.338-3.802-2.237-8.014-4.04-11.632-1.36-2.733-4.235-3.973-5.577-6.564-2.148-4.144-.183-9.827-2.174-14.28-3.188-7.157-13.41-2.504-13.23 4.16.094 3.373.897 7.21-.175 10.51-1.066 3.296-4.593 6.213-.927 9.747 2.872 2.766 1.476 12.54 5.98 12.653 7.49.15 14.995 17.696 4.265 10.304-8.58-5.91-20.143-9.74-30.326-9.35-5.366.216 2.236 8.615 2.266 9.34.21 5.983-5.7 7.866-8.123 2.095.063.153-11.854 3.478-13.058 4.236-3.35 2.104-2.765 4.953-8.19 3.657-2.05-.475 1.23-3.278-.316-4.494.415.338-7.98 3.522-8.544 3.665-5.33 1.35-6.677 7.547-11.407 9.57-2.9 1.233-.36 6.13-4.59 7.228-3.142.822-9.407-1.582-8.958-5.805.615-5.757 6.403-2.486.926-8.504-5.604-6.173-5.347 3.554-5.092 6.125.515 5.08 3.323 8.047 3.216 13.184-.12 4.938-5.128 1.542-8.146 1.138-2.806-.37-6.956 5.946-8.328 7.862-2.797 3.892 4.935 5.92.367 10.245-1.818 1.703-9.857-3.283-11.42-4.294-1.23-.376-2.093.048-2.583 1.273-1.124 3.693 3.313 4.19 5.497 4.988 3.118 1.145.76 6.128-2.5 5.196-3.125-.888-10.163-3.694-10.81-7.256-.53-2.947-2.543-12.098-5.338-13.23-2.332-.943-9.293-4.383-8.198-7.682.092-.266 22.59 6.76 25.126 6.612 12.24-.708 13.915-11.644 4.604-17.945-4.42-2.992-22.368-15.928-27.95-11.086-2.278 1.97-7.58-1.2-8.68-3.494-3.606.774-10.55 1.015-11.953-3.586 2.257-1.785 6.19.443 6.78-3.804-6.14-4.1-14.056 3.646-12.025-5.054.523-2.335-3.807 3.125-3.683 2.87-2.394 4.827-1.237 1.27-3.755.766-1.33-.265-1.662 5.187-3.923 5.45-.26.027.614-10.59-2.627-6.268-1.927 2.584-3.726 4.465-4.832 7.516-2.105.81-3.964-2.504-6.502-1.213 1.427 2.944-.604 6.338-3.9 7.01-4.383.893-2.19-2.22-4.524 2.454-.6 1.216-5.833 2.676-7.4 5.134-3.03 4.75 2.003 2.568-3.474 6.774-1.383 1.06-6.416 7.155-5.05 8.753-.228 2.112-5.4 4.667-6.263 7.844.845 1.877-2.207 11.535-3.467 12.918-2.535 2.803-6.136 5.162-8.23 8.26-4.49 6.64 3.73 1.883 3.724 1.876 4.43 3.794-10.974 4.223-10.54 9.11-2.472 1.623-4.092 2.14-6.77 3.978-5.995 4.11-1.788 1.95-3.777 5.13-1.474 2.36-2.915-.03-3.374 4.27.944.192 9.682-1.11 9.245.59-1.164 4.347-6.42-.27-8.42 1.945-3.102 3.435 2.94 4.005 3.68 5.018 1.22 1.667-3.417 7.285-3.78 6.82 1.284 1.695 6.78 3.232 2.133 5.81-3.767 2.09 6.846 5.904 9.355 4.928 3.497-1.36 5.006-7.11 8.062-7.522 3.687-.49 1.203-3.82 3.983-5.48-.674.407 11.414 29.763 12.64 32.362.296.63 12.375-5.168 12.978-6.37 4.05-8.062-.844-14.95 7.063-21.303a22.37 22.37 0 0 0-8.04-2.08c3-3.27 9.96 1.215 10.32-3.888.34-4.73-6.858-5.297-7.687-9.5-1.26-6.41.445-12.547 4.592-17.29 3.67-4.198 11.627-7.377 10.824-14.256-1.152-9.955 6.58-14.46 15.478-9.787 8.456 4.45-11.742 20.592-13.18 24.968-1.116 3.41 1.48 12.538 2.095 16.144.21 1.222 8.007 6.695 9.775 6.973 7.473 1.168 22-11.83 27.896-1.354.813 1.485-7.763 7.026-9.1 6.988-5.61-.158-10.472-2.274-15.744 1.363-4.984 3.4 3.215 7.588 3.17 10.328-.164 8.675-2.347 8.917-7.636 3.767-6.435-6.245-5.408 18.553-5.297 18.383-1.255 1.917-7.875 6.08-10.272 5.293-2.556-.838-2.812-3.82-5.94-3.033-2.646.667-4.74 2.12-7.058 3.464-1.846 1.07-7.468 6.162-9.478 4.627-5.647-4.328-6.77-2.598-12.903-1.542-2.626.456-7.018-3.827-7.857-5.756-1.723-3.946-.51-5.04 1.783-8.334 3.896-5.597 1.096-1.01-.094-6.09.395 1.695-.103-11.742-2.333-3.426-1.465 5.46-5.89 5.363-5.27 11.133.632 5.92 6.354 11.283.702 16.01-.988.83-8.734 1.032-10.782 1.655-4.562 1.375-8.3 4.3-8.53 9.475-.185 4.185-3.86 5.348-7.474 6.945-3.527 1.563-1.79 6.663-6.55 7.338-2.453.347-2.333 2.907-4.442 3.546-2.105.64-5.25-2.26-6.51-1.2-1.33 1.117 1.43 4.516-.76 5.18-4.272 1.3-7.847-1.145-11.925 1.19-3.36 1.923 2.6 4.39 3.02 4.538 5.103 1.805 5.21 3.674 8.23 7.527 5.524 7.057 7.415 22.853-6.01 21.23-4.647-.56-21.57-3.77-24.52-.743-.89.91-3.566 1.485-4.164 2.593-.84 1.56 1.433 9.82 1.35 12.146-.146 3.973-.985 7.893-3.063 11.333-1.607 2.735 1.215 3.975 1.893 6.432.88 3.19-1.017 7.01 4.086 7.307 5.096.316 5.805-.248 8.922 4.297 1.703 2.514 14.333-2.463 17.738-2.685 4.82-.32 13.65-9.026 11.262-13.546-3.492-6.647 8.262-12.255 12.057-14.85 6.372-4.367-.705-14.48 10.663-13.003 7.602.988 11.138.83 17.347-5.09 5.958-5.708 11.915 7.518 14.786 10.41 5.543 5.59 11.626 7.48 17.488 12.304 2.967 2.44 6.063 5.016 7.262 8.73.398 1.244-.52 7.966-.348 8.05 2.15 1.115 5.163-7.372 3.232-9.606-5.436-6.29 7.3-5.292 6.896-4.65 1.366-2.14-10.73-6.114-11.2-7.472-1.08-3.104-4.82-2.284-6.913-4.305-2.244-2.17-3.357-4.572-5.224-7.03-1.81-2.384-12.11-9.046-6.897-13.578 7.013-6.07 4.482 1.1 7.442 2.203 1.247.47 2.004-1.81 3.42-1.515 3.24.677 3.792 6.19 5.562 8.23 4.063 4.677 12.188 5.638 16.68 10.483 4.53 4.897 2.52 10.172 6.44 15.497 1.908 2.593 4.116 7.46 7.074 9.035.814.433 7.93 1.122 7.068 2.675-.73 1.34-4.13-.627-6.02.557-2.396 1.532 3.967 6.46 5.465 6.59 1.42.11 5.804-7.976 5.12-9.82-6.515.345-3.066-5.412-5.773-8.86-4.688-5.965 4.27-2.894 4.69-3.126 4.652-2.533 7.975-7.374 13.842-2.375 3.58 3.07.087 1.317.686 5.176.73 4.69 4.06 4.772 1.967 10.48 4.297 4.78 5.764 6.44 11.482 9.542 6.887 3.733 4.194.075 10.44-1.21 5.72-1.177 8.122 5.776 14.333 3.357 7.398-2.883 12.047-7.228 11.708 3.717 3.093 10.002-6.036 32.91-19.617 25.476-3.005-1.63-8.123-.26-10.73 1.46-3.015 2.003-8.753-.698-11.79-1.313-6.13-1.246-17.59-1.85-22.216-6.463-3.785-3.768-14.75-2.375-15.113 3.945-.303 5.236-.715 13.43-8.354 7.76-3.664-2.734-12.707-2.94-14.646-6.467-4.987-9.105-12.928-4.646-20.967-8.803-6.356-3.28-8.747-4.354-3.473-10.065 1.138-1.24-1.907-10.917-1.618-10.872-1.8-.28-2.275-2.28-4.07-2.55-2.28-.34-5.15 1.645-7.246 1.98-8.796 1.41-18.266.406-27.154 1.616-6.375.87-10.523 3.88-16.563 5.656-5.12 1.498-15.86 5.88-21.14 1.194-4.81-4.25-5.178 6.62-9.434 9.108-5.853 3.433-15.428 9.748-13.44 18.136 1.52 6.39-5.224 11.463-10.126 14.262-2.56 1.46-4.688.86-6.5 3.355-1.608 2.23-2.353 4.597-5.003 5.917-3.577 1.775-8.784 11.46-10.384 15.016-3.737 8.29-6.433 9.344-3.08 17.82 2.358 5.963.825 14.396-.663 20.233-.734 2.886-.97 5.52-2.95 7.93-2.575 3.114-.094 3.718 1.3 6.798 1.256 2.766-.29 4.316.775 7.184 1.244 3.336 3.917 2.44 6.063 4.406 3.364 3.08 7.104 8.11 10.196 11.613 3.946 4.424 2.573 11.844 9.657 14.082 6.92 2.167 11.45 9.75 18.446 12.43 5.056 1.952 13.842-3.5 19.73-3.452 6.72 0 13.49 3.297 19.662-1.164 4.88-3.52 16.18-7.154 22.003-4.822 5.026 2.03 5.532 10.69 10.318 11.06 4.658.38 12.91-4.278 16.037.745 2.552 4.11 2.566-1.713 3.93 6.285.816 4.8-2.748 9.16-2.455 14.045.144 2.114-1.874 5.266-2.758 7.096 1.25 3.197 2.456 6.228 4.703 8.894 4.263 5.063 9.73 7.978 11.816 14.677 1.378 4.428 6.984 11.617 5.605 16.545-1.934 6.91 6.713 14.358.488 20.52-8.2 8.11-12.686 23.854-5.88 33.77 9.948 14.515 7.864 30.476 13.873 45.917 2.64 6.775 7.188 11.756 9.626 18.885 1.076 3.152 4.102 6.97 3.655 10.498-.176 1.402-2.146 2.688-1.224 4.188 1.647 2.68 3.915 11.55 9.4 9.166 5.38-2.33 12.568-3.72 18.46-3.63 15.11.233 27.85-8.214 36.106-21.022 3.354-5.2 9.59-9.064 11.305-15.092 1.925-6.697-.726-14.217 8.578-15.723 9.43-1.514 7.857-11.955 6.362-18.87-2.17-10.052 1.615-10.472 8.945-16.744 5.138-4.394 11.88-6.272 16.74-10.765 5.547-5.125 4.604-11.844 4.992-18.645.203-3.535-.49-6.994.285-10.512.505-2.282-3.874-5.358-4.547-7.542a28.498 28.498 0 0 1-.97-12.344c.537-3.89-3.684-4.654-1.97-9.008 5.283-13.475 16.69-24.348 27.37-34.004 9.054-8.188 18.77-13.332 24.79-24.633 4.716-8.853 13.182-20.243 11.334-30.862.095.555-25.765 3.988-29.03 5.57-5.646 2.732-7.01.525-10.995-3.346-3.583-3.48-1.903-7.074-6.437-12.04-7.21-7.89-14.375-9.145-17.686-19.847-1.43-4.633-4.662-6.09-7.963-9.317-4.282-4.17-1.624-12.435-4.764-17.27-1.79-2.76-6.188-3.396-7.1-6.62-1.422-5.043-2.27-7.928-5.306-12.623-1.564-2.422-13.23-21.896-12.096-23.543.938-1.357 4.868 4.914 5.194 5.31 5.025 6.067 4.228 2.606 6.585-2.065.67.238 4.84 7.36 5.607 8.394 3.245 4.367 7.845 9.732 9.3 15.066.766 2.79 6.902 6.935 8.637 10.195 3.044 5.67.298 10.513 6.887 14.67 5.354 3.353 5.786 9.253 10.037 13.52 5.115 5.095 4.35 9.208 6.118 15.608 1.317 4.76 1.568 12.465 8.107 11.52 2.875-.418 3.638-2.68 6.072-3.588 2.19-.818 4.643.13 6.918-.434 4.222-1.053 8.144-3.88 11.818-5.936 4.48-2.504 13.356-1.848 15.28-7.848 1.195-3.707 8.153-4.307 11.262-5.258 2.396-.734 9.472-6.135 10.798-8.834 1.937-3.938 4.008-2.33 5.304-7.242.893-3.395 12.03-9.99 8.038-14.28-4.05-4.335-5.106-5.814-11.01-6.765-6.766-1.105-4.654-8.217-8.12-11.754-7.676 3.468-6.305 9.913-16.03 10.276-7.895.295-8.263-2.822-8.95-10.354-1.916.994-1.028 3.23-2.683 4.488 2.83-2.176-29.465-30.96-9.497-29.563 4.456.313 4.437.934 6.58 4.137 3.92 5.854 4.88 7.072 10.643 10.076 3.33 1.736 4.755 4.367 8.712 5.06 4.495.794 9.68-3.544 13.27-2.185 2.513.953 3.66 5.332 4.715 7.436 3.323.897 6.703 1.044 10.088 1.69 8.13 1.548 15.205.1 23.1.864 9.546.938 15.096-3.656 19.92 7.422 2.714 1.445 5.31 1.813 7.128 4.633 1.587 2.466 7.983 1.032 8.418 2.235.563 1.563-4.34 3.857-4.97 4.416 3.26 3.58 9.724 10.772 14.143 3.897 3.98-6.186 1.803-8.344 4.477 1.47 1.758 6.507 1.507 13.397 3.89 19.897 2.72 7.41 6.893 14.19 9.324 21.662 2.148 6.66 6.652 11.527 9.11 18.066 2.257 6.002 3.913 14.588 10.227 7.254 3.526-4.096 8.722-7.646 7.543-13.47-.76-3.688 2.997-6.503 1.69-10.15-1.293-3.61-.965-7.255-.867-11.058.13-4.473 7.97-5.393 10.197-8.514 3.964-5.557 9.815-9.422 13.52-15.54 1.48-2.444 5.118-1.968 6.796-4.552 1.56-2.404.727-5.1 3.054-6.994 3.3-2.682 2.758-2.87 6.603-2.164 3.023.56 10.3-.28 9.826-4.9-.34-3.205 6.663 1.1 7.328 2.994.938 2.678 1.304 5.207 3.07 7.56 2.15 2.87 6.064 3.34 8.154 6.007 3.27 4.17 7.044 12.354 4.974 17.64-2.877 7.35 11.822-1.272 13.21-3.15 10.78 12.075 12.577 31.52 10.32 46.985-.38 2.77 10.79 12.025 11.728 16.413 1.02 4.75 3.16 12.044 6.57 15.685 1.83 1.945 15.62 11.91 11.84 3.063-2.627-6.144-2.414-13.794-7.04-18.75-2.506-2.687-14.03-6.933-12.383-11.604.672-1.918-4.095-6.994-5.507-7.824-3.38-1.987-1.105-8.375-.348-10.883.85-2.806 2.888-18.98 7.7-9.487 1.198 2.343 4.91 1.73 6.81 3.355 2.96 2.563 5.674 5.412 8.414 8.102 1.833 1.802 5.067 3.184 7.254 4.523-.967 6.06-.243 7.354 4.68 3 5.672-5.018 13.9-7.813 15.77-15.857 1.478-6.364-2.2-15.916-6.414-20.682-1.826-2.068-4.03-3.426-6.31-4.916-3.404-2.27-4.258-5.777-7.208-8.326-4.332-3.734.144-12.78 3.94-15.28 5.286-3.494 7.877-4.163 13.7-2.576 1.515 1.418.342 5.026 3.326 5-1.01 0 1.39-4.538 3.243-5.048 4.927-1.37 12.463-8.27 15.657-7.063 8.35-2.01 24.015-10.146 24.316-20.938.11-4.05 3.185-11.697 6.207-14.48 2.545-2.354 1.072-6.766 1.327-9.7.362-4.256-3.524-2.22-5.762-3.92-1.534-1.153 6.236-3.896 4.322-6.138-.723-.843-4.04-2.684-3.74-3.8.337-1.268 5.76-2.138.74-4.206-4.515-1.82-4.77-8.36-7.86-11.48-4.624-4.66-6.793-2.573-5.842-10.238 2.532-2.302 2.953-5.493 5.93-7.594 1.755-1.24 6.798-1.715 7.094-3.977.42-3.264-4.216-2.108-5.673-2.293-6.01-.766-3.845-2.693-8.545 2.606-2.83 3.188-12.718-6.06-13.384-8.96-1.453-6.32 6.02-2.885 6.535-7.426.306-2.723 7.1-12.14 10.15-11.855 7.422.695 1.53 6.66 2.656 10.05 1.692 5.103 10.066-2.373 13.513-2.653 5.297 1.85 7.525 3.947 6.358 9.974-1.224 6.32 5.88 2.667 8.688 6.03 1.64 1.955 3.395 9.468 3.543 12.092.58 10.212.71 5.692 9.15 5.676 16.553-.033-12.554-31.123-12.655-31.927-.714-5.708 8.78-7.666 7.697-13.8-1.51-8.302 2.852-9.32 6.29-15.897 2.198-4.194 10.418 4.448 14.733-4.91 2.835-6.22 8.837-15.662 9.26-22.48.322-5.334.92-14.743 3.726-19.342 3.39-5.577-5.042-15.726-5.252-21.4-.275-7.927-3.72-31.515-16.865-29.263-4.857.832-1.563 4.462-6.576 6.46-2.098.843-1.272-1.87-2.263-2.555-1.438-1-3.02 2.394-4.355-.565-.472-1.037-1.57-5.542-3.305-5.325-9.972 1.265-6.008-4.504-3.02-10.41 3.083-6.09 4.663-13.742 6.783-20.305 1.68-5.198.62-11.833 2.554-16.73 2.985-7.47 11.863-4.467 17.01-8.29 4.978-3.743 9.516.393 12.43-5.595 2.254-4.616 13.215-2.302 16.182.66-1.347.846-1.797 1.923-1.35 3.232.583.746 10.85-4.563 12.016-5.724 2.195-2.236-3.1-1.87-3.684-3.325-2.654-6.586 1.704-14.155.62-21.286-.984-6.487 15.904-11.008 16.412-7.98.97 5.687.634 6.915 6.207 8.466.738-2.054 4.098-11.363 3.57-13.02-.728-2.242-4.64-7.43-2.727-9.82 1.218-1.515 7.845-3.664 8.312-.167.593 4.457-2.305 3.404.28 9.38 2.567 5.945 4.75 9.817.853 14.75-3.937 4.988-2.476 16.274-3.177 22.477-.677 6.037-1.29 8.526-3.858 14.15-1.41 3.136-.523 8.41-1.952 12.383 2.01 10.24 6.452 19.783 12.356 28.343 2.02 2.925 5.23 10.986 8.685 12.238 4.313 1.56 1.728 12.155 7.964 11.652 2.3-4.05 3.72-7.726 1.875-12.338-2.513-6.242 1.438-4.536 2.87-8.803.635-1.9-2.413-7.02-2.002-9.842.638-4.387 5.337-3.873 6.102-6.965.65-2.618-5.994-7.923-6.03-11.925-.037-3.687-.555-6.09 1.27-9.412-.093.172-5.247-5.717-3.957-9.256 1.983-5.403-4.444-.84-4.52-.815-4.47 1.497-7.138-20.813-7.785-23.532-1.036-4.32 5.105-3.727 6.1-6.71 1.908-5.79 3.894.017 6.215.267 1.02-4.935 5.71-13.07 12.052-8.27 7.15 5.42 4.437 1.236 6.17-5.09 1.527-5.585 5.342-32.02 15.972-30.088 8.903 1.61 4.42-4.788 2.15-8.497-1.372-2.247-5.2-4.217-7.84-3.862-2.603.348-.342-3.554-1.504-4.715-2.528-2.524-5.525-3.57-8.726-4.703-5.08-1.8-1.934-4.305-7.905-1.328-2.687 1.328-2.14-3.896-.488-5.09-1.014.046-1.785-.295-2.316-1.023 1.06-3.395 7.343 2.05 9.618 1.862 5.438-.448 5.016-8.548 4.438-12.42-.756-5.07-5.957-5.407-8.39-9.044-2.42-3.645 2.574-9.747 3.75-5.225 1.025 4.01 6.23 6.224 7.17 1.316 1.267-6.502 7.624-1.558 9.728.422.923.866 8.767-.584 10.48-.584 2.838.02 3.17-4.3.775-4.666-1.297-.198 2.102.322 0 0z"/><g fill="#1D2F49"><path d="M225.65 616.39c.21.848-.656-2.677 0 0z"/><path d="M-334.972 180.377c4.502-4.172 11.144-4.7 15.524-8.607 4.147-3.7 7.448-6.004 12.917-8.02 3.184-1.176 6.56-4.824 9.582-6.704 2.51-1.55-4.93-8.106 3.968-8.71 6.042-.398 20.02-20.927 27.213-14.135 4.456 3.96-11.494 7.155-11.4 7.058-1.104 1.158-6.547 7.377-5.978 8.693 2.324 5.354-2.913.087-3.24 5.19.023-.417 18.174-4.507 20.16-6.64 2.314-2.48-.288-5.588 2.344-7.865 2.525-2.184 7.148.544 10.694.276-1.77 7.2 5.935 12.514 11.55 14.38 3.743 1.24 6.933 5.79 10.54 6.088 4.48.365 1.205 3.25 3.1 6.114.733.902 1.683 1.32 2.842 1.26.728 1.257-.057 4.588.337 5.84 1.766 5.59 4.075 4.77 4.03-.415-.034-3.525 4.3 5.18 4.29 5.16 2.333 4.114 3.344-9.735 5.054-8.836 1.93 1.008-.48 8.594.178 10.514.738 1.998 1.997 3.552 3.77 4.66-.355 2.363-2.194 4.92-2.25 7.152-.127 5.33 7.235 14.324 3.76 18.96-.006.05.107-.063.168-.12a12.95 12.95 0 0 0 .43 4.468c1.314-2.316 2.95-3.14 4.91-2.472-2.575-.94-9.703 17.277-4.468 15.478 4.08-1.4 5.813.204 2.443 4.434.057-.07.98 7.833.758 7.554.834 1.06 2.18.13 3.44-.712-.19.198-.232.258.018-.004 3.664 3.892-1.813 3.89-4.003 6.408-.045.052 1.546 1.85.93 3.345-.925 2.228 4.108 8.63 6.283 9.2 4.668 1.223 15.124 27.138 4.995 28.28 4.11-.91-7.292-13.314-7.49-8.01-.204 6.268.75 12.763-1.463 18.013-2.96 6.99-4.625 14.846-8.58 21.342-1.91 3.132-1.912 6.725-1.72 10.237.15 2.756-3.57 9.368-2.608 11.268 2.285 4.56-1.403 14.308 4.38 17.126 2.64 1.29 1.877 7.74 1.558 10.382-.928 7.283 4.097 14.344 9.546 17.184 9.644 5.023 8.737 11.478 11.94 20.746 1.067 3.096 1.46 8.42 4.12 10.693 2.395 2.063 5.645 6.15 4.812 9.633-.308 1.28-4.188 3.3-2.254 5.072 1.913 1.756 4.874 2.176 6.45 4.318 1.707 2.336 4.05 3.21 3.976 6.48-.094 4.005-1.006 3.882 2.083 6.915 1.02.998 11.803 11.574 8.782 5.605-1.186-2.297-3.693-3.016-4.867-5.14-1.313-2.372-1.517-6.46-2.173-9.103-1.353-5.434-4.396-10.74-7.115-15.746-3.87-7.116-6.58-10.456-6.104-18.774.208-3.7 3.325-1.873 5.183-1.06 4.544 1.985 3.865 7.01 5.194 11.237 1.54 4.896 5.82 13.068 9.747 16.438 4.018 3.448 2.73 8.5 5.994 10.714 4.323 2.93 8.234 8.764 11.054 13.232 1.968 3.12 3.245 6.22 4.223 9.768 1.412 5.13-2.866 7.52.183 12.377 5.738 9.163 25.575 15.454 35.4 19.3 3.338 1.31 6.887 2.71 10.548 1.918 2.396-.518 4.764-2.908 7.316-2.387 6.305 1.27 9.77 8.86 14.974 12.062 3.87 2.38 16.197 5.668 20.75 4.42.83-.225 7.247 9.62 9.405 10.9.313 5.17-.054 6.492 4.733 7.14 2.274.306 5.313 4.294 6.257 6.077 1.524 2.884 6.882 2.007 9.577 2.89.636 1.258 6.86 6.334 7.475 2.678.448-2.65 2.68-9.094 6.827-7.334 4.683 1.967 4.406 7.23 6.756 11.307 1.767 3.064 4.42 16.58 1.94 19.72-7.685 9.754-19.468 16.355-18.257 30.465.23 2.582 7.518-1.008 4.59 4.744-2.532 4.972-11.23 8.038-5.76 15.784 3.343 4.738 10.232 6.37 12.178 13.033 2.324 7.912 7.762 15.088 12.08 21.977 1.658 2.643 1.526 5.846 3.146 8.32 2.313 3.54 6.654 5.64 10.008 8.004 6.6 4.65 13.125 8.084 19.342 13.494 4.313 3.758 3.545 13.855 3.934 19.063.496 6.664.507 15.47-.252 22.113-1.726 15.13-4.06 32.313-.095 47.39 1.084 4.138-3.112 21.42-5.74 24.75-2.085 2.642 1.805 8.67 2.742 11.036 1.42 3.572-1.224 9.645-.87 13.55.336 3.726 2.49 4.056 4.897 3.26 4.573-1.44 2.12 9.976 2.115 10.962-.02 4.8 1.38 5.648 2.323 9.482.6 2.426-2.618 8.842-3.128 11.63-1.15.04-8.84-4.368-6.11 1.936 1.005 2.317 5.116.584 5.524 3.75.296 2.272-.967 5.77 1.948 6.745 1.26.427.82 2.96-.07 5.147h34.67c1.675-2.03 8.075-11.615 1.767-12.906-5.664-1.16-10.87-7.144-6.19-12.228 2.932-3.184 8.618-3.88 6.616-9.73-.207-.604 1.196-9.246 1.584-9.76.458-.6 8.4 1.227 4.86-2.156-.226-.21-5.597-.71-5.226-.494-2.44-1.416-2.563-5.13-3.125-7.504-1.132-4.803 9.5.54 11.28-.278 2.845-1.31 2.9-9.587 1.94-12.27-1.7-4.722 3.908-2.892 6.068-2.788 7.374.355 14.918-1.84 17.82-8.887 2.895-7.035-2.963-5.006-1.792-11.498.055-.295-8.763-10.963-6.315-9.92 5.868 2.5 10.106 4.504 16.896 4.78 5.398.21 5.27-4.776 8.083-7.593 4.402-2.69-.564-5.354-.973-2.66.402-2.777 3.523-3.63 4.65-5.687 1.418-2.586 2.18-5.424 3.777-8.228 1.27-2.23 1.443-5.55 4.426-3.953 2.167 1.156 6.98-9.473 7.98-11.377 2.23-4.197-.424-7.2-.047-11.432.41-4.594 3.64-7.104 6.79-9.96 3.416-3.103 7.578-4.075 11.045-6.84 5.214-4.17 5.917-3.522 12.658-3.772 12.108-.44 16.705-29.62 16.916-38.625.135-5.755-1.063-10.538.5-16.163 5.245-2.498 4.878-4.14 8.257-8.984 7.52-10.775 12.94-12.447 9.457-26.613-1.317-5.373-12.092-6.367-16.055-10.857-4.936-5.602-19.31-8.42-26.48-7.26-.517.082-5.325 3.45-5.63 1.393-.942-6.428-2.598-4.492-7.21-7.41-10.33-6.526-11.833 2.017-19.427 6.285.044-2.228-1.563-1.745-2.43-3.206-.028-.047 7.312-4.107 7.886-6.894 1.05-5.147-14.34 1.776-15.93 1.104.552-3.088 10.428-10.54 7.82-13.38-4.65-5.09-5.43-11.74-10.44-16.63-3.772-3.684-11.37-6.863-16.697-6.563-5.236.306-8.11.44-12.315-2.97-2.37-1.922-3.844-3.775-6.117-5.646-1.665-1.36-11.877-6.808-11.77-7.18 1.408-4.92-10.264-4.197-8.275-8.26.958-1.954-12.944 2.55-14.6 1.355-3.018-2.176-6.895-1.05-10.256-.988-3.254.06-3.833-3.855-7.11-4.705-8.552-2.213-11.855 2.23-11.855 9.412 0 3.647-6.646 1.688-2.907-4.37 1.436-2.336-1.08-3.777-.308-6.004.623-1.797 3.61-1.818 2.686-4.088-.342-.818-13.534 5.456-13.91 6.105-1.253 2.142-3.343.16-5.058 1.127-2.7 1.52-2.52 4.475-3.497 6.975-.64.518-7.253 8.014-6.248 7.906-4.067.41-7.006-7.91-13.22-7.246-6.203.66-12.425 6.683-17.67-.813-5.103-7.282-5.378-9.454-3.74-18.24.55-2.945 1.602-5.51 1.85-8.49.37-4.433-3.29-3.177-6.044-5.466-4.958-4.133-15.003.13-20.798-1.14-1.683-.364 1.967-15.618 3.366-15.597 2.073.053 4.02-9.26 6.128-12.03 5.602-7.405-11.626-2.845-13.43-2.77-2.594.1-8.83 13.24-9.735 15.675-.045.115-15.272 1.982-16.588 1.586-11.217-3.404-16.332-18.613-14.956-29.05.9-6.815 4.046-13.68 3.88-20.444-.29-11.813 7.712-8.742 13.406-14.62 5.638-5.823 9.825-.51 16.487-3.49 2.698-1.2 10.26 8.214 11.605-.128 1.07-6.62 13.606-4.715 18.208-3.914 2.496.437 5.667 4.375 8.164 3.19 3.66-1.733 4.852-.516 7.16 2.515.916 1.197 7.713 29.418 11.45 24.514 8.793-11.567-6.32-27.238 2.66-40.002 2.35-3.353 9.233-6.742 12.574-9.51 3.315-2.744 8.926-7.92 12.446-9.867 4.343-2.456-1.832-3.558 1.62-5.45 3.5-1.887-2.603-19.424 2.416-19.7.673-.04 1.257 10.244 4.055 7.3 3.02-3.163-1.054-7.386 3.678-7.607 5.187-.268 3.965-6.837 5.83-9.7 3.245-4.973 11.373-1.36 13.91-5.263.647-.633 1.412-.844 2.29-.63 4.27-.46.7-3.22 1.627-5.492 2.142-5.223 3.485-8.14 8.82-10.704 3.722-1.79 12.294-1.952 13.3-6.54 3.232-.58 6.333-1.05 9.433-2.193-.563.21 8.846-1.695 5.582 1.707-1.5 1.534-6.212 1.963-8.343 3.003-2.252 1.1-4.437 8.634-.547 7.294 3.65-1.236 4.557-4.37 7.59-6.027 3.46-1.892 8.695-1.374 12.454-3.582 3.133-1.786-9.224-4.296-10.704-5.713-2.635-2.516-4.57-6.262-2.798-10.036.894-1.913-3.968-1.444-3.945-3.853.012-.517 6.586-.912 7.35-3.266 1.106-3.44-4.41-4.764-6.62-4.218-5.234 1.297-10.95 2.477-15.237 5.958-1.41 1.145-10.04 6.77-10.03 6.758 4.047-5.575 9.792-12.273 16.406-14.792 7.11-2.707 6.437-7.856 14.774-7.12 8.075.717 16.165 1.793 24.25 1.228 2.865-.198 5.365-2.377 7.042-4.52 2.703-3.453 5.96-2.12 9.604-3.375 4.288-1.48 9.19-8.596 6.146-13.35-1.41-2.192-3.366-.19-4.56-1.43-.766-.797.364-2.455-.417-3.482-3.152-4.15-11.777 7.463-14.157 5-3.917-4.013 13.564-8.158 12.683-9.654-1.413-2.35-11.154-2.74-11-5.544.2-3.56-8.71-9.337-4.432-11.935 4.1-2.49-.963-11.58-3.627-14.7-.488-.567 2.032-2.36 1.35-3.843-1.84-4.015-2.01-8.492-2.583-12.797-2.8.47-4.736 6.406-6.14 8.38-2.966 4.16-7.433 7.508-12.515 8.754-6.318-4.02-8.184-13.256-5.316-18.858 1.404-2.746 3.504-6.088-.85-7.4-5.258-1.583-5.4-4.395-7.667-8.847-2.047-4.025-20-10.16-22.938-5.42-1.937 3.124.87 5.944-1.297 9.4-2.56 4.08.778 8.387-.958 12.27-1.634 3.65-6.655 5.415-8.526 9.022-.433 2.046.3 3.746 2.195 5.1 1.95 3.305 1.932 7.854 1.714 11.556-.357 6.272-.848 7.07-6.41 10.87-2.827 1.93-12.49 3.915-12.193 8.188.16 2.304-1.367 26.768-3.72 25.896-5.922-2.153-9.023-4.38-12.45-12.45-1.553-3.654 5.283-19.635 1.986-20.338-10.947-2.332-15.935-5.854-23.355-14.41-2.182-2.516-6.147-4.482-9.118-5.99-3.396-1.724-6.65 1.91-9.974.513 2.575-5.203 2.733-9.112 1.482-14.945-.463-2.214-3.896 2.2-4.437.265-1.065-3.826-.167-8.11 1.253-11.768 2.57-6.617 7.433-11.308 11.8-16.776 2.105-2.63 3.304-2.847 5.834-4.788 4.378-3.362.688-5.61 2.633-8.242.807-1.126 6.6 5.813 8.913 1.222 1.39-2.76-4.538-5.632-3.507-6.732 1.77-1.897 8.697 4.936 9.646-1.084.62-3.697 6.658 1.348 9.274-1.12 4.77-4.502 10.646-6.95 2.732-10.24-1.837-.764-6.19-8.152-2.272-7.612 3.38.466 3.697 7.997 8.16 6.75 2.09-.585 9.255-5.47 7.44-8.202-3.118-4.705 5.258-2.43 7.014-.484 5.14.337 2.778-2.266 1.732-5.705l.825-.736c2.482.863 3.534 2.767 3.148 5.71.708 2.784 5.235-.66 5.543-.863 9.256-6.167 5.177-6.184 6.34-15.21.626-4.853 4.67-2.798 6.732-7.564 1.68-3.88-3.378-7.534-6.343-9.526-8.237-5.54-5.36 5.308-8.73 8.287-3.875 3.427-7.215 6.64-10.363 10.98-4.222 5.816-7.668 5.07-7.64-3.18.013-3.66 4.062-6.004 3.424-9.402.565 3.024-1.055-7.395-3.055-4.328-.425.652-9.32 10.462-6.675 4.072 3.104-7.446.596-7.912-3.17-11.867-2.485-2.607 3.798-6.51 5.22-7.967 1.333-1.364.536-14.996-.14-17.217-1.564-5.155-8.117-6.235-6.95.006.426 2.303-10.785 1.43-7.61 8.614 1.478 3.342-7.706 6.08-2.11 11.658 3.11 3.103 9.515 3.62 9.526 8.19-7.214-.566-4.383-.693-5.913 3.792-1.208 3.537-4.44 6.425-7.92 7.916-5.04 2.164-4.544 2.385-5.433 8.355-.72 4.81-7.914 2.514-6.863 1.33.283-.323 3.54-.12 2.992-1.546-1.533-4.016-1.05-4.623 1.556-8.283-2.943-6.125-10.182-7.21-6.636.576-9.526.4-26.652-1.656-28.885-13.11-.36-1.86.62-6.81-2.968-6.558-2.69.186-7.45-.504-9.41 1.833-2.775 3.314 10.725-.49 11.178 1.446.835 3.658-12.32 4.646-13.332 8.018.048-.16-4.908 15.48-6.33 9.764-.957-3.81.342-14.858-5.927-13.41-2.06.478-22.922-.552-18.745-6.667 2.306-3.395 14.143-3.416 5.764-9.954-2.03-1.584-5.338-.852-7.856-2.744-2.688-2.015-5.662-4.083-8.07-6.434-2.927-2.858-5.71-12.93-11.24-7.147-7.084 7.388-4.38-3.488-3.762-6.152-2.783-.175-4.734 6.862-7.244 5.625-4.8-2.347-.912-12.02-1.33-16.17-.454.11-4.395 4.723-5.357 5.263-4.434 2.482-7.676.423-11.917 3.018 6.28-3.854-10.916-.25-13.752 1.616 4.533-2.982 8.44-3.976 13.768-4.217 4.303-.208 7.187-6.402 2.996-4.25-3.413 1.745-12.398 4.918-16.035 4.902-2.545-.014-5.604 1.767-7.89 2.56-.17.478-.74 8.53-3.073 7.035-1.207-.772-2.117-3.392-3.045-4.34-1.98-2.003-5.854-4.21-6.86-6.97-2.08-5.655-3.414-8.417-8.518-11.686-3.438-2.2-3.88-4.292-6.28-7.295-2-2.5-5.136-.418-7.33-2.076-3.263-2.448-14.14-6.574-14.157-11.06-.01-2.91-4.776-1.006-5.53-.845-3.1.67-3.475-3.647-4.28-5.52-.83-1.927 1.527-3.93-.86-5.212-2.022-1.083-5.147-.135-6.352-2.62 1.27 2.62-12.338-1.626-5.188-3.366.813-.2 4.88-.22 3.393-2.48-2.326-3.52-6.063 1.194-8.878 1.705-2.468.447-5.655-.882-8.097-1.224-3.176-.44-2.958 2.472-4.86 4.087-3.79 3.213-10.346.45-15.326 3.566-5.25 3.284-9.874 8.43-16.053 9.947-5.233 1.284-14.07-4.407-15.512 5.53-.893 6.156 3.15 10.894 1.27 17.857-.898 3.34 6.048 2.62 4.497 6.89-1.87 5.144 8.91 2.985 5.857 7.266-.992 1.393-10.38 3.128-12.554 3.306-13.246 1.084-.427-17.4-15.21-7.297-1.162.794-16.904.46-13.7 5.93 4.526 7.726 1.77 3.16-1.512 11.348-2.083 5.22 14.97 6.792 17.258 5.77 5.27-2.362 10.167-3.222 5.95 2.38-2.312 3.067-3.03 15.375-10.295 12.378-4.93-2.016-12.655 3.976-16.23 6.463-1.94 1.353-5.258.144-7.178 1.585-3.187 2.384-5.326 5.833-8.563 8.162-5.11 3.69 6.27 10.366 6.264 10.713-.112 3.55-9.727-3.397-8.305 4.032 1.715 9.083 5.295 7.223 10.206 2.678.206-.056.408-.11.613-.167 1.425.014-.883 9.263-1.354 10.35-2.855 6.57-.688 6.225 4.78 9.062 1.043.54 12.813 3.512 12.874 3.41-5.236 8.625-12.446 16.168-21.66 20.603-3.23 1.554-7.733 7.218-10.252 7.973-1.252.375-14.944-1.77-11.718 5.093-.73-1.492 20.105-5.317 21.294-6.42z"/></g><path fill="#204668" d="M301.6 874.813h26.521c1.533 0-.394-12.355-.7-13.736-2.343-10.56-7.513-20.32-13.286-29.373-5.587-8.758-8.21-16.088-10.91-26.398-4.406-16.81-7.407-45.703 18.01-47.813 15.895-1.318 30.452 6.02 42.68 15.256a249.46 249.46 0 0 1 25.996 22.636c6.74 6.74 12.536 17.865 20.964 22.45 14.17 7.708 30.965-6.53 45.205-7.856 8.46-.788 1.406 11.72 3.578 16.543 3.285 7.297 7.665 13.04 5.07 21.137-2.396 7.48-6.216 17.484-14.442 17.9-11.04.56-13.33-.926-18.745 9.256h44.965c7.11 0 17.25-23.305 17.38-29.768.576-12.223-1.69-24.81-6.062-36.213-3.86-10.068-9.887-20.307-19.38-25.98-11.763-7.03-24.998-2.07-37.807-2.764-12.735-.685-28.646-14.097-32.18-25.964-2.597-8.72-1.463-39.54-15.192-39.266-8.896.176-14.366 6.443-24.043 5.627-10.85-.916-23.318-5.2-34.16-2.998-11.306 2.294-22.03 9.71-31.08 16.495-10.468 7.846-26.08 19.715-30.53 32.58-2.875 8.316 3.052 17.125 7.482 23.686 7.775 11.51 16.483 22.337 22.746 34.81 7.306 14.547 13.107 33.626 7.92 49.753z"/></g></g></g></g></svg>