<svg xmlns="http://www.w3.org/2000/svg" width="1600" height="330" viewBox="0 0 1600 330"><path fill="none" stroke="#000" stroke-width=".776" stroke-miterlimit="10" d="M1566.305 169.592s-61.35-163.838-315.9-163.838H465.877S33.8-3.346 33.8 169.592c0 0-18.278 154.736 430.77 154.736h785.834s245.41-7.28 315.9-154.736z"/><path fill="none" stroke="#000" stroke-width=".776" stroke-miterlimit="10" d="M464.57 315.228c-298.607 0-386.88-68.81-412.922-109.826-12.104-19.07-11.5-32.97-11.4-34.405l.126-.838-.05-.567c0-75.942 97.762-113.51 179.77-131.647 97.203-21.5 204.272-23.17 234.772-23.17 6.945 0 10.872.08 10.912.08h784.626c57.13 0 109.01 8.404 154.205 24.977 36.042 13.217 67.927 31.628 94.768 54.72 36.535 31.433 53.7 63.174 59.145 74.724-15.61 30.24-40.506 56.614-74.075 78.454-28.666 18.652-63.605 34-103.85 45.613-67.81 19.575-128.003 21.81-130.27 21.887H464.57z"/><g fill="none" stroke="#000" stroke-width=".776" stroke-miterlimit="10"><path d="M1553.403 167.786c.247.49.48.96.7 1.412-.246.465-.495.93-.746 1.392"/><path stroke-dasharray="3.1596,3.1596" d="M1551.824 173.352c-15.41 27.17-38.77 51.055-69.53 71.066-28.342 18.44-62.926 33.623-102.79 45.13-66.724 19.26-125.928 21.61-129.247 21.73H464.57c-130.77 0-234.176-13.224-307.346-39.304-62.63-22.322-90.167-49.676-102.24-68.69C43.86 185.76 44.108 172.92 44.18 171.402l.168-1.12-.073-.856c.153-73.206 96.14-109.81 176.674-127.624 96.81-21.412 203.517-23.077 233.916-23.077 6.33 0 10.12.068 10.815.08l784.724.004c56.663 0 108.087 8.32 152.846 24.733 35.594 13.052 67.07 31.223 93.554 54.004 31.803 27.363 48.632 54.792 55.884 68.838"/></g><path fill="none" stroke="#000" stroke-width=".776" stroke-miterlimit="10" d="M612.8 54.823s-9 26.204-31.822 26.204h-65.582c-21.397 0-31.822-26.204-31.822-26.204s10.425-26.2 31.822-26.2h65.582c21.506 0 31.822 26.2 31.822 26.2zM612.8 271.832s-9 26.2-31.822 26.2h-65.582c-21.397 0-31.822-26.2-31.822-26.2S494 245.63 515.396 245.63h65.582c21.506 0 31.822 26.202 31.822 26.202zM767.393 54.823s-8.998 26.204-31.82 26.204H669.99c-21.397 0-31.82-26.204-31.82-26.204s10.423-26.2 31.82-26.2h65.583c21.504 0 31.82 26.2 31.82 26.2zM884.987 44.816S878.702 61.01 862.76 61.01h-45.812c-14.946 0-22.228-16.194-22.228-16.194s7.28-16.194 22.228-16.194h45.812c15.022 0 22.227 16.194 22.227 16.194zM884.987 276.42s-6.285 16.195-22.227 16.195h-45.812c-14.946 0-22.228-16.194-22.228-16.194s7.28-16.192 22.228-16.192h45.812c15.022 0 22.227 16.193 22.227 16.193zM767.393 271.832s-8.998 26.2-31.82 26.2H669.99c-21.397 0-31.82-26.2-31.82-26.2s10.423-26.203 31.82-26.203h65.583c21.504 0 31.82 26.202 31.82 26.202zM255.472 107.328h108.666v116.047H255.472zM479.658 107.328h137.057v116.047H479.658zM987.75 107.328h137.056v116.047H987.75zM1278.505 107.328h106.71v116.046h-106.71zM776.205 109.148h96.025v107.854h-96.025zM889.767 115.746h53.93v94.658h-53.93zM1250.33 54.823H994.176V33.696h264.05zM1258.228 295.673h-264.05v-21.126h256.15zM387.307 111.424h33.285v46.418h-33.285zM431.285 111.424h33.285v46.418h-33.285zM387.307 176.956h33.285v46.42h-33.285zM431.285 176.956h33.285v46.42h-33.285zM1145.038 111.424h33.286v46.418h-33.286zM1420.236 137.793h40.138v56.805h-40.138zM1471.77 135.435h8.157v61.52h-8.158zM1479.927 145.983h21.54v40.422h-21.54zM1189.015 111.424h33.287v46.418h-33.287zM1145.038 176.956h33.286v46.42h-33.286zM1189.015 176.956h33.287v46.42h-33.287zM1230.42 111.423h33.286v46.42h-33.285zM1230.42 176.955h33.286v46.42h-33.285zM173.236 111.424H110.58l-26.43 23.21v53.244l23.168 31.855h65.918zM987.75 107.328l137.056 116.047M1124.806 107.328L987.75 223.375M1278.505 107.328l106.71 116.046M1385.215 107.328l-106.71 116.046M479.658 107.328l137.057 116.047M616.715 107.328L479.658 223.375M255.472 107.328l108.666 115.565M364.138 107.328L255.472 222.103"/><circle fill="none" stroke="#000" stroke-width=".776" stroke-miterlimit="10" cx="824.217" cy="163.075" r="24.897"/><circle fill="none" stroke="#000" stroke-width=".776" stroke-miterlimit="10" cx="824.217" cy="163.075" r="20.948"/><circle fill="none" stroke="#000" stroke-width=".776" stroke-miterlimit="10" cx="638.169" cy="163.075" r="15.418"/><path fill="#FFF" stroke="#000" stroke-width=".776" stroke-miterlimit="10" d="M631.492 169.847l195.504 7.11s11.06-2.44 11.06-13.765c0-11.322-11.06-14.152-11.06-14.152l-195.504 6.32v14.487z"/><path fill="none" stroke="#000" stroke-width=".776" stroke-miterlimit="10" d="M824.216 163H638.17M1012.558 33.696v21.127M1240.85 33.696v21.127M1012.558 274.547v21.126M1240.85 274.546v21.127"/></svg>