<svg xmlns="http://www.w3.org/2000/svg" width="800" height="500" viewBox="0 0 800 500"><path clip-rule="evenodd" fill="none" stroke="#4B5D74" stroke-miterlimit="10" d="M226.396 155.57l25.3 112.19 148.12-81.027 112.924 3.3"/><path fill-rule="evenodd" clip-rule="evenodd" fill="#16335A" d="M579.542 68.447c1.916 4.863 2.874 7.498 2.874 7.916h145.95c.527-.5 1.21-2.15 2.044-4.956v-5.29l.746-3.332-.12-.334-.503 2c-.33 1-.82 1.498-1.457 1.498h-26.864V59.91h-14.707v1.955a1.687 1.687 0 0 1-.537.212c-.03.194.136.472.498.833v1.58l-.417-.04c-.78 0-1.198.778-1.25 2.33-.61.28-1.098.446-1.46.5-.11-.387-.18-.955-.207-1.705a170.063 170.063 0 0 1-.083-4.417h-2.167v6.955c-.025.143-.07.21-.125.21-.11-.027-.375-.027-.793 0a.19.19 0 0 1-.143-.062c-.045-.042-.066-.104-.066-.187-.08-1.86-.12-2.873-.12-3.04-.667-.085-1.24-.085-1.71 0v3.08c-.112.085-.182.126-.21.126h-.5c.056-.306.073-.972.042-2 0-1.583.196-2.597.584-3.04l-1.084-.543-.164.166c-.08-.136-.14-.22-.17-.248l5.836-4.25c.053.81.042 1.445-.04 1.916l.497-.042a12.547 12.547 0 0 1 0-2.912h-.457l-8.456 3.29a16.335 16.335 0 0 0-.21-.584c-.168-.056-.57-.056-1.21 0 .222 0-.07-1.167-.872-3.5v-.456c-.14-1.472-.318-2.625-.543-3.46-.75-.666-1.415-1.054-2-1.165-.03-.025-.03-.234 0-.624.027-.33-.098-.5-.374-.5-.25.03-.445.057-.58.083-.226.666-.363 1.015-.42 1.04a1.52 1.52 0 0 1-.127-.456c-.058-.585-.14-.902-.248-.958h-.626c-.612.833-.832 1.25-.667 1.25a3.78 3.78 0 0 1-.79-.083c-.89 0-1.334 1.428-1.334 4.288.055.807.055 1.53 0 2.17-.08 1.666-.196 2.496-.334 2.496h-.29c0 1.002-.015 1.474-.043 1.418l-.375-.083c-.112 0-.216-.11-.313-.332-.098-.223-.17-.35-.23-.375-1.913-.777-3.33-1.32-4.25-1.625a360.123 360.123 0 0 1-4.745-1.918c-.282.032-.5.056-.668.086v3.832c0 .858.125 1.526.375 2 .25-1.944.415-3.473.5-4.583.665.305 1.125.665 1.372 1.082-.192.25-.385.5-.582.75.027.528-.168.79-.58.79v2.998a22.4 22.4 0 0 1-1.127.295v1.29c.055.224.083.35.083.376-.25.03-.64.04-1.164.04-.222 0-.32-.373-.29-1.124.026-.752-.183-1.125-.626-1.125-.307 0-.46-.277-.46-.832 0-.027.054-.32.165-.877.31.143.546.268.713.377 0 .057.01-.32.04-1.124.024-.806.204-1.252.538-1.334-.244-.193-.443-.305-.578-.33 0-.722.01-1.264.04-1.628-.224-2.165-.333-2.956-.333-2.373V47.62c-.057-.054-.156-.082-.294-.082v8.122c0-.082-.137.39-.414 1.418-.225-.252-.417-.377-.584-.377-.526-.024-.85 0-.96.087-.333.5-.552.89-.662 1.164-.114-.052-.17-.093-.17-.125l-.208.126a.895.895 0 0 1-.165-.125l-.208.126c-.223-.026-.726-.026-1.503 0-.11-.052-.164-.093-.164-.125l-.164.126c-.035-.026-.06-.046-.09-.06-.026-.014-.067-.033-.125-.065l-.21.086-1.37-.042c-.335-.222-.5-.443-.5-.667h-1.417c-.164.225-.29.378-.373.46-.14-.36-.224-.625-.25-.79l-.125-5.706-.167 5.996c-.112.5-.183.764-.208.79l-.126-.125c-.252.086-.71.126-1.373.126-.53 0-.793-.177-.793-.538a.812.812 0 0 0-.166-.625c-.112.026-.183.04-.21.04-.223 0-.417-.222-.583-.665v-6.916l-.292 6.83c-.083.502-.317.768-.707.793l-.417.998c-.17-.026-.265-.066-.29-.122 0-1.168-.03-1.822-.09-1.96h-1.744c-.83 0-1.29-1.845-1.38-5.54 0-.137.017-.22.046-.25h1.957c.083-.194.15-.29.208-.29.168.165.29.264.377.29.11 0 .166-.026.166-.082v-.877a2.026 2.026 0 0 1-.708.21c-.392-.11-.944-.47-1.667-1.08 1.11-.197 2.69-1.42 4.75-3.668l-3.167 1.54c-.057-.556-.112-.93-.167-1.125-.025 0-.113-.54-.25-1.626-.197.613-.374.93-.542.958v.498c.168.086.277.127.334.127v.25c-1.22.14-2.153.222-2.79.25v.416c.136 0 .234.04.292.124-.115.083-.167.252-.167.498.584-.053.877.113.877.5a.563.563 0 0 1-.045.252h-1.667v.334c.443.165.902.39 1.377.668a1.62 1.62 0 0 1-.084.33h-.542l.083.377c.303.112.473.205.498.29v.916h-.58v.333l.54.208c-.082.084-.124.157-.124.21h-.416v.334a.784.784 0 0 1 .46.207v.333h-.46c.192.363.347.558.46.585v.333c-.2.335-.31.57-.335.71l-.582-.586c-.392 0-.587.182-.587.543 0 .168.418.527 1.253 1.083.028.112.04.306.04.583 0 1.39-.307 2.182-.914 2.373.024.252.013.46-.046.625h-1.664v-1.665c.164-.053.262-.178.29-.374 0-.775-.206-1.21-.624-1.29-.223.138-.416.557-.584 1.248.137.25.262.446.377.585-.032.057-.032.264 0 .625 0 .582-.126.873-.378.873h-.372c-.144 0-.27-.33-.378-.997v-4.418l-.29 4.334c-.138.75-.208 1.097-.208 1.04-.08.03-.29.014-.623-.042.026 0-.057-.235-.252-.708a22.12 22.12 0 0 0-1.083-.667v-3.958c-.11.03-.207.057-.29.086v4.372c.11 0-.114.03-.667.086-.472 0-.82-.068-1.04-.21v-6.29c0-.11-.07-.152-.208-.122l-.084 6.33c-.365.196-.625.32-.792.374-.026.5-.058.79-.084.873h-.75c-.03.086-.056.143-.085.168.2.5.35.865.46 1.087v5.498a.35.35 0 0 1-.25.205c-.056-1.246-.877-2.482-2.458-3.706-2.748-2.11-4.443-3.51-5.08-4.206-.03 0-.207-.027-.54-.086-.142.06-.226.115-.25.168v.375c0 .25.024.633.082 1.146.054.516.082.867.082 1.064.193-.665.306-1.177.332-1.542 3.69 4.25 5.54 6.666 5.54 7.248v2.417c.085.082.126.138.126.165a.832.832 0 0 1-.542.21h-2v-1.794h-1.083c-.082.39-.125.668-.125.833a.944.944 0 0 0-.417-.08c-.083 0-.345.223-.788.667l-.088-.126-.082-5.788c0-.11-.082-.25-.247-.416-.083.056-.156.11-.208.165a12.952 12.952 0 0 1-.418-.06c-.083-.015-.125-.273-.125-.772a1.96 1.96 0 0 0-.334.165c.026.225-.03.39-.166.503-.084-.305-.125-.834-.125-1.584-.03-.86-.03-1.458 0-1.792l-.126.042c-.138-.055-.208-.11-.208-.168-.055.03-.084.057-.084.086 0 .027-.025.057-.08.082-.057-.025-.086-.055-.086-.082 0-.03-.026-.055-.083-.086-.14.057-.206.113-.206.168l-.212-.168c-.416.31-.764.533-1.042.668l-.165-.123c-.28.277-.706.568-1.29.873-.058 0-.084-.005-.084-.022 0-.01-.03-.03-.083-.06a.958.958 0 0 0-.29.227.882.882 0 0 1-.29.23h-.42c-.027.197-.124.32-.29.373-.056 0-.086-.01-.086-.04 0-.026-.04-.042-.124-.042-.14 0-.32.182-.54.54a.705.705 0 0 0-.25-.164 6.47 6.47 0 0 0-.543.457c-.057-.026-.074-.045-.062-.06.013-.015-.008-.022-.062-.022-.168.03-.363.21-.584.542l-.126-.165c-.304.277-.737.568-1.29.873l-.21-.04c-.223.026-.388.18-.5.456a.39.39 0 0 1-.123-.082c-1.14.334-1.834.724-2.083 1.167-.055-.058-.098-.088-.125-.088-.61.307-1.153.615-1.624.92-.058 0-.075-.014-.062-.043.013-.028-.008-.044-.062-.044-.278.14-.49.293-.624.46-.057-.027-.078-.05-.063-.063.01-.013-.013-.02-.065-.02-.806.223-1.695.567-2.664 1.04v1.207c.193-.334.303-.553.335-.665 1.385.222 2.094.33 2.123.33-.084.78-.14 1.333-.166 1.667-.086-.026-.334-.026-.75 0-1.527 0-2.625-.357-3.293-1.08l-.042-5.958c-.028-.137.015-.24.127-.313.11-.065.166-.226.166-.477a1.342 1.342 0 0 0-.208-.46c-.03-.025-.07-.066-.125-.122l-.166-11.12v5.04c0 .415-.07.957-.207 1.622-.335.446-.5.655-.5.624.11.28.21.502.29.668v10.08h-.455c-.477-.026-1.7-.18-3.666-.46-.2-.218-.406-.36-.625-.416-.086 0-.264.017-.542.042h-1.583c-.583 0-1.064-.03-1.438-.104-.374-.07-.576-.103-.604-.103-.086.028-.12.055-.104.082.01.03-.007.056-.06.082-1.168-.164-1.835-.248-2-.248-.67-.197-1.043-.29-1.125-.29-.142.054-.208.11-.208.164l-.168-.165c-.082.054-.14.08-.166.08-.14-.056-.224-.124-.25-.208-.53-.082-.82-.14-.873-.167v-3.872a2.74 2.74 0 0 1-.334-.086V65.2c-.53-.057-.862-.043-1 .04.194.614.277.988.25 1.124.553.948.986 1.64 1.292 2.083"/><path clip-rule="evenodd" fill="none" stroke="#4B5D74" stroke-miterlimit="10" d="M35.38 94.707l310.907 59.396 147.39 106.325L646.856 94.75M685.265 148L759 267.76l-36.867 174.376-154.878 20.64"/><path fill-rule="evenodd" clip-rule="evenodd" fill="#16335A" d="M464.973 114.547H441.03v-3.997h-4.124v-1.873h-5.444a10.755 10.755 0 0 1-.64-.468c-.85.88-1.56 1.503-2.124 1.87a214.2 214.2 0 0 1-.342-4.72h-3.062c-.484-.17-.694-.255-.64-.255-.17 0-.508.127-1.02.38a37.162 37.162 0 0 0-.17 1.83c-.256 1.958-.412 3.034-.47 3.234h-1.316l-.765-6.51c-.287-.055-.867-.07-1.744-.043a2.78 2.78 0 0 1-.683-.084c0-.51.057-.822.17-.936.257-.055.427-.126.512-.214a53.55 53.55 0 0 0-1.406-.083c-.114.083-.168.17-.168.252.392.102.58.287.634.535-.082 0-.28.287-.59.87.084.145.195.228.337.257.567.084.853.14.853.168v9.91h-39.637l-.086-.127v-.467c.395-.057.623-.098.68-.13v-1.872c6.805-5.893 10.307-8.844 10.506-8.844.197 0 .338.027.424.084 0 .17-.035.467-.107.895-.07.423-.093.75-.066.978.117.057.288.072.514.043v-.636l-.255-2.043c-.085-.198-.524-.296-1.318-.296-.17 0-.737.412-1.7 1.232l-1.574 1.36c-1.02.37-1.815.61-2.38.726-3.602 1.05-6.084 1.758-7.444 2.123h-.423l-.086 3.36c-.06.2-.1.342-.127.427 0 1.56.026 2.41.085 2.553.253 0 .437.013.55.043v.594h-.89c-.456 0-.683-.708-.683-2.125V98.472h-1.147v1.147h-3.7c-.227-1.22-.342-2.94-.342-5.15h3.064v.302c.054-.172.086-.428.086-.766-.086.168-.187.283-.3.338h-.595c-.682 0-1.433-.325-2.256-.98V90.09h-.977v-.38c.11-.2.17-.354.17-.468h.597a3.69 3.69 0 0 1 .085-.553c-.032-.173-.085-.302-.17-.383h-1.787v.935c.538-.283.807-.057.807.68 0 .087-.014.145-.042.168-1.587-.08-2.538.203-2.85.852h1.872v2.51c-.938.596-1.717.893-2.343.893-.42 0-.677-.04-.762-.125l-.085.553a.857.857 0 0 0 .213-.3h2.977v1.15c0 1.444-.187 2.778-.554 3.997h-19.437a154.91 154.91 0 0 1-.423-2.85c-.796 0-1.235-.043-1.32-.127-.057-.71.013-1.348.212-1.914h1.236v-.343h-3.106v.297c.682-.084 1.12.088 1.32.51.14.287.182.768.128 1.45-.117.083-.285.126-.51.126-.286 0-.456-.03-.513-.088v-.338l.383-.383-1.02.085.423.215v.467a.384.384 0 0 0-.213.257c.652.283 1.135.54 1.448.763v3.87h-4.72c0-.17-.032-.298-.085-.382-.17.03-.34-.07-.512-.3h-.3c-.083.116-.14.23-.168.342.03.257.154.382.383.382l.126-.064c.028-.01.07-.02.13-.02.112.028.154.073.128.128.082.738.18 1.318.298 1.743a.62.62 0 0 0-.34.085v7.612a.905.905 0 0 0-.3.256c-.084-.227-.127-.58-.127-1.063 0-.54.043-.92.128-1.147-.113 0-.178-.094-.19-.278a1.282 1.282 0 0 0-.106-.444h-.597c-.083.31-.154.55-.21.723 0 .454-.017 1.417-.043 2.89h-5.572c-1.05-.594-1.66-.89-1.827-.89h-.895c.085.34.085.637 0 .89h-2.383c-.34-.793-.51-1.657-.51-2.592v-5.316h-.297v7.87a7.652 7.652 0 0 1-1.616 0v.296l5.91 9.906c-.14.033-.1.172.13.43h130.31c.426-1.078.75-1.9.977-2.468h1.915l.512-4.042c-.145-.172-.3-.266-.47-.3.002-.594-.028-1.032-.084-1.317"/><path fill-rule="evenodd" clip-rule="evenodd" fill="#4B5D74" d="M341 148h11v12h-11zM679 142h11v12h-11zM562 457h11v12h-11zM394 182h11v10h-11zM504 182h18v17h-18zM749 262h16v15h-16z"/></svg>