<svg xmlns="http://www.w3.org/2000/svg" width="430" height="100" viewBox="0 0 430 100"><g fill="none" stroke="#FFF" stroke-miterlimit="10"><g opacity=".7" stroke-width="2" stroke-linecap="round" stroke-linejoin="round"><path d="M148.025 28s-4.758-18.09-19.166-16.44c-27.17 3.107-10.87 32.47 2.282 53.387C138 76 135.195 88.203 117.932 93.63 88.108 103 79.428 65.51 96.69 67.666M248.09 51.64c5.465 13.777-16.054 45.126-25.805 40.876-9.75-4.25 9.074-40.433 9.074-40.433-3.335.75-8.683 8.355-8.683 8.355s-24.653 35.23-34.653 32.214c-10.04-3.024 2.307-27.223 6.834-36.902C218.358 5.5 228.82 3.497 228.82 3.497s7.034-2.414 3.468 10.753c-5.066 18.706-36.594 44.703-50.223 57.928-13.63 13.223-18.29 8.24-18.29 8.24.755-.96 1.74-1.89 6.33-9.668 13.022-22.063-6.415-16.923-13.5-11.75-10.196 7.447-24.132 29.646-13.616 32.14 8.534 2.026 17.116-6.89 17.116-6.89M314.11 75c-19.75 34.5-29.86 16-22.3 2.982 13.84-24.267 30.3-21.857 30.3-21.857-12.918-.148-25.567 9.916-32.25 17.875s-16.376 18.906-27.75 17.375c-17.767-2.393-1.75-32.542 12.874-37.75 4.884-1.738 13.225-1.143 11.125 7-2.418 9.375-23.626 11.5-23.626 11.5"/><path d="M370.11 9.5s-13.302-10.49-27.065 9.567c-13.765 20.057-24.31 43.558-27.186 51.558s-6.61 24.51-.11 22.283C322.11 90 332.984 76.5 334.484 73.25"/></g><path d="M1 61.5h62M367 61.5h62"/></g></svg>