<svg xmlns="http://www.w3.org/2000/svg" width="1920" height="1080" viewBox="0 0 1920 1080"><path fill="#17355D" d="M718.9 1052.702c18.357 7.884 29.826 18.492 37.898 30.298h75.633c-2.744-8.1-3.895-17.51-1.84-28.477 3.523-18.8 8.35-44.54 3.547-52.23-8.27-13.23-11.31-21.14-20.13-43.79-2.663-6.848-9.618-17.595-17.51-24.165-16.44-14.475-23.48 7.662-40.77-10.52-12.496-13.144-27.785-7.147-42.745-1.322-18.04 7.022-27.998 6.382-36.178 21.762-2.93 5.512-6.256 11.766-10.67 18.73-6.084 9.594-8.802 31.913-1.855 54.368 5.308 17.175 24.39 22.36 54.62 35.346z"/><path fill="#163155" d="M684.715 515.016c-5.106-3.683-83.698 30.983-51.956-3.09 5.977-6.416 14.277-10.77 21.347-15.868 6.928-4.995 21.51-13.193 23.49-22.392 2.415-11.216 11.01-18.197 17.03-27.356 9.083-13.82.156-27.327-7.403-39.567-6.525-10.567-17.14-24.24-12.667-37.482 5.165-15.3 14.695-27.984 29.546-34.447 12.755-5.55 16.325-8.865 21.382 5.284 4.12 11.528 13.978 15.627 25.773 16.678 10.025.894 29.75-12.828 36.255-1.963 6.633 11.08 8.746 32.62 5.58 44.836-2.01 7.735-4.175 15.472-5.592 23.345-.983 5.466-.314 12.047-3.03 16.99-8.006 14.582-23.806 22.767-33.336 35.987-5.307 7.36 3.75 24.542 6.994 31.17 5.314 10.86 16.333 26.32-4.837 23.474-5.276-.71-12.603-2.427-16.517-6.388-6.083-6.156-4.95-16.42-14-21.055-14.108-7.226-27.073 19.78-38.058 11.846-3.48-2.51 6.88 4.97 0 0zM93.93 661.078c21.952-8.26 42.674 10.806 58.897 23.144 19.53 14.853 35.885 24.09 61.54 22.542 22.867-1.38 57.783-14.104 68.96 14.062 4.596 11.587-.75 23.96-6.122 34.45-6.638 12.967-23.637 14.932-31.6 26.424-3.757 5.425-2.194 13.82-6.455 18.538-6.667 7.38-25.85-.863-33.747-1.58-14.655-1.326-29.43.583-43.326-5.552-7.188-3.173-12.93-8.868-19.332-13.315-4.455-3.094-11.957-5.163-15.49-9.09-9.07-10.086-2.198-27.237-8.995-38.38-6.378-10.458-19.548-12.874-30.286-16.353-11.207-3.63-6.8-14.24-3.273-22.926 3.968-9.765-2.2-27.653 9.23-31.962 4.93-1.854-9.75 3.676 0 0zM763.144 757.295c11.537-6.502 23 1.8 33.247 6.752 15.034 7.233 25.21 12.58 42.63 8.154 12.906-3.292 31.512-12.236 38.923 4.42 7.502 16.865-10.91 24.51-17.02 36.134-1.888 3.59-.19 8.01-2.115 11.338-2.85 4.925-14.843 2-19.042 2.216-13.59.694-39.89 3.38-49.094-10.566-3.81-5.772-2.732-13.646-6.82-19.165-4.968-6.706-13.967-5.934-21.16-7.65-5.094-1.215-4.1-29.065.452-31.632 2.66-1.5-5.264 2.968 0 0z"/><path fill="#1A2840" d="M710.073 652.458c1.412 18.54-31.557 19.567-26.63 43.08.885 4.23 11.688 21.508 2.042 20.082-8.666-1.28-16.086-6.335-22.98-11.312-3.515-2.54-3.993-7.38-5.238-11.18-1.284-3.915-4.744-3.45-6.696-6.25-3.957-5.677 10.79-25.848 14.976-29.063 6.08-4.67 7.162-5.905 15.31-4.145 5.21 1.13 8.473-3.268 10.908-7.088 2.87-4.507 17.938 1.023 18.31 5.876.135 1.795-.273-3.553 0 0z"/><path fill="#153053" d="M1713.56 587.367c6.61-12.902 25.06-12.71 37.6-13.56 20.648-1.397 35.396-11.646 45-30.345 2.043-3.975 5.695-16.94 11.652-16.843 7.916.136 14.984 8.95 18.77 15.025 4.65 7.466 7.18 16.24 4.884 24.79-2.292 8.537-3.726 13.393.854 21.023 3.414 5.69-3.492 9.272-7.755 11.673-8.552 4.814-14.78 12.787-23.474 17.303-7.906 4.106-13.84 3.123-19.193 11.3-2.216 3.384-6.857 13.13-11.077 7.024-9.17-13.273-11.542-32.906-32.562-23.304-7.778 3.554-12.078 5.643-15.354-4.53-2.025-6.233-12.608-13.184-9.343-19.556 1.432-2.795-2.832 5.53 0 0z"/><path fill="#163155" d="M1796.58 30.21c1.073-5.34.232-11.256 1.713-16.446 1.94-6.805 12.282-10.786 17.73-13.764h-196.377c-11.333 0-82.226 32.813-45.938 41.23 29.938 6.945 61.39-.34 91.665 1.475 5.22.313 7.93 4.277 13.4 4.26 12.3-.04 24.727-6.485 35.748-11.283 9.13-3.975 20.26-8.95 29.19-1.353 10.626 9.038 9.426 28.4 10.043 40.89.614 12.444 8.336 18.023 18.94 24.12 4.538 2.61 30.976 14.414 32.592 3.314 3.47-23.823-13.583-48.158-8.705-72.444 3.754-18.683-3.85 19.176 0 0zM801.16 0c31.063 4.06 21.086 48.777 48.812 60.082 14.9 6.075 33.83 5.08 49.573 8.297 15.91 3.25 29.842 10.99 46.35 7.424 16.06-3.47 30.978-10.92 47.008-14.617 10.742-2.477 21.72-3.328 32.316-6.525 27.48-8.29 44.24-28.36 54.096-54.662H801.16z"/><path fill="#153156" d="M1249.965 1059.73a73.855 73.855 0 0 1 17.64 10.72c1.765 1.446 9.51 11.056 11.15 11.056h134.257c-3.133-11.088-11.712-19.248-18.14-28.432-8.3-11.855-7.33-21.68-4.903-35.384 2.37-13.392 5.13-27.81 2.586-41.384-2.088-11.133-9.778-21.42-14.213-31.795-5.268-12.323-10-24.87-14.892-37.344-4.444-11.333-7.375-23.676-21.625-24.075-12.203-.34-23.596 1.362-33.84-6.98-8.37-6.813-18.958-8.528-29.467-7.46-23.496 2.39-51.638 12.436-65.05 33.014-9.79 15.016-20.74 32.386-23.535 50.36-6.977 44.892 18.52 89.878 60.032 107.706 12.033 5.168-64.594-27.74 0 0z"/><path fill="#1A2840" d="M867.434 478.59c1.102 1.403-.032.22 0 0 .006.006-.03.205 0 0zM1350.22 489.855zM1349.41 490.36zM448.57 231.76c.008.83-.32 1.228-.983 1.197 2.122.38.09-2.978-.106-2.583l1.09 1.385c.113.254-.232-.52 0 0zM419.9 291.648zM411.573 247.606c-.032-.244-.032-.248 0 0-.005-.047-.005-.048 0 0zM411.5 247.377zM411.38 247.3c-.096-.05-.208-.1-.29-.15.082.05.194.1.29.15zM410.05 247.88c.875-.992-1.373 1.565 0 0 .085-.095-.196.224 0 0zM623.643 305.107c1.266-1.9 1.613.208 0 0 0 0 .492.064 0 0zM1749.163 931.905c-.474-7.522-7.952-11.105-9.91-17.666-.757-2.538.633-4.963-2.22-6.332-3.543-1.683-3.714-1.875-4.722-5.932-1.91-7.696-5.44-10.504-11.204-15.25-5.336-4.393-6.465-13.29-7.798-20.06-.88-4.458 1.375-13.576-5.896-13.576-4.247 0-4.86-12.948-5.99-15.89-3.724-9.682-5.436 2.944-6.542 7.354-2.07 8.238-2.278 16.284-5.332 24.377-3.52 9.33-8.483 5.292-14.188 1.236-6.196-4.407-13.805-6.688-17.972-13.67-2.938-4.913 3.906-10.067 5.897-12.914 4.536-6.483-9.553-5.105-14.34-6.53-7.865-2.342-23.82 4.498-26.465 14.162-2.377 8.688-.908 2.017-8.23 6.506-1.6.962-4.105-9.704-11.135-5.916-3.255 1.76-8.438 5.608-10.215 8.94-.897 1.687.317 5.336-2.908 5.458-4.986.16-.026 3.587-3.735 5.685-.893.505-9.176-8.597-8.352 1.102.807 9.187-10.53 14.17-17.547 15.426-7.11 1.304-33.914 7.667-34.805 16.81-.365 3.896-2.23 6.566-2.937 10.29-.832 4.385 1.69 7.397 2.36 11.466.56 3.32-3.622 4.19-2.927 6.98 1.35 5.422 2.596 11.647 3.307 17.187 1.043 8.124 2.563 18.197-.484 25.98-2.216 5.66-7.763 8.597.868 13.398 6.417 3.57 11.992-.396 17.695-3.15 7.975-3.853 17.195.234 24.335-3.13 2.81-1.323 3.82-4.78 6.63-6.314 2.578-1.41 4.7-1.43 7.116-3.208 4.137-3.044 15.404-3.485 20.71-4.66 7.167-1.585 12.504-1.124 18.612 2.227 2.572 1.41 5.85 1.748 8.54 3.11 3.374 1.692 2.33 5.435 4.467 8.022 2.54 3.093.17 8.418 2.838 10.98.953.918 11.11-9.897 12.268-11.035 9.198-9.05-2.857 16.08-3.86 15.683 3.838 1.557 3.242-6.308 6.325-5.727 2.444.458 1.51 7.332 1.51 8.652 1.83.553 2.558.277 2.96 2.36 1.347 6.856-2.104 16.773 5.047 21.346 2.358 1.51 9.408 6.38 11.807 6.64 4.524.487 5.908-6.266 9.453-6.227 4.014.045 2.258 6.153 4.438 7.648 3.74 2.564 8.59-3.757 11.303-5.258 4.017-2.226 9.577-.16 13.047-3.023 3.223-2.66 3.287-10.297 4.813-14.042 3.03-7.432 10.28-19.323 15.854-25.078 13.76-14.208 18.714-34.974 17.516-54.44-.06-.96.09 1.463 0 0zM511.323 133.64c4.125-1.45 9.815 5.98 12.938 7.655-.557-.298 4.608-2.913 5.547-2.887 4.288.12 1.863 2.118 5.083-.566 3.564 4.99-.21 1.958 4.328 1.407 1.674-.204 4.006 5.483 4.542 6.402 1.48 2.546 6.98-2.11 8.984-2.217 8.607-.453 1.1-5.068.783-7.232-.496-3.374-7.927-7.857-8.508-6.783-.905 1.812 13.648.58 14.775.04 3.055-1.47 4.5-7.496 7-7.84 2.586.418 5.176.372 7.77-.14 1.47-.328-3.228-3.168-.928-3.917 1.534-.497 5.936 2.184 6.09-1.19.16-3.657 4.258-2.358 4.97-7.03-1.392-1.608-7.664-5.21-8.006-6.09-1.096-2.82 3.816-2.21 3.98-2.46-.74-.406-.772-.482-1.85-.09.25-3.392 1.185-3.152 3.405-3.83.04-.045-.104.015.284-.023-.73-.816 10.946.98 11.825.765 2.697-.658-.704-4.622-.058-4.876 3.228-1.344 5.15 4.638 9.213 3.955 4.672-.778 3.216-4.64 1.974-6.742 2.435-1.267 7.684-2.61 9.828-2.896 5.42-.72 11.313-7.3 17.48-8.447 1.25-.23 10.587-5.383 8.21-6.506-2.475-1.192-16.736 4.705-17.637.497-.163-.742 8.722-1.27 9.448-1.445 9.192-2.217-1.024-2.338 1.054-5.194.77-1.076 15.963 1.07 19.103-.583 3.065-1.612 8.523-3.463 10.25-6.786 2.97-5.72-.746-4.37-3.3-6.536-.737-.625.347-6.287.348-6.303.06-4.328-10.553-.774-10.968-.626-3.484 1.242 4.165-5.092-.845-7.204-3.663-1.543-11.514-9.1-16.173-6.517-6.638 3.73-12.01-10.763-15.646 1.83-1.607 5.59-8.976-10.012-11.347-4.563-.48 1.107 2.234 6.983-.454 6.143-3.33-1.038-2.294-4.66-4.863-5.455-1.423-.443-.488 6.576-1.872 7.468-1.106.705-1.04-5.702-2.906-5.107.135-.044-2.212 4.502-2.333 4.7-4.24 6.92-6.453.212-9.413-3.47-3.274-4.06-6.417 12.537-4.23 10.268-2.158 2.24-4.73-2.733-8.02-1.007-6.277-7.816-.802.423-6.765-.908-1.93-.43-10.702-5.242-10.882 1.684-.052 2.018 3.966-.776 4.85 1.083.68 1.408-1.84 2.235-1.813 3.655a9.463 9.463 0 0 1 5.596-.196c-.894.883-6.52 5.782-7.748 5.85-.518.025 12.327 3.23 14.64 3.688-2.25 4.57 1.504 1.734 4.25 4.372-1.77.017-17.305 1.85-11.885 6.745 3.27 2.938 13.977-2.183 14.58 1.514-6.732 3.644 6.57 3.668 9.474 1.772 1.062-.693 4.523-5.547 6.513-3.8.547 1.132.36 2.203-.555 3.216 2.895.206 4.485 1.44 4.77 3.702.005-.014-13.88 2.912-15.49 2.853-2.02-.074-8.702-1.86-10.36-.492-1.176.972-.625 9.452-2.6 8.884-2.086-.604-6.907-21.118-13.625-10-1.284 2.125-.785 8.678-.788 10.866-.005 3.792-3.186 9.025-2.71 12.352 1.23.32 10.83.717 8.67 2.88 2.336-1.715-7.65-2.605-8.677-2.87-2.67 3.074-9.435-2.002-12.12 2.11-1.026 1.565-7.54 5.978-5.633 8.42 2.46 3.15 7.445.623 9.82-.853-.667 2.653-1.206 4.965-3.95 6.198-.317 5.465 1.168 4.2 2.71 8.118.924 2.467-2.168 2.083-3.946 1.572-5.906-1.698-2.888-6.016-6.202-9.608-5.396-5.85-3.06 11.23-5.65 11.068-5.04-.302-7.316-.376-11.824 1.873-.998.49-4.264 6.29-2.505 5.68 1.637-.577-.12.04 0 0z"/><path fill="#1A2840" d="M578.358 113.59c-.667.4 1.936-1.1 0 0-.034.02-.04.02 0 0zM570.97 56.705c.66-1.196-1.686.35-1.615.26-.355.307 2.395-1.632 1.614-.26.068-.126.07-.126 0 0zM575.635 61.615c2.017.104-2.077-.164-1.813-.03l1.813.03c.217.01-.604-.036 0 0zM599.45 63.662c-.213.333-.95.852 0 0 0 0-.205.184 0 0zM598.193 64.472c0 .07-1.488.017-2.036.193a7.305 7.305 0 0 1 2.036-.193s-.585.032 0 0zM596.023 64.714c-.008.003-.012.008-.02.012.008-.004.012-.01.02-.012zM596.057 65.454c-1.372-1.22.803.704 0 0-.292-.26.066.06 0 0zM543.604 106.864c1.164-.134-1.095.145 0 0 .365-.042-.11.014 0 0zM562.282 292.036c.37 2.89 2.07 4.852 4.904 5.577 1.625-7.173 11.41-9.095 12.723-15.127.035-.167 3.63-3.657-.51-3.207-6.93.744-3.98-1.163-7.793-4.394-3.883-3.29-.604-6.018-7.324-7.123-1.34-4.55-5.674-7.835-8.674-11.335-1.563-1.83 2.735-2.84 3.284-3.944 2.68-5.386 3.554.23 6.494-3.045 1.31-1.444-8.872-4.812-3.93-6.02 5.628-1.378 4.667-5.967.345-3.18-4.986 3.212-3.1-6.156-7.402.3-1.976-4.552 11.075-4.783 7.8-8.838-1.896-2.35-3.637-.604-6.118-.55-5.23.116-1.145-3.52-4.392-3.33-9.948.575 1.585-4.436 2.078-5.397 2.688-5.247-3.928-4.076-5.92-2.104-2.208 2.183-3.078-1.007-5.02-.34-.006-.043.203 2.5.925 1.538-.516-.506-4.76-4.184-4.763-4.094.11-4.037 6.267-5.696 1.598-8.017-1.07-.59-1.207-1.35-.413-2.284 2.896-3.3-1.334-5.198-4.167-6.933-7.76-4.765-4.3 3.98-5.055 4.688-1.216 1.152-6.643-.474-7.442-1.627-2.572-3.68-10.588 5.952-7.148-2.393 2.17-5.26 11.935-23.206-1.656-19.122-4.956 1.49-17.383 5.63-15.967 12.412a18.47 18.47 0 0 0 2.112 1.848c-1.172 3.434-4.445 1.945-6.04 4.557-2.06 3.37 3.87 12.29-3.252 14.14-2.062.564.014-6.176-.167-6.552-2.598-5.476-.88-8.176.938-13.372 2.85-8.132 6.444-11.84 14.02-16.813-4.608-11.066-20.562 6.058-23.994 9.296-3.697 3.488-7.36 8.797-9.285 13.54-2.353 5.803-.746 5.48 4.71 7.936 10.786 4.885-6.704 3.82-5.558 3.19-4.343 2.38.9 9.035 4.454 8.93 5.896-.178 2.676 4.182 6.974 4.657 5.176.58 10.996 6.296 16.252 5.092-.104-.104-2.19-2.043-.806-2.362-2.387.57 9.194 3.15 9.728 3.488 8.124 5.155 2.526-5.993 5.937-8.504 1.985-1.467 2.004 3.026 2.133 3.3 2.283 4.847 2.678 2.212 3.204 7.873-.096-1.02 3.422 8.24 2.513 6.272 1.898 4.11-.226 4.44.31 6.826 8.997-.446 11.993 11.194 11.224 19.426-.464 4.997-9.396 9.843-13.058 12.574-7.093 5.323 4.968 6.057-6.05 9.475-5.417 1.685-7.92-1.252-12.843-1.704-3.04 2.61-10.085 7.747-2.37 10.343 1.168.394 11.39-.193 12.103-.658 5.43-3.52 8.61 6.543 11.124 9.04 3.288 3.258-1.593 4.405.898 7.035 4.34 4.583 10.52 8.7 15.935 11.77 14.51 8.22-4.26-13.853-1.974-16.333 4.306-4.792 15.77 21.383 20.24 2.798-2.832-8.817-11.855-18.576-10.936-28.094 1.595.088 2.48 2.752 3.926 2.373-.04.01 3.118-9.183 4.933-4.77 1.004 2.332 2.672 4 5.002 5.007 2.854 1.316.87 3.605 1.207 6.266.38 2.98-.218-1.726 0 0zm-35.763 4.476c.692-1.14 2.17-4.714 3.435-5.303-2.518 1.178-5.382 6.675-1.14 7.274-.643-.09-3.24-.425-2.296-1.972.986-1.62-.327.536 0 0zm2.296 1.972c.013 0 .02.002.012 0 .01.003-.002 0-.012 0zm-.082-.014c.768 0 3.124.31 4.024-.138-.9.45-3.258.138-4.024.138zm17.2-16.078c.05-1.082-.086 2.338 0 0 .002-.062-.023.58 0 0zm4.908-49.29c-2.435.054-.613-2.515.54-2.742-1.21.265-1.77.972-1.677 2.12.37.653 2.395.594 1.137.622-.394.008.203-.005 0 0zm3.994 7.704c.813.18.973.56 0 0 .005 0 .05.03 0 0zM400.155 214.205c1.77 1.25 3.475.75 5.118-1.5 1.777 1.73 3.763 2.457 5.96 2.182 4.607-2.208-2.52-8.902-3.154-11.34-1.84-7.03-6.51-6.724-2.13-14.075 2.87-4.832 3.89-13.152 5.74-18.72 1.19-3.588-1.268-11.28-6.406-9.98-3.494.882-7.203 14.557-7.824 17.673-1.11 5.602-8.503 9.503-5.884 1.274 1.44-4.536 5.253-11.56 1.688-15.86-.445 1.148-1.375 6.22-3.343 5.965-.812-.104-8.883-.676-9.09-1.737-.47-2.244 5.687-2.114 4.382-4.992-1.462-3.2-4.793-6.08-7.635-2.503-1.682 2.12-6.728.606-4.876-.847.32-.254 6.59-7.967 3.008-7.56-10.317 1.244-17.216 5.184-24.894 11.028-1.334 1.016-8.3 4.51-4.38 6.61.608.326 11.897 6.6 11.707 5.622.663 3.49-15.744-.116-16.008 5.302-.402 8.864 12.767 4.575 17.458 7.59 3.63 2.33 12.563 11.732 2.226 9.227-6.792-1.646-12.355-5.613-19.72-4.587-2.998.42-3.7 3.97-3.574 6.392.305 5.863 4.098 6.273 8.73 7.868 6.52 2.263-5.645 11.776 7.634 12.38 7.322.333 14.162-.293 21.332-2.737.646-.22 18.144-5.662 15.692-.394-.863 1.908-5.66-.95-7.424-.01-2.27 1.3 12.812 8.04 15.742 7.403 2.317-.5 3.515-3.12 1.394-4.828-.716-.57-4.983-6.84-1.467-4.847.41.234-.503-.285 0 0zm-39.174-2.5c.013.08.02.162.037.24-.016-.078-.026-.16-.036-.24zm.04.252c.085.43.234.827.49 1.158-.256-.33-.404-.73-.49-1.158zm1.867 1.943zm-.85-3.775c-.718-.684-1.092-.378-1.12.918 2.33.884-1.868-6.586 2.816 2.26l-1.695-3.178c-.098-.18.59 1.043 0 0zm12.084-2.114c.47.368.47.368 0 0 .078.06.078.06 0 0zm.6-.995c.294.196.52.497.774.76-.256-.265-.483-.566-.774-.76zm1.977-2.587c.168.51.168.51 0 0zm3.376 4.676c-.724-.866 1.917 2.14 0 0-.03-.037.24.265 0 0zm1.448-4.764c.526-.463 1.064-.382 1.614.244-1.297-.243-1.688-.082-1.613-.244.07-.153-.088.194 0 0zm1.03.75c-.143.024-.292.032-.437.052.145-.02.294-.03.438-.052zm1.77-9.564c.432.215.052.027 0 0zm-.026.44c.41-.18.88-.385 0 0zm6.328 15.154c-3.306.695 3.21-.726 0 0-.418.088.316-.07 0 0zm5.094-17.265c-.297 1.417 1.19-4.29-.608-2.49.57-1.597.636 2.357.608 2.49-.02.1.19-.866 0 0zM1742.254 826.493c-.122-.014-.322.166 0 0-.045-.006 0 0 0 0zM1728.168 805.534c6.063-4.23-2.793-5.28-6.263-7.248-4.64-2.634-5.573-8.613-12.258-10.967-7.02-2.46-13.96-5.14-20.97-7.627-4.48-1.592-8.97-3.16-13.444-4.76-4.08-1.46-3.29 2.17-6.366 3.252-2.198.773-7.807 8.9-10.337 6.867-2.09-1.673-5.93-3.762-6.038-6.902-.067-1.95.954-7.11-1.658-8.155-2.146-.86-17.707-.85-13.48 2.795 1.703 1.466 3.404 4.796 5.98 4.89 1.35.04 7.024-.9 7.545 1.098 1.13 4.205-8.303.02-5.662 8.96.698 2.39 2.905-.957 3.08-1.185 2.093-2.756 6.056 1.45 7.66 2.5 5.446 3.562 12.215 3.772 17.842 7.228 5.194 3.217 3.817 13.193 7.816 16.103 6.554 4.764 11.997 4.956 19.438 7.715 5.14 1.927 1.75-4.3 1.51-4.684 2.65-1.357 3.75-4.404 6.496-5.407 5.558-2.028 13.282 3.378 15.77 8.167 3.84 7.397 9.874 7.393 17.285 8.303-.087-3.978-17.824-18.282-13.947-20.943.2-.14-.914.628 0 0zM1510.913 770.55c3.892 2.772.565 9.544 4.753 11.424 2.937 1.298 9.79 3.594 12.933 2.35 6.25-2.45 8.722 5.544 14.138 3.674 6.784-2.343 4.065-11.484 8.138-15.83 2.325-2.478 3.61-12.373 7.69-12.507 5.953-.187-.867-3.917-1.673-6.097-1.14-3.08-3.63-10.97-1.243-13.928 1.46-1.808 6.552-4.207 7.31-6.425-3.166-3.146-12.93-12.994-15.432-4.162-1.6 5.607-10.29 7.732-13.68 12.103-3.368 4.338-7.472 5.405-11.076 8.982-3.146 3.122-2.81 7.26-8.44 5.84-8.95-2.26-9.48 10.276-3.42 14.58 2.01 1.427-.54-.386 0 0zM1159.33 844.844c-.19-15.417-4.933-3.44-7.91-.9-4.533 3.876-7.853 13.544-15.295 13.29-6.36-.165-12.73 4.913-12.197 11.742.356 4.678 3.612 8.826.82 13.42-2.762 4.527-8.047 9.86-6.27 15.676 1.843 6.046-.554 15.174 8.503 16.483 13.44 1.945 16.03-14.8 19.48-23.725 3.7-9.583 6.256-19.298 9.6-28.908 2.636-7.546 3.378-8.123 3.27-17.078-.034-2.755.035 2.936 0 0zM1096.71 225.207c-9.206 4.22 9.854 8.6 9.474 8.31 2.438 1.86 1.232 3.92 2.896 5.798 1.627 1.834 9.48 2.38 11.824 2.047 9.312-1.328-3.665-7.31-5.93-10.644-2.737-4.03-4.35-9.788-4.57-14.616 0-.032-1.396-10.512-2.145-9.413.97-1.41 2.848.45 3.9-1.057 2.188-3.146-.627-5.405.726-8.024 1.296-2.51 2.22-4.324 1.95-7.13-.475-4.816 5.66-4.982 6.63-9.576 1.466-6.922 11.785-16.65 17.896-19.803 9.116-4.718 3.104-18.31-3.313-13.02-4.97 4.083-6.412 13.784-15.053 13.45-5.09-.182-12.636 9.003-14.126 13.837-.648 2.11-6.437 8.744-4.967 10.265 5.826 6.033-4.794 11.954-3.105 16.755.38 1.124 3.27-1.486 4.704-.538-3.104 3.716-2.688 8.128-5.104 12.09-2.372 3.89 4.66 8.347-1.687 11.267-1.262.58 1.402-.644 0 0z"/><path fill="#1A2840" d="M323.08 166.65c-.558 6.57 6.746-.726 9.168 1.64 4.344 4.245 8.33-8.478 13.12-8.55 3.346-.064 9.59-5.314 13.292-6.6 10.438-3.653 18.223-1.49 15.75-15.156-.326-1.814-2.263-4.122-4.355-3.64-4.37 1.004-1.495 2.15-6.73-3.013-2.88-2.84-16.75-8.28-18.677-1.344-.97 3.476-.297 5.128-3.42 7.603-2.207 1.746-6.917 3.92-7.4 6.898-.563 3.518-6.5 6.223-8.844 8.31-5.225 4.65-1.4 7.577-1.905 13.853-.06.7.278-3.46 0 0zM518.318 104.616c4.145 1.948 4.98-4.913 7.022-4.656.078.01-.547 9.1 2.672 4.02.533-.84 7.468-8.483 6.802-8.92.626.415.02 2.537.092 3.26 2.064-.356 17.087-7.73 14.176-10.62-2.333-2.313-.835-3.442-4.254-4.69-1.443-.522 4.668-5.386 4.827-6.66.61-4.904-5.5-9.786-5.566-13.618-.024-1.337 1.772-23.418-5.46-16.38-1.51 1.512 7.765 3.608-1.636 6.128-7.196 1.93-.484 7.043-7.5 7.52-2.253.154-7.147 1.252-4.46 4.243 3.02 3.358 6.875 8.28-1.058 4.78-3.772-1.666-5.457 6.63-7.114 9.657-2.456 4.473 12.478 5.266 10.763 9.87-1.423 3.837-10.438-3.39-11.004 1.39-.534 4.534-3.92 12.012 1.698 14.676.422.2-1.62-.767 0 0z"/><path fill="#1A2840" d="M548.754 73.408c.18-.526-.055-.235 0 0 .037-.11 0 0 0 0zM1488.534 784.16c-2.98-5.017-12.822-9.48-14.13-14.662-1.028-4.075 2.077-4.443-2.47-6.673-4.122-2.02-6.16-5.273-9.555-8.19-4.09-3.513-29.378-28.588-34.907-22.514-.306.336 25.47 31.812 27.983 36.73 5.134 10.05 8.99 17.702 18.578 24.82 4.927 3.66 6.797 5.076 12.938 3.538 1.916-3.204 1.184-9.39 1.562-13.05-2.014-3.392-.224 2.172 0 0zM842.422 392.73c1.148.902 4.276 7.874 4.273 9.235-.015 7.03.548 1.513 5.33 5.097 2.28 1.708 3.624 8.328 3.24 10.83-.508 3.39-5.072 1.394-5.674 4.652-.466 2.605 1.48 4.58-1.442 6.63-6.53 4.55 16.88 6.977 3.448 8.24-1.59.152-7.103 5.173-3.896 5.604 3.128.41 9.67-1.646 12.987-2.503 2.657-.684 14.955-.564 15.78-3.825a11.917 11.917 0 0 1-.988-4.543c1.247-1.964 4.926-5.622 2.658-8.38-1.136-1.104-2.475-1.47-4.017-1.1-3.79.466-1.765-1.39-3.368-3.69-1.617-2.316-1.854-5.35-3.57-7.536-1.567-1.997-3.845-2.237-4.812-4.816-1.303-3.5-8.83-9.218-8.17-10.635 3.62-7.733 7.43-10.814-3.03-11.2-5.855-.218 7.332-7.555-4.18-6.835-3.128.194-7.132 12.752-4.568 14.774.62.486-.343-.27 0 0zM1614.136 533.217c-10.243 8.175 13 .59 15.966-1.853 3.693-3.047 10.093 17.872 11.326 2.42.37-4.636-1.19-4.29 4.43-3.548 3.756.5 8.378-3.9 10.618-6.422 3.183-3.62 1.188 2.01 3.665 2.38 4.753.715.55-11.85.794-13.47.61-4.082-2.85-7.658-2.127-11.36.83-4.27 4.736-9.02 1.99-13.848-1.56-2.708-7.256-15.344-11.843-8.176-2.042 3.192 2.663 12.938 2.207 16.99-.446 3.975-1.9 10.037-4.283 13.46-3.578 5.14-10.238 3.125-11.094 10.673-.61 5.337-3.156 3.188-7.204 4.178-7.79 1.916-8.78 4.078-14.444 8.577-1.127.9 2.318-1.842 0 0zM412.395 121.27c1.063-2.48-.32-7.832-.38-10.557-.074-3.05-4.563-1.097-4.164-4.88.366-3.543-15.765-1.393-8.895 5.287-1.39.213-7.486.154-7.486 2.446 0 1.515 2.91 1.917 3.88 2.78-2.385 2.452-17.63 1.208-6.963 7.87 6.018 3.758 12.917-.163 19.408 3.866.938.58-22.022 2.456-14.74 7.288 7.735 5.16 19.032-2.383 27.682-1.375 7.858.916 10.648.73 16.76-6.73 7.827-9.573-7.59-2.397-9.358-5.098-2.61-3.982 11.12-23.465-2.837-12.297-2.04 1.632.438 4.32-.25 6.154-1.303 3.46-2.865 1.777-2.636 5.937.3 5.23-11.032 1.657-10.022-.69.757-1.764-.277.64 0 0zM502.963 132.403c-2.153-3.126-1.78-6.742-7.65-3.926-2.084 1.46-1.078 7.372-1.006 9.633.078 2.335-11.625 17.04-5.196 18.085 5.15.83 2.865 4.013 9.003 1.956 2.51-.845.896 3.306 1.35 4.172 1.487 2.837 9.456 2.076 12.04 2.66 2.066 1.18 4.25 1.754 6.55 1.717.974-.302 3.09-3.877 3.94-3.18 2.064 1.684-.237 6.314 4.814 5.63 0 0 10.317-4.847 8.795-4.826-.08-.196-.16-.202-.24-.017.778-2.22 3.727-3.064 4.117-5.382.782-4.644-5.37-7.566-8.69-7.7-9.178-.367-16.294 1.013-24.317-3.325-1.796-.97-9.043-7.414-8.064-9.32.313-.61.73-3.422 1.363-3.664.232.087 6.946 3.28 6.44 1.296a13.102 13.102 0 0 0-3.25-3.81c-.583-.845.957 1.39 0 0zM911.31 136.093c3.81.24 2.853 17.605 10.102 15.994 3.515-.78 1.23-5.466 3.337-7.32 3.756-3.3 1.596 1.472 3.75 2.244l2.853-1.7c6.712 1.62-9.762 11.24-8.98 12.833 1.432 2.927 9.634-3.48 10.77-.382.967 2.628-7.483 5.605-8.466 5.837-.96.227 8.045 11.327 9.274 13.252 1.577 2.446 5.982-14.674 6.357-17.257.137-.964 4.894-20.903 7.438-17.005-1.393-1.122-14.69-14.42-13.813-9.734-.878-3.76-.317-8.295-5.767-8.295-.96 2.257 1.207 15.237.675 15.562-3.688 2.164-3.466-13.998-7.196-9.852-5.944 6.592-3.234-1.11-3.787-2.52-1.49-3.85-15.134 7.828-6.546 8.343.435.027-1.79-.108 0 0zM781.522 328.743c6.163-3.438 28.527-10.73 20.18-20.694-2.75-3.28-1.916-5.503-7.032-6.874-2.64 1.69-5.49 3.2-8.757 2.695-1.04-.145-.69 2.42-1.962 2.508-4.97-6.167-3.413 2.735-8.646-2.32-.075 1.317-3.332 10.034-5.663 5.685-1.362-2.532-.022-5.127-2.067-7.428-1.418-1.594-2.07 1.357-3.73 1.128-7.072-.978-1.906 3.67 1.86 4.792 6.355 1.898-6.577 6.294-6.84 6.508 3.43.95 5.252 1.88 7.146 5.06 1.253 2.13-4.553 3.042-3.163 4.918.86 1.154 16.81 5.068 18.675 4.023 2.968-1.656-1.127.632 0 0z"/><path fill="#1A2840" d="M760.226 306.738c-.705-.08.17.02 0 0zM446.566 172.634c2.054-1.086 15.277-9.806 4.743-9.602-2.422.053-4.187-1.95-6.07-1.95-10.895.022-.355 2.27-5.542 4.337-5.283 2.103 1.322 2.38-1.786 7.79-5.652 9.836-3.528-4.708-9.514-2.394-7.874 3.06 3.258 16.378 3.232 21.415-.045 11.45 5.973.376 5.52.073 6.395 4.29 11.365-5.084 13.875-9.593 1.84-3.374-7.262-8.597-4.46-10.076 1.504-.795-.845.446 0 0zM1871.342 1041.645c-1.174-1.312-3.857 3.008-5.937 1.854-4.557-2.527-4.586-5.113-6.104-9.935-2.208 1.457-2.773.79-5.39.188-.222 4.393-2.024 13.39-5.193 16.695-3.168 3.305-8.93 2.135-3.792 7.423 4.134 4.254 3.732 7.208.056 11.77-1.433 1.778-2.768 9.953 1.81 6.654 4.528-3.284 9.833-10.263 12.165-15.404.268-1.787.714-3.53 1.34-5.23 1.42-1.608 4.776-1.6 5.848-3.303 1.56-2.52 8.55-7.034 5.2-10.712-.118-.132.297.326 0 0zM1620.96 370.28c.78 6.017 6.752 9.267 8.486 14.958 1.9 6.238 4.007 11.868 5.425 18.27.608 2.736 7.608 25.775 9.038 26.092-1.76-.392 4.422-4.274 5.85-4.473-4.37-4.682-14.166-17.185-9.312-24.452 1.84-2.755 5.127-.943 2.895-5.084-2.074-3.844-4.515-7.657-6.757-11.402-4.466-7.456-10.545-15.145-12.025-23.914-.02-.11-2.157-3.973-3.567-2.766-5.462 4.72-.822 6.557-.03 12.77.286 2.212-.376-2.957 0 0zM1429.535 87.995c2.75 2.006 1.44 4.433 5.93 5.76 1.908.565 8.58 5.89 9.934 1.477 1.26-4.072 5.98-6.007 10.75-8.247-.648-1.785-4.328-2.78-5.578-3.77-3.496-2.762-3.746-6.808-5.728-10.474-4.934-9.126-6.317 7.28-5.312 6.41-2.596 2.225-9.42-7.48-12.975-6.042-5.723 2.32.23 12.864 2.978 14.887.32.232-2.94-2.166 0 0zM1214.623 70.928c-4.154 4.957 3.692 12.822 7.683 14.65 3.175 1.456 19.127 4.084 20.297-1.437-.02.1-6.193-12.16-6.593-12.954-.976-1.933-4.475-6.656-7.202-5.013-1.722 1.037.75 3.708-.89 4.96-.936.71-2.944-4.307-3.434-4.824-3.18-3.375-8.015 2.376-9.86 4.618-.29.343 1.71-2.078 0 0zM1571.144 761.664c-2.218.64-8.16 20.246-7.576 22.37.952 3.475 5.258 3.403 3.694 8.37-.95 3.016 2.045 7.772 2.926 4.373 1.138-4.474 1.432-9.08 1.936-13.65.248-2.157 3.995-2.17 4.22.086.79 7.02 1.614 11.834 8.977 6.958-2.312-3.11-5.455-8.77-6.482-12.427 1.29-3.28 8.132-6.632 11.102-8.527-4.257.628-10.478.976-13.623 4.13-3.412 3.444-7.303-6.446-5.23-9.628 2.263-3.46 31.408.996 28.22-6.253-.18-.406-8.083 3.173-9.62 3.078a65.787 65.787 0 0 1-8.657-1.256c-6.155-1.218-4.655.874-9.886 2.377-1.226.353 2.18-.627 0 0zM464.025 181.664c2.983.055 4.925 4 7.925 1.312 4.167-3.732 8.312-7.51 12.06-11.67 3.03-3.335-16.246-12.722-18.35-5.91-1.99 6.21-9.655 10.367-10.31 19.322-.29 4.005-1.296 8.014 4.017 3.823 2.25-1.775 1.722-6.932 4.658-6.876 1.314.024-1.345-.025 0 0zM821.62 411.548c-.568 4.295-.91 5.138 1.546 8.337-.373 2.742-5.51 8.65-2.965 11.14 3.95 3.878 17-3.304 18.367-7.81.788-2.595 2.563-17.263.014-17.835-10.465-2.405-7.95 5.594-16.96 6.168-.214 1.61 1.41-.09 0 0zM378.87 99.504c2.03-1.515 1.233 3.487 2.027 4.025 2.657 1.812 3.818-4.673 7.17-2.738 2.02-2.246 5.548-9.042 8.975-9.057 5.28 0-3.862 8-1.614 9.93 2.524 2.125 20.462-15.16 17.455-18.232 1.398 1.423-8.407-.79-8.002-.766-6.038-.354-9.832 3.665-15.03 6.28-5.23 2.65-11.116 3.492-16.038 6.706-3.223 2.126 2.45 5.787 5.06 3.85.17-.126-2.402 1.783 0 0zM1666.916 448.72c-3.622.963-21.38-8.876-20.607-10.24-2.35 4.053 4.817 13.023 2.106 18.312-4.234 8.26-6.248 5.19-1.68 14.695 1.5-.52 2.606-1.49 3.317-2.907-6.868-4.382-4.85-3.397-.438-6.21 4.91-3.127 7.003 3.387 11.007 2.18 3.042-.915 1.54-6.354 5.464-7.47 6.27-1.82 4.284-4.432.83-8.36-4.01 1.066.704.8 0 0zM939.373 126.937c2.326.076 7.808-2.417 9.23-.41-.322 2.023-1.596 3.442-3.82 4.257 1.61 1.49 10.023 4.818 11.747 4.69 3.583-.263 7.078-4.538 8.63-7.293 8.437-14.968-10.038-6.404-13.728-12.543a39.44 39.44 0 0 1-.86 5.315c-2.938.364-7.963-5.66-10.03-4.916-1.827.657-7.32 10.69-1.17 10.9.965.032-1.14-.04 0 0zM472.362 299.67c.57 3.47 5.27 4.423 7.336 2.008-.695.814-5.014-10.8-6.322-12.53-2.07-2.733-7.694-5.166-9.007-7.613-.363-.677-.83-8.233-3.197-3.038-1.975 4.343-3.82 12.505-6.985 15.955-5.29 5.765.89 1.8.913 7.777.03 7.383 15.33-14.376 17.262-2.56.337 2.058-.213-1.303 0 0zM472.034 86.213c5.37.49 10.313 6.77 7.915 11.962-1.64 3.516 5.816 1.242 6.65-3.754.438-2.63 8.034-9.296 4.06-11.927-1.953-1.29.025-7.77-2.69-6.868-4.9 1.642-2.533-.345-2.995-4.146-.396-3.262-7.6-4.32-8.967-1.645-1.825 3.572 4.317 7.936.027 13.124 1.045-1.267-13.084 2.42-4 3.253 2.587.236-.69-.064 0 0zM1691.18 1054.77c-2.975.477-7.12 1.99-10.01.37-1.253-.698-4.37-3.88-5.94-3.068-2.302 1.188-1.758 18.577-1.26 21.347 3.275 18.268 23.73-19.7 17.21-18.65-2.404.385 1.576-.253 0 0zM1533.008 815.723c2.367 1.058 2.19-3.605-1.68-3.813-3.93-.202-6.02-4.858-9.737-6.212-4.742-1.73-7.11.9-11.842.876-5.95-.03-8.763-4.733-14.778-5.04-14.162-.726-.314 8.687 6 9.31 4.513.445 8.602-.31 12.72 2.234 5.447 3.364 13.46-.01 19.318 2.645.83.37-2.276-1.032 0 0zM451.253 131.453c.395.08 10.81 1.847 10.564 2.486-.8 2.166-4.836 2.956-6.723 3.78-1.92 5.73.51 4.994 5.575 6.442 4.21-3.174 7.028-8.115 10.276-12.17 1.822-2.273 5.43-6.49 4.23-9.585-1.117-2.864-4.403 1.19-4.962-.753-3.27-11.334-7.047 7.463-7.705 7.833-1.608.918-2.485-6.758-3.575-7.358 1.437.788-7.53 8.772-7.682 9.323 3.35.67.44-1.608 0 0zM1250.647 85.17c-.163 1.383 2.273 16.66 5.214 13.084 2.91-3.594 12.272-7.6 12.86-12.23.683-5.385-9.838-11.177-14.295-9.138-2.11.965-2.165-3.257-3.925-3.138-5.553.375.39 9.333.147 11.422-.448 3.79.103-.886 0 0zM1199.493 66.188c.69 8.28 12.046 3.585 14.813.58 4.213-4.578 1.772-6.335-1.346-11.507-.755-1.24-10.296-7.112-11.137-6.9-5.856 1.48-2.6 14.59-2.33 17.828.084 1.007-.122-1.46 0 0zM1577.227 654.52c.086-5.685-8.455-4.237-9.282 1.402-.616 4.142-4.675 15.995 1.57 17.996-1.05-.336 8.13 10.212 6.646 3.09-.752-3.626-2.478-7.086-.237-10.554 3.507-5.396 1.192-6.48 1.304-11.933.03-2.062-.014.67 0 0zM1591.324 714.408c-3.734-3.688-5.304 3.56-7.947 3.448 2.183.106 7.61-.646 9.395.866 2.604 2.21.378 5.706 2.56 8.11 7.943 8.75 5.723-3.89 7.14-5.164 2.136-1.915 3.086.858 4.757-.613 1.633-1.438-1.813-9.345-2.072-11.103-1.14-7.75-10.293 7.936-13.834 4.456-1.67-1.65.896.88 0 0zM526.025 195.754c3.235 1.502 8.843.5 12.656 1.416 2.128-2.388.804-10.81-3.02-11.657-4.14-.917-9.29-5.55-11.044.563-.49 1.706-.445 8.824 1.41 9.678.63.293-1.364-.627 0 0zM424.672 235.235c7.41 3.638 6.917-8.427 4.946-11.896-.958-1.688-2.563-5.916-4.718-2.967-2.157 2.945-7.508 4.284-8.966 6.572 2.595 2.835 5.2 6.557 8.738 8.29.92.453-1.77-.868 0 0zM494.426 102.485c4.338 2.975 7.5 1.034 9.06-2.816 2.094-5.168-.352-7.146-3.128-12.185-1.91-3.394-9.573 12.493-5.932 15 1.252.86-.954-.657 0 0zM433.576 93.44c2.33-.206 8.76-7.598 9.213-9.43.464-2.01-12.37-2.518-14.283-.118-3.275 4.103-.923 10.096 5.07 9.548 1.866-.165-2.707.248 0 0zM1609.558 540.88c-3.94 2.715-3.213 3.132-.847 4.81 5.69 4.03-3.27 10.205 5.75 11.83 5.474.986 2.815-21.812-4.902-16.64-1.404.967.188-.128 0 0z"/><path fill="#1A2840" d="M1450.608 77.11c-.684 8.21 14.31 7.263 11.15 1.694-3.246-5.613-1.127-5.527-7.708-6.562-6.575-1.914-3.066.393-3.442 4.867-.186 2.228.127-1.51 0 0zM487.087 128.335c5.984 5.235 12.27-2.224 6.917-6.66-8.298-6.855-13.808.642-6.917 6.66 1.084.948-.51-.444 0 0zM476.196 153.993c3.423 1.656 7.765-11.59 1.558-12.76-9.555-1.8-8.164 9.585-1.558 12.76.21.102-2.412-1.158 0 0zM1471.948 75.546c4.875 3.785 22.59 1.458 15.243-3.063-2.603-1.604-17.96.956-15.242 3.063 3.27 2.537-.625-.485 0 0zM951.398 161.808c.065-1.09 10.937 3.57 10.674-3.954-2.21-1.097-5.523-6.86-6.77-6.403-5.932 2.192-3.566 4.722-3.904 10.358-.013.213.028-.473 0 0zM414.264 165.41c.617 2.746 10.29-3.3 7.912-7.768-1.202-2.26-6.657-3.243-8.51-1.46-2.077 2 .115 7.062.598 9.23.132.586-.468-2.104 0 0zM438.13 74.216c4.432 1.09 14.732 11.974 12.915-1.147-.453-3.39-15.032.61-12.915 1.146 2.956.727-.217-.055 0 0zM1757.365 790.95c-3.764-.342-4.994 8.45-11.298 7.002-.876-.203-8.387-.933-8.387.46-.045 4.69 11.324 3.515 14.022 1.892.954-.575 9.365-9.014 5.663-9.353-.43-.038.607.057 0 0zM516.278 264.84c3.933-1.34 8.58-12.31 2.436-10.243-4.218 1.406-10.05 12.834-2.436 10.244 3.588-1.224-.662.225 0 0zM1469.106 113.003c2.252.245 15.254-1.25 7.402-5.09-2.078-1.027-5.685-2.95-8.124-2.1-3.214 1.118-2.718 6.823.722 7.19.717.078-1.613-.172 0 0zM1856.185 1020.282c.57-1.332-3.666-7.383-5.184-6.508-3.502 2.063 1.453 12.936 2.928 15.148 2.007-2.63.99-5.61 2.257-8.64.16-.375-.946 2.264 0 0zM1853.928 1028.924c-.23.3.215.335 0 0-.014.015.03.05 0 0zM1598.486 818.854c-17.485 9.957.245 6.54 7.093-.307-.668-2.35-5.892-.383-7.094.307-1.456.83 2.004-1.15 0 0zM1622.105 544.575c-.22-.074 11.912-4.708 8.134-7.66-3.785-2.97-13.646 5.874-8.135 7.66.313.106-.392-.127 0 0zM493.892 111.092c.957.662 12.508 3.856 9.308.434-3.178-3.404-13.33-3.215-9.308-.434 2.188 1.515-.77-.532 0 0zM556.893 64.735c15.972-9.928-14.044-5.533 0 0 1.494-.928-2.21-.87 0 0zM1619.644 756.57c-4.357 1.62-4.79-2.448-4.35 5.31.343 5.24 7.612-6.508 4.35-5.31-1.304.485.55-.203 0 0zM1210.28 76.32c.78-3.334-6.835-4.084-7.516-1.414-.74 2.902 6.573 5.452 7.516 1.415.164-.7-.305 1.307 0 0zM467.976 310.27c-1.846-.22-8.722.613-6.805 4.16 1.88 3.477 9.95-3.836 6.806-4.16-.475-.058.198.02 0 0zM1623.52 784.916c.89.198 6.787 1.8 7.625.833 1.3-1.513-11.715-5.407-11.994-2.104-.147 1.677 3.585 1.092 4.37 1.27 1.85.414-1.387-.312 0 0zM1579.63 816.885c-1.912-.496-8.98-3.564-10.244-.424-1 2.457 9.84.53 10.244.425-2.948-.766-3.85.994 0 0zM477.03 321.904c1.705.58 3.526-3.625 3.34-4.783-.39-2.82-6.91 3.588-3.34 4.784.188.065-.198-.065 0 0zM953.113 148.2c1.34-4.29-5.796-2.357-4.064.558 1.116 1.87 3.27 1.957 4.063-.558.183-.588-.2.625 0 0zM1575.234 688.3c2.197-.348-.856-7.127-3.09-5.014-1.39 1.372 1.294 5.288 3.09 5.015.184-.03-.41.063 0 0zM1598.91 694.49c2.52-1.986.193-6.28-2.777-5.875-2.77.373 1.273 6.98 2.777 5.876.315-.246-.094.073 0 0zM1584.452 694.602c-2.822-.853-3.65.426-3.318 3.204.353 3.11 6.897-2.132 3.318-3.204-.46-.14.816.244 0 0zM381.317 111.264c.262 3.612 6.91-3.698 7.154-4.22-1.844.028-7.364 1.478-7.153 4.22.044.606-.033-.41 0 0z"/><path fill="#1A2840" d="M388.47 107.045c.29-.005.098-.207 0 0 .058 0 .02-.045 0 0zM1606.53 784.765c-2.09 1.078 2.203 4.12 4.083 1.548 1.616-2.22-3.447-1.882-4.082-1.548-.332.173.604-.318 0 0zM1570.048 823.162c-1.75-1.057-3.622-1.283-5.618-.685.872.546 5.363 4.578 6.63 2.898.285-1-.052-1.738-1.012-2.213-1.43-1.09.378.287 0 0zM1674.797 812.733c-.762 2.663 3.543.057 3.98-1.866-2.145-.97-3.29-.572-3.98 1.866-.16.558.348-1.227 0 0zM1459.263 101.876c-2.466-1.273-.8 5.785 1.168 3.787 1.435-1.267 1.047-2.53-1.167-3.787-.518-.267 1.09.562 0 0zM452.403 121.355c-.288-.255-3.504-1.823-3.582-.035-.13 2.61 4.92 1.214 3.583.035-.5-.44.405.357 0 0zM1585.034 679.47c.164.21.496-.022 0 0 .04.05.09-.004 0 0z"/><path fill="#1A2840" d="M1580.498 678.508c-.68 2.203 6.178.886 4.536.962-.788-1.022-3.498-4.324-4.536-.962-.09.292.397-1.282 0 0zM588.717 103.83c-.6-1.382-1.49-1.75-2.674-1.102-2.05 1.912 3.125 3.546 2.674 1.102-.14-.775.123.667 0 0zM1550.954 817.136c-1.308 1.51 2.524 2 3.4 1.098 1.236-1.283-2.31-2.34-3.4-1.098-.18.21.81-.924 0 0zM1585.595 706.843c3.062 2.364 1.058-5.573 1.14-4.956-3.218 1.715-3.598 3.366-1.14 4.956.34.26-.538-.42 0 0z"/><path fill="#1A2840" d="M1586.837 701.76c.176-1.31-.137.44-.137-.108-.02.27.025.308.137.11zM551.225 69.92c.448-2.98-2.246 2.594-2.383 3.154 1.242-.712 2.036-1.763 2.383-3.153.088-.584-.233 1.494 0 0zM1558.733 815.813c-.346 1.737 2.23 1.71 3.093 1.005.354-1.26-2.826-2.384-3.093-1.005-.072.353.05-.272 0 0zM439.644 134.665c.258-3.1-4.008.477-1.917 1.324 1.103.224 1.743-.217 1.917-1.325.032-.388-.093 1.077 0 0zM1238.174 1088.727c-1.782.802-1.02 2.324.705 1.85.76-.953.526-1.57-.706-1.85-.402.18.38.232 0 0zM1540.43 814.157c-1.377 1.744.63 2.234 1.416 1.034-.077-.794-.55-1.14-1.416-1.033-.262.33.772-.15 0 0zM1587.67 682.074c.335-1.478-.4-2.25-2.204-2.32.147 1.62.882 2.392 2.205 2.32.15-.397-.16.445 0 0zM1585.31 679.457c.013.212.272.513 0 0 0 0 .052.1 0 0zM1488.15 776.722c-1.663-.363-.858 2.005 1.63 2.48.01-1.19-.532-2.018-1.63-2.48-.204-.045 1.4.27 0 0z"/><path fill="#1A2840" d="M1489.78 779.2c.162.59.418.08 0 0 .016.065.07.015 0 0zM1500.873 782.73c-.305-1.344-.815-1.447-1.533-.315.524.9 1.033 1.007 1.533.314.15-.545-.05.18 0 0zM452.615 160.78c.265 0-1.383-1.827-1.846-.088.614.03 1.228.06 1.845.088.04 0-.618-.006 0 0zM1596.323 696.77c-.864-.77 2.52 2.334 0 0-.112-.1.146.133 0 0zM1597.006 698.595c.022-.224-.14-.43 0 0 0 0-.03-.09 0 0zM1594.16 704.36c-.625-1.574-1.078 1.216 0 0-.07-.174-.13.147 0 0zM1447.354 772.924c-.42.314.798-.7 0 0-.043.032.5-.44 0 0zM1491.485 781.433c-.023-.862-.505-1.48-1.44-1.854-.282 1.435.198 2.054 1.44 1.853.086-.098-.376.417 0 0zM1547.15 816.227c-1.794.824 1.708-.793 0 0-.17.078.53-.248 0 0zM1421.235 88.226c1.445-.803-1.197-1.27 0 0 .16-.09-.156-.164 0 0zM543.422 96.32c2.11.61-1.835-.576 0 0 .187.055-.175-.053 0 0zM507.54 128.505c-.42 1.23 1.2.62 0 0-.06.18.174.09 0 0zM1643.786 1004.403c-1.184.02-1.462.314-.834.88.996.032 2.01-.25.834-.88-.384.15.19.1 0 0zM1853.11 1032.48c1.252 2.09 1.51 1 .77-3.273-1.372.874-1.63 1.966-.77 3.272.164.326-.79-1.556 0 0z"/><path fill="#1A2840" d="M1853.928 1033.57c-.123-.16-.357.182 0 0-.05-.066 0 0 0 0zM1784.654 1126.457c-1.02 1.634 1.324-2.108 0 0-.09.143.305-.488 0 0zM536.897 164.96c-.443-2.132.074.372 0 0-.168-.81.007.035 0 0zM389.492 106.23c-1.36 1.284.34.606 0 0-.214.202.073.127 0 0z"/><path fill="#1A2840" d="M388.848 106.84c-.466.12-.27.257 0 0-.103.026-.07.066 0 0zM583.297 97.672c1.114.924-2.59-2.22 0 0 .068.057-.287-.246 0 0zM1743.788 826.97c-2.423-.49-.55.23 0 0-.377-.075-.147.062 0 0z"/><path fill="#1A2840" d="M1742.66 826.747c-.474-.3-.863-.168 0 0-.134-.085-.18-.035 0 0zM759.047 307.45c1.74-1.33-.293-.66 0 0 .27-.205-.062-.14 0 0zM1587.382 700.077c-2.393 1.01.894 2.21 0 0-.728.308.075.19 0 0zM1597.682 699.61c-1.057-1.936.698 1.25 0 0-.11-.203.056.1 0 0z"/><path fill="#1A2840" d="M1597.153 698.453c.018.144.36 1.284 0 0 0 0 .052.192 0 0zM1471.145 759.84c-.248-.78-1.072.268 0 0-.047-.148-.188.047 0 0zM766.92 260.98c2.305-1.845-13.336-3.01-15.088-2.69-3.8.7-9.786.498-2.172-2.242a71.95 71.95 0 0 1-8.814-1.745c1.76-1.398 4.245-5.966 6.03-6.654 3.63-1.4 6.146 1.724 9.237-1.868 2.95-3.4-13.144-4.974-7.48-9.672.73-.6 11.067 6.955 12.147 8.135 3.158 3.455 3.073 14.63 9.293 7.568.392 1.274 1.188 1.97 2.39 2.087 3.263-.858-1.602-15.394-2.8-17.235-2.252-3.46-8.985-3.747-10.433-6.64-.504-.998 3.148-1.052 2.384-2.648-1.3-2.704-5.184.544-6.38-1.94-1.29-2.697 6.292-.33 5.43-3.486-.947-3.42-6.938.832-8.045-.92.128.205 2.062-4.497 2.12-4.57 8.15 5.27 8.178-5.655 13.2-3.594 3.328 1.38 2.293 9.747 8.522 5.926 5.43-3.327 8.478-4.586.586-7.183-3.92-1.28.396-10.594 6.372-6.92 10.68 6.564-2.71-5.485-1.177-8.044 3.364-.42-.02-3.484 4.453-1.877 3.595 1.295 2.06-6.026 1.84-7.053-.99-4.688-9.767-1.88-.817-5.08-1.324-1-12.736-5.644-4.986-8.852 3.287-1.358 4.002-5.097 8.026-2.332.083.057 4.942 3.976 5.38.846 1.38-9.914-4.938-2.126-6.642-9.422-.637-2.724 2.56-3.91-.16-6.457-2.062-1.933-1.31-5.148 1.722-4 2.845 1.087 6.688-18.343 8.387-21.1 5.564-9.03 8.407-10.76-3.066-7.46-3.012.863-.237-5.42.76-6.024 3.11-1.885 7.586 1.207 11.01.59 8.525-1.538-6.024-5.594-6.392-6.46 4.17-1.402 7.726-.005 11.543-.864 4.016-.93 2.293-3.71 4.52-5.747 2.623-2.4 8.574-.868 9.423-6.336.574-3.697-5.01-7.385-7.975-8.032-8.602-1.876-11.333 6.67-18.588 4.32-1.846 2.067-23.906 16.076-25.108 15.2-2.176-1.642 16.583-15.287 17.362-16.537 1.213-1.946 3.65-5.705 1.714-8.025-3.435-4.092-5.3 3.383-6.705 4.448-3.485 2.642-20.516 2.33-7.087-4.09 3.957-1.917-6.458-3.96-4.147-3.51-5.302-1.033-9.31-.464-14.32 1.113-3.004.946-5.964 2.905-8.995 3.58-2.23.482-1.708-3.613-.18-4.347 9.984-4.756 16.024-5.118 26.664-4.19 1.777.157 26.188-1.7 20.758-7.614-2.483-2.702-17.752-6.424-17.754-6.378 0 .024 10.648-8.106.726-5.273-3.08.868-6.41.31-9.248-1.087-4.5-2.205-9.31.585-13.946.64-2.102.025-12.747 4.424-11.93.745.368-1.654 12.937-6.323 12.958-6.277 1.264 2.635 18.02 2.434 21.057 1.395 3.996-1.363-17.49-9.086-18.853-9.656-1.83-.764-14.85-1.754-16.097.953-.854 1.854-1.29 5.457-4.083 5.303-3.897-.158.086 4.105-1.495 4.802-.817.354-5.674-1.7-6.003-2.716-5.77-3.78-5.732-3.683-11.954-.7.806 6.33 3.807 2.91 6.162 7.813.81 1.684 1.32 10.483 1.724 10.41-3.715.658-3.495-7.288-4.993-9.542-3.144-4.768-6.096 2.418-9.115 1.178-10.12-4.114-.16 21.446.13 21.527-5.88-1.697-9.654.292-11.005-6.885-.523-2.778-.373-15.013-5.825-14.116-3.63.597-2.436 9.868-2.624 12.19-.775 9.843-10.87-2-11.253-2.17-.727.895-4.866 7.614-6.19 6.45-1.023-.884 4.696-13.374 5.156-15.48 1.134-5.233-7.412.062-8.936.45-7.3 1.866-13.353-4.324-13.21 5.748.094 6.463-1.45 7.79-2.768.356-1.927-10.734-6.828 5.54-6.824 5.537-2.29 1.736-3.13 5.34-6.414 5.258-2.546-.08-2.914-3.542-5.437-.27-.946 1.217-2.526-1.73-3.856-.068-2.728 3.427-6.624 4.63-10.085 7.06-12.735 8.935 6.108 6.517 6.456 7.868.444 1.774-8.12 11.484-9.443 12.815-8.066 8.105-28.91-.58-36.43 11.283-1.435 2.272 8.94 13.785 7.407 14.162 2.04-.498 12.906-1.444 11.182 3.35-1.377 3.854-6.015-.452-8.74.704a5.963 5.963 0 0 1 2.52 2.57c-1.626.342-16.375-4.564-14.024 1.87.304.825 8.255 6.626 6.26 7.443-4.944 1.96-4.44 10.048 1.524 9.142 2.41-.367 1.867-3.358 4.692-2.318 3.403 1.25 7.05 1.856 10.675 1.52 4.692-.434 10.35 2.954 13.397 6.31 1.62 1.78 7.363 3.86 6.348 7.365-1.044 3.57-2.493 5.052-.337 8.474 4.5 7.143 1.22 13.144 2.677 20.813.477 2.5 1.83 8.875 1.138 11.372-.803 2.885-2.967 5.118-3.025 8.27-.006-.003-.007-.005 0-.005.22.385 1.574 2.196.064 3.003-9.27 4.948-.138 7.025 1.197 4.204 5.975-12.84 15.106 18.478 8.662 17.072-.25-.055-13.554-11.136-13.383-5.31.163 5.604 10.713 8.63 14.83 9.247 1.126.167-1.105 10.955-1.425 11.362-.854 1.088-10.63 6.045-10.602 6.225.167 1.164 7.796.74 6.6 7.922-3.892 3.523-12.025-2.27-14.202 2.984-1.29 3.113 3.758 9.096.823 10.75 0 .526-.015 1.077-.02 1.612.016-.006.018-.005.007.003.935-.282 8.423-3.66 6.91-5.05.352.35-10.978 8.338-8.502 11.174 1.792 2.078 5.512-2.788 6.332-.347-.222-.676-12.345 14.385-1.782 11.333 10.422-3.012-2.15 7.704-1.643 8.373 2.46 3.213 6.61 16.604 6.043 20.732-1.412 10.43 13.283 5.845 17.447 7.41-1.705 3.536.766 11.8 6.32 8.39-.208.137 2.326-5.043 2.723-5.706 1.682-2.812 2.424-6.186 4.918-8.606 3.3-3.206-2.433-7.35 2.896-9.966.83-.407 3.207-5.273 3.51-6.1.602-1.647 2.727.56 3.277-.194 2.377-3.213-.004-14.04 4.384-15.52 3.55-1.19 11.66-4.405 13.295-7.138 4.558-7.62 2.5.282 7.743-.058 6.515-.437 12.067-5.792 15.732-10.697 1.34-1.79 9.055-12.56 9.557-12.687 2.35-.592 3.69 3.328 7.257 2.047 4.896-1.764 11.06-2.988 16.147-4.046 7.797-1.618 14.795-8.164 20.873-12.98.147-.118-2.09 1.655 0 0z"/><path fill="#1A2840" d="M1758.115 146.776c-4.452-.678-1.022-7.174-4.71-8.98-7.172-3.517-2.404-5.156-.613-9.018 3.686-7.953-7.856-16.973-15.463-15.238-2.768.63-2.78 3.94-5.61 4.42-5.01.852 5.38 8.607 5.593 10.035.743 4.814-8.428-2.105-8.88-2.68a122.784 122.784 0 0 1-5.328-6.224c-1.902-2.77-5.06-.005-7.46-1.552-3.577-2.303-9.894-1.874-13.89-2.357-3.587-.433-13.32.65-16.035-1.584-9.17-7.54-25.103-3.516-34.927-.76-3.42.96-9.55.19-12.52 2.254-1.305 5.04 5.316 7.68 7.916 10.448 3.046 3.246 5.785 6.95.89 9.948-2.686 1.66-8.973-3.39-11.994-4.5-2.503-.915-4.707-7.277-6.99-5.888a8.09 8.09 0 0 0-1.697 3.692c-1.73 2.672-5.314 1.746-7.912 2.43-4.47 1.176-9.61.807-13.18 4.362.24-.238-2.33 11.974-4.89 7.085-2.367-4.487-10.87-1.132-11.73-3.253-2.283-5.66-3.49-9.396-8.706-12.96-11.06-7.576-30.713 12.755-35.7 8.058-6.04-5.69-8.042-4.27-15.16-4.685-10.688-.625-1.062-13.722-15.102-10.443-5.754 1.343-4.61 4.88-4.758 9.664-.153 5.015-5.733 5.845-4.308 2.07 1.938-5.084-1.81-5.42-5.025-3.08-4.844 3.488.748-7.24.437-5.69-4.43 0-19.74-1.128-23.13 1.558 7.43 3.177.27 4.195-1.042 8.113-.736 2.204 2.034 1.623 2.826 1.075 3.28-2.253 2.505 4.157 3.21 5.175 1.746 2.55 6.588 10.017-1.234 6.807-4.498-1.836 4.075 10.09-2.356 6.992-8.507-4.107-8.513-4.44-14.727.6-4.794 3.885-14.286-4.792-10.854 4.29 9.2 24.35-24.215-3.687-24.133-3.898-.547 1.415 11.473-6.422.186-5.53-2.234.173-4.163-7.455-6.843-9.136-4.416-2.77-8.292-4.21-12.696-.667-5.058-2.45-15.447-3.868-10.854 4.655 5.303 9.844-21.472 12.3-23.854 3.982-1.042-3.706-8.61-.697-11.387-.087-6.45 1.416-4.944 3.736-7.988 6.82-1.98 1.996-2.713-5.197-5.806-2.743-2.098 1.663-5.578 2.19-7.58-.028-1.583-1.748-6.807-2.748-6.963.803-.14 3.583 3.67-.51 4.363.483 2.067 2.936-5.632 10.98-7.994 12.303-1.583.885-4.98.864-3.634 3.577.923 1.852-.008 4.03-2.108 4.19-1.58.144 3.703-26.162 4.872-28.168 2.534-4.28 7.506-16.316 4.024-20.88-1.48-1.938-11.205-5.05-2.873-5.537 0-5.005-7.513-2.574-8.95-5.27-2.972-5.553-11.355-7.14-16.1-4.88-6.36 3.03-2.824 6.882-7.544 9.57-6.415 3.652-2.288-8.206-5.032-10.034-.757-.505-12.593 2.164-12.326 1.18 1.633-6.077 2.236-7.447-4.83-9.1-6.777-1.605-7.027 11.45-5.625 15.267-.715 5.774 8.055 6.944 8.928 9.617.412 1.24-9.018 2.266-10.446 2.8-.12 2.937 7.464 2.255 5.546 7.242-.708 1.828-4.748-5.403-7.463-1.754-.9 1.21-6.885 8.39-9.05 6.422-2.894-2.627-.625-3.646-5.745-2.487-6.645 1.503-2.86 1.667-2.26 4.79.302 1.56-12.265 8.747-13.992 10.54-4.503 4.67-3.028 10.812-7.886 14.1 4.316 2.477 7.464 6.447 11.653 9.747 1.48 1.17-2.915 9.04-1.983 8.94-4.477.534-1.278-5.457-2.147-5.88-2.964-1.475-15.802 5.764-19.565 6.78-5.388 1.407.296 7.548 1.338 9.562 4.85 9.366 17.592 7.906 21.18 18.8 1.794 5.45 6.727 8.723 5.875 14.995.702.672 11.423 7.824 6.927 7.044-2.063-.35-9.643-4.265-10.906-6.11-1.23-1.797.928-4.258-.547-5.89-1.87-2.084-1.903 2.917-3.612 1.816-3.066-1.956-.844-15.415-3.144-15.185-6.054.594-7.193-.187-12.284-3.016-2.764-1.537-9.15-5.013-11.684-1.572-1.273 1.77 4.035 3.323 1.704 6.31-2.745 3.486-5.884-2.77-8.147-.127-3.753 4.38 16.897 9.74 14.03 11.316-1.247.674-12.285-1.16-14.22-1.92-4.05-1.602-5.332-8.394-6.294-11.865-5.837 1.79-3.206 12.928-.57 15.436 6.94 6.606 4.854 14.23 9.837 22.168 1.984 3.166 6.135-1.625 8.084-1.992 2.926-.55 9.01 2.18 11.204 3.936 2.23 1.785 4.365 4.274 3.43 7.324-1.15 3.738 5.326 6.398 5.5 5.94-2.896 8.03-9.373-6.075-10.216-7.308-5.67-8.3-16.088-3.257-9.904 3.877 5.503 6.35-2.088 15.548-3.44 21.794-1.46 6.744-15.838.104-19.31-1.848 3.167-4.444 7.95.855 10.986-.122 7.175-2.375 3.27-15.714 3.667-20.313.063-2.18-.88-3.757-2.833-4.728-3.836-2.174-4.74-6.706-6.075-10.497-1.488-4.225-2.49-8.904-4.492-12.924-1.514-3.036-4.706-4.413-6.197-7.293-2.387-4.605-.202-10.92-2.415-15.868-3.54-7.953-14.9-2.783-14.697 4.622.104 3.747.993 8.01-.195 11.678-1.187 3.662-5.104 6.904-1.03 10.83 3.19 3.073 1.638 13.93 6.645 14.058 8.322.167 16.66 19.662 4.74 11.45-9.535-6.57-22.38-10.823-33.698-10.39-5.962.24 2.487 9.573 2.516 10.38.235 6.647-6.33 8.74-9.025 2.327.072.17-13.17 3.866-14.508 4.708-3.717 2.338-3.07 5.503-9.098 4.063-2.277-.528 1.368-3.642-.354-4.993.46.377-8.87 3.915-9.494 4.073-5.922 1.5-7.418 8.385-12.677 10.633-3.222 1.37-.4 6.81-5.097 8.03-3.492.913-10.454-1.758-9.954-6.45.682-6.396 7.114-2.762 1.026-9.45-6.225-6.86-5.938 3.95-5.656 6.807.57 5.647 3.693 8.943 3.573 14.65-.136 5.486-5.698 1.713-9.05 1.264-3.12-.41-7.73 6.608-9.255 8.737-3.107 4.324 5.482 6.578.408 11.383-2.02 1.893-10.954-3.647-12.688-4.77-1.37-.418-2.327.053-2.872 1.414-1.247 4.105 3.683 4.658 6.107 5.544 3.467 1.272.85 6.81-2.775 5.773-3.473-.986-11.293-4.104-12.01-8.06-.59-3.275-2.824-13.443-5.93-14.702-2.59-1.048-10.326-4.87-9.11-8.535.1-.295 25.097 7.51 27.917 7.347 13.603-.786 15.46-12.937 5.115-19.94-4.912-3.323-24.853-17.697-31.055-12.317-2.533 2.19-8.42-1.333-9.644-3.882-4.007.86-11.722 1.13-13.28-3.984 2.507-1.983 6.878.493 7.533-4.227-6.82-4.557-15.617 4.05-13.362-5.616.583-2.594-4.23 3.473-4.09 3.188-2.658 5.364-1.376 1.413-4.174.853-1.478-.295-1.846 5.764-4.355 6.054-.29.03.683-11.766-2.92-6.964-2.14 2.87-4.138 4.96-5.37 8.35-2.34.902-4.402-2.78-7.223-1.347 1.584 3.27-.672 7.04-4.336 7.787-4.866.992-2.43-2.467-5.025 2.726-.667 1.352-6.48 2.974-8.223 5.704-3.367 5.28 2.225 2.854-3.858 7.527-1.537 1.178-7.128 7.95-5.61 9.726-.257 2.346-6 5.185-6.96 8.716.94 2.087-2.452 12.817-3.852 14.354-2.817 3.115-6.816 5.736-9.145 9.18-4.987 7.375 4.148 2.09 4.138 2.082 4.92 4.216-12.194 4.692-11.71 10.12-2.747 1.805-4.548 2.38-7.524 4.422-6.66 4.568-1.985 2.166-4.196 5.702-1.638 2.62-3.238-.035-3.748 4.742 1.05.215 10.757-1.232 10.273.658-1.295 4.83-7.135-.3-9.356 2.16-3.447 3.817 3.263 4.45 4.085 5.575 1.353 1.853-3.796 8.096-4.2 7.58 1.426 1.882 7.534 3.59 2.37 6.453-4.185 2.324 7.605 6.56 10.395 5.477 3.887-1.512 5.563-7.9 8.956-8.358 4.098-.544 1.337-4.244 4.428-6.09-.748.453 12.682 33.07 14.044 35.958.33.7 13.75-5.742 14.42-7.078 4.497-8.956-.94-16.61 7.845-23.67a24.872 24.872 0 0 0-8.933-2.307c3.334-3.635 11.065 1.35 11.47-4.32.376-5.256-7.623-5.887-8.542-10.556-1.4-7.125.493-13.943 5.1-19.212 4.078-4.666 12.92-8.198 12.028-15.84-1.28-11.062 7.312-16.068 17.198-10.875 9.396 4.944-13.048 22.88-14.643 27.743-1.242 3.79 1.644 13.93 2.328 17.938.233 1.358 8.893 7.44 10.86 7.748 8.303 1.298 24.444-13.145 30.998-1.504.905 1.65-8.623 7.806-10.107 7.764-6.237-.176-11.637-2.527-17.496 1.514-5.54 3.776 3.572 8.43 3.52 11.474-.18 9.64-2.605 9.908-8.48 4.185-7.15-6.94-6.01 20.615-5.887 20.426-1.394 2.13-8.75 6.757-11.414 5.882-2.84-.933-3.123-4.246-6.603-3.37-2.938.74-5.265 2.356-7.84 3.848-2.05 1.187-8.296 6.846-10.53 5.14-6.272-4.807-7.518-2.886-14.336-1.712-2.918.507-7.796-4.252-8.73-6.395-1.914-4.384-.567-5.598 1.98-9.26 4.33-6.218 1.218-1.122-.103-6.767.44 1.885-.113-13.045-2.59-3.805-1.628 6.068-6.544 5.96-5.857 12.37.703 6.58 7.063 12.537.783 17.79-1.098.92-9.705 1.147-11.98 1.84-5.066 1.526-9.222 4.776-9.477 10.527-.205 4.65-4.29 5.943-8.304 7.717-3.92 1.734-1.99 7.403-7.277 8.153-2.727.386-2.594 3.23-4.938 3.94-2.34.71-5.834-2.51-7.233-1.334-1.48 1.242 1.587 5.017-.844 5.756-4.748 1.445-8.72-1.272-13.25 1.322-3.735 2.137 2.89 4.877 3.354 5.042 5.67 2.005 5.79 4.082 9.143 8.363 6.14 7.84 8.24 25.392-6.675 23.59-5.166-.624-23.97-4.188-27.245-.826-.986 1.013-3.963 1.65-4.626 2.882-.934 1.73 1.59 10.912 1.497 13.495-.16 4.415-1.095 8.77-3.4 12.592-1.787 3.038 1.348 4.416 2.1 7.145.98 3.545-1.13 7.79 4.54 8.12 5.663.35 6.45-.276 9.915 4.774 1.893 2.793 15.926-2.738 19.71-2.984 5.356-.354 15.166-10.03 12.513-15.05-3.88-7.388 9.18-13.62 13.395-16.503 7.082-4.85-.782-16.088 11.85-14.447 8.445 1.098 12.374.92 19.274-5.655 6.62-6.34 13.238 8.354 16.428 11.567 6.16 6.21 12.918 8.312 19.432 13.67 3.295 2.712 6.735 5.574 8.068 9.7.444 1.382-.58 8.85-.385 8.944 2.39 1.24 5.737-8.19 3.59-10.67-6.037-6.988 8.113-5.88 7.663-5.167 1.518-2.38-11.92-6.795-12.446-8.304-1.198-3.45-5.356-2.54-7.68-4.784-2.494-2.41-3.732-5.08-5.803-7.812-2.006-2.648-13.453-10.05-7.662-15.085 7.79-6.746 4.98 1.22 8.27 2.448 1.386.52 2.226-2.01 3.8-1.684 3.6.752 4.213 6.88 6.182 9.146 4.512 5.195 13.542 6.262 18.53 11.646 5.035 5.44 2.803 11.3 7.16 17.218 2.118 2.88 4.57 8.288 7.858 10.04.903.48 8.81 1.245 7.854 2.972-.81 1.49-4.59-.7-6.688.62-2.662 1.7 4.41 7.176 6.073 7.32 1.578.125 6.447-8.86 5.69-10.91-7.24.383-3.41-6.014-6.417-9.846-5.208-6.627 4.746-3.214 5.213-3.472 5.168-2.815 8.86-8.194 15.38-2.64 3.976 3.412.095 1.464.76 5.752.808 5.213 4.51 5.304 2.184 11.644 4.775 5.313 6.404 7.16 12.76 10.604 7.65 4.148 4.66.083 11.6-1.344 6.357-1.308 9.025 6.417 15.926 3.73 8.22-3.203 13.386-8.03 13.01 4.13 3.436 11.114-6.708 36.568-21.797 28.305-3.34-1.81-9.028-.29-11.926 1.623-3.348 2.226-9.724-.776-13.1-1.462-6.81-1.384-19.543-2.05-24.684-7.18-4.207-4.185-16.387-2.64-16.793 4.385-.337 5.82-.796 14.92-9.284 8.62-4.073-3.038-14.12-3.268-16.276-7.183-5.542-10.12-14.364-5.163-23.295-9.78-7.065-3.647-9.72-4.84-3.86-11.184 1.264-1.378-2.12-12.13-1.798-12.08-2-.312-2.53-2.533-4.524-2.832-2.534-.38-5.72 1.826-8.05 2.2-9.774 1.566-20.295.45-30.172 1.795-7.084.965-11.693 4.313-18.403 6.284-5.69 1.664-17.623 6.533-23.487 1.326-5.344-4.723-5.753 7.356-10.482 10.122-6.5 3.813-17.14 10.83-14.934 20.15 1.688 7.1-5.803 12.738-11.25 15.847-2.843 1.62-5.208.956-7.224 3.727-1.788 2.477-2.613 5.107-5.558 6.573-3.974 1.975-9.76 12.733-11.54 16.684-4.15 9.212-7.145 10.383-3.42 19.802 2.62 6.625.916 15.997-.737 22.482-.816 3.204-1.077 6.132-3.276 8.808-2.862 3.462-.105 4.133 1.442 7.555 1.396 3.074-.32 4.797.864 7.983 1.38 3.705 4.352 2.71 6.736 4.893 3.74 3.424 7.893 9.015 11.33 12.907 4.386 4.915 2.86 13.16 10.73 15.645 7.69 2.41 12.723 10.834 20.496 13.813 5.617 2.17 15.38-3.89 21.923-3.834 7.466 0 14.99 3.662 21.848-1.294 5.422-3.913 17.976-7.95 24.448-5.362 5.585 2.26 6.147 11.878 11.465 12.29 5.176.42 14.343-4.753 17.82.827 2.834 4.57 2.852-1.905 4.364 6.984.907 5.335-3.053 10.18-2.728 15.606.157 2.35-2.082 5.85-3.064 7.884 1.39 3.552 2.728 6.918 5.225 9.882 4.738 5.626 10.812 8.86 13.13 16.306 1.532 4.92 7.762 12.908 6.23 18.384-2.15 7.675 7.46 15.956.542 22.8-9.113 9.013-14.093 26.502-6.533 37.525 11.055 16.125 8.74 33.86 15.415 51.016 2.93 7.532 7.99 13.063 10.696 20.984 1.196 3.503 4.556 7.746 4.062 11.665-.195 1.557-2.385 2.985-1.36 4.653 1.832 2.975 4.35 12.83 10.446 10.184 5.98-2.593 13.967-4.134 20.513-4.033 16.79.258 30.942-9.128 40.118-23.363 3.73-5.777 10.658-10.07 12.563-16.766 2.137-7.443-.805-15.796 9.533-17.47 10.475-1.68 8.73-13.282 7.068-20.966-2.41-11.168 1.794-11.635 9.94-18.604 5.71-4.88 13.2-6.97 18.6-11.96 6.163-5.695 5.118-13.162 5.55-20.718.224-3.927-.547-7.77.317-11.677.56-2.538-4.304-5.956-5.053-8.38a31.702 31.702 0 0 1-1.076-13.716c.597-4.322-4.09-5.172-2.187-10.008 5.87-14.974 18.548-27.054 30.413-37.784 10.057-9.097 20.853-14.813 27.543-27.37 5.238-9.832 14.643-22.492 12.592-34.29.104.616-28.626 4.432-32.257 6.19-6.27 3.037-7.787.586-12.217-3.716-3.98-3.867-2.113-7.862-7.15-13.377-8.008-8.768-15.97-10.163-19.648-22.052-1.588-5.148-5.18-6.765-8.85-10.352-4.757-4.634-1.803-13.816-5.29-19.19-1.99-3.066-6.877-3.77-7.888-7.354-1.58-5.604-2.52-8.808-5.894-14.027-1.738-2.69-14.697-24.328-13.438-26.158 1.04-1.51 5.408 5.46 5.77 5.896 5.585 6.744 4.697 2.898 7.317-2.293.745.264 5.38 8.175 6.23 9.323 3.606 4.854 8.72 10.815 10.335 16.742.85 3.1 7.668 7.704 9.596 11.327 3.38 6.298.33 11.68 7.65 16.3 5.95 3.724 6.43 10.28 11.153 15.02 5.684 5.66 4.832 10.232 6.8 17.344 1.463 5.287 1.74 13.85 9.008 12.797 3.194-.463 4.043-2.975 6.75-3.986 2.433-.91 5.156.147 7.684-.48 4.69-1.17 9.048-4.31 13.134-6.593 4.977-2.78 14.84-2.053 16.98-8.72 1.326-4.12 9.057-4.784 12.51-5.843 2.66-.815 10.523-6.815 11.998-9.814 2.15-4.374 4.454-2.59 5.89-8.047.992-3.77 13.37-11.102 8.934-15.87-4.5-4.815-5.676-6.457-12.232-7.513-7.518-1.23-5.174-9.13-9.024-13.06-8.526 3.853-7.003 11.016-17.813 11.42-8.772.325-9.18-3.136-9.945-11.504-2.13 1.104-1.143 3.588-2.978 4.99 3.146-2.42-32.74-34.403-10.555-32.85 4.953.347 4.93 1.035 7.313 4.596 4.354 6.505 5.418 7.86 11.824 11.198 3.7 1.93 5.28 4.852 9.677 5.62 4.995.88 10.755-3.938 14.745-2.425 2.79 1.057 4.067 5.922 5.24 8.258 3.69.997 7.445 1.16 11.206 1.876 9.033 1.72 16.893.108 25.668.962 10.604 1.042 16.77-4.063 22.13 8.247 3.016 1.603 5.898 2.01 7.92 5.146 1.764 2.738 8.872 1.146 9.354 2.485.62 1.737-4.822 4.287-5.52 4.906 3.62 3.98 10.8 11.968 15.71 4.33 4.42-6.87 2.003-9.268 4.973 1.634 1.953 7.23 1.674 14.89 4.322 22.11 3.02 8.23 7.657 15.765 10.36 24.066 2.39 7.4 7.393 12.81 10.125 20.075 2.507 6.67 4.346 16.21 11.362 8.06 3.917-4.55 9.69-8.497 8.38-14.965-.843-4.1 3.33-7.227 1.88-11.277-1.438-4.014-1.074-8.063-.965-12.29.142-4.966 8.854-5.987 11.33-9.455 4.403-6.174 10.907-10.47 15.02-17.268 1.645-2.717 5.688-2.185 7.552-5.057 1.73-2.672.804-5.667 3.392-7.77 3.666-2.98 3.062-3.188 7.334-2.405 3.36.62 11.445-.313 10.918-5.447-.378-3.562 7.404 1.223 8.14 3.327 1.044 2.975 1.452 5.787 3.414 8.4 2.392 3.188 6.74 3.71 9.063 6.673 3.636 4.634 7.826 13.728 5.525 19.6-3.196 8.166 13.138-1.416 14.68-3.502 11.978 13.416 13.974 35.02 11.466 52.206-.42 3.078 11.988 13.362 13.033 18.237 1.132 5.278 3.512 13.38 7.3 17.427 2.036 2.162 17.357 13.234 13.156 3.405-2.92-6.83-2.682-15.33-7.82-20.835-2.787-2.986-15.592-7.705-13.762-12.897.746-2.13-4.55-7.77-6.116-8.693-3.756-2.21-1.232-9.305-.388-12.092.946-3.118 3.21-21.088 8.556-10.54 1.334 2.6 5.456 1.92 7.567 3.727 3.29 2.85 6.304 6.013 9.35 9.002 2.036 2 5.63 3.535 8.06 5.025-1.075 6.736-.272 8.172 5.196 3.335 6.302-5.574 15.447-8.68 17.52-17.62 1.643-7.072-2.44-17.685-7.125-22.98-2.03-2.298-4.48-3.805-7.012-5.46-3.78-2.522-4.728-6.42-8.008-9.252-4.813-4.15.16-14.2 4.38-16.98 5.873-3.88 8.752-4.624 15.224-2.862 1.68 1.575.378 5.586 3.694 5.556-1.12 0 1.544-5.044 3.604-5.608 5.474-1.524 13.847-9.188 17.4-7.85 9.277-2.232 26.68-11.27 27.02-23.26.12-4.5 3.535-13 6.894-16.088 2.828-2.618 1.192-7.517 1.476-10.78.4-4.728-3.916-2.465-6.403-4.354-1.706-1.284 6.93-4.33 4.804-6.82-.802-.936-4.486-2.98-4.156-4.223.374-1.406 6.4-2.374.824-4.67-5.016-2.024-5.297-9.29-8.735-12.756-5.138-5.178-7.55-2.86-6.49-11.376 2.815-2.558 3.28-6.104 6.585-8.438 1.953-1.38 7.555-1.905 7.883-4.42.468-3.625-4.68-2.342-6.302-2.547-6.677-.85-4.27-2.992-9.493 2.896-3.146 3.54-14.132-6.736-14.872-9.957-1.616-7.024 6.695-3.205 7.263-8.25.34-3.028 7.89-13.49 11.28-13.174 8.247.77 1.702 7.4 2.952 11.167 1.88 5.67 11.186-2.638 15.013-2.95 5.89 2.056 8.365 4.385 7.068 11.083-1.36 7.023 6.534 2.964 9.655 6.7 1.82 2.172 3.77 10.52 3.937 13.435.647 11.347.79 6.326 10.167 6.307 18.394-.036-13.947-34.58-14.06-35.475-.793-6.34 9.757-8.516 8.552-15.333-1.675-9.224 3.167-10.355 6.99-17.664 2.442-4.66 11.574 4.944 16.37-5.454 3.15-6.91 9.817-17.402 10.288-24.976.358-5.928 1.023-16.382 4.14-21.493 3.762-6.197-5.605-17.474-5.837-23.778-.307-8.81-4.13-35.018-18.74-32.516-5.397.924-1.736 4.958-7.306 7.178-2.33.937-1.416-2.077-2.514-2.84-1.597-1.11-3.353 2.66-4.842-.627-.52-1.152-1.742-6.158-3.67-5.917-11.077 1.406-6.672-5.005-3.35-11.568 3.423-6.765 5.18-15.268 7.535-22.56 1.865-5.776.69-13.148 2.837-18.588 3.316-8.3 13.183-4.964 18.896-9.213 5.534-4.16 10.575.437 13.813-6.217 2.504-5.13 14.682-2.557 17.977.733-1.495.94-1.995 2.137-1.5 3.59.65.83 12.056-5.068 13.353-6.36 2.438-2.484-3.443-2.077-4.095-3.693-2.95-7.318 1.895-15.728.69-23.65-1.094-7.208 17.672-12.23 18.236-8.865 1.077 6.317.704 7.682 6.9 9.405.82-2.282 4.55-12.626 3.966-14.465-.808-2.492-5.154-8.258-3.03-10.91 1.356-1.684 8.718-4.073 9.235-.188.66 4.954-2.558 3.783.312 10.422 2.854 6.607 5.277 10.91.95 16.39-4.374 5.542-2.75 18.082-3.53 24.974-.752 6.708-1.433 9.473-4.288 15.723-1.568 3.483-.583 9.34-2.17 13.757 2.233 11.377 7.17 21.982 13.73 31.493 2.243 3.25 5.813 12.207 9.65 13.598 4.793 1.732 1.918 13.505 8.85 12.946 2.553-4.5 4.13-8.584 2.08-13.71-2.79-6.934 1.6-5.04 3.188-9.78.707-2.11-2.68-7.802-2.224-10.938.71-4.874 5.93-4.303 6.78-7.738.722-2.91-6.66-8.804-6.702-13.25-.04-4.097-.614-6.766 1.41-10.458-.103.19-5.828-6.352-4.395-10.285 2.203-6.003-4.937-.935-5.022-.906-4.966 1.662-7.93-23.126-8.65-26.147-1.152-4.8 5.674-4.14 6.776-7.457 2.12-6.43 4.326.02 6.907.297 1.134-5.483 6.346-14.523 13.392-9.188 7.943 6.02 4.927 1.373 6.854-5.655 1.697-6.207 5.934-35.577 17.744-33.432 9.895 1.788 4.91-5.32 2.394-9.44-1.527-2.497-5.78-4.686-8.71-4.292-2.896.386-.383-3.95-1.674-5.24-2.81-2.803-6.14-3.965-9.695-5.224-5.644-2-2.146-4.783-8.783-1.475-2.985 1.475-2.38-4.328-.544-5.656-1.125.053-1.982-.326-2.573-1.135 1.175-3.772 8.16 2.277 10.687 2.07 6.043-.5 5.572-9.5 4.93-13.803-.838-5.632-6.618-6.006-9.32-10.048-2.688-4.05 2.86-10.83 4.166-5.806 1.142 4.455 6.925 6.916 7.966 1.463 1.41-7.224 8.473-1.73 10.808.47 1.026.962 9.74-.65 11.646-.65 3.12.014 3.488-4.786.827-5.194-1.443-.22 2.337.36 0 0z"/><g fill="#1A2840"><path d="M671.365 798.918c.233.94-.73-2.977 0 0z"/><path d="M48.452 314.458c5.003-4.636 12.38-5.22 17.25-9.563 4.607-4.11 8.275-6.67 14.35-8.913 3.54-1.305 7.29-5.36 10.65-7.448 2.788-1.72-5.478-9.007 4.408-9.677 6.713-.443 22.242-23.253 30.237-15.707 4.95 4.4-12.77 7.95-12.67 7.84-1.225 1.288-7.273 8.198-6.64 9.66 2.583 5.947-3.235.096-3.6 5.766.026-.463 20.192-5.008 22.402-7.38 2.568-2.755-.322-6.207 2.6-8.736 2.81-2.427 7.946.604 11.886.306-1.964 7.998 6.592 13.904 12.835 15.976 4.16 1.38 7.702 6.433 11.71 6.766 4.98.406 1.34 3.61 3.442 6.793.818 1.003 1.87 1.47 3.16 1.4.808 1.398-.064 5.1.374 6.49 1.962 6.212 4.527 5.3 4.48-.46-.04-3.918 4.776 5.756 4.764 5.733 2.592 4.57 3.716-10.818 5.615-9.82 2.146 1.12-.533 9.548.2 11.682.82 2.22 2.217 3.946 4.187 5.178-.395 2.625-2.44 5.466-2.5 7.946-.143 5.92 8.04 15.914 4.176 21.066-.006.057.12-.07.187-.132-.13 1.682.03 3.337.48 4.964 1.46-2.574 3.277-3.49 5.453-2.747-2.86-1.044-10.78 19.198-4.963 17.198 4.534-1.556 6.46.227 2.715 4.927.063-.078 1.088 8.703.842 8.393.926 1.18 2.423.144 3.824-.79-.21.22-.26.286.018-.005 4.072 4.324-2.014 4.322-4.448 7.12-.05.058 1.717 2.056 1.033 3.717-1.03 2.475 4.563 9.588 6.98 10.222 5.186 1.36 16.804 30.154 5.55 31.422 4.57-1.01-8.103-14.793-8.323-8.9-.226 6.964.832 14.18-1.626 20.015-3.29 7.766-5.137 16.494-9.533 23.712-2.12 3.48-2.123 7.472-1.91 11.375.17 3.062-3.966 10.41-2.9 12.52 2.54 5.065-1.557 15.897 4.868 19.028 2.933 1.434 2.087 8.6 1.73 11.535-1.03 8.092 4.552 15.937 10.607 19.093 10.714 5.58 9.71 12.753 13.263 23.05 1.187 3.442 1.625 9.357 4.58 11.883 2.66 2.29 6.27 6.833 5.346 10.703-.34 1.42-4.654 3.667-2.503 5.635 2.125 1.95 5.415 2.42 7.165 4.8 1.9 2.593 4.5 3.565 4.417 7.197-.103 4.45-1.118 4.314 2.314 7.684 1.137 1.11 13.114 12.86 9.76 6.23-1.317-2.55-4.105-3.35-5.41-5.708-1.46-2.64-1.683-7.18-2.413-10.118-1.5-6.036-4.88-11.935-7.905-17.495-4.3-7.907-7.31-11.618-6.783-20.86.23-4.112 3.693-2.082 5.757-1.18 5.047 2.208 4.295 7.79 5.77 12.49 1.712 5.44 6.467 14.52 10.83 18.262 4.464 3.83 3.032 9.443 6.66 11.903 4.804 3.257 9.15 9.737 12.282 14.704 2.186 3.464 3.606 6.91 4.69 10.85 1.57 5.702-3.184 8.358.203 13.754 6.376 10.18 28.417 17.17 39.333 21.444 3.71 1.452 7.653 3.01 11.72 2.13 2.662-.576 5.292-3.233 8.13-2.652 7.004 1.41 10.858 9.845 16.637 13.4 4.3 2.645 17.998 6.296 23.054 4.91.92-.248 8.052 10.69 10.45 12.113.346 5.744-.06 7.214 5.26 7.93 2.526.342 5.9 4.772 6.952 6.756 1.693 3.202 7.646 2.227 10.64 3.21.707 1.395 7.622 7.036 8.305 2.974.5-2.944 2.977-10.104 7.586-8.15 5.202 2.187 4.896 8.035 7.506 12.564 1.962 3.402 4.91 18.42 2.157 21.908-8.54 10.837-21.632 18.173-20.286 33.85.258 2.868 8.355-1.12 5.1 5.27-2.812 5.526-12.477 8.933-6.4 17.54 3.716 5.266 11.373 7.078 13.533 14.482 2.582 8.792 8.624 16.765 13.423 24.417 1.84 2.937 1.694 6.496 3.493 9.248 2.57 3.93 7.394 6.265 11.118 8.89 7.333 5.17 14.583 8.983 21.492 14.997 4.793 4.172 3.94 15.393 4.37 21.18.55 7.405.563 17.188-.28 24.57-1.918 16.81-4.51 35.904-.105 52.654 1.204 4.6-3.46 23.8-6.38 27.5-2.317 2.937 2.005 9.636 3.048 12.264 1.578 3.97-1.36 10.716-.966 15.055.372 4.14 2.766 4.506 5.438 3.622 5.084-1.602 2.356 11.08 2.353 12.18-.023 5.33 1.533 6.276 2.58 10.536.665 2.697-2.908 9.825-3.474 12.923-1.28.045-9.823-4.854-6.79 2.15 1.116 2.575 5.685.647 6.138 4.167.33 2.524-1.074 6.41 2.164 7.494.915.31 1.018 1.624.71 3.173h39.54c2.52-3.98 5.617-10.678.162-11.792-6.292-1.288-12.077-7.938-6.873-13.588 3.256-3.535 9.575-4.312 7.35-10.812-.23-.672 1.33-10.272 1.76-10.842.51-.668 9.333 1.36 5.4-2.396-.248-.236-6.217-.79-5.804-.55-2.713-1.574-2.846-5.698-3.47-8.337-1.257-5.337 10.557.6 12.534-.31 3.16-1.454 3.22-10.652 2.156-13.632-1.89-5.248 4.344-3.214 6.744-3.1 8.193.396 16.576-2.044 19.8-9.872 3.217-7.817-3.292-5.563-1.99-12.777.06-.327-9.736-12.18-7.017-11.022 6.52 2.778 11.228 5.004 18.77 5.313 6 .232 5.854-5.31 8.98-8.436 4.896-2.99-.624-5.95-1.076-2.956.447-3.087 3.915-4.034 5.168-6.32 1.576-2.875 2.423-6.027 4.197-9.14 1.41-2.48 1.606-6.166 4.918-4.394 2.408 1.287 7.754-10.523 8.867-12.64 2.478-4.665-.47-8.002-.05-12.7.454-5.104 4.04-7.895 7.543-11.065 3.796-3.452 8.42-4.53 12.27-7.605 5.794-4.63 6.575-3.913 14.066-4.188 13.45-.492 18.56-32.913 18.794-42.917.15-6.395-1.183-11.71.556-17.96 5.827-2.778 5.42-4.597 9.174-9.984 8.354-11.972 14.38-13.83 10.51-29.57-1.466-5.97-13.436-7.075-17.84-12.065-5.482-6.22-21.454-9.356-29.422-8.065-.574.093-5.92 3.834-6.257 1.545-1.048-7.14-2.885-4.99-8.01-8.233-11.477-7.25-13.15 2.24-21.586 6.983.047-2.473-1.74-1.938-2.702-3.563-.03-.052 8.124-4.564 8.763-7.658 1.168-5.722-15.935 1.973-17.7 1.227.613-3.43 11.586-11.71 8.692-14.867-5.17-5.654-6.033-13.044-11.602-18.476-4.193-4.09-12.635-7.626-18.554-7.292-5.818.335-9.012.484-13.684-3.3-2.635-2.136-4.27-4.196-6.798-6.274-1.85-1.515-13.2-7.564-13.08-7.98 1.565-5.463-11.404-4.662-9.195-9.175 1.064-2.172-14.385 2.833-16.22 1.507-3.354-2.416-7.663-1.166-11.397-1.098-3.614.068-4.258-4.284-7.898-5.227-9.502-2.46-13.175 2.477-13.175 10.456 0 4.06-7.384 1.88-3.23-4.853 1.593-2.594-1.202-4.197-.343-6.67.693-1.997 4.014-2.02 2.985-4.543-.38-.91-15.038 6.063-15.455 6.787-1.393 2.38-3.715.18-5.62 1.253-3 1.69-2.8 4.97-3.886 7.746-.712.575-8.06 8.903-6.942 8.787-4.52.454-7.785-8.792-14.69-8.054-6.89.737-13.804 7.424-19.634-.903-5.667-8.093-5.974-10.505-4.155-20.268.61-3.272 1.78-6.12 2.056-9.435.41-4.924-3.657-3.527-6.716-6.07-5.51-4.593-16.67.143-23.11-1.267-1.87-.405 2.186-17.354 3.74-17.33 2.304.058 4.47-10.286 6.81-13.368 6.224-8.227-12.92-3.16-14.922-3.074-2.88.11-9.81 14.71-10.817 17.414-.048.132-16.964 2.206-18.43 1.762-12.463-3.782-18.146-20.68-16.617-32.273 1-7.575 4.496-15.2 4.31-22.72-.32-13.124 8.57-9.713 14.897-16.245 6.265-6.47 10.917-.563 18.32-3.88 3-1.33 11.4 9.13 12.897-.14 1.188-7.354 15.118-5.237 20.23-4.348 2.774.483 6.297 4.86 9.072 3.547 4.066-1.93 5.39-.573 7.955 2.792 1.016 1.33 8.57 32.687 12.72 27.237 9.772-12.856-7.02-30.266 2.957-44.447 2.612-3.726 10.26-7.49 13.973-10.565 3.683-3.05 9.917-8.8 13.828-10.964 4.825-2.73-2.035-3.954 1.8-6.057 3.89-2.098-2.89-21.583 2.685-21.89.748-.045 1.396 11.382 4.505 8.113 3.352-3.516-1.17-8.208 4.087-8.453 5.76-.298 4.404-7.597 6.48-10.778 3.603-5.525 12.635-1.51 15.452-5.847.72-.704 1.57-.938 2.547-.7 4.74-.51.774-3.578 1.806-6.103 2.377-5.803 3.872-9.045 9.8-11.894 4.135-1.988 13.66-2.17 14.778-7.265 3.59-.647 7.037-1.167 10.48-2.438-.628.23 9.827-1.885 6.202 1.896-1.666 1.705-6.902 2.182-9.27 3.338-2.502 1.222-4.93 9.593-.607 8.104 4.056-1.374 5.062-4.855 8.434-6.697 3.845-2.102 9.66-1.527 13.837-3.98 3.48-1.984-10.25-4.773-11.894-6.347-2.927-2.796-5.08-6.958-3.11-11.152.994-2.125-4.408-1.604-4.383-4.28.01-.575 7.318-1.014 8.163-3.63 1.233-3.822-4.9-5.293-7.355-4.686-5.814 1.442-12.164 2.753-16.928 6.622-1.566 1.27-11.156 7.522-11.146 7.508 4.497-6.194 10.88-13.636 18.23-16.435 7.9-3.007 7.15-8.73 16.416-7.91 8.973.796 17.96 1.99 26.944 1.364 3.183-.22 5.96-2.643 7.824-5.022 3.003-3.837 6.623-2.356 10.674-3.75 4.765-1.644 10.212-9.552 6.827-14.835-1.566-2.436-3.74-.21-5.063-1.59-.85-.885.404-2.727-.463-3.868-3.506-4.612-13.09 8.293-15.733 5.554-4.352-4.46 15.074-9.064 14.093-10.727-1.57-2.613-12.394-3.046-12.22-6.16.22-3.957-9.68-10.375-4.926-13.26 4.557-2.768-1.068-12.87-4.03-16.334-.542-.632 2.26-2.624 1.5-4.272-2.044-4.46-2.233-9.435-2.87-14.22-3.112.522-5.263 7.12-6.824 9.312-3.292 4.62-8.256 8.343-13.902 9.727-7.02-4.467-9.09-14.73-5.907-20.953 1.562-3.05 3.893-6.765-.942-8.22-5.84-1.76-6.002-4.885-8.52-9.832-2.274-4.472-22.223-11.287-25.485-6.022-2.15 3.47.967 6.605-1.44 10.446-2.842 4.532.865 9.318-1.065 13.63-1.814 4.057-7.395 6.02-9.474 10.027-.48 2.273.336 4.162 2.44 5.666 2.167 3.67 2.147 8.726 1.905 12.84-.395 6.968-.94 7.853-7.12 12.076-3.142 2.147-13.877 4.35-13.548 9.1.177 2.56-1.52 29.74-4.133 28.773-6.58-2.394-10.03-4.867-13.836-13.833-1.725-4.06 5.87-21.818 2.208-22.6-12.163-2.59-17.705-6.504-25.95-16.01-2.424-2.795-6.832-4.98-10.133-6.656-3.772-1.914-7.39 2.124-11.08.57 2.86-5.78 3.036-10.123 1.645-16.605-.514-2.46-4.326 2.445-4.927.295-1.187-4.25-.188-9.01 1.39-13.075 2.857-7.352 8.257-12.563 13.112-18.64 2.34-2.92 3.67-3.162 6.48-5.32 4.864-3.735.766-6.23 2.926-9.157.896-1.25 7.334 6.458 9.903 1.358 1.544-3.067-5.042-6.258-3.897-7.48 1.97-2.108 9.666 5.484 10.72-1.205.686-4.107 7.397 1.5 10.303-1.244 5.304-5.002 11.83-7.723 3.038-11.376-2.04-.85-6.88-9.06-2.527-8.46 3.756.52 4.11 8.886 9.067 7.5 2.32-.65 10.283-6.08 8.266-9.113-3.463-5.227 5.844-2.7 7.795-.538 5.71.374 3.087-2.52 1.925-6.34l.917-.818c2.76.958 3.927 3.073 3.5 6.344.786 3.093 5.817-.733 6.16-.96 10.28-6.852 5.75-6.87 7.04-16.9.696-5.392 5.19-3.11 7.483-8.404 1.866-4.31-3.753-8.37-7.047-10.585-9.153-6.156-5.956 5.898-9.7 9.208-4.307 3.807-8.018 7.38-11.517 12.2-4.69 6.463-8.52 5.635-8.49-3.534.015-4.066 4.513-6.67 3.806-10.445.63 3.36-1.17-8.216-3.393-4.81-.474.725-10.36 11.626-7.418 4.526 3.448-8.273.662-8.79-3.524-13.184-2.76-2.896 4.22-7.234 5.8-8.85 1.482-1.517.597-16.664-.152-19.13-1.74-5.73-9.02-6.93-7.725.006.476 2.56-11.98 1.59-8.453 9.57 1.64 3.714-8.563 6.755-2.347 12.954 3.457 3.448 10.57 4.023 10.585 9.102-8.015-.63-4.87-.77-6.57 4.212-1.343 3.93-4.937 7.14-8.8 8.796-5.6 2.404-5.05 2.65-6.037 9.283-.8 5.344-8.793 2.792-7.625 1.476.314-.358 3.934-.13 3.324-1.717-1.703-4.464-1.166-5.14 1.73-9.205-3.273-6.806-11.314-8.013-7.374.64-10.585.444-29.615-1.84-32.095-14.567-.402-2.067.687-7.565-3.3-7.286-2.987.206-8.276-.56-10.453 2.036-3.085 3.683 11.915-.545 12.42 1.607.927 4.065-13.69 5.162-14.815 8.91.054-.18-5.453 17.198-7.033 10.848-1.064-4.233.38-16.51-6.586-14.9-2.288.53-25.468-.613-20.828-7.407 2.563-3.77 15.715-3.794 6.405-11.06-2.258-1.76-5.93-.945-8.73-3.047-2.988-2.24-6.292-4.538-8.967-7.15-3.254-3.176-6.347-14.367-12.49-7.94-7.87 8.206-4.867-3.878-4.18-6.838-3.092-.194-5.26 7.625-8.05 6.25-5.332-2.608-1.012-13.356-1.475-17.965-.505.12-4.884 5.247-5.956 5.847-4.927 2.758-8.53.47-13.244 3.353 6.98-4.282-12.128-.278-15.28 1.796 5.038-3.313 9.376-4.418 15.297-4.686 4.78-.23 7.985-7.113 3.328-4.72-3.79 1.937-13.774 5.462-17.815 5.445-2.827-.016-6.225 1.963-8.767 2.844-.188.53-.82 9.477-3.413 7.817-1.34-.858-2.352-3.768-3.384-4.822-2.2-2.225-6.504-4.68-7.622-7.744-2.31-6.283-3.792-9.353-9.463-12.984-3.817-2.444-4.31-4.77-6.98-8.106-2.22-2.776-5.704-.463-8.144-2.306-3.623-2.72-15.708-7.304-15.727-12.29-.012-3.232-5.31-1.116-6.146-.938-3.443.745-3.86-4.053-4.756-6.133-.922-2.14 1.697-4.368-.957-5.79-2.247-1.205-5.717-.15-7.056-2.912 1.412 2.912-13.71-1.807-5.763-3.74.902-.22 5.42-.244 3.768-2.757-2.585-3.91-6.735 1.33-9.866 1.897-2.74.497-6.283-.98-8.994-1.36-3.528-.488-3.287 2.747-5.403 4.54-4.212 3.572-11.493.5-17.03 3.964-5.832 3.65-10.97 9.368-17.835 11.053-5.815 1.427-15.634-4.896-17.234 6.144-.99 6.84 3.5 12.105 1.413 19.842-1 3.71 6.72 2.91 4.996 7.654-2.08 5.717 9.897 3.318 6.51 8.074-1.104 1.547-11.534 3.476-13.95 3.673-14.717 1.206-.474-19.332-16.898-8.107-1.292.883-18.784.51-15.224 6.59 5.03 8.583 1.963 3.51-1.68 12.608-2.314 5.8 16.634 7.548 19.176 6.41 5.853-2.622 11.297-3.578 6.61 2.646-2.566 3.408-3.364 17.083-11.437 13.754-5.48-2.24-14.062 4.417-18.032 7.18-2.16 1.503-5.844.16-7.977 1.76-3.54 2.65-5.917 6.482-9.513 9.07-5.677 4.1 6.97 11.518 6.96 11.903-.125 3.946-10.807-3.775-9.228 4.48 1.906 10.093 5.884 8.025 11.34 2.975l.68-.185c1.584.015-.98 10.292-1.505 11.5-3.17 7.3-.76 6.916 5.314 10.07 1.158.597 14.234 3.9 14.304 3.786-5.82 9.584-13.83 17.965-24.07 22.892-3.586 1.725-8.59 8.02-11.39 8.858-1.39.417-16.604-1.968-13.017 5.66-.81-1.668 22.338-5.917 23.66-7.142z"/></g><path fill="#1A2840" d="M1834.63 1083c1.557-1.738 2.67-3.69 2.73-6.096-.02-1.79-.01-.31-.004-.028-.075-2.09-6.63-11.35-8.17-7.76-1.842 4.338-4.887 9.546-8.195 13.884h13.64z"/><path fill="#18375E" d="M729.275 1028.542c27.42 11.775 44.043 31.52 56.637 54.458h28.443c-4.404-17.654-8.234-36.603-5.334-58.825 5.713-43.777-47.11-92.512-86.5-77.177-20.678 8.053-35.064 13.776-36.017 41.348-1.043 30.188 18.74 29.87 42.772 40.196z"/></svg>