<svg xmlns="http://www.w3.org/2000/svg" width="200" height="200" viewBox="0 0 200 200"><g fill="#16335A"><path d="M99.792 146.498c-23.183 0-46.366.002-69.55 0-7.125-.002-11.187-4.064-11.188-11.196-.002-34.67-.002-69.343 0-104.014 0-7.08 4.137-11.235 11.188-11.235 46.505-.002 93.01-.002 139.516 0 7.055 0 11.188 4.146 11.188 11.235.005 34.67.005 69.342 0 104.014 0 7.136-4.062 11.194-11.188 11.195-23.322.003-46.645 0-69.966 0zm.425-116.404h-59.57c-7.42 0-11.565 4.118-11.568 11.552-.012 22.693-.01 45.386-.002 68.08.003 7.456 4.113 11.59 11.55 11.59 39.576.01 79.15.01 118.726 0 7.45 0 11.566-4.124 11.57-11.57.01-22.695.01-45.388 0-68.08-.004-7.44-4.143-11.57-11.553-11.57-19.718-.003-39.434 0-59.153-.002zM79.747 151.762h40.507c0 4.47.068 8.813-.04 13.15-.034 1.465.534 2.14 1.733 2.865 3.838 2.324 7.594 4.787 11.32 7.285 1.018.684 1.92 1.604 2.705 2.556 1.375 1.667 1.024 2.96-1.072 3.567-1.572.455-3.256.725-4.892.73-19.993.046-39.99.04-59.983.01a19.508 19.508 0 0 1-4.313-.5c-2.74-.635-3.275-2.288-1.294-4.24a37.61 37.61 0 0 1 5.28-4.33 97.1 97.1 0 0 1 8.323-5.056c1.36-.735 1.8-1.557 1.763-3.062-.105-4.272-.036-8.55-.036-12.976z"/></g><path fill="none" d="M-438.48-415.758c47.488 0 94.976-.003 142.464.002 17.846.002 27.813 9.945 27.82 27.86.023 54.653.024 109.306 0 163.958-.008 17.938-9.923 27.868-27.864 27.872-95.31.02-190.617.02-285.926 0-17.913-.005-27.812-9.956-27.82-27.913-.02-54.65-.023-109.304.003-163.956.01-17.904 9.988-27.82 27.86-27.82 47.822-.005 95.642-.003 143.464-.002zM-516.226 404.896v-130.7h218.04v130.7h-218.04zM-275.873 340.077c0 12.146-.068 24.292.04 36.437.034 3.867-.983 6.717-5.325 6.807-4.573.095-5.834-2.802-5.824-6.897.054-24.457.053-48.914 0-73.37-.01-4.03 1.164-7.12 5.677-7.116 4.62.004 5.505 3.222 5.47 7.21-.104 12.306-.038 24.62-.038 36.93zM-538.145 350.385c-6.257.105-11.13-4.674-11.12-10.906.012-6.034 4.638-10.737 10.673-10.85 6.164-.114 11.245 4.82 11.224 10.9-.022 5.908-4.834 10.754-10.777 10.855zM-516.5 98.81c12.152-.002 24.306-.026 36.46.01 5.314.016 7.765 1.864 7.475 5.732-.342 4.558-3.42 5.438-7.392 5.427-24.306-.07-48.61-.068-72.917-.005-4.022.012-7.108-1.062-7.195-5.595-.09-4.69 3.162-5.61 7.11-5.59 12.153.055 24.307.02 36.46.02z"/></svg>