<svg xmlns="http://www.w3.org/2000/svg" width="200" height="200" viewBox="0 0 200 200"><path fill="none" d="M-438.48-415.758c47.488 0 94.976-.003 142.464.002 17.846.002 27.813 9.945 27.82 27.86.023 54.653.024 109.306 0 163.958-.008 17.938-9.923 27.868-27.864 27.872-95.31.02-190.617.02-285.926 0-17.913-.005-27.812-9.956-27.82-27.913-.02-54.65-.023-109.304.003-163.956.01-17.904 9.988-27.82 27.86-27.82 47.822-.005 95.642-.003 143.464-.002z"/><path fill="#16335A" d="M113.135 180.425c-19.768 0-39.536-.01-59.304.01-2.838.005-5.485-.513-7.75-2.323-2.08-1.662-3.312-3.783-3.313-6.512-.002-20.916-.025-41.834.018-62.752.01-4.565 3.688-8.136 8.756-8.73.91-.106 1.836-.09 2.755-.09 39.23-.004 78.46-.026 117.69.055 2.22.004 4.604.486 6.626 1.39 3.165 1.41 4.825 4.17 4.827 7.727.015 20.688.027 41.374-.008 62.062-.01 4.854-3.696 8.527-8.928 9.082-.985.105-1.99.08-2.983.08-19.46.002-38.922 0-58.385 0zM62.92 170.287h100.24v-60.085H62.92v60.085zm110.498-29.8c0-5.66-.03-11.32.018-16.978.016-1.834-.393-3.314-2.516-3.314-2.074-.002-2.613 1.42-2.61 3.27.024 11.245.025 22.488 0 33.732-.003 1.883.577 3.214 2.68 3.17 1.993-.04 2.464-1.35 2.448-3.128-.05-5.584-.02-11.168-.02-16.752zM52.845 145.23c2.732-.048 4.944-2.276 4.955-4.993.01-2.793-2.326-5.063-5.16-5.01-2.774.05-4.9 2.213-4.906 4.986-.005 2.866 2.234 5.062 5.11 5.016z"/><path fill="#16335A" d="M93.08 39.777H32.796v100.458l4.726.22v19.67c-2.614 0-5.154.272-7.612-.062-3.82-.52-6.84-4.377-7.264-8.727-.052-.53-.048-1.07-.048-1.607-.002-39.84-.018-79.683.05-119.522.003-1.848.47-3.827 1.23-5.514 1.508-3.344 4.28-5.114 8.023-5.117 20.61-.01 41.22-.023 61.83.008 5.193.008 9.118 4.143 9.238 9.743.104 4.825.03 9.653.03 14.48V94.748H93.08V39.78zM62.794 29.57c-5.587 0-11.175.018-16.76-.008-1.817-.008-3.312.413-3.27 2.57.04 2.084 1.457 2.578 3.307 2.573 11.174-.03 22.348-.032 33.52 0 1.828.007 3.242-.4 3.4-2.494.133-1.778-.994-2.627-3.438-2.635-5.585-.015-11.172-.004-16.76-.004z"/><path fill="none" d="M173.418 140.488c0 5.584-.03 11.168.02 16.75.016 1.78-.455 3.09-2.45 3.13-2.1.043-2.68-1.288-2.677-3.17.025-11.245.024-22.488 0-33.732-.003-1.853.536-3.272 2.61-3.27 2.123 0 2.53 1.48 2.516 3.312-.05 5.66-.018 11.32-.018 16.98zM52.845 145.23c-2.876.048-5.116-2.15-5.112-5.017.005-2.773 2.132-4.936 4.906-4.986 2.833-.053 5.168 2.217 5.16 5.01-.01 2.715-2.223 4.945-4.955 4.992zM62.795 29.57c5.586 0 11.174-.01 16.76.006 2.445.008 3.57.856 3.438 2.636-.157 2.095-1.57 2.5-3.398 2.495a5945.29 5945.29 0 0 0-33.52 0c-1.85.003-3.27-.49-3.31-2.573-.04-2.158 1.455-2.58 3.27-2.57 5.586.024 11.173.007 16.76.007z"/></svg>