<svg xmlns="http://www.w3.org/2000/svg" xmlns:xlink="http://www.w3.org/1999/xlink" width="1600" height="1600" viewBox="0 0 1600 1600"><defs><path id="a" d="M1579.063 360.408L23.01 361.534l.636 878.055 1556.05-1.537z"/></defs><clipPath id="b"><use xlink:href="#a" overflow="visible"/></clipPath><path opacity=".2" clip-path="url(#b)" fill="#1D3E56" d="M538.065 904.69c3.418-8.165 2.346-15.97 7.29-19.824 4.946-3.852 8.802-9.443 12.01-13.16 3.21-3.72 1.42-4.274 8.528-2.743 7.11 1.534 14.947-11.796 22.98-9.61 8.033 2.19 5.813 4.57 12.29 6.193 7.12 1.784 10.13 12.557 7.55 24.432-2.577 11.872-20.234 28.022-9.862 47.006 21.267 38.915-1.597 32.947-9.22 26.364-6.164-5.323-43.898-27.4-49.255-34.06-8.245-10.258-4.526-19.31-2.31-24.598z"/><g><defs><path id="c" d="M1579.063 360.408L23.01 361.534l.636 878.055 1556.05-1.537z"/></defs><clipPath id="d"><use xlink:href="#c" overflow="visible"/></clipPath><path opacity=".1" clip-path="url(#d)" fill="#0F2335" d="M597.62 889.616c.11 1.456-.596 3.31-.98 5.076-.298 1.38-6.755 6.4-8.645 7.947-4.463 3.656-9.937 5.27-12.12 16.79-1.503 7.96 7.654 19.506 4.97 21.09-3.505 2.075-16.797-4.907-18.478-6.36-1.217-1.05-2.296-1.83-3.25-2.515-2.656-1.917-2.75-4.493-4.25-9.05-2.01-6.127-8.902-1.913-4.033-10.672 2.605-4.683 2.275-6.59 4.293-11.012.91-2.113 2.516-4.037 3.572-4.815 3.5-2.554 4.724-3.44 6.704-5.735 1.15-1.335 5.426-.413 8.546.26 4.548.98 7.13-3.07 8.832-5.748 1.613-2.54 1.912-2.715 2.71-2.498 2.36.643 2.973 1.167 3.683 1.77 1.306 1.12 2.617 2.1 5.435 2.806.994.25 2.787-.21 3.01 2.666z"/></g><g fill="#1D2F49"><path d="M708.925 1410.318c-10.637-.477-21.26-1.278-31.885-1.948 11.01.12 22.024.436 33.027.196 2.07-.045 5.785-2.188 5.868-3.54.532-8.627.262-17.3.255-25.626-13.962.964-26.352 4.002-37.875 2.008-11.85-2.05-23.19-1.818-34.51.014-16.63 2.69-32.77 1.088-49.323-.545-5.912-.582-12.305.86-18.313-1.9-.382-.177-1.232.178-1.607.544-3.634 3.572-7.21 7.197-10.14 10.14 4.816 2.38 10.924 5.394 16.99 8.403-12.29-4.463-17.574-2.81-16.382 5.39-9.11.748-18.245 1.205-27.288 2.378-3.96.516-8.058 1.938-11.505 3.953-3.854 2.26-4.726 6.323.317 7.922 7.207 2.282 15.5 5.945 22.097 4.244 10.642-2.747 13.525 7.367 22.38 7.302-10.446 7.137-19.094 13.05-27.722 18.942 2.695 1.873 5.48 3.802 8.262 5.732-7.738.14-14.615-.773-21.457-1.89-24.918-4.062-49.826-8.19-74.734-12.312-1.135-.188-2.878-.203-3.258-.895-3.58-6.49-8.108-5.647-15.02-5.142-10.77.785-21.722-3.12-29.615-12.665 4.626 1.574 9.25 3.142 13.877 4.715.166-.554.33-1.108.494-1.664-9-2.717-18.003-5.436-27.005-8.15.13-.72.263-1.442.396-2.163l16.2 1.278c-16.71-7.453-35.646-9.488-48.7-24.645 9.553 3.015 19.108 6.03 28.596 9.02-.003-4.77 1.58-10.013-.34-12.25-3.923-4.574-9.222-7.102-13.264-12.832-6.807-9.656-18.11-16.298-28.046-23.488-2.624-1.897-7.16-1.155-10.817-1.623 2.765-4.32 1.053-7.223-3.045-9.213-2.866-1.39-6.235-2.045-8.692-3.93-15.81-12.1-31.43-24.448-47.114-36.718 3.237 6.53 6.326 13.136 11.375 17.455 13.583 11.62 27.952 22.322 42.185 33.156 1.013.772 3.452-.332 5.228-.558-3.998 7.265-8 14.536-11.998 21.805-1.276-6.02-7.453-10.33-12.158-7.25-7.854 5.15-14.01 1.654-20.838-1.61-4.017-1.92-8.494-2.875-13.018-4.347l-.172 3.955-22.007 3.91c-.136.66-.274 1.314-.412 1.975 5.752 1.177 11.5 2.353 14.424 2.948 2.764 4.493 3.656 7.98 5.73 8.958a359.27 359.27 0 0 0 30.033 12.516c1.97.718 4.957-1.36 7.458-2.112.417 3.756.816 7.545 1.253 11.702-.236-.03-1.526-.203-3.407-.453 1.52 2.46 3.044 4.517 4.11 6.785.986 2.1 1.48 4.43 2.192 6.66-2.08.444-4.146.976-6.243 1.316-2.375.385-4.775.6-7.878.974 2.87 3.718 4.617 7.307 7.46 9.442 17.897 13.454 35.993 26.65 54.117 39.803 9.035 6.555 17.54 14.483 27.557 18.923 22.732 10.07 45.144 20.738 69.37 27.73 22.912 6.615 45.115 15.42 69.173 17.265 6.65.51 13.332.642 19.958 1.34 10.25 1.077 20.502 2.245 30.68 3.835 14.492 2.262 28.905 5.02 43.374 7.422 15.25 2.53 30.532 4.895 45.8 7.33.198-1.21.397-2.418.597-3.627l-31.802-3.95c-.01-.47-.02-.94-.027-1.405 3.746-.264 7.492-.52 13.177-.912-4.796-1.044-7.634-1.64-10.46-2.28-10.02-2.267-20.063-4.436-30.026-6.93-1.587-.394-2.807-2.26-4.198-3.446.907-.95 1.755-2.658 2.732-2.733 10.32-.81 20.704-2.245 30.98-1.72 9.42.48 18.73 3.147 29.573 5.123-1.585-3.692-2.525-5.883-3.486-8.117 3.735-1.554 7.454-3.1 12.888-5.358-11.003-2.994-19.987-5.116-28.968-7.563.12-.672.235-1.687.354-1.688l61.78-.045c-.02-29.16-.097-58.952-.012-88.74.018-5.56-3.237-6.33-7.547-6.524z"/><path d="M1316.506 1219.83c-13.288 9.53-27.73 19.317-40.684 29.53l-.006-7.488c-15.385 6.438-27.682 12.854-40.64 18.98-2.53-3.16-5.02-5.96-7.542-9.106a714.886 714.886 0 0 1-8.144 5.76c-9.575 6.67-17.59 15.516-32 12.306-6.33-1.408-14.23 4.36-21.476 6.646-2.694.85-5.604 1.063-9.28 1.723-.077.802-.34 3.393-.71 7.16-2.77-.78-4.994-1.403-7.213-2.027.017-.627.03-1.26.047-1.89-.372.74-.747 1.476-1.117 2.216-1.715.995-3.428 1.996-5.32 3.1-.226-3.7.32-6.78.134-9.86-.637.072-1.175.147-1.175.22.002 4.196.004 8.395.01 11.585-22.677 8.16-43.052 16.016-63.8 24.37-1.646.665-2.267 4.795-3.187 7.274-2.735-6.005-7.222-5.106-11.953-2.66-17.447 9.032-35.15 17.774-52.42 27.137-12.285 6.66-24.405 13.782-36.134 21.377-9.365 6.06-19.21 6.626-29.63 4.958 15.35-10.4 30.692-20.804 46.046-31.204-9.21-.25-17.235 1.64-25.364 2.498-10.677 1.124-21.445 1.84-32.172 1.83-2.86-.003-5.62-4.563-8.59-4.775-4.546-.322-9.57.498-13.786 2.276-8.88 3.75-17.268 8.657-26.054 12.66-5.835 2.657-12.075 5.24-16.915-1.87l-1.516 2.464c-4.348-1.76-7.653-3.1-11.436-4.63-.444 3.875-.68 5.943-1.103 9.652-1.045-3.813-1.228-5.842-1.784-7.87-.44.13-.953.26-.953.39l.007 7.79c-7.29 3.038-13.81 4.755-18.884 8.583-8.878 6.703-17.04 7.928-26.43 1.227-2.077-1.482-6.658-.54-9.656.44-4.68 1.527-8.99 5.608-13.583 5.87-22.7 1.29-45.173 9.354-69.45 1.81.005 9.36-.34 17.635.29 25.837.128 1.678 3.83 4.34 5.95 4.4 11.003.317 22.02-.068 32.997-.204-10.244.68-20.53 1.82-30.818 1.884-6.607.037-8.79 2.277-8.676 8.814.338 19.002-.11 38.023.377 57.02.106 4.032 2.87 7.996 4.406 11.99-1.507 1.038-4.22 1.974-4.316 3.132-.456 5.487-.196 11.032-.192 17.103 11.322.71 21.287 1.895 31.23 1.74 5.178-.08 10.32-2.52 15.52-3.882 7.273.72 14.664 2.52 21.886 1.993 25.56-1.87 51.085-4.316 76.577-6.988 16.025-1.68 31.995-3.94 47.93-6.33 17.106-2.565 34.142-5.587 51.21-8.41.228.62.46 1.242.69 1.862-1.46 1.677-2.92 3.356-5.56 6.395 14.877-2.257 27.39-8.696 41.618-5.948l1.712-6.22c1.054 7.353 4.818 8.11 10.395 5.755.372-3.688.69-6.822.833-8.255 18.423-6.032 35.536-11.796 52.758-17.217 11.418-3.597 22.965-6.787 34.52-9.937 1.9-.518 4.518-.55 6.13.375 7.14 4.098 12.863.444 18.754-2.804 7.273-4.45 14.55-8.898 21.82-13.347-7.27 4.448-14.547 8.896-21.85 13.366.102.537.233 1.052.362 1.57 7.654-3.26 15.334-6.448 22.886-9.922.56-.255.164-2.585.213-3.933 3.037-.312 6.696.395 9.005-1.054 15.687-9.838 31.257-19.892 46.496-30.407 5.778-3.99 10.615-9.353 15.754-14.22.345-.328-.394-1.79-.602-2.75 10.923-10.33 22.01-20.54 32.782-31.074 12.89-12.61 26.072-25.005 37.99-38.495 5.194-5.884 10.867-14.525 10.343-21.46-.626-8.267 4.836-9.69 7.942-13.906 1.313-1.778 3.3-3.13 4.35-5.024a2174.72 2174.72 0 0 0 19.065-35.253c1.286-2.424 3.82-5.992 2.966-7.57-2.976-5.465-6.896-10.286-11.874-17.083zM1453.63 552.39c-1.676-9.53-1.266-19.83-4.816-28.55-7.396-18.177-16.81-35.533-25.377-53.236-7.306-15.1-13.224-31.094-22.246-45.085-10.463-16.23-20.58-33.998-42.314-39.77.475 1.462.8 2.467 1.104 3.434 2.158 6.888 0 0 0 0-2.73-2.203-5.48-4.442-8.23-6.684-3.06 4.374-6.12 8.747-9.394 13.423l-4.803-.832c1.317 3.753 2.37 6.747 3.323 9.458-21.312-1.683-11.195 16.71-17.082 24.006l-25.952-2.133c.34 3.748.678 7.467.922 10.172l-17.037 3.088c5.137 6.11 9.598 12.265 14.917 17.555 8.5 8.455 18.564 15.54 26.01 24.782 3.93 4.88 7.244 12.546 1.17 20.096-3.15 3.924-4.035 9.686-5.885 14.638-1.635 4.38-3.19 8.787-4.774 13.182l-2.91-.505c-4.83-7.073-9.656-14.145-15.097-22.108 3.128 14.606-4.632 28.345 1.5 42.27 2.603 5.9 1.863 13.188 3.472 19.635 1.227 4.9 2.902 12.728 5.9 13.527 6.657 1.772 5.03 5.314 4.932 9.33-.107 4.426-.02 8.856-.017 13.286l-2.056-1.5c-2.35 1.516-6.875 3.326-6.716 4.5a281.99 281.99 0 0 0 5.54 29.113c1.72 7.024 4.432 13.8 6.644 20.706.33 1.038.347 2.178.508 3.27-9.073 1.27-2.056 6.433-1.922 9.457.236 5.362 2.045 10.636 2.716 16.005.456 3.658.09 7.418.095 12.9 1.254-2.297 1.408-2.944 1.815-3.218.265-.18.613-.23.98-.266-2.155 11.33-4.5 21.642-5.79 32.067-1.39 11.23-.08 22.98-2.764 33.806-2.89 11.66.257 18.8 9.785 24.71 1.668 1.03 3.626 4.763 3.012 5.793-4.02 6.73 2.968 8.998 5.453 11.115 13.02 11.09 22.992 23.047 18.288 43.114 2.97-1.337 5.356-1.622 6.067-2.864 3.308-5.79 6.685-11.642 9.037-17.85 4.257-11.207 7.734-22.71 11.672-34.04 2.576-7.414 6.41-14.544 7.888-22.15 2.846-14.677 4.548-29.153 6.484-43.994 1.065-8.165 4.424-16.043 3.754-24.043h.29c4.636-13 8.532-24.16 13.063-35.097.734-1.77 4.308-3.576 6.52-3.514 3.403.1 6.764 1.593 9.97 2.51-1.23-11.632-1.87-23.338-3.226-36.116 3.616 1.817 5.557 3.287 11.228 5.31l-.01-14c.005 5.808 1.24 11.613 2.192 17.662.492-1.818.68-3.62 1.418-6.355 4.58 5.897 8.426 11.042 12.512 16.306 15.168-15.805 9.306-34.825 7.168-53.872 3.413 1.444 4.883 2.082 6.387 2.72.675-2.065 2.186-4.27 1.867-6.17-2.188-13.03-4.9-25.976-7.186-38.994zM264.29 986.553c-1.49-6.62.683-9.965 7.654-7.643 10.864 3.62 23.288 2.74 32.215 12.377 2.258 2.438 8.953 3.397 12.127 1.897 13.066-6.175 21.433-16.712 25.176-30.972 1.087-4.145 3.22-8.6 6.256-11.436 1.97-1.84 8.855-.13 9.356-1.518 1.817-5.034 14.09 4.948 9.672-7.06-6.66-10.89-13.322-21.785-19.987-32.678 6.666 10.893 13.327 21.788 20.018 32.708 3.215 5.878 6.635 5.633 10.583.654 2.343-2.95 5.134-5.546 7.625-8.387 1.49-1.694 2.795-3.557 4.7-6.01-11.435-2.303-16.612-8-19.926-17.44-1.562-4.457-5.57-8.053-8.47-12.037 1.594-2.525 3.19-5.05 4.58-7.245-12.617-.497-21.43-8.508-21.703-18.98 3.013-3.07 5.212-5.23 7.41-7.472-.53-.627-1.058-.187-1.588-1.806l-7.446.006c-1.504 12.15-1.504 11.498-5.97 10.756 2.752-6.518-.605-20.6-6.94-25.14-2.75-1.973-7.042-1.823-10.632-2.625-.25 1.814-.41 3.77-.674 5.545 8.872 19.032 17.812 38.19 26.736 57.322-5.675 3.155-5.675 3.155 0 .002-8.924-19.136-17.863-38.3-26.735-57.332-4.557-11.7-13.88-21.837-12.728-35.622-2.242-7.986-4.506-16.01-6.75-23.998-1.898-4.3-2.203-9.826-5.752-12.948 3.55 3.123 3.837 8.62 5.738 12.918 2.24 7.988 4.48 15.97 6.724 23.954 2.612 4.195 5.225 8.384 7.835 12.58-1.04 8.915 4.452 11.23 13.932 12.736-4.302-6.05-7.17-10.41-10.268-14.765 2.475-1.758 5.064-3.51 9.112-6.3l-.028-38.805c0-.235-1.527-.862-2.735-1.665 2.64-1.03 4.185-1.68 4.098-1.646-4.01-2.214-8.684-4.76-13.3-7.308 1.135-.452 2.244-.905 3.38-1.356.435-2.904 2.257-7.097 1.01-8.454-2.983-3.243-7.427-5.15-11.668-7.847 11.19-9.844 3.87-18.517.304-27.042l5.586-2.804c-3.14-8.604-6.23-16.548-8.92-24.623-2.153-6.46-7.626-5.037-11.63-4.24-1.915.382-3.442 5.066-4.23 8.044-.656 2.478.024 5.31.112 7.984-.485-.717-1.246-1.378-1.41-2.164-.684-3.295-1.29-6.608-1.896-9.92 1.443-3.16 1.485-8.16 2.45-11.97.05-.187.285-.34.46-.495.058-.596.25-1.194.25-1.792l.008 8.956c4.86-.004 9.257-.008 13.4-.01-2.807-13.768-5.386-24.916-7.967-36.607-.884.202-1.77.146-2.654.348-.992 6.542-1.985 12.953-2.977 19.495-.64-2.315-2.143-4.44-5.314-6.018-.683-.34.005-4.628.89-6.71 1.74-4.103 4.318-7.87 5.975-12 .415-1.033-1.265-3-2.136-4.442-1.486-2.457-3.094-4.84-4.312-6.73-2.906.17-6.657 1.582-8.543.284-7.385-5.077-13.643-6.46-19.672 1.848-1.663 2.292-5.21 3.286-6.677 5.635-3.86 6.183-7.997 2.6-11.975.797-1.714-.78-2.968-2.582-4.382-3.875a97611.37 97611.37 0 0 0-2.982 17.196l.553 17.364-.557-17.406c-.007-6.2-.01-12.358-.015-16.994-8.72-4.78-15.786-4.253-20.575 4.51 1.695.976 3.014 1.734 5.443 3.13-5.472 1.925-9.738 3.426-13.98 4.89 2.17-5.548-1.68-5.24-4.446-3.697-1.984 1.107-3.39 4.074-4.107 6.49-3.375 11.355-6.537 22.8-9.835 34.593-2.097.784-4.128 2.113-4.46 3.403-4.078 15.882-13.135 30.65-11.638 47.775.608 6.974 2.394 13.84 3.48 20.78 1.846 11.792 3.562 23.602 5.332 35.403-3.628 6.552-7.755 12.893-10.668 19.744-1.417 3.338-.57 7.635-.762 11.46-1.75-4.136-3.856-4.95-6.52-.647-6.342 10.26-13.097 20.29-18.876 30.86-3.125 5.714-4.27 12.478-6.876 18.52-4.23 9.81-8.81 19.474-13.474 29.09-3.22 6.64-9.71 11.918-5.722 21.06 1.278 2.924-1.843 7.667-2.67 11.636-.826 3.963-2.337 8.18-1.667 11.95.81 4.563 4.263 7.21 11.046 2.884l-1.667 23.472c-1.54-1.064-3.08-2.13-6.072-4.195 1.087 6.956 3.25 11.967 2.277 16.26-2.638 11.63-5.42 22.895 2.74 33.707-2.347 1.01-4.015 1.725-5.94 2.553l5.83 11.04c1.272-4.532 2.194-7.818 3.113-11.063 3.037 1.515 6.07 3.07 9.103 4.628-6.857 3.864-13.777 7.528-9.004 17.55 4.59 9.632 8.778 19.46 13.144 29.2-5.085.12-5.858 1.013-2.497 3.955 4.62 4.035 10.514 6.62 15.864 9.827.41-.656.82-1.31 1.23-1.962-3.714-3.226-8.07-6.45-11.752-9.646 2.64.666 6.005 1.363 6.816 1.923l-.013-16.756c4.862 2.02 4.576 3.05 5.964 4.123 3.096-8.71 2.738-18.154-1.476-26.057-5.49-10.3-3.44-13.733 7.19-13.787.967-2.456 2.43-4.66 2.693-6.995.275-2.432-.49-4.986-.82-7.49-.887.638-1.75 1.274-2.606 1.886 1.137-6.018 2.315-12.06 3.932-20.422 2.267 3.152 3.78 5.646 5.692 7.777 1.386 1.544 3.31 2.602 4.995 3.875 1.545-2.3 3.35-4.475 4.52-6.953.49-1.04-.367-2.713-.396-2.88 3.565.57 6.732 1.077 9.9 1.582-.335 1.53-1.366 4.13-.897 4.437 6.34 4.148 12.86 8.028 19.423 11.82.755.434 2.34.35 3.037-.17 8.492-6.305-2.04-12.54-.44-19.094.273-1.115-4.435-3.52-6.965-5.135-.284-.18-1.378.905-2.056 1.384 1.283-2.622 2.665-5.238 3.913-7.92 1.503-3.225 2.895-6.504 4.334-9.762 3.203-5.655 3.203-5.655-.01.038-2.8 6.835-1.853 10.797 6.707 8.968-1.062 1.583-3.398 4.255-3.08 4.623 5.156 5.942 10.498 11.756 16.266 17.094.67.623 5.335-1.233 6.044-2.86 1.654-3.8 2.03-8.155 2.952-12.26 2.21 2.01 4.507 5.743 6.678 5.67 3.02-.096 5.946-3.045 8.914-4.773 2.685 2.084 6.11 3.427 8.82 2.557 5.815-1.863 12.094-4.234 10.197-12.664zm10.566-284.26c.04.004.078.006.117.008-.087.067-.175.133-.26.2.05-.07.092-.136.143-.206zm20.27 52.465c-.117-.888-.232-1.774-.35-2.662.118.888.233 1.776.35 2.662zM720.106 1176.27c.26.465.05 1.18.1 1.77.72 8.78 4.177 11.626 12.78 10.338 8.4-1.256 16.8-3.85 25.166-3.718 14.785.23 27.418-4.47 38.246-13.854 6.135-5.322 10.387-12.988 16.882-17.662 5.27-3.796 7.158-7.77 6.257-13.314-.848-5.213.368-5.33 4.938-3.91 2.605.81 7.977-.023 8.674-1.617 2.395-5.48 4.27-11.585 4.5-17.526.31-7.877-3.34-9.65-11.428-7.034 1.638-1.558 3.733-2.858 4.92-4.735 5.246-8.31 12.14-14.14 20.107-15.733 3.265-3.986 5.136-7.62 8.108-9.648 8.95-6.104 11.69-11.49 9.084-22.33-.894-3.705-3.504-6.966-4.986-10.573-2.81-6.84-3.8-15.23-8.46-20.298-5.344-5.822-2.345-10.235-.342-14.263 4.166-8.372 10.01-15.886 14.577-24.08 3.107-5.57 5.215-11.73 7.772-17.61-2.36-3.812-4.717-7.47-7.076-11.47h.004c-2.908-4-5.816-11.388-8.728-17.1 13.77-10.048 27.54-20.076 41.31-30.123-.97-.58-2.35-1.894-2.854-1.616-4.894 2.672-10.083 5.078-14.34 8.585-11.972 9.864-18.78 9.77-30.033-.778-1.623-1.522-4.686-1.512-7.084-2.21.073 1.843.145 3.686.194 5.492-2.618-4.26-4.407-10.046-11.502-6.552-1.863-5.172-3.728-10.345-5.955-16.532a1226.32 1226.32 0 0 1-7.736 5.2c.427-2.527 1.98-5.582 1.108-7.567-2.257-5.13-5.592-9.79-8.484-14.64-2.438-4.095-4.854-8.203-10.648-4.735-.533-2.887-.313-6.233-1.743-8.577-4.132-6.78-8.938-13.15-13.424-19.716-.196-.286.162-.95.333-1.78 1.624.25 3.255.5 6.504 1.005-1.466-4.945-2.708-9.146-3.683-12.434-12.4 1.124-23.31 1.93-34.164 3.21-3.142.37-6.127 2.087-9.183 3.188-5.248-10.406-14.23-3.445-21.89-5.828-.828 6.842-1.778 12.774-10.013 10.774 0 .437-.003.856-.003 1.292-1.017-.188-2.093-.36-3.196-.526-1.77-2.917-4.76-5.56-9.664-7.782-8.51-3.852-19.245-6.106-27.637.106a843.785 843.785 0 0 1-2.24-7.405l.033.026c3.04.22 6.044.408 10.794.707-4.283-5.34-10.26-7.804-2.196-12.295 4.326-2.408 1.192-10.27-5.046-12.47-1.39 2.73-2.816 5.54-4.248 8.307-.013-1.103.34-2.42-.104-3.36-2.974-6.333-19.337-7.897-24.52-2.424-1.59-1.51-4.11-4.583-4.622-4.277-3.22 1.912-10.106-1.922-9.716 5.747-7.244-3.808-5.434 3.644-7.594 6.12.43-7.614-1.686-11.21-10.71-13.023-13.21-2.654-25.187 2.134-27.982 14.904-1.58 7.22-7.032 8.744-13.54 4.393-1.32-.88-4.64.22-6.443 1.347-1.99 1.25-3.058 3.888-4.946 5.393-7.343 5.86-14.978 11.363-22.17 17.397-1.11.93-.473 3.94-.684 5.974-.873.492-2.44.81-2.603 1.47-2.753 11.252-2.724 23.858-15.95 29.83 4.42 5.665 8.167 11.476 12.53 16.29 2.555 2.82 6.086 3.482 9.18 7.53-4.417.003-8.84.008-13.257.01-.235 0-.47.863-.703 1.516 3.852 3.408 7.708 6.597 11.562 10.006 2.93 3.256 5.864 6.4 8.796 9.653-2.932-3.254-5.865-6.563-8.832-9.842a999.754 999.754 0 0 0-5.86 9.06c3.794 1.68 7.588 3.347 11.348 5.052-.898.992-2.803 2.652-2.617 2.935 3.62 5.464 7.298 10.917 11.52 15.91.533.63 4.16-1.354 6.353-2.126.35 1.267.696 2.528 1.043 3.794 1.33-.798 2.66-1.597 3.97-2.357 2.19-3.322 2.19-3.322 0 0 1.146 12.41 11.92-.402 15.416 5.847 1.88-1.063 3.757-2.125 5.636-3.19 4.374 11.73 11.694 13.71 20.012 4.517-2.62-1.24-5.08-2.406-7.5-3.557 5.85 2.453 8.85-1.395 11.768-5.418.198 2.694.392 5.39.738 10.145 3.406-4.94 5.26-7.633 7.12-10.29-.516 2.98-1.028 5.997-1.34 7.836 6.165 2.567 11.127 4.708 16.148 6.7 6.702 2.658 13.388 5.378 20.2 7.733 4.646 1.608 9.494 2.64 14.25 3.93l-8.86-.392c1.49 2.176 2.982 4.35 4.843 7.064-1.78 1.548-3.817 3.313-6.087 5.285 4.092 3.67 4.386 12.874 13.007 8.54-.333-1.327-.67-2.588-.977-3.4l21.887-.014c-.084 0-.137.793-.174 1.433-1.593.32-3.184.403-4.776.725l.005 1.39c1.14.355 2.28.655 3.418 1.015-2.92-.032-6.82 4.1-8.417-2.194-.18-.7-4.13-1.438-5.55-.682-6 3.195-11.706 6.94-17.542 10.502 2.242 4.53 3.982 9.446 6.988 13.41 1.19 1.57 5.19 1.008 7.885 1.454-4.597 5.063-1.723 6.478 3.396 7.382 2.992.528 5.824 1.97 8.727 3-1.78.318-3.563.336-5.346.654.12.904.242 2.42.36 2.42 4.656-.004 9.3-.008 13.918-.01.066.81.134 2.09.2 2.986-4.507.144-9.2 1.36-13.46.393 1.273 7.15 1.302 13.87 3.75 19.456 2.898 6.615 1.63 10.608-3.11 15.61-5.298 5.584-9.867 12.27-8.74 20.198 3.89 1.317 6.747 2.29 9.604 3.256 0 0-.277-.25-.29-.264 5.26.01 10.526-.037 15.793-.01.04.873.084 1.743.124 2.614-5.323-.353-10.622-1.75-15.92-2.6.014.014.29.27.31.282-3.244.587-6.505 1.158-11.206 1.98 7.368 10.494 10.986 22.617 25.485 23.27l-.278-.195c.924.037 1.848.06 2.77.087.056.387.106.777.175 1.154-.98-.4-1.977-.92-2.945-1.24 0 0 .278.197.29.204-2.505.227-5.023.45-7.73.69 1.8 8.362 2.982 16.004 5.146 23.357 2.767 9.407 8.07 12.116 19.212 10.102-.004-5.582-.265-11.36-.042-17.13.48.19 1.008.357 1.52.532-.014 6.206.213 12.54.218 19.156 3.657.287 6.474.51 9.26.732l1.99-17.35c.19.026.358.06.55.083 1.36-.396 2.747-.785 4.113-1.178.91.863 1.96 1.66 3.12 2.408-3.936-.88-4.02-.812-4.236 3.634-.242 4.972 1.352 10.69-5.57 12.715 0 0 .312-.29.317-.29-.093-.01-.188-.016-.282-.023-.002.035-.01.073-.01.11-9.048 2.537-12.056 7.755-7.132 16.557zM560.85 933.53c0 .002-.002.005-.004.005a95.614 95.614 0 0 0-1.09-.13c.365.04.73.084 1.095.125z"/><path d="M287.878 686.116c-.054.058-.12.114-.183.17l-.012.106.195-.276zM325.688 781.792c.188.126.214.143 0 0zM273.472 576.333a.15.15 0 0 1-.025.007c-.022.04-.047.08-.07.118l.044.325.052-.45zM298.93 544.916c-.645-2.18.644-4.935 1.036-7.423 1.98.93 3.962 1.856 5.933 2.804.37.176.695.442 1.238.793l1.332-5.127c.442 1.833.84 3.486 1.373 5.688l16.055-14.3c.638-2.568 1.277-5.133 1.912-7.698 2.316-6.06-1.33-6.876-5.996-6.85-5.027.025-6.232-2.594-5.523-7.253 1.446-9.52 2.586-19.088 3.666-28.658.118-1.04-1-2.218-1.503-3.32 4.904-1.676 10.615-2.29 14.625-5.226 7.347-5.38 14.352-9.734 24.055-8.51 2.748.345 5.873-2.313 8.825-3.59l-.83 4.298c1.636-.685 3.272-1.37 4.888-2.018 2.55.78 6.163.836 7.385 2.573 2.524 3.59 3.41 8.28 5.614 12.156 5.888 10.355 1.018 19.373-2.37 28.45 1.493.775 5.153 2.442 5.066 2.665-2.64 6.852 3.723 8.377 6.732 11.81-2.35.795-6.13.974-6.788 2.498-2.077 4.818-4.537 10.304-4.018 15.234 1.053 10.027-5.878 13.83-11.79 18.862-4.843 4.124-9.554 8.4-14.325 12.612.775.916 1.548 1.832 2.32 2.748 6.698-4.484 13.55-8.753 20.054-13.502 8.69-6.343 13.645-5.926 20.854 1.876 12.997 14.07 21.306 14.435 31.003 2.8l22.648 20.023-.627 2.915c2.842-1.62 5.682-3.238 8.522-4.86a22214.693 22214.693 0 0 1-.02.038c.575 1.862.682 4.126 1.86 5.42 2.727 3 5.973 5.53 9.18 8.4 2.536-.93 6.21-2.793 9.853-4.116.563-2.52 1.158-5.128 1.748-8.128h.003c-.593 3-1.187 5.607-1.75 8.128-1.772 2.817-3.79 5.82-5.19 8.854-.258.562 1.976 2.403 3.06 3.583 3.16-3.21 6.092-6.353 9.46-9.772 1.07 1.227 2.757 3.057 5.19 6.245l-.007-9.415c14.58 1.802 9.14 18.57 18.557 23.553 2.008 1.06 3.003 4.532 4.418 6.96 2.675-.003 5.8-.003 11.24-.007-1.797-6.48-3.337-12.836-5.13-19.73 1.402.356 4.183 1.047 8.22 2.074-1.983-2.5-3.7-4.323-5.1-6.124C513.375 586.5 502 579.66 488 572.797v-.016c14 6.864 25.376 13.722 37.885 20.572 7.038-.03 17.666-8.946 18.61-14.828 2.633-.803 4.88-1.47 5.785-1.747-3.69-4-8.795-7.053-9.263-10.7-.634-4.96 9.034-10.127 14.178-8.91 2.393-6.41 4.792-12.828 6.937-18.586-6.796.326-13.53.648-22.807 1.09-5.784 4.594-12.448 6.57-16.93 1.418-3.814-4.383-6.774-2.133-10.116-1.647-2.54.37-4.914 2.528-7.38 2.563-2.152.032-5.53-1.302-6.186-2.918-.784-1.925.01-6.29 1.42-6.993 5.38-2.684 11.414-4.026 16.93-6.483 2.495-1.11 6.35-3.908 6.148-5.513-.886-7.144 3.77-10.162 7.936-14.304 3.254-3.233 5.004-7.982 7.616-12.387 2.757-.812 6.77-1.99 10.78-3.176 2.18-.646 4.437-2.05 6.526-1.83 7.848.826 21.212 14.674 22.41 22.81 2.473-1.75 4.915-3.48 6.31-4.47l6.207 17.965c3.167-.323 7.315-.744 12.165-1.24l-13.1-8.35 12.82-9.625c-2.93-2.37-5.963-3.818-7.326-6.215-1.355-2.384-1.03-5.722-1.442-8.642 2.22 1.853 4.44 3.707 4.853 4.05 3.894-5.138 6.354-11.76 9.99-12.487 7.645-1.527 6.477-6.063 6.723-10.94.29-5.75 2.166-8.733 9.23-8.96 5.186-.165 10.316-4.25 15.327-6.87 3.162-1.65 6.053-3.81 10.78-6.84a34290.2 34290.2 0 0 0 7.067-10.24c3.99-2.926 12.778 3.226 12.89-6.996 2.716 1.976 5.38 5.537 8.16 5.63 9.055.307 18.314.208 27.163-1.48 4.687-.89 9.988-3.514 9.715-11.16-.272-7.693-4.427-8.03-9.828-7.5-3.764.37-7.474 1.284-11.17 1.947 6.92-2.728 13.882-5.464 18.51-7.283-.004-6.262-.01-9.92-.01-13.576 0-6.754.28-13.528-.23-20.24-.1-1.307-3.227-3.26-5.047-3.37-3.493-.208-7.05.69-11.14 1.2l3.924-11.842c-6.472 5.134-6.55 6.81-9.536 13.986-2 4.806-5.923 10.454-10.37 12.193-5.76 2.254-12.916 1.417-19.433 1.11-4.875-.23-8.508-.05-12.072 4.367-1.603 1.987-7.04.878-13.115 1.362-1.448.19-5.35 1.587-8.91.985-7.434-1.26-14.824-3.188-21.94-5.677-2.313-.807-3.72-4.214-5.562-6.46 1.288-.545 2.6-1.098 3.992-1.69l-5.175-3.604c3.035-.718 5.096-1.204 7.156-1.69-.112-.578-.225-1.154-.335-1.73l-7.738 1.037c-.398 1.908-.622 3.363-1.015 4.77-.467 1.69-1.077 3.336-2.142 6.568-.634-3.437-.988-5.355-1.57-8.52l-2.025 4.562-1.532-3.225c-4.456 6.248-7.542 5.94-11.54-1.088-3.237 1.316-7.374 4.57-9.554 3.57-6.745-3.098-11.04 1.31-16.18 3.357l-6.013-9.7c2.987-.81 5.994-1.627 9-2.444-3.41-2.12-7.208-1.898-9.294-3.684-4.478-3.83-7.496-9.474-12.182-12.92-5.013-3.687-11.243-5.727-17.026-8.295-.146-.065-1.276 2.094-1.97 3.178a2813.59 2813.59 0 0 1-8.748-7.53c-1.253 8.526-5.657 6.625-7.934 2.567-2.7-4.812-4.646-3.938-8.077-1.535-1.6 1.118-3.907 1.158-5.724 2.037-10.698 5.175-21.345 10.91-32.01 16.155l-.026.31h-.032c.004 0 .005-.446.008-.44-6.574 5.83-13.152 11.432-19.73 17.267.457-1.69.915-3.493 1.372-5.18-.708-.862-1.42-1.78-2.128-2.64-15.086 7.258-30.317 14.212-45.215 21.84-11.503 5.89-20.613 16.353-34.98 16.822-3.883.126-9.114 2.446-11.242 5.497-9.75 13.98-18.868 28.425-27.53 43.107-1.223 2.073 1.312 6.36 2.107 9.624l-6.22-1.518c-.82 3.69-3.456 8.322-2.12 10.89 4.087 7.865-.566 12.253-4.177 18.092-4.86 7.855-10.775 16.425-11.535 25.1-.928 10.59-.417 20.42-9.032 28.366-1.94 1.79-2.037 5.58-3.093 8.787l-3.747.596c-.637 5.458-1.147 9.81-1.653 14.125 2.49-.626 4.956-1.372 7.473-1.858 16.506-3.185 22.723-13.602 17.985-29.56zm169.02 25.588c1.042 4.085 2.583 7.62 5.84 9.24-3.258-1.62-4.798-5.155-5.84-9.24zM1177.453 612.215c5.41 6.743 10.562 13.16 15.71 19.58-6.84 3.875-5.023 9.544-3.452 15.41 1.093 4.083 1.393 8.374 2.213 12.54.63 3.212 1.52 6.372 2.357 9.813 3.17-5.357 5.24-8.853 7.298-12.31-.574 1.285-1.554 2.573-1.69 3.946-.788 8.058 1.46 16.924-7.117 22.792-.746.51.546 6.725 2.083 7.348 5.33 2.16 11.15 3.257 16.88 4.167 1.107.178 3.244-2.07 3.87-3.616 2.374-5.866 4.3-11.916 6.44-17.875.794-2.204 1.245-4.76 2.68-6.46 4.897-5.8 5.992-14.312.198-16.922-5.988-2.695-4.16-7.603-6.418-11.128-1.737-2.71-3.273-5.24-4.79-8.082-1.873-3.516-3.63-8.3-5.643-10.73-2.46.003-7.114.007-13.485.01-.384-5.67-.88-10.827-1.403-17.052-9.388-4.703-11.228 3.842-15.73 8.57zM867.75 959.75c2.354 3.81 6.894 6.943 9.253 10.756 1.705.002 4.184.732 4.99-.118 3.82-4.046 7.167-8.536 10.716-12.84 3.723-4.52 7.482-9.006 12.65-15.223-2.16-6.23-3.14-15.296 1.426-24.16.34-.657.243-1.98-.212-2.527-1.188-1.422-2.688-2.58-4.063-3.843-13.77 10.048-34.74 21.66-48.51 31.705 2.91 5.715 10.842 10.54 13.75 16.25zM588.35 616.642c.654-.422 2.108.557 2.963.25 6.085-2.19 12.11-4.548 18.153-6.853 12.026-10.2 24.052-20.403 36.076-30.604l-7.998-12.767c-7.153-2.613-8.843 4.28-12.606 7.39-5.15 4.262-9.352 11.323-15.107 12.847-11.323 2.996-19.06 10.708-27.8 17.015-4.665 3.367-5.442 9.54-1.592 14.724 3.895 5.248 5.433-.395 7.913-2.004zM1178.89 727.223c-.13.318-.867 2.137-1.233 3.046-3.12 0-6.15-.82-8.403.158a189.057 189.057 0 0 0-20.123 10.257c-2.187 1.28-3.44 4.15-5.123 6.297 2.905.774 6.445 3.003 8.598 2.06 7.55-3.312 14.76-.18 22.086-.135 6.307.035 13.024 1.332 18.8-.428 5.457-1.668 11.723-5.566 14.415-10.31 4.4-7.764-4.37-11.497-7.73-18.27-2.49 3.834-4.01 6.176-5.274 8.12-5.54-.274-10.295-.513-16.01-.797zM1232.97 435.287c-3.992-1.083-5.368 1.903-4.952 6.577.304 3.4 2.033 6.67 3.12 9.998-5.225 1.04-6.58 6.04-3.18 11.925 3.638 6.29 7.266 12.585 11.007 18.81 2.41 4.008 3.832 7.628.123 11.946-4.352 5.063-.812 5.817 4.225 5.595.447-6.967.892-13.935 1.355-20.86.22.14.433.4.7.48.23.07.69.016.757-.125 3.356-7.076 6.683-14.17 10.354-21.992 3.294 2.838 4.82 4.156 7.017 6.05-.585-3.896-2.326-8.04-1.175-9.132 5.45-5.17 1.397-6.677-2.487-8.576 2.076-.758 6.043-1.607 6.007-2.223-.264-4.55-1.327-9.05-2.542-15.833l-1.912 7.44c-3.453-6.07-7.113-11.775-9.855-17.89-.618-1.378 1.854-4.255 3.102-6.318 1.225-2.024 2.71-3.89 4.08-5.83-.808-.762-1.613-1.525-2.418-2.288a9759.45 9759.45 0 0 0-7.807 3.29l-5.636-7.21c13.422-13.67 14.15-18.33 5.67-37.253-.437.85-.866 1.477-1.09 2.17-1.765 5.564-3.073 11.336-5.52 16.58-.608 1.304-5.12 1.74-7.347 1.03-1.72-.545-2.672-3.5-5.146-7.104 1.726 7.294 2.976 12.578 4.224 17.86-1.092-.208-2.182-.418-3.273-.627-1.318 3.337-2.908 6.617-3.65 10.08-.1.473 4.008 1.85 6.135 2.83-2.14 2.947-5.927 5.78-6.192 8.913-.693 8.04-2.423 17.102 6.308 21.684zM1492.265 379.36c-6.79-28.562-21.738-53.267-37.327-77.61-3.965-6.192-8.624-11.94-12.98-17.88-.49 2.12-1.523 4.43-.92 6.168 1.922 5.537 4.45 10.894 7.057 16.164a13853.644 13853.644 0 0 0 34.883 69.988c2.402 4.79 5.146 9.408 7.733 14.105.756-.175 1.514-.35 2.27-.523-.21-3.478.08-7.072-.715-10.41zM1279.976 105.693c-2.9 1.33-4.597 2.105-4.647 2.13 3.224 2.787 7.027 4.887 9.087 8.103 4.505 7.027 12.174 8.825 18.415 13.018 8.894 5.977 16.883 13.307 25.26 20.058-.765-2.528-1.532-5.057-3.08-10.157l16.57 11.167c.486-.643.974-1.283 1.46-1.926-32.5-26.967-64.996-53.932-97.494-80.9l-1.793 2.132c6.454 5.345 13.345 10.252 19.237 16.158 5.995 6.008 11.004 13.002 16.984 20.217z"/><path d="M609.467 610.04c2.29 6.967 6.445 7.855 16.65 4.88l17.077 6.273.844-2.43c-7.753-5.505-8.604-3.535 3.4-13.132.86 2.827 1.728 5.69 2.597 8.555-.106-5.763-3.603-12.488 5.888-14.228l-.846-3.757c-2.646-5.43-5.295-10.86-7.942-16.29 2.647 5.43 5.296 10.86 7.96 16.33 2.762 4.91 5.384 6.372 9.736 1.1 4.282-5.183 10.255-9.05 14.115-14.47 2.293-3.223 2.895-8.423 2.5-12.566-.336-3.526-2.777-5.18-5.898-3.83a4286.9 4286.9 0 0 1 5.076-3c-3.84-3.88-7.736-8.067-11.93-11.932-1.688-1.558-3.91-2.73-6.094-3.515-4.14-1.495-8.427-2.585-12.863-3.905-.18.53-.37 3.62-1.495 4.01-9.11 3.152-6.72 12.65-10.697 18.538l8 12.767c-12.026 10.2-24.052 20.4-36.078 30.602zM1441.765 283.145c.003.157-.007.32.003.47l.19.256c.045-.19.092-.383.123-.57-.1-.055-.21-.104-.315-.155zM1441.412 279.344c-20.38-35.843-47.562-66.416-75.543-97.705 3.268 6.944 5.284 13.427 9.01 18.7 7.78 11.006 15.776 22.016 24.937 31.854 13.348 14.334 24.704 29.907 34.576 46.742 1.24 2.116 4.77 2.89 7.372 4.208-.01-1.328.22-2.794-.353-3.8zM1475.314 596.753c.003 3.185.228 6.386-.036 9.548-.63 7.574-.062 15.676-2.694 22.52-2.235 5.81-1.902 9.865.97 14.64 2.648 4.397 4.856 9.077 7.764 13.282.75 1.084 3.4.855 4.02.986-.007-11.36 2.396-22.852-.714-32.583-2.998-9.387-6.06-18.854-9.31-28.392zM896.02 1077.414c.04-.072.082-.144.12-.216-.04-.027-.078-.046-.12-.073v.29zM718 744.875c.43-9.113 2.875-18.125-1.554-26.714-1.18-.522-2.36-1.048-3.54-1.574l-7.316 10.18c-.55 2.966-.136 6.798-1.856 8.715 1.72-1.916 1.307-5.748 1.85-8.76-1.657-1.393-3.31-2.74-4.94-4.124-2.184-6.766-10.69-6.02-12.113-4.46-4.553 4.983-9.004.762-13.525 1.872l-1.967 14.382-8.298-6.075c-4.25 10.857-13.964 10.64-24.67 10.873 8.617 5.254 9.288 11.036 5.994 18.626-1.625 3.743-.875 8.52-1.238 12.812-3.823-1.934-7.85-3.63-11.46-5.966-1.423-.92-1.92-3.267-3.116-5.47-2.586-.282-6.333-.784-10.095-1.08-5.11-.4-8.117 1.248-8.323 7.18-.11 3.17-2.256 6.232-3.188 9.428-.776 2.673-2.05 5.672-1.498 8.173 2.23 10.105 18.203 18.21 26.816 12.445 7.527-5.038 13.177-12.892 19.503-19.667 1.087 1.86 2.18 3.72 3.377 5.507 1.27 1.894 2.855 3.575 3.757 4.683l.717-7.255-3.707-2.597 8.012-1.956-7.653-1.705c2.902-1.907 6.63-3.793 8.4-2.652 5.542 3.58 6.45-.73 8.376-3.794 4.292 1.907 9.384 2.92 12.71 5.904 6.917 6.206 12.795 13.56 19.386 20.155.883.884 3.42.118 7.413.114-4.67-3.666-8.295-5.37-10.187-8.223-4.39-6.617-14.917-11.63-7.123-22.39.25-.346-2.902-3.154-4.427-4.804 2.553.303 5.164.513 7.737.947 6.31 1.074 17.44-6.247 17.745-12.728zm-39.942-3.6c2.294 3.634 3.518 6.725 1.088 12.725h-.003c2.433-6 1.21-9.09-1.085-12.726zM1000.706 446.01c4.105 4.535 8.514 7.426 9.762 14.187.738 3.993 5.12 7.312 7.864 10.934-.674-7.605-7.807-13.134-6.073-22.778l-6.66-3.814 3.98-7.182c-2.235-.113-4.29.334-4.743-.322-6.547-9.498-16.7-9.51-26.538-10.415-.284-.025-.55-.213-.826-.322-7.116-2.79-7.46-2.563-8.835 7.266 14.46-4.972 23.11 2.55 32.066 12.446zM1230.77 625.35c1.876 1.71 4.26 2.87 6.442 4.238 2.51 1.57 5.984 3.06 8.487 4.64 2.744 1.735 3.758 3.534 10.24 6.047l-.01-14.022c-18.63-.594-22.672-3.49-21.46-14.133 6.588 2.518 9.82 1 9.295-6.904-5.03.584-9.525 1.08-13.724 1.568-.928-3.102-2.032-6.398-3.018-9.697-.06 4.157 2.507 10.02.813 11.82-7.118 7.572-2.09 11.848 2.936 16.442zM645.764 475.28l-24.125-4.37c-1.803 4.28-4.13 9.187-5.742 14.316-.25.792 2.752 3.708 4.32 3.765 4.686.173 9.407-.588 13.465-.928l-6.36-4.194c7.112-2.49 12.437-4.355 17.762-6.222.226-.79.453-1.578.68-2.366zM1173.04 716.453l-16.03-11.325c-1.428 2.063-3.06 4.61-4.896 7-1.477 1.92-3.2 3.653-5.287 6 5.135 7.846 20.12 10.298 26.212-1.675zM596.72 544.822c-8.44 5.66-8.662 5.333-6.83 16.29 7.017-7.635 14.67-15.543 21.82-23.883 4.888-5.702 6.038-11.556-4.316-16.295.364 3.653.672 6.266.867 8.888.102 1.353.58 3.26-.103 3.993-3.61 3.875-7.104 8.098-11.438 11.006zM1233.03 704.792c-2.295 4.84-3.987 10.02-6.73 14.578-3.373 5.61-7.564 10.73-11.402 16.062 3.916.463 7.55.044 8.658-1.85 7.08-12.112 13.607-24.55 21.687-39.397-9.393.14-10.117 6.18-12.214 10.607zM483.678 1415.652c8.568 5.69 16.858 11.89 25.848 16.81 3.34 1.83 8.318.665 12.55.866.168-1.13.336-2.265.502-3.396-12.59-5.693-25.182-11.39-37.773-17.082-.376.935-.75 1.868-1.127 2.802zM319.695 1350.884c.867-.024 1.734-.046 2.6-.072-.296-1.81.073-4.41-.992-5.307-8.53-7.196-17.208-14.23-26.087-20.994-9.328-7.102-18.93-13.848-28.415-20.75-.188.265-.38.527-.57.79 11.454 9.327 22.904 18.656 34.202 27.86-1.13 1.744-2.3 3.55-4.066 6.28 10.097-2.19 19.077 2.96 23.33 12.194zM1170.68 541.927l13.45 14.492c1.282-.743 2.56-1.484 3.844-2.225-2.66-6.354-5.318-12.707-8.032-19.195l-17.07 3.224c2.138 3.76 3.52 6.183 5.985 10.507a6825.22 6825.22 0 0 1 1.822-6.803zM261.754 1275.93c.187 9.11 5.202 14.057 10.528 17.847-.833-5.552.24-13.55-3.2-18.255-7.658-10.48 6.06-9.98 7.146-16.993-8.59 4.027-14.675 7.508-14.474 17.4zM574.01 565.488c3.862-6.53 7.724-13.064 11.965-20.238-10.64.23-16.91 5.97-21.847 20.153l6.513-9.588 1.984 1.7c-.443 2.125-.885 4.252-1.33 6.376.905.534 1.81 1.065 2.716 1.598z"/><path d="M717.29 650.69c-.805 9.434-2.046 17.527-2.04 25.935 3.24.314 4.15-.135 5.054.18 2.42-6.744 4.987-13.487 7.418-20.19 3.212 3.752 2.65 11.365 10.516 10.57-1.645 1.974-2.973 3.914-4.536 6-4.25 5.666-9.91 8.19-17.203 5.5l-.016-19.87c-8.902 9.25-13.36 18.805-12.8 30.117-2.834 7.848-6.735 2.006-10.118.655-5.92-2.344-6.018-2.343-5.356 11.433 6.206.425 12.364.852 16.45 1.134-1.226 1.8-3.05 4.438-5.8 8.472 8.228-.787 14.063-.512 19.355-2.1 4.705-1.41 7.542-5.57 3.033-10.264-4.9-5.1-5.602-8.68 3.464-10.294 1.645 1.795 3.337 3.646 5.185 5.662 6.51-3.274 13.292-6.686 20.074-10.1l5.422 9.665c-2.312.777-4.65 1.56-6.984 2.346-4.2-.9-8.402-2.036-12.6-2.825-.42.77-.837 1.543-1.256 2.314.766 1.445 1.47 2.942 2.187 4.427-.64.212-1.272.426-1.91.64.785.097 1.562.17 2.34.256 1.038 2.106 2.14 4.16 3.564 5.958 2.064 2.61 5.46 4.165 8.264 6.19 4.376 3.432 8.752 6.866 13.128 10.3-4.376-3.434-8.752-6.868-13.166-10.314-6.502-2.13-12.966-4.246-20.566-6.737l3.392 13.317-10.23-3.428c-1.062 1.808-3.545 4.076-3.53 6.332.085 14.142-3.617 28.55 2.91 42.35 1.212 2.558.283 6.063.702 9.082a332.112 332.112 0 0 0 3.212 18.886c.036.17 2.836-.208 4.346-.332.488 2.9.783 5.86 1.643 8.647.156.506 3.825.5 3.843.398.57-3.468.895-6.974 1.167-9.61 1.95-2.14 3.6-3.95 5.29-5.775 4.53-3.406 9.158-6.753 13.487-10.453.22-.187-2.164-3.417-3.436-5.387 1.27-.435 3.254-1.113 5.284-1.81-2.876-6.526-5.527-12.54-8.176-18.554 6.093 1.554 12.054 7.496 18.472.578.186-.2 1.68.458 2.25 1.03 4.663 4.692 8.428 1.703 12.133-1.38 3.94-3.276 7.792-6.657 11.684-9.995-.11 3.108.613 6.553-.485 9.26-3.5 8.618 2.022 10.423 8.222 11.486 3.35.575 6.886.07 10.337.05l-2.87 2.77c2.757 2.06 5.517 4.12 8.232 6.174-7.77 1.516-12.512 12.004-23.53 6.124-3.955-2.11-12.194 2.94-18.015 5.703-1.836.87-2.168 4.92-3.188 7.513-7.13-5.93-10.845 3.714-15.885 2.83l-.852 11.567c1.75 1.406 4.703 4.08 7.978 6.273 1.277.853 3.304.942 4.943.81 3.384-.27 6.737-.925 10.948-1.548 0-1.122-.002-4.755.017-8.346 3.98 2.203 7.933 4.566 12.1 6.446.306.14 2.178-3.194 3.344-4.948 1.445 3.146-1.56 10.856 6.83 6.605-4.132 9.547 1.16 19.354-.656 29.01-.225 1.2.685 2.95 1.597 3.974 6.885 7.728 8.155 20.463 20.71 23.242 1.02.226 1.987 2.2 2.376 3.538 1.988 6.815 5.06 12.354 12.93 13.757 1.415.253 2.52 2.247 3.772 3.433 4.017 3.812 8.034 7.622 12.052 11.432 2.62 6.2 5.234 12.394 8.08 19.128 1.87-.155 4.563.45 5.726-.612 5.483-5.023 10.43-10.63 15.803-15.78 3.975-3.812 7.835-8.174 12.6-10.645 8.73-4.53 10.017-6.73 6.395-17.398 3.984-1.98 9.717-2.946 11.59-6.158 3.76-6.453 10.222-11.947 8.268-21.448-.796-3.874 3.57-8.808 6.188-14.577-8.756-.95-15.137-1.844-21.544-2.09-.837-.034-1.802 3.254-2.706 5.005-.885-2.248-1.767-4.494-1.807-4.597-3.193 3.348-7.298 7.087-10.628 11.42-1.3 1.697-.87 4.73-1.26 7.16-5.177-3.193-11.18-5.575-15.426-9.742-7.36-7.224-14.795-12.666-26.056-9.328 1.115-2.478 1.8-4.268 2.697-5.947 5.433-10.154 10.72-11.454 19.92-4.908.962.685 1.644 2.08 2.653 2.323 5.445 1.31 9.47 10.708 16.69 2.622 3.145-3.52 7.423-6.032 11.537-9.28 1.503 1.216 2.97 3.35 4.67 3.552 2.51.3 5.362-.38 7.708-1.44 1.022-.462 1.157-2.897 1.695-4.436 5.89 1.89 10.013.538 11.206-6.097 2.27-.097 5.184.722 6.66-.38 4.798-3.584 9.07-7.87 13.71-12.03 4.883 1.075 10.888 6.598 14.428-2.57 1.464 9.79 5.693 3.44 7.897 1.797 1.638 3.104 3.094 5.868 4.553 8.635 1.81-1.046 5.322-2.537 5.183-3.068-2.3-8.768 3.656-11.09 9.862-13.285-.018 2.942-1.13 6.522.122 8.81 4.314 7.88 9.794 14.283 18.174 19.206 9.793 5.752 24.394 8.42 23.243 26.183 4.606-1.752 7.998-3.04 11.302-4.296.456 1.162.91 2.313 2.002 5.106 2.01-6.614 5.166-11.732 4.668-16.47-1.03-9.82-2.535-19.793-10.248-27.643-2.674-2.72-5.036-8.273-4.113-11.576 5.006-17.93 3.675-35.94 2.586-54.052-.188-3.166.884-6.407 1.37-9.615.7-4.646 1.405-9.29 2.34-15.46 12.833 1.266 28.062-6.857 43.636 7.532-.204-4.024-.003-7.095-.24-9.635 3.59.02 7.164.14 10.73.442 8.563.722 14.827-2.55 21.213-6.477 1.966-1.207 2.54-4.677 3.752-7.112 7.904 1.526 14.248 1.295 16.285-8.998 1.06-5.35 6.54-9.983 7.08-15.245 1.052-10.187-9.342-20.99-19.437-22.21-5.638-.68-12.08 4.742-10.68 8.988-12.386-.127-22.99-2.975-26.44-17.088-.064-.27-2.41.02-3.66.05 9.456-15.872 10.5-34.11 4.104-42.114.61-6.707 2.77-12.2 1.19-16.234-7.045-18.018-18.296-32.932-35.608-43.303-.606 2.925-1.004 4.852-1.714 8.273-2.73-3.995-4.63-6.772-6.947-10.16l-4.227 6.714c-3.84-6.755-7.125-6.313-16.284 2.032l-9.075-7.962c-4.57 4.954-6.34 11.66-14.6 10.424-2.006-.3-.488-.81 2.483-2.138-6.55-6.883-9.42-10.56-11.418-14.663-1.062-2.17-.603-5.08-.826-7.654 2.198.784 4.398 1.568 7.374 2.632l-7.45-15.26c4.01-1.08 8.02-2.163 12.733-3.435.957-5.935.957-5.935 18.536-3.547-3.228-5.772-5.977-10.69-8.645-15.456.29-.084 1.216-.358 2.143-.632-.25-.608-.5-1.214-.747-1.822l-5.935 2.87c-3.88-.92-7.574-1.798-11.694-2.777-.312 6.033-.532 10.306-.907 17.495-4.234-4.784-6.61-7.876-9.435-10.48-1.313-1.206-3.5-1.46-5.29-2.148a193.59 193.59 0 0 1-.815 4.304c-6.9-2.82-10.522-13.182-20.54-9.01 5.266-1.954 6.945-6.65 8.675-11.297-23.972-23.698-61.156-26.397-71.608-11.392 14.58 2.713 2.02 10.128 3.874 16.332-8.226-3.474-15.177-6.434-22.194-9.223-.173-.07-1.094 1.743-1.7 2.653-5.884-2.922-11.807-5.866-17.723-8.812-.622-1.053-1.245-2.105-1.866-3.158-.012-1.623.62-3.685-.14-4.796-3.846-5.625-8.053-11.005-13.444-18.223-4.73.003-12.024 1.314-18.55-.366-6.072-1.563-9.11-10.81-17.725-8.282-.42.124-1.507-2.03-3.81-5.273 13.175-.963 24.554-2.762 35.855-2.374 14.54.5 23.31-7 30.49-18.376-3.565-.055-6.767 1.194-10.046 1.474-5.794.492-11.922-.648-17.36.867-4.363 1.214-11.206 1.664-10.868 9.41.026.583-2.248 1.28-3.464 1.9-10.165 5.165-18.638.736-26.942-4.734-1.29-.85-2.735-2.37-3.974-2.243-7.85.8-15.662 1.976-23.523 3.032-.77-1.537-1.572-3.133-2.375-4.73l-1.944.67 4.34 14.79c-1.37-.168-3.07-.092-4.54-.643-1.362-.508-2.472-1.688-3.69-2.573-.784.666-1.565 1.333-2.348 2a743.022 743.022 0 0 1 5.162 6.575c-7.022-4.428-7.636 2.194-10.07 5.7-.188-.08-.376-.158-.566-.236l.33.574.305-.31c-.62 6.384-.62 6.384 11.423 13.965l3.437-2.985c5.284 4.89 10.1 9.02 14.46 13.59 1.206 1.266 1.008 3.84 1.546 5.792.596 2.173.726 5.704 2.047 6.248 8.43 3.484 8.28 8.706 2.968 15.77 8.572-.14 6.294 4.75 4.136 9.745 8.88-2.273 13.1 1.504 15.386 8.328.254.76.51 1.936 1.037 2.12 7.09 2.45 4.323 5.474.38 8.185-2.784 1.912-5.94 3.285-9.85 5.396 9.637 5.708 2.765 14.434 4.214 21.934.146.754 2.02 1.177 3.075 1.792-.382 3.433-.778 6.906-1.14 10.053-1.76.4-3.738.852-5.716 1.303 2.927-7.022-3.15-9.56-6.992-12.623-1.093-.873-5.48.843-7.09 2.556-1.926 2.052-2.5 5.377-3.535 7.854 4.36.77 7.715 3.384 4.823 10.61-.438 1.09-3.462 7.864 3.612 7.18.823 5.233 1.626 10.503 2.525 16.394 3.858.394 9.996-.747 6.862 7.582-.528 1.397 1.89 2.266 2.952 5.505l-9.35.008c3.572 3.238 5.79 5.762 10.07 9.727.486-3.83.775-5.912 1.106-8.17 4.082 3.876 13.64 2.42 12.002 12.086-.005-.008-.012.03-.018.02-2.822-1.664-5.626-3.264-7.573-4.395 1.37 5.287 3.084 10.218 3.575 15.255.096.993-4.53 2.452-8.755 4.59 4.297-9.567-8.98-24.438-21.685-24.202 6.194 5.554 12.388 11.11 17.383 15.586-1.433 3.746-2.48 6.916-3.85 9.937-1.466 3.234-3.237 6.33-4.84 9.464 4.212-9.663 3.14-13.74-3.836-14.418.004 2.824.93 7.666-.137 8.156-8.712 3.99-14.18 10.254-16.837 19.417-.787 2.71-3.113 7.32-4.347 7.196-12.64-1.26-4.4 6.97-5.758 13.418-1.973-3.218-4.024-5.006-3.81-6.464 1.353-9.204-2.224-14.636-12.43-16.513-1.743 3.06-3.72 6.533-5.695 10.006-9.017-.73-8.657-12.398-17.416-14.93-.863 3.38-1.91 6.356-2.67 9.333-2.273.446-3.84.893-7.08 1.335zm2.353 35.7c.596-.667 1.194-1.333 1.79-1.998 1.07 1.168 2.147 2.344 3.243 3.538-2.483-.76-3.762-1.15-5.033-1.54zm16.918 44.17c-.728 3.115-1.295 6.284-2.093 9.376.798-3.093 1.365-6.262 2.094-9.376zm2.7.318c2.893 6.173 5.786 12.345 8.673 18.518a20273.91 20273.91 0 0 0-8.676-18.52c6.303-.36 13.34 1.353 18.47-2.325-5.13 3.68-12.165 1.966-18.468 2.328zM656.62 700.854c-2.668 7.453-5.095 13.48-6.897 19.684-.644 2.215.23 4.87.41 7.327 2.5-.373 5.243-.237 7.433-1.272 1.906-.9 3.188-3.12 4.47-4.465-1.894-3.332-3.51-6.18-5.22-9.19l4.45-.948c-1.316-3.16-2.474-5.933-4.646-11.136zM1123.99 557.09c5.646.203 8.92 12.133 16.167 3.365.115-.14 1.084.428 1.655.665.265-.432.522-.865.783-1.298-1.438-1.046-2.863-2.12-4.33-3.132-2.958-2.044-5.857-4.195-8.937-6.035a31.93 31.93 0 0 0-7.164-3.17c-.46-.138-2.476 2.283-2.23 2.888 1.028 2.486 2.576 6.665 4.056 6.718zM931.43 1060.107c-.002-2.93-.003-5.86-.008-9.348.81-.407 2.86-1.062 5.75-2.147-3.015-4.4-5.555-8.146-8.12-11.89-1.197.272-2.384.548-3.58.817.004 5.387.012 10.77-.004 16.114-2.07-.276-4.943-1.628-6.124-.736-5.844 4.396-11.707 8.953-16.632 14.31-2.66 2.897-4.623 6.428-6.57 9.97 2.516 1.49 4.38 2.596 6.242 3.7-1.26 4.725-2.05 9.642-3.887 14.13-2.695 6.58-1.077 18.836 3.272 18.43 6.364-.596 15.606-3.082 17.932-7.655 5.498-10.815 7.962-23.254 10.99-35.203 1.312-5.182-1.58-4.043-4.152-1.602.326-3.684.605-7.366.932-11.05 1.337.72 2.337 1.44 3.957 2.16zM425.684 368.792c-8.445-8.718-11.855 1.448-17.318 2.376-5.66.965-10.953 4.078-16.406 6.252l.948 2.264 32.776-10.892zM269.385 615.358c.313-4.35.543-8.533-.784-12.143-1.202-3.27-4.11-5.916-5.697-8.07-1.29 3.286-3.964 7.41-4.372 11.744-.68 7.285 7.49 4.824 10.855 8.468zM637.986 696.195l-6.61 16.95c3.55.074 14.707-7.76 13.59-9.878l-5.58-2.292 4.065-1.963a5891.252 5891.252 0 0 0-5.464-2.817zM1228.46 516.78c9.737-7.523 3.124-14.323 3.252-20.89l-4.494-.018c.39 6.583.78 13.164 1.242 20.91zM944.24 417.72c-1.064 5.383-1.857 9.407-2.644 13.395l10.875-.953c4.343-9.167-5.874-7.347-8.23-12.442z"/><path d="M703.285 679.98c-1.224-3.19-2.45-6.38-3.673-9.57-.644 4.324-14.3.76-6.248 10.226 3.383 1.35 7.09 7.19 9.92-.657zM273.378 576.458c-.424-3.297-.854-6.63-1.43-11.086l-8.643 22.79 2.476 1.357c2.533-4.353 5.067-8.708 7.598-13.062zM650.77 463.22c-.694.626-1.39 1.25-2.084 1.873.25 4.592.498 9.186.765 14.117l9.344-4.87c-2.903-4.024-5.463-7.57-8.023-11.12zM920.143 437.532c-10.402-6.5-14.717 6.118-23.318 4.896.32 1.014.64 2.028.962 3.042 7.398-2.626 14.8-5.254 22.356-7.938zM450.505 360.628c-5.615.62-11.176 1.7-16.753 2.658.086.888.17 1.776.257 2.666 6.125-.292 12.252-.583 18.377-.87-.643-1.637-1.424-4.503-1.882-4.454zM345.316 562.184c-2.174 0-4.75.003-7.18.006l.017 22.098c-.005-6.763 9.725-12.384 2.76-19.733 1.635-.44 3.082-.995 4.617-1.408-.042-.274-.174-.963-.214-.963zM717.513 394.923l8.198-5.962c-.898-3.094-1.756-6.04-2.725-9.37-8.48 2.534-4.908 8.603-5.472 15.333zM328.914 534.18l3.213-1.288c-.003-3.104.466-6.316-.2-9.27-.348-1.554-2.68-2.66-4.117-3.97-.635 2.565-1.274 5.13-1.912 7.698l3.016 6.83zM338.173 610.722l-.015-20.118c-3.24-.068-2.36-.138-2.92-.207-.826 6.688-1.034 13.376-1.86 20.064 1.39.087 1.555.176 4.795.262zM752.85 418.527c-.062-.042-.118-.083-.123-.085.73-1.148 2.313-3.053 2.076-3.32-2.057-2.288-4.442-4.278-6.756-6.384-2.9 2.21-5.74 4.376-7.066 5.39l11.817 4.437c.048.08.093.16.14.242l.09-.156c-.006-.002-.094-.066-.178-.123z"/><path d="M749.796 424.26c2.75 1.143 5.505 2.287 8.252 3.43-1.706-2.962-3.413-5.925-5.112-8.885-1.04 1.82-2.09 3.638-3.14 5.456zM838.736 1357.427c.39.282.766.756 1.175.788.32.02.682-.504 1.085-.836-.59-.197-1.092-.435-1.613-.502-.19-.026-.43.354-.646.55z"/></g></svg>