<svg xmlns="http://www.w3.org/2000/svg" width="380" height="380" viewBox="0 0 380 380"><g fill="#56504F"><path d="M246.07 85.79l-20.014 13.776 7.227 9.564L253 97.584v-5.252z"/><path d="M235.178 105.402l-30.13 19.635 1.19 3.17-1.19 1.19-7.63-5.945-1.686-6.224 1.785-2.498 4.162 3.766 29.93-19.425zM227.646 140.3l2.412-7.532 1.285-2.577L295 75.68v-2.378l-64.863 54.312-3.294.793-7 .99zM376.31 244l-117.346-49.833-12.01-9.182 1.702 9.515 7.995 2.83 119.66 49.534 1.585-2.864zM158.742 370l4.68-115.84 6.42-9.428-14.48-8.643 3.38 16.055L155.362 370zM114.662 191.308l-34.094 5.286 1.586 3.04 34.887-4.956zM149.275 137.393L13.967 9.08s2.51 6.343-4.097 9.382c-5.887 2.708-7.797-.66-7.797-.66l136.77 128.444s5.012 5.672 10.432.66c4.502-4.162 0-9.513 0-9.513z"/><ellipse transform="rotate(58.85 7.625 13.177)" cx="7.625" cy="13.177" rx="4.625" ry="6.079"/><path d="M153.614 154.507c5.376-4.18 7.018-11.06 3.667-15.37-1.713-2.206-4.402-3.304-7.34-3.298l.49.464.06.068c.096.115 2.37 2.86 2.37 6.22 0 2.065-.866 3.96-2.51 5.48-1.9 1.756-3.98 2.59-6.19 2.478-3.492-.176-6.02-2.733-6.444-3.19l-1.243-1.166c-.78 2.892-.4 5.83 1.342 8.07 3.35 4.313 10.423 4.42 15.8.243zm1.26-12.878c-.015-.33.35-.615.81-.635s.85.232.863.563-.35.613-.812.633c-.462.02-.85-.23-.862-.56zm-3.705 9.662c.24-.228.69-.14 1.01.197.317.335.38.79.14 1.02-.238.227-.69.138-1.01-.198-.317-.336-.38-.792-.14-1.02zm-11.9 1.267c.103-.452.448-.758.77-.684.322.075.498.5.395.95-.105.452-.45.758-.772.683-.323-.075-.497-.5-.394-.95zM224.606 132.24l-47.308-48.63 32.706 73.737 44.6 45.985-29.998-71.093zM186.17 97.582c-.57-.822-.795-1.656-.5-1.86.294-.203.994.3 1.565 1.123.57.822.795 1.655.502 1.86-.294.204-.995-.3-1.566-1.123zm36.473 38.85c-.57-.82-.795-1.655-.5-1.86.294-.203.994.3 1.565 1.124.57.822.795 1.655.5 1.86s-.993-.3-1.565-1.123zm-9.514 19.03c-.572-.822-.797-1.656-.502-1.86.294-.203.994.3 1.565 1.123.57.822.795 1.655.502 1.86-.295.203-.995-.3-1.566-1.123zm31.714 34.093c-.57-.822-.796-1.655-.5-1.86.293-.203.993.3 1.564 1.123.57.82.795 1.654.502 1.858-.295.204-.995-.3-1.566-1.122z"/><path d="M253.018 205.314l-45.986-45.39-31.715-74.333-47.873 28.913 20.83 19.752 1.664-.003c3.578-.007 6.63 1.382 8.596 3.91 1.355 1.743 2.07 3.9 2.07 6.236 0 4.185-2.248 8.43-6.016 11.36-2.885 2.24-6.314 3.446-9.657 3.395-3.475-.054-6.445-1.444-8.367-3.917-1.35-1.735-2.063-3.886-2.063-6.218 0-1.065.148-2.155.44-3.24l.222-.816-22.762-21.374-18.154 10.964 28.315 77.298 49.188 40.648 81.27-47.184zm-64.61-80.322c.392.598.03 1.528-.807 2.078-.836.55-1.833.51-2.226-.088s-.03-1.528.806-2.078c.837-.55 1.834-.51 2.227.088zm-39.133-17.175l26.24-15.95 5.482 12.226-27.324 16.43-4.398-12.706zm6.087 16.494l27.29-16.584 5.482 12.225-28.015 17.444-4.758-13.083zm-57.204 12.186c-.393-.598-.03-1.527.807-2.078.837-.55 1.834-.51 2.228.088.393.6.03 1.528-.807 2.078-.838.55-1.836.51-2.228-.088zm150.616 67.973c.317.64-.153 1.52-1.05 1.965s-1.884.284-2.2-.356.152-1.522 1.05-1.967c.898-.445 1.883-.286 2.2.356zm-9.235 3.62l-26.737 16.184-8.074-6.637 27.937-16.418 6.872 6.87zm-30.79-29.996l-27.487 16.518-8.326-7.4 28.412-16.518 7.4 7.4zm-.41-10.097c.316.642-.155 1.52-1.053 1.966s-1.883.285-2.2-.356c-.317-.64.153-1.52 1.052-1.965.895-.445 1.88-.287 2.2.355zm-10.28-9.3c-.392-.6-.03-1.528.807-2.08.837-.55 1.834-.51 2.228.09.393.598.03 1.527-.807 2.077-.838.55-1.835.51-2.227-.088zm-47.322.325l10.042 24.885-16.782 9.25-9.117-24.513 15.858-9.622zM112.43 176.14c-.393-.598-.03-1.528.806-2.078.838-.55 1.834-.51 2.228.088.393.6.03 1.528-.807 2.078-.837.55-1.834.51-2.227-.088zm4.197 3.152l15.74-9.17 9.384 24.886-15.995 8.816-9.128-24.532zm66.618 17.434l27.62-16.518 7.4 7.4-26.694 16.517-8.325-7.4zm39.512-5.418l7.4 7.4-27.487 16.518-8.325-7.4 28.412-16.518zm-94.58 21.113c-.316-.64.154-1.52 1.053-1.965.896-.443 1.882-.285 2.2.356.317.643-.153 1.522-1.052 1.967-.896.445-1.882.286-2.2-.356zm51.537 0c-.316-.64.154-1.52 1.052-1.965.897-.443 1.882-.285 2.2.356.317.643-.154 1.522-1.05 1.967-.898.445-1.883.286-2.202-.356zm-22.992 14.273c-.318-.642.153-1.52 1.05-1.967.897-.443 1.884-.285 2.2.356s-.152 1.52-1.05 1.966c-.897.445-1.883.286-2.2-.355zm2.02 2.836l27.707-16.835 7.796 6.87-27.43 16.602-8.074-6.638zm11.1 8.72l27.013-16.417 7.797 6.87-26.736 16.186-8.075-6.64zm1.152 9.85c-.318-.64.153-1.52 1.05-1.965.898-.444 1.884-.286 2.2.355.318.643-.152 1.52-1.05 1.966-.898.444-1.884.285-2.2-.356z"/></g></svg>