<svg xmlns="http://www.w3.org/2000/svg" width="300" height="800" viewBox="0 0 300 800"><g fill="none" stroke="#47C3D2" stroke-linecap="round" stroke-miterlimit="10"><path d="M252.916 36.228l11.574 12.298 11.094-12.298M264.77 48.066V20.063"/></g><g fill="none" stroke="#FFF" stroke-linecap="round" stroke-miterlimit="10"><path d="M252.916 176.228l11.574 12.298 11.094-12.298M264.77 188.066v-28.003"/></g><path fill="#FFF" d="M178.69 110.56a.75.75 0 0 1-.733-.603c-.037-.184-.348-1.82.033-2.833.1-.266.305-.63.59-1.133.726-1.285 1.942-3.437 1.943-5.134 0-1.734-.378-2.577-.633-2.72-.055-.03-.15 0-.232.04-.234.304-.446.667-.472.817l-.004.022a.75.75 0 0 1-1.485-.21c0-.01.002-.018.003-.026.04-.297.072-1.19-.282-1.59-.084-.097-.23-.202-.612-.22-1.03.016-1.213.834-1.243 1.04a1.27 1.27 0 0 1-.008.066.75.75 0 0 1-1.49-.17l.008-.07c.032-.316.03-1.148-.34-1.52-.064-.066-.262-.266-.86-.2-1.125.134-1.168.633-1.104 1.38.012.15.016.27.01.344a.75.75 0 0 1-1.348.385c-.348-.462-1.115-1.22-1.698-1.29a.51.51 0 0 0-.413.127c-.22.18-.33.376-.352.617-.078.88.96 2.103 1.35 2.564l.165.196a.75.75 0 0 1-.846 1.172c-.01-.004-1.305-.46-1.565.24-.435 1.175-.566 1.53.693 2.658.206.185.403.353.59.51 1.252 1.06 2.24 2.618 2.292 5.495.007.414-.322 1.483-.736 1.483h-.013c-.408 0-.742-1.047-.75-1.457-.04-2.197-.614-3.044-1.76-4.015-.198-.167-.406-.524-.624-.72-1.738-1.558-1.747-2.633-1.098-4.385.306-.827.93-1.24 1.594-1.362-.46-.71-.864-1.614-.786-2.49.057-.64.365-1.22.892-1.653.446-.37.98-.537 1.55-.464.563.07 1.09.353 1.526.684.4-1.04 1.38-1.403 2.256-1.506 1.097-.13 1.752.274 2.108.637.19.194.337.415.447.645.39-.257.893-.43 1.532-.44.906-.01 1.467.392 1.766.734.173.197.303.418.4.648.777-.397 1.377-.192 1.676-.024 1.156.65 1.398 2.55 1.397 4.03-.002 2.09-1.34 4.457-2.138 5.87-.223.395-.433.766-.49.922-.184.486-.058 1.565.032 2.012a.75.75 0 0 1-.736.898z"/><g fill="#FFF"><path d="M174.48 122.818l-5.23-5.727a.5.5 0 1 1 .74-.673l4.463 4.89 4.286-5.012a.5.5 0 0 1 .76.65l-5.02 5.873z"/><path d="M174.5 121.95a.5.5 0 0 1-.5-.5v-8.63a.5.5 0 0 1 1 0v8.63a.5.5 0 0 1-.5.5z"/></g><g fill="#FFF"><path d="M170.17 88.09a.5.5 0 0 1-.38-.825l4.627-5.413 4.927 5.4a.5.5 0 1 1-.738.674l-4.165-4.563-3.89 4.55a.5.5 0 0 1-.38.177z"/><path d="M174.5 92.27a.5.5 0 0 1-.5-.5v-8.63a.5.5 0 0 1 1 0v8.63a.5.5 0 0 1-.5.5z"/></g><path fill="none" stroke="#FFF" stroke-miterlimit="10" d="M6.23 35.77l17.54-16.51L6.23 3.44M22.77 43.437L5.23 59.947 22.77 75.77"/><g fill="#56504F"><path d="M25.322 117.083a3.863 3.863 0 0 0-.31-1.01 2.748 2.748 0 0 0-.816-1.026c-.45-.346-.967-.518-1.53-.568a3.39 3.39 0 0 0-1.295.125 2.49 2.49 0 0 0-1.196.834c-.072.09-.137.187-.207.28-.01.013-.016.03-.043.022v-.104-.876c0-.034.007-.07-.018-.11H17.31c-.018 0-.036.006-.055.008v.228c.003.516.01 1.033.01 1.55 0 1.316-.002 2.634-.005 3.952 0 .49-.005.98-.008 1.47l-.002.72c0 .036-.01.07.013.11l.114.002h2.484c.018 0 .036-.005.055-.008.013-.048.01-.088.01-.13v-4.333c0-.092 0-.187.007-.28.008-.137.03-.27.083-.398.056-.14.128-.27.22-.39.178-.237.402-.41.684-.507.193-.066.393-.08.595-.066.442.032.775.236.983.633.073.137.124.284.158.437.055.242.077.487.077.734V122.69l.127.002h2.483c.02-.002.036-.008.06-.01v-.13-4.48c0-.333-.024-.66-.08-.99zM15.77 114.804v-.087c0-.02-.005-.038-.006-.06-.018-.002-.03-.005-.042-.005H13.1l-.003.136V122.624c0 .02.005.038.008.063.04 0 .073.004.11.004h1.566c.294 0 .585.002.877 0 .034 0 .07.01.104-.013.017-.043.008-.09.008-.136.002-2.577 0-5.155 0-7.736zM15.1 110.896c-.14-.06-.29-.09-.44-.106a1.78 1.78 0 0 0-.817.09 1.31 1.31 0 0 0-.8.747 1.36 1.36 0 0 0-.09.724c.078.557.385.934.915 1.117.407.14.817.125 1.218-.03.528-.203.854-.674.86-1.3-.007-.056-.013-.153-.032-.248a1.304 1.304 0 0 0-.814-.994z"/></g><path fill-rule="evenodd" clip-rule="evenodd" fill="#56504F" d="M22.83 214.674h-5.862v3.518h5.86v-3.518zm0 14.067v-2.343h-5.862v2.344h5.86zm-5.862 17.585h5.86v-9.378h-5.86v9.378zm14.065-21.1l-2.564-2.93 2.563-2.93H12.28l-3.048 2.93 3.047 2.93h18.753zm-2.343 4.69H9.935l2.564 2.93-2.565 2.93H28.69l3.077-2.93-3.077-2.93zM30.505 316.803h-1.94v-1.94h.972v-1.938H11.112v1.94h.97v1.938h-1.94a.97.97 0 0 1-.97-.97v-9.696c0-.938 3.88-1.94 10.668-1.94h.97c6.727 0 10.666.98 10.666 1.94v9.697a.97.97 0 0 1-.97.97zm-2.424-9.698c-.802 0-1.452.652-1.452 1.455a1.455 1.455 0 1 0 1.453-1.455zm-15.03-8.726a.97.97 0 0 1 .97-.97h12.607c.535 0 .97.432.97.97v4.847H13.05v-4.848zm14.546 24.24a.97.97 0 0 1-.97.97H14.022a.97.97 0 0 1-.97-.97v-8.728h14.546v8.73zm-1.938-7.757H14.99v.97H25.66v-.97zm0 1.94H14.99v.97H25.66v-.97zm0 1.94H14.99v.968H25.66v-.968zm0 1.94H14.99v.968H25.66v-.968z"/><path fill="#56504F" d="M19.79 274.774c-.028-.02-3.298-5.517-3.31-5.588-.676-1.478-1.222-2.986-.084-3.657l-4.72-7.958c-1.222.914-4.68 5.876 1.793 17.118 6.818 11.85 13.31 11.354 14.61 10.553l-4.598-7.767c-1.087.64-2.002-.413-3.693-2.702zm12.07 7.015v-.006l-3.59-6.054a1.006 1.006 0 0 0-1.375-.35l-2.2 1.3 4.612 7.788s2.2-1.295 2.2-1.298h.003a1 1 0 0 0 .35-1.38zm-12.038-18.286v-.004c.506-.3.624-.92.354-1.375l.002-.006s-3.693-6.23-3.695-6.23a1.002 1.002 0 0 0-1.373-.352l-2.2 1.302 4.713 7.96s2.198-1.292 2.2-1.296zM32.817 342.07v18.306H6.98V342.07l12.92 11.304 12.917-11.305zm-1.226-1.446H8.208l11.693 10.23 11.69-10.23z"/><path fill="#333131" d="M31.816 165.257l14.74 14.11h-29.48l14.74-14.11zm14.742-4.315v15.875l-10.083-9.65 4.555-3.58v-6.33h-5.527v-5.528h-12.9v11.858l4.556 3.575-10.084 9.653v-15.874l3.686-2.764v-8.292h16.582l5.527 5.527v2.765l3.688 2.764zm-26.875.348l1.08.85v-1.658l-1.08.808zm24.268 0l-1.08-.81v1.66l1.08-.85z"/><path fill="none" stroke="#EFEBD7" stroke-linecap="round" stroke-linejoin="round" stroke-miterlimit="10" d="M58.184 31.63L70.48 20.054 58.184 8.96"/><path fill-rule="evenodd" clip-rule="evenodd" fill="#FFF" d="M195.16 184.946c0-2.416-.014-4.83.006-7.246.01-1.2.16-2.373-1.482-2.355-1.675.018-1.36 1.284-1.36 2.44.004 2.4-.103 4.787-.103 7.188-.192 0-.63-.01-.822-.01v-3.77c0-1.918-.01-3.836-.002-5.753.006-1.14-.107-2.012-1.536-1.986-1.442.025-1.225 1.075-1.22 2.188.012 2.65-.13 8.99-.13 8.99l-.784.184s-.144-.73-.147-1.114c-.02-2.255-.182-4.313-.167-6.57.006-1.108-.23-1.797-1.354-1.788-1.14.01-1.58.646-1.572 1.74.02 2.595-.026 5.19.033 7.784.18 2.768.975 4.458.746 3.846-.918-2.446-3.548-3.667-5.738-2.71-.852.373-1.29.87-.412 1.59 2.064 1.693 3.037 3.858 3.582 6.473.7 3.368 2.897 4.813 6.39 4.834 1.41.01 2.82.037 4.23-.005 3.606-.108 5.767-2.286 5.792-5.88.03-4.342-.004-8.686.017-13.03.004-1.138-.175-2.04-1.602-2.04-1.438.002-1.22 1.115-1.2 2.246.028 1.647-.157 4.836-.157 4.836s-.8-.083-1.008-.08zM192.75 213.904l4.666-4.743c.59-.6.59-1.572 0-2.172-.59-.6-1.547-.6-2.138 0l-2.085 2.12v-5.09c0-.85-.677-1.537-1.512-1.537s-1.51.69-1.51 1.538v5.09l-2.086-2.12c-.59-.6-1.548-.6-2.138 0a1.54 1.54 0 0 0-.443 1.087c0 .393.147.787.443 1.086l4.666 4.744c.59.6 1.548.6 2.138 0zM190.612 158.772l-4.666 4.743c-.59.6-.59 1.573 0 2.173s1.548.6 2.138 0l2.085-2.12v5.09c0 .85.676 1.537 1.512 1.537.834 0 1.512-.688 1.512-1.537v-5.09l2.084 2.12c.59.6 1.55.6 2.14 0 .294-.3.442-.693.442-1.087 0-.392-.148-.786-.443-1.085l-4.666-4.743c-.59-.6-1.547-.6-2.138 0zM164.012 213.904l4.666-4.743c.59-.6.59-1.572 0-2.172-.59-.6-1.547-.6-2.138 0l-2.085 2.12v-5.09c0-.85-.677-1.537-1.512-1.537s-1.512.69-1.512 1.538v5.09l-2.084-2.12c-.59-.6-1.548-.6-2.138 0a1.54 1.54 0 0 0-.443 1.087c0 .393.147.787.443 1.086l4.666 4.744c.59.6 1.548.6 2.138 0zM161.874 158.772l-4.666 4.743c-.59.6-.59 1.573 0 2.173s1.548.6 2.138 0l2.085-2.12v5.09c0 .85.678 1.537 1.514 1.537.834 0 1.512-.688 1.512-1.537v-5.09l2.084 2.12c.59.6 1.55.6 2.14 0 .294-.3.442-.693.442-1.087 0-.392-.148-.786-.443-1.085l-4.667-4.743c-.59-.6-1.548-.6-2.14 0zM154.818 181.74c.066-.75.182-1.5.188-2.25.018-3.542.05.7-.016-2.843-.033-1.8.28-2.787 2.213-2.81 1.914-.023 1.69 2.212 2.61 3.6 1.042-.394 1.595-3.116 2.933-2.71 1.453.442 1.307 1.81 1.607 3.69.098-.26.813-1.375 1.188-1.646 3.292-.5 1.944 1.815 2.44 3.96.43-1.01.812-1.605 1.23-1.897 1.552-.155 1.993.32 1.985 1.652-.012 2.88.037 4.72-.01 7.597-.01.555-.285 2.232-1.018 3.305-1.21 1.77-1.42 1.635-1.557 3.995-.025.42-.895 1.326-1.404 1.348-3.096.125-6.2.114-9.3.005-.495-.017-1.42-.82-1.374-1.153.514-3.77-2.068-5.326-3.498-8.327-.158-.333-.357-.645-.54-.965-2.15-3.82-2.15-3.82 1.122-7.492l.408 2.92.794.022z"/><path fill="none" stroke="#000" stroke-miterlimit="10" d="M113.5 6v15M121 13.5h-15"/><path clip-rule="evenodd" fill="none" stroke="#EFEBD7" stroke-width="2" stroke-miterlimit="10" d="M135.368 17.684l12.554-9.208 11.698 9.208M155 8v6"/><path fill="#EFEBD7" d="M144 28v-2.547c0-1.904 1.55-3.453 3.547-3.453A3.457 3.457 0 0 1 151 25.453V28h2v-2.547c0-3.007-2.446-5.453-5.547-5.453A5.46 5.46 0 0 0 142 25.453V28h2z"/><path fill="none" stroke="#FFF" stroke-miterlimit="10" d="M252.784 344.438l-17.54 16.51 17.54 15.823M235 360.5h57M274.216 383.438l17.54 16.51-17.54 15.823M292 399.5h-57"/><path fill="#EFEBD7" d="M30.576 385.053l-2.003 2.002v.333c0 .367-.058.714-.145 1.055-.046 2.753-.922 6.406-4.526 9.29-7.086 5.667-14.68.665-14.68.665 6.007 0 6.007-2 6.007-2-1.337 0-4.005-2.67-4.005-2.67.667.668 2.003 0 2.003 0-3.337-2-3.337-4.002-3.337-4.002.668.666 2.002 0 2.002 0-3.334-2.67-1.335-6.007-1.335-6.007.668 3.336 9.343 4.67 9.343 4.67l.11-.054c-.068-.306-.11-.954-.11-1.28 0-2.396 1.94-4.004 4.336-4.004 1.32 0 2.486.602 3.28 1.53l.39-.195 2.002-1.335-1.335 2.67 2.003-.67z"/><path fill="#56504F" d="M60.104 113.244l-1.244 1.244v.208c0 .228-.036.444-.09.656-.028 1.71-.573 3.98-2.813 5.77-4.402 3.522-9.12.415-9.12.415 3.732 0 3.732-1.244 3.732-1.244-.832 0-2.49-1.658-2.49-1.658.415.415 1.246 0 1.246 0-2.074-1.244-2.074-2.487-2.074-2.487.414.413 1.243 0 1.243 0-2.07-1.66-.83-3.732-.83-3.732.416 2.073 5.806 2.903 5.806 2.903l.07-.036a4.958 4.958 0 0 1-.07-.795c0-1.49 1.207-2.488 2.695-2.488.82 0 1.544.374 2.04.95l.24-.12L59.69 112l-.83 1.658 1.244-.414z"/><g fill-rule="evenodd" clip-rule="evenodd" fill="#EFEBD7"><path d="M29.51 430.984a5.364 5.364 0 0 0-.435-1.407 3.84 3.84 0 0 0-1.136-1.43c-.628-.483-1.35-.723-2.132-.792a4.715 4.715 0 0 0-.865-.006 4.006 4.006 0 0 0-.942.18 3.474 3.474 0 0 0-1.666 1.163c-.1.13-.192.263-.29.393-.013.018-.02.043-.06.03v-.146-1.22c0-.05.01-.1-.025-.153h-3.522c-.032 0-.063-.002-.095 0-.026 0-.05.007-.077.01v.318c.004.72.013 1.44.013 2.158-.002 1.836-.003 3.672-.008 5.508-.002.683-.007 1.366-.01 2.05 0 .334-.004.668-.004 1.003 0 .05-.013.1.02.152.05.003.104.005.16.005h3.36c.035 0 .066.002.097-.002.026 0 .05-.006.077-.01.02-.066.013-.123.013-.182v-6.038c0-.13.002-.262.012-.392.01-.19.04-.378.116-.555.078-.193.18-.376.306-.542.248-.33.562-.572.954-.707.27-.09.55-.108.83-.09.617.045 1.082.33 1.37.882.103.19.173.396.22.608.077.337.108.68.108 1.023V438.794c.07 0 .124.005.177.005h3.364c.032 0 .064.002.096-.002.026-.002.05-.01.083-.015v-.18c0-2.08-.002-4.16 0-6.24 0-.462-.035-.92-.113-1.376zM16.196 427.81v-.122c0-.027-.005-.053-.008-.082-.024-.004-.043-.008-.06-.008h-3.653c0 .074-.003.132-.003.19V438.706c.002.027.006.053.01.088.056 0 .103.006.153.006h2.184c.406 0 .812.003 1.22 0 .047 0 .1.015.145-.02.022-.06.01-.124.01-.188.003-3.594 0-7.188 0-10.783zM15.264 422.363a2.135 2.135 0 0 0-.615-.148 2.474 2.474 0 0 0-1.137.124c-.516.187-.9.527-1.113 1.04a1.875 1.875 0 0 0-.128 1.01c.11.774.54 1.3 1.277 1.556.564.195 1.138.175 1.696-.04.735-.284 1.19-.94 1.2-1.814-.01-.077-.02-.213-.046-.346-.136-.658-.513-1.123-1.136-1.383z"/></g><path fill="none" stroke="#16335A" stroke-miterlimit="10" d="M14.997 487.146l31.28 15.35 29.982-15.35"/><path fill="none" stroke="#EFEBD7" stroke-linejoin="round" stroke-miterlimit="10" d="M15.344 486.34l30.934 15.157 29.6-15.157"/><path fill="#EFEBD7" d="M15.445 568.5l10.5 10.05h-21l10.5-10.05zm10.5-3.073v11.31l-7.182-6.876 3.244-2.55v-4.51H18.07v-3.937H8.883v8.447l3.244 2.548-7.182 6.876v-11.308l2.625-1.97v-5.906h11.813l3.938 3.938v1.97l2.625 1.97zm-19.143.248l.77.604v-1.182l-.77.577zm17.288 0l-.77-.576v1.18l.77-.605z"/><path fill="none" stroke="#EFEBD7" stroke-miterlimit="10" d="M17.184 606.63l9.296-8.575-9.296-8.094M26 598.5H4"/></svg>